<svg xmlns="http://www.w3.org/2000/svg" viewBox="0 0 128 128"><path fill="#0C2129" d="M94 125.912c17.625 0 31.912-14.288 31.912-31.912S111.625 62.088 94 62.088c-17.624 0-31.912 14.288-31.912 31.912S76.376 125.912 94 125.912"/><path fill="#37BEC1" d="m98.443 74.556-21.865 9.735a3.99 3.99 0 0 0 3.245 7.289l21.865-9.735a3.99 3.99 0 0 0 2.021-5.266v-.001a3.987 3.987 0 0 0-5.266-2.022"/><path fill="#FBB144" d="M92.378 90.356 77.8 96.846a3.987 3.987 0 0 0 .194 7.368 4 4 0 0 0 3.052-.08l14.576-6.49a3.99 3.99 0 0 0-3.244-7.288"/><path fill="#E4615E" d="m108.177 96.421-21.865 9.735a3.99 3.99 0 0 0-2.022 5.266v.001a3.987 3.987 0 0 0 5.267 2.021l21.865-9.734a3.986 3.986 0 0 0 2.021-5.267 3.986 3.986 0 0 0-5.266-2.022"/></svg>
