<svg xmlns="http://www.w3.org/2000/svg" fill="none" viewBox="0 0 128 128"><path fill="#0C2129" d="M95.912 63.824c17.625 0 31.912-14.288 31.912-31.912S113.537 0 95.912 0C78.288 0 64 14.288 64 31.912s14.288 31.912 31.912 31.912"/><path fill="#37BEC1" d="M100.355 12.468 78.49 22.203a3.99 3.99 0 0 0 3.245 7.289l21.865-9.735a3.99 3.99 0 0 0-1.727-7.633 4 4 0 0 0-1.518.344"/><path fill="#FBB144" d="m94.29 28.268-14.578 6.49a3.987 3.987 0 0 0 .194 7.368 4 4 0 0 0 3.052-.08l14.576-6.49a3.99 3.99 0 0 0-3.244-7.288"/><path fill="#E4615E" d="m110.089 34.333-21.865 9.735a3.99 3.99 0 0 0 3.245 7.288l21.865-9.734a3.987 3.987 0 0 0 1.123-6.539 3.98 3.98 0 0 0-2.85-1.094c-.524.014-1.04.13-1.518.344"/></svg>
