<svg xmlns="http://www.w3.org/2000/svg" viewBox="0 0 128 128"><circle cx="64" cy="64" r="64"/><path fill="#dceffe" d="M65.055 84.995c26.475 7.803 36.678 7.105 52.865 2.41a54.8 54.8 0 0 1-9.749 15.861c-12.349 3.412-22.66 2.93-44.532-4.706-20.616-7.198-33.93-7.05-48.228-3.426a54 54 0 0 1-5.331-12.04C26.886 78.9 41.323 78 65.055 84.994M19.88 101.533c10.429 12.899 26.653 21.187 44.876 21.187 13.472 0 25.852-4.53 35.605-12.104-9.476 1.28-19.31-.035-36.487-5.461-18.65-5.892-31.147-6.183-43.994-3.622"/><path fill="#fff" fill-rule="evenodd" d="M107.679 84.05c-12.155 3.544-22.13 3.143-43.57-4.584-16.76-6.04-28.539-6.907-40.079-4.89 2.006-8.173 3.996-15.648 5.053-18.698a262 262 0 0 0 1.618-4.755 53 53 0 0 1 1.092-3.072c-2.747-2.504-4.543-6.645-4.543-11.331 0-7.643 4.778-13.84 10.672-13.84 3.51 0 6.626 2.199 8.57 5.592a33 33 0 0 1 3.422-2.11c4.307-2.299 8.924-3.482 13.586-3.482s9.278 1.183 13.586 3.483a33 33 0 0 1 4.603 2.978c1.89-3.882 5.228-6.461 9.03-6.461 5.893 0 10.671 6.197 10.671 13.84 0 5.372-2.36 10.028-5.808 12.322q.38 1.033.717 2.08c.536 1.668 1.654 4.45 2.954 7.684l.007.017c1.6 3.978 5.292 15.049 8.419 25.226M41.542 32.68a40 40 0 0 0-3.145 3.6 45 45 0 0 0-3.399 5.074c-.963-1.114-1.57-2.735-1.57-4.541 0-3.358 2.096-6.079 4.681-6.079 1.357 0 2.578.75 3.433 1.946m14.354 15.074c0 1.962-1.634 3.553-3.651 3.553s-3.651-1.59-3.651-3.553 1.634-3.554 3.651-3.554 3.651 1.591 3.651 3.554m18.347 15.367c0 3.013-6.447 8.572-9.83 8.572-3.698 0-9.828-5.56-9.828-8.572 0-3.013 4.4-5.455 9.829-5.455 5.428 0 9.829 2.442 9.829 5.455m5.804-15.367c0 1.962-1.635 3.553-3.651 3.553s-3.652-1.59-3.652-3.553S74.38 44.2 76.396 44.2s3.65 1.591 3.65 3.554m8.387-11.475a40 40 0 0 0-3.145-3.599c.855-1.197 2.076-1.946 3.433-1.946 2.585 0 4.68 2.721 4.68 6.079 0 1.806-.606 3.427-1.57 4.54a45 45 0 0 0-3.398-5.074"/></svg>
