<svg xmlns="http://www.w3.org/2000/svg" viewBox="0 0 134 132"><g filter="url(#_bedrock-a)"><path fill="url(#_bedrock-b)" d="M15.008 77.294 4 93.455l.72 5.975 14.33 11.077s15.525 12.076 23.909 13.263c2.778.388 29.062-19.74 46.507-28.74 14.159-7.304 22.416-10.075 22.416-10.075l18.118 3.5-34.553-32.426S70.541 71.145 64.571 77.286c-5.977 6.137-21.668 17.195-21.668 17.195l-16.942-5.056-10.953-12.139z"/><path fill="url(#_bedrock-c)" d="M27.208 47.969 16.813 63.195l10.09 11.668 15.501 4.727L67.81 58.41l14.944-8.473 10.458-4.6L77.274 32.5s-19.927 1.227-27.143 10.068c0 0-13.941 13.26-16.19 11.541l-6.721-6.14z"/><path fill="url(#_bedrock-d)" d="M52.269 5 28.772 36.194s4.314 6.374 6.721 5.036c2.708-1.492 12.659-11.683 17.108-13.758 8.907-4.157 4.964-2.91 15.209-5.527l7.283 1.255z"/></g><defs><linearGradient id="_bedrock-b" x1="130" x2="39.023" y1="141.028" y2="-6.815" gradientUnits="userSpaceOnUse"><stop offset=".333" stop-color="#3FB0FF"/><stop offset=".719" stop-color="#9236EA"/><stop offset="1" stop-color="#F29A6B"/></linearGradient><linearGradient id="_bedrock-c" x1="130" x2="39.023" y1="141.028" y2="-6.815" gradientUnits="userSpaceOnUse"><stop offset=".333" stop-color="#3FB0FF"/><stop offset=".719" stop-color="#9236EA"/><stop offset="1" stop-color="#F29A6B"/></linearGradient><linearGradient id="_bedrock-d" x1="130" x2="39.023" y1="141.028" y2="-6.815" gradientUnits="userSpaceOnUse"><stop offset=".333" stop-color="#3FB0FF"/><stop offset=".719" stop-color="#9236EA"/><stop offset="1" stop-color="#F29A6B"/></linearGradient><filter id="_bedrock-a" width="134" height="126.776" x="0" y="5" color-interpolation-filters="sRGB" filterUnits="userSpaceOnUse"><feFlood flood-opacity="0" result="BackgroundImageFix"/><feColorMatrix in="SourceAlpha" result="hardAlpha" values="0 0 0 0 0 0 0 0 0 0 0 0 0 0 0 0 0 0 127 0"/><feOffset dy="4"/><feGaussianBlur stdDeviation="2"/><feComposite in2="hardAlpha" operator="out"/><feColorMatrix values="0 0 0 0 0 0 0 0 0 0 0 0 0 0 0 0 0 0 0.25 0"/><feBlend in2="BackgroundImageFix" result="effect1_dropShadow_158_2"/><feBlend in="SourceGraphic" in2="effect1_dropShadow_158_2" result="shape"/></filter></defs></svg>
