<svg xmlns="http://www.w3.org/2000/svg" fill="none" viewBox="0 0 128 128"><g filter="url(#_bedrock-a)"><path fill="url(#_bedrock-b)" d="M15.1 72.57 4.747 87.745l.677 5.609 13.478 10.399s14.601 11.338 22.487 12.453c2.613.363 27.333-18.533 43.74-26.983 13.318-6.858 21.083-9.46 21.083-9.46l17.041 3.287-32.498-30.443s-23.425 14.19-29.04 19.956c-5.621 5.761-20.379 16.144-20.379 16.144L25.402 83.96 15.1 72.563z"/><path fill="url(#_bedrock-c)" d="m26.575 45.04-9.777 14.293 9.49 10.955 14.579 4.437 23.895-19.884 14.055-7.955 9.836-4.319-14.99-12.05s-18.742 1.151-25.529 9.45c0 0-13.112 12.45-15.227 10.836l-6.321-5.763z"/><path fill="url(#_bedrock-d)" d="m50.145 4.698-22.1 29.286s4.058 5.985 6.322 4.728c2.547-1.4 11.906-10.968 16.09-12.917 8.378-3.903 4.67-2.732 14.305-5.189l6.85 1.178z"/></g><defs><linearGradient id="_bedrock-b" x1="123.253" x2="37.909" y1="132.407" y2="-6.531" gradientUnits="userSpaceOnUse"><stop offset=".333" stop-color="#3FB0FF"/><stop offset=".719" stop-color="#9236EA"/><stop offset="1" stop-color="#F29A6B"/></linearGradient><linearGradient id="_bedrock-c" x1="123.253" x2="37.909" y1="132.406" y2="-6.531" gradientUnits="userSpaceOnUse"><stop offset=".333" stop-color="#3FB0FF"/><stop offset=".719" stop-color="#9236EA"/><stop offset="1" stop-color="#F29A6B"/></linearGradient><linearGradient id="_bedrock-d" x1="123.253" x2="37.909" y1="132.406" y2="-6.531" gradientUnits="userSpaceOnUse"><stop offset=".333" stop-color="#3FB0FF"/><stop offset=".719" stop-color="#9236EA"/><stop offset="1" stop-color="#F29A6B"/></linearGradient><filter id="_bedrock-a" width="126.506" height="119.513" x=".747" y="4.698" color-interpolation-filters="sRGB" filterUnits="userSpaceOnUse"><feFlood flood-opacity="0" result="BackgroundImageFix"/><feColorMatrix in="SourceAlpha" result="hardAlpha" values="0 0 0 0 0 0 0 0 0 0 0 0 0 0 0 0 0 0 127 0"/><feOffset dy="4"/><feGaussianBlur stdDeviation="2"/><feComposite in2="hardAlpha" operator="out"/><feColorMatrix values="0 0 0 0 0 0 0 0 0 0 0 0 0 0 0 0 0 0 0.25 0"/><feBlend in2="BackgroundImageFix" result="effect1_dropShadow_164_38"/><feBlend in="SourceGraphic" in2="effect1_dropShadow_164_38" result="shape"/></filter></defs></svg>
