<svg xmlns="http://www.w3.org/2000/svg" viewBox="0 0 128 128"><path d="M64 6.83c7.721 0 15.208 1.511 22.252 4.49a57 57 0 0 1 9.709 5.27 57.6 57.6 0 0 1 8.466 6.985 57.6 57.6 0 0 1 6.985 8.466 57 57 0 0 1 5.27 9.708c2.979 7.044 4.489 14.53 4.489 22.25 0 7.722-1.51 15.207-4.489 22.251a57 57 0 0 1-5.27 9.709 57.5 57.5 0 0 1-15.451 15.45 57 57 0 0 1-9.71 5.27c-7.043 2.979-14.53 4.49-22.251 4.49s-15.208-1.511-22.252-4.49a57 57 0 0 1-9.709-5.27 57.6 57.6 0 0 1-15.451-15.45 57 57 0 0 1-5.27-9.709C8.34 79.206 6.828 71.72 6.828 64s1.511-15.207 4.49-22.251a57 57 0 0 1 5.27-9.708 57.6 57.6 0 0 1 6.985-8.466 57.6 57.6 0 0 1 8.466-6.985 57 57 0 0 1 9.71-5.27C48.791 8.341 56.278 6.83 64 6.83M64 0C28.654 0 0 28.654 0 64s28.654 64.001 64 64.001 64-28.654 64-64C128 28.652 99.347 0 64 0"/><path d="M44.58 39.477v-4.719c0-3.817 2.497-6.92 6.26-7.584 2.842-.501 5.47.03 7.562 2.206 1.37 1.425 2.078 3.147 2.105 5.126.024 1.642.006 3.284.006 4.948h8.633c.006-.102.016-.21.016-.32v-4.478c.012-4.24 3.362-7.588 7.6-7.627 1.461-.015 2.883.13 4.185.834 2.67 1.45 4.066 3.704 4.141 6.74.04 1.605.008 3.21.008 4.868h11.22c2.098 0 3.484 1.397 3.674 3.485.164 1.788-.296 3.415-.887 5.05a16.7 16.7 0 0 1-2.6 4.688c-.88 1.117-1.87 2.158-2.883 3.155-1.317 1.29-2.702 2.513-4.073 3.747-.75.674-1.424 1.4-1.854 2.32-.124.264-.228.567-.228.853-.013 6.877.015 13.754-.019 20.63-.04 8.264-6.153 15.633-14.265 17.202a21.7 21.7 0 0 1-3.8.373c-3.566.048-7.132.017-10.699.016-8.703 0-15.996-5.935-17.7-14.457a18.7 18.7 0 0 1-.33-3.576c-.032-6.7-.014-13.4-.021-20.099a1.6 1.6 0 0 0-.134-.607c-.544-1.264-1.503-2.191-2.504-3.095a237 237 0 0 1-4.006-3.706c-1.54-1.456-2.923-3.058-3.925-4.933-1.128-2.109-2.085-4.298-2.085-6.76a7 7 0 0 1 .182-1.651c.38-1.562 1.764-2.622 3.386-2.624q6.297-.008 12.595 0zm12.402 7.584H43.257c-.882 0-1.64.593-1.754 1.457a4.7 4.7 0 0 0 .021 1.508c.304 1.535.97 2.926 2.04 4.068s2.234 2.157 3.32 3.263c.822.835 1.343 1.828 1.341 3.052q-.01 11.262 0 22.524-.008.797.099 1.587c.759 5.154 5.084 8.88 10.293 8.88q5.367-.001 10.734-.005.798.008 1.589-.09a10.33 10.33 0 0 0 8.92-10.22c0-1.252-.01-2.505.01-3.755 0-.29-.083-.41-.36-.495a32 32 0 0 1-7.506-3.409c-5.387-3.346-9.514-7.83-12.19-13.607-1.282-2.772-2.163-5.669-2.471-8.707-.203-1.992-.245-4.002-.36-6.05M79.34 67.19a3.4 3.4 0 1 0-6.803-.082 3.4 3.4 0 0 0 3.361 3.443h.008a3.39 3.39 0 0 0 3.434-3.343z"/><path d="M58.32 67.161a3.403 3.403 0 1 1-3.39-3.415h.011a3.39 3.39 0 0 1 3.378 3.4z"/></svg>
