<svg xmlns="http://www.w3.org/2000/svg" viewBox="0 0 128 128"><path fill="#FF8985" d="M87.825 23.083c2.426-.29 4.926.19 7.085 1.323a17 17 0 0 1 4.36 3.551c1.782 2.002 3.289 4.476 3.604 7.177.057.846.013 1.69.12 2.536l-.125-.357c-.356.701-.362 1.409-.884 2.023-.383.447-.889.6-1.441.728-.638.003-1.241-.137-1.713-.589-.88-.852-1.314-2.213-2.1-3.168-.31-.38-.68-.774-1.182-.878-1.295-.197-2.716.18-3.97.076-.767-.045-1.43-.447-1.984-.956-.763-.707-1.108-1.583-1.799-2.363-.414-.466-.922-.856-1.447-1.19-.633-.404-1.4-.505-2.137-.489-.987.025-1.81.462-2.781.553-.681.058-1.338.043-1.944-.311-.367-.35-.705-.708-.876-1.196-.156-.427-.15-.85-.124-1.297.244-.566.523-1.093.988-1.512.653-.592 1.31-1.21 2.052-1.692 1.857-1.19 4.125-1.731 6.298-1.97"/><path fill="#C57965" d="M83.718 24.878c.185-.064.328-.046.463.1.314.339.631.767.738 1.221a.427.427 0 0 1-.666.376 3.9 3.9 0 0 1-.737-1.08.455.455 0 0 1 .202-.617"/><path fill="#8678D4" d="M93.178 25.163a.448.448 0 0 1 .787.345c-.175.45-.566.862-.922 1.183-.34.255-.798-.095-.673-.496.2-.385.497-.733.808-1.032"/><path fill="#C57965" d="M88.854 26.68c.462-.143.61.33.384.651-.28.314-.733.914-1.215.738-.206-.115-.194-.46-.056-.623.24-.298.54-.594.887-.766m7.369.549c.482-.084 1.044.27 1.414.552.032.21.078.44-.13.572-.425.09-.924-.219-1.273-.43-.247-.086-.245-.595-.011-.694"/><path fill="#8678D4" d="M100.083 36.463c.319-.138.684.036.684.4a4.3 4.3 0 0 1-.451 1.362c-.311.353-.88.074-.781-.386.101-.447.217-1.043.548-1.376m-18.733-8.55c.219-.024.52-.101.722.004.292.138.325.607.036.766-.375.176-.829.237-1.24.236-.363-.056-.531-.507-.264-.773.204-.147.504-.18.746-.233m17.513 6.24c.43-.128 1.014-.182 1.435-.014.323.22.236.628-.114.754-.413.101-.947.165-1.353.018-.324-.183-.274-.594.032-.758m-5.14-4.986c.245-.218.553-.13.691.148.172.403.306.857.311 1.298-.069.356-.55.43-.753.126-.186-.376-.271-.812-.348-1.22q-.051-.177.099-.352"/><path fill="#BAAC9F" d="M90.525 31.103c.245-.068.533-.165.786-.115a.43.43 0 0 1 .122.743 3 3 0 0 1-1.246.451.446.446 0 0 1-.411-.704c.195-.19.496-.286.75-.375m5.81.67c.375-.207.82.212.59.592a3.2 3.2 0 0 1-1.037.924c-.371.147-.686-.216-.562-.575.213-.395.626-.715 1.008-.94"/><path fill="#FFE0C9" d="M63.078 44.998c.597.006 1.137.215 1.696.397 3.813 1.25 7.47 3.014 10.872 5.13 3.954 2.472 7.534 5.47 10.518 9.056 1.098 1.197 1.896 2.535 2.753 3.905a16 16 0 0 1 2.397 11.362c-.951 1.228-1.514 2.622-1.506 4.19-.56.825-1.026 1.7-1.66 2.48-.575.776-1.271 1.432-1.912 2.15-1.093.003-2.183.05-3.276.03a10 10 0 0 0-1.29.052c.111 1.174-.434 2.016-.817 3.076-.646-.176-1.267-.103-1.925-.108-3.243-.003-6.489 0-9.732-.005-.35.005-.697.02-1.044.036a5.1 5.1 0 0 0-1.755-1.795c-1.174-.727-2.539-1.025-3.897-1.172-1.207-.13-2.386-.048-3.593-.1-2.548-.002-5.097-.023-7.647.017-.805.024-1.607-.047-2.412.011q.188.308.371.618l.076.317c.17.658.069 1.395.095 2.073l-2.58-.01h-.983c-.162-1.052-.418-1.928-.34-3.006-1.863-.062-3.733.06-5.599-.03-.607-.653-1.241-1.27-1.79-1.976-.977-1.216-1.752-2.567-2.39-3.985-.191-.955-.45-1.86-.862-2.743-.772-3.959.173-8.252 2.417-11.597.651-1.042 1.296-2.113 2.066-3.073a174 174 0 0 1 1.473-1.713c2.906-3.261 6.31-6.012 10.035-8.292 3.27-1.996 6.77-3.667 10.411-4.872.6-.193 1.192-.428 1.83-.423"/><path fill="#fff" d="M42.408 25.684c.193-.205.514-.236.77-.14 1.274.395 2.483 1.203 3.543 1.996 2.24 1.693 3.937 4.031 4.909 6.655a36.3 36.3 0 0 1 7.557-1.583c.74-.085 1.483-.12 2.223-.192 2.084-.14 4.115.038 6.186.265 2.34.274 4.642.795 6.886 1.507.829-2.287 2.226-4.282 4.005-5.936-.026.447-.031.87.124 1.297.171.488.51.846.876 1.196a12.3 12.3 0 0 0-2.597 4.063c-.22.391.154.662.392.923 1.247 1.16 2.551 2.258 3.815 3.401.319.303.707.53.853.96-.575-.244-1.052-.608-1.581-.925-1.882-1.13-3.885-2.031-5.998-2.63-1.524-.418-3.067-.728-4.62-1.022a35.4 35.4 0 0 0-13.208-.034c-2.61.5-5.098.965-7.555 2.025a26 26 0 0 0-3.478 1.8c-.463.28-.842.616-1.381.751a3 3 0 0 1 .46-.558l3.468-3.063c.378-.354.8-.69 1.12-1.1.128-.169.132-.278.059-.473a12.35 12.35 0 0 0-4.958-6.03c-.789 1.575-1.97 2.816-3.525 3.656-2.277 1.23-5.004 1.766-7.57 1.915a9.74 9.74 0 0 1-.565 5.365c-1.02 2.484-2.726 4.775-4.993 6.26 1.186 1.734 2.84 3.204 4.746 4.107.382.225.688-.165.96-.382 1.583-1.52 3.097-3.103 4.722-4.578.498-.434.88-.914 1.468-1.162a2.9 2.9 0 0 1-.48.752c-1.468 1.741-2.7 3.642-3.826 5.616-1.877 3.148-3.224 6.521-4.244 10.033a56 56 0 0 0-1.478 6.505c-.144.956-.31 1.882-.327 2.85 2.425 1.03 4.488 2.836 5.68 5.194.413.882.671 1.788.862 2.743a11.8 11.8 0 0 1-.957 5.969c1.712-.016 3.424-.006 5.137-.009 1.866.092 3.736-.031 5.6.03-.078 1.079.197 2.076.36 3.127.125.683.247 1.366.354 2.052-.777-.188-1.524-.463-2.31-.611-1.648-.39-3.32-.538-5.006-.62-2.225-.027-4.45-.006-6.674-.014a5 5 0 0 0-1.19.137c-.195.864-.083 1.8-.113 2.702.02.542-.075 1.201.146 1.706.335.171.783.157 1.154.169 1.948-.002 3.898.007 5.845-.006 1.463-.032 3.036-.136 4.408-.677-.314 1.496-.674 3.067-.716 4.596-.535.088-1.07.075-1.609.068-2.687-.002-5.376.001-8.064-.002-.324.009-.677-.005-.991.085-.196.246-.156.687-.174.987.012.97-.017 1.943.014 2.912.042.23.01.642.33.658.353.083.738.076 1.1.082 3.289-.006 6.581.003 9.87-.004 1.678-.02 3.392-.308 4.727-1.39q-.315 1.909-.64 3.816c-.086.519-.074 1.029-.08 1.554-.733.055-1.463.029-2.199.031-6.436.009-12.875-.011-19.31.012.48-.525.628-1.156.616-1.852q-.004-7.386 0-14.771c-1.29.047-2.581.034-3.866-.112.055 1.145-.03 2.234-.695 3.208-.546.842-1.342 1.266-2.206 1.716 1.174.313 2.259.716 3.154 1.567.741.69 1.195 1.61 1.382 2.594a7.5 7.5 0 0 1-.592 4.583c-.587 1.184-1.8 2.068-3.025 2.51-1.537.537-3.322.565-4.933.547-4.518.008-9.04-.017-13.555.012.24-.311.462-.609.53-1.008.072-.506.044-1.029.048-1.539V85.488a5.7 5.7 0 0 0-.082-.984 16 16 0 0 0-.418-.84c3.55.013 7.103.002 10.654.006-.744-1.61-1.125-3.462-.95-5.233.177-1.977 1.114-3.9 2.405-5.396 1.62-1.876 3.881-3.201 6.26-3.873a14.85 14.85 0 0 1 7.265-.205 52 52 0 0 1 .927-5.504c.85-3.815 2.036-7.524 3.7-11.068a14.8 14.8 0 0 1-5.38-4.445c-.535-.723-1.048-1.485-1.306-2.355-.068-.346-.017-.663.324-.835 1.558-.82 3.043-1.992 4.026-3.463a10.4 10.4 0 0 0 1.499-6.088c-.017-.705-.235-1.379-.275-2.077-.042-.424.208-.778.538-1.015.25-.152.607-.137.891-.14 1.561.044 3.148-.219 4.66-.598 1.364-.36 2.713-.816 3.84-1.69.895-.678 1.6-1.574 1.928-2.656.148-.438.17-.911.324-1.345M15.956 96.288c-1.031-.284-2.144-.335-3.209-.316-1.483.005-2.967-.005-4.45.003-.303.02-.703.015-.967.176-.128.186-.118.478-.137.695-.016.877.005 1.755-.006 2.632.006.478-.037.949.134 1.402.376.187.842.16 1.255.171 1.9-.006 3.801.007 5.7-.006.853-.026 1.914-.107 2.625-.616.796-.61.96-1.884.603-2.77-.14-.44-.457-.688-.768-1.001q-.389-.189-.78-.37m-7.102-8.552c-.454.004-.922-.02-1.374.041-.186.013-.23.184-.253.341-.076.64-.025 1.297-.037 1.94.015.62-.054 1.272.064 1.882.078.374.47.3.765.355 1.295.043 2.597.007 3.894.019.9-.006 1.963.05 2.817-.274.7-.252 1.198-.955 1.173-1.703.002-.573.054-1.25-.307-1.73-.466-.657-1.399-.84-2.155-.859-1.528-.025-3.058-.004-4.587-.012"/><path fill="#fff" d="M86.236 83.667c1.023.009 2.048-.005 3.071.016.02 1.144.519 2.041.907 3.11 2.216 5.29 4.352 10.617 6.647 15.874.394.931.883 1.762 1.72 2.366-2.642.075-5.29-.005-7.933.043.578-.611.53-1.38.364-2.144-.065-.644-.295-1.223-.528-1.819-.419-.119-.829-.197-1.267-.184q-3.684-.005-7.369.001c-.43.017-1.002-.017-1.375.223-.242.222-.306.65-.377.956-.17 1.035-.534 1.909-.062 2.931-1.99.053-3.982.006-5.972.025-.448-.004-.855.046-1.283-.123.463-.402.728-.917.983-1.463a133 133 0 0 0 1.517-3.473c1.867-4.39 3.737-8.778 5.574-13.18.383-1.06.928-1.902.817-3.076.43-.047.86-.06 1.29-.052 1.093.02 2.183-.027 3.276-.03m-.698 3.986a11 11 0 0 0-.367.861c-.887 2.4-1.778 4.796-2.653 7.2-.116.339-.318.728-.211 1.09.566.24 2.625.227 3.231.25 1.468-.028 2.775.07 3.123-.25-.007-.345-.17-.758-.278-1.09 0 0-2.45-6.782-2.642-7.377zM51.26 83.699c2.55-.04 5.099-.02 7.647-.018 1.207.053 2.386-.029 3.593.101 1.358.147 2.724.445 3.897 1.172a5.1 5.1 0 0 1 1.755 1.795c.709 1.28.9 2.839.821 4.28-.076 1.33-.536 2.615-1.42 3.623-.83.945-1.905 1.49-3.076 1.902.435.32.956.503 1.382.848 1.514 1.137 2.763 2.666 3.836 4.212.838 1.23 1.5 2.62 2.895 3.326-.583.197-1.125.11-1.726.122-2.318.006-4.637-.009-6.954.009.261-.219.518-.376.618-.724.037-.243.002-.48-.057-.718-.561-1.465-1.397-2.89-2.502-4.015-.79-.726-1.734-1.342-2.764-1.664-1.188-.397-2.542-.408-3.78-.314-.522.036-.437.484-.48.871.004 1.617-.016 3.235.01 4.852.027.7.165 1.126.593 1.676-2.238.066-4.482-.007-6.722.038.44-.554.575-1.004.566-1.716-.002-5.546.001-11.093-.002-16.64-.026-.677.075-1.414-.094-2.072q-.04-.159-.077-.317a56 56 0 0 0-.371-.618c.805-.058 1.607.013 2.412-.01m8.62 4.059c-1.158-.007-2.317 0-3.476-.003-.417.004-.85-.01-1.262.061-.221.172-.17.47-.197.718-.006 1.385.005 2.771-.005 4.157.005.316-.006.655.071.962.096.273.32.214.555.26.923.078 1.86.024 2.785.041 1.158-.001 2.525.035 3.602-.44.889-.374 1.412-1.274 1.481-2.207.027-.594.047-1.22-.075-1.802-.227-.538-.571-.975-1.093-1.253-.71-.38-1.59-.493-2.386-.494m67.11-4.096c-.561.604-.596 1.321-.603 2.101.001 5.772-.004 11.549.003 17.32.001.733.11 1.382.61 1.95-2.227.071-4.462-.005-6.69.04.413-.515.554-.906.547-1.577.01-5.956.002-11.915.005-17.87a7 7 0 0 0-.073-1.115 3 3 0 0 0-.407-.741c.217-.123.434-.097.674-.105 1.977.006 3.956.012 5.934-.003m-24.121-46.349.125.357c.292 3.022-.332 6.096-1.838 8.736a14.8 14.8 0 0 1-6.382 5.984c1.627 3.49 2.814 7.157 3.661 10.909 1.769-.62 3.7-.633 5.347.334 1.024.59 1.715 1.533 2.114 2.63.413-.456.835-.873 1.401-1.139 1.089-.534 2.388-.444 3.504-.041 1.914.687 3.474 2.293 3.796 4.336.271 1.845-.39 3.52-1.185 5.143 1.357.576 2.622 1.378 3.426 2.643.619.964.812 2.11.55 3.225-.278 1.137-.86 2.225-1.45 3.23q.435.024.868.042c-.645.607-.576 1.388-.627 2.2-.011 3.97 0 7.944-.006 11.914.002 1.268-.148 2.617-.614 3.805-.517 1.319-1.544 2.415-2.85 2.98-1.634.688-3.385.83-5.139.784-2.076.011-4.128-.309-6.116-.9a24 24 0 0 0-.431-.131 16 16 0 0 1-.947-.345l-.66-.224c.258-1.952.69-3.898.767-5.866.998.96 2.013 1.856 3.266 2.478 1.449.746 3.039 1.172 4.677 1.004.742-.08 1.433-.399 1.864-1.025.437-.651.604-1.51.589-2.283.004-3.07 0-6.14.001-9.209-1.598.536-3.27.921-4.957 1.028-2.45.185-5.013-.036-7.338-.862-1.478-.52-2.81-1.345-4-2.355-1.666-1.451-3.208-3.253-3.99-5.341a8.4 8.4 0 0 1-.487-2.316c-.008-1.568.555-2.962 1.506-4.19 1.013-1.146 2.12-1.922 3.55-2.476-.077-1.07-.063-2.157-.055-3.23.014-1.018.086-2.124.494-3.071.214-.514.542-.935.887-1.366-.896-4.382-2.299-8.72-4.383-12.69-1.394-2.542-2.842-4.987-4.714-7.216-.217-.248-.398-.49-.481-.816.535.313.937.747 1.395 1.153 1.627 1.472 3.137 3.066 4.72 4.578.318.246.603.669 1.046.411 3.849-1.856 6.51-5.807 6.771-10.06.552-.13 1.058-.282 1.441-.73.522-.613.528-1.321.884-2.022"/><path fill="#5A1A03" d="M50.982 57.42a7.2 7.2 0 0 1 4.164 1.204c2.896 2.023 4.324 5.823 3.5 9.249a9.6 9.6 0 0 1 4.988-1.674c1.678.082 3.353.603 4.757 1.528 1.083.715 1.998 1.682 2.547 2.864.514 1.102.663 2.36.34 3.54-.368 1.423-1.344 2.6-2.56 3.401-1.452.94-3.22 1.413-4.945 1.385-.988.018-1.967-.06-2.917-.349-1.68-.474-3.232-1.42-4.193-2.902-.606-.922-.881-1.988-.85-3.088-.959.74-2.095 1.233-3.302 1.377-1.807.236-3.627-.34-5.056-1.443-2.777-2.146-3.93-6.002-3.024-9.35a8.3 8.3 0 0 1 2.914-4.434c1.062-.772 2.327-1.209 3.637-1.308m15.09 10.11c.005.65.062 1.23-.291 1.813-.409.712-1.239.943-2.008 1.004-.79.03-1.692-.157-2.196-.817-.441-.568-.424-1.233-.494-1.913-1.139.524-2.329 1.259-3.116 2.25-.484.688-.977 1.472-1.081 2.32a4.15 4.15 0 0 0 .576 2.827c.78 1.269 2.143 2.122 3.556 2.526 1.181.34 2.372.352 3.59.288 1.393-.11 2.736-.536 3.86-1.376.92-.69 1.62-1.634 1.868-2.765.253-1.164-.036-2.357-.686-3.342-.813-1.264-2.242-2.178-3.578-2.816m4.953-3.213c.44-.234 1.007-.033 1.138.458.183.833.014 1.908.39 2.686.666 1.228 2.064 1.965 3.457 1.87 1.425-.079 2.737-1.037 3.202-2.388.192-.622.06-1.338.115-1.965.049-.387.295-.72.708-.752.587-.1.947.368 1.02.893.134 1.335-.06 2.657-.72 3.837.575.404 1.19.765 1.736 1.207.268.232.592.538.603.917-.072.436-.5.612-.9.473-.8-.28-1.41-1.18-2.04-1.709-.202.079-.366.265-.533.399-.384.349-.829.586-1.283.828.348.725.818 1.552.859 2.366.007.272-.08.764-.423.794-.363.051-.613-.287-.776-.56-.367-.676-.48-1.533-.652-2.28a6.9 6.9 0 0 1-2.465-.045c-.13.69-.183 1.418-.392 2.091-.12.329-.295.689-.702.678-.424-.01-.605-.452-.615-.816-.014-.783.483-1.595.779-2.31-.459-.249-.9-.51-1.28-.87-1.36-1.224-1.903-3.077-1.693-4.86.056-.35.124-.757.467-.942"/><path fill="#383838" d="M51.965 58.802c2.023.251 3.757 1.682 4.677 3.455a8.04 8.04 0 0 1 .605 5.778c-.221.864-.695 1.682-1.217 2.4-.845 1.117-2.088 1.931-3.482 2.156-1.38-.032-2.682-.525-3.677-1.485-1.932-1.804-2.565-4.677-2.036-7.205.37-1.318.902-2.544 1.865-3.545.883-.87 2-1.503 3.265-1.554"/><path fill="#fff" d="M53.436 60.918c.314.792.506 1.526 1.175 2.113.505.48 1.097.532 1.696.826-.769.57-1.488 1.125-1.997 1.956-.556.914-.674 1.882-.785 2.924-.254-.166-.178-.432-.24-.702-.103-.938-.369-1.837-.949-2.595-.488-.65-1.108-1.1-1.745-1.59.588-.281 1.158-.325 1.656-.787.677-.579.923-1.33 1.189-2.146m-3.322 5.135c.142.37.216.806.502 1.095.269.264.668.415.997.589-.347.233-.84.477-1.024.869-.26.51-.36 1.134-.504 1.685-.146-.555-.253-1.171-.51-1.687-.172-.382-.662-.602-.982-.857.363-.268.823-.374 1.075-.747.185-.29.246-.655.446-.947"/><path fill="url(#a)" d="M49.2 59.214c.88-.4 1.811-.46 2.765-.412-1.265.051-2.382.683-3.265 1.554-.963 1-1.494 2.227-1.865 3.545-.529 2.528.104 5.401 2.036 7.205.995.96 2.297 1.453 3.677 1.485-1.395.247-2.824-.114-3.992-.894-1.465-.984-2.454-2.52-2.895-4.215-.363-1.342-.302-2.693.003-4.04.47-1.86 1.77-3.45 3.536-4.228"/><path fill="#C57965" d="M101.591 65.13c.754.147 1.467.5 1.887 1.164.453.676.47 1.51.574 2.29.235 1.93-.012 3.774-.364 5.668l.491.16c.407-1.7.909-3.41 1.772-4.945.494-.88 1.17-1.724 2.04-2.26.385-.25.799-.307 1.25-.253 1.585.18 3.167 1.485 3.214 3.157.077 2.106-.642 3.925-1.564 5.773 1.001.264 1.934.69 2.724 1.368.684.575 1.265 1.347 1.246 2.279-.023.999-.586 2.015-1.071 2.869-.781 1.227-1.668 2.67-2.874 3.518-1.732 1.096-3.805 1.6-5.849 1.578-1.81-.011-3.652-.194-5.401-.668-.939-.309-1.946-.663-2.738-1.264-1.036-.74-2.054-1.557-2.906-2.505-.9-1.013-1.68-2.31-1.871-3.667-.155-1.014.125-2.036.72-2.864.642-.892 1.543-1.638 2.578-2.031.476-.2 1.07-.39 1.443-.756.313-.316.226-.758.189-1.158-.152-1.02-.097-1.991-.105-3.026.023-.787.017-1.641.255-2.399.199-.63.659-1.09 1.217-1.427.93-.552 2.073-.787 3.143-.601m-72.417 6.898c1.697.912 3.168 2.33 3.946 4.105.666 1.55.808 3.272.481 4.922-.172.908-.676 1.777-1.234 2.504-.482.604-1.056 1.233-1.756 1.582-.864.435-1.765.698-2.706.903.151-.97.278-1.928.282-2.911-.003-.789-.236-1.573-.446-2.33-.117-.39-.18-.753-.47-1.059-.17 1.366-.326 2.728-.597 4.08-.128.853-.427 1.654-.627 2.49-1.733.192-3.508.115-5.234-.12-.212-.04-.477-.05-.66-.172-.25-.325-.411-.73-.553-1.112-.517-1.552-.874-3.15-.947-4.789l-.315-.01a17.7 17.7 0 0 0-.573 3.023c-.084.853.136 1.615.29 2.444-1.231-.345-2.462-.866-3.496-1.624-.634-.45-.993-1.202-1.295-1.895a7 7 0 0 1-.087-5.159c.748-2.018 2.327-3.633 4.183-4.686 3.556-2.011 8.206-2.129 11.814-.186"/><path fill="#fff" d="M101.174 74.705c.729-.035 1.406.173 1.934.684 1.261 1.223 2.016 2.963 2.205 4.696.127 1.038.093 2.226-.395 3.175-.567 1.136-1.832 1.885-3.047 2.135-1.274.165-2.659-.204-3.806-.752.157-.289.3-.857.74-.703.904.18 1.873.2 2.771-.008.74-.178 1.372-.65 1.703-1.338.477-.975.364-2.046.114-3.066-.211-.961-.826-1.826-1.638-2.38-.592-.393-1.283-.451-1.973-.338-1.076.178-2.166.478-3.135.987-.224.087-.37.26-.588.05-.538-.406-.363-1.26.213-1.537 1.464-.845 3.195-1.543 4.902-1.605"/><path fill="#C57965" d="M89.808 79.038c.06.79.208 1.572.488 2.316.781 2.088 2.323 3.89 3.989 5.341-.81.025-1.617.013-2.426.016-.562.005-1.093-.054-1.645.081-.388-1.068-.887-1.965-.907-3.11-1.023-.02-2.048-.006-3.07-.015.64-.717 1.337-1.373 1.91-2.15.635-.778 1.1-1.654 1.66-2.48m-54.1-1.327c.638 1.418 1.414 2.769 2.391 3.985.548.705 1.182 1.323 1.79 1.975-1.714.003-3.426-.007-5.138.009a11.8 11.8 0 0 0 .957-5.97m8.57-48.874a12.35 12.35 0 0 1 4.958 6.03c.074.195.07.305-.058.474-.322.408-.743.745-1.121 1.1q-1.735 1.53-3.468 3.062a3 3 0 0 0-.46.558c.54-.135.918-.47 1.38-.75a26 26 0 0 1 3.48-1.801c2.456-1.06 4.945-1.525 7.555-2.025a35.4 35.4 0 0 1 13.208.034c1.552.294 3.095.604 4.619 1.021 2.113.6 4.117 1.502 5.998 2.63.53.318 1.006.682 1.58.926-.145-.43-.533-.657-.852-.96-1.263-1.143-2.568-2.241-3.815-3.4-.238-.262-.612-.533-.392-.925a12.3 12.3 0 0 1 2.597-4.062c.607.354 1.263.37 1.944.311.97-.091 1.794-.528 2.78-.553.739-.016 1.505.085 2.138.49.525.333 1.033.723 1.447 1.19.691.78 1.036 1.655 1.8 2.363.553.508 1.216.91 1.983.955 1.254.104 2.675-.273 3.97-.076.502.104.871.498 1.181.878.787.955 1.221 2.316 2.101 3.168.472.452 1.075.592 1.713.59-.261 4.253-2.922 8.204-6.77 10.06-.444.258-.73-.165-1.046-.411-1.584-1.512-3.094-3.106-4.72-4.578-.46-.406-.861-.84-1.396-1.153.083.327.264.568.48.816 1.873 2.229 3.32 4.674 4.715 7.216 2.084 3.97 3.487 8.308 4.383 12.69-.345.43-.673.852-.887 1.366-.408.947-.48 2.053-.494 3.07-.008 1.074-.022 2.162.056 3.231-1.431.554-2.538 1.33-3.551 2.475a16 16 0 0 0-2.397-11.361c-.857-1.37-1.655-2.708-2.753-3.905-2.984-3.585-6.564-6.584-10.518-9.056-3.403-2.116-7.06-3.88-10.871-5.13-.56-.182-1.1-.391-1.697-.397-.638-.005-1.23.23-1.83.423-3.64 1.205-7.14 2.876-10.41 4.872-3.725 2.28-7.13 5.03-10.036 8.292q-.742.852-1.472 1.713c-.77.96-1.416 2.031-2.066 3.073-2.245 3.345-3.19 7.638-2.418 11.597-1.192-2.358-3.255-4.164-5.68-5.193.017-.969.183-1.895.327-2.851a56 56 0 0 1 1.478-6.505c1.02-3.512 2.368-6.885 4.244-10.033 1.125-1.974 2.358-3.875 3.825-5.616.205-.233.355-.468.481-.752-.588.248-.97.728-1.468 1.162-1.625 1.475-3.14 3.059-4.721 4.578-.273.217-.579.607-.961.382-1.905-.903-3.56-2.373-4.746-4.107 2.267-1.485 3.973-3.776 4.993-6.26a9.74 9.74 0 0 0 .565-5.365c2.566-.15 5.293-.685 7.57-1.916 1.555-.839 2.736-2.08 3.525-3.655"/><path fill="#FFE0C9" d="M39.583 35.127c2.046.17 4.004 1.678 4.52 3.678.026.665-.863 1.043-1.309 1.407-1.917 1.397-3.787 2.851-5.54 4.45-.252.19-.518.555-.872.389-.594-.262-1.092-.794-1.499-1.287-1.239-1.568-1.514-3.77-.647-5.577.925-2.02 3.126-3.287 5.347-3.06m48.085.014c2.143.245 3.98 1.84 4.524 3.919.479 1.734.003 3.644-1.198 4.978-.376.398-.828.865-1.356 1.045-.442.064-.859-.553-1.197-.791-1.672-1.495-3.45-2.862-5.267-4.18-.35-.263-.816-.51-1.06-.88-.27-.448.07-1 .276-1.406 1.02-1.87 3.158-2.954 5.278-2.685"/><defs><linearGradient id="a" x1="48.98" x2="48.98" y1="58.788" y2="72.668" gradientUnits="userSpaceOnUse"><stop stop-color="#737373"/><stop offset=".625" stop-color="#C3C3C3"/></linearGradient></defs></svg>
