<svg xmlns="http://www.w3.org/2000/svg" fill="none" viewBox="0 0 128 128"><mask id="a" width="106" height="94" x="11" y="17" maskUnits="userSpaceOnUse" style="mask-type:luminance"><path fill="#fff" d="M116.882 17H11v93.474h105.882z"/></mask><g mask="url(#a)"><path fill="url(#b)" fill-rule="evenodd" d="M116.682 90.622c-.474-10.298-8.929-18.457-19.28-18.457-2.134 0-4.267.396-6.243 1.03l-.079.079a16 16 0 0 0-3.713 1.743l-3.951-11.962c.948-3.248 1.738-6.654 1.58-9.347v-.634c-.474-6.654-2.45-12.595-2.528-12.912a.52.52 0 0 0-.237-.237l-12.722-9.506-22.203-6.179 2.133-3.327.079-.158c.079-.238.553-1.505.079-2.298q-.237-.475-.711-.554c-.948-.238-12.01.079-17.463 1.03-1.58.317-2.45.554-2.923.95-2.292 1.585-6.085 5.387-6.243 5.545l-.158.238 1.502 3.881 1.343-.237-1.106 2.93-4.82 4.516 2.607 3.96v.08l.711 1.03 12.169 2.139 6.321 8.08c-1.422.633-3.477 1.425-4.425 1.425h-.079a.9.9 0 0 0-.395.08l-7.111 4.832 3.872 5.545h.236c.238.079 2.608.396 5.295.633l3.476 4.516-2.45 4.357a19.1 19.1 0 0 0-8.138-1.823c-3.793 0-7.27 1.03-10.193 2.932q-.079 0-.158.079c-5.373 3.406-8.929 9.426-8.929 16.318 0 7.05 3.714 13.229 9.403 16.556q.08.079.08.158c2.923 1.664 6.241 2.614 9.797 2.614 10.588 0 19.28-8.634 19.28-19.328 0-5.783-2.608-11.01-6.637-14.576l1.66-2.218 13.037 13.546-5.769 3.565 12.011 1.267-5.294 6.496 11.615-.317q.87.317 1.897.317 1.106 0 2.133-.475l4.425-.08a19.73 19.73 0 0 0 6.084 8.239l.08.079h.078c3.24 2.535 7.27 4.04 11.695 4.04 10.667 0 19.28-8.635 19.28-19.329zm-19.28-17.427c9.64 0 17.541 7.446 18.252 16.952h-13.432a5.25 5.25 0 0 0-4.9-3.327q-.473 0-.868.079L91.87 73.987c1.738-.554 3.634-.792 5.53-.792m4.267 18.932c0 2.377-1.976 4.357-4.346 4.357s-4.346-1.98-4.346-4.357c0-1.98 1.343-3.723 3.24-4.198q.314-.08.632-.08.237-.079.474-.079c2.37 0 4.346 1.98 4.346 4.357M78.912 72.482l-18.253-3.169 23.389-14.971c-.08 6.178-4.346 16.16-5.136 18.14m-23.31-10.377 6.321-13.15 21.335 4.674-23.784 15.288zm3.003 7.367-5.69 4.436-5.373-5.466 10.589.158zM42.327 33.983l13.196 2.298-6.084 6.178zm6.48 9.269-6.717 7.683.158-15.526zm7.506-6.417 4.741 11.566-5.926 12.357-5.136-17.348zM68.64 81.671l10.272-7.842 1.343 2.851-5.373 10.615h-2.054c-1.818 0-3.398.792-4.425 2.06zm-.395-.95-7.902-10.378 17.542 3.09zM83.81 52.836l-21.888-4.912-4.662-11.327 24.18 4.198c.394 1.267 1.975 6.337 2.37 12.04M68.956 31.369l10.904 8.16-23.073-4.04-.553-.08-14.38-2.535 4.82-7.763zM48.49 18.933c.079 0 .079 0 .079.079.158.238 0 .95-.158 1.426l-2.292 3.564L33.4 19.645c5.768-.633 14.46-.87 15.092-.712m-24.495 9.505-.948-2.455c.869-.872 3.95-3.961 5.847-5.308.158-.079.71-.396 2.37-.713l13.196 4.516L25.418 28.2h-.079zm2.528 13.15-3.793-.634v-.079l3.793-.634zm0-2.376-4.188.633v-4.99l2.055-1.901 2.133 3.723zm-.158-4.912 1.502-1.822c1.264.08 3.792-2.06 3.792-2.06l-4.188.238-1.58 2.931-1.027-1.822 1.027-2.693L45.33 25.27l-4.583 7.446-.079.08-13.354 3.168zm1.185 7.447v-4.833l12.327-2.93-5.531 8.95zm7.665 1.742 5.847-9.347.08.08-.159 16.555zm6.084 9.348q.237-.159.395-.159l.08-.079.157-.158 7.19-8.239 5.216 17.665c-1.185.475-4.583 1.822-7.112 2.297l-10.035-9.743c1.423-.317 3.32-1.188 4.11-1.584m-8.217 10.218L30 58.7l6.005-4.04 9.956 9.664h-.632c-2.686-.159-10.746-1.11-12.247-1.268m6.4 11.724a23.5 23.5 0 0 1 2.686 1.743L33.873 87.77a6 6 0 0 0-1.423-.713zm-4.346 17.269v.08a4.255 4.255 0 0 1-4.267 4.277c-.79 0-1.501-.238-2.133-.634-1.265-.792-2.055-2.139-2.055-3.644 0-2.376 1.897-4.277 4.188-4.277q.395 0 .711.079a4.17 4.17 0 0 1 3.556 4.119M30.87 72.64c2.766 0 5.373.634 7.665 1.664l-7.112 12.595a1.8 1.8 0 0 0-.553-.08q-.948 0-1.817.397l-7.428-12.04c2.687-1.585 5.926-2.536 9.245-2.536M12.617 91.018c0-6.416 3.24-11.961 8.139-15.288l7.349 11.882c-1.423.95-2.45 2.614-2.45 4.515 0 1.664.87 3.248 2.133 4.199l-6.558 10.218a18.27 18.27 0 0 1-8.613-15.526m18.253 18.299c-3.16 0-6.163-.792-8.77-2.297l6.479-10.22c.71.397 1.5.555 2.291.555 2.766 0 5.057-2.138 5.294-4.752l13.038-1.11c-.316 9.902-8.376 17.824-18.332 17.824m18.332-18.774-13.117 1.03a4.64 4.64 0 0 0-1.501-3.169l8.376-11.17c3.713 3.249 6.084 8.002 6.242 13.309M45.093 72.64l-2.292 3.169a16.7 16.7 0 0 0-2.844-1.901l2.765-4.832-3.318-4.278c2.291.238 4.662.475 5.847.555.553 0 1.185 0 1.896-.159 2.766-.475 6.322-1.901 7.586-2.376l2.687 4.832-12.406-.159 7.27 7.447 4.977 10.298zm10.351 17.982 4.346-2.693-.316-.396-6.163-12.675L59 70.343l8.534 11.249-.317 9.585a3 3 0 0 0-.236.633l-1.423-.158zm5.926 7.446 4.346-5.307 1.106.08v.395c0 1.822.87 3.486 2.292 4.595zm13.275-.396a5.1 5.1 0 0 1-1.975.396q-.87 0-1.66-.317c-1.896-.633-3.16-2.455-3.16-4.515V93l4.03.396h.079q.355 0 .474-.476c0-.237-.158-.475-.475-.554l-3.95-.396q0-.238.079-.396c.71-1.901 2.528-3.248 4.583-3.248 2.686 0 4.82 2.218 4.82 4.911 0 1.98-1.186 3.723-2.845 4.436m1.896-.079c.79-.634 1.344-1.584 1.739-2.614q.237 1.347.632 2.614zm2.37-6.1q0-1.663.317-3.326l-1.027.079q-.159 1.188-.237 2.455c-.474-1.03-1.186-1.822-2.134-2.455h2.37q.08-.555.238-1.03H75.83l5.373-10.536-1.659-3.564a133 133 0 0 0 3.16-8.476L86.34 75.57c-3.95 2.694-6.795 6.813-7.901 11.645h1.027c1.422-5.941 5.69-10.694 11.3-12.833l4.503 12.595-15.803.238a6 6 0 0 0-.237.95l14.539-.158a5.3 5.3 0 0 0-1.975 4.12 5.4 5.4 0 0 0 2.528 4.594h-.316l-5.69.475-8.375.238c-.632-1.822-1.027-3.803-1.027-5.942m1.344 6.971 8.139-.237 4.425-.396-7.19 7.842c-2.292-1.901-4.189-4.357-5.374-7.209m16.989 11.407c-4.03 0-7.823-1.346-10.826-3.564l7.902-8.556 2.845-.237c2.923-.08 5.215-2.456 5.215-5.387q0-.475-.079-.95h13.195v.316c0 10.14-8.217 18.378-18.252 18.378" clip-rule="evenodd"/></g><defs><linearGradient id="b" x1="12.064" x2="116.366" y1="74.051" y2="74.051" gradientUnits="userSpaceOnUse"><stop stop-color="#FEAFE7"/><stop offset="1" stop-color="#C100C0"/></linearGradient></defs></svg>
