<svg xmlns="http://www.w3.org/2000/svg" viewBox="0 0 128 128"><path fill="url(#a)" d="M108 101.809a.6.6 0 0 0-.075-.178c-.034-.055-.068-.117-.108-.171a2 2 0 0 0-.367-.364c-.217-.157-.468-.274-.706-.418-.251-.151-.489-.315-.76-.452a16 16 0 0 0-1.637-.679c-1.12-.411-2.308-.747-3.476-1.049a82 82 0 0 0-1.256-.315q-.63-.153-1.263-.295a60 60 0 0 0-3.225-.644q-.816-.142-1.643-.274-.827-.135-1.643-.247a166 166 0 0 0-6.613-.816 263 263 0 0 0-7.04-.637c.108-.39.224-.781.319-1.18a62 62 0 0 0 .937-4.44c1.086-6.142 1.48-12.4 2.132-18.597.108-1.014.21-2.029.319-3.043.285-2.715.53-5.43.631-8.15.02-.5.027-.994.034-1.494.014-.638.007-1.296 0-1.954q.049-1.472.068-2.954v-1.296c.733.048 1.514-.096 2.308-.247a27 27 0 0 0 2.078-.493c.74-.192 1.48-.425 2.207-.692q.438-.163.869-.336a5.94 5.94 0 0 0 2.335 3.03c.387.253.944.623 1.385.294.19-.137.299-.35.4-.555.13-.267.252-.528.374-.795.489-1.076.917-2.187 1.12-3.359.184-1.055.17-2.152-.135-3.187a5.04 5.04 0 0 0-1.596-2.44c-1.466-1.227-3.374-1.673-5.051-2.516-1.073-.541-2.057-1.268-3.049-1.947l-1.561-1.062-.014-.007c-.76-.967-1.514-1.933-2.247-2.92a146 146 0 0 1-3.191-4.435 188 188 0 0 1-1.548-2.276c-.245-.37-.496-.74-.733-1.11a6 6 0 0 1-.475-.843c-.041-.09-.075-.185-.11-.274a1.7 1.7 0 0 1-.074-.309c-.013-.096-.027-.185-.034-.28-.02-.261-.02-.528-.02-.789 0-1.035.142-2.07.34-3.091.128-.638.278-1.275.434-1.906.135-.541.394-1.165.312-1.734a.8.8 0 0 0-.047-.178c.074.014.156.007.23.014.089 0 .177.013.258.013a4 4 0 0 0 .49-.034c.162-.02.325-.034.488-.055.095-.007.183-.02.278-.027q.113-.009.225-.028c.095 0 .176-.013.264-.02.102-.007.21-.007.306-.02.93-.117 1.765-.741 2.308-1.488l.068-.09c.034-.047.061-.102.095-.15.054-.096.102-.192.136-.302.143-.253.238-.527.36-.822.075-.172.15-.357.224-.535.06-.137.115-.281.176-.404.041-.103.075-.213.116-.33q.053-.152.095-.315.04-.142.081-.274c.02-.041.034-.096.055-.144a.9.9 0 0 0 .06-.363c0-.123-.04-.247-.088-.37a1.5 1.5 0 0 0-.325-.48 2.7 2.7 0 0 0-.557-.404 3 3 0 0 0-.442-.22c-.291-.13-.617-.28-.95-.438-.244-.13-.496-.275-.74-.405-.136-.075-.272-.137-.4-.206-.041-.02-.089-.047-.13-.068-.04-.02-.074-.034-.108-.055-.088-.041-.17-.075-.245-.11-.034-.013-.068-.034-.102-.048-.264-.116-.44-.185-.44-.185s-.042-.075-.204-.335c-.069-.11-.177-.26-.3-.453l-.053-.075-.048-.069a3 3 0 0 1-.204-.322 7 7 0 0 1-.244-.487c-.041-.089-.075-.171-.116-.253a33 33 0 0 1-.407-.926c-.027-.068-.061-.137-.088-.205-.055-.124-.102-.247-.15-.35a3 3 0 0 0-.115-.247c-.136-.28-.244-.438-.258-.445a3 3 0 0 0-.312-.309 2 2 0 0 0-.19-.13c-.061-.04-.123-.089-.19-.13a13 13 0 0 0-.768-.35c-.074-.027-.142-.061-.217-.089-.346-.13-.7-.26-1.052-.377q-.265-.09-.53-.171-.264-.091-.53-.171a11 11 0 0 0-.678-.2c-.123-.034-.245-.075-.367-.109-.177-.048-.346-.075-.523-.116-.176-.042-.346-.083-.523-.117a18 18 0 0 0-1.038-.137c-.197-.02-.394-.02-.584-.027-.177-.007-.353-.028-.53-.028-.183 0-.366.014-.55.014-.176 0-.353 0-.523.014v-.055c0-.364-.067-.713-.197-1.028a2.68 2.68 0 0 0-1.357-1.42C64.14-.554 61.94.72 61.94 2.715c0 .343.06.7.203 1.076-.998.364-1.697.754-1.962 1.056a3.7 3.7 0 0 0-.76-.624c-.081-.048-.17-.096-.258-.144q-.01-.002-.02-.014c-.055-.027-.116-.048-.17-.068a1 1 0 0 1-.122-.055 3.02 3.02 0 0 0-1.874-.068c-.727.212-1.338.706-1.65 1.391a2 2 0 0 0-.116.308c-.264.857-.088 1.837.428 2.564.251.356.584.658.957.891-.047.034-.088.075-.128.103a9 9 0 0 0-1.983 2.097c-.115.165-.23.33-.333.508-.916 1.542-1.256 3.29-1.514 5.051-.027.2-.06.398-.088.597-.075.486-.15.98-.245 1.467q-.069.339-.149.678a10 10 0 0 1-.224.781 13 13 0 0 1-.753 1.824c-.754 1.48-1.725 2.83-2.608 4.236-.081.123-.163.253-.237.377-.109.178-.21.363-.312.541a26.2 26.2 0 0 0-2.954 7.828c-.319 1.584-.434 3.16-.502 4.75s-.055 3.188-.068 4.798c-.007 1.166 0 2.331.047 3.49.028 1.165.075 2.343.123 3.523.047 1.178.088 2.371.149 3.557.027.555.075 1.09.109 1.638.04.624.074 1.255.122 1.871.095 1.159.203 2.304.34 3.435.087.76.196 1.521.298 2.289.047.37.102.74.156 1.104.082.548.156 1.096.238 1.645-1.06.164-2.05.664-2.397 1.549-.285.726-.237 1.549-.061 2.282.061.274.115.549.217.809.53 1.33 2.057 1.522 3.069 1.48l.061.453.265 1.933q.307 2.18.604 4.36c.258 1.94.51 3.886.706 5.833q.46 4.494.625 9c0 .144.014.301.027.465h-.027q-5.651.556-11.23 1.46l-.4.062q-2.6.424-5.187.919c-.306.055-.605.116-.91.178-1.65.322-3.3.651-4.943 1.014-.054.014-.115.021-.17.035q-.864.193-1.717.418c-.632.178-1.25.37-1.82.576s-1.093.418-1.527.665a5 5 0 0 0-.537.356 2.7 2.7 0 0 0-.428.391 2 2 0 0 0-.183.253 1 1 0 0 0-.102.247.54.54 0 0 0-.006.233c0 .041.02.075.04.117.02.041.048.075.075.116a.7.7 0 0 0 .095.11c.034.034.075.075.122.11.048.034.095.068.15.102.054.035.115.062.176.096.197.096.407.158.618.206a6.4 6.4 0 0 0 1.181.144c.21.014.421.027.638.048.706.062 1.42.075 2.14.068.65-.02 1.303-.041 1.954-.054a131 131 0 0 1 6.776-.028c2.254.055 4.502.192 6.77.452a79.5 79.5 0 0 1 11.1 1.968 19 19 0 0 1 1.337.377c.435.151.85.322 1.209.534.733.446 1.168 1.118.815 1.748-.279.487-.903.85-1.677 1.138a14 14 0 0 1-1.236.384c-2.003.528-4.033.891-6.022 1.508-2.24.692-4.576 1.481-6.627 2.728-.332.206-.679.439-1.032.706-.21.165-.434.363-.638.596-.19.227-.366.487-.502.775-.435.939.054 1.672.835 2.063.448.219.937.309 1.419.391 3.619.637 7.305 1.124 10.829 2.296 2.444.816 4.888 1.803 7.095 3.27.577.377 1.134.877.896 1.364-.115.24-.414.431-.706.596-.849.48-1.718.85-2.607 1.152s-1.8.527-2.73.733c1.243-.123 2.486-.233 3.728-.35 3.727-.349 7.455-.726 11.128-1.384a40 40 0 0 0 2.376-.501 26 26 0 0 0 2.41-.719c.632-.22 1.351-.562 1.908-.987s.937-.919.923-1.467c-.013-.384-.25-.679-.543-.912-.794-.624-1.738-.836-2.655-1.097a51 51 0 0 1-2.484-.76c-.774-.268-1.69-.487-2.315-1.083-.87-1.042 1.303-1.899 1.853-2.105 3.748-1.419 7.645-2.234 11.542-2.892 1.344-.227 2.689-.466 4.04-.624 1.907-.267 3.822-.494 5.743-.672 1.854-.171 3.769-.144 5.602-.493.237-.048.461-.103.658-.172a1.8 1.8 0 0 0 .475-.274c.123-.109.225-.226.293-.349a.75.75 0 0 0-.02-.768 1.7 1.7 0 0 0-.293-.356 6 6 0 0 0-.373-.343c-.652-.549-1.446-1.015-2.288-1.453-1.019-.528-2.16-1.008-3.293-1.481a38 38 0 0 0-3.578-1.296 62 62 0 0 0-1.901-.541c-.265-.069-.53-.144-.794-.213-.374-.102-.747-.212-1.114-.315-.801-.219-1.67-.569-2.023-1.007.122-.796 4.046-1.104 4.488-1.138a70 70 0 0 1 9.83-.096c3.504.205 6.966.809 10.483.809.354-.014.747-.048 1.073-.185q.102-.044.184-.096a.95.95 0 0 0 .407-.466v-.035s0-.041.013-.061c0-.035.014-.062.014-.096v-.028a.6.6 0 0 0-.027-.185zM58.777 78.504a1.3 1.3 0 0 1-.801.288c-.333 0-.666-.137-.924-.405l-1.093-1.13-1.344.822a1.26 1.26 0 0 1-1.697-.315 1.3 1.3 0 0 1 .115-1.741l1.12-1.104-.814-1.357c-.353-.59-.224-1.296.312-1.714.536-.425 1.25-.37 1.724.117l1.1 1.13 1.345-.822a1.26 1.26 0 0 1 1.697.316c.42.541.366 1.26-.115 1.74l-1.12 1.11.814 1.358c.353.59.224 1.296-.312 1.714zm5.832 16.183h-.516c-1.582 0-3.17.014-4.746.055h-.02c.163-.63.312-1.275.502-1.899.197-.637.448-1.254.652-1.891.564-1.769 1.236-3.099 2.35-4.565.393-.521.841-1.022 1.404-1.337 1.84-1.035 2.947.733 3.585 2.234.3.706.598 1.55.768 2.51a19 19 0 0 1 .38 1.665c.108.596.203 1.24.319 1.96.04.446.095.898.156 1.357-1.61-.054-3.225-.082-4.834-.089"/><defs><linearGradient id="a" x1="30" x2="0" y1="0" y2="128" gradientUnits="userSpaceOnUse"><stop stop-color="#d28938"/><stop offset=".1" stop-color="#cf7d31"/><stop offset=".3" stop-color="#c25922"/><stop offset=".4" stop-color="#9d5633"/><stop offset=".5" stop-color="#705345"/><stop offset="1" stop-color="#6b5446"/></linearGradient></defs></svg>
