<svg xmlns="http://www.w3.org/2000/svg" fill="none" viewBox="0 0 128 128"><path fill="url(#_beraji-a)" d="M63.462 2.592a1.08 1.08 0 0 1 1.076 0l52.192 30.204a1.08 1.08 0 0 1 .536.93V94.14a1.09 1.09 0 0 1-.536.93l-52.19 30.204a1.08 1.08 0 0 1-1.076 0L11.27 95.07a1.08 1.08 0 0 1-.536-.93V33.726c0-.384.204-.738.536-.93z"/><path fill="url(#_beraji-b)" d="M10.734 94.176a1.08 1.08 0 0 0 .536.894l52.19 30.204a1.09 1.09 0 0 0 1.044.018l.032-.02 52.192-30.204a1.09 1.09 0 0 0 .536-.892v-60.45a1.09 1.09 0 0 0-.504-.91l-.032-.02L64.54 2.592a1.08 1.08 0 0 0-1.076 0L11.27 32.796a1.08 1.08 0 0 0-.536.93zm107.874-.036c0 .86-.46 1.66-1.206 2.09L65.21 126.436a2.42 2.42 0 0 1-2.42 0L10.6 96.23a2.42 2.42 0 0 1-1.206-2.09V33.726c0-.862.46-1.66 1.206-2.09L62.79 1.43l.07-.04a2.42 2.42 0 0 1 2.28 0l.07.04 52.19 30.206.07.04a2.42 2.42 0 0 1 1.136 2.05z"/><path fill="#EB56FF" d="m21.556 58.528 12.946-7.476L67.39 70.04l-12.946 7.476z"/><path fill="url(#_beraji-c)" d="M34.5 51.052 67.39 70.04l-12.946 7.476-32.888-18.99zm19.944 26.33 12.714-7.34-32.656-18.856-12.714 7.34z"/><path fill="url(#_beraji-d)" d="m46.156 53.322 44.68-25.794v50.604l-44.68 25.794z"/><path fill="url(#_beraji-e)" d="M90.834 27.528v50.604l-44.68 25.794V53.322zm-44.602 76.266 44.526-25.706V27.66L46.232 53.364z"/><path fill="#00FFFB" d="M64 63.068 19.724 88.632V59.554l14.76-8.52V65.34l14.756-8.52V20.46L64 11.942z"/><path fill="#EB56FF" d="M64 63.068V11.94l16.988 9.808v20.48l10.008-14.702 17.28 9.976-11.618 16.706 11.62 34.42-17.82-10.286-9.372-30.16V72.93z"/><path fill="url(#_beraji-f)" d="M80.988 21.75v20.48l10.008-14.702 17.28 9.976L96.658 54.21l11.62 34.42-17.82-10.286-9.372-30.16v24.748L64 63.068V11.94zM64.116 63l16.854 9.73V48.116l.222.074 9.342 30.064 17.558 10.136-11.54-34.18-.026-.08 11.55-16.606L91.064 27.7 80.872 42.672V21.816l-16.756-9.674z"/><path fill="url(#_beraji-g)" d="M19.724 88.624 64 63.06l17.084 9.864-44.278 25.564z"/><path fill="#E8A2FF" d="m64 63.06 17.084 9.864-44.278 25.564-17.082-9.864zM36.806 98.354l44.046-25.43L64 63.194 19.956 88.626z"/><path fill="url(#_beraji-h)" d="m46.156 103.92 44.288-25.57 17.828 10.292-44.292 25.57z"/><path fill="#E8A2FF" d="m90.444 78.35 17.828 10.292-44.292 25.57-17.826-10.292zm-26.46 35.728 44.056-25.436-17.596-10.158-44.056 25.436z"/><path fill="#FFEA01" d="m102.508 45.82-5.166-14.624L108.21 37.5z"/><path fill="url(#_beraji-i)" d="m108.21 37.5-5.702 8.32-5.166-14.624zm-5.626 7.732 5.24-7.644-9.986-5.796z"/><defs><linearGradient id="_beraji-a" x1="64" x2="64" y1="2.28" y2="125.584" gradientUnits="userSpaceOnUse"><stop stop-color="#0E0240"/><stop offset="1" stop-color="#531595"/></linearGradient><linearGradient id="_beraji-b" x1="114.716" x2="18.114" y1="29.584" y2="110.29" gradientUnits="userSpaceOnUse"><stop stop-color="#FFEA01"/><stop offset=".096" stop-color="#01FFA6"/><stop offset=".245" stop-color="#01EEFF"/><stop offset=".7" stop-color="#01EEFF"/><stop offset="1" stop-color="#FF3CFF"/></linearGradient><linearGradient id="_beraji-c" x1="28.028" x2="44.472" y1="54.79" y2="83.272" gradientUnits="userSpaceOnUse"><stop stop-color="#00F2FF"/><stop offset="1" stop-color="#FF66F2"/></linearGradient><linearGradient id="_beraji-d" x1="73.728" x2="74.026" y1="73.124" y2="98.042" gradientUnits="userSpaceOnUse"><stop offset=".022" stop-color="#4724AF"/><stop offset="1" stop-color="#7232C6"/></linearGradient><linearGradient id="_beraji-e" x1="68.494" x2="90.406" y1="40.424" y2="78.378" gradientUnits="userSpaceOnUse"><stop stop-color="#00F2FF"/><stop offset="1" stop-color="#FF66F2"/></linearGradient><linearGradient id="_beraji-f" x1="86.138" x2="64" y1="24.722" y2="63.068" gradientUnits="userSpaceOnUse"><stop stop-color="#FFE2F7"/><stop offset="1" stop-color="#FF66F2"/></linearGradient><linearGradient id="_beraji-g" x1="69.166" x2="18.082" y1="67.422" y2="92.806" gradientUnits="userSpaceOnUse"><stop stop-color="#9031EA"/><stop offset="1" stop-color="#3825A2"/></linearGradient><linearGradient id="_beraji-h" x1="95.262" x2="44.482" y1="84.26" y2="101.984" gradientUnits="userSpaceOnUse"><stop stop-color="#9031EA"/><stop offset="1" stop-color="#3825A2"/></linearGradient><linearGradient id="_beraji-i" x1="107.74" x2="101.166" y1="37.97" y2="38.91" gradientUnits="userSpaceOnUse"><stop stop-color="#fff"/><stop offset="1" stop-color="#fff" stop-opacity="0"/></linearGradient></defs></svg>
