<svg xmlns="http://www.w3.org/2000/svg" fill="none" viewBox="0 0 128 64"><path fill="#fff" d="M50.864 27.355a6 6 0 0 1-.197-.848q-.035-.198-.076-.398-.093-.427-.205-.852c1.245-1.894 7.19-11.785.423-18.132-7.51-7.046-16.284 2.188-16.284 2.188l.027.04c-3.944-1.206-8.22-1.349-12.379-.04C22.122 9.258 13.38.1 5.89 7.124s.597 18.393.64 18.452a6 6 0 0 0-.2.816C5.516 31.26 0 32.76 0 41.234s5.77 15.442 17.549 15.442h4.834c.02.032 2.011 2.87 6.099 2.87 3.794-.004 6.295-2.841 6.32-2.87h4.612c11.778 0 17.548-6.806 17.548-15.442 0-7.889-4.786-9.736-6.098-13.879m76.535-12.35s.996-9.285-6.576-11.28V0h-5.862v3.63c-7.988 1.779-6.956 11.375-6.956 11.375v1.592s-1.032 9.596 6.96 11.375v7.973c-8.419 1.544-7.356 11.454-7.356 11.454v1.592s-1.031 9.596 6.956 11.375v3.63h5.866V60.27c7.573-1.994 6.577-11.279 6.577-11.279a.6.6 0 0 0 .555-.373.6.6 0 0 0 .046-.232V48a.61.61 0 0 0-.371-.56.6.6 0 0 0-.23-.045s.988-9.206-6.478-11.256v-8.167h-.087c7.988-1.779 6.96-11.375 6.96-11.375a.6.6 0 0 0 .555-.373.6.6 0 0 0 .046-.232v-.386a.604.604 0 0 0-.605-.601m-4.778 32.39h-.538a.6.6 0 0 0-.555.373.6.6 0 0 0-.046.232v.386c0 .334.269.605.601.605h.538c0 5.76-1.902 6.73-2.538 6.894a.16.16 0 0 1-.189-.087.2.2 0 0 1-.016-.073v-1.834c0-1.015-.641-1.572-1.285-1.875a3.03 3.03 0 0 0-2.569 0c-.64.303-1.284.86-1.284 1.875v1.834q0 .039-.017.073a.16.16 0 0 1-.111.09.2.2 0 0 1-.074 0c-.636-.158-2.541-1.122-2.541-6.893v-1.592c0-5.759 1.901-6.73 2.537-6.893a.16.16 0 0 1 .142.028q.03.023.047.058a.2.2 0 0 1 .017.073v1.835c0 1.015.64 1.572 1.284 1.875a3.02 3.02 0 0 0 2.569 0c.64-.303 1.285-.86 1.285-1.875v-1.835c0-.108.099-.187.201-.163.636.158 2.542 1.121 2.542 6.889m-.138-30.798h.537c0 5.772-1.905 6.735-2.542 6.894-.102.028-.201-.055-.201-.163v-1.835c0-1.015-.64-1.572-1.285-1.875a3.02 3.02 0 0 0-2.569 0c-.64.303-1.284.86-1.284 1.875v1.835a.17.17 0 0 1-.064.13.16.16 0 0 1-.142.029c-.64-.163-2.537-1.134-2.537-6.893V15c0-5.77 1.905-6.734 2.541-6.893.103-.028.202.056.202.163v1.839c0 1.015.64 1.572 1.284 1.875a3.03 3.03 0 0 0 2.569 0c.641-.303 1.285-.86 1.285-1.875V8.275a.166.166 0 0 1 .131-.161.2.2 0 0 1 .074.002c.641.163 2.538 1.13 2.538 6.893h-.537a.6.6 0 0 0-.555.374.6.6 0 0 0-.046.232V16a.6.6 0 0 0 .601.598M98.428 31.404s1.035-9.651-7.028-11.387v-8.672C99.25 9.493 98.23 0 98.23 0h-4.383c0 5.771-1.905 6.735-2.541 6.894-.103.027-.202-.056-.202-.163V4.895c0-1.015-.64-1.572-1.285-1.875a3.02 3.02 0 0 0-2.569 0c-.64.303-1.284.86-1.284 1.875V6.73a.17.17 0 0 1-.064.13.16.16 0 0 1-.142.029c-.64-.163-2.537-1.13-2.537-6.893H78.84s-1.056 9.85 7.28 11.439v8.56c-8.126 1.712-7.087 11.407-7.087 11.407v1.593s-1.04 9.695 7.083 11.399v8.163c-8.336 1.588-7.28 11.438-7.28 11.438h4.383c0-5.77 1.905-6.734 2.541-6.893.103-.028.202.056.202.163V59.1c0 1.015.64 1.572 1.284 1.874a3.03 3.03 0 0 0 2.57 0c.64-.302 1.284-.859 1.284-1.874v-1.835a.165.165 0 0 1 .132-.161.2.2 0 0 1 .074.002c.64.163 2.537 1.13 2.537 6.893h4.383s1.02-9.492-6.83-11.343v-8.27c8.064-1.74 7.028-11.388 7.028-11.388.16 0 .312-.063.424-.177a.6.6 0 0 0 .176-.427v-.386a.6.6 0 0 0-.366-.56.6.6 0 0 0-.23-.045m-4.917 1.592h.537c0 5.77-1.904 6.734-2.54 6.893-.104.028-.202-.055-.202-.163V37.89c0-1.015-.64-1.572-1.285-1.875a3.03 3.03 0 0 0-2.57 0c-.64.303-1.284.86-1.284 1.875v1.835a.166.166 0 0 1-.131.161.2.2 0 0 1-.074-.002c-.64-.163-2.538-1.135-2.538-6.894v-1.592c0-5.77 1.905-6.734 2.542-6.893.103-.028.201.056.201.163v1.839c0 1.015.64 1.572 1.285 1.875a3.02 3.02 0 0 0 2.569 0c.64-.303 1.285-.86 1.285-1.875v-1.835a.166.166 0 0 1 .131-.161.2.2 0 0 1 .074.002c.64.163 2.537 1.134 2.537 6.893h-.537a.595.595 0 0 0-.555.374.6.6 0 0 0-.046.231v.386a.6.6 0 0 0 .6.598"/></svg>
