<svg xmlns="http://www.w3.org/2000/svg" viewBox="0 0 128 128"><path fill="url(#_beradrome-a)" d="M23.82 9.338q-.014.004-.024.003c-1.846.326-2.98.673-3.563 1.094-2.714 1.953-7.302 6.595-7.494 6.792l-.275.277 1.835 4.668 1.624-.314-1.323 3.62-5.866 5.408 3.184 4.773c.016.031.04.059.06.088l.832 1.25 14.737 2.645 7.697 9.735c-1.718.808-4.183 1.785-5.337 1.765a3 3 0 0 1-.185-.016.6.6 0 0 0-.39.08q-.035.021-.064.045l-8.653 5.854 4.79 6.692.261.031c.236.033 3.14.394 6.429.776l4.177 5.465-2.987 5.21a23.25 23.25 0 0 0-9.887-2.195 23.25 23.25 0 0 0-12.36 3.54q.001.001-.005.002l-.152.097C4.345 80.877 0 88.178 0 96.482c0 8.524 4.584 15.998 11.416 20.088l.18.109a23.23 23.23 0 0 0 11.802 3.201c12.902 0 23.397-10.492 23.401-23.394v-.004c0-7.028-3.116-13.345-8.042-17.632l2.006-2.682L56.602 92.54l-7.024 4.36 14.62 1.519-6.438 7.861 14.114-.406a7.1 7.1 0 0 0 2.247.365c.925 0 1.81-.177 2.622-.506h.007l5.34-.153a23.5 23.5 0 0 0 7.411 9.996c0 .004 0 .007.008.007.044.034.084.065.129.102q.005.007.012.007a23.27 23.27 0 0 0 14.27 4.866c12.903 0 23.397-10.495 23.397-23.398q0-.518-.024-1.029v-.013q0-.03-.003-.055c-.577-12.392-10.833-22.3-23.37-22.3-2.67 0-5.235.45-7.628 1.278h-.004l-.1.037a23.4 23.4 0 0 0-4.464 2.123l-4.8-14.504c1.161-3.916 2.055-8.053 1.938-11.279v-.003q-.006-.178-.017-.358c-.007-.149-.02-.302-.031-.45-.564-7.978-2.985-15.24-3.085-15.541-.005-.009-.008-.012-.008-.02a.63.63 0 0 0-.237-.298l-15.4-11.488-26.972-7.47 2.57-4.11.052-.1c.116-.31.683-1.894.16-2.847a1.32 1.32 0 0 0-.92-.668C44.754 8.023 44.084 8 43.1 8c-4.154 0-13.93.405-19.28 1.338m2.657.832c6.937-.849 17.46-1.074 18.259-.922.069.017.08.037.101.068.173.319-.008 1.216-.212 1.778l-2.711 4.335zm-12.605 7.628c1.045-1.046 4.81-4.758 7.068-6.386.23-.165.913-.494 2.924-.856l15.967 5.436-23.068 4.475a.4.4 0 0 0-.076.016l-1.633.314zM54.74 29.353l-.643-.112-17.499-3.045 5.846-9.34 27.1 7.508 13.225 9.863zM16.1 24.89l1.205-3.301 23.62-4.58-5.61 8.967-.08.132h-.004L19 29.912l-1.15-1.991 1.857-2.222c1.576.156 4.6-2.454 4.6-2.454l-5.102.314-1.874 3.463zM13 28.597l2.512-2.317 2.586 4.48v3.097L13 34.66zm24.136-1.078L53.08 30.29l-7.314 7.523zm-17.832 9.418v-5.855l15.03-3.522-6.751 10.864zm9.313 2.111 7.068-11.38.109.13-.201 20.075zm8.37-9.832 7.95 9.486-8.138 9.264zm23.962 15.2-5.666-13.743 29.413 5.114c.478 1.496 2.356 7.715 2.886 14.547zm-14.536-5.537 7.687-7.91 5.746 13.945v.005l-7.188 15.009zM13.526 35.9l-.06-.088 4.632-.732v1.64zm17.487 16.317c1.757-.366 4.013-1.395 4.994-1.874.218-.1.374-.18.446-.217l.101-.053.228-.26 8.683-9.88 6.324 21.314c-1.408.576-5.497 2.18-8.608 2.787zm22.19 9.36 7.644-15.947 25.847 5.742L57.828 69.8zm6.048 8.746L87.66 52.184c-.08 7.447-5.207 19.581-6.26 22.002zm-18.387-6.06c-3.224-.168-13.051-1.383-14.785-1.596l-3.76-5.255 7.255-4.91L41.672 64.25a8 8 0 0 1-.53.021q-.144 0-.278-.009m2.2 1.018c.016-.004.027-.008.044-.008 3.336-.595 7.7-2.316 9.163-2.92l3.321 5.92-15.085-.262 8.878 9.088v.003l6.002 12.453-14.74-15.243-2.818 3.767a23.4 23.4 0 0 0-3.463-2.26l3.354-5.846-3.964-5.18c2.777.311 5.565.6 7.044.677q.146.007.303.007c.579 0 1.248-.073 1.96-.196m41.443 13.928-2.08-4.35v-.004a113 113 0 0 0 3.881-10.182l4.37 13.21c-4.755 3.276-8.246 8.266-9.573 14.072l1.247-.015q-.15.596-.261 1.209l17.655-.253a6.44 6.44 0 0 0-2.433 5.042c0 2.34 1.25 4.392 3.115 5.522l-.296.023a1 1 0 0 0-.133.012l-6.875.567-10.202.294a22.2 22.2 0 0 1-1.193-7.194c0-1.371.124-2.71.362-4.013l-1.226.017c-.17.977-.279 1.97-.318 2.983a7.13 7.13 0 0 0-2.562-2.943l2.88-.04q.108-.611.24-1.21l-3.111.044zM43.42 69.265l12.855.225.564 1.005-6.9 5.445zm22.05 28.077-12.26-1.278 5.299-3.286-.45-.466-7.419-15.391 6.876-5.421L67.88 85.11l-.43 11.625q-.138.386-.228.788zm-6.44-25.834 21.258 3.71-11.681 8.855zm-46.916 5.875a22 22 0 0 1 11.283-3.093c3.312 0 6.462.732 9.287 2.04L23.98 91.51a6.3 6.3 0 0 0-2.851.39zm85.098-1.375a22 22 0 0 1 6.707-1.038c11.684 0 21.286 9.074 22.13 20.547h-16.303a6.46 6.46 0 0 0-6.993-3.952zm-28.126 9.218 12.448-9.436 1.629 3.402-6.534 12.826-2.51.036h-.008a7.08 7.08 0 0 0-5.375 2.486zm26.984-8.82 5.44 15.258-19.16.275c1.73-7.15 6.937-12.96 13.72-15.533M25.23 91.753l8.537-14.885a22 22 0 0 1 3.34 2.172l-10.13 13.546a6.4 6.4 0 0 0-1.746-.833M1.206 96.482c0-7.689 3.932-14.475 9.887-18.456l8.95 14.414a6.36 6.36 0 0 0-3.006 5.404c0 2.075 1 3.925 2.545 5.088l-7.95 12.356c-6.256-3.924-10.426-10.889-10.426-18.806m26.699-3.125 10.128-13.542c4.503 3.957 7.395 9.702 7.551 16.113L29.73 97.194a6.35 6.35 0 0 0-1.824-3.837m70.615 4.58a5.255 5.255 0 0 1 3.919-5.078h.01a5.2 5.2 0 0 1 1.318-.168 5.254 5.254 0 0 1 5.248 5.246 5.254 5.254 0 0 1-5.248 5.247 5.25 5.25 0 0 1-5.247-5.247m-77.789 4.319q-.002.001-.003-.004a5.16 5.16 0 0 1-2.485-4.407 5.162 5.162 0 0 1 5.987-5.086 5.164 5.164 0 0 1 4.326 5.046s-.004.003 0 .008v.08A5.164 5.164 0 0 1 23.398 103a5.16 5.16 0 0 1-2.667-.744m53.08-3.442a.605.605 0 0 0-.539-.66l-4.844-.506a5.9 5.9 0 0 1 5.693-4.388h.008a5.894 5.894 0 0 1 5.878 5.887 5.89 5.89 0 0 1-3.514 5.389h-.003a5.8 5.8 0 0 1-2.37.499 5.89 5.89 0 0 1-5.887-5.888q.003-.156.01-.304l4.905.51c.02 0 .04.004.064.004a.61.61 0 0 0 .6-.543m17.025 16.261 9.561-10.403h.005l3.413-.281h.032c.004 0 .004 0 .009-.005a6.454 6.454 0 0 0 6.365-6.449q0-.622-.118-1.214h16c.007.144.007.293.007.438 0 12.24-9.95 22.191-22.19 22.191a22.08 22.08 0 0 1-13.084-4.277M29.739 98.4l15.842-1.263c-.346 11.934-10.165 21.536-22.183 21.536a22.05 22.05 0 0 1-10.728-2.77l7.938-12.34a6.4 6.4 0 0 0 2.79.643 6.374 6.374 0 0 0 6.341-5.806m35.894.169 1.407.148a7.07 7.07 0 0 0 2.713 6.011l-9.383.27zm15.252 2.718q.29 1.593.78 3.104l-2.864.08a7.1 7.1 0 0 0 2.084-3.184m2.488 4.258 9.815-.282 5.44-.446-8.753 9.514a22.3 22.3 0 0 1-6.502-8.786"/><defs><linearGradient id="_beradrome-a" x1="0" x2="127.317" y1="64.279" y2="64.279" gradientUnits="userSpaceOnUse"><stop stop-color="#FEAFE7"/><stop offset="1" stop-color="#C100C0"/></linearGradient></defs></svg>
