<svg xmlns="http://www.w3.org/2000/svg" viewBox="0 0 258 128"><path fill="#fff" d="M102.523 54.71a12.4 12.4 0 0 1-.398-1.695c-.048-.263-.096-.533-.152-.796a41 41 0 0 0-.414-1.704c2.509-3.789 14.491-23.57.852-36.266-15.136-14.09-32.822 4.378-32.822 4.378l.055.08c-7.95-2.413-16.57-2.699-24.951-.08-.104-.112-17.726-18.428-32.823-4.378-15.096 14.05 1.203 36.784 1.29 36.903-.174.534-.31 1.083-.405 1.632C11.12 62.52 0 65.52 0 82.468c0 16.947 11.631 30.885 35.372 30.885h9.743c.04.064 4.055 5.74 12.293 5.74 7.648-.008 12.69-5.684 12.738-5.74h9.297c23.741 0 35.372-13.612 35.372-30.885 0-15.777-9.647-19.471-12.292-27.758m154.266-24.7s2.008-18.571-13.256-22.56V0h-11.815v7.26c-16.101 3.558-14.021 22.75-14.021 22.75v3.184s-2.08 19.192 14.029 22.75V71.89C214.757 74.977 216.9 94.798 216.9 94.798v3.184s-2.079 19.192 14.021 22.75v7.26h11.823v-7.451C258.008 116.553 256 97.982 256 97.982a1.21 1.21 0 0 0 1.211-1.21V96A1.21 1.21 0 0 0 256 94.79s1.992-18.412-13.057-22.511V55.944h-.175c16.1-3.558 14.029-22.75 14.029-22.75a1.21 1.21 0 0 0 1.211-1.21v-.772a1.22 1.22 0 0 0-1.219-1.202m-9.632 64.78h-1.083a1.21 1.21 0 0 0-1.211 1.21v.772c0 .669.542 1.21 1.211 1.21h1.083c0 11.519-3.832 13.461-5.114 13.787a.327.327 0 0 1-.414-.318v-3.67c0-2.03-1.291-3.144-2.59-3.749a6.14 6.14 0 0 0-5.178 0c-1.291.605-2.589 1.719-2.589 3.749v3.67a.333.333 0 0 1-.406.326c-1.283-.318-5.123-2.245-5.123-13.787v-3.184c0-11.518 3.832-13.46 5.115-13.787a.328.328 0 0 1 .414.318v3.67c0 2.03 1.29 3.144 2.589 3.75a6.13 6.13 0 0 0 5.178 0c1.291-.606 2.59-1.72 2.59-3.75v-3.67c0-.215.199-.374.406-.326 1.282.318 5.122 2.245 5.122 13.78m-.278-61.596h1.083c0 11.542-3.84 13.469-5.123 13.787-.207.056-.406-.111-.406-.326v-3.67c0-2.03-1.29-3.144-2.589-3.75a6.13 6.13 0 0 0-5.178 0c-1.291.606-2.589 1.72-2.589 3.75v3.67a.33.33 0 0 1-.415.318c-1.29-.326-5.114-2.268-5.114-13.787v-3.184c0-11.542 3.84-13.469 5.122-13.787.207-.056.407.111.407.326v3.678c0 2.03 1.29 3.144 2.589 3.75a6.14 6.14 0 0 0 5.178 0c1.291-.606 2.589-1.72 2.589-3.75v-3.67a.33.33 0 0 1 .414-.318c1.291.326 5.115 2.26 5.115 13.787h-1.083a1.21 1.21 0 0 0-1.211 1.21V32c0 .653.541 1.194 1.211 1.194m-48.485 29.612s2.087-19.303-14.165-22.774V22.687C200.051 18.985 197.995 0 197.995 0h-8.835c0 11.542-3.84 13.469-5.122 13.787-.208.056-.407-.111-.407-.326V9.79c0-2.03-1.29-3.144-2.589-3.75a6.13 6.13 0 0 0-5.178 0c-1.291.606-2.589 1.72-2.589 3.75v3.67a.33.33 0 0 1-.415.318c-1.29-.326-5.114-2.26-5.114-13.787h-8.835s-2.127 19.702 14.674 22.878v17.122c-16.379 3.423-14.284 22.814-14.284 22.814v3.184s-2.095 19.391 14.276 22.798v16.326c-16.801 3.177-14.674 22.878-14.674 22.878h8.835c0-11.542 3.84-13.469 5.122-13.787.208-.056.407.111.407.326v3.67c0 2.03 1.29 3.144 2.589 3.749a6.14 6.14 0 0 0 5.178 0c1.291-.605 2.589-1.719 2.589-3.749v-3.67a.33.33 0 0 1 .415-.318c1.29.326 5.114 2.261 5.114 13.787h8.835s2.056-18.985-13.766-22.687v-16.54c16.252-3.48 14.165-22.775 14.165-22.775a1.21 1.21 0 0 0 1.21-1.21v-.772a1.197 1.197 0 0 0-1.202-1.21m-9.911 3.184h1.083c0 11.542-3.839 13.469-5.122 13.787-.207.056-.406-.111-.406-.326v-3.67c0-2.03-1.291-3.144-2.59-3.75a6.14 6.14 0 0 0-5.178 0c-1.29.606-2.589 1.72-2.589 3.75v3.67a.33.33 0 0 1-.414.318c-1.291-.326-5.115-2.269-5.115-13.787v-3.184c0-11.542 3.84-13.469 5.123-13.787.207-.056.406.111.406.326v3.678c0 2.03 1.291 3.144 2.589 3.75a6.13 6.13 0 0 0 5.178 0c1.291-.606 2.59-1.72 2.59-3.75v-3.67a.33.33 0 0 1 .414-.318c1.29.326 5.114 2.268 5.114 13.787h-1.083a1.21 1.21 0 0 0-1.211 1.21v.772c0 .653.542 1.194 1.211 1.194"/></svg>
