<svg xmlns="http://www.w3.org/2000/svg" viewBox="0 0 128 128"><path fill="#3f8a68" d="M125.406 21.554c-1.247 5.901-1.834 7.755-3.563 11.26-3.406 6.904-11.928 14.908-20.241 19.013-8.666 4.277-17.981 6.071-33.852 6.518-19.836.56-30.318-1.127-41.375-6.66C14.31 45.648 7.19 38.017 3.795 27.484c-.964-2.99-1.915-5.858-2.115-6.372s-.452.86-.56 3.057c-.224 4.513 1.36 10.578 4.246 16.257 5.279 10.386 16.145 19.886 30.467 26.636 3.246 1.53 5.901 2.87 5.901 2.978s-.695 1.707-1.544 3.553c-4.138 8.993-2.072 19.425 5.311 26.819 8.032 8.042 18.306 9.95 28.523 5.296 3.758-1.711 8.564-5.834 10.637-9.122 3.796-6.02 4.54-14.54 1.935-22.144-.823-2.4-1.45-4.385-1.395-4.408 19.954-8.341 31.972-18.378 38.096-31.818 2.9-6.361 4.723-17.021 3.085-18.029-.334-.206-.774.41-.976 1.367M67.81 70.059c7.216 2.132 11.601 11.333 8.697 18.248-2.448 5.83-6.99 8.902-13.158 8.902-8.307 0-14.065-5.617-14.065-13.722 0-6.143 3.909-11.691 9.448-13.41 3.614-1.121 5.333-1.125 9.078-.018"/></svg>
