<svg xmlns="http://www.w3.org/2000/svg" fill="none" viewBox="0 0 128 25"><path fill="#fff" d="M109.99 7.769c1.673-.1 3.38-.068 5.054-.015.04 1.949-.015 3.898.021 5.846 2.561.004 5.137.008 7.698-.007q.213-.18.187-.405c.013-1.819-.015-3.637.026-5.455 1.65-.036 3.312-.04 4.962.004.047 1.869-.029 3.744-.027 5.615-.036 3.317.044 6.635.04 9.95q-.352.058-.701.124c-1.439.085-2.852-.085-4.287-.095-.026-1.818.011-3.638-.011-5.454.011-.375-.31-.424-.614-.405-2.081.005-4.162.02-6.245.003a8 8 0 0 0-1.062.085c.055 1.915.041 3.834.021 5.749-.987.218-1.926.108-2.928.13-.724.023-1.434-.068-2.151-.14-.017-.793.038-1.577.106-2.367.072-3.349.053-6.693.021-10.042.021-1.06-.21-2.057-.11-3.121m-9.157-.394c2.128.18 4.239.7 6.195 1.564q.46.212.917.42c-.423 1.399-.99 2.762-1.455 4.149a44 44 0 0 0-1.189-.688c-.779-.35-1.586-.606-2.406-.837a30 30 0 0 1-1.725-.373 23 23 0 0 0-4.094-.017c-.577.074-.905.278-1.29.703q.01.23.016.46c.756.772 1.886.856 2.903.879 2.298.009 4.863.083 7.044.873 1.193.45 2.212 1.325 2.474 2.623.176 1.534-.028 3.25-1.177 4.384-1.191 1.267-3.091 1.703-4.746 1.941-1.348.074-2.593.279-3.935.112A21.6 21.6 0 0 1 90.3 21.66c-.147-.403.18-.68.36-1.019.7-1.013 1.1-2.134 1.598-3.252.509.157.983.387 1.47.597 2.422.956 5.032 1.373 7.623 1.066.612-.095.985-.25 1.455-.659l-.032-.598c-.346-.34-.671-.605-1.162-.696-1.561-.354-3.238-.177-4.838-.284l-.133-.096c-1.336.03-2.648-.216-3.9-.67-.781-.323-1.592-.866-1.942-1.666-.525-1.11-.314-2.517.127-3.62.642-1.395 1.876-2.164 3.268-2.675q.355-.134.71-.273c1.956-.547 3.92-.503 5.929-.439m-24.865.386c.83-.087 1.679-.036 2.514-.049 3.313.013 6.63-.036 9.942.03.028 1.402.047 2.807.001 4.209-1.255.036-2.506-.057-3.763-.036-.028 2.413.038 4.83-.02 7.242.355.086.674.116 1.043.065.909-.103 1.818-.114 2.731-.1.06 1.4.047 2.808.019 4.211-4.16.015-8.324.034-12.485-.007q-.047-2.1.003-4.199c1.265-.125 2.525.278 3.765.045-.064-2.415-.004-4.835-.026-7.253-1.255-.017-2.506.064-3.761.037.011-1.396-.046-2.803.037-4.195m-34.218.004c1.737-.094 3.512-.072 5.25-.008.036 3.728.012 7.457.012 11.186l.476.102c2.709-.123 5.432-.075 8.144-.174.54-.077 1.081-.075 1.625-.072-.22 1.506-.3 3.014-.393 4.53-1.115-.032-2.215.139-3.33.103-2.835.002-5.67-.004-8.505 0-1.045.023-2.08-.13-3.128-.108l-.111.29c-.167-1.627.098-3.326.081-4.959a309 309 0 0 0-.01-7.12 42 42 0 0 1-.111-3.77m16.836.008c1.73-.118 3.497-.072 5.23-.021.035 3.742.011 7.487.013 11.23 2.362.048 4.73-.06 7.095-.065 1.055-.025 2.092.028 3.141-.133-.019.72-.185 1.417-.213 2.133-.04.806-.051 1.61-.165 2.409-.743.015-1.46-.008-2.2.077-1.013.12-2.003-.14-3.024-.053-1.44.14-2.9.078-4.347.078-1.844-.167-3.704-.038-5.556-.104-.032-.915.034-1.813.117-2.724.05-3.431.05-6.858-.006-10.29-.06-.854-.153-1.67-.085-2.537m-33.243-.095c.614.04 1.228.036 1.845.066.06 2.88.005 5.764.026 8.642.023.487.081.996.238 1.459.46.867 1.344 1.27 2.281 1.382 1.09.114 2.297.095 3.33-.3.55-.236 1.206-.666 1.392-1.268.334-1.136.219-2.191.234-3.36.01-2.19-.034-4.382.019-6.572.8-.026 1.586.006 2.381-.066.987-.087 1.919.055 2.924.093.021 2.56.008 5.123.008 7.685.015 1.35-.116 2.733-.69 3.97-.694 1.476-1.843 2.712-3.374 3.32-1.724.77-3.443.8-5.292.902-1.816-.108-3.49-.103-5.195-.837-1.185-.468-2.113-1.366-2.701-2.491-.707-1.218-.834-2.54-.88-3.92.007-2.873-.027-5.748.02-8.621 1.14-.039 2.296-.186 3.434-.084M12.871.79c1.618-.676 3.451-1.038 5.122-.324.814.347 1.272.988 1.761 1.691q.267.684.516 1.373c.172.985.182 2.02.085 3.012-.204 1.123-.826 2.189-1.616 3.004-.867.85-1.928 1.416-3.043 1.87-.928.427-1.914.482-2.876.82 1.223-.128 2.438-.056 3.655.09 1.284.223 2.464.68 3.266 1.757.898 1.17 1.115 2.563 1.058 4.004.03 2.008-.833 4.055-2.487 5.239-1.425 1.06-3.266 1.589-5.035 1.538-.878.019-1.742-.048-2.583-.315-1.257-.344-2.646-1.024-3.355-2.168-.584-.87-.658-1.981-.374-2.972.497-1.73 1.674-2.909 3.014-4.023 1.14-.835 2.42-1.57 3.854-1.691.712-.036 1.652.271 1.958.976.15.61.053 1.299-.168 1.882-.5 1.345-1.314 2.485-2.187 3.606-.138.197-.323.277-.535.373.204-.36.488-.7.633-1.089.104-.492-.181-.883-.63-1.051-.768-.288-1.696-.013-2.473.17-1.316.419-2.706 1.006-3.292 2.362.164.485.298.913.752 1.201 1.049.651 2.432.37 3.527-.008 1.848-.693 3.68-2.007 4.541-3.835.635-1.227.86-2.633.56-3.988-.161-.618-.586-.98-1.046-1.381a16 16 0 0 1-.669-.176c-1.258-.169-2.434.284-3.689.144q-.034-.556-.01-1.112c1.133-.186 2.025.153 3.03-.464 1.007-.726 1.357-1.903 1.633-3.053.053-.576.18-1.142.214-1.718-.051-1.494-.344-2.99-1.627-3.92-.847-.67-1.89-.67-2.903-.48-1.42.442-2.522 1.633-3.414 2.773C7.104 6.1 6.335 7.7 5.124 8.587c-.395.324-.817.288-1.3.318-.81-.505-1.144-1.242-1.237-2.172a19 19 0 0 1 .065-3.432c.147-.623.274-1.252.427-1.873A8 8 0 0 1 3.695.33c.036.618.04 1.235.074 1.853.242.598.47 1.252.998 1.66.345.27.725.344 1.133.46.466-.096.93-.156 1.382-.313 1.153-.398 2.036-1.121 3.049-1.77.814-.535 1.67-.992 2.54-1.43"/><path fill="#fff" d="M13.08 5.27c-.198.505-.45.982-.702 1.46-1.106 2.28-2.089 4.607-3.16 6.9-1.276 2.934-2.63 6.26-4.726 8.705-1.149 1.335-2.576 2.32-4.398 2.34-.03-1.497.356-2.857.479-4.346l.088-.132c.095-1.174.275-2.35.458-3.513 1.57 0 2.778-.487 3.926-1.546 1.544-1.634 2.332-3.566 3.279-5.581.585-1.345 1.152-2.695 1.746-4.036.996-.252 1.992-.248 3.01-.25"/></svg>
