<svg xmlns="http://www.w3.org/2000/svg" viewBox="0 0 128 128"><path fill="#FD7805" d="M69.127 15v4.316l2.632-.269c4.515-.384 9.03-.315 13.557-.269l-.505 1.249q-.6 1.517-1.113 3.067l2.327.642c2.687.798 5.162 1.875 7.685 3.09 1.425.678 1.425.678 3.477 1.125l1.079-2.158c4.053-3.377 7.001-4.744 12.413-4.316 5.514 1.309 9.686 5.03 12.68 9.745 2.667 4.932 2.942 10.087 2.428 15.616-1.532 4.25-3.689 7.097-7.758 9.14q-1.238.57-2.495 1.113c.351 3.306 1.264 6.308 2.261 9.476a681 681 0 0 1 3.911 13.05l.809 2.792c.808 3.857 1.394 7.945-.54 11.543l-.625 1.242c-5.206 6.991-15.6 10.041-23.622 12.62l-1.564.562c-23.972 8.21-53.088 5.57-75.887-4.925-6.566-3.224-12.308-6.198-14.822-13.445-1.182-5.905 1.46-11.731 3.236-17.268q.909-3.03 1.788-6.07l.804-2.74a44.6 44.6 0 0 0 1.187-6.838l-1.068-.458c-4.048-1.856-6.436-3.904-8.58-7.905-1.61-6.452-.89-12.317 2.466-18.01 2.802-4.174 6.063-7.077 10.756-8.937 4.319-.72 7.724-.311 11.534 1.853 1.088 1.006 1.088 1.006 2.057 2.059l1.72 1.72c3.284-.656 5.954-1.953 9.005-3.34 5.56-2.471 11.075-4.614 16.897-6.373l2.54-.793C66.036 15 66.035 15 69.126 15"/><path fill="#76E7EF" d="m63.835 56.382 3.865.006c5.832.265 11.422.983 15.695 5.256 3.603 5.009 3.062 11.317 2.192 17.25a31 31 0 0 1-1.35 4.097l-.556 1.403c-1.978 4.43-4.744 7.758-9.291 9.625-6.308 2.24-15.068 2.84-21.275.012-4.084-2.56-6.997-5.434-8.81-9.96l-.64-1.417c-1.25-3.653-1.105-7.453-1.147-11.264l-.06-3.591c.3-4.116 1.313-5.395 4.242-8.111 5.264-3.246 11.094-3.349 17.135-3.306"/><path fill="#75E8F0" d="m49.397 35.74 14.571.002 14.568-.035c11.637.338 11.637.338 14.335 3.037.36 2.509.36 2.509.337 5.362l.022 2.848c-.394 2.843-.996 3.88-3.057 5.82-2.356 1.178-5.677.681-8.229.707l-3.956.062c-3.956-.262-5.33-.903-7.916-3.703-2.058-3.014-2.132-5.28-2.023-8.938h-8.095l.137 2.428c-.014 2.92-.661 4.813-2.295 7.284-3.442 3.352-6.76 3.044-11.4 3.002l-4.05.002c-3.435-.305-3.435-.305-6.134-2.463-.804-2.41-.675-4.72-.708-7.25l-.061-3.068c.663-7.608 6.742-4.907 13.954-5.097"/><path fill="#F97B0C" d="m63.664 63.397 3.134-.027c2.671.181 4.336.507 6.646 1.815.642 1.281.643 1.281.541 2.698-1.57 2.928-4.076 3.665-7.014 4.857-.706.592-.706.592-.71 2.057.031 1.702.031 1.702.912 2.832 2.113 1.559 4.435 2.638 6.813 3.744l-.542 2.158c-3.207-.223-4.956-.85-7.552-2.697-1.288-.672-1.288-.672-2.7-.54l-1.788 1.281c-2.216 1.58-3.627 1.816-6.305 1.956l-.54-2.158 1.08-.64 1.617-.98 2.295-1.382c2.011-1.065 2.011-1.065 2.563-2.394a81 81 0 0 0 0-3.237l-1.223-.36c-2.57-.827-4.337-1.406-6.23-3.386-.641-1.65-.641-1.65-.405-3.134 2.136-3.078 6.076-2.456 9.407-2.463"/><path fill="#78E6EB" d="M110.139 30.65c3.067 1.562 4.722 3.646 6.375 6.61.81 2.561.654 4.26.099 6.88-1.105 2.028-1.855 3.035-3.776 4.316h-1.619l-.793-1.678c-2.245-4.645-4.624-8.854-7.84-12.891 1.832-3.665 3.673-3.549 7.554-3.237"/><path fill="#78E6EC" d="M22.184 30.65c1.616.54 1.616.54 2.697 1.079-.074 3.333-1.334 5.042-3.245 7.604-1.953 2.855-3.371 6.003-4.85 9.123-2.94-.734-3.726-1.81-5.396-4.316-.596-2.993-.186-5.401.809-8.263 2.555-3.768 5.21-5.854 9.984-5.227"/></svg>
