<svg xmlns="http://www.w3.org/2000/svg" viewBox="0 0 128 128"><path fill="#f97b0c" d="M54.256 65.86c2.136-3.078 6.076-2.456 9.407-2.463l3.135-.027c2.67.181 4.335.507 6.645 1.815.642 1.28.643 1.28.541 2.698-1.57 2.928-4.075 3.665-7.013 4.857-.706.592-.706.592-.71 2.057.03 1.702.03 1.702.912 2.832 2.113 1.559 4.434 2.638 6.812 3.744l-.542 2.158c-3.206-.223-4.956-.85-7.552-2.697-1.287-.672-1.288-.672-2.7-.54l-1.788 1.281c-2.216 1.58-3.627 1.816-6.304 1.956l-.54-2.158 1.08-.64 1.617-.98 2.295-1.382c2.01-1.065 2.011-1.065 2.563-2.394a81 81 0 0 0 0-3.237l-1.223-.36c-2.57-.827-4.337-1.406-6.23-3.386-.64-1.65-.641-1.65-.405-3.134"/><path fill="#f97b0c" fill-rule="evenodd" d="m69.127 19.316 2.632-.27c4.515-.383 9.03-.314 13.557-.268l-.506 1.25q-.6 1.516-1.112 3.066l2.327.642c2.687.798 5.162 1.875 7.685 3.09 1.425.678 1.425.678 3.477 1.125l1.079-2.158c4.052-3.377 7.001-4.744 12.413-4.316 5.513 1.309 9.686 5.03 12.68 9.745 2.667 4.932 2.942 10.087 2.428 15.616-1.532 4.25-3.689 7.097-7.758 9.14q-1.238.57-2.495 1.113c.351 3.306 1.264 6.308 2.261 9.476a681 681 0 0 1 3.911 13.05l.809 2.792c.808 3.857 1.393 7.945-.541 11.543l-.625 1.242c-5.206 6.991-15.6 10.042-23.622 12.62l-1.563.562c-23.972 8.21-53.088 5.57-75.887-4.925-6.566-3.224-12.308-6.198-14.822-13.445-1.182-5.905 1.46-11.73 3.236-17.268q.909-3.03 1.788-6.07l.804-2.74a44.6 44.6 0 0 0 1.187-6.838l-1.068-.458c-4.048-1.856-6.436-3.904-8.58-7.905-1.61-6.452-.89-12.317 2.466-18.01 2.802-4.174 6.063-7.077 10.756-8.937 4.319-.72 7.724-.311 11.534 1.853 1.088 1.006 1.088 1.006 2.057 2.06l1.72 1.72c3.284-.657 5.954-1.954 9.005-3.34 5.56-2.472 11.075-4.615 16.897-6.374l2.54-.793C66.036 15 66.036 15 69.127 15zm-5.292 37.066c-6.041-.043-11.872.06-17.136 3.306-2.929 2.715-3.941 3.995-4.241 8.11l.06 3.592c.041 3.81-.103 7.61 1.147 11.263l.64 1.417c1.813 4.526 4.725 7.4 8.81 9.96 6.206 2.828 14.967 2.228 21.274-.011 4.547-1.868 7.314-5.196 9.292-9.625l.555-1.404a31 31 0 0 0 1.35-4.096c.87-5.933 1.411-12.242-2.192-17.25-4.273-4.273-9.863-4.991-15.695-5.256zM49.397 35.739c-7.212.19-13.29-2.51-13.954 5.098l.06 3.067c.034 2.53-.095 4.84.709 7.25 2.699 2.158 2.699 2.16 6.134 2.464l4.05-.003c4.64.042 7.958.35 11.4-3.002 1.633-2.47 2.28-4.363 2.295-7.283l-.137-2.429h8.095c-.11 3.658-.035 5.925 2.023 8.939 2.586 2.8 3.96 3.441 7.916 3.703l3.956-.062c2.552-.026 5.873.47 8.229-.708 2.06-1.94 2.663-2.976 3.057-5.819l-.022-2.849c.023-2.852.023-2.852-.337-5.36-2.698-2.7-2.699-2.7-14.335-3.038l-14.568.035zm-27.213-5.09c-4.774-.626-7.43 1.46-9.985 5.228-.995 2.862-1.405 5.27-.81 8.263 1.67 2.506 2.457 3.582 5.397 4.316 1.479-3.12 2.897-6.268 4.85-9.123 1.91-2.562 3.17-4.272 3.245-7.604-1.081-.54-1.082-.54-2.698-1.08m87.955 0c-3.881-.312-5.722-.427-7.554 3.238 3.216 4.037 5.595 8.246 7.84 12.891l.793 1.678h1.619c1.92-1.28 2.67-2.289 3.775-4.316.555-2.62.711-4.32-.098-6.88-1.653-2.964-3.309-5.049-6.375-6.61" clip-rule="evenodd"/></svg>
