<svg xmlns="http://www.w3.org/2000/svg" viewBox="0 0 128 128"><path fill="#F6E189" d="M0 0h128v128H0z"/><path d="M34.065 20.486c19.98-.012 39.965-.006 59.944-.006-.011 1.803-.006 3.601.04 5.399-19.991.062-39.993-.012-59.984.04a863 863 0 0 1 0-5.433m30.219 14.506c3.619-.148 7.441.461 10.69 2.105 4.363 2.321 7.85 6.554 9.09 11.35-2.007.728-4.033 1.393-6.052 2.087-.751-1.99-1.576-3.857-3.163-5.341-2.76-2.919-6.668-3.914-10.565-4.011-3.652.165-7.185.865-9.739 3.686-3.004 2.97-3.857 6.81-4.119 10.883 0 5.501.012 10.997 0 16.498.177 2.89.5 5.922 2.008 8.454 1.36 2.287 3.135 4.22 5.684 5.165 4.687 1.712 9.99 1.667 14.478-.609 2.662-1.638 4.722-4.107 5.342-7.23 2.06.66 4.084 1.428 6.132 2.127-.506 2.714-1.934 4.995-3.658 7.094-3.316 3.613-7.89 5.433-12.72 5.843-3.595.631-7.39.13-10.877-.853-6.11-1.86-10.707-7.117-12.169-13.278-.722-2.611-.625-5.171-.642-7.85.022-5.69-.035-11.379.028-17.062.057-4.778 1.985-9.29 5.12-12.851 3.931-4.147 9.466-6.207 15.132-6.207m-30.219 67.271c19.98 0 39.959.006 59.933-.005.01 1.837.017 3.669.01 5.507-19.978-.017-39.964-.012-59.943 0q-.009-2.755 0-5.502"/></svg>
