<svg xmlns="http://www.w3.org/2000/svg" viewBox="0 0 128 128"><path fill="url(#_concrete)" d="M64 128c35.346 0 64-28.654 64-64S99.346 0 64 0 0 28.654 0 64s28.654 64 64 64"/><path d="M64.317 92.31c9.158 0 16.721-3.975 19.008-12.703l-5.957-2.024c-1.607 6.154-6.872 8.656-12.524 8.656-9.545 0-13.825-5.77-13.825-14.893V57.158c0-8.417 4.046-14.894 13.286-14.894 5.113 0 10.917 2.179 13.051 8.967l5.957-2.023c-2.591-8.261-9.158-13.014-18.328-13.014-12.676 0-20.31 8.572-20.31 19.958v16.295c0 11.386 6.954 19.875 19.618 19.875z"/><path fill-rule="evenodd" d="M35.2 22.4h57.601v5.236H35.2zm0 78.475h57.601v5.236H35.2z" clip-rule="evenodd"/><defs><linearGradient id="_concrete" x1="64" x2="64" y1="0" y2="128" gradientUnits="userSpaceOnUse"><stop stop-color="#f6e189"/><stop offset="1" stop-color="#f4d037"/></linearGradient></defs></svg>
