<svg xmlns="http://www.w3.org/2000/svg" viewBox="0 0 128 80"><path fill="#fff" d="M68.752 47.59a18.27 18.27 0 0 0-15.202-8.14H19.728V19.723h30.448L42.496 8.2A18.43 18.43 0 0 0 27.16 0h-7.43A19.733 19.733 0 0 0 0 19.728v19.728a19.74 19.74 0 0 0 5.779 13.95 19.73 19.73 0 0 0 13.949 5.78h56.755l-7.726-11.591z"/><path fill="#6649DF" d="M106.901 19.728H50.147l7.722 11.592a18.27 18.27 0 0 0 15.203 8.139h33.821v19.728H76.445l7.683 11.522a18.42 18.42 0 0 0 15.334 8.205h7.439a19.73 19.73 0 0 0 19.728-19.727V39.459a19.74 19.74 0 0 0-5.778-13.95 19.73 19.73 0 0 0-13.95-5.782"/></svg>
