<svg xmlns="http://www.w3.org/2000/svg" viewBox="0 0 128 128"><path fill="#fff" d="M68.752 71.59a18.27 18.27 0 0 0-15.202-8.14H19.728V43.723h30.448L42.496 32.2A18.43 18.43 0 0 0 27.16 24h-7.43A19.733 19.733 0 0 0 0 43.728v19.728a19.73 19.73 0 0 0 19.728 19.73h56.755l-7.726-11.591z"/><path fill="#6649DF" d="M106.901 43.728H50.147l7.722 11.592a18.27 18.27 0 0 0 15.203 8.139h33.821v19.728H76.445l7.683 11.522a18.42 18.42 0 0 0 15.334 8.205h7.439a19.733 19.733 0 0 0 19.728-19.727V63.459a19.737 19.737 0 0 0-19.728-19.732"/></svg>
