<svg xmlns="http://www.w3.org/2000/svg" viewBox="0 0 205 128"><path fill="#000" d="M110.111 76.143a29.25 29.25 0 0 0-10.54-9.562 29.3 29.3 0 0 0-13.808-3.46H31.596V31.556H80.36L68.06 13.12a29.5 29.5 0 0 0-10.634-9.637A29.5 29.5 0 0 0 43.498 0H31.6A31.62 31.62 0 0 0 9.258 9.246 31.56 31.56 0 0 0 0 31.565V63.13a31.56 31.56 0 0 0 9.255 22.32 31.62 31.62 0 0 0 22.34 9.249h90.897l-12.373-18.547z"/><path fill="#6649DF" d="M171.209 31.565H80.313l12.368 18.547a29.25 29.25 0 0 0 10.539 9.562 29.3 29.3 0 0 0 13.809 3.46h54.167v31.565h-48.764l12.304 18.436a29.52 29.52 0 0 0 24.558 13.128h11.915a31.62 31.62 0 0 0 22.339-9.247 31.56 31.56 0 0 0 9.257-22.317V63.134a31.56 31.56 0 0 0-9.255-22.32 31.62 31.62 0 0 0-22.341-9.25"/></svg>
