<svg xmlns="http://www.w3.org/2000/svg" viewBox="0 0 128 128"><path fill="#181A27" d="M80.882 1.621c10.277-2.586 21.16 3.112 24.431 13.255 4.18 13.7 7.35 27.702 11.307 41.462 2.039 8.021 4.906 14.85 2.867 23.276-1.878 8.143-3.574 17.72-8.561 24.59-3.109 4.324-8.198 5.537-13.023 7.032-17.143 4.91-34.285 9.961-51.447 14.79-7.491 2.263-15.144.566-20.696-4.93-4.442-4.102-5.714-11.072-7.35-16.669-3.331-13.255-7.127-26.409-10.54-39.644-2.584-9.072 1.151-18.79 3.857-27.479 2.383-6.446 3.533-12.871 9.046-17.498 5.734-4.91 15.082-6.001 22.19-8.123C55.623 8.41 68.18 4.693 80.882 1.621"/><path fill="#EBF479" d="M93.844 8.552c6.401 3.798 7.249 10.345 9.147 16.912 3.533 14.588 7.996 28.954 11.469 43.542 1.918 6.749-.869 14.245-7.067 17.64-5.21 2.546-11.227 3.677-16.8 5.233C77.349 95.132 64.306 99.375 51 102.244c-7.29 1.536-14.578-2.444-17.163-9.415-4.038-11.376-6.36-23.398-9.732-34.996-1.817-6.991-4.3-14.043-5.21-21.196-.807-6.81 3.898-14.063 10.621-15.82 14.7-4.405 29.681-7.86 44.42-12.124 6.866-1.657 13.347-4.465 19.91-.141"/><path fill="#181A27" d="M77.651 30.838c12.337 5.456 17.304 20.63 10.661 32.41-5.633 11.355-20.857 12.184-31.64 15.437a368 368 0 0 1-3.775-13.82c6.32-1.84 13.205-2.991 19.161-5.84 5.936-4.264 4.018-13.78-3.25-15.276-6.745-.161-13.791 2.99-20.353 4.426a447 447 0 0 1-3.715-13.538c10.196-2.627 22.674-8.527 32.911-3.799"/></svg>
