<svg xmlns="http://www.w3.org/2000/svg" viewBox="0 0 128 128"><path fill="url(#_etherfi)" d="m126.286 70.977-4.778-18.61a1.55 1.55 0 0 0-1.126-1.11l-18.46-4.545a2 2 0 0 0-.427-.046 1.51 1.51 0 0 0-1.232.426L69.111 78.214 64.987 62.13a1.54 1.54 0 0 0-1.127-1.11l-15.857-3.91L79.14 26.004a1.6 1.6 0 0 0 .365-.638 1.47 1.47 0 0 0 .091-.988l-4.778-18.61a1.54 1.54 0 0 0-1.126-1.11L55.232.112a1.56 1.56 0 0 0-1.05.122h-.016c-.091.046-.167.107-.258.167-.077.061-.183.091-.244.168L.52 53.629s-.09.153-.152.229a1.5 1.5 0 0 0-.304 1.414l5.159 17.986a1.52 1.52 0 0 0 1.05 1.049l17.288 4.956 4.961 17.257a1.52 1.52 0 0 0 1.05 1.049l17.35 4.971 4.976 17.333a1.52 1.52 0 0 0 1.05 1.049l18.08 5.184c.136.046.288.061.425.061.03 0 .061-.015.107-.015h.03a1.55 1.55 0 0 0 1.096-.456l53.157-53.107c.183-.183.29-.41.367-.639.137-.304.182-.654.091-.988zM102.454 91.61l-3.88-15.128 8.598-8.575 14.777 4.242-19.48 19.476zm-30.147 30.118L68.426 106.6l15.553-15.538 14.777 4.241zm11.992-35.333L80.585 73.47l13.347 3.284-9.633 9.625zm11.748-7.39 3.41 13.274-12.982-3.725 9.572-9.563zm.442-4.788L81.362 70.49l19.434-19.416 4.2 14.642zm-18.886.015 4.2 14.641-15.477 15.462-15.127-3.725zm41.15-20.236 3.881 15.127-14.671-4.211-4.2-14.61zM48.916 98.359l-3.881-15.127 5.6-5.596 14.778 4.242zm2.04-25.39-3.714-12.923 13.346 3.284-9.633 9.624zm15.157 5.899L53.13 75.143l9.573-9.563 3.409 13.273zm-17.638-3.406-5.525 5.52-15.127-3.726 16.451-16.435zm-17.41-47.998 4.2 14.641-15.614 15.6-15.127-3.726zM54.12 4.43l4.2 14.642-8.37 8.362-15.127-3.725zm1.795 40.397-3.88-15.113 8.461-8.453 14.777 4.227zm-18.155-5.2-3.714-12.923 13.347 3.284-9.633 9.624zm11.748-7.39 3.41 13.274-12.967-3.725 9.573-9.563zM37.456 44.28l14.778 4.227-26.587 26.561-3.88-15.112zm34.622-36.9 3.88 15.129-14.67-4.212-4.2-14.61zM3.763 56.975l13.347 3.284-9.634 9.625L3.763 56.96zm5.89 15.098 9.572-9.563 3.409 13.273-12.966-3.725zm21.594 22.79-4.2-14.61 14.99 3.694 3.88 15.128zm19.19 8.742 13.347 3.284-9.633 9.624-3.713-12.923zm5.89 15.098 9.573-9.563 3.409 13.272-12.982-3.724z"/><defs><linearGradient id="_etherfi" x1="8.754" x2="118.135" y1="82.912" y2="43.056" gradientUnits="userSpaceOnUse"><stop stop-color="#29BCFA"/><stop offset=".43" stop-color="#6464E4"/><stop offset="1" stop-color="#B45AFA"/></linearGradient></defs></svg>
