<svg xmlns="http://www.w3.org/2000/svg" viewBox="0 0 128 128"><path fill="#655EA8" d="m126.938 71.853-4.766-18.595a1.54 1.54 0 0 0-1.123-1.11l-18.409-4.542a2 2 0 0 0-.425-.045 1.5 1.5 0 0 0-1.229.425L69.92 79.084l-4.113-16.073a1.54 1.54 0 0 0-1.123-1.109L48.87 57.998l31.051-31.083c.182-.182.289-.41.364-.638a1.47 1.47 0 0 0 .091-.988L75.611 6.694a1.54 1.54 0 0 0-1.123-1.109L56.079 1.043a1.55 1.55 0 0 0-1.047.121h-.015c-.091.046-.168.107-.258.167-.076.061-.182.092-.243.168L1.52 54.519s-.091.152-.152.228a1.5 1.5 0 0 0-.303 1.413l5.144 17.972c.152.516.547.911 1.048 1.048l17.24 4.953 4.947 17.242c.152.517.547.912 1.047 1.049l17.302 4.968 4.962 17.318c.152.517.547.912 1.048 1.049l18.029 5.18c.137.046.289.061.425.061.03 0 .06-.015.106-.015h.03c.395 0 .79-.152 1.093-.456l53.011-53.066c.183-.182.289-.41.364-.638a1.47 1.47 0 0 0 .092-.987zm-23.767 20.616-3.87-15.116 8.575-8.57 14.736 4.24-19.425 19.46zm-30.064 30.095-3.87-15.116 15.51-15.526 14.736 4.238zm11.959-35.307-3.703-12.913 13.31 3.282-9.607 9.616zm11.716-7.383 3.4 13.263-12.946-3.722 9.546-9.556zm.44-4.785-15.085-3.722 19.38-19.4 4.189 14.63zm-18.833.015 4.188 14.63-15.434 15.45-15.086-3.722zm41.036-20.22L123.295 70l-14.63-4.209-4.189-14.6zm-69.644 44.33-3.87-15.116 5.585-5.59 14.736 4.238zm2.033-25.37L48.112 60.93l13.309 3.282-9.607 9.616zm15.116 5.894-12.946-3.722 9.547-9.556 3.4 13.263zm-17.59-3.404-5.509 5.515-15.085-3.722 16.406-16.422zm-17.36-47.96 4.189 14.63L20.597 58.59 5.51 54.868zM54.971 5.357l4.189 14.63-8.347 8.356-15.086-3.722zm1.791 40.365-3.87-15.1 8.438-8.447 14.736 4.223zm-18.106-5.195-3.703-12.913 13.31 3.281-9.607 9.617zm11.716-7.384 3.4 13.263-12.93-3.722 9.546-9.556zm-12.02 12.032L53.09 49.4 26.577 75.94l-3.87-15.1zM72.88 8.306l3.87 15.116-14.63-4.209-4.188-14.6zM4.752 57.86l13.31 3.282-9.606 9.616-3.704-12.913zm5.874 15.086 9.546-9.556 3.4 13.263-12.931-3.722zM32.16 95.72l-4.189-14.6 14.949 3.692 3.87 15.116zm19.137 8.735 13.31 3.281-9.606 9.617-3.704-12.913zm5.874 15.086 9.545-9.556 3.4 13.262-12.945-3.722z"/></svg>
