<svg xmlns="http://www.w3.org/2000/svg" fill="none" viewBox="0 0 1038 1039"><g clip-path="url(#a)"><path fill="url(#b)" d="m1024.1 576.135-38.749-151.057c-1.11-4.441-4.689-7.896-9.132-9.008l-149.698-36.901a16.5 16.5 0 0 0-3.457-.369c-3.577-.37-7.28.74-9.995 3.455L560.444 634.88l-33.443-130.57c-1.112-4.444-4.691-7.899-9.133-9.009l-128.596-31.717 252.501-252.501c1.482-1.481 2.346-3.332 2.963-5.184 1.11-2.467 1.481-5.306.74-8.021L606.725 46.822c-1.112-4.443-4.691-7.899-9.132-9.01l-149.7-36.9c-2.962-.74-5.925-.246-8.516.988h-.123c-.741.37-1.358.864-2.098 1.357-.617.494-1.481.74-1.975 1.358L4.228 435.323s-.74 1.233-1.234 1.85c-2.715 3.21-3.703 7.406-2.469 11.478l41.837 145.997c1.234 4.196 4.443 7.404 8.515 8.515l140.196 40.231 40.233 140.074c1.234 4.196 4.442 7.404 8.514 8.516l140.691 40.354 40.354 140.691c1.236 4.196 4.444 7.403 8.516 8.515l146.613 42.086c1.112.37 2.346.49 3.455.49.248 0 .496-.12.865-.12h.247c3.208 0 6.418-1.24 8.885-3.7l431.074-431.084c1.48-1.481 2.35-3.331 2.97-5.182 1.11-2.469 1.48-5.307.74-8.022zm-193.261 167.47L799.37 620.811l69.727-69.605 119.833 34.431-157.967 158.092zM586.362 988.084 554.891 865.29l126.127-126.127 119.833 34.432zm97.247-286.81-30.112-104.9 108.233 26.657-78.121 78.122zm95.274-59.978 27.645 107.74-105.271-30.237 77.626-77.625zm3.579-38.873-122.671-30.236 157.598-157.598 34.06 118.847zm-153.153.122 34.061 118.847-125.51 125.51-122.67-30.236zm333.705-164.26 31.47 122.793-118.969-34.184-34.062-118.599zM396.678 798.399l-31.472-122.793 45.417-45.417 119.833 34.432zm16.536-206.097-30.112-104.9 108.231 26.657-78.119 78.12zm122.919 47.884L430.862 609.95l77.626-77.626 27.645 107.738zm-143.034-27.645-44.8 44.8-122.67-30.236 133.407-133.409zM251.915 222.93l34.062 118.847-126.621 126.62-122.671-30.236zM438.884 35.961l34.063 118.846-67.878 67.877-122.671-30.236zm14.562 327.905-31.469-122.671 68.616-68.617 119.833 34.309zm-147.23-42.206-30.112-104.9 108.231 26.657-78.119 78.119zm95.274-59.979 27.645 107.739-105.147-30.236 77.626-77.626zm-97.741 97.742 119.833 34.31-215.601 215.6-31.471-122.671zM584.51 59.903l31.469 122.795-118.969-34.185-34.06-118.599zM30.514 462.472l108.233 26.657-78.12 78.122-30.113-104.902zm47.76 122.548 77.627-77.626 27.644 107.74-105.147-30.235zm175.122 184.996-34.061-118.6 121.56 29.991 31.47 122.793zm155.622 70.961 108.233 26.657-78.119 78.119-30.114-104.9zm47.76 122.548 77.626-77.626 27.645 107.738-105.271-30.236z"/></g><defs><linearGradient id="b" x1="70.993" x2="958.202" y1="673.013" y2="350.045" gradientUnits="userSpaceOnUse"><stop stop-color="#29BCFA"/><stop offset=".43" stop-color="#6464E4"/><stop offset="1" stop-color="#B45AFA"/></linearGradient><clipPath id="a"><path fill="#fff" d="M0 .564h1038v1038H0z"/></clipPath></defs></svg>
