<svg xmlns="http://www.w3.org/2000/svg" viewBox="0 0 128 128"><path fill="#0C2129" d="M64 128c35.347 0 64-28.655 64-64S99.347 0 64 0C28.655 0 0 28.655 0 64s28.655 64 64 64"/><path fill="#37BEC1" d="M72.91 25.005 29.06 44.529a8.002 8.002 0 0 0 6.508 14.618l43.85-19.524a8.002 8.002 0 0 0-3.463-15.308 8 8 0 0 0-3.044.69"/><path fill="#FBB144" d="M60.747 56.692 31.511 69.708a7.995 7.995 0 0 0 .389 14.776c1.981.758 4.182.7 6.12-.16l29.233-13.016a8.002 8.002 0 0 0-6.506-14.616"/><path fill="#E4615E" d="M92.432 68.855 48.582 88.38a8.002 8.002 0 0 0 6.508 14.616l43.85-19.521a7.99 7.99 0 0 0 4.635-5.955 8 8 0 0 0-2.383-7.16 7.98 7.98 0 0 0-5.715-2.194 8 8 0 0 0-3.045.69"/></svg>
