<svg xmlns="http://www.w3.org/2000/svg" viewBox="0 0 128 128"><path fill="#FF7829" d="m111.992 67.208-70.49 40.826c-4.869 2.82-6.538 9.063-3.728 13.945s9.034 6.553 13.902 3.734l70.491-40.826c4.868-2.82 6.537-9.063 3.727-13.945s-9.033-6.553-13.902-3.734"/><path fill="#FCBF22" d="M63.238 54.156 10.37 84.776c-4.868 2.82-6.537 9.063-3.728 13.944 2.81 4.882 9.034 6.554 13.902 3.735l52.868-30.62c4.868-2.82 6.537-9.063 3.727-13.945s-9.033-6.553-13.901-3.734"/><path fill="#2AE5B9" d="M76.312 5.21 5.822 46.036C.952 48.856-.716 55.1 2.093 59.98c2.81 4.882 9.034 6.554 13.902 3.735l70.491-40.827c4.868-2.82 6.537-9.063 3.727-13.944S81.18 2.39 76.312 5.21"/></svg>
