<svg width="500" height="500" viewBox="0 0 500 500" fill="none" xmlns="http://www.w3.org/2000/svg">
<g clip-path="url(#clip0_5_1539)">
<rect width="500" height="500" fill="#17181D"/>
<path d="M427.564 200.458C414.435 181.098 389.723 164.792 357.391 153.99V100.603C357.391 96.3069 354.234 92.6488 349.995 92.0622C258.56 79.2244 184.835 89.3186 130.897 122.103C61.3596 164.361 59.9009 215.09 60.0038 221.32V221.768C60.0038 327.403 145.467 413.333 250.528 413.333C346.185 413.333 427.409 341.535 439.508 246.305C439.508 246.305 439.508 246.27 439.508 246.253C439.508 246.219 439.508 246.201 439.508 246.167C439.542 245.942 439.559 245.718 439.594 245.511L439.628 245.235C439.628 245.131 439.645 245.045 439.662 244.942C441.275 229.964 437.088 214.59 427.546 200.458H427.564ZM139.787 136.856C188.833 107.057 256.243 97.4112 340.23 108.144V148.935C316.788 142.982 291.852 140.169 267.604 140.842C206.355 142.55 160.655 168.502 158.938 202.563C158.372 213.814 163.109 224.874 172.633 234.589C192.403 254.725 229.471 266.769 270.71 266.769C273.421 266.769 276.167 266.717 278.913 266.614C305.993 265.579 340.848 260.316 353.084 241.163C356.653 235.555 359.862 226.272 354.783 213.917C354.731 213.779 354.663 213.624 354.594 213.486C345.035 193.401 318.126 184.739 269.92 186.188C265.287 186.326 261.597 190.14 261.597 194.816V249.29C228.922 247.702 199.868 237.764 184.852 222.458C178.708 216.212 175.757 209.81 176.083 203.443C177.284 179.407 217.699 159.495 268.084 158.097C292.916 157.407 318.521 160.582 342.186 167.294C342.392 167.363 342.581 167.432 342.787 167.484C375.651 176.905 401.393 192.452 413.388 210.173C420.682 220.974 423.805 232.018 422.655 242.975C422.621 243.182 422.604 243.406 422.587 243.613L422.553 243.889C422.553 243.889 422.553 243.924 422.553 243.941C422.553 243.941 422.553 243.975 422.553 243.993C417.97 279.227 361.201 319.587 277.437 323.314C201.687 327.248 140.782 311.598 105.91 279.245C87.9767 262.611 77.7829 241.939 77.1994 221.061C77.1651 218.852 77.2852 174.869 139.821 136.891L139.787 136.856ZM278.758 249.342V203.288C279.102 203.288 279.445 203.288 279.788 203.288C321.25 203.288 334.979 212.554 339.012 220.733C341.328 226.548 339.921 229.861 338.634 231.862C332.439 241.577 310.06 248.117 278.758 249.359V249.342ZM250.545 396.078C178.211 396.078 116.087 351.319 90.139 287.889C91.4776 289.253 92.8505 290.581 94.2577 291.893C121.338 317.033 175.276 345.866 278.244 340.517C320.392 338.636 360.051 327.576 389.946 309.389C396.021 305.697 401.633 301.728 406.713 297.587C378.448 356.271 318.504 396.078 250.545 396.078Z" fill="#00C9A7"/>
</g>
<defs>
<clipPath id="clip0_5_1539">
<rect width="500" height="500" fill="white"/>
</clipPath>
</defs>
</svg>
