<svg xmlns="http://www.w3.org/2000/svg" viewBox="0 0 128 128"><path fill="#17181d" d="M0 0h128v128H0z"/><path fill="#00c9a7" d="M109.456 51.317c-3.361-4.956-9.687-9.13-17.964-11.896V25.754c0-1.1-.808-2.036-1.893-2.186-23.408-3.287-42.281-.702-56.09 7.69-17.8 10.818-18.174 23.805-18.148 25.4v.115c0 27.042 21.879 49.04 48.774 49.04 24.488 0 45.282-18.38 48.379-42.759v-.035c.009-.058.013-.115.022-.168l.009-.07q.001-.039.008-.076c.413-3.834-.658-7.77-3.101-11.388zm-73.67-16.282c12.555-7.628 29.812-10.098 51.313-7.35v10.442a68.6 68.6 0 0 0-18.592-2.071c-15.68.437-27.38 7.08-27.819 15.8-.145 2.88 1.068 5.712 3.506 8.199 5.061 5.155 14.55 8.238 25.108 8.238.694 0 1.397-.013 2.1-.04 6.932-.265 15.855-1.612 18.987-6.515.914-1.436 1.736-3.812.435-6.975a1 1 0 0 0-.048-.11c-2.447-5.142-9.336-7.36-21.676-6.989a2.2 2.2 0 0 0-2.131 2.209v13.945c-8.365-.406-15.803-2.95-19.647-6.869-1.573-1.599-2.328-3.238-2.245-4.868.308-6.153 10.654-11.25 23.552-11.608 6.358-.177 12.912.636 18.97 2.354q.078.028.154.049c8.414 2.412 15.004 6.392 18.074 10.928 1.868 2.765 2.667 5.593 2.373 8.398q-.012.082-.018.163l-.008.07v.027c-1.174 9.02-15.707 19.352-37.15 20.306-19.392 1.007-34.984-2.999-43.911-11.281-4.59-4.259-7.2-9.55-7.35-14.895-.009-.566.022-11.825 16.031-21.548zm35.576 28.797v-11.79h.264c10.614 0 14.129 2.372 15.161 4.466.593 1.488.233 2.336-.097 2.849-1.586 2.487-7.315 4.161-15.328 4.479zm-7.222 37.564c-18.518 0-34.422-11.458-41.064-27.696q.515.524 1.054 1.025c6.933 6.436 20.74 13.817 47.1 12.447 10.79-.481 20.943-3.312 28.596-7.968a38 38 0 0 0 4.293-3.022c-7.236 15.023-22.582 25.214-39.98 25.214"/></svg>
