<svg xmlns="http://www.w3.org/2000/svg" viewBox="0 0 128 128"><path fill="#e6fc8d" d="M1 18.007c11.607.008 23.213-.025 34.82.016 9.24 13.824 18.382 27.697 27.54 41.57.605 1.22 1.386.058 1.826-.598C74.26 45.338 83.16 31.598 92.35 18.023c11.54-.017 23.089-.05 34.629.017.033 2.374.025 4.749-.025 7.115-10.403.05-20.814-.067-31.217.05-12.553 18.93-24.99 37.925-37.65 56.771-19.03.141-38.059.017-57.088.058v-7.156c17.784.05 35.576-.092 53.36.074 2.15-2.532 3.694-5.321 5.52-8.103-9-13.956-18.356-27.68-27.447-41.586-8.103-.224-16.231-.067-24.343-.075-.083 14.197-.016 28.386-.033 42.583-2.35.041-4.707.075-7.057.05z"/><path fill="#e6fc8d" d="M100.969 32.353c8.626-.274 17.352-.083 25.994-.091q.051 24.87 0 49.74c-19.651.049-39.311.066-58.963 0 10.95-16.481 21.885-33.36 32.969-49.649M1 89.108c17.452.017 34.911-.041 52.371.033-4.583 7.182-9.381 14.247-14.155 21.304-12.736.066-25.48.008-38.216.025zm73.8.042c2.756-.084 5.504-.125 8.252.082 3.105 4.716 6.16 9.482 9.423 14.09 9.141 0 18.274.016 27.415-.009.116-4.724.008-9.44.05-14.155a77 77 0 0 1 7.04.033c.008 7.082 0 14.156.008 21.237-12.686.092-25.38.034-38.066.025-4.317-6.276-8.526-12.653-12.694-19.037-.474-.755-.947-1.511-1.428-2.266"/></svg>
