<svg xmlns="http://www.w3.org/2000/svg" viewBox="0 0 128 128"><path fill="#22e4ee" d="M68.32 0h1.387c.96 2.187 1.906 4.387 2.853 6.573C66.813 9.613 61.373 12 57.213 17.24c-3.56 4.187-5.253 9.12-6 14.507 5.254-6.974 8.467-14.16 15.987-19.227 7.187-5.347 15.48-6.787 24.253-6.96.134 2.453.254 4.907.374 7.36-6.76.973-13 1.533-18.867 5.387-4.6 2.733-7.72 6.813-10.373 11.36 6.333-4.08 10.853-9.08 18.08-11.76 8.746-3.36 19.786-3.64 28.253.666-.147 2.347-.613 4.747-1 7.067-6.827-1.44-12.853-3.373-19.893-1.667-5.454 1.107-9.52 3.494-13.347 7.494 7.627-2.16 14.547-5.04 22.68-4.707 9.733-.133 17.933 4.213 25.253 10.28-1.586 1.973-3.16 3.947-4.773 5.893-5.64-3.773-10.893-7.266-17.827-8.146-5.253-.92-10.173.24-14.973 2.333 7.96.787 15.347-.08 22.813 2.973 8.774 3.36 15.307 9.934 20.147 17.84v.68a600 600 0 0 1-6.173 3.88c-4-5.28-7.534-10.24-13.534-13.44-4.946-2.746-10.306-3.413-15.866-3.533 7.32 3.493 14.56 5.04 20.84 10.6 7.56 6.293 11.04 14.853 13.28 24.187-2.547.56-5.107 1.12-7.667 1.64-2.013-6.84-3.92-13.187-9.227-18.28-3.6-3.76-8.08-5.894-13.08-7.147 5.347 4.853 10.894 8.453 14.974 14.627 5.92 8.733 7.346 19.253 5.4 29.506-2.467-.28-4.934-.573-7.387-.866.293-7.107.72-13.614-2.427-20.227-2.066-4.853-5.6-8.4-9.906-11.32 3.973 7.493 8.546 13.653 9.6 22.4 1.52 9.36-1.28 17.747-5.347 26.027a571 571 0 0 1-7-3.28c2.493-6.214 5.16-11.827 4.813-18.734-.186-5.64-2.333-10.653-5.226-15.4.826 9.414 3.146 17.6.426 27.107-2.106 8.293-7.36 14.227-13.386 19.987a366 366 0 0 1-5.347-5.72c4.267-4.48 8.32-8.467 10.387-14.48 2.2-5.694 2.16-11.574.746-17.454-1.973 7.84-2.333 15.134-6.6 22.28C75.773 119.107 68.4 124.44 59.96 128h-1.587a668 668 0 0 1-2.56-6.627c6.214-3.24 11.987-6.12 16.094-12.08 3.093-4.133 4.346-8.88 5.053-13.92-4.867 6.734-7.92 13.694-14.68 18.947-7.373 6.053-16.28 8.133-25.653 8.16-.134-2.453-.254-4.92-.374-7.387 6.387-.84 12.334-1.413 17.947-4.906 4.92-2.8 8.387-6.974 10.827-12.04-6.787 5-12.294 10.44-20.654 12.893-8.72 2.84-17.093 1.467-25.693-.893.467-2.56.973-5.107 1.48-7.64 6.32 1.346 12.013 2.946 18.573 1.72 5.56-.92 10.307-3.694 14.427-7.467-8.2 2.013-15.08 5.347-23.827 4.787-9.173-.294-16.64-4.48-23.88-9.707a304 304 0 0 1 4.507-6.36c5.68 3.76 11.053 7.24 18.013 8.027 5.067.826 9.72-.494 14.36-2.374-7.813-.946-16.146-.293-23.32-3.44C10.92 84.347 4.6 78.253 0 70.893V69.52c1.88-1.293 3.76-2.573 5.64-3.853 4.36 5.56 8.227 10.786 14.787 13.92 4.346 2.373 8.973 2.786 13.84 2.386-7.734-3.813-15.214-5.773-21.507-12.08C6.24 63.667 3.507 55.8 1.213 47.32c2.52-.627 5.04-1.227 7.56-1.813 2.094 6.373 3.68 12.28 8.334 17.373 3.32 3.893 7.693 6.053 12.386 7.88-5.333-5.933-11.266-9.947-15.066-17.24-4.454-8.267-4.734-17.053-3.947-26.227 2.64.12 5.267.254 7.907.414-.28 6.933-.8 13.28 2.053 19.826 1.787 4.56 5 7.974 8.8 10.96-3.2-7.733-7.52-13.853-8.36-22.466-1.093-9.067 1.813-16.987 5.64-25a693 693 0 0 1 7.093 3.413c-2.693 6.213-5.28 11.92-4.933 18.893 0 5.054 1.88 9.454 4.507 13.667-.467-8.92-2.507-16.64.213-25.533 2.24-8.147 7.373-14.254 13.413-19.92C48.6 3.44 50.387 5.32 52.147 7.24c-4.267 4.427-8.254 8.613-10.4 14.52-2.054 5.16-2.147 10.533-1.307 15.973 3.12-7.08 3.24-14.066 7.24-20.746C52.293 8.84 59.787 3.48 68.32 0"/></svg>
