<svg xmlns="http://www.w3.org/2000/svg" fill="none" viewBox="0 0 128 128"><path fill="#000" d="m102.788 22.756-16.485 23.04-9.697-21.878-8.788 9.9L59.394 12 45.09 41.274 30 19.394 0 84.789l35.515-14.912 31.758 47.12L99.09 75.071 128 89.922z"/><path fill="url(#a)" d="m103.273 29.662 21.091 56.226-24.303-12.467z"/><path fill="url(#b)" d="m101.455 28.073-3.272 45.042-.122.123-10.788-25.302.667-.978z"/><path fill="url(#c)" d="m84.97 47.63 11.696 27.441-27.879 36.731 8.243-82.078 7.515 16.929z"/><path fill="url(#d)" d="m75.213 28.562-8.485 84.156-29.515-43.82 29.939-31.413v.061l.545-.61.91-.918-.061-.06.727-.795z"/><path fill="url(#e)" d="m66.424 35.468-4.788 5.012-1.151-20.352L66.06 34.49z"/><path fill="url(#f)" d="m58.424 18.54 1.333 23.895-8.12 8.496-5.274-7.884.485-.917z"/><path fill="url(#g)" d="m45.334 45.125 4.909 7.272-14.06 14.729-4.607-41.864 11.818 17.173z"/><path fill="url(#h)" d="m29.662 25.21 4.728 43.27L3.905 81.314z"/><defs><linearGradient id="a" x1="101.297" x2="123.285" y1="57.775" y2="57.775" gradientUnits="userSpaceOnUse"><stop offset=".12" stop-color="#2DF6A7"/><stop offset=".85" stop-color="#2EB8EC"/></linearGradient><linearGradient id="b" x1="87.995" x2="100.825" y1="50.656" y2="50.656" gradientUnits="userSpaceOnUse"><stop offset=".12" stop-color="#2DF6A7"/><stop offset=".85" stop-color="#2EB8EC"/></linearGradient><linearGradient id="c" x1="70.205" x2="95.43" y1="70.762" y2="70.762" gradientUnits="userSpaceOnUse"><stop offset=".12" stop-color="#2DF6A7"/><stop offset=".85" stop-color="#2EB8EC"/></linearGradient><linearGradient id="d" x1="39.146" x2="73.528" y1="70.64" y2="70.64" gradientUnits="userSpaceOnUse"><stop offset=".12" stop-color="#2DF6A7"/><stop offset=".85" stop-color="#2EB8EC"/></linearGradient><linearGradient id="e" x1="60.787" x2="66.157" y1="30.304" y2="30.304" gradientUnits="userSpaceOnUse"><stop offset=".12" stop-color="#2DF6A7"/><stop offset=".85" stop-color="#2EB8EC"/></linearGradient><linearGradient id="f" x1="47.042" x2="59.163" y1="34.735" y2="34.735" gradientUnits="userSpaceOnUse"><stop offset=".12" stop-color="#2DF6A7"/><stop offset=".85" stop-color="#2EB8EC"/></linearGradient><linearGradient id="g" x1="32.527" x2="49.412" y1="46.194" y2="46.194" gradientUnits="userSpaceOnUse"><stop offset=".12" stop-color="#2DF6A7"/><stop offset=".85" stop-color="#2EB8EC"/></linearGradient><linearGradient id="h" x1="5.456" x2="33.038" y1="53.262" y2="53.262" gradientUnits="userSpaceOnUse"><stop offset=".12" stop-color="#2DF6A7"/><stop offset=".85" stop-color="#2EB8EC"/></linearGradient></defs></svg>
