<svg xmlns="http://www.w3.org/2000/svg" viewBox="0 0 128 128"><path fill="url(#a)" d="M102.788 23.552 86.303 46.154l-9.697-21.463-8.788 9.712L59.394 13 45.091 41.718 30 20.254 0 84.404l35.515-14.628L67.273 116 99.09 74.872 128 89.441zm.485 6.775 21.091 55.157-24.303-12.23zm-1.818-1.56-3.273 44.187-.121.12-10.788-24.821.666-.96zM84.97 47.954l11.697 26.92-27.88 36.031 8.243-80.517 7.516 16.607zm-9.758-18.706-8.485 82.557-29.515-42.987L67.152 38v.06l.545-.6.909-.9-.06-.06.727-.779zm-8.788 6.775-4.788 4.916-1.151-19.964 5.576 14.089zm-8-16.607 1.334 23.442-8.122 8.334-5.272-7.735.485-.899zm-13.09 26.08 4.908 7.134-14.06 14.45-4.606-41.07 11.818 16.848zM29.635 25.71l4.728 42.447-30.485 12.59z"/><defs><linearGradient id="a" x1="6.516" x2="122.327" y1="64.5" y2="64.5" gradientUnits="userSpaceOnUse"><stop offset=".124" stop-color="#2DF6A7"/><stop offset=".848" stop-color="#2EB8EC"/></linearGradient></defs></svg>
