<svg xmlns="http://www.w3.org/2000/svg" viewBox="0 0 128 128"><circle cx="64" cy="64" r="64" fill="#f90"/><path d="M91.03 17.76c1.6 1.23 2.96 2.67 4.27 4.18-6.99 7.91-15.22 14.75-22.11 22.73.62 1.42 1.26 2.75 1.61 4.27-1.06 3.9-3.08 7.56-4.52 11.34-1.53 3.28-2.36 6.45-5 8.98-4.09 3.99-7.97 8.24-12.28 11.99-4.68-4.04-8.79-8.72-13.26-12.99-2.29-2.39-5.11-4.62-6.87-7.43-.37-2.67 2.28-4.33 3.84-6.12 3.98-3.67 7.06-7.99 11.92-10.07 5.07-2.34 10.32-4.31 15.45-6.53 1.43.54 2.85 1.09 4.26 1.69 7.97-6.85 14.76-15.12 22.69-22.04m-80 64.96c4.04 2.28 6.4 6.04 10.62 7.7 2.34 1.3 5.45.13 7.47-1.28 2.8-2.38 4.92-4.95 8.66-5.9 5.11 2.4 7.3 7.53 13.16 7.8 4.95-.7 7.42-4.46 11.08-7.03 2.34-1.9 5.01.67 6.71 2.24 2.59 2.68 5.1 4.93 9.1 4.67 5.54-.91 7.48-6.33 12.98-7.73 4.96 2.7 6.7 7.5 13.12 7.83 5.85-1.02 8.17-5.44 13.05-8.32-2.79 8.63-7.97 16.94-15.08 22.65-3.75-2.61-5.27-6.23-10.24-7.06-6.57-.72-9.55 5.3-14.66 7.89-3.13-1.56-5.23-4.15-7.94-6.24-1.86-1.16-4.47-2.52-6.68-1.66-4.94 1.24-6.73 5.83-11.45 7.84-4.78-2.35-7.03-6.4-12.1-8.09-4.98-.28-9.31 4.35-12.97 7.19-6.87-5.68-12.15-14.03-14.83-22.5"/><path d="M37.9 102.93c3.92 1.47 5.86 5.2 9.45 6.8 2.07.51 4.32.46 6.42.17 3.66-1.24 6.85-7.41 11.04-6.99 2.94 1.63 5.23 5.48 8.55 6.8 2.13.54 5.14.54 7.27 0 3.64-1.6 5.54-5.3 9.47-6.78 3.33.27 6.19 3.71 8.23 6.08-9.75 7.89-21.93 11.54-34.33 12.04-12.41-.49-24.59-4.13-34.33-12.04 2.03-2.37 4.91-5.82 8.23-6.08"/></svg>
