<svg xmlns="http://www.w3.org/2000/svg" viewBox="0 0 128 128"><path fill="#8e8e8e" d="M64.402 101.799c27.835 0 50.4-22.565 50.4-50.4S92.237 1 64.402 1 14.003 23.565 14.003 51.4s22.564 50.399 50.399 50.399"/><path fill="#fff" d="M41.729 127c15.314 0 27.729-12.415 27.729-27.729s-12.415-27.729-27.73-27.729C26.416 71.542 14 83.957 14 99.272 14 114.584 26.415 127 41.729 127"/><mask id="a" width="7" height="76" x="38" y="3" maskUnits="userSpaceOnUse" style="mask-type:alpha"><path fill="#fff" d="M38.677 78.166V3.857h6.182v74.309z"/></mask><path fill="#fff" d="M114.805 51.4c0 27.836-22.566 50.402-50.403 50.402C36.566 101.802 14 79.236 14 51.399 14 23.563 36.572.997 64.402.997c27.837 0 50.403 22.569 50.403 50.402" mask="url(#a)"/></svg>
