<svg xmlns="http://www.w3.org/2000/svg" viewBox="0 0 128 128"><path fill="#06070a" d="M63.447 2c8.61 5.43 17.213 10.88 25.838 16.284.762.478 1.372.96 1.743 1.804 9.448 19.982 18.891 39.964 28.339 59.946-18.596 15.228-37.207 30.446-55.808 45.669Q35.779 100.985 8 76.26c7.99-16.249 16.024-32.518 24.003-48.767.732-1.64 2.2-2.438 3.553-3.55C44.86 16.639 54.152 9.314 63.446 2"/><path fill="#fff" d="M63.848 9.655c6.064 3.728 12.055 7.593 18.093 11.377Q71.3 26.723 60.651 32.405c-6.291-1.808-12.583-3.647-18.88-5.44 6.993-5.475 13.966-10.981 20.944-16.477a59 59 0 0 1 1.133-.833m22.876 15.878c7.374 15.629 14.768 31.243 22.148 46.867.981 2.088 1.997 4.135 2.876 6.242-6.022-1.98-11.892-4.454-17.859-6.603-.925-.406-1.738-.152-2.678.026-10.734 2.397-21.482 4.729-32.221 7.1 1.636-12.26 3.258-24.533 4.884-36.8.239-1.61.33-3.276.742-4.85.88-.762 2.033-1.25 3.05-1.813 6.362-3.368 12.705-6.781 19.058-10.17M36.79 32.075c7.146 1.864 14.246 4.089 21.361 6.085-1.55 11.733-3.11 23.467-4.665 35.2-.31 2.22-.422 4.348-1.128 6.496-5.708-5.846-11.507-11.61-17.255-17.422-5.666 3.87-11.369 7.7-17.015 11.602-.788.528-1.636.888-2.505 1.26.711-1.992 1.717-3.805 2.637-5.7 5.474-11.124 10.958-22.237 16.426-33.361.696-1.387 1.311-2.85 2.145-4.16"/><path fill="#fcf1d0" d="M58.848 79.196c2.287 12.226 4.614 24.447 6.906 36.673-.676.554-1.347 1.102-2.023 1.651-1.53-1.468-3.455-2.743-4.726-4.439-.65-1.946-.828-4.074-1.26-6.075-1.703-8.767-3.227-17.575-5.037-26.317 2.033-.655 4.056-1.046 6.14-1.493"/></svg>
