<svg xmlns="http://www.w3.org/2000/svg" viewBox="0 0 128 128"><path fill="#544cd4" d="M104.709 2.458c-1.746.426-15.393 4.725-19.035 5.998-1.41.492-4.456 1.532-6.77 2.31-2.315.78-6.6 2.252-9.519 3.273a845 845 0 0 1-10.797 3.678c-14.754 4.896-16.258 7.09-13.726 20.024.176.903.51 3.036.742 4.74.609 4.485.663 4.682 1.507 5.522 1.056 1.054 7.53-.287 12.576-2.603.401-.186 4.19-1.49 8.418-2.9 4.227-1.408 8.675-2.893 9.883-3.3 1.207-.41 7.689-2.547 14.4-4.754 18.174-5.975 19.402-7.062 18.337-16.21-.517-4.429-1.066-8.53-1.443-10.758a106 106 0 0 1-.556-3.736c-.244-1.936-.72-2.087-4.017-1.284M77.621 46.29a222 222 0 0 1-5.855 1.842c-1.812.54-4.283 1.297-5.49 1.685-1.209.387-2.691.844-3.295 1.019-14.895 4.31-14.46 3.688-14.46 20.606 0 10.89.04 11.575.641 11.339.762-.298 2.59-.88 6.314-2.011a523 523 0 0 0 4.21-1.29c.804-.252 2.7-.826 4.208-1.276 1.511-.45 3.899-1.216 5.309-1.704s3.88-1.322 5.49-1.851c2.181-.718 3.343-1.352 4.55-2.492l1.622-1.527.276-3.955c.154-2.177.288-7.854.301-12.617.027-9.943.4-9.184-3.821-7.768M75.06 81.884a816 816 0 0 1-6.955 2.218 1721 1721 0 0 0-7.87 2.498 518 518 0 0 1-6.773 2.118c-6.643 2-11.701 3.566-15.556 4.813-2.314.75-6.325 2.045-8.912 2.879-10.298 3.316-12.09 6.123-10.474 16.399.855 5.44 1.687 10.479 2.04 12.349.23 1.203 3.03 1.109 7.055-.234 3.404-1.138 12.55-3.99 16.698-5.209 1.408-.413 2.89-.879 3.294-1.037.995-.385 2.425-.846 5.673-1.826 1.511-.456 4.639-1.44 6.956-2.184 11.055-3.559 13.517-4.34 15.555-4.944 9.468-2.802 10.672-5.771 8.265-20.39l-.75-4.558c-.748-4.544-1.914-4.953-8.246-2.892"/></svg>
