<svg xmlns="http://www.w3.org/2000/svg" viewBox="0 0 128 128"><circle cx="64" cy="64" r="64" fill="#C7F121"/><path fill="#F7E9BF" d="M99.595 44.608h-6.422v5.365H99.6zm11.834 15.072 2.358 6.08-2.358.032v3.61h-5.882V59.68z"/><path fill="#F7E9BF" d="M96.32 48.907v4.48h-1.387l-4.64 1.776v-6.256zm7.792 15.856h-9.67v5.12h4.838l8.037 3.77v-3.77h1.632v-5.12z"/><path fill="#232326" d="M94.933 74.95v3.167h4.128l-4.122 6.507h-6.416v-9.675zM82.571 41.03h-6.235v6.234h6.24z"/><path fill="#16171C" d="M28.992 53.387h-4.128v8.256h4.128zm74.197 4.128h-4.128v4.128h4.128zm0-8.251V36.901h-4.128v-4.128H86.7v4.128h-4.13v4.128h4.128v-4.128H99.06v12.363h-4.128v4.128h12.384v-4.128zm8.256 4.123-4.128.005v4.123h4.128zm4.107 4.128h-4.128v8.256h4.128z"/><path fill="#16171C" d="M107.317 65.75v4.127H94.933V65.75h4.128v-4.122h-8.234V57.52h4.106v-4.133H86.7v8.24h4.128v16.485h4.106v-4.123l12.384.016v-4.128h4.107V65.75zm-70.09-24.737v4.123h-4.123v4.128h4.123v-4.128h8.256v-4.128z"/><path fill="#16171C" d="M86.699 45.136v4.128H82.57v-4.128h-4.107v-4.128h-8.256v4.128h8.235v4.128h4.128v4.128h4.128v-4.128h4.128v-4.128zM61.957 73.989v4.128H41.333V73.99h-4.106v16.49H66.08V73.99zM45.483 86.368l-4.128-.016v-4.128h4.128zm4.106 0V82.24h4.128v4.128zm12.368 0H57.83V82.24h4.128zm-24.73-20.613h4.128v-4.128h-4.128V57.52h-4.123v4.107h4.123zm0 0h-4.123v4.122h4.123zm32.981-4.128V57.52H66.08v4.107h-4.107v4.128h4.107v4.122h4.128V65.75H66.08v-4.122zM66.08 36.9V16.283h-8.235v8.25h4.128v12.374H49.595V28.64h-4.112v-4.107h-4.128v-4.128h-8.251v8.235h8.25v4.128h4.129v8.235l24.725.005v-4.112zM33.099 49.264h-4.123v4.128h4.123zM99.06 82.24v-4.123h-4.128v4.123H90.81v8.24h-4.128v4.123h-4.128v4.128h-4.128v4.128h-4.128v4.128h8.24v-4.128h8.234v-4.128h8.256v-4.128h4.123V82.24zM28.992 94.608V90.48h-.016v-4.107h-4.107V61.627h-4.133v24.746h4.133l-.005 8.235h4.107v4.128h4.133v-4.128zm8.235 4.128h-4.123v4.123h4.123zm8.24 4.123h-8.24v4.128h8.24zm28.869 4.128H45.483v4.128h28.853z"/><path fill="#fff" d="M90.827 49.264h-4.128v4.128h4.128zm16.49 8.256v-4.128H94.96v4.128h-4.128v4.107h8.235V57.52h4.122v4.107h-4.122v4.128h8.25v-4.128h4.107V57.52zM86.699 36.901v4.107h-4.123v8.256h4.123v-4.128h4.128v4.128h4.128v-4.128h4.106v-8.235zM45.483 82.24h-4.128v4.133h4.128zm16.49 0h-4.128v4.133h4.128zm-8.256 0H49.6v4.133h4.123z"/><path fill="#FFD745" d="M86.699 53.387H82.57v-4.123h-4.123v-4.128h-8.24v-4.128H45.483v4.128h-8.256v4.128h-4.123v4.128h-4.107v8.235h-4.133v24.725h4.128v4.128h4.128v4.128h8.235v4.128h32.981v-4.128h4.128v-8.261h4.128v-4.128h4.128zm-24.726 8.24h4.107v4.128h-4.123v-4.128zM33.104 57.52h4.123v4.107h4.128v4.128h-4.128v-4.128h-4.123zm0 12.363v-4.128h4.123v4.128zm32.981 8.234v12.379H37.227V73.989h4.128v4.128h20.634V73.99h4.096zm4.123-12.362v4.128H66.08v-4.128zm0-4.128H66.08v-4.128h4.128z"/><path fill="#ED8F3A" d="M33.099 90.48h-4.123v4.128h4.123zm53.6-28.853v20.618H82.57v4.128h-4.123v8.251H74.32v4.128H41.36v-4.128h-8.261v4.128h4.122v4.128h8.24v4.128h28.854v-4.128h4.128v-4.128h4.122v-4.128h4.128v-4.128h4.128v-28.87z"/></svg>
