<svg xmlns="http://www.w3.org/2000/svg" viewBox="0 0 128 128"><path fill="#3B3C37" d="m101.76 16.96.62.5c.491.402.962.823 1.428 1.254.379.346.766.682 1.152 1.02a250 250 0 0 1 1.66 1.646l.88.88c3.231 3.29 6.058 7.127 8.34 11.127l.332.572c6.369 11.135 9.224 24.532 7.561 37.294l-.093.763c-1.516 11.435-6.216 22.309-13.667 31.131l-.333.396c-1.204 1.418-2.484 2.756-3.8 4.07l-.805.806c-.512.503-1.021.985-1.568 1.448l-.358.311a59 59 0 0 1-2.629 2.142l-.361.283c-9.195 7.08-20.428 11.235-31.959 12.197l-.69.06c-3.738.193-7.538.19-11.257-.273l-.93-.114c-11.287-1.5-22.333-6.124-30.982-13.601-.282-.242-.57-.474-.861-.705a45.5 45.5 0 0 1-5.733-5.634l-.347-.395-.34-.391-.34-.389c-2.84-3.344-5.23-7.012-7.293-10.878l-.245-.442C1.77 78.568.627 61.84 4.738 47.208c.794-2.64 1.702-5.228 2.835-7.741l.333-.744c3.415-7.502 8.533-14.667 14.814-20.056q.248-.226.493-.454a29 29 0 0 1 1.673-1.372q.592-.465 1.174-.94c2.729-2.187 5.742-4.018 8.82-5.661l.442-.245C41.708 6.5 49.015 4.48 56.213 3.627l.814-.097C73.014 1.92 89.37 6.697 101.76 16.96"/><path fill="#D7A943" d="m101.76 16.96.62.5c.491.402.962.823 1.428 1.254.379.346.766.682 1.152 1.02a250 250 0 0 1 1.66 1.646l.88.88c3.231 3.29 6.058 7.127 8.34 11.127l.332.572c6.369 11.135 9.224 24.532 7.561 37.294l-.093.763c-1.516 11.435-6.216 22.309-13.667 31.131l-.333.396c-1.204 1.418-2.484 2.756-3.8 4.07l-.805.806c-.512.503-1.021.985-1.568 1.448l-.358.311a59 59 0 0 1-2.629 2.142l-.361.283c-9.195 7.08-20.428 11.235-31.959 12.197l-.69.06c-3.738.193-7.538.19-11.257-.273l-.93-.114c-11.287-1.5-22.333-6.124-30.982-13.601-.282-.242-.57-.474-.861-.705a45.5 45.5 0 0 1-5.733-5.634l-.347-.395-.34-.391-.34-.389c-2.84-3.344-5.23-7.012-7.293-10.878l-.245-.442C1.77 78.568.627 61.84 4.738 47.208c.794-2.64 1.702-5.228 2.835-7.741l.333-.744c3.415-7.502 8.533-14.667 14.814-20.056q.248-.226.493-.454a29 29 0 0 1 1.673-1.372q.592-.465 1.174-.94c2.729-2.187 5.742-4.018 8.82-5.661l.442-.245C41.708 6.5 49.015 4.48 56.213 3.627l.814-.097C73.014 1.92 89.37 6.697 101.76 16.96m-45.547-3.947-.645.096A53.1 53.1 0 0 0 37.973 19.2l-.471.258c-3.08 1.695-5.956 3.868-8.553 6.23q-.26.236-.521.467c-.856.76-1.678 1.543-2.401 2.432q-.266.267-.534.533c-6.965 7.223-11.618 16.87-13.12 26.773l-.113.735c-.9 6.158-.745 12.496.647 18.572l.138.634c1.62 7.129 4.826 13.727 9.248 19.526l.248.33c1.416 1.874 3.019 3.592 4.68 5.25l.657.659c.474.463.951.905 1.455 1.334l.37.323a25 25 0 0 0 2.062 1.638c.235.173.235.173.555.493.667.474 1.349.928 2.027 1.386l.474.327c1.258.858 2.562 1.613 3.899 2.34l.68.371c4.187 2.228 8.657 3.779 13.293 4.749l.627.138c3.312.703 6.62.944 10 .942l1.364.001a47 47 0 0 0 12.33-1.828l.588-.168c6.235-1.845 12.101-4.778 17.225-8.792l.29-.226a45 45 0 0 0 4.296-3.827q.454-.454.909-.905l.411-.408.41-.406c1.439-1.476 2.709-3.125 3.924-4.788l.3-.405c3.866-5.322 6.762-11.714 8.126-18.155l.163-.738c.343-1.598.613-3.185.797-4.808l.063-.499c1.331-10.69-1.078-22.427-6.783-31.608l-.213-.213-.142-.338c-.429-.986-1.119-1.874-1.789-2.711-.263-.335-.512-.68-.762-1.025a66 66 0 0 0-1.526-1.995q-.32-.405-.628-.818l-.273-.367-.213-.286c-.211-.26-.211-.26-.5-.474-.354-.306-.354-.306-.785-.84a25 25 0 0 0-1.655-1.786l-.574-.572q-.677-.656-1.393-1.268l-.346-.305a50 50 0 0 0-2.96-2.362l-.472-.35c-5.6-4.11-12.47-7.487-19.37-8.638a21 21 0 0 1-1.057-.23c-5.444-1.215-11.355-1.315-16.862-.489"/><path fill="#73BBE1" d="M76.053 15.36c-.171.601-.457 1.118-.753 1.667-4.847 9.21-10.539 21.674-7.372 32.296l.125.384.152.483c.913 2.765 2.282 5.333 4.222 7.517l.237.269q.24.269.483.534.24.264.476.533c.558.636 1.15 1.204 1.79 1.757l.34.3c4.703 4.105 9.574 6.012 15.814 6.007h1.006c6.918-.1 13.847-2.296 20.195-4.887.619-.247.619-.247.832-.247.128 9.958-1.934 19.733-7.253 28.267l-.353.571a41 41 0 0 1-2.421 3.482l-.275.364a50 50 0 0 1-2.925 3.476l-.268.298c-2.171 2.4-2.171 2.4-2.718 2.582l-.348-.992c-1.689-4.795-3.448-9.556-5.626-14.154l-.348-.743c-2.086-4.396-4.546-8.643-7.855-12.24a26 26 0 0 1-.45-.504c-2.423-2.77-5.623-4.759-9.053-6.033l-.377-.143c-5.811-2.08-13.395-1.502-18.99 1.07-1.96.96-3.7 2.207-5.29 3.696a36 36 0 0 1-.857.77c-2.829 2.544-4.995 6.024-6.806 9.327l-.33.59c-3.325 6.034-5.728 12.546-7.67 19.143l-.222.75-.185.63-.189.643c-.157.533-.157.533-.258 1.07-.431-.215-.728-.453-1.093-.766l-.374-.321-.346-.299-.243-.21q-.848-.74-1.677-1.497l-.374-.34c-.662-.607-1.285-1.215-1.866-1.9a37 37 0 0 0-.413-.407c-.416-.41-.78-.85-1.144-1.304a39 39 0 0 0-.81-.956c-5.518-6.513-9.263-14.926-10.558-23.338q-.084-.531-.195-1.056c-.529-2.813-.467-5.718-.427-8.566.851.22 1.669.49 2.494.794.786.286 1.569.569 2.372.805.492.147.98.309 1.468.468a54 54 0 0 0 3.11.877q.779.201 1.55.423c3.587.998 7.36 1.647 11.086 1.753l.711.025c2.803.053 5.687-.178 8.356-1.091l.528-.17A20 20 0 0 0 48 65.387l.381-.203c2.602-1.427 4.97-3.52 6.766-5.877l.293-.377c4.32-5.631 6.23-11.276 5.407-18.423-1.104-7.817-4.46-15.258-8.367-22.054l-.58-1.046a51 51 0 0 0-1.127-1.94c5.899-3.933 18.923-1.811 25.28-.107"/><path fill="#9D6C4B" d="M81.173 72.213c.88.846 1.704 1.705 2.454 2.667l.266.33c5.526 6.882 8.771 15.44 11.68 23.67l.3.844c.66 1.884.66 1.884.66 2.249-.196.193-.196.193-.48.414l-.325.257-.368.289-.813.674a41 41 0 0 1-2.707 1.993l-.414.283c-6.99 4.724-14.83 7.317-23.16 8.357l-.853.107c-12.083.867-24.31-2.379-34.026-9.707a46 46 0 0 1 1.34-4.767q.266-.8.5-1.61c3.166-10.617 8.59-24.139 18.963-29.78 8.69-4.443 19.944-2.897 26.983 3.73"/><path fill="#EEF1E0" d="M77.12 15.787c5.245.908 10.51 3.943 14.827 6.933l.418.29c2.458 1.729 2.458 1.729 2.675 2.163l-.402.141c-2.914 1.043-5.08 2.625-6.465 5.46A10.65 10.65 0 0 0 88 38.826c.462 1.153 1.02 2.139 1.813 3.093l.174.227c1.508 1.878 3.935 3.042 6.264 3.465 2.985.32 5.708-.319 8.085-2.163 1.263-1.037 2.124-2.32 2.864-3.769 3.728 3.728 5.341 12.385 5.973 17.493l.09.712c.251 2.078.251 2.078.23 3.022-3.41 1.314-6.828 2.523-10.346 3.52l-.773.226c-1.944.54-3.955.852-5.947 1.16l-.591.098c-5.733.848-11.771.128-16.564-3.283a28 28 0 0 1-1.446-1.16 20 20 0 0 0-.806-.655c-1.567-1.249-3.055-2.687-4.273-4.28l-.286-.372c-3.617-4.819-4.85-10.545-4.114-16.494q.114-.795.24-1.587l.093-.593c1.237-7.076 4.284-15.791 8.44-21.7"/><path fill="#030303" d="m74.88 13.867.545.124A50.9 50.9 0 0 1 91.2 20.8l.343.221c3.543 2.319 7.323 5.216 9.908 8.607.195.247.195.247.454.43.379.317.633.69.922 1.089l.653.853q1.014 1.328 2.013 2.667l.323.426q.447.603.864 1.227l.268.397c.255.408.464.825.679 1.256q.264.428.533.854c1.548 2.715 2.764 5.491 3.84 8.426l.22.595c1.821 5.178 2.591 10.752 2.573 16.219l-.002 1.43c-.052 3.745-.614 7.458-1.511 11.09l-.138.588c-1.896 7.737-5.893 15.179-11.282 21.053q-.29.317-.567.645c-.49.564-1.028 1.082-1.56 1.607q-.438.437-.87.878c-.653.664-1.307 1.299-2.037 1.876-.316.251-.62.515-.926.779-1.482 1.256-3.056 2.369-4.7 3.4l-.48.312c-11.214 7.226-25.244 9.56-38.253 6.835a50 50 0 0 1-3.294-.853l-.497-.142c-5.507-1.597-10.598-4.157-15.29-7.432l-.302-.206a25 25 0 0 1-1.937-1.5l-.353-.296a72 72 0 0 1-4.467-4.078l-.652-.646a26 26 0 0 1-1.568-1.807l-.48-.527c-.524-.576-.983-1.19-1.44-1.82l-.324-.44C13.6 83.488 10.373 69.858 12.33 55.998c1.202-7.678 4.197-15.25 8.79-21.545l.348-.483a41 41 0 0 1 2.319-2.93l.2-.233c.606-.7 1.219-1.4 1.874-2.054.305-.305.595-.621.886-.94.789-.857 1.593-1.67 2.48-2.426l.321-.282c2.521-2.196 5.297-4.18 8.23-5.788q.406-.223.807-.454c5.372-3.106 11.498-5.001 17.628-5.85l.355-.052c6.07-.839 12.352-.482 18.312.906M50.773 15.36c.31.652.651 1.273 1.02 1.893C57.03 26.081 62.53 37.32 60.8 47.893l-.055.407c-.301 1.926-1.041 3.757-1.972 5.46l-.253.475c-3.025 5.578-7.404 10.17-13.4 12.432l-.314.129c-5.424 2.177-12.266 1.479-17.82.19l-.665-.142c-4.285-.925-8.492-2.228-12.607-3.735-.434-.188-.434-.188-.7-.176-.157 11.152 2.918 22.239 9.813 31.147l.5.673c.456.608.932 1.198 1.42 1.78l.303.364a29 29 0 0 0 1.887 2.04q.344.345.656.716c.306.358.639.66.997.964.336.292.642.615.957.93a70 70 0 0 0 1.793 1.533l.476.396c.362.319.362.319.717.417l.118-.469c.292-1.146.6-2.276.993-3.393.146-.442.279-.888.409-1.335 1.904-6.413 4.444-12.826 7.867-18.59l.298-.504c1.438-2.4 3.061-4.665 4.929-6.749l.342-.382c.568-.626 1.14-1.212 1.791-1.751l.3-.264c3.116-2.715 6.548-4.158 10.58-4.856l.73-.129c3.16-.492 6.462-.533 9.617.022q.201.03.41.059c3.258.531 6.414 2.167 8.976 4.208l.283.22c1.245.992 2.424 2.082 3.45 3.3l.346.405a40 40 0 0 1 2.428 3.222l.268.387c4.304 6.313 7.111 13.575 9.652 20.733l.62 1.733.447 1.253c.63-.378 1.069-.831 1.586-1.353l.56-.561a33 33 0 0 0 1.267-1.392l.453-.494c.596-.66 1.137-1.362 1.68-2.066l.26-.33a45 45 0 0 0 3.58-5.324l.268-.463c4.768-8.414 6.638-17.46 6.559-27.057-.89.297-1.763.622-2.64.954-6.244 2.322-12.684 4.185-19.393 4.18H90.56c-3.212-.047-6.279-.6-9.173-2.04l-.362-.175c-2.977-1.512-6.05-4.08-8.172-6.652l-.252-.28c-1.96-2.218-3.399-4.814-4.334-7.613l-.15-.409c-.456-1.32-.621-2.691-.81-4.071l-.107-.747q-.02-.977-.02-1.953l-.005-1.052c.212-9.006 4.341-18.26 8.607-26.042.288-.436.288-.436.271-.713-8.04-1.923-17.296-2.642-25.28 0M29.76 26.56l-.373.307-.267.226v.107l.457.051c2.87.352 5.405 1.334 7.33 3.576 1.846 2.421 2.507 5.096 2.173 8.113-.475 2.831-2.01 5.41-4.351 7.08a12.6 12.6 0 0 1-2.302 1.233l-.274.116a9.5 9.5 0 0 1-5.7.418l-.291-.056c-1.468-.307-2.824-1.022-3.975-1.971l-.267-.21c-1.518-1.27-2.608-3.091-3.04-5.017-4.225 4.225-5.805 15.116-5.877 20.644l.01.583c3.325 1.257 6.694 2.407 10.134 3.307l.709.188c8.054 2.079 16.96 3.09 24.464-1.178 1.978-1.192 3.876-2.756 5.333-4.557l.304-.36c1.431-1.719 2.634-3.57 3.75-5.507l.267-.458a15.5 15.5 0 0 0 1.76-5.088l.089-.552c1.394-9.687-3.155-19.797-7.873-28.005a96 96 0 0 1-.89-1.59c-.633-1.167-.633-1.167-1.353-2.28-6.75 0-15.124 6.65-19.947 10.88m47.36-10.773c-5.481 9.156-10.9 21.917-8.353 32.766 1.317 4.96 4.347 9.185 8.353 12.354l.392.326c2.137 1.77 4.399 3.236 7.075 4.047l.4.122c5.096 1.448 10.614.756 15.706-.335l.482-.102c4.205-.94 8.32-2.47 12.318-4.058 0-2.604-.466-5.256-1.066-7.787l-.146-.653c-1.024-4.473-2.789-8.606-4.868-12.68h-.32l-.153.309c-.468.915-.968 1.703-1.66 2.464l-.194.224c-1.016 1.104-2.365 1.815-3.753 2.336l-.48.187c-2.95.819-5.787.308-8.425-1.135a10 10 0 0 1-1.441-1.079l-.217-.17c-1.685-1.36-2.655-3.434-3.197-5.483l-.117-.387c-.563-2.75.1-5.515 1.61-7.826 1.511-2.083 3.525-3.32 5.974-4.054-1.749-1.776-3.941-3.118-6.08-4.373l-.5-.3c-2.663-1.566-5.456-2.798-8.353-3.86l-.652-.241c-.786-.284-1.5-.534-2.335-.612M48.085 73.285c-.358.378-.69.77-1.013 1.178q-.252.318-.514.627c-5.831 6.98-9.328 16.242-11.891 24.857l-.122.408q-.208.702-.412 1.405l-.172.591-.174.602-.162.558a9 9 0 0 0-.238 1.129c6.388 4.732 13.8 7.9 21.653 9.173l.72.119c7.433 1.169 15.262.594 22.427-1.719l.76-.24c6.079-1.961 11.605-5.087 16.52-9.146q.531-.428 1.066-.854C95.35 96.648 92.88 91.331 90.56 86.4l-.305-.653c-1.57-3.325-3.341-6.541-5.562-9.48l-.274-.37c-1.58-2.097-3.367-4.044-5.486-5.604l-.29-.223c-9.174-6.954-22.835-4.588-30.558 3.215"/><path fill="#020200" d="m101.76 16.96.62.5c.491.402.962.823 1.428 1.254.379.346.766.682 1.152 1.02a250 250 0 0 1 1.66 1.646l.88.88c3.231 3.29 6.058 7.127 8.34 11.127l.332.572c6.369 11.135 9.224 24.532 7.561 37.294l-.093.763c-1.516 11.435-6.216 22.309-13.667 31.131l-.333.396c-1.204 1.418-2.484 2.756-3.8 4.07l-.805.806c-.512.503-1.021.985-1.568 1.448l-.358.311a59 59 0 0 1-2.629 2.142l-.361.283c-9.195 7.08-20.428 11.235-31.959 12.197l-.69.06c-3.738.193-7.538.19-11.257-.273l-.93-.114c-11.287-1.5-22.333-6.124-30.982-13.601-.282-.242-.57-.474-.861-.705a45.5 45.5 0 0 1-5.733-5.634l-.347-.395-.34-.391-.34-.389c-2.84-3.344-5.23-7.012-7.293-10.878l-.245-.442C1.77 78.568.627 61.84 4.738 47.208c.794-2.64 1.702-5.228 2.835-7.741l.333-.744c3.415-7.502 8.533-14.667 14.814-20.056q.248-.226.493-.454a29 29 0 0 1 1.673-1.372q.592-.465 1.174-.94c2.729-2.187 5.742-4.018 8.82-5.661l.442-.245C41.708 6.5 49.015 4.48 56.213 3.627l.814-.097C73.014 1.92 89.37 6.697 101.76 16.96m-65.6-6.08-.597.299c-4.21 2.154-8.219 4.897-11.714 8.092q-.339.304-.682.603c-1.314 1.154-2.626 2.348-3.764 3.68-.253.29-.515.57-.776.853a35 35 0 0 0-1.56 1.833l-.292.358c-2.825 3.486-5.16 7.265-7.175 11.269l-.306.604C5.384 46.4 3.618 55.173 3.607 63.973l-.005 1.612c.081 5.327.86 10.715 2.478 15.802l.253.796a65.5 65.5 0 0 0 3.8 9.23l.275.55c1.751 3.412 3.916 6.615 6.339 9.584l.231.288q.708.873 1.465 1.705.285.316.564.64c1.154 1.323 2.36 2.64 3.697 3.781.29.251.569.512.85.772q.733.675 1.509 1.3.364.292.724.591a43 43 0 0 0 2.8 2.123l.337.238c2.577 1.806 5.28 3.361 8.09 4.775l.604.306c12.182 6.008 26.69 7.318 39.822 4.067l.873-.186c5.173-1.224 10.223-3.446 14.807-6.107l.468-.265c1.915-1.099 3.746-2.348 5.505-3.682l.357-.267a45 45 0 0 0 2.082-1.689 45 45 0 0 1 .955-.784c.419-.34.806-.696 1.178-1.087.196-.195.404-.378.613-.559a34 34 0 0 0 1.542-1.474l.55-.549q.65-.669 1.257-1.377.258-.285.52-.567c6.188-6.801 10.713-15.497 12.92-24.393l.22-.78c.255-.954.429-1.923.609-2.893q.117-.628.244-1.255c2.899-14.53-.785-30.31-8.753-42.646-1.59-2.375-3.297-4.702-5.231-6.81q-.286-.315-.563-.636c-1.322-1.513-2.714-2.97-4.233-4.287l-.6-.56a27 27 0 0 0-1.787-1.487c-.393-.305-.78-.619-1.166-.933a44 44 0 0 0-2.634-1.927l-.466-.32a59 59 0 0 0-7.214-4.16l-.503-.248C85.287 8.4 81.433 7.075 77.44 6.08l-.873-.224C72.12 4.774 67.58 4.45 63.013 4.446l-1.801-.005c-8.77.19-17.241 2.513-25.052 6.439"/><path fill="#867E71" d="m72.533 89.92.36.273a9.6 9.6 0 0 1 2.734 4.634l.112.31c.147.637.13 1.25.128 1.903l.001.778c-.098 2.57-1.31 4.771-3.148 6.522-2.19 1.927-4.89 2.683-7.76 2.54-2.195-.217-4.088-1.03-5.76-2.453l-.219-.172c-1.648-1.335-2.723-3.485-3.043-5.564-.192-1.937-.056-3.81.809-5.571l.146-.302c1.236-2.402 3.4-4.069 5.934-4.925 3.43-.938 6.955-.247 9.706 2.027m-43.36-62.327c.331.054.331.054.694.14l.456.056c2.497.325 4.818 1.548 6.386 3.542 1.668 2.291 2.302 4.78 1.944 7.594-.53 2.89-2.121 5.27-4.508 6.945-2.34 1.531-5.004 1.924-7.752 1.483a9.6 9.6 0 0 1-5.806-4c-1.556-2.676-1.556-2.676-1.28-3.78 1.55-3.18 3.875-6.209 6.272-8.81q.293-.32.578-.65c2.2-2.508 2.2-2.508 3.016-2.52M96.08 25.89l.287.25.308.266c.356.326.694.663 1.032 1.007l.614.532q1.048.942 1.961 2.014c.246.282.502.554.758.828a27 27 0 0 1 1.475 1.769q.323.417.654.828c1.087 1.359 2.039 2.796 2.964 4.27l.434.688c.313.591.313.591.206 1.165-.139.29-.139.29-.32.6l-.203.36c-1.375 2.272-3.402 3.869-5.983 4.546-2.706.638-5.398.105-7.76-1.306-2.516-1.689-4.055-4.165-4.677-7.099-.364-2.87.333-5.44 2.07-7.715 1.034-1.255 4.38-4.131 6.18-3.003"/><path fill="#857D71" d="M80.048 33.656c.914.528 1.363 1.245 1.805 2.17.223 1.116.07 2.193-.528 3.169-.566.77-1.244 1.298-2.178 1.538-1.45.117-2.389-.043-3.52-.969-.756-.72-1.078-1.68-1.114-2.704.03-1.08.452-1.966 1.22-2.727 1.32-.962 2.803-1.211 4.315-.477m21.893 18.35c.932.583 1.641 1.322 1.952 2.394.136 1.136.089 2.18-.602 3.119-.686.82-1.423 1.397-2.508 1.517-1.205.042-2.092-.104-3.009-.912-.492-.514-.773-1.036-1.027-1.697l-.107-.214c-.095-1.343.021-2.236.87-3.315 1.135-1.187 2.909-1.627 4.431-.892"/><path fill="#857E71" d="M86.933 50.027c.781.533 1.307 1.342 1.6 2.24.138 1.242-.078 2.22-.786 3.246-.841.821-1.63 1.14-2.787 1.167-1.11-.03-1.79-.3-2.588-1.063-.802-.863-1.058-1.758-1.038-2.92.119-.967.571-1.782 1.306-2.417 1.411-.995 2.768-1.015 4.293-.253"/><path fill="#080605" d="M72.533 89.187c2.172 1.758 3.56 4.137 3.947 6.92.189 2.78-.576 5.481-2.415 7.614l-.252.279-.242.273c-1.769 1.883-4.397 3.057-6.976 3.166-3.43.038-5.99-.98-8.522-3.246-2.147-2.24-2.758-4.9-2.742-7.905.034-.84.153-1.534.456-2.315l.157-.422c.417-1.035.968-1.902 1.656-2.778l.182-.241c3.571-4.447 10.417-4.62 14.751-1.345m-14.312 1.668c-1.971 2.257-2.492 4.855-2.302 7.776.295 2.399 1.744 4.598 3.581 6.102 2.34 1.749 5.011 2.436 7.912 2.097 2.74-.488 5.243-1.945 6.852-4.235a12 12 0 0 0 1.15-2.328l.099-.267c.786-2.223.492-4.814-.5-6.907a12 12 0 0 0-1.306-2l-.182-.23c-1.732-2.097-4.338-3.063-6.965-3.396-3.223-.192-6.116 1.098-8.339 3.388"/><path fill="#857D70" d="M81.914 82.447c.85.46 1.542 1.21 1.853 2.126.172 1.038.067 1.828-.51 2.705-.526.66-1.187.992-1.977 1.255-1.082.1-1.83-.079-2.693-.76-.556-.512-.989-1.29-1.066-2.05-.026-.953.188-1.623.746-2.396.991-.973 2.29-1.314 3.647-.88M50.24 32.427c.783.53 1.262 1.208 1.493 2.133.103 1.05-.106 1.886-.78 2.707a3.27 3.27 0 0 1-2.34 1.066c-.984-.021-1.744-.397-2.426-1.106-.651-.987-.723-1.824-.64-2.987.392-1.075 1.088-1.688 2.113-2.167.928-.2 1.749-.113 2.58.354M32.093 53.5c.905.535 1.43 1.086 1.854 2.06.225.94.033 1.747-.42 2.587-.498.618-1.068 1.163-1.847 1.373-1.005.102-1.827.06-2.667-.533-.306-.267-.306-.267-.533-.534l-.227-.24c-.504-.74-.631-1.55-.52-2.426.37-1.11 1.022-1.794 2.027-2.347.717-.239 1.63-.227 2.333.06"/><path fill="#857D71" d="M53.95 80.613c.77.436 1.141.96 1.517 1.734.233.934.245 1.898-.247 2.746-.481.643-1.1 1.207-1.887 1.414-1.17.098-2.06-.027-3.005-.775-.657-.626-.968-1.441-.995-2.332.017-.882.301-1.613.924-2.248 1.101-.9 2.374-1.153 3.694-.54"/><path fill="#857D70" d="M48.107 47.573c.78.541 1.26 1.203 1.493 2.134.06.994-.136 1.786-.767 2.575-.69.707-1.373.96-2.353.978-.973-.008-1.63-.303-2.32-.993-.632-.984-.735-1.717-.64-2.88.261-.949.907-1.51 1.713-2.02.934-.252 2.013-.262 2.874.206"/><path fill="#857D71" d="M66.727 73.253c.84.426 1.224.9 1.646 1.734.2.799.218 1.617-.066 2.393-.629.943-1.256 1.533-2.387 1.767-.979.085-1.74-.16-2.493-.78-.576-.543-.884-1.128-.95-1.921-.023-.895.018-1.58.563-2.313 1.034-1.053 2.283-1.408 3.687-.88"/><path fill="#0A0A09" d="M80.048 33.656c.914.528 1.363 1.245 1.805 2.17.223 1.116.07 2.193-.528 3.169-.566.77-1.244 1.298-2.178 1.538-1.45.117-2.389-.043-3.52-.969-.756-.72-1.078-1.68-1.114-2.704.03-1.08.452-1.966 1.22-2.727 1.32-.962 2.803-1.211 4.315-.477m-4.421 1.437c-.476.789-.603 1.431-.534 2.347.31 1.07.797 1.765 1.76 2.34.784.36 1.68.373 2.5.125.99-.454 1.563-1.126 1.939-2.133.268-.937.126-1.638-.343-2.486-.502-.742-1.135-1.262-2.016-1.473-1.393-.133-2.368.24-3.306 1.28"/><path fill="#040404" d="M50.687 32.08c.788.63 1.332 1.382 1.58 2.373.097 1.184-.102 2.154-.854 3.094-.784.797-1.636 1.283-2.773 1.32-1.064-.011-1.97-.429-2.783-1.105-.356-.377-.551-.803-.737-1.282l-.14-.36c-.23-1.208-.051-2.194.644-3.218 1.343-1.649 3.282-1.8 5.063-.822m-4.5.987c-.683.935-.72 1.744-.64 2.88.242.925.79 1.499 1.576 1.995.727.423 1.52.482 2.333.282.889-.32 1.52-.82 1.95-1.664.389-.848.484-1.66.16-2.553-.426-.94-1.047-1.46-1.966-1.9-1.326-.332-2.453-.02-3.413.96"/><path fill="#070504" d="M82.522 82.184c.929.61 1.505 1.363 1.818 2.443.136 1.146-.068 2.104-.713 3.053-.449.555-.947.888-1.6 1.173l-.245.116c-.841.285-1.904.203-2.705-.173-.944-.59-1.677-1.368-2.006-2.443-.23-1.088-.03-2.073.556-3.013 1.139-1.606 3.165-2.123 4.895-1.156m-4.335 1.23c-.552.82-.748 1.585-.64 2.56.237.857.59 1.466 1.28 2.026.906.507 1.716.708 2.744.464.95-.344 1.623-.934 2.056-1.85.346-.798.274-1.602.002-2.41-.415-.977-1.116-1.4-2.029-1.857-1.433-.094-2.367.02-3.413 1.066"/><path fill="#060504" d="M54.4 80.213c.825.568 1.427 1.269 1.707 2.24.157 1.2.066 2.2-.64 3.2-.658.816-1.451 1.31-2.492 1.45-1.266.045-2.207-.197-3.155-1.05-.876-1.073-1.067-2.126-.967-3.493.27-1.063.988-1.805 1.86-2.406 1.107-.624 2.589-.558 3.687.06m-3.733.64-.347.22c-.615.658-.97 1.395-1 2.3.053 1.016.396 1.784 1.133 2.494.927.62 1.786.74 2.88.64.986-.276 1.605-.991 2.134-1.834.24-.92.227-1.9-.214-2.753-.54-.84-1.157-1.322-2.133-1.6-.949-.114-1.654.012-2.453.533"/><path fill="#080808" d="M101.941 52.006c.932.583 1.641 1.322 1.952 2.394.136 1.136.089 2.18-.602 3.119-.686.82-1.423 1.397-2.508 1.517-1.205.042-2.092-.104-3.009-.912-.492-.514-.773-1.036-1.027-1.697l-.107-.214c-.095-1.343.021-2.236.87-3.315 1.135-1.187 2.909-1.627 4.431-.892m-3.488.794-.293.18c-.724.744-1.027 1.543-1.016 2.565.076.902.424 1.657 1.096 2.268.912.634 1.784.797 2.88.64.837-.237 1.435-.782 1.92-1.493.443-.864.492-1.839.23-2.775-.391-.862-1.097-1.498-1.978-1.848-1.043-.265-1.948-.121-2.839.463"/><path fill="#040403" d="M32.747 53.227c.891.654 1.57 1.454 1.813 2.56.115 1.082-.127 2.081-.76 2.973-.413.49-.908.8-1.48 1.08l-.244.121c-.788.251-1.876.241-2.643-.081-1.047-.632-1.746-1.23-2.113-2.427-.268-1.149-.153-2.056.444-3.073 1.064-1.563 3.34-2.157 4.983-1.153m-4.48 1.386c-.486.87-.725 1.654-.453 2.639.412 1.065.956 1.674 1.982 2.177.78.25 1.728.218 2.47-.13.866-.51 1.435-1.199 1.734-2.172.097-.998-.006-1.744-.588-2.566-.522-.627-1.06-.968-1.839-1.228-1.43-.13-2.375.181-3.306 1.28"/><path fill="#050504" d="M48.433 47.16c.883.644 1.466 1.357 1.7 2.44.129 1.034-.12 1.79-.613 2.687-.7.875-1.555 1.45-2.675 1.627-1.123.048-2.069-.383-2.898-1.114-.846-.944-1.035-1.795-1.01-3.037.097-.94.476-1.6 1.156-2.243 1.374-1.115 2.8-1.166 4.34-.36m-4.206.98c-.702.986-.83 1.754-.707 2.953.353.967.926 1.526 1.813 2.027.745.248 1.64.174 2.394-.007.863-.47 1.349-1.028 1.766-1.913.226-.93.136-1.727-.32-2.56-.496-.714-1.062-1.172-1.92-1.387-1.245-.102-2.118-.004-3.026.887"/><path fill="#080605" d="M67.06 72.76c.243.15.243.15.46.307l.4.286c.942.96 1.146 1.841 1.136 3.162-.081.949-.465 1.61-1.15 2.258-.912.74-1.794.99-2.946.907-1.125-.195-1.873-.801-2.56-1.707-.52-.94-.725-1.839-.444-2.894.427-1.119 1.098-1.935 2.199-2.435.928-.272 2.016-.3 2.905.116m-4.02 1.373c-.611.823-.633 1.672-.533 2.667.192.801.634 1.412 1.313 1.875.782.448 1.507.617 2.397.399.92-.305 1.56-.783 2.05-1.634.344-.721.328-1.576.132-2.342-.38-.995-.912-1.455-1.839-1.925-1.395-.348-2.506-.073-3.52.96"/><path fill="#090908" d="M86.933 50.027c.781.533 1.307 1.342 1.6 2.24.138 1.242-.078 2.22-.786 3.246-.841.821-1.63 1.14-2.787 1.167-1.11-.03-1.79-.3-2.588-1.063-.802-.863-1.058-1.758-1.038-2.92.119-.967.571-1.782 1.306-2.417 1.411-.995 2.768-1.015 4.293-.253m-4.586 1.386c-.53.91-.538 1.721-.32 2.74.392.846.97 1.485 1.83 1.867a3.75 3.75 0 0 0 2.63-.199c.793-.48 1.223-1.19 1.513-2.061.105-1.065-.044-1.822-.701-2.67-.561-.617-1.134-.913-1.946-1-1.35-.049-2.132.294-3.006 1.323"/></svg>
