<svg xmlns="http://www.w3.org/2000/svg" fill="none" viewBox="0 0 128 128"><mask id="a" width="128" height="128" x="0" y="0" maskUnits="userSpaceOnUse" style="mask-type:luminance"><path fill="#fff" d="M109.511.785H18.489C8.714.785.79 8.71.79 18.485v91.02c0 9.775 7.924 17.699 17.699 17.699h91.022c9.775 0 17.699-7.924 17.699-17.699v-91.02c0-9.776-7.924-17.7-17.699-17.7"/></mask><path fill="#7ec7e8" d="M127.21.785H.793v126.419H127.21z" mask="url(#a)"/><path fill="#fff" d="M116.515 81.517a5 5 0 0 0-.441.022 7.02 7.02 0 0 0-9.474-7.137 7.02 7.02 0 0 0-3.448 2.801 7.02 7.02 0 0 0-6.933 3.619 7 7 0 0 0-.82 2.621 5.135 5.135 0 0 0-5.419 5.002 5.14 5.14 0 0 0 5.163 5.265c.965 0 1.86-.27 2.632-.731 1.34.998 3.198 1.558 5.214 1.425 2.115-.14 3.959-1.015 5.154-2.276a5.12 5.12 0 0 0 6.057 1.01 5.1 5.1 0 0 0 1.678-1.389 5.139 5.139 0 0 0 4.404-8.624 5.15 5.15 0 0 0-3.767-1.608" opacity=".33"/><path fill="#fff" d="M75.914 33.198a3.524 3.524 0 0 0-4.217-3.455 4.82 4.82 0 0 0-4.03-2.341 4.836 4.836 0 0 0-8.93.014 4.836 4.836 0 0 0-4.408 4.26 4.83 4.83 0 0 0-2.244 4.077 4.836 4.836 0 0 0 4.835 4.834 4.9 4.9 0 0 0 1.653-.295 3.51 3.51 0 0 0 4.243.41 4.82 4.82 0 0 0 6.328-.752 3.524 3.524 0 0 0 4.9-3.642 3.53 3.53 0 0 0 1.87-3.11" opacity=".46"/><path fill="#3c3c3c" d="M36.978 66.072C22.288 68.674.79 60.652.79 60.652V.785h42.964C55.75 17.941 57.34 23.596 58.929 30.461c5.782 26.232-14.524 33.874-21.951 35.61" mask="url(#a)"/><path fill="#eff2e1" d="M127.205.789v58.243S104.511 69.48 87.193 63.16c-6.131-2.781-23.387-13.653-15.17-37.545 3.034-8.154 8.154-20.96 12.389-24.827z" mask="url(#a)"/><path fill="#000004" d="M127.207 59.032v2.718s-12.562 4.172-20.4 4.842c-2.35.192-4.521.284-6.534.284-19.407 0-23.843-8.533-28.882-16.4C59.567 33.372 81.538 1.106 81.756.79V.785L84.41.79c-4.235 3.866-9.355 16.673-12.387 24.827-8.217 23.893 9.039 34.764 15.17 37.545 17.318 6.32 40.014-4.13 40.014-4.13"/><path fill="#000100" d="M44.909 65.666c-1.8.71-3.78 1.528-6.398 2.103-4.175.921-9.978 1.226-19.265-.51-5.032-.942-11.084-2.481-18.456-4.846v-1.761s21.5 8.022 36.188 5.42c7.427-1.737 27.733-9.38 21.95-35.611C57.34 23.596 55.75 17.94 43.753.785h3.323S83.07 49.91 44.91 65.665"/><path fill="#9e6d4c" d="M108.599 127.202H26.39c9.23-61.152 34.09-60.122 39.82-60.61 33.463-1.892 42.389 60.61 42.389 60.61"/><path fill="#060000" d="M111.023 127.2h-2.424s-8.928-62.5-42.39-60.608c-5.73.488-30.592-.542-39.82 60.608h-2.76s6.16-53.194 34.96-61.097a27.3 27.3 0 0 1 5.413-.911c3.535-.176 7.866-.522 12.61.911 10.85 3.276 23.855 15.863 34.411 61.097"/><path fill="#000004" d="M15.23 21.09s-6.32 4.003-6.194 10.766c.126 6.764 4.045 15.232 16.371 12.957 10.555-2.023 12.077-15.515 7.206-21.365-8.26-9.916-17.383-2.358-17.383-2.358"/><path fill="#877f72" d="M16.194 22.577s-5.44 3.445-5.331 9.267 3.483 13.11 14.09 11.151c9.087-1.74 10.394-13.353 6.202-18.387-7.108-8.535-14.96-2.031-14.96-2.031"/><path fill="#000004" d="M43.05 24.437s-2.243 1.42-2.197 3.821c.044 2.399 1.434 5.404 5.808 4.598 3.746-.718 4.286-5.507 2.557-7.582-2.931-3.519-6.167-.837-6.167-.837"/><path fill="#877f72" d="M43.63 25.335s-1.71 1.084-1.674 2.915c.031 1.83 1.093 4.124 4.43 3.508 2.86-.548 3.272-4.202 1.952-5.785-2.236-2.686-4.707-.639-4.707-.639"/><path fill="#000004" d="M41.03 42.641s-2.244 1.42-2.199 3.82 1.435 5.404 5.81 4.598c3.745-.719 4.285-5.507 2.556-7.582-2.931-3.517-6.168-.836-6.168-.836"/><path fill="#877f72" d="M41.613 43.539s-1.712 1.084-1.677 2.914c.033 1.831 1.095 4.124 4.433 3.508 2.858-.547 3.27-4.2 1.951-5.784-2.237-2.686-4.709-.64-4.709-.64z"/><path fill="#000004" d="M21.17 51.042s-2.243 1.42-2.196 3.821c.044 2.399 1.435 5.404 5.807 4.597 3.746-.718 4.286-5.506 2.557-7.58-2.93-3.52-6.167-.838-6.167-.838"/><path fill="#877f72" d="M21.755 51.94s-1.711 1.084-1.678 2.915c.035 1.83 1.097 4.125 4.433 3.508 2.86-.548 3.27-4.202 1.951-5.785-2.236-2.686-4.707-.638-4.707-.638"/><path fill="#000004" d="M116.605 22.609s-4.005-6.321-10.766-6.195c-6.764.126-15.234 4.045-12.958 16.371 2.022 10.555 15.514 12.077 21.365 7.206 9.916-8.26 2.359-17.382 2.359-17.382"/><path fill="#877f72" d="M115.118 23.573s-3.445-5.441-9.267-5.332-13.111 3.483-11.153 14.09c1.741 9.086 13.355 10.394 18.388 6.202 8.536-7.108 2.032-14.96 2.032-14.96"/><path fill="#000004" d="M113.253 50.434s-1.422-2.244-3.821-2.2-5.404 1.436-4.598 5.81c.719 3.746 5.507 4.285 7.582 2.556 3.519-2.93.837-6.166.837-6.166"/><path fill="#877f72" d="M112.356 51.015s-1.083-1.713-2.914-1.678-4.125 1.095-3.509 4.432c.547 2.86 4.201 3.272 5.784 1.952 2.687-2.236.64-4.707.64-4.707"/><path fill="#000004" d="M95.049 48.41s-1.42-2.245-3.82-2.197c-2.402.042-5.406 1.433-4.598 5.807.719 3.745 5.505 4.286 7.582 2.557 3.517-2.931.836-6.168.836-6.168"/><path fill="#877f72" d="M94.151 48.99s-1.082-1.71-2.914-1.676c-1.83.033-4.124 1.095-3.508 4.433.548 2.857 4.202 3.27 5.784 1.95 2.686-2.236.638-4.706.638-4.706"/><path fill="#000004" d="M86.648 28.555s-1.42-2.244-3.82-2.2-5.405 1.437-4.6 5.81c.72 3.745 5.508 4.285 7.583 2.556 3.519-2.93.837-6.166.837-6.166"/><path fill="#877f72" d="M85.752 29.137s-1.085-1.712-2.915-1.679c-1.832.035-4.125 1.097-3.509 4.433.547 2.859 4.2 3.271 5.784 1.952 2.687-2.237.64-4.706.64-4.706"/><path fill="#000004" d="M62.597 116.559s6.946 2.777 12.353-1.288c5.406-4.064 9.976-12.203.91-20.86-7.823-7.368-19.649-.695-21.534 6.679-3.199 12.503 8.27 15.469 8.27 15.469"/><path fill="#877f72" d="M63.237 114.906s5.978 2.391 10.632-1.108c4.655-3.498 8.587-10.504.785-17.953-6.733-6.343-16.913-.6-18.536 5.746-2.753 10.761 7.119 13.315 7.119 13.315"/><path fill="#000004" d="M49.008 92.048s2.465.984 4.384-.459c1.918-1.44 3.54-4.33.322-7.4-2.775-2.615-6.972-.248-7.64 2.369-1.135 4.436 2.934 5.49 2.934 5.49"/><path fill="#877f72" d="M49.395 91.05s1.88.753 3.346-.347c1.463-1.101 2.702-3.306.246-5.65-2.117-1.995-5.32-.189-5.83 1.808-.867 3.385 2.238 4.19 2.238 4.19"/><path fill="#000004" d="M64.947 83.021s2.465.986 4.383-.456c1.919-1.443 3.54-4.33.323-7.4-2.775-2.616-6.973-.249-7.64 2.368-1.136 4.436 2.934 5.488 2.934 5.488"/><path fill="#877f72" d="M65.334 82.024s1.88.752 3.345-.347c1.463-1.1 2.702-3.305.247-5.648-2.118-1.996-5.321-.19-5.832 1.808-.866 3.385 2.24 4.187 2.24 4.187"/><path fill="#000004" d="M83.385 94.192s2.465.985 4.383-.458c1.919-1.441 3.54-4.33.323-7.4-2.775-2.616-6.972-.249-7.64 2.368-1.135 4.436 2.934 5.49 2.934 5.49"/><path fill="#877f72" d="M83.772 93.195s1.88.752 3.345-.348c1.464-1.101 2.703-3.305.247-5.649-2.118-1.996-5.32-.19-5.831 1.808-.866 3.385 2.24 4.19 2.24 4.19"/><path fill="#fff" d="M20.387 76.113q-.08 0-.158.01.007-.102.01-.206a2.523 2.523 0 0 0-4.655-1.355 2.527 2.527 0 0 0-2.787 2.244l-.092-.003a1.848 1.848 0 1 0 .945 3.43c.482.36 1.15.562 1.876.513.758-.05 1.422-.364 1.852-.817a1.84 1.84 0 0 0 2.781-.138q.114.016.23.016a1.847 1.847 0 1 0 0-3.694" opacity=".33"/><path stroke="#000" stroke-width="1.77" d="M109.51 1.666H18.489C9.2 1.666 1.67 9.196 1.67 18.484v91.019c0 9.289 7.53 16.819 16.819 16.819h91.021c9.288 0 16.818-7.53 16.818-16.819V18.484c0-9.288-7.53-16.818-16.818-16.818Z"/></svg>
