<svg xmlns="http://www.w3.org/2000/svg" viewBox="0 0 128 128"><path fill-rule="evenodd" d="m29.938 89.845 46.69-66.694a13.04 13.04 0 0 1 8.437-5.377 13.08 13.08 0 0 1 15.153 10.613 13.07 13.07 0 0 1-2.169 9.77l-46.69 66.694a13.05 13.05 0 0 1-8.436 5.377 13.08 13.08 0 0 1-9.773-2.167 13.07 13.07 0 0 1-3.212-18.216m74.416-83.492a29.7 29.7 0 0 1 12.196 19.154 29.66 29.66 0 0 1-4.912 22.156l-46.69 66.694a29.6 29.6 0 0 1-8.35 7.998 29.67 29.67 0 0 1-22.359 3.944 29.7 29.7 0 0 1-10.593-4.656 29.7 29.7 0 0 1-12.195-19.154 29.66 29.66 0 0 1 4.911-22.157l46.69-66.694a29.6 29.6 0 0 1 8.352-7.995 29.7 29.7 0 0 1 22.358-3.94 29.6 29.6 0 0 1 10.592 4.65"/></svg>
