<svg xmlns="http://www.w3.org/2000/svg" fill="none" viewBox="0 0 128 128"><circle cx="64" cy="64" r="60" fill="#000"/><path fill="#6C82CF" d="M57.082.666c18.796-2.17 38.227 4.633 51.641 17.97 9.434 9.242 15.834 21.466 18.055 34.484 3.462 19.226-2.586 39.66-15.853 53.971-8.691 9.479-20.288 16.231-32.839 19.034a62.66 62.66 0 0 1-28.185 0c-13.14-2.944-25.235-10.208-34.035-20.397C7.61 96.256 2.285 84.301.774 71.821c-2.668-20.314 5.223-41.389 20.468-55.047C31.123 7.802 43.808 2.106 57.082.666m1.932 6.483C47.11 8.16 35.642 13.043 26.618 20.87 13.19 32.41 5.76 50.19 7.053 67.86c.761 11.532 5.12 22.745 12.352 31.756 6.272 7.859 14.63 13.997 24.013 17.613 9.561 3.699 20.096 4.793 30.201 3.021 11.866-1.997 23.027-7.879 31.367-16.544 7.98-8.167 13.382-18.842 15.276-30.093 1.703-9.78.736-19.962-2.675-29.274-3.616-9.9-10.035-18.713-18.33-25.216C87.982 10.221 73.326 5.824 59.015 7.15"/><path fill="#0FF" d="M84.051 26.362C72.454 38.227 60.845 50.214 49.3 62.138c-.339.384-.755.544-1.26.467-9.434-.647-18.868-1.434-28.301-2.144C30.509 50.253 41.345 39.789 52.18 29.69c10.528-1.287 21.3-2.221 31.872-3.328"/><path fill="#39446D" d="M84.051 26.362c7.667 13.446 15.495 27.059 23.2 40.512.583.73-.345 1.344-.697 1.92-9.607 11.801-19.124 23.667-28.717 35.468-9.575-2.406-19.104-5.01-28.672-7.456-1.171-.377-2.291-.358-2.995-1.523-8.775-11.635-17.664-23.18-26.432-34.822 9.433.71 18.867 1.497 28.3 2.144.506.077.922-.083 1.261-.467 11.546-11.924 23.155-23.91 34.752-35.776"/></svg>
