<svg xmlns="http://www.w3.org/2000/svg" viewBox="0 0 192 128"><circle cx="64" cy="64" r="64" fill="#8357C6"/><path fill="#C1E4FD" d="M64.375 123.75c32.792 0 59.375-26.583 59.375-59.375S97.167 5 64.375 5 5 31.583 5 64.375s26.583 59.375 59.375 59.375"/><path fill="#DCCCFC" d="M64 109c24.853 0 45-20.147 45-45S88.853 19 64 19 19 39.147 19 64s20.147 45 45 45"/><path fill="#C0FDF0" d="m66.075 4.26.243.02c2.36.19 2.36.19 3.4.342l.173.026c2.112.311 4.207.684 6.29 1.16l.152.034c6.02 1.38 11.887 3.748 23.929 11.41l.434.333a52 52 0 0 1 2.186 1.786l.355.301q.725.618 1.417 1.273c.218.206.437.41.665.605a12 12 0 0 1 1.238 1.263q.206.236.416.467c.324.36.639.729.953 1.098q.21.247.422.49c.454.524.881 1.063 1.298 1.616q.294.39.596.775c.681.87 1.334 1.758 1.939 2.683q.204.306.416.606c1.031 1.492 1.951 3.061 2.819 4.653l.299.546c.411.749.81 1.5 1.181 2.27l.079.161c.29.598.567 1.194.796 1.818q.15.378.317.748c.369.832.702 1.677 1.027 2.528l.326.853q.147.39.282.78l.053.152c.065.238.041.394-.031.628a5 5 0 0 1-.43.58l-.268.334-.139.172q-.317.398-.627.801l-.121.157q-.472.61-.939 1.225-.396.52-.801 1.033-.367.47-.727.945-.651.855-1.313 1.704l-.641.827-.23.297-.112.144-.235.303a142 142 0 0 0-1.043 1.36l-.116.153a231 231 0 0 1-1.652 2.141l-.125.164-.106.11c-.385.433-.368.845-.36 1.406l-.001.281q-.002.3.001.596c.003.466-.002.931-.006 1.397l-.003.307a31 31 0 0 1-.22 3.502l-.02.165q-.072.602-.154 1.204l-.021.162-.063.45-.037.26c-.052.2-.052.2-.261.339l-.002-.194-.032-2.765c-.016-2.464-.016-2.464-.2-4.92l-.028-.246c-.116-1.025-.235-2.05-.451-3.059q-.061-.3-.114-.6a68 68 0 0 0-.276-1.419l-.051-.258q-.15-.737-.377-1.454a14 14 0 0 1-.171-.598 37 37 0 0 0-1.911-5.472l-.107-.244a47 47 0 0 0-2.498-4.955 44.2 44.2 0 0 0-5.907-7.935l-.307-.336c-.636-.7-1.285-1.401-2.008-2.014-.17-.148-.333-.302-.497-.457-.383-.361-.771-.71-1.182-1.04a32 32 0 0 1-.473-.39 39 39 0 0 0-3.349-2.498l-.177-.12a46 46 0 0 0-4.687-2.739l-.289-.148a37 37 0 0 0-3.736-1.666 10 10 0 0 1-.646-.273c-.397-.18-.81-.314-1.223-.45l-.409-.138c-.473-.158-.946-.3-1.43-.416a13 13 0 0 1-.656-.184c-1.776-.536-3.606-.903-5.437-1.186l-.165-.026a34 34 0 0 0-1.886-.216 32 32 0 0 1-.699-.074c-1.18-.132-2.36-.121-3.546-.116h-.665c-2.159-.014-2.159-.014-4.305.186q-.384.05-.772.082c-2.241.193-4.49.666-6.653 1.28l-.152.042q-.516.148-1.03.306l-.217.066-.725.221-.233.071c-.401.124-.795.256-1.187.409l-.269.102c-3.73 1.437-7.347 3.255-10.566 5.648l-.418.306q-1.305.948-2.529 2.002-.174.15-.35.298c-.962.816-1.86 1.689-2.752 2.58l-.124.125a22 22 0 0 0-1.265 1.348l-.304.336c-.329.366-.64.744-.947 1.128l-.195.242a45 45 0 0 0-3.07 4.29l-.145.23c-1.76 2.835-3.323 5.87-4.335 9.062q-.113.351-.242.7c-.153.417-.286.84-.416 1.267l-.073.24a38 38 0 0 0-.557 2.026l-.043.18a39 39 0 0 0-.552 2.776q-.039.238-.084.475c-.133.73-.218 1.466-.302 2.203l-.018.159c-.607 5.322-.344 10.987 1.1 16.163q.067.253.131.508c.968 3.818 2.462 7.551 4.453 10.952l.328.568a42 42 0 0 0 5.268 7.2q.251.28.495.566a12 12 0 0 0 .414.444l.279.29c.156.211.16.277.135.531-.177.442-.479.815-.782 1.177l-.12.146-.24.289a51 51 0 0 1-1.26 1.512q-.316.369-.62.75c-.303.373-.626.725-.954 1.076q-.286.31-.56.63-.215.245-.432.485-.277.307-.547.62-.362.412-.736.815-.26.283-.51.574c-.285.33-.585.646-.884.963a10 10 0 0 0-.623.723c-.272-.112-.467-.297-.678-.496l-.111-.105a16 16 0 0 1-1.238-1.273 22 22 0 0 0-.418-.469 56 56 0 0 1-1.06-1.225l-.32-.372a38 38 0 0 1-1.387-1.707l-.127-.165c-2.212-2.883-4.206-5.909-5.918-9.117l-.138-.258A55 55 0 0 1 9.52 87.65q-.195-.447-.401-.89c-1.278-2.763-2.265-5.806-2.971-8.766a21 21 0 0 0-.214-.81c-.183-.683-.31-1.377-.444-2.07l-.194-.99-.033-.167-.031-.157-.027-.135a13 13 0 0 0-.102-.425 10 10 0 0 1-.174-.877l-.027-.164a52 52 0 0 1-.253-1.817l-.023-.18a58 58 0 0 1-.273-2.722l-.012-.161q-.055-.704-.093-1.409l-.009-.17-.016-.324a5 5 0 0 0-.062-.631c-.194-1.194.029-2.488.135-3.687l.042-.482c.134-1.532.301-3.052.558-4.57q.081-.483.14-.97c.139-1.114.41-2.21.654-3.304l.11-.506.038-.17.07-.322c.08-.362.18-.712.293-1.064q.09-.294.17-.591a56 56 0 0 1 2.273-6.781l.097-.24a73 73 0 0 1 1.328-3.021l.277-.607.41-.9c.194-.42.398-.821.643-1.213.132-.218.242-.446.354-.675.158-.32.33-.632.504-.943l.083-.15a59 59 0 0 1 2.766-4.451l.132-.196a55 55 0 0 1 1.97-2.715q.162-.21.323-.423a43 43 0 0 1 2.366-2.853q.195-.216.385-.437.355-.405.716-.805.2-.225.396-.454c.393-.452.82-.869 1.275-1.26q.261-.23.518-.47c.314-.287.638-.558.97-.826.192-.16.375-.328.559-.498.357-.33.73-.629 1.114-.927q.316-.245.626-.5c2.518-2.045 5.306-3.966 8.174-5.484l.903-.488.138-.074c.592-.318 1.186-.63 1.79-.926.19-.095.375-.191.556-.303.19-.11.357-.136.573-.161v-.14c.383-.178.764-.35 1.162-.493.204-.082.4-.178.597-.273 3.022-1.439 6.262-2.454 9.497-3.277l.264-.067a69 69 0 0 1 2.055-.486l.164-.037a70 70 0 0 1 2.937-.595l.27-.049a45 45 0 0 1 2.687-.37l.237-.027a80 80 0 0 1 3.237-.312l.17-.013c1.415-.106 2.795-.055 4.208.06"/><path fill="#FEFBE3" d="M18.745 71.645c.242 1.514.495 3.023.907 4.501q.068.255.132.508c.968 3.819 2.462 7.552 4.453 10.952q.165.284.327.569a42 42 0 0 0 5.269 7.2q.251.28.496.566.155.175.316.343l.097.102q.138.146.28.29c.155.21.159.276.134.53-.177.442-.479.815-.782 1.177l-.12.145-.24.29q-.214.26-.426.523-.41.5-.833.989a29 29 0 0 0-.621.749c-.303.374-.627.725-.954 1.077q-.286.31-.561.63-.213.245-.43.485-.277.307-.549.619-.361.412-.735.816-.26.283-.51.574c-.285.33-.585.646-.883.963a10 10 0 0 0-.625.723c-.27-.113-.466-.297-.677-.496l-.112-.105a17 17 0 0 1-1.238-1.273 25 25 0 0 0-.418-.47 58 58 0 0 1-1.06-1.224q-.159-.187-.32-.372a38 38 0 0 1-1.386-1.707l-.126-.165c-2.212-2.883-4.208-5.91-5.92-9.118l-.137-.258a55 55 0 0 1-1.973-4.126q-.196-.451-.403-.896a27 27 0 0 1-.504-1.157l-.076-.181c-.172-.422-.172-.422-.17-.673.092-.213.215-.373.36-.555l.189-.24.104-.13q.3-.382.597-.766l.25-.326q.294-.376.583-.755 1.079-1.407 2.176-2.8 1.003-1.278 1.993-2.569 1.082-1.41 2.18-2.805.523-.664 1.038-1.334l.088-.114q.294-.385.575-.78l.08-.09h.139zm51.28-66.438c.277-.472.515-.496 1.042-.402q.153.03.304.063c.2.043.4.074.602.106q.4.067.797.14l.176.032c4.263.777 8.465 1.93 12.476 3.59l.237.097a72 72 0 0 1 3.467 1.545c1.01.477 2.003.976 2.977 1.524q.315.176.631.35a47 47 0 0 1 2.071 1.203l.17.104.155.097.133.084.094.085c0 .241-.034.278-.178.46-.059.074-.06.074-.119.15l-.129.162-.27.341-.14.177q-.314.399-.623.8l-.243.314-.491.636q-.567.736-1.147 1.461-.492.617-.968 1.247-.594.78-1.197 1.553l-.372.48q-.565.736-1.145 1.46a62 62 0 0 0-.996 1.28c-.168.22-.333.44-.488.67l-.144.211-.12.184c-.124.126-.124.126-.277.165-.29-.058-.518-.202-.772-.352l-.34-.195-.172-.098c-.36-.203-.731-.385-1.102-.566l-.591-.292a41 41 0 0 0-3.125-1.383l-.543-.218a33 33 0 0 0-1.775-.647l-.204-.07c-.41-.136-.821-.25-1.24-.352q-.335-.085-.665-.187c-1.777-.535-3.606-.904-5.437-1.187l-.164-.025a34 34 0 0 0-1.886-.216 32 32 0 0 1-.7-.074c-1.18-.132-2.36-.122-3.545-.116h-.665c-1.179 0-2.356.01-3.533.083l-.167.01a80 80 0 0 0-.875.06l.079-.104.53-.713q.585-.792 1.208-1.553c.3-.368.585-.744.867-1.125.317-.428.645-.848.974-1.266l.477-.607.566-.723q.964-1.227 1.914-2.467.393-.514.793-1.023.398-.507.792-1.016.44-.57.885-1.138.395-.503.782-1.01c.826-1.08.827-1.08 1.135-1.461.121-.155.12-.155.214-.338"/><path fill="#BFD6FE" d="M31.156 96.927a24 24 0 0 1 1.05.95l.315.297.155.148c.527.499 1.055.99 1.621 1.445q.259.212.512.432c.546.471 1.117.903 1.697 1.33l.151.111a50 50 0 0 0 2.508 1.735c3.31 2.159 7.008 3.992 10.82 5.056a4.8 4.8 0 0 1-.594.875l-.186.219-.096.114q-.242.293-.474.596l-.097.123-.29.373-.373.48-.094.12q-.375.475-.757.942-.465.573-.904 1.169c-.235.311-.483.613-.73.915a32 32 0 0 0-.685.871 45 45 0 0 1-.93 1.174q-.345.422-.677.854-.324.415-.656.825-.371.466-.725.946a49 49 0 0 1-3.04-1.342l-.171-.081a62 62 0 0 1-2.525-1.261l-.154-.082-.627-.335a43 43 0 0 1-.717-.397 59 59 0 0 1-4.439-2.776l-.195-.133a55 55 0 0 1-2.705-1.976q-.21-.163-.422-.325a48 48 0 0 1-2.248-1.849l-.514-.441q-.575-.493-1.142-.993c.148-.272.316-.47.539-.684.248-.244.483-.492.709-.757q.291-.33.593-.65c.278-.299.552-.598.818-.907q.23-.264.468-.523.36-.395.71-.8.212-.24.427-.476c.275-.305.534-.62.79-.939q.23-.275.47-.538c.269-.297.522-.602.773-.914q.216-.264.439-.522c.97-1.097.97-1.097 1.602-2.399"/><path fill="#FEFBE4" d="M49.916 108.5c.378.065.742.15 1.107.266 2.177.689 4.443 1.126 6.707 1.386q.352.044.702.095c1.44.192 2.886.251 4.337.275l.172.003q1.007.017 2.007-.007l.18-.006c.281-.005.563-.019.844-.03l.174-.006.004-.001q.303-.015.606-.034a39 39 0 0 0 1.397-.125l.501-.05.828-.081q.257-.016.514-.012l-.203.309c-.209.305-.433.594-.67.88q-.263.321-.513.65l-.088.116-.176.232-.416.546-.086.11q-.375.489-.753.974-.486.625-.964 1.255-.452.596-.914 1.182-.425.544-.842 1.095-.476.624-.959 1.244-.482.62-.956 1.249a35 35 0 0 1-.594.76q-.202.253-.396.51-.196.257-.388.518-.414.556-.846 1.099a8 8 0 0 0-.38.518h-.006l-.064.09-.677-.066c-.457-.02-.918-.091-1.36-.146l-.31-.038c-2.28-.282-2.454-.304-2.724-.434l-.242-.061-.432-.069a23 23 0 0 1-2.55-.533 30 30 0 0 0-1.417-.335 28 28 0 0 1-2.3-.641l-.465-.145a78 78 0 0 1-2.248-.738l-.188-.064a49 49 0 0 1-2.313-.847l-.215-.085c-.466-.192-.466-.192-.624-.35.33-.435.66-.868 1.008-1.29q.337-.413.66-.837.313-.413.642-.815c.28-.339.549-.684.817-1.032q.472-.614.964-1.212.243-.302.477-.614.4-.522.817-1.033.494-.606.966-1.231c.204-.265.416-.523.627-.782a31 31 0 0 0 1.221-1.612m62.117-78.64c.262.247.468.506.664.81l.089.138.289.446.098.153a62 62 0 0 1 2.243 3.794l.299.546c.411.749.81 1.5 1.181 2.27l.079.16c.29.6.567 1.194.796 1.82q.15.377.317.747c.369.833.702 1.677 1.027 2.528l.069.18.198.518.059.155q.147.388.283.78l.052.152c.065.238.041.394-.031.628a5 5 0 0 1-.43.58l-.268.335-.139.17q-.317.399-.627.802l-.121.156q-.472.61-.939 1.226-.396.52-.801 1.033a86 86 0 0 0-.727.945q-.651.854-1.313 1.704l-.641.827-.23.297-.112.144-.235.303q-.404.521-.804 1.047l-.238.312-.117.155a216 216 0 0 1-1.652 2.14l-.125.164-.106.109c-.385.433-.368.845-.359 1.406l-.002.282q-.002.298.001.596c.003.465-.002.931-.006 1.397l-.002.307a31 31 0 0 1-.221 3.502l-.02.164q-.073.603-.153 1.204l-.022.163-.063.45-.037.26c-.052.2-.052.2-.261.34l-.002-.194-.021-1.827-.011-.939c-.016-2.464-.016-2.464-.2-4.919l-.028-.248c-.116-1.025-.235-2.049-.45-3.059q-.062-.298-.115-.6-.13-.71-.276-1.418l-.051-.259q-.15-.736-.377-1.453a14 14 0 0 1-.171-.598 37 37 0 0 0-1.911-5.472l-.107-.244c-.742-1.701-1.503-3.435-2.533-4.985-.029-.162-.029-.162 0-.348q.15-.212.325-.4l.213-.243.112-.129c.194-.229.373-.47.553-.71.351-.467.715-.92 1.088-1.37q.445-.541.866-1.1a32 32 0 0 1 .63-.789q.407-.499.799-1.011.39-.513.799-1.011.41-.5.803-1.015.368-.482.747-.954.453-.566.89-1.146.48-.633.992-1.24c.177-.214.337-.435.494-.665"/><path fill="#BED1FE" d="m58.81 110.313.128.012a67 67 0 0 0 3.523.206l.499.018 1.2.043-.085.113-.112.15-.11.147-.302.407q-.583.789-1.203 1.548a36 36 0 0 0-.798 1.02q-.53.7-1.08 1.382-.44.552-.871 1.108l-.477.609-.191.244-.478.61-.191.244-.47.6q-.471.6-.938 1.204c-.38.491-.761.982-1.153 1.464a9 9 0 0 0-.478.641l-.09.128-.233.35c-.243.207-.379.203-.69.185a12 12 0 0 1-1.042-.18l-.231-.048a23 23 0 0 1-1.473-.359 22 22 0 0 0-1.131-.273l-.195-.044-.43-.095.117-.046c.215-.127.338-.288.495-.482l.093-.114q.316-.392.622-.79.246-.32.496-.638l.587-.751q.567-.725 1.15-1.44.43-.534.844-1.083c.248-.323.507-.638.764-.955q.348-.425.682-.86.293-.379.589-.754l.487-.624q.517-.663 1.046-1.315c.715-.73.715-.73 1.13-1.582"/><path fill="#8459C6" d="M63.549 19.529q.333 0 .665-.002c1.185-.005 2.36-.004 3.538.136q.234.027.467.049c2.654.26 5.297.745 7.852 1.52q.32.094.642.184a34 34 0 0 1 4.223 1.505c1.541.657 3.047 1.349 4.511 2.166q.255.142.51.28c.769.42 1.51.878 2.243 1.355l.22.143c2.15 1.42 4.18 3.01 6.061 4.773q.165.154.332.306c.724.661 1.45 1.337 2.082 2.089q.221.253.453.496c.36.385.708.774 1.037 1.186q.192.24.388.474a38 38 0 0 1 1.726 2.246l.123.173c.592.83 1.154 1.675 1.683 2.546l.108.178c2.131 3.523 3.846 7.309 4.91 11.296q.12.44.259.875c.151.488.257.98.355 1.48l.054.27.105.522.111.55c.284 1.393.505 2.794.638 4.21l.016.165c.118 1.345.125 2.694.123 4.044v.72c.002 1.6-.043 3.18-.226 4.77l-.022.198a38 38 0 0 1-.578 3.494q-.133.637-.245 1.277c-.076.384-.177.76-.282 1.136q-.08.282-.156.566-.186.669-.376 1.338l-.055.195a21 21 0 0 1-.703 2.088q-.169.424-.327.852a43 43 0 0 1-4.543 8.856l-.091.136a43 43 0 0 1-3.077 4.072q-.149.174-.294.35c-.835.992-1.734 1.918-2.648 2.837l-.124.124c-.434.438-.87.866-1.34 1.266l-.334.304c-.364.33-.742.642-1.124.951l-.241.196a44 44 0 0 1-4.623 3.289l-.166.103a47 47 0 0 1-3.12 1.761 44 44 0 0 1-3.87 1.762l-.205.083q-.419.171-.847.326-.396.143-.787.296c-1.292.498-2.636.833-3.974 1.185q-.316.084-.633.175a11 11 0 0 1-1.085.231l-.406.071-.205.037q-.271.05-.542.106c-2.89.594-5.852.748-8.796.7l-.48-.007c-1.776-.028-3.574-.127-5.327-.437a18 18 0 0 0-.724-.109c-3.581-.51-7.133-1.57-10.453-3.006l-.172-.074a36 36 0 0 1-1.268-.572c-3.578-1.671-6.963-3.775-9.96-6.36q-.282-.24-.572-.471c-.477-.39-.918-.816-1.363-1.24l-.565-.53c-.526-.49-1.044-.98-1.513-1.528a23 23 0 0 0-.5-.543 20 20 0 0 1-1.097-1.251 17 17 0 0 0-.414-.494 30 30 0 0 1-1.416-1.821l-.356-.482c-2.293-3.11-4.061-6.58-5.488-10.162l-.138-.343c-.834-2.077-1.415-4.261-1.89-6.446a25 25 0 0 0-.109-.466c-.34-1.428-.557-2.915-.693-4.376l-.018-.182c-.413-4.391-.332-9.003.61-13.325q.048-.232.09-.466c.3-1.632.723-3.257 1.275-4.82q.1-.303.191-.609c.832-2.733 2.08-5.425 3.516-7.889q.14-.243.275-.49c1.104-1.994 2.454-3.879 3.9-5.635q.198-.244.392-.492c.235-.296.483-.576.737-.855q.195-.216.383-.435c.61-.7 1.248-1.368 1.904-2.024l.4-.401c.416-.418.832-.829 1.283-1.21l.24-.21a44 44 0 0 1 3.14-2.529q.237-.172.471-.347a36 36 0 0 1 2.472-1.654l.144-.09q.446-.274.898-.537l.162-.096c2.115-1.244 4.357-2.39 6.688-3.168.2-.07.392-.15.587-.235.29-.12.587-.215.884-.314l.219-.073a46 46 0 0 1 3.967-1.134l.174-.041a44 44 0 0 1 5.237-.887l.148-.017c1.575-.18 3.156-.183 4.739-.183m-4.264 1.241-.467.052q-.9.1-1.789.279-.292.056-.586.083c-.27.03-.501.094-.76.17q-.165.033-.33.061c-.848.15-1.693.323-2.519.567a19 19 0 0 1-.843.226q-.61.154-1.215.327l-.184.05q-.547.157-1.071.379a5 5 0 0 1-.513.168c-.279.08-.534.185-.797.307-.2.09-.404.168-.61.246q-.55.21-1.093.441l-.406.169c-.567.233-1.123.488-1.675.754l-.157.076c-.967.469-1.9.99-2.831 1.528l-.255.146-.579.342-.196.116c-1.556.939-3.046 2.018-4.459 3.16l-.196.158a48 48 0 0 0-2.236 1.934l-.115.106c-1.18 1.084-1.18 1.084-2.264 2.261q-.194.224-.396.44c-.39.422-.756.858-1.116 1.306l-.139.167a36 36 0 0 0-2.276 3.05l-.256.38c-.877 1.297-1.748 2.643-2.43 4.057q-.122.25-.255.494a33 33 0 0 0-1.058 2.157l-.062.137a19 19 0 0 0-.672 1.68 6 6 0 0 1-.215.523c-.214.466-.36.96-.519 1.447l-.097.297-.194.59-.19.57c-.17.503-.327 1.007-.457 1.523l-.052.204-.16.641-.055.217c-.246.976-.45 1.952-.61 2.946q-.043.261-.089.521-.167.974-.272 1.955l-.051.437q-.046.395-.087.79l-.037.355c-.363 3.403-.11 6.894.478 10.256q.043.25.08.503c.354 2.24.964 4.414 1.685 6.56l.046.139c.922 2.76 2.135 5.418 3.567 7.949l.097.172c1.125 1.972 2.446 3.844 3.863 5.614l.157.196q.975 1.206 2.03 2.34l.327.355c.476.52.952 1.03 1.487 1.492q.261.232.515.475c.383.36.77.71 1.181 1.039q.239.192.473.39c.724.608 1.47 1.178 2.237 1.731l.155.111c3.621 2.618 7.603 4.59 11.796 6.094l.201.071c.915.326 1.85.582 2.787.835l.2.054c1.286.35 2.594.593 3.905.829l.345.062c.951.17 1.911.265 2.873.356q.235.021.472.047c2.485.253 5.01.177 7.491-.093l.23-.025q.685-.078 1.368-.184l.23-.033c2.178-.316 4.341-.767 6.44-1.436q.316-.099.634-.191a23 23 0 0 0 2.231-.772q.277-.113.554-.222c1.865-.737 3.693-1.55 5.438-2.544l.54-.304a42 42 0 0 0 6.817-4.788l.351-.298a43 43 0 0 0 2.578-2.406l.196-.196c.354-.356.693-.72 1.02-1.102l.303-.336c.329-.366.64-.744.947-1.128l.203-.252a48 48 0 0 0 2.09-2.816l.1-.144A46 46 0 0 0 103 85.284l.101-.193c.859-1.652 1.561-3.365 2.188-5.117q.104-.28.217-.557c.135-.335.251-.673.36-1.017l.062-.195a47 47 0 0 0 1.08-4.153c.318-1.462.528-2.934.699-4.419l.023-.194q.07-.617.134-1.235l.024-.24c.069-.786.056-1.576.054-2.364v-.756c.001-1.459-.051-2.897-.221-4.345l-.067-.587c-.183-1.608-.512-3.186-.86-4.765l-.078-.35c-1.473-6.742-4.889-13.11-10.837-20.153l-.323-.352c-.5-.547-1-1.083-1.562-1.567a24 24 0 0 1-.513-.472c-.383-.36-.77-.71-1.18-1.039q-.24-.194-.476-.393a31 31 0 0 0-2.02-1.555q-.203-.144-.404-.29a41.5 41.5 0 0 0-5.23-3.23l-.245-.127a45 45 0 0 0-4.689-2.104l-.155-.059c-.366-.14-.736-.271-1.107-.402a26 26 0 0 1-.519-.192c-.9-.339-1.828-.575-2.757-.814l-.69-.18a40 40 0 0 0-10.193-1.298h-.249c-1.432.003-2.858.034-4.282.2"/><path fill="#E2D9EF" d="M72.706 21.633c.66.039 1.28.205 1.915.375l.174.046a45 45 0 0 1 3.3 1.03q.336.115.673.223c.337.112.655.25.977.4q.274.126.555.24c2.146.869 4.262 1.906 6.233 3.124l.153.094a44 44 0 0 1 5.007 3.57q.261.216.524.428c.32.262.627.538.93.82q.228.206.461.41c.29.253.57.514.85.778l.141.132c.43.407.848.818 1.235 1.268q.232.261.473.517c.36.384.707.773 1.036 1.185q.192.24.388.474a38 38 0 0 1 1.726 2.246l.123.173c.592.83 1.154 1.674 1.683 2.546l.108.177a46 46 0 0 1 4.753 10.703q.247.796.454 1.603l.064.247c.166.652.306 1.307.429 1.968q.066.344.137.687c.198 1.001.355 1.997.468 3.01l.068.585c.168 1.455.202 2.904.202 4.367l.002.74a27 27 0 0 1-.154 3.032l-.018.17q-.049.455-.103.91l-.052.44q-.11.915-.244 1.827l-.208.07v-.15l.003-1.42.002-.73c.005-1.645-.016-3.289-.161-4.93l-.014-.15c-.35-3.952-1.039-7.876-2.262-11.653l-.074-.228c-.653-2.014-1.479-3.948-2.427-5.838l-.121-.242a44.5 44.5 0 0 0-5.09-7.914l-.108-.135a48 48 0 0 0-2.351-2.74l-.24-.268c-.449-.51-.925-.992-1.405-1.472l-.418-.42c-.582-.585-.582-.585-1.196-1.138-.216-.186-.42-.385-.627-.581a18 18 0 0 0-1.11-.972q-.255-.208-.503-.423a32 32 0 0 0-1.623-1.291l-.413-.316c-2.093-1.6-4.322-2.985-6.64-4.23l-.512-.277c-1.824-.988-3.745-1.78-5.696-2.474l-.14-.05a21 21 0 0 0-1.337-.433z"/><path fill="#8359C6" d="m68.532 29.694.228-.002a16 16 0 0 1 2.808.21q.35.057.703.108c.485.072.96.163 1.434.29a8 8 0 0 0 .53.117c.582.115 1.141.25 1.689.482.218.089.438.168.66.246q.248.09.5.179l.223.08c.525.194 1.018.431 1.515.686.387.198.784.379 1.18.558v.14l.112.022c.367.106.635.3.93.535l.208.105c.213.107.373.233.556.383q.172.106.347.21l.144.109c.13.104.13.104.282.17.13.07.13.07.27.278q.171.107.347.21.192.15.382.309.282.236.57.468c.182.147.34.311.507.477q.15.134.303.266c.253.223.474.456.69.714.16.185.337.354.515.523.09.101.09.101.09.24h.139c.278.312.278.312.278.488h.139q.183.213.351.436l.097.124c.24.314.24.314.278.496l.038.13.209.07c.095.116.095.116.193.27l.11.171.117.186.122.19c.694 1.096 1.402 2.228 1.89 3.435l.09.225c.145.368.273.706.326 1.1h.14l.045.156c.116.387.237.767.38 1.145.314.847.513 1.717.686 2.603l.052.262c.543 2.859.516 5.948-.052 8.801l-.05.257c-.263 1.289-.587 2.586-1.131 3.787a5 5 0 0 0-.269.713 4.5 4.5 0 0 1-.33.781l-.152.297-.078.152q-.104.207-.203.417c-.652 1.369-1.499 2.66-2.442 3.844l-.132.17q-.431.546-.9 1.06-.195.215-.38.434c-.504.58-1.06 1.117-1.646 1.613l-.188.165c-1.96 1.714-4.22 3.032-6.62 4.018l-.138.056c-1.956.802-4.025 1.28-6.116 1.547l-.164.023a20.9 20.9 0 0 1-6.837-.269 39 39 0 0 0-.566-.113c-.732-.147-1.454-.299-2.16-.547l-.038.118q-.176.543-.406 1.065l-.068.156-.223.509-.158.362-.331.757q-.24.544-.476 1.089-.85 1.946-1.708 3.888-.561 1.273-1.11 2.55-.49 1.132-.99 2.26-.648 1.47-1.289 2.946l-.074.17-.29.668q-.342.79-.687 1.58l-.058.134-.807 1.846-.396.904a202 202 0 0 0-1.186 2.751c-.78 1.847-.78 1.847-1.17 2.042-.56.053-1.064-.046-1.598-.209l-.14-.041a7 7 0 0 1-1.215-.534l-.187-.095a6 6 0 0 1-1.036-.688c-.141-.117-.141-.117-.345-.245-.135-.14-.135-.14-.17-.362.086-.653.39-1.25.652-1.847l.121-.28.251-.575.45-1.038a907 907 0 0 1 1.12-2.59l.153-.355a77 77 0 0 1 .804-1.803c.172-.376.334-.757.497-1.137l.24-.555.063-.148q.4-.924.804-1.846l.08-.183.406-.925.709-1.62.39-.893.157-.358 1.563-3.573.078-.178.157-.358 1.117-2.552.342-.78.162-.37c.285-.65.568-1.3.837-1.957l-.163-.064c-1.681-.691-3.31-2.27-4.562-3.562q-.269-.27-.539-.538l-.195-.194-.196-.194c-.46-.478-.46-.478-.46-.677h-.139c-.083-.09-.083-.09-.176-.217l-.104-.14-.11-.153-.115-.156-.226-.31-.252-.338c-1.33-1.78-2.425-3.838-3.119-5.95-.066-.204-.066-.204-.167-.424-.575-1.325-.783-2.85-1.029-4.264l-.034-.192c-.515-3.089-.495-7.664.956-10.514.088-.179.123-.364.168-.557.056-.2.156-.374.248-.559l.057-.248c.085-.355.23-.676.381-1.006l.08-.18q.224-.497.519-.954a2.5 2.5 0 0 0 .218-.474c.147-.387.334-.715.564-1.06.134-.185.134-.185.196-.4h.139l.046-.14c.124-.28.293-.514.47-.762l.113-.158a20 20 0 0 1 1.63-2.029q.205-.223.402-.454a17 17 0 0 1 .809-.854l.14-.14c.313-.315.639-.611.976-.901l.124-.11c.287-.25.585-.483.892-.71l.135-.1c.233-.173.446-.312.724-.405v-.139c.11-.09.11-.09.262-.192l.166-.11.176-.116.172-.116c.429-.284.429-.284.654-.374.157-.063.266-.13.4-.233.252-.187.516-.33.798-.467l.146-.073c.323-.158.648-.3.984-.425.152-.058.152-.058.342-.195h.278v-.14c.663-.261 1.33-.492 2.015-.69.265-.077.526-.158.784-.256.71-.271 1.455-.375 2.203-.492l.214-.034.195-.03c.146-.016.146-.016.217-.1 1.222-.255 2.506-.232 3.747-.236"/><path fill="#BEFEED" d="M116.479 37.32c.165.207.285.416.399.655l.107.222.111.233.114.239c.216.459.421.915.592 1.394.083.228.178.45.276.672l-.297.383-.262.338-.664.855q-.654.843-1.301 1.693-.397.52-.801 1.033-.425.544-.842 1.095-.414.546-.836 1.087-.473.608-.938 1.22-.77 1.008-1.547 2.006a182 182 0 0 0-1.302 1.69l-.221.289q-.25.327-.496.656l-.265.348-.124.168-.117.153-.103.136c-.098.097-.098.097-.307.097a33 33 0 0 1-.451-1.53l-.123-.455a11 11 0 0 0-.52-1.519c-.054-.14-.054-.14-.087-.4.11-.194.259-.334.417-.489q.16-.206.317-.413.405-.533.829-1.05a39 39 0 0 0 .804-1.016q.423-.554.862-1.1.35-.44.697-.882.397-.508.799-1.011a140 140 0 0 0 1.367-1.738 72 72 0 0 1 1.021-1.282q.466-.57.907-1.159c.392-.518.799-1.02 1.213-1.519.456-.508.456-.508.772-1.1"/><path fill="#C5FDE8" d="M57.142 74.757c.29.043.51.143.769.28.332.174.332.174.69.278v.14l.117.02c.336.066.611.16.912.322.294.146.607.247.916.355-.055.283-.175.538-.29.8l-.069.158-.227.519-.16.365-.42.962-.247.566-.713 1.63-.861 1.971q-.786 1.804-1.576 3.607l-.709 1.619-.233.532-.717 1.64-.328.749-.161.368q-.405.928-.813 1.856-.553 1.261-1.101 2.525a857 857 0 0 1-1.797 4.115q-.03.073-.064.147l-.176.406-.099.229a3 3 0 0 0-.147.473c-.83.041-1.633-.425-2.371-.771l-.187-.087a3.5 3.5 0 0 1-.916-.606c.09-.287.196-.558.321-.832l.112-.246.06-.132q.64-1.407 1.257-2.825l.08-.185q.358-.817.714-1.636l.257-.588.087-.201q.198-.457.422-.901c.132-.261.239-.52.333-.798.204-.57.453-1.119.704-1.669q.486-1.067.95-2.144l.225-.52.058-.137c.26-.605.526-1.21.79-1.813l.08-.183.406-.925.787-1.799.312-.714.078-.178.471-1.076q.912-2.08 1.815-4.162.326-.753.659-1.504"/><path fill="#D7D3FE" d="m55.127 88.7-.517 1.174-.183.416q-.477 1.085-.958 2.168c-.359.806-.707 1.614-1.052 2.426q-.569 1.333-1.155 2.657c-.564 1.278-.564 1.278-1.122 2.558q-.06.134-.117.268l-.158.364-.088.203q-.088.221-.14.455c-.83.041-1.632-.425-2.37-.771l-.187-.087a3.5 3.5 0 0 1-.916-.606c.09-.287.196-.558.321-.832l.112-.246.06-.132q.64-1.407 1.257-2.825l.08-.185q.358-.817.714-1.636l.257-.589.087-.2q.197-.453.419-.893a8 8 0 0 0 .388-.933c.177-.504.177-.504.335-.662h.208q.18-.07.355-.153l.218-.102.235-.11q.12-.058.243-.115c1.414-.659 1.414-.659 2.81-1.356l.139-.072q.173-.09.344-.183c.172-.07.172-.07.38 0"/><path fill="#D0FBFE" d="M57.35 83.333c-.04.313-.121.568-.25.856l-.055.127-.185.415q-.136.3-.268.6l-.07.158q-.222.504-.419 1.017-.135.35-.275.7-.066.168-.128.338c-.229.628-.429 1.056-1.051 1.348q-.216.094-.435.177c-.17.066-.33.149-.492.236-1.135.58-2.296 1.103-3.459 1.627-.107-.329.027-.553.163-.853l.077-.173q.167-.378.339-.754l.265-.587.09-.197q.266-.601.477-1.225c.298-.862.564-1.574 1.414-2.026.344-.162.698-.293 1.056-.42.472-.174.923-.396 1.378-.61q.362-.167.725-.33c.12-.055.12-.055.245-.11q.115-.053.233-.105l.133-.06c.337-.15.337-.15.492-.15"/><path fill="#D4E5FE" d="m55.127 88.7-1.32 2.998-.073.166-.413.937-.1.226-.092.207-.077.174-.079.173-.084.218c-.16.257-.333.316-.61.402l-.302.105-.16.054c-.278.097-.55.207-.823.317l-.34.135-.517.206c-1.815.724-1.815.724-2.028.724.038-.393.145-.703.308-1.06l.072-.162q.113-.255.228-.508l.151-.338c.199-.444.398-.887.618-1.32.149-.293.265-.59.373-.9.177-.504.177-.504.335-.662h.208q.18-.07.355-.153l.218-.102.235-.11q.12-.058.243-.115c1.414-.659 1.414-.659 2.81-1.356l.139-.072q.173-.09.344-.183c.173-.07.173-.07.381 0"/><path fill="#D8FDD2" d="M57.142 74.757c.289.052.508.142.769.28.332.174.332.174.69.278v.14l.117.02c.336.066.611.16.912.322.294.146.607.247.916.355-.156.684-.432 1.583-.96 2.058a3.5 3.5 0 0 1-.563.198c-.309.094-.6.237-.895.366l-.366.156q-.387.167-.76.36c-.248.124-.502.232-.755.343-.409.18-.812.366-1.207.576-.121.056-.121.056-.26.056.108-.347.245-.674.392-1.006l.075-.172.245-.557.168-.383.257-.585.817-1.868.125-.288z"/><path fill="#F8EDFE" d="M67.443 46.917c2.628-2.525 6.67-1.248 9.296.592.644.461 1.227.98 1.803 1.523l.135.123c1.012.963 1.795 2.236 2.367 3.502l.06.132c.301.678.502 1.369.635 2.1l.038.206c.114.707.129 1.405.126 2.12v.186c-.006 1.877-.325 3.797-1.137 5.505l-.152.335c-.678 1.487-1.56 2.755-2.627 3.987l-.168.195q-.468.535-1.013.99l-.205.179c-1.732 1.51-3.772 2.572-5.91 3.377l-.155.058c-.784.294-1.598.469-2.416.639l-.159.033c-4.148.849-8.342.048-12.276-1.33a42 42 0 0 0-.712-.241c-.784-.273-1.311-.66-1.88-1.263q-.18-.19-.368-.372a16 16 0 0 1-1.142-1.219l-.094-.113a25 25 0 0 1-2.407-3.442L49 64.578c-1.282-2.183-1.997-4.427-2.488-6.901l-.036-.178c-.623-3.108-.6-6.987.453-10.001h.07l.001.24c.019 1.922.106 3.754.624 5.616l.046.189c.537 2.138 1.521 4.295 2.803 6.086l.133.188q.209.29.423.578l.157.216c.38.513.794.982 1.233 1.445q.204.215.392.446c.133.16.261.292.42.426.15.128.3.256.443.392.973.919 2.1 1.65 3.26 2.305l.178.1c1.637.918 3.356 1.5 5.181 1.909l.194.043c.86.184 1.72.197 2.594.2h.177c.955.001 1.864-.065 2.794-.3l.258-.064c1.42-.398 2.722-1.146 3.842-2.097l.192-.162c.43-.372.777-.786 1.127-1.233l.14-.165c.428-.505.734-1.064 1.042-1.647l.07-.133c.289-.545.53-1.085.694-1.68q.03-.108.063-.218c.396-1.615.229-3.301-.62-4.732a7 7 0 0 0-.555-.697l-.127-.148c-.71-.772-1.87-1.402-2.929-1.47a24 24 0 0 0-.714-.003l-.242-.002c-.4 0-.77.024-1.161.104-.274.05-.37.06-.64-.034l-.206-.146-.227-.16-.216-.163-.191-.142a10 10 0 0 1-.503-.416l-.15-.127c-.508-.467-.924-1.125-.98-1.824-.028-1.315.533-2.367 1.425-3.301"/><path fill="#F8EDFE" d="M70.434 33.953c2.846-.329 5.98.18 8.619 1.27q.31.125.623.242c1.084.417 2.141.91 3.183 1.423l.182.088c.68.341 1.197.804 1.707 1.363l.145.156c.667.72.667.72.667.916h.14q.165.194.316.396l.094.124a27.4 27.4 0 0 1 2.786 4.64l.062.132c1.884 3.982 2.138 8.799 1.423 13.093a25 25 0 0 0-.071.458c-.125.803-.342 1.575-.581 2.351l-.057.185a17.7 17.7 0 0 1-2.514 5.113l-.107.15c-.663.922-1.35 1.801-2.124 2.631-.224.24-.438.49-.65.74-.106.105-.107.104-.246.104l-.06.136c-.078.144-.079.143-.217.213.092-.262.208-.456.377-.675.932-1.263 1.67-2.683 2.263-4.135l.143-.314c.518-1.168.84-2.418 1.081-3.67a107 107 0 0 0 .277-1.461c.75-3.939-.053-8.406-1.918-11.915l-.073-.137c-.605-1.15-1.355-2.175-2.22-3.14l-.106-.12a14 14 0 0 0-1.422-1.414l-.112-.093c-1.401-1.18-2.95-2.084-4.613-2.834l-.134-.062c-3.168-1.428-6.803-1.344-10.017-.143a14.3 14.3 0 0 0-4.568 2.853q-.211.195-.433.38c-1.462 1.292-2.562 3.174-3.052 5.059l-.037.138c-.298 1.176-.242 2.385.037 3.557l.038.192a5.9 5.9 0 0 0 1.351 2.597l.163.207c.481.58 1.222.947 1.921 1.186l.184.068c1.143.356 2.497.219 3.568-.28.83-.442 1.481-1.02 2.085-1.739.295.253.45.566.625.907l.094.178c.547 1.075.818 2.25.473 3.44-.537 1.442-1.594 2.48-2.968 3.14-.787.35-1.473.44-2.327.449l-.23.003a5.2 5.2 0 0 1-1.504-.239l-.143-.04c-2.873-.809-5.139-3.269-6.57-5.792-.66-1.193-1.16-2.447-1.416-3.789l-.032-.167c-.647-3.541.433-7.132 2.429-10.07q.449-.648.938-1.267l.095-.12c.868-1.082 1.863-2.113 2.985-2.93q.182-.136.36-.276c2.577-1.98 5.732-3.055 8.929-3.435z"/><path fill="#BDEAFE" d="m77.222 40.457.192.085c1.352.61 2.622 1.338 3.769 2.285l.206.165c1.022.834 1.995 1.785 2.768 2.858q.127.175.258.347c.919 1.23 1.682 2.686 2.118 4.16l.104.313.05.153q.057.171.119.339c.343.966.507 1.965.602 2.983.02.237.02.237.064.39.038.165.043.314.045.484l.002.205v.221l.002.232.001.487.005.73c.005 1-.062 1.959-.23 2.944q-.087.537-.19 1.072l-.027.136c-.206 1.059-.456 2.125-.894 3.114l-.135.338c-.889 2.241-2.074 4.349-3.731 6.11a9 9 0 0 0-.386.441c-.18.213-.378.39-.59.57q-.234.207-.459.424a6.7 6.7 0 0 1-1.3.971l-.134.079c-1.153.669-2.335 1.244-3.596 1.678l-.313.11c-1.003.362-2.038.551-3.084.74q-.213.038-.427.08c-1.08.215-2.164.263-3.263.256l-.603-.001c-1.135-.003-2.259-.034-3.38-.223l-.14-.023q-.45-.077-.9-.16l-.384-.066c-.89-.158-1.747-.447-2.606-.727l-.16-.051c-1.772-.584-3.404-1.583-4.912-2.668l.139-.07c.121.042.121.042.278.114.49.206 1 .336 1.513.473q.207.055.413.113.39.107.783.207l.16.041c2.867.736 6.071.902 8.982.322l.48-.093a15 15 0 0 0 1.817-.471q.299-.1.604-.183a6 6 0 0 0 .866-.348q.249-.117.501-.224c1.893-.813 3.672-1.907 5.161-3.342.245-.234.245-.234.398-.234l.045-.115c.125-.218.296-.372.476-.543a10 10 0 0 0 1.147-1.363l.086-.122c.488-.697.905-1.428 1.303-2.18l.127-.235a7 7 0 0 0 .501-1.236c.067-.201.067-.201.166-.418.153-.353.233-.726.322-1.1l.055-.218c.457-1.874.667-3.943.288-5.855l-.031-.164c-.638-3.214-2.644-5.994-5.333-7.818a13.2 13.2 0 0 0-4.016-1.779l-.161-.043c-.503-.119-1.007-.12-1.52-.118l-.452-.003c-.806-.004-1.529.112-2.249.491l-.141.074c-1.273.674-2.212 1.72-2.703 3.085-.252.856-.276 1.845.14 2.65l.081.171c.436.821 1.323 1.693 2.211 1.99-.41.929-1.393 1.52-2.293 1.882l-.17.075c-1.037.378-2.402.191-3.378-.258-1.296-.692-2.022-1.849-2.442-3.22-.509-1.73-.373-3.619.432-5.242l.065-.134c.465-.949 1.015-1.794 1.735-2.568.136-.146.264-.296.393-.448.244-.28.509-.518.794-.754l.105-.09a14.8 14.8 0 0 1 3.37-2.14l.228-.11c3.232-1.478 7.02-1.474 10.263-.03"/><path fill="#BDFEF1" d="M68.588 31.292c1.203-.003 2.38.058 3.57.232l.196.029c1.046.156 1.046.156 1.533.329q.19.045.382.086c.526.114 1.036.261 1.546.432l.174.058q.27.093.538.19l.213.077a14 14 0 0 1 1.611.734l.123.064a19 19 0 0 1 2.014 1.217l.252.172q.616.419 1.207.874l-.139.07a7 7 0 0 1-.43-.232 4 4 0 0 0-.96-.397l-.208-.138q-.212-.07-.426-.131c-.267-.08-.52-.16-.769-.283-.359-.17-.74-.264-1.123-.364l-.156-.042-.137-.036a6 6 0 0 1-.43-.153 5 5 0 0 0-.862-.231l-.158-.033-.332-.063-.496-.099c-1.112-.219-2.209-.256-3.34-.257h-.196c-.981.002-1.935.037-2.9.227-.099.018-.098.02-.198.038a19 19 0 0 0-5.43 1.914l-.154.081c-.73.388-1.413.81-2.07 1.314l-.122.092c-.591.45-1.15.926-1.685 1.442l-.138.134c-.625.604-1.21 1.216-1.725 1.917q-.115.154-.235.305a16.3 16.3 0 0 0-3.113 6.846l-.039.18c-.13.67-.127 1.337-.126 2.016v.189c.002.853.032 1.668.265 2.494q.06.217.107.436c.225.986.58 1.885 1.045 2.779q.104.206.204.414c.137.274.296.528.468.782l.092.137c.953 1.406 2.035 2.67 3.404 3.68l.121.09c1.703 1.247 3.775 2.01 5.899 1.695a6.6 6.6 0 0 0 4.122-2.616c.638-.971 1.005-2.12.798-3.286q-.076-.314-.17-.624l-.055-.196c-.15-.509-.379-.96-.635-1.422l-.08-.146-.073-.13a1.7 1.7 0 0 1-.13-.407c1.334-.323 2.572-.144 3.758.543 1.027.653 1.753 1.742 2.035 2.916.075.411.077.818.073 1.235v.27c-.012.645-.075 1.194-.307 1.8l-.09.252a10.15 10.15 0 0 1-5.148 5.69c-3.136 1.456-6.75 1.013-9.906-.144-2.207-.849-4.17-2.112-5.91-3.707l-.196-.176c-.38-.34-.728-.686-1.054-1.079l-.173-.2c-3.258-3.77-5.018-8.685-4.76-13.674.211-2.531 1.2-4.884 2.71-6.902l.133-.181a27 27 0 0 1 2.429-2.751l.184-.186c.41-.407.825-.784 1.284-1.134l.316-.262a23 23 0 0 1 2.858-1.945q.218-.128.434-.26c2.786-1.656 6.222-2.53 9.445-2.574l.234-.004q.373-.004.748-.006zM84.934 46.94c.625 1.096 1.24 2.2 1.599 3.416l.103.314.051.153q.057.171.118.339c.343.966.508 1.966.603 2.983.019.238.019.238.065.396.052.224.04.45.037.679l-.002.146-.002.358-.522.266-.146.076a9 9 0 0 1-1 .425l-.174.106c-.188.112-.372.18-.576.253a4 4 0 0 0-.414.189l-.147.074-.148.075-.556.284-.139.072a9 9 0 0 1-1.181.481l-.004-.16c-.083-3.045-.66-5.855-2.692-8.224-.153-.191-.153-.191-.153-.33q1.123-.569 2.263-1.105l.502-.24q.835-.402 1.677-.785l.159-.075c.247-.11.404-.166.68-.166"/><path fill="#BDEAFD" d="M74.026 62.139c-.251.682-.715 1.264-1.181 1.812l-.171.203c-1.627 1.88-3.993 2.968-6.442 3.2-.39.026-.779.023-1.17.022l-.253.001c-.476 0-.942-.02-1.414-.08v-.069l.115-.035c.397-.128.77-.284 1.145-.466l.174-.084q.582-.283 1.148-.594c.43-.233.872-.44 1.314-.648q.687-.326 1.356-.692a6 6 0 0 1 .724-.34q.22-.105.438-.217l.26-.132q.48-.243.961-.483.36-.18.719-.363c.446-.227.887-.444 1.356-.621.23-.096.442-.22.656-.348.126-.066.126-.066.265-.066"/><path fill="#F9FDBA" d="m67.347 31.302.233-.003.749-.006.258-.001c1.203-.003 2.38.058 3.572.232l.195.029c1.046.156 1.046.156 1.533.328q.19.046.382.087c.526.114 1.036.26 1.546.432l.174.058q.27.093.538.19l.213.077a14 14 0 0 1 1.611.734l.123.064c.7.367 1.365.767 2.014 1.217l.252.172q.616.419 1.207.874l-.139.07a7 7 0 0 1-.43-.232 4 4 0 0 0-.96-.396l-.208-.14a11 11 0 0 0-.426-.13 5 5 0 0 1-.768-.283c-.36-.17-.74-.264-1.124-.365l-.156-.041-.137-.035a6 6 0 0 1-.43-.154 5 5 0 0 0-.862-.232l-.158-.031-.332-.064-.496-.099c-1.113-.219-2.21-.256-3.34-.256h-.196c-.981 0-1.935.037-2.9.226l-.198.038a19 19 0 0 0-5.43 1.915l-.154.08c-.73.388-1.413.81-2.07 1.314l-.123.093c-.59.449-1.15.925-1.684 1.44l-.139.134c-.624.604-1.209 1.217-1.725 1.918q-.115.154-.235.305c-.534.684-1.09 1.46-1.441 2.256-.087.154-.156.196-.313.273l-.146.075-.156.077c-.452.23-.884.474-1.311.748-.259.157-.523.301-.789.446-1.48.81-2.92 1.699-4.354 2.59l-.178.109-.32.2c-.342.212-.342.212-.496.212-.052-.798.1-1.528.278-2.301l.031-.142c.396-1.765 1.256-3.371 2.331-4.808l.134-.181a27 27 0 0 1 2.428-2.751l.185-.186c.41-.407.824-.784 1.283-1.135l.317-.261a23 23 0 0 1 2.857-1.945q.218-.129.435-.26c2.786-1.656 6.221-2.53 9.445-2.575"/><path fill="#B8F8A8" d="M55.544 43.385c-.048.128-.049.128-.128.284l-.088.177-.097.192c-.574 1.179-.956 2.385-1.216 3.67l-.039.18c-.13.669-.127 1.337-.126 2.016v.187c.002.854.032 1.669.265 2.495q.059.217.107.437c.224.986.58 1.884 1.045 2.778q.104.206.204.413c.137.275.296.529.468.782l.092.138c.853 1.258 1.823 2.498 3.057 3.4-.182.211-.395.32-.64.45l-.127.068-.415.219-.285.152-.701.37-.52.276-.486.255q-.374.196-.742.4l-.145.082q-.135.075-.267.152c-.165.091-.289.157-.48.152a1.4 1.4 0 0 1-.387-.318 7 7 0 0 0-.568-.54c-.58-.502-1.057-1.119-1.533-1.718l-.164-.203c-2.624-3.318-4.103-7.543-4.078-11.77v-.31l.003-.753h.07v.348l.225-.136a574 574 0 0 1 3.831-2.289 81 81 0 0 1 1.907-1.106q.639-.362 1.275-.729l.18-.103.162-.093q.134-.075.271-.145zm11.415-2.898c3.231-1.478 7.02-1.474 10.263-.03l.192.084c1.352.61 2.621 1.34 3.768 2.286l.207.164c1.06.866 2.059 1.853 2.85 2.973l.092.129q.27.385.534.777a3.4 3.4 0 0 1-.57.302l-.218.095-.233.1c-.551.241-1.096.488-1.63.764-.425.218-.86.411-1.296.606q-.676.301-1.333.643l-.113-.128q-.255-.286-.512-.57l-.156-.168c-1.577-1.657-3.699-2.748-5.89-3.317l-.161-.043c-.503-.12-1.007-.12-1.52-.118q-.225 0-.452-.004c-.806-.003-1.53.113-2.25.493l-.14.073c-1.273.674-2.212 1.72-2.703 3.085-.252.856-.276 1.845.139 2.65l.082.171c.436.821 1.322 1.692 2.21 1.99-.41.929-1.392 1.52-2.292 1.882l-.17.074c-1.037.38-2.402.192-3.378-.257-1.296-.693-2.023-1.849-2.442-3.22-.51-1.73-.373-3.618.431-5.241l.066-.135c.465-.949 1.015-1.794 1.735-2.568.136-.146.264-.296.393-.449.244-.28.51-.516.794-.753l.105-.09a14.8 14.8 0 0 1 3.37-2.141zm9.652-7.686c.602-.04 1.21.38 1.723.65l.126.065c.703.369 1.375.77 2.028 1.224l.252.172q.616.42 1.207.873l-.139.07a7 7 0 0 1-.43-.23 4 4 0 0 0-.96-.397l-.208-.14a11 11 0 0 0-.426-.13 5 5 0 0 1-.769-.284c-.359-.17-.74-.264-1.123-.364a6 6 0 0 1-.71-.23c-.444-.172-.92-.24-1.385-.33l-.292-.057-.714-.138c.373-.294.804-.409 1.25-.558l.212-.077.192-.062z"/><path fill="#DEFAF0" d="M109.74 58.652c.045 4.932.045 4.933-.209 6.972l-.041.337q-.063.517-.132 1.032l-.022.162-.063.45-.037.26c-.052.2-.052.2-.261.34l-.002-.194-.021-1.827-.011-.939c-.016-1.658-.016-1.658-.068-3.315l-.008-.175a10 10 0 0 0-.137-1.222c-.064-.583.139-.901.486-1.345.296-.369.296-.37.456-.536zm-2.015-10.178c.171.172.204.309.277.542l.079.25.082.271q.386 1.227.638 2.487c.035.162.035.162.133.37.041.193.041.193-.08.395l-.187.203-.195.219-.098.108a8 8 0 0 0-.38.471l-.118.153-.082.109c-.139-.07-.139-.07-.196-.214l-.06-.205-.073-.247q-.101-.357-.199-.714l-.061-.22-.124-.455a11 11 0 0 0-.52-1.519c-.054-.14-.054-.14-.087-.4.109-.194.259-.334.417-.488q.096-.118.188-.24l.089-.116.088-.115.091-.119q.197-.257.378-.526M88.27 23.027c.574.328 1.128.676 1.675 1.046l.212.142c1.176.79 2.333 1.613 3.403 2.544q.285.246.58.482c.363.297.707.611 1.047.932q.283.263.57.518c.37.333.722.68 1.071 1.034l.18.178c.306.308.602.62.884.95.143.167.294.33.444.493.342.376.664.766.981 1.163l.19.234c1.441 1.78 2.711 3.688 3.876 5.658a50 50 0 0 0 .328.544l.1.164c.143.254.26.52.37.79a66 66 0 0 1-1.267 1.59c-.131.158-.131.158-.261.362l-.134-.223a45.2 45.2 0 0 0-5.668-7.543l-.308-.336c-.636-.7-1.285-1.402-2.008-2.015a17 17 0 0 1-.497-.456 20 20 0 0 0-1.182-1.04 34 34 0 0 1-.473-.39c-1.9-1.596-3.977-3.01-6.128-4.242l.208-.069c.075-.13.076-.13.14-.278q.08-.119.166-.233l.1-.132.107-.141.224-.298.116-.154q.296-.392.59-.785l.21-.284z"/><path fill="#FEFCE1" d="M52.656 39.3c1.55-1.622 1.551-1.621 2.49-1.215.254.154.45.3.607.559.08.4.043.752-.174 1.098-.18.256-.41.445-.645.648-.272.242-.527.5-.784.76l-.161.16q-.493.496-.946 1.029l-.186.214q-.596.698-1.137 1.44l-.1.135-.087.121c-.167.211-.322.362-.575.46-.182.019-.182.019-.377.018h-.196a1.6 1.6 0 0 1-.539-.157v-.14h-.138c-.26-.382-.333-.654-.279-1.114.146-.7.737-1.285 1.182-1.814l.098-.117c.454-.545.922-1.061 1.43-1.556q.263-.26.517-.528m4.347-3.585c.365-.259.845-.333 1.26-.14.231.157.373.293.477.558.058.36.041.676-.144.994-.23.319-.462.633-.863.715-.292.013-.471-.006-.725-.157-.38-.415-.456-.728-.45-1.29.046-.315.203-.484.445-.68"/><path fill="#B9FAC8" d="M55.209 55.692c.873 1.823 2.243 3.647 3.878 4.843-.182.21-.394.32-.638.449l-.129.069-.414.219-.286.151-.7.37-.52.276-.486.255q-.373.196-.741.402l-.146.08q-.135.075-.267.152c-.164.091-.289.157-.479.152a1.3 1.3 0 0 1-.387-.318 7 7 0 0 0-.569-.54c-.58-.502-1.056-1.118-1.533-1.717l-.165-.204c-.358-.452-.68-.92-.99-1.408l-.113-.176-.103-.165-.092-.147c-.065-.131-.065-.13-.065-.34l.159-.088.748-.413.138-.076q.917-.507 1.829-1.027a81 81 0 0 1 1.346-.754l.243-.131c.192-.09.192-.09.4-.09zM65.474 50.3c.407 1.384 1.182 2.384 2.438 3.124l.208.07c-.41.929-1.393 1.52-2.293 1.882l-.17.074c-1.037.38-2.402.192-3.378-.257-.936-.5-1.668-1.27-2.08-2.257v-.21l.152-.077.704-.367.129-.067q.8-.416 1.6-.839.665-.353 1.339-.686.511-.256 1.007-.54c.141-.072.141-.073.28-.073zm5.309 3.314c.377.002.377.002.533.159l-.755.414-.218.119-.207.113-.193.106a10 10 0 0 1-.295.154l-.208-.336-.117-.189c-.09-.172-.092-.172-.092-.381a6 6 0 0 1 1.395-.158zm9.878-11.162c.349.193.638.464.939.723q.079.07.162.14a18 18 0 0 1 3.103 3.555 3.4 3.4 0 0 1-.57.302l-.218.095-.232.1c-.552.241-1.097.488-1.632.764-.424.218-.86.411-1.296.606q-.675.301-1.332.643l-.113-.128q-.254-.285-.513-.57l-.154-.168c-1.165-1.223-2.64-2.085-4.167-2.768-.125-.061-.126-.06-.334-.2.99-.53 1.99-1.037 2.996-1.538l.861-.43.208-.104q.708-.355 1.405-.733c.647-.349.647-.349.887-.289"/><path fill="#E390A2" d="M70.429 38.87c3.98-.587 8.013 1.033 11.101 3.469l.2.156c.827.66 1.626 1.399 2.301 2.215l.086.103c1.944 2.36 3.352 5.278 3.784 8.325q.024.156.05.31c.346 2.045.371 4.353-.028 6.39l-.058.308a112 112 0 0 1-.241 1.246q-.228 1.16-.624 2.274-.107.31-.21.62a9 9 0 0 1-.558 1.32c-.118.23-.225.463-.333.697a18 18 0 0 1-1.989 3.316c-.095.121-.095.121-.17.284-.146.212-.3.323-.509.472-.212.159-.411.33-.612.504q-.5.432-1.04.816-.2.144-.398.292l-.206.156-.188.142c-.16.102-.16.102-.368.102l.494-.466.14-.132c.208-.195.415-.388.636-.569.156-.131.287-.258.418-.415.129-.152.258-.302.395-.448 1.605-1.71 2.77-3.94 3.58-6.13.063-.172.131-.338.206-.507.411-1 .624-2.089.822-3.15l.051-.272c.218-1.206.297-2.361.293-3.586l.001-.729v-.687a8 8 0 0 0-.158-1.454l-.066-.475c-.177-1.246-.47-2.482-.976-3.638l-.099-.238c-.658-1.578-1.496-2.997-2.611-4.294l-.138-.162c-.746-.853-1.543-1.657-2.455-2.33l-.343-.26c-1.039-.782-2.2-1.397-3.386-1.919l-.25-.112c-3.02-1.295-6.295-1.196-9.337-.135a14.4 14.4 0 0 0-2.863 1.422c-1.077.706-2.071 1.568-2.836 2.52l-.163.2c-.41.514-.78 1.062-1.095 1.638a9.6 9.6 0 0 0-.827 1.996l-.063.205c-.09.343-.152.712-.184 1.088a7 7 0 0 0 .123 1.932q.038.16.084.315a.6.6 0 0 1 .024.135c.17.628.42 1.234.74 1.794.589.954 1.427 1.581 2.498 1.913.412.093.821.097 1.241.1l.198.002c1.136-.012 2.151-.518 2.982-1.279a6 6 0 0 0 .625-.766l-.115-.02c-.815-.247-1.627-1.09-2.073-1.798a9 9 0 0 1-.174-.343l-.087-.167c-.353-.794-.295-1.814-.005-2.618A6.6 6.6 0 0 1 66.8 46.73l.125-.144c.8-.87 2.065-1.535 3.243-1.616q.427-.014.853-.013h.154c.876.002 1.669.101 2.504.379l.165.051c3.25 1.038 5.966 3.518 7.534 6.53.828 1.652 1.141 3.403 1.138 5.24v.15c-.005 1.397-.217 2.641-.569 3.993l-.043.163c-.116.446-.243.875-.442 1.29-.079.168-.15.338-.223.507a14.7 14.7 0 0 1-2.071 3.479l-.14.184c-.358.465-.761.87-1.18 1.28l-.174.175c-1.809 1.808-4.044 3.115-6.427 4.008l-.146.056c-1.13.43-2.284.683-3.467.92l-.195.04c-3.322.66-7.163.17-10.34-.936a17 17 0 0 0-.717-.224c-.598-.186-1.017-.43-1.5-.83a17 17 0 0 0-.728-.56c.14-.07.14-.07.315-.017l.223.087.252.095.135.052c5.09 1.95 10.766 2.728 15.96.69l.264-.1a17.9 17.9 0 0 0 5.534-3.36q.152-.136.305-.268c.359-.316.68-.644.984-1.014l.203-.241a14.8 14.8 0 0 0 2.594-4.504q.075-.191.158-.378c.21-.505.326-1.038.45-1.57l.041-.179c.635-2.775.343-5.822-1.014-8.326l-.116-.216c-.54-.978-1.255-1.852-2.039-2.642l-.105-.107c-1.897-1.892-4.579-3.248-7.276-3.265-1.45.013-2.623.481-3.673 1.49-.738.773-1.242 1.796-1.279 2.87.03.897.5 1.618 1.133 2.225.267.233.553.427.848.622l.169.128c.325.231.325.231.71.277l.197-.044c1.48-.288 2.907-.132 4.191.673.337.23.63.487.916.778l.15.15c.667.709.99 1.505 1.24 2.43l.038.129c.202.953.09 2.147-.177 3.077l-.056.21c-.184.615-.478 1.178-.778 1.742l-.07.134a8.4 8.4 0 0 1-1.041 1.54l-.196.237c-.412.497-.832.96-1.333 1.367l-.109.088c-1.705 1.376-3.843 2.22-6.043 2.223l-.167.001-.348.001-.523.003c-2.434.009-4.81-.68-6.984-1.759l-.152-.075a18 18 0 0 1-4.295-2.992l-.195-.174a9 9 0 0 1-.933-.936q-.23-.268-.466-.529l-.162-.18-.12-.133c.13-.25.22-.387.486-.488l.09.118c.575.74 1.203 1.445 1.926 2.043l.192.17c1.865 1.638 4.068 2.805 6.408 3.594l.25.084c3.042.944 6.37.932 9.23-.546a9.4 9.4 0 0 0 3.027-2.605l.152-.203a10.4 10.4 0 0 0 1.585-3.213l.04-.139c.128-.49.122-.982.12-1.486l.003-.263c.001-1.329-.463-2.33-1.356-3.295-.892-.878-2.042-1.252-3.27-1.248a2.6 2.6 0 0 0-.678.086q-.245.005-.488 0l.075.131c.802 1.444 1.47 2.93 1.03 4.608-.238.835-.662 1.523-1.243 2.163l-.115.131c-1.082 1.177-2.732 1.868-4.31 1.936-2.685.04-4.877-1.4-6.762-3.182l-.138-.13c-.55-.533-1-1.152-1.447-1.77l-.116-.16c-.595-.829-.594-.83-.587-1.095a.9.9 0 0 1 .274-.331h.208l.097.182c.334.611.711 1.162 1.154 1.7l.1.124c1.542 1.867 3.613 3.56 6.083 3.92 1.833.115 3.387-.23 4.795-1.464.828-.772 1.393-1.762 1.478-2.904.03-1.162-.381-2.624-1.18-3.501l-.09-.079-.148.174c-.922 1.057-2.056 1.893-3.498 2-1.472.074-2.811-.224-3.952-1.225-.932-.92-1.637-2.154-1.852-3.458l-.042-.2c-.437-2.308.304-4.59 1.594-6.496q.237-.336.49-.654c1.732-2.217 4.195-3.805 6.848-4.75a12.6 12.6 0 0 1 2.004-.488q.222-.045.448-.084"/><path fill="#B086CB" d="M48.665 43.106c.07.14.07.14.032.266l-.065.155-.072.177-.077.19a13.4 13.4 0 0 0-.652 2.28l-.034.156c-.463 2.128-.175 4.443.312 6.536l.035.154c.637 2.706 1.965 5.478 3.787 7.584l-.347.489c-1.55-1.459-2.555-3.63-3.336-5.577l-.076-.192a18 18 0 0 1-.897-3.085l-.043-.206c-.216-1.055-.27-2.106-.3-3.18l-.006-.2q-.009-.285-.013-.571l-.005-.172c-.004-.406.084-.732.229-1.11l.1-.295.052-.157q.094-.3.182-.602c.186-.614.41-1.234.708-1.804h.14l.016-.143c.067-.266.188-.459.33-.693m23.634-9.78c1.193 0 2.36.105 3.529.346l.268.055c.72.151 1.405.364 2.095.615.19.066.382.117.577.167.284.073.538.177.802.303.21.093.425.16.644.227.135.05.135.05.344.188q.141.05.286.092c.298.096.554.23.822.391.136.08.136.08.274.103.168.049.255.115.386.23l.135.117.136.122.137.118c.3.263.558.542.81.85-.387-.112-.725-.294-1.081-.48a25 25 0 0 0-1.932-.88l-.13-.054a35 35 0 0 0-1.239-.487q-.235-.092-.467-.189c-2.978-1.198-6.38-1.473-9.533-.978l-.183.028c-2.907.469-5.845 1.755-8.113 3.645l-.325.263c-.966.785-1.89 1.688-2.635 2.688l-.175.226c-2.196 2.89-3.695 6.534-3.246 10.22.238 1.727.79 3.259 1.545 4.821l-.165.131c-.18.141-.18.141-.321.287-.785-1.556-1.349-3.02-1.668-4.74l-.037-.196a6 6 0 0 1-.051-.81l-.003-.17c-.017-1.32.011-2.564.37-3.844l.064-.23a17.2 17.2 0 0 1 3.591-6.562q.103-.117.203-.236c.787-.917 1.648-1.795 2.626-2.507q.182-.135.36-.275c1.38-1.06 2.947-1.811 4.55-2.46l.2-.082c.912-.355 1.886-.587 2.845-.773l.162-.03a16 16 0 0 1 2.986-.249z"/><circle cx="64" cy="64" r="64" fill="#FEF3C7" transform="translate(64)"/><path fill="#D97706" d="M109.734 93.88h-9.816a9.7 9.7 0 0 1-4.676-1.152 9.14 9.14 0 0 1-3.426-3.196l-5.232-8.524a7.4 7.4 0 0 1-1.25-4.178c0-1.534.416-2.856 1.25-4.134l5.324-8.654-5.324-8.61a7.54 7.54 0 0 1-1.25-4.176c0-1.492.416-2.9 1.25-4.178l5.232-8.524a8.8 8.8 0 0 1 3.426-3.198 9.8 9.8 0 0 1 4.676-1.192h9.816l5.186-8.44a8.8 8.8 0 0 1 3.426-3.196 9.8 9.8 0 0 1 4.676-1.194h9.956c1.712 0 3.24.384 4.676 1.194a9.14 9.14 0 0 1 3.426 3.196l5.232 8.44h9.816c1.714 0 3.24.382 4.676 1.192a9.14 9.14 0 0 1 3.426 3.198l5.186 8.524c.834 1.28 1.25 2.644 1.25 4.178s-.416 2.898-1.25 4.176l-5.324 8.61 5.324 8.654c.834 1.28 1.25 2.642 1.25 4.134a7.53 7.53 0 0 1-1.25 4.178l-5.186 8.524a8.8 8.8 0 0 1-3.426 3.196 9.8 9.8 0 0 1-4.676 1.152h-9.816l-5.232 8.44a8.8 8.8 0 0 1-3.426 3.196 9.8 9.8 0 0 1-4.676 1.15h-9.958a9.7 9.7 0 0 1-4.676-1.15 9.14 9.14 0 0 1-3.426-3.196zm36.578-34.1h9.954l5.094-8.524-5.094-8.526h-9.954l-5.232 8.526zm-23.15 12.788h9.722l5.186-8.526-5.186-8.524h-9.722l-5.186 8.524zm0-25.574h9.722l5.326-8.654-5.186-8.396h-9.956l-5.184 8.396 5.324 8.654zm-8.196 4.26-5.186-8.524h-9.816l-5.186 8.526 5.186 8.524h9.816zm0 25.576-5.186-8.524h-9.954l-5.094 8.524 5.186 8.524h9.816l5.186-8.524zm8.196 4.262-5.326 8.61 5.186 8.44h9.956l5.186-8.44-5.326-8.61h-9.722zm23.15 4.262h9.816l5.186-8.524-5.186-8.524h-9.816l-5.232 8.524z"/></svg>
