<svg xmlns="http://www.w3.org/2000/svg" viewBox="0 0 128 128"><circle cx="64" cy="64" r="60" fill="#FFF"/><path fill="#252424" d="M61.068.119A64.07 64.07 0 0 0 27.56 11.412c-3.455 2.392-6.258 4.77-9.445 8.045-4.76 4.873-8.19 9.682-11.314 15.885C2.976 42.926.89 50.37.134 59.13c-.179 2.135-.179 7.712 0 9.848.743 8.505 2.778 15.974 6.361 23.239 3.174 6.42 6.694 11.408 11.634 16.46 5.388 5.512 10.815 9.452 17.662 12.802 7.461 3.671 14.756 5.679 23.165 6.395 1.984.167 8.127.167 10.11 0 8.307-.703 15.896-2.788 23.127-6.343 6.425-3.172 11.416-6.689 16.472-11.626 5.516-5.385 9.458-10.808 12.811-17.65 3.673-7.457 5.683-14.734 6.399-23.15.167-1.982.167-8.121 0-10.103-.704-8.3-2.79-15.885-6.348-23.111-3.174-6.42-6.706-11.422-11.634-16.46-3.046-3.109-5.388-5.13-8.702-7.496C92.347 5.618 82.044 1.68 71.051.426c-1.6-.18-6.605-.46-7.488-.422-.205 0-1.33.05-2.495.115m-10.06 34.008c1.51.383 2.88 1.163 4.121 2.34 2.035 1.919.18-1.944 19.402 40.441 2.394 5.27 4.441 9.759 4.557 9.976l.192.384.166-.384c.103-.217.448-.985.794-1.726.332-.742 5.017-11.025 10.392-22.856l9.791-21.525h4.658c4.365 0 4.646.013 4.582.218-.077.307-20.836 45.876-21.36 46.887-1.05 2.097-2.842 3.939-4.787 4.924-2.88 1.47-6.809 1.253-9.548-.512-1.023-.652-2.431-2.097-3.148-3.184-.294-.46-3.801-8.032-7.781-16.819-3.994-8.786-8.819-19.427-10.726-23.648-1.92-4.22-3.52-7.674-3.583-7.674-.051 0-.602 1.138-1.241 2.545a691 691 0 0 1-2.087 4.604 903 903 0 0 0-3.212 7.048c-1.241 2.737-2.406 5.307-2.585 5.691-.18.384-2.88 6.331-6.003 13.212a4210 4210 0 0 1-5.874 12.892l-.205.37h-4.595c-2.905 0-4.607-.05-4.607-.127 0-.192 21.322-47.143 21.847-48.09 1.37-2.519 3.878-4.514 6.335-5.051 1.241-.269 3.328-.243 4.505.064m37.448 6.714c0 .09-9.074 23.086-9.202 23.316-.102.192-.14.179-.243-.102-.077-.18-2.125-5.385-4.57-11.575-2.444-6.19-4.466-11.357-4.504-11.485-.064-.205.435-.218 9.228-.218 5.106 0 9.291.026 9.291.064m-39.61 23.303c.14.396 6.846 17.394 7.998 20.31.614 1.548 1.088 2.852 1.062 2.903-.025.064-4.197.103-9.253.103-5.055 0-9.227-.039-9.253-.103-.064-.127 9.138-23.43 9.253-23.43.064 0 .14.102.192.217"/></svg>
