<svg xmlns="http://www.w3.org/2000/svg" viewBox="0 0 192 128"><path fill="#f1ac00" d="M63.555-.027h.863a56 56 0 0 1 4.77.144l.203.016C76.09.672 82.758 2.277 91.82 6.23l.16.079c1.496.722 2.96 1.48 4.386 2.343q.333.198.664.391c3.496 2.05 6.774 4.52 9.774 7.242q.21.193.422.38.596.525 1.152 1.093.239.233.496.449a15.6 15.6 0 0 1 1.656 1.68c.156.18.32.343.489.508.273.27.53.55.78.843q.26.299.532.59c.402.45.781.914 1.16 1.383q.128.157.262.316.901 1.095 1.746 2.239.124.174.254.343a57 57 0 0 1 3.512 5.348q.174.305.355.605c2.918 4.981 5.07 10.395 6.5 15.981l.047.184c1.277 4.988 1.883 10.05 1.871 15.195v1.055c.04 6.664-1.023 13.246-3.11 19.578l-.1.3a60 60 0 0 1-4.97 11.153q-.19.327-.367.66c-1.719 3.121-3.894 6.055-6.168 8.793q-.057.064-.11.129a48 48 0 0 1-1.554 1.773c-.18.196-.355.39-.531.594-.25.29-.52.563-.797.832q-.238.241-.453.5a15.6 15.6 0 0 1-1.676 1.652 10 10 0 0 0-.555.536c-.343.343-.699.664-1.066.98l-.277.242a63 63 0 0 1-4.16 3.344l-.192.14c-2.8 2.07-5.773 3.868-8.871 5.454q-.235.119-.465.238c-6.12 3.172-12.945 5.195-20.18 6.172l-.183.023c-2.586.348-5.184.473-7.79.465a48 48 0 0 0-1.054 0c-2.86.008-5.71-.176-8.543-.59l-.207-.03a63 63 0 0 1-10.894-2.606 56.4 56.4 0 0 1-12.066-5.473c-.188-.11-.38-.223-.571-.328-1.8-1.024-3.531-2.227-5.188-3.465q-.088-.069-.183-.137a62 62 0 0 1-4.48-3.695q-.196-.175-.391-.352c-1.184-1.054-2.387-2.129-3.418-3.332a10 10 0 0 0-.489-.507 16 16 0 0 1-.937-1.024q-.118-.135-.23-.27-.333-.387-.665-.769l-.375-.441a37 37 0 0 1-1.433-1.786l-.352-.46c-4.671-6.145-8.135-13.067-11.28-23.836l-.047-.192a66 66 0 0 1-1.472-9.265l-.047-.524a58 58 0 0 1 .03-10.242q.014-.188.032-.371a63.5 63.5 0 0 1 5.024-19.844c.21-.492.433-.976.66-1.46q.057-.117.11-.24c1.839-3.948 4.081-7.722 6.718-11.194.047-.067.098-.13.144-.196a51 51 0 0 1 1.774-2.199c.203-.238.402-.484.597-.727.352-.433.727-.843 1.106-1.25q.271-.298.535-.601c.25-.293.524-.563.797-.832.156-.16.3-.32.445-.488.57-.664 1.2-1.278 1.867-1.848a10 10 0 0 0 .5-.48c.329-.333.672-.633 1.024-.938l.277-.242a63 63 0 0 1 4.16-3.344q.093-.07.192-.14c2.797-2.067 5.77-3.868 8.863-5.45l.727-.375C41.993 3.258 49 1.29 56.746.32l.332-.039q.557-.063 1.121-.11l.25-.023c1.703-.148 3.399-.18 5.106-.175m0 0"/><path fill="#010100" d="M47.71 25.223h.188c3.778.011 7.364 1.28 10.09 3.925q.171.165.348.329c2.043 1.941 3.598 4.878 4.129 7.644v.254h4.523c.11-.508.223-1.012.34-1.535.094-.3.188-.586.305-.88l.086-.222a17 17 0 0 1 2.254-3.933q.094-.122.187-.25c.91-1.16 1.988-2.192 3.227-2.992.062-.04.12-.079.183-.122 1.426-.902 2.95-1.492 4.594-1.84a14.2 14.2 0 0 1 3.18-.363c.176 0 .347-.004.523-.008 1.012-.003 2.008.082 2.785.797.403.496.633.93.618 1.575-.07.699-.383 1.171-.918 1.609-.332.223-.684.363-1.067.484l-.254.086c-1.16.078-1.918-.152-2.914-.722-.726-.387-1.46-.223-2.21.007-2.923.993-5.25 2.875-6.72 5.59-.05.098-.05.098-.109.2-.414.796-.66 1.667-.933 2.519h.238q1.127-.012 2.254-.012.58-.001 1.16-.008c2.629-.02 5.25.07 7.781.875l.156.047c1.266.41 2.864.961 3.79 1.95.214.156.214.156.402.113a9 9 0 0 0 .601-.235q.231-.08.461-.156a6 6 0 0 1 .242-.086c4.915-1.672 10.235-2.11 15 .2 2.13 1.101 3.73 2.957 4.47 5.234.253.867.343 1.715.34 2.617v.316a9.8 9.8 0 0 1-.372 2.543q-.034.14-.074.286c-.969 3.539-3.649 6.789-6.496 9.015q-.137.113-.274.219c-4.89 3.965-4.89 3.965-6.894 3.965.23.23.465.465.699.695.605.594 1.172 1.192 1.687 1.863l.266.332c2.219 2.829 3.578 6.004 3.32 9.653a7.7 7.7 0 0 1-.855 2.558l-.113.215c-1.125 1.985-3 3.215-5.16 3.817-2.665.703-5.481.546-8.122-.192q-.01.164-.027.332c-.05.453-.187.84-.36 1.258q-.041.11-.09.223c-1.132 2.691-3.284 4.601-5.964 5.699a18 18 0 0 1-1.324.426l-.305.093a17 17 0 0 1-5.074.672l-.07.188a6 6 0 0 1-.336.676l-.141.257q-.075.134-.156.274l-.16.285q-.614 1.083-1.247 2.16-.532.916-1.046 1.836c-.493.887-1 1.766-1.512 2.64q-.269.451-.52.907c-.757 1.355-.757 1.355-1.457 1.582-.625.117-1.195.117-1.73-.25-.426-.39-.692-.824-.95-1.332-.046-.098-.046-.098-.097-.2q-.166-.321-.324-.644a25 25 0 0 1-.23-.449c-.157-.309-.313-.613-.466-.922q-.428-.837-.863-1.676-.217-.42-.433-.847c-.204-.387-.403-.778-.606-1.168-.2-.383-.394-.77-.594-1.153a25 25 0 0 1-.23-.449c-.11-.207-.215-.414-.324-.625-.047-.094-.047-.094-.098-.187-.137-.27-.254-.52-.316-.817l-.32.012c-3.973.102-7.403-1.496-10.302-4.125-1.253-1.203-2.253-2.742-2.949-4.332v-.172l-.16.078c-1.871.66-4.676.59-6.582.094l-.379-.09c-.906-.219-1.707-.562-2.52-1.02q-.128-.074-.257-.144c-1.7-1.016-2.887-2.668-3.414-4.566-.18-.727-.207-1.446-.211-2.192l-.004-.308c.05-3.364 1.957-6.57 4.14-9.004q.059-.067.122-.133c1.12-1.254 1.12-1.254 1.586-1.66h.171v-.168l-.136-.043c-3.239-1.028-6.23-3.258-8.653-5.59-.07-.07-.07-.07-.144-.137-2.652-2.562-5.082-6.191-5.16-9.992-.016-1.8-.016-1.8.183-2.586l.063-.277c.582-2.305 2.164-4.196 4.18-5.403 1.285-.742 2.667-1.195 4.12-1.488.102-.023.102-.023.212-.043 2.117-.406 4.414-.347 6.53.043l.544.094c2.539.45 4.89 1.289 7.222 2.379l.184-.184c1.996-1.996 4.637-3.66 7.559-3.664h1.445c.383 0 .766.004 1.152.004H57c.77 0 1.54.004 2.309.004-.442-1.402-.442-1.402-1.059-2.734q-.058-.111-.121-.227c-.516-.934-1.164-1.723-1.895-2.5a5 5 0 0 0-.136-.152c-1.168-1.258-2.801-2.059-4.391-2.633l-.242-.086c-.649-.223-1.324-.348-1.973-.055q-.105.042-.21.094-.437.206-.86.43c-.73.343-1.559.39-2.34.21-.762-.28-1.46-.796-1.82-1.535-.14-.671-.137-1.23.234-1.82.82-1.055 1.965-1.148 3.215-1.144m0 0"/><path fill="#f3b638" d="M53.965 40.434h1.258c.23 0 .465 0 .695-.004H58q.394-.005.79-.004c1.16 0 2.315 0 3.476-.004h1.062c1.137 0 2.274-.004 3.41-.004q1.758-.005 3.516-.004l1.965-.004q.839-.005 1.68-.004h.851c1.965-.011 4.012.094 5.89.723.055.02.106.039.165.055 1.222.41 2.37.953 3.332 1.824q.11.092.215.191c1.882 1.766 2.453 4.399 2.543 6.895q.015.803.007 1.605v.59c.004.41 0 .82 0 1.23v1.56c.004.405 0 .812 0 1.218v.574c.008 1.766-.09 3.5-.715 5.168l-.105.277c-.379.961-.883 1.715-1.602 2.454-.05.05-.097.105-.152.156-1.254 1.226-3.082 1.629-4.754 1.851a5 5 0 0 1-.265.04l-.239.03c-.254.063-.43.173-.648.31h-.172q-.034.074-.074.152a10 10 0 0 1-.184.347c-.187.418-.129.899.012 1.32.328.465.703.676 1.203.926 1.375.73 2.129 1.875 2.602 3.328.257.926.21 1.903.21 2.856v1.348l.004 1.16v.902c0 .14 0 .285.004.426.008 2.289-.574 4.539-2.199 6.226-2.418 2.395-6.355 2.801-9.59 2.79-.152.003-.308.003-.46.003h-4.723q-1.261-.006-2.516 0h-5.121c-1.164 0-2.297-.062-3.418-.39l-.195-.059c-1.809-.535-3.29-1.535-4.653-2.816q-.075-.069-.152-.137c-1.246-1.16-2.16-2.852-2.617-4.477q-.066-.228-.137-.457c-.367-1.343-.3-2.734-.293-4.117V73.04q.005-1.336.004-2.665c0-1.582 0-3.168.004-4.75 0-1.535.004-3.07.004-4.605v-.575c-.004-1.75 0-3.5 0-5.254V53.34c0-.754.004-1.508.004-2.262v-1.152q-.001-.527.004-1.055v-.379c-.008-2.265.824-4.176 2.382-5.808 1.555-1.48 3.47-2.25 5.61-2.25m0 0"/><path fill="#dbdbdb" d="M34.215 41.531h.183c1.067.004 2.098.09 3.149.282.074.011.144.027.223.039.976.171 1.914.402 2.847.73q.122.04.25.086c1.02.352 2.031.703 2.996 1.195q-.057.153-.11.313l-.07.215c-.054.16-.105.32-.163.484-.434 1.32-.551 2.633-.547 4.016q-.005.232-.004.464-.005.624-.004 1.247l-.004 1.308q-.007 1.232-.008 2.469l-.012 2.812-.02 5.786-.526-.082c-.149-.02-.149-.02-.297-.043a13 13 0 0 1-1.11-.239c-.074-.02-.148-.035-.222-.054-4.907-1.282-9.98-4.278-12.946-8.457l-.113-.153c-1.562-2.195-2.488-4.613-2.152-7.34.32-1.449 1.3-2.714 2.53-3.52 1.142-.694 2.352-1.116 3.657-1.362l.246-.043c.742-.13 1.473-.157 2.227-.153m67.825 2.067c1.065.965 1.788 2.199 1.917 3.648a8.8 8.8 0 0 1-.875 4.379l-.129.285c-.547 1.149-1.258 2.168-2.09 3.13l-.172.202c-.859.977-1.777 1.914-2.812 2.7l-.18.136c-2.074 1.582-5.644 4.215-8.355 4.215.035-.375.074-.738.164-1.105.328-1.442.289-2.926.293-4.395v-2.168q.001-.838.008-1.676v-1.457q-.001-.431.004-.863c.011-2.418-.188-5.227-1.598-7.3-.153-.235-.153-.235-.153-.493 1.29-.508 2.626-.793 3.985-1.043.113-.023.113-.023.23-.043 3.149-.559 7.223-.344 9.762 1.848m0 0"/><path fill="#010100" d="M60.672 49.48h.547q.144 0 .3-.003h1.497q.714-.005 1.43-.004.924.001 1.843-.004.715-.005 1.43-.004h.851q.474-.006.953 0 .136-.005.278-.004c1.14.004 2.344.363 3.195 1.156.887 1.02 1.086 2.074 1.086 3.383 0 .098.004.191.004.293v.617q-.001.469.004.938v.882c-.004 1.18-.227 2.317-1.059 3.208-1.023.894-2.082 1.085-3.394 1.09l-.313.003c-.336 0-.676 0-1.011.004h-.352l-1.645.004-1.89.004-1.469.008h-.875q-.488.005-.977.004c-.097 0-.19 0-.289.004-.554-.004-.89-.059-1.34-.387-.148-.156-.148-.156-.246-.305-.03-.047-.066-.097-.097-.148-.149-.262-.18-.48-.18-.77v-.48q-.005-.13-.004-.266v-.867c0-.2-.004-.402-.004-.602V55.97l-.004-1.621q-.005-.623-.004-1.246v-.598c-.003-.277-.003-.559-.003-.836v-.25c.004-.559.07-.992.449-1.43q.087-.069.176-.144l.171-.149c.301-.203.586-.21.942-.215m0 0"/><path fill="#c1c1c1" d="m89.82 65.672.22.191c.12.102.12.102.241.211l.258.23c.043.04.086.075.129.114 2.387 2.129 4.953 5.117 5.176 8.469.047.972.043 1.863-.356 2.765-.031.07-.058.137-.09.207-.605 1.215-1.734 1.985-2.984 2.438-2.332.71-4.914.578-7.25-.082-.152-.153-.098-.371-.102-.578v-.317q0-.088-.003-.172.001-.27-.004-.539l-.012-1.527c-.02-2.957-.32-5.465-2.012-7.96a6 6 0 0 0 .235-.11c1.5-.68 3.164-1.504 4.09-2.93.28-.293.566-.328.953-.402l.203-.043c.941-.192.941-.192 1.308.035m0 0"/><path fill="#010100" d="M60.7 69.02h.222q.365.001.73-.004h1.578c.458 0 .91-.004 1.368-.008h1.05q.252.001.504-.004c1.395-.008 2.508.086 3.59 1.062.867.907 1.11 1.996 1.11 3.211v.262q.004.27.003.54c-.003.273 0 .542.004.816.004 1.464-.117 2.73-1.152 3.851-1.152 1.078-2.55 1.07-4.031 1.074l-.235.004c-.414 0-.828.004-1.242.004q-.633.001-1.273.008l-.985.008q-.233-.001-.472.004c-1.461.02-1.461.02-2.02-.395-.433-.535-.535-1.027-.531-1.703v-.246c-.004-.27 0-.535 0-.8q.001-.282-.004-.563-.001-.587.004-1.172l-.004-1.5q-.005-.579-.004-1.156v-1.555c.008-.531.145-.883.48-1.297.446-.402.727-.438 1.31-.441m0 0"/><path fill="silver" d="M40.262 65.484c.129.032.254.063.379.102l.367.094c.066.015.133.035.199.05.336.079.676.137 1.02.196l.203.035q.246.046.492.086v.207l.031 4.98.012 2.41.012 2.102.007 1.11.004 1.046c0 .13.004.258.004.383.004.735.028 1.457.102 2.184-1.672.297-3.45.465-5.121.086l-.25-.047c-1.344-.285-2.614-1.047-3.418-2.172-.84-1.516-.899-3.184-.453-4.84.496-1.68 1.386-3.203 2.5-4.547.074-.09.144-.18.218-.27a18 18 0 0 1 2.938-2.886l.195-.2c.234-.144.234-.144.559-.109m0 0"/><path fill="#c19066" d="m62.04 52.566 2.944-.02q.903 0 1.805-.007l1.453-.008q.278.001.555-.004h.777c.114-.004.114-.004.23-.004.466.004.75.059 1.106.383.11.246.098.492.102.758v.25q.005.13.004.266v.277q-.001.292.004.578 0 .447.003.887v.562c.004.09.004.176.004.27 0 .77 0 .77-.285 1.101-.195.098-.3.098-.515.098h-.22c-.077 0-.16 0-.237-.004h-1.657q-.756.001-1.511-.004h-1.809l-2.754-.004zm0 0"/><path fill="#c29066" d="M62.04 72.105q1.02-.011 2.042-.02l.953-.01q.459-.008.918-.009c.117 0 .234-.004.352-.004.914-.019.914-.019 1.308.208.2.37.2.68.188 1.097v.242q.001.252-.004.504-.007.389-.008.778.001.246-.004.492v.234l-.004.215c0 .098 0 .098-.004.191a1.1 1.1 0 0 1-.191.52c-.277.195-.527.191-.86.191h-.316c-.113 0-.222-.004-.34-.004h-.347l-.918-.003-.934-.004q-.919-.001-1.832-.008zm0 0"/><circle cx="64" cy="64" r="64" fill="#78350f" transform="translate(64)"/><circle cx="64" cy="64" r="58" fill="#fff" transform="translate(64)"/><path fill="#78350f" d="M111.52 41.136a10 10 0 0 0-3.486-1.37 9.2 9.2 0 0 0-3.668.042 9 9 0 0 0-3.288 1.442 8.6 8.6 0 0 0-2.414 2.634 9 9 0 0 0-1.168 3.424 9.4 9.4 0 0 0 .252 3.682c.538 2.012 3.024 2.396 4.732 1.172l4.352-3.112 4.364-3.12c1.706-1.226 2.104-3.674.324-4.794m46.014 2.748a8.66 8.66 0 0 0-5.702-4.076 9.2 9.2 0 0 0-3.668-.04 10 10 0 0 0-3.488 1.368c-1.78 1.12-1.38 3.568.326 4.792l4.364 3.122 4.352 3.112c1.708 1.224 4.194.84 4.732-1.172a9.4 9.4 0 0 0 .252-3.682 9 9 0 0 0-1.168-3.424M131.63 77.598a10.16 10.16 0 0 0-6.47 0c-1.16.394-2.172 1.006-2.108 1.928.116 1.412 2.36 3.828 3.982 4.326.992.3 1.614.28 2.72 0 1.622-.416 3.878-2.914 3.984-4.326.074-.922-.95-1.532-2.108-1.928m-11.118-4.544a7.2 7.2 0 0 0-2.128-1.888 6.8 6.8 0 0 0-2.666-.88 7 7 0 0 0-2.804.258c-.906.28-1.76.736-2.508 1.36a7.6 7.6 0 0 0-1.834 2.25c-.77 1.44.454 2.956 2.098 3.142l4.152.468 4.184.476c1.644.188 3.192-1.006 2.77-2.582a7.6 7.6 0 0 0-1.264-2.604m25.736-1.298a7.4 7.4 0 0 0-2.51-1.36 7 7 0 0 0-2.802-.258 6.8 6.8 0 0 0-2.666.882 7.2 7.2 0 0 0-2.13 1.888 7.5 7.5 0 0 0-1.264 2.604c-.42 1.576 1.128 2.77 2.76 2.582l4.186-.476 4.16-.468c1.646-.186 2.868-1.7 2.1-3.142a7.8 7.8 0 0 0-1.834-2.252"/><path fill="#78350f" d="M166.018 61.8a20.7 20.7 0 0 0 5.438-14.22 20.6 20.6 0 0 0-2.076-8.788c-3.732-7.718-13.174-13.744-22.838-11.732q-.59.13-1.168.302a11.6 11.6 0 0 0-3.92 2.08c-2.582 2.06-7.326 3.44-12.752 3.44h-.616c-5.424 0-10.168-1.384-12.75-3.444a11.6 11.6 0 0 0-3.922-2.078 16 16 0 0 0-1.168-.302c-9.662-2.012-19.104 4.014-22.836 11.732a20.6 20.6 0 0 0-2.076 8.786 20.72 20.72 0 0 0 5.44 14.222 1.46 1.46 0 0 1 .356 1.204c-2.328 13.1 1.108 23.88 8.18 31.554 7.428 8.06 18.324 12.076 28.894 12.294h.382c10.568-.218 21.466-4.232 28.894-12.292 7.072-7.676 10.508-18.454 8.18-31.556a1.45 1.45 0 0 1 .356-1.204zm-6.186-2.272a1.74 1.74 0 0 0-.6 1.764c5.49 22.872-8.62 36.224-24.83 39.086h-.01a38 38 0 0 1-4.732.54c-.094 0-.2.01-.294.01-.296.02-.6.02-.896.032h-.074l-.02-.002h-.054c-.296-.01-.6-.01-.896-.03-.094 0-.2-.012-.296-.012a38 38 0 0 1-4.73-.54h-.012c-16.208-2.86-30.32-16.212-24.828-39.086a1.74 1.74 0 0 0-.6-1.762 15 15 0 0 1-5.66-11.9 14.9 14.9 0 0 1 1.486-6.306c2.76-5.716 9.706-9.876 16.23-8.516.764.156 2.812.82 4.808 1.756.724.34 1.404.764 2.04 1.244 2.616 1.976 7.25 3.29 12.532 3.296 5.284-.004 9.92-1.32 12.534-3.294.636-.48 1.314-.904 2.04-1.244 1.994-.936 4.042-1.6 4.808-1.758 6.522-1.36 13.468 2.8 16.23 8.518a14.9 14.9 0 0 1 1.484 6.306 15 15 0 0 1-5.66 11.898"/></svg>
