<?xml version="1.0" encoding="UTF-8"?>
<svg xmlns="http://www.w3.org/2000/svg" xmlns:xlink="http://www.w3.org/1999/xlink" width="192px" height="128px" viewBox="0 0 192 128" version="1.1">
<g id="surface1">
<path style=" stroke:none;fill-rule:nonzero;fill:rgb(58.823532%,81.176472%,0%);fill-opacity:1;" d="M 95.253906 -0.078125 C 96 -0.0742188 96.742188 -0.078125 97.488281 -0.0820312 C 101.566406 -0.0859375 105.535156 0.296875 109.523438 1.148438 C 109.765625 1.203125 110.011719 1.253906 110.261719 1.304688 C 112.492188 1.792969 114.648438 2.433594 116.800781 3.199219 C 116.972656 3.261719 117.140625 3.320312 117.316406 3.382812 C 122.984375 5.402344 128.332031 8.058594 133.199219 11.601562 C 133.335938 11.699219 133.472656 11.796875 133.613281 11.898438 C 135.109375 12.988281 136.566406 14.089844 137.917969 15.355469 C 138.320312 15.722656 138.726562 16.082031 139.136719 16.4375 C 140.09375 17.269531 140.992188 18.152344 141.886719 19.050781 C 142.054688 19.21875 142.222656 19.386719 142.398438 19.558594 C 143.546875 20.722656 144.597656 21.910156 145.601562 23.199219 C 145.933594 23.59375 146.265625 23.984375 146.601562 24.375 C 147.617188 25.597656 148.523438 26.875 149.398438 28.199219 C 149.488281 28.332031 149.574219 28.464844 149.667969 28.597656 C 155.816406 37.820312 160.054688 49.09375 160.066406 60.273438 C 160.070312 60.578125 160.070312 60.882812 160.070312 61.1875 C 160.074219 61.824219 160.074219 62.460938 160.074219 63.097656 C 160.074219 63.738281 160.078125 64.375 160.082031 65.015625 C 160.117188 69.023438 159.96875 72.851562 159.199219 76.800781 C 159.15625 77.023438 159.15625 77.023438 159.113281 77.25 C 158.960938 78.03125 158.777344 78.804688 158.574219 79.574219 C 158.488281 79.917969 158.488281 79.917969 158.398438 80.265625 C 155.648438 90.585938 150.578125 99.722656 143.398438 107.601562 C 143.089844 107.945312 142.785156 108.292969 142.476562 108.636719 C 141.402344 109.828125 140.292969 110.945312 139.078125 111.988281 C 138.71875 112.300781 138.359375 112.613281 138.003906 112.929688 C 136.160156 114.554688 134.21875 116.003906 132.199219 117.398438 C 132.035156 117.511719 131.875 117.625 131.707031 117.742188 C 131.542969 117.851562 131.382812 117.964844 131.214844 118.078125 C 131.070312 118.175781 130.921875 118.277344 130.773438 118.378906 C 130.398438 118.601562 130.398438 118.601562 130 118.601562 C 129.933594 118.730469 129.867188 118.863281 129.800781 119 C 121.308594 124.542969 110.363281 128.058594 100.207031 128.066406 C 99.890625 128.070312 99.570312 128.070312 99.25 128.070312 C 98.582031 128.074219 97.917969 128.074219 97.25 128.074219 C 96.578125 128.074219 95.90625 128.078125 95.234375 128.082031 C 91.222656 128.113281 87.351562 128.027344 83.398438 127.199219 C 83.246094 127.167969 83.09375 127.136719 82.9375 127.105469 C 82.09375 126.921875 81.257812 126.710938 80.425781 126.488281 C 80.203125 126.429688 79.976562 126.371094 79.746094 126.3125 C 79.3125 126.199219 78.875 126.082031 78.4375 125.96875 C 77.429688 125.703125 76.414062 125.449219 75.398438 125.199219 C 75.398438 125.066406 75.398438 124.9375 75.398438 124.800781 C 75.144531 124.75 74.894531 124.699219 74.632812 124.648438 C 73.542969 124.40625 72.53125 124.019531 71.5 123.601562 C 71.320312 123.527344 71.136719 123.457031 70.953125 123.382812 C 70.695312 123.28125 70.695312 123.28125 70.429688 123.175781 C 70.277344 123.113281 70.121094 123.050781 69.960938 122.984375 C 69.601562 122.800781 69.601562 122.800781 69.398438 122.398438 C 69.066406 122.328125 68.734375 122.261719 68.398438 122.199219 C 68.074219 122.054688 67.753906 121.902344 67.441406 121.734375 C 67.261719 121.640625 67.082031 121.546875 66.898438 121.449219 C 66.710938 121.351562 66.527344 121.25 66.335938 121.148438 C 66.15625 121.054688 65.972656 120.957031 65.785156 120.859375 C 64.808594 120.34375 63.859375 119.804688 62.933594 119.199219 C 62.570312 118.964844 62.570312 118.964844 62 118.800781 C 62 118.667969 62 118.535156 62 118.398438 C 61.867188 118.359375 61.738281 118.316406 61.601562 118.269531 C 60.78125 117.902344 60.089844 117.390625 59.363281 116.863281 C 59.058594 116.644531 58.753906 116.425781 58.449219 116.210938 C 58.230469 116.050781 58.230469 116.050781 58.007812 115.890625 C 57.351562 115.421875 56.683594 114.96875 56.015625 114.519531 C 55.496094 114.121094 55.058594 113.667969 54.601562 113.199219 C 54.179688 112.800781 53.753906 112.40625 53.324219 112.011719 C 53.210938 111.90625 53.09375 111.800781 52.976562 111.691406 C 52.402344 111.164062 51.824219 110.644531 51.226562 110.148438 C 50.597656 109.625 50.082031 109.027344 49.550781 108.402344 C 48.832031 107.578125 48.039062 106.828125 47.25 106.074219 C 46.800781 105.601562 46.800781 105.601562 46.523438 105.136719 C 46.175781 104.5625 45.78125 104.074219 45.351562 103.5625 C 44.378906 102.386719 43.460938 101.183594 42.6875 99.867188 C 42.414062 99.382812 42.414062 99.382812 42 99 C 41.734375 98.558594 41.476562 98.113281 41.226562 97.664062 C 41.15625 97.542969 41.089844 97.421875 41.019531 97.300781 C 40.882812 97.054688 40.746094 96.8125 40.609375 96.570312 C 40.464844 96.316406 40.320312 96.0625 40.171875 95.808594 C 39.601562 94.839844 39.601562 94.839844 39.601562 94.398438 C 39.46875 94.398438 39.335938 94.398438 39.199219 94.398438 C 36.421875 88.761719 34.339844 82.9375 33 76.800781 C 32.964844 76.644531 32.933594 76.488281 32.898438 76.328125 C 32.074219 72.492188 31.933594 68.6875 31.949219 64.777344 C 31.949219 64.015625 31.949219 63.253906 31.945312 62.488281 C 31.941406 58.550781 32.1875 54.773438 33.039062 50.925781 C 33.066406 50.785156 33.097656 50.644531 33.128906 50.5 C 33.671875 48.011719 34.34375 45.597656 35.199219 43.199219 C 35.265625 43.011719 35.332031 42.820312 35.402344 42.625 C 36.773438 38.714844 38.414062 34.933594 40.617188 31.417969 C 40.9375 30.902344 41.230469 30.386719 41.511719 29.851562 C 42.109375 28.761719 42.855469 27.789062 43.601562 26.800781 C 43.746094 26.601562 43.890625 26.40625 44.039062 26.203125 C 47.296875 21.8125 51.058594 17.550781 55.398438 14.199219 C 55.621094 14.019531 55.839844 13.835938 56.058594 13.652344 C 63.585938 7.398438 72.953125 3.171875 82.488281 1.148438 C 82.707031 1.101562 82.925781 1.054688 83.148438 1.007812 C 87.171875 0.195312 91.15625 -0.0976562 95.253906 -0.078125 Z M 95.253906 -0.078125 "/>
<path style=" stroke:none;fill-rule:nonzero;fill:rgb(96.862745%,69.803923%,0%);fill-opacity:1;" d="M 118 9.199219 C 118.144531 9.265625 118.289062 9.328125 118.441406 9.394531 C 121.441406 10.714844 124.410156 12.070312 127.199219 13.800781 C 127.664062 14.070312 128.132812 14.335938 128.601562 14.601562 C 128.601562 14.730469 128.601562 14.863281 128.601562 15 C 128.796875 15 128.996094 15 129.199219 15 C 129.199219 15.132812 129.199219 15.265625 129.199219 15.398438 C 129.398438 15.398438 129.597656 15.398438 129.800781 15.398438 C 129.800781 15.53125 129.800781 15.664062 129.800781 15.800781 C 129.957031 15.863281 130.113281 15.921875 130.273438 15.988281 C 130.800781 16.199219 130.800781 16.199219 131.199219 16.398438 C 131.199219 16.53125 131.199219 16.664062 131.199219 16.800781 C 131.347656 16.855469 131.496094 16.90625 131.648438 16.960938 C 132.179688 17.191406 132.570312 17.417969 133 17.800781 C 133 17.933594 133 18.0625 133 18.199219 C 133.160156 18.253906 133.320312 18.308594 133.488281 18.363281 C 133.65625 18.441406 133.824219 18.519531 134 18.601562 C 134.066406 18.796875 134.132812 18.996094 134.199219 19.199219 C 134.570312 19.410156 134.570312 19.410156 135 19.601562 C 135.269531 19.796875 135.539062 19.992188 135.800781 20.199219 C 135.6875 20.953125 135.375 21.296875 134.839844 21.828125 C 134.675781 21.992188 134.515625 22.15625 134.347656 22.328125 C 134.164062 22.503906 133.984375 22.683594 133.800781 22.867188 C 133.609375 23.054688 133.417969 23.246094 133.226562 23.4375 C 132.710938 23.953125 132.1875 24.46875 131.667969 24.984375 C 131.125 25.523438 130.582031 26.066406 130.042969 26.605469 C 129.015625 27.628906 127.984375 28.652344 126.957031 29.675781 C 125.113281 31.507812 123.269531 33.339844 121.429688 35.175781 C 120.785156 35.820312 120.136719 36.464844 119.488281 37.105469 C 119.085938 37.503906 118.683594 37.90625 118.28125 38.304688 C 118.007812 38.578125 117.730469 38.855469 117.453125 39.128906 C 117.289062 39.289062 117.128906 39.453125 116.960938 39.621094 C 116.816406 39.761719 116.675781 39.902344 116.527344 40.050781 C 116.183594 40.382812 116.183594 40.382812 116 40.800781 C 115.445312 40.640625 114.921875 40.472656 114.421875 40.179688 C 112.644531 39.140625 110.605469 38.914062 108.601562 38.601562 C 108.355469 38.5625 108.113281 38.523438 107.863281 38.484375 C 106.550781 38.328125 105.222656 38.324219 103.898438 38.289062 C 103.617188 38.277344 103.335938 38.269531 103.054688 38.261719 C 102.371094 38.238281 101.683594 38.21875 101 38.199219 C 101.566406 35.277344 103.34375 33.074219 105.71875 31.308594 C 107.164062 30.382812 108.851562 29.558594 110.601562 29.800781 C 110.996094 29.980469 110.996094 29.980469 111.386719 30.199219 C 112.488281 30.808594 113.484375 30.703125 114.6875 30.460938 C 115.222656 30.242188 115.222656 30.242188 115.476562 29.773438 C 115.644531 28.988281 115.691406 28.410156 115.601562 27.601562 C 114.828125 26.808594 114.257812 26.574219 113.179688 26.558594 C 112.753906 26.554688 112.328125 26.550781 111.898438 26.550781 C 111.691406 26.546875 111.480469 26.542969 111.261719 26.539062 C 109.867188 26.53125 108.707031 26.71875 107.398438 27.199219 C 107.183594 27.273438 106.972656 27.351562 106.75 27.429688 C 102.777344 29.03125 100.34375 31.980469 98.621094 35.835938 C 98.316406 36.613281 98.0625 37.40625 97.800781 38.199219 C 96.347656 38.199219 94.894531 38.199219 93.398438 38.199219 C 93.296875 37.863281 93.195312 37.523438 93.085938 37.175781 C 91.773438 33.273438 89.375 29.828125 85.648438 27.914062 C 83.429688 26.84375 81.226562 26.554688 78.789062 26.5 C 78.609375 26.492188 78.429688 26.488281 78.246094 26.480469 C 77.386719 26.480469 76.777344 26.519531 76.082031 27.054688 C 75.585938 27.539062 75.585938 27.539062 75.476562 28.019531 C 75.511719 28.414062 75.554688 28.808594 75.601562 29.199219 C 75.617188 29.355469 75.632812 29.511719 75.648438 29.675781 C 75.863281 30.136719 76.136719 30.21875 76.601562 30.398438 C 76.730469 30.464844 76.863281 30.53125 77 30.601562 C 78.265625 30.742188 79.128906 30.601562 80.226562 29.980469 C 81.097656 29.558594 81.863281 29.757812 82.75 30.023438 C 83.035156 30.144531 83.320312 30.269531 83.601562 30.398438 C 83.765625 30.476562 83.933594 30.550781 84.105469 30.628906 C 86.40625 31.773438 88.527344 33.628906 89.601562 36 C 89.820312 36.726562 90.015625 37.460938 90.199219 38.199219 C 89.933594 38.203125 89.933594 38.203125 89.660156 38.207031 C 88.984375 38.214844 88.308594 38.226562 87.628906 38.242188 C 87.339844 38.246094 87.050781 38.25 86.761719 38.253906 C 82.941406 38.292969 79.894531 39.199219 77 41.800781 C 76.933594 41.933594 76.867188 42.0625 76.800781 42.199219 C 76.523438 42.113281 76.25 42.027344 75.976562 41.9375 C 75.820312 41.890625 75.667969 41.839844 75.511719 41.789062 C 75 41.601562 75 41.601562 74.417969 41.304688 C 73.332031 40.769531 72.167969 40.503906 71 40.199219 C 70.777344 40.140625 70.554688 40.078125 70.328125 40.015625 C 68.699219 39.625 67.132812 39.539062 65.460938 39.523438 C 65.257812 39.523438 65.050781 39.519531 64.835938 39.515625 C 61.78125 39.535156 58.816406 40.476562 56.496094 42.496094 C 54.757812 44.261719 53.988281 46.230469 53.925781 48.675781 C 54.019531 52.214844 55.609375 55.414062 58 58 C 58.089844 58.097656 58.175781 58.195312 58.269531 58.296875 C 60.8125 61.082031 63.789062 63.03125 67.199219 64.601562 C 67.332031 64.664062 67.464844 64.730469 67.601562 64.800781 C 67.296875 65.535156 66.859375 65.953125 66.273438 66.488281 C 64.460938 68.269531 63.386719 70.484375 62.398438 72.800781 C 62.324219 72.953125 62.25 73.105469 62.171875 73.265625 C 61.925781 74.027344 61.933594 74.753906 61.9375 75.550781 C 61.9375 75.710938 61.9375 75.871094 61.941406 76.039062 C 61.960938 77.1875 62.097656 78.15625 62.601562 79.199219 C 62.71875 79.496094 62.71875 79.496094 62.835938 79.800781 C 64.144531 81.960938 66.058594 83.25 68.5 83.875 C 69.71875 84.085938 70.964844 84.132812 72.199219 84.199219 C 71.253906 85.335938 70.242188 86.386719 69.191406 87.429688 C 69.015625 87.605469 68.835938 87.785156 68.65625 87.96875 C 68.171875 88.453125 67.6875 88.933594 67.203125 89.417969 C 66.695312 89.921875 66.1875 90.429688 65.683594 90.9375 C 64.726562 91.894531 63.765625 92.851562 62.808594 93.808594 C 61.714844 94.898438 60.625 95.988281 59.53125 97.078125 C 57.289062 99.320312 55.042969 101.558594 52.800781 103.800781 C 51.871094 103.464844 51.457031 103.078125 50.835938 102.300781 C 50.601562 102.007812 50.601562 102.007812 50.359375 101.707031 C 50 101.199219 50 101.199219 50 100.800781 C 49.867188 100.800781 49.734375 100.800781 49.601562 100.800781 C 46.933594 97.65625 44.90625 93.867188 43.019531 90.226562 C 42.839844 89.878906 42.660156 89.53125 42.476562 89.1875 C 41.96875 88.207031 41.5625 87.210938 41.199219 86.167969 C 41.042969 85.726562 40.882812 85.289062 40.71875 84.851562 C 39.625 81.945312 38.746094 79.023438 38.121094 75.980469 C 38.03125 75.558594 37.941406 75.136719 37.847656 74.714844 C 37.445312 72.847656 37.257812 71.03125 37.164062 69.125 C 37.144531 68.832031 37.128906 68.539062 37.113281 68.246094 C 37.011719 66.292969 36.9375 64.351562 37 62.398438 C 37.003906 62.183594 37.003906 62.183594 37.007812 61.964844 C 37.28125 48.703125 42.546875 35.46875 51.328125 25.542969 C 51.8125 25.007812 51.8125 25.007812 52.199219 24.398438 C 52.332031 24.398438 52.464844 24.398438 52.601562 24.398438 C 52.675781 24.226562 52.675781 24.226562 52.757812 24.046875 C 53.023438 23.558594 53.3125 23.234375 53.707031 22.839844 C 53.847656 22.699219 53.988281 22.558594 54.132812 22.414062 C 54.359375 22.191406 54.359375 22.191406 54.585938 21.960938 C 54.742188 21.808594 54.894531 21.65625 55.054688 21.5 C 56.1875 20.386719 57.34375 19.367188 58.601562 18.398438 C 58.808594 18.230469 59.019531 18.058594 59.230469 17.886719 C 61.914062 15.714844 64.785156 13.84375 67.824219 12.203125 C 68.183594 12.007812 68.535156 11.808594 68.890625 11.605469 C 83.167969 3.582031 103.027344 2.527344 118 9.199219 Z M 118 9.199219 "/>
<path style=" stroke:none;fill-rule:nonzero;fill:rgb(99.607843%,99.607843%,99.215686%);fill-opacity:1;" d="M 139.398438 24.199219 C 140.148438 24.449219 140.339844 24.757812 140.824219 25.375 C 140.980469 25.570312 141.140625 25.769531 141.300781 25.972656 C 141.382812 26.074219 141.464844 26.179688 141.546875 26.285156 C 141.800781 26.601562 142.058594 26.910156 142.316406 27.222656 C 142.480469 27.417969 142.644531 27.613281 142.8125 27.8125 C 142.964844 27.992188 143.113281 28.171875 143.269531 28.355469 C 143.601562 28.800781 143.601562 28.800781 143.601562 29.199219 C 143.730469 29.199219 143.863281 29.199219 144 29.199219 C 144.601562 30.078125 144.601562 30.078125 144.601562 30.601562 C 144.730469 30.601562 144.863281 30.601562 145 30.601562 C 145.398438 31.199219 145.398438 31.199219 145.398438 31.800781 C 145.53125 31.800781 145.664062 31.800781 145.800781 31.800781 C 146.308594 32.6875 146.8125 33.582031 147.304688 34.476562 C 147.519531 34.855469 147.734375 35.226562 147.957031 35.597656 C 150.246094 39.464844 152.242188 43.875 153.085938 48.308594 C 153.175781 48.792969 153.175781 48.792969 153.394531 49.179688 C 153.597656 49.597656 153.703125 49.957031 153.800781 50.410156 C 153.847656 50.644531 153.847656 50.644531 153.898438 50.878906 C 153.933594 51.042969 153.964844 51.207031 154 51.375 C 154.035156 51.546875 154.070312 51.714844 154.105469 51.890625 C 154.347656 53.078125 154.554688 54.269531 154.707031 55.472656 C 154.765625 55.941406 154.832031 56.40625 154.902344 56.867188 C 155.222656 59.066406 155.261719 61.238281 155.253906 63.460938 C 155.25 64.074219 155.253906 64.683594 155.253906 65.296875 C 155.257812 68.445312 155.050781 71.476562 154.339844 74.550781 C 154.210938 75.15625 154.125 75.75 154.050781 76.363281 C 153.851562 77.714844 153.492188 79.011719 153.125 80.324219 C 153.066406 80.535156 153.007812 80.746094 152.949219 80.960938 C 152.558594 82.332031 152.105469 83.667969 151.601562 85 C 151.535156 85.167969 151.472656 85.335938 151.40625 85.507812 C 150.542969 87.753906 149.476562 89.914062 148.316406 92.019531 C 148.097656 92.417969 147.890625 92.820312 147.6875 93.226562 C 147.386719 93.828125 147.046875 94.386719 146.683594 94.953125 C 146.492188 95.257812 146.300781 95.5625 146.117188 95.871094 C 142.492188 101.792969 137.484375 106.992188 132 111.199219 C 131.816406 111.351562 131.632812 111.503906 131.445312 111.664062 C 131 112 131 112 130.601562 112 C 130.601562 112.132812 130.601562 112.265625 130.601562 112.398438 C 130.175781 112.707031 129.753906 112.988281 129.3125 113.261719 C 129.195312 113.339844 129.074219 113.414062 128.953125 113.492188 C 128.140625 114.007812 127.308594 114.476562 126.464844 114.941406 C 125.835938 115.289062 125.21875 115.65625 124.601562 116.019531 C 122.320312 117.359375 120.039062 118.40625 117.558594 119.316406 C 116.949219 119.542969 116.347656 119.785156 115.75 120.039062 C 114.855469 120.402344 113.949219 120.628906 113.011719 120.839844 C 112.371094 120.996094 112.371094 120.996094 111.667969 121.285156 C 110.644531 121.679688 109.585938 121.894531 108.511719 122.113281 C 108.300781 122.15625 108.089844 122.199219 107.875 122.242188 C 106.359375 122.546875 104.851562 122.773438 103.3125 122.929688 C 102.859375 122.972656 102.410156 123.03125 101.964844 123.101562 C 101.128906 123.210938 100.320312 123.230469 99.480469 123.234375 C 99.316406 123.234375 99.152344 123.234375 98.984375 123.234375 C 81.457031 123.304688 81.457031 123.304688 76.199219 119.800781 C 75.816406 119.679688 75.425781 119.570312 75.039062 119.460938 C 73.808594 119.09375 72.714844 118.59375 71.578125 118 C 71 117.699219 70.417969 117.417969 69.828125 117.144531 C 69.660156 117.066406 69.492188 116.988281 69.316406 116.910156 C 68.988281 116.757812 68.660156 116.605469 68.332031 116.457031 C 67.464844 116.054688 66.699219 115.613281 65.933594 115.039062 C 65.5 114.726562 65.03125 114.472656 64.5625 114.210938 C 63.875 113.8125 63.234375 113.347656 62.585938 112.886719 C 62.441406 112.78125 62.292969 112.679688 62.140625 112.570312 C 60.070312 111.089844 58.074219 109.527344 56.199219 107.800781 C 56.523438 107 57.082031 106.457031 57.679688 105.859375 C 57.84375 105.691406 57.84375 105.691406 58.011719 105.519531 C 58.375 105.152344 58.738281 104.789062 59.105469 104.421875 C 59.359375 104.167969 59.609375 103.910156 59.863281 103.65625 C 60.394531 103.121094 60.925781 102.589844 61.457031 102.058594 C 62.140625 101.375 62.816406 100.6875 63.496094 100 C 64.015625 99.472656 64.539062 98.949219 65.066406 98.425781 C 65.316406 98.171875 65.566406 97.917969 65.816406 97.664062 C 66.164062 97.3125 66.515625 96.960938 66.867188 96.609375 C 67.023438 96.453125 67.023438 96.453125 67.179688 96.289062 C 67.472656 96.003906 67.472656 96.003906 68 95.601562 C 68.554688 95.621094 68.726562 95.734375 69.136719 96.097656 C 69.253906 96.226562 69.367188 96.355469 69.488281 96.488281 C 70.558594 97.59375 71.757812 98.496094 73 99.398438 C 73.109375 99.480469 73.21875 99.5625 73.328125 99.644531 C 76.875 102.257812 81 103.957031 85.199219 105.199219 C 85.457031 105.28125 85.710938 105.359375 85.964844 105.441406 C 88.066406 106.058594 90.207031 106.292969 92.378906 106.535156 C 92.800781 106.601562 92.800781 106.601562 93.199219 106.800781 C 98.242188 107.21875 103.558594 106.523438 108.351562 104.945312 C 108.78125 104.804688 109.21875 104.679688 109.65625 104.558594 C 111.632812 103.996094 113.394531 103.175781 115.199219 102.199219 C 115.335938 102.128906 115.46875 102.058594 115.605469 101.984375 C 119.238281 100.050781 122.796875 97.628906 125.398438 94.398438 C 125.554688 94.222656 125.707031 94.046875 125.863281 93.867188 C 127.132812 92.394531 128.183594 90.855469 129.199219 89.199219 C 129.3125 89.023438 129.425781 88.851562 129.542969 88.667969 C 130.363281 87.382812 130.886719 86.03125 131.398438 84.601562 C 131.5 84.339844 131.597656 84.078125 131.699219 83.816406 C 133.144531 79.957031 133.703125 76.117188 133.667969 72.003906 C 133.664062 71.449219 133.664062 70.890625 133.664062 70.335938 C 133.660156 68.472656 133.582031 66.664062 133.285156 64.824219 C 133.066406 63.21875 133.066406 63.21875 133.539062 62.449219 C 133.691406 62.265625 133.84375 62.078125 134 61.886719 C 134.167969 61.675781 134.332031 61.46875 134.496094 61.253906 C 134.582031 61.148438 134.664062 61.039062 134.75 60.929688 C 135.984375 59.292969 136.90625 57.519531 137.601562 55.601562 C 137.691406 55.371094 137.785156 55.144531 137.882812 54.910156 C 138.605469 53 138.695312 51.101562 138.699219 49.074219 C 138.703125 48.816406 138.703125 48.5625 138.703125 48.296875 C 138.632812 42.875 136.597656 38.214844 132.800781 34.398438 C 132.636719 34.234375 132.472656 34.066406 132.304688 33.894531 C 131.9375 33.527344 131.570312 33.160156 131.199219 32.800781 C 131.488281 32.136719 131.851562 31.703125 132.363281 31.191406 C 132.515625 31.035156 132.671875 30.882812 132.835938 30.71875 C 133.003906 30.554688 133.171875 30.386719 133.34375 30.214844 C 133.519531 30.042969 133.691406 29.871094 133.867188 29.695312 C 134.417969 29.144531 134.972656 28.597656 135.523438 28.050781 C 135.898438 27.679688 136.273438 27.304688 136.648438 26.933594 C 137.5625 26.019531 138.480469 25.109375 139.398438 24.199219 Z M 139.398438 24.199219 "/>
<path style=" stroke:none;fill-rule:nonzero;fill:rgb(99.607843%,99.607843%,99.215686%);fill-opacity:1;" d="M 126.800781 36.800781 C 127.050781 36.988281 127.304688 37.175781 127.558594 37.363281 C 127.699219 37.46875 127.839844 37.570312 127.984375 37.679688 C 130.632812 39.71875 132.449219 43.058594 132.941406 46.347656 C 133.320312 50.664062 132.550781 54.667969 129.761719 58.101562 C 129.132812 58.839844 128.496094 59.53125 127.746094 60.148438 C 127.195312 60.542969 127.195312 60.542969 127 61 C 126.921875 62.230469 127.152344 63.371094 127.386719 64.574219 C 127.832031 66.878906 128.039062 69.066406 128.035156 71.414062 C 128.039062 71.847656 128.042969 72.28125 128.046875 72.714844 C 128.054688 74.789062 128.011719 76.859375 127.199219 78.800781 C 127.125 79.171875 127.054688 79.539062 126.988281 79.914062 C 126 84.28125 123.394531 88.152344 120.398438 91.398438 C 120.253906 91.5625 120.105469 91.726562 119.953125 91.898438 C 118.753906 93.167969 117.359375 94.164062 115.933594 95.164062 C 115.667969 95.351562 115.402344 95.546875 115.140625 95.742188 C 113.574219 96.875 111.761719 97.632812 110 98.398438 C 109.832031 98.472656 109.664062 98.546875 109.492188 98.621094 C 101.964844 101.816406 92.679688 102.082031 85 99.199219 C 84.773438 99.117188 84.773438 99.117188 84.539062 99.035156 C 81.242188 97.84375 78.082031 96.285156 75.398438 94 C 75.203125 93.84375 75.007812 93.6875 74.804688 93.527344 C 73.625 92.589844 73.625 92.589844 73.199219 92.199219 C 73.199219 92.066406 73.199219 91.9375 73.199219 91.800781 C 73.003906 91.734375 72.804688 91.667969 72.601562 91.601562 C 72.6875 90.714844 73.292969 90.199219 73.882812 89.589844 C 74.050781 89.410156 74.050781 89.410156 74.222656 89.226562 C 74.597656 88.835938 74.976562 88.445312 75.355469 88.054688 C 75.484375 87.917969 75.613281 87.785156 75.746094 87.648438 C 76.4375 86.9375 77.125 86.230469 77.820312 85.527344 C 78.386719 84.945312 78.953125 84.359375 79.511719 83.769531 C 80.191406 83.050781 80.875 82.347656 81.570312 81.644531 C 81.832031 81.378906 82.089844 81.109375 82.34375 80.835938 C 84.464844 78.566406 84.464844 78.566406 86 78.480469 C 86.511719 78.480469 87.003906 78.507812 87.515625 78.570312 C 88.371094 78.695312 88.371094 78.695312 89.128906 78.363281 C 89.597656 77.824219 89.796875 77.433594 89.898438 76.726562 C 89.804688 75.832031 89.804688 75.832031 89.199219 74.398438 C 97.714844 65.886719 106.226562 57.371094 115 48.601562 C 116.574219 49.5 116.574219 49.5 117.253906 49.996094 C 117.402344 50.105469 117.550781 50.214844 117.703125 50.324219 C 117.855469 50.4375 118.007812 50.546875 118.164062 50.664062 C 118.480469 50.894531 118.800781 51.125 119.117188 51.355469 C 119.269531 51.46875 119.421875 51.578125 119.578125 51.691406 C 120.113281 52.082031 120.648438 52.46875 121.1875 52.851562 C 121.332031 52.953125 121.480469 53.058594 121.628906 53.164062 C 122.496094 53.714844 123.410156 53.71875 124.398438 53.601562 C 125.320312 53.171875 125.703125 52.742188 126.078125 51.804688 C 126.292969 51.085938 126.289062 50.382812 126.273438 49.636719 C 126.273438 49.476562 126.269531 49.320312 126.269531 49.15625 C 126.210938 46.992188 125.574219 45.296875 124.199219 43.601562 C 123.5 42.949219 122.769531 42.363281 122 41.800781 C 122.964844 40.636719 124.003906 39.574219 125.074219 38.511719 C 125.242188 38.347656 125.40625 38.183594 125.578125 38.011719 C 125.984375 37.605469 126.390625 37.203125 126.800781 36.800781 Z M 126.800781 36.800781 "/>
<path style=" stroke:none;fill-rule:nonzero;fill:rgb(1.960784%,1.568628%,0.392157%);fill-opacity:1;" d="M 78.800781 26.289062 C 78.984375 26.292969 79.171875 26.296875 79.363281 26.304688 C 83.242188 26.453125 86.480469 27.683594 89.269531 30.421875 C 90.53125 31.800781 91.675781 33.265625 92.398438 35 C 92.472656 35.164062 92.542969 35.328125 92.617188 35.5 C 93.007812 36.433594 93.230469 37.179688 93.398438 38.199219 C 94.851562 38.199219 96.304688 38.199219 97.800781 38.199219 C 97.863281 37.875 97.921875 37.546875 97.988281 37.210938 C 98.714844 34.347656 100.292969 32.023438 102.398438 30 C 102.539062 29.863281 102.675781 29.726562 102.816406 29.585938 C 105.339844 27.210938 108.546875 26.316406 111.925781 26.289062 C 112.234375 26.28125 112.234375 26.28125 112.550781 26.277344 C 114.03125 26.296875 114.746094 26.546875 115.800781 27.601562 C 115.867188 28.433594 115.886719 28.984375 115.574219 29.761719 C 115.003906 30.425781 114.449219 30.730469 113.578125 30.863281 C 112.726562 30.90625 112.136719 30.8125 111.386719 30.398438 C 110.582031 29.960938 109.90625 29.820312 109 30 C 105.976562 30.972656 103.828125 32.742188 102.109375 35.378906 C 101.691406 36.222656 101.449219 37.09375 101.199219 38 C 101.355469 38.003906 101.507812 38.003906 101.667969 38.007812 C 104.820312 38.074219 107.902344 38.191406 111 38.800781 C 111.226562 38.839844 111.226562 38.839844 111.453125 38.882812 C 112.5 39.089844 113.375 39.421875 114.3125 39.925781 C 114.5 40.023438 114.5 40.023438 114.691406 40.121094 C 114.996094 40.28125 115.296875 40.4375 115.601562 40.601562 C 115.183594 41.511719 114.621094 42.21875 113.800781 42.800781 C 112.972656 42.828125 112.441406 42.617188 111.675781 42.3125 C 109.773438 41.5625 107.65625 41.539062 105.636719 41.53125 C 105.394531 41.53125 105.152344 41.527344 104.902344 41.523438 C 104.25 41.519531 103.59375 41.515625 102.941406 41.511719 C 102.527344 41.511719 102.117188 41.507812 101.707031 41.507812 C 100.417969 41.5 99.125 41.496094 97.832031 41.492188 C 96.351562 41.492188 94.875 41.480469 93.394531 41.46875 C 92.242188 41.457031 91.089844 41.453125 89.9375 41.453125 C 89.253906 41.453125 88.566406 41.449219 87.882812 41.441406 C 83.246094 41.382812 83.246094 41.382812 79.375 43.710938 C 79.179688 43.9375 78.984375 44.164062 78.800781 44.398438 C 78.65625 44.578125 78.511719 44.753906 78.363281 44.9375 C 77.257812 46.957031 77.097656 48.832031 77.164062 51.101562 C 77.167969 51.40625 77.175781 51.707031 77.179688 52.011719 C 77.191406 52.664062 77.203125 53.316406 77.21875 53.964844 C 77.242188 55 77.253906 56.03125 77.261719 57.066406 C 77.265625 57.242188 77.265625 57.417969 77.269531 57.597656 C 77.269531 57.957031 77.273438 58.316406 77.277344 58.675781 C 77.300781 61.078125 77.332031 63.480469 77.386719 65.882812 C 77.429688 67.511719 77.449219 69.136719 77.453125 70.761719 C 77.457031 71.621094 77.46875 72.476562 77.5 73.335938 C 77.609375 76.492188 77.695312 79.285156 75.46875 81.738281 C 75.265625 81.945312 75.0625 82.152344 74.859375 82.355469 C 74.714844 82.5 74.714844 82.5 74.566406 82.652344 C 73.40625 83.785156 72.457031 84.308594 70.824219 84.328125 C 68.117188 84.171875 65.5625 83.386719 63.683594 81.34375 C 61.9375 79.234375 61.566406 76.941406 61.734375 74.28125 C 61.914062 72.949219 62.5625 71.761719 63.199219 70.601562 C 63.304688 70.40625 63.410156 70.210938 63.519531 70.011719 C 64.488281 68.324219 65.628906 66.921875 67.027344 65.578125 C 67.414062 65.226562 67.414062 65.226562 67.601562 64.800781 C 67.429688 64.746094 67.261719 64.695312 67.085938 64.640625 C 61.703125 62.742188 57.171875 58.300781 54.710938 53.238281 C 53.6875 50.878906 53.292969 48.164062 54.179688 45.679688 C 54.945312 44.011719 55.921875 42.691406 57.398438 41.601562 C 57.578125 41.464844 57.578125 41.464844 57.757812 41.328125 C 60.964844 39.113281 65.371094 38.9375 69.101562 39.558594 C 70.011719 39.734375 70.90625 39.960938 71.800781 40.199219 C 71.988281 40.246094 72.179688 40.289062 72.371094 40.335938 C 73.925781 40.746094 75.359375 41.5 76.800781 42.199219 C 76.84375 42.085938 76.886719 41.972656 76.933594 41.855469 C 78.054688 39.941406 80.765625 38.960938 82.765625 38.375 C 84.191406 38.070312 85.664062 38.15625 87.113281 38.175781 C 87.414062 38.175781 87.710938 38.179688 88.011719 38.179688 C 88.742188 38.183594 89.472656 38.191406 90.199219 38.199219 C 90.046875 37.789062 89.894531 37.375 89.738281 36.964844 C 89.652344 36.734375 89.566406 36.507812 89.480469 36.269531 C 88.234375 33.292969 85.699219 31.40625 82.800781 30.199219 C 81.949219 29.945312 81.054688 29.785156 80.222656 30.179688 C 80.097656 30.25 79.96875 30.324219 79.835938 30.398438 C 78.902344 30.90625 78.042969 30.972656 77 30.800781 C 76.355469 30.480469 75.964844 30.210938 75.523438 29.648438 C 75.328125 28.941406 75.222656 28.3125 75.398438 27.601562 C 76.300781 26.363281 77.359375 26.222656 78.800781 26.289062 Z M 78.800781 26.289062 "/>
<path style=" stroke:none;fill-rule:nonzero;fill:rgb(50.980395%,19.607843%,1.176471%);fill-opacity:1;" d="M 131.210938 32.820312 C 134.386719 34.277344 136.683594 38.71875 137.867188 41.828125 C 139.683594 46.933594 139.226562 52.785156 137.019531 57.65625 C 136.273438 59.199219 135.292969 60.550781 134.21875 61.878906 C 133.449219 62.835938 133.363281 63.238281 133.460938 64.460938 C 133.480469 64.722656 133.503906 64.980469 133.523438 65.246094 C 133.585938 65.964844 133.585938 65.964844 133.703125 66.53125 C 133.824219 67.378906 133.835938 68.207031 133.839844 69.066406 C 133.839844 69.246094 133.84375 69.425781 133.84375 69.609375 C 133.847656 69.992188 133.847656 70.375 133.847656 70.757812 C 133.851562 71.328125 133.855469 71.898438 133.863281 72.46875 C 133.882812 75.785156 133.496094 78.917969 132.523438 82.101562 C 132.46875 82.292969 132.414062 82.488281 132.355469 82.6875 C 131.710938 84.855469 130.726562 86.839844 129.601562 88.800781 C 129.484375 89.003906 129.367188 89.207031 129.246094 89.417969 C 127.757812 91.925781 125.914062 94.382812 123.800781 96.398438 C 123.664062 96.53125 123.53125 96.660156 123.390625 96.792969 C 120.113281 99.84375 116.261719 101.972656 112.199219 103.800781 C 111.976562 103.902344 111.753906 104.003906 111.523438 104.109375 C 108.875 105.175781 106.023438 105.96875 103.199219 106.398438 C 102.949219 106.441406 102.949219 106.441406 102.691406 106.480469 C 100.335938 106.847656 98.007812 107.054688 95.625 107.0625 C 95.414062 107.0625 95.199219 107.066406 94.980469 107.066406 C 93.835938 107.054688 92.773438 106.949219 91.65625 106.699219 C 91.003906 106.558594 90.347656 106.480469 89.6875 106.398438 C 88.125 106.199219 86.691406 105.898438 85.199219 105.398438 C 84.914062 105.3125 84.625 105.226562 84.339844 105.140625 C 78.253906 103.257812 72.875 100.160156 68.398438 95.601562 C 68.691406 94.925781 69.0625 94.492188 69.582031 93.976562 C 69.734375 93.828125 69.886719 93.675781 70.042969 93.519531 C 70.203125 93.367188 70.363281 93.210938 70.523438 93.050781 C 70.683594 92.890625 70.847656 92.734375 71.011719 92.570312 C 71.40625 92.179688 71.804688 91.789062 72.199219 91.398438 C 73.089844 91.722656 73.546875 92.109375 74.199219 92.800781 C 80.90625 98.847656 89.929688 101.246094 98.816406 100.851562 C 107.613281 100.273438 115.820312 96.480469 121.667969 89.84375 C 123.34375 87.867188 124.511719 85.539062 125.601562 83.199219 C 125.75 82.882812 125.75 82.882812 125.902344 82.554688 C 126.527344 81.136719 126.890625 79.71875 127.199219 78.199219 C 127.273438 77.871094 127.347656 77.542969 127.425781 77.210938 C 127.808594 75.527344 127.855469 73.882812 127.863281 72.164062 C 127.863281 72.019531 127.863281 71.871094 127.863281 71.722656 C 127.871094 68.722656 127.640625 65.695312 126.890625 62.777344 C 126.6875 61.929688 126.652344 61.242188 127.113281 60.488281 C 127.484375 60.117188 127.84375 59.800781 128.25 59.476562 C 130.542969 57.539062 132.449219 53.992188 132.800781 51 C 133.109375 46.550781 132.179688 42.746094 129.398438 39.199219 C 128.664062 38.371094 127.894531 37.652344 127 37 C 127.460938 35.953125 128.277344 35.238281 129.074219 34.4375 C 129.230469 34.277344 129.382812 34.117188 129.539062 33.953125 C 129.691406 33.800781 129.839844 33.652344 129.992188 33.496094 C 130.195312 33.289062 130.195312 33.289062 130.402344 33.078125 C 130.800781 32.800781 130.800781 32.800781 131.210938 32.820312 Z M 131.210938 32.820312 "/>
<path style=" stroke:none;fill-rule:nonzero;fill:rgb(97.647059%,73.725492%,20.784314%);fill-opacity:1;" d="M 88.261719 41.238281 C 88.949219 41.246094 89.636719 41.242188 90.324219 41.242188 C 91.480469 41.246094 92.636719 41.25 93.792969 41.261719 C 95.117188 41.273438 96.445312 41.277344 97.769531 41.277344 C 99.195312 41.277344 100.621094 41.285156 102.042969 41.289062 C 102.449219 41.292969 102.855469 41.292969 103.257812 41.292969 C 111.066406 41.316406 111.066406 41.316406 113.398438 43 C 112.460938 44.128906 111.460938 45.167969 110.421875 46.199219 C 110.253906 46.367188 110.085938 46.53125 109.914062 46.703125 C 109.386719 47.234375 108.855469 47.761719 108.324219 48.289062 C 107.964844 48.648438 107.605469 49.007812 107.242188 49.367188 C 106.363281 50.246094 105.480469 51.121094 104.601562 52 C 103.925781 51.671875 103.367188 51.285156 102.777344 50.824219 C 102.027344 50.378906 101.195312 50.375 100.34375 50.367188 C 100.140625 50.367188 99.933594 50.363281 99.722656 50.363281 C 99.5 50.359375 99.28125 50.359375 99.054688 50.359375 C 98.828125 50.359375 98.601562 50.355469 98.367188 50.355469 C 97.886719 50.355469 97.40625 50.351562 96.925781 50.351562 C 96.191406 50.351562 95.453125 50.34375 94.71875 50.335938 C 94.25 50.335938 93.785156 50.335938 93.316406 50.335938 C 93.097656 50.332031 92.878906 50.328125 92.652344 50.328125 C 92.34375 50.328125 92.34375 50.328125 92.03125 50.328125 C 91.851562 50.328125 91.667969 50.328125 91.484375 50.328125 C 90.886719 50.417969 90.617188 50.566406 90.199219 51 C 90.078125 51.449219 90.078125 51.449219 90.097656 51.953125 C 90.09375 52.148438 90.089844 52.34375 90.089844 52.542969 C 90.089844 52.75 90.09375 52.960938 90.09375 53.175781 C 90.09375 53.390625 90.09375 53.605469 90.089844 53.824219 C 90.089844 54.28125 90.09375 54.734375 90.09375 55.1875 C 90.101562 55.882812 90.097656 56.578125 90.089844 57.277344 C 90.089844 57.714844 90.09375 58.15625 90.09375 58.597656 C 90.09375 58.808594 90.089844 59.015625 90.089844 59.230469 C 90.089844 60.34375 90.089844 60.34375 90.550781 61.328125 C 91.035156 61.621094 91.308594 61.707031 91.867188 61.722656 C 92.027344 61.726562 92.183594 61.734375 92.351562 61.742188 C 92.515625 61.746094 92.679688 61.746094 92.851562 61.75 C 93.101562 61.757812 93.101562 61.757812 93.359375 61.769531 C 93.773438 61.78125 94.1875 61.792969 94.601562 61.800781 C 93.714844 62.863281 92.777344 63.851562 91.796875 64.828125 C 91.5625 65.0625 91.5625 65.0625 91.324219 65.300781 C 90.8125 65.8125 90.300781 66.324219 89.789062 66.835938 C 89.433594 67.195312 89.078125 67.550781 88.71875 67.90625 C 87.976562 68.652344 87.230469 69.398438 86.484375 70.140625 C 85.621094 71.003906 84.761719 71.867188 83.898438 72.726562 C 83.070312 73.558594 82.238281 74.390625 81.40625 75.21875 C 81.054688 75.574219 80.699219 75.925781 80.347656 76.28125 C 79.855469 76.769531 79.363281 77.261719 78.871094 77.753906 C 78.726562 77.902344 78.578125 78.046875 78.425781 78.199219 C 78.226562 78.398438 78.226562 78.398438 78.023438 78.601562 C 77.90625 78.71875 77.789062 78.835938 77.671875 78.953125 C 77.398438 79.199219 77.398438 79.199219 77.199219 79.199219 C 77.179688 75.09375 77.167969 70.984375 77.160156 66.875 C 77.15625 64.96875 77.148438 63.058594 77.140625 61.152344 C 77.132812 59.488281 77.125 57.824219 77.125 56.164062 C 77.125 55.28125 77.121094 54.402344 77.117188 53.523438 C 77.109375 52.691406 77.109375 51.863281 77.109375 51.03125 C 77.109375 50.730469 77.109375 50.425781 77.105469 50.121094 C 77.082031 47.773438 77.335938 45.730469 78.976562 43.949219 C 79.140625 43.761719 79.304688 43.578125 79.472656 43.382812 C 82.136719 41.082031 84.890625 41.199219 88.261719 41.238281 Z M 88.261719 41.238281 "/>
<path style=" stroke:none;fill-rule:nonzero;fill:rgb(88.235295%,87.843138%,87.450981%);fill-opacity:1;" d="M 74.800781 44.601562 C 74.703125 45.1875 74.605469 45.773438 74.496094 46.359375 C 74.167969 48.238281 74.128906 50.078125 74.117188 51.980469 C 74.113281 52.316406 74.109375 52.652344 74.105469 52.988281 C 74.09375 53.867188 74.085938 54.746094 74.078125 55.625 C 74.070312 56.523438 74.0625 57.425781 74.050781 58.324219 C 74.03125 60.082031 74.015625 61.839844 74 63.601562 C 73.648438 63.539062 73.296875 63.476562 72.949219 63.414062 C 72.753906 63.378906 72.554688 63.34375 72.355469 63.308594 C 68.027344 62.472656 64.144531 59.996094 61 57 C 60.875 56.890625 60.75 56.78125 60.621094 56.667969 C 59.484375 55.625 58.769531 54.320312 58 53 C 57.890625 52.832031 57.785156 52.660156 57.675781 52.484375 C 56.777344 50.902344 56.53125 49.003906 56.925781 47.242188 C 57.476562 45.460938 58.503906 44.335938 60.125 43.4375 C 64.734375 41.359375 70.441406 42.390625 74.800781 44.601562 Z M 74.800781 44.601562 "/>
<path style=" stroke:none;fill-rule:nonzero;fill:rgb(77.254903%,77.254903%,77.254903%);fill-opacity:1;" d="M 72.667969 66.296875 C 72.824219 66.332031 72.984375 66.367188 73.148438 66.40625 C 73.308594 66.441406 73.46875 66.476562 73.632812 66.515625 C 73.753906 66.542969 73.875 66.570312 74 66.601562 C 74.03125 68.449219 74.058594 70.296875 74.089844 72.144531 C 74.101562 73.003906 74.117188 73.859375 74.128906 74.71875 C 74.144531 75.546875 74.15625 76.371094 74.167969 77.199219 C 74.171875 77.515625 74.179688 77.832031 74.183594 78.148438 C 74.191406 78.589844 74.199219 79.03125 74.203125 79.472656 C 74.207031 79.726562 74.210938 79.976562 74.214844 80.238281 C 74.199219 80.800781 74.199219 80.800781 74 81 C 71.664062 81.46875 69.136719 81.347656 67 80.226562 C 65.902344 79.445312 65.070312 78.332031 64.800781 77 C 64.765625 76.585938 64.765625 76.585938 64.761719 76.148438 C 64.757812 76.007812 64.757812 75.867188 64.753906 75.722656 C 65.003906 72.894531 66.691406 70.207031 68.601562 68.199219 C 68.691406 68.105469 68.777344 68.011719 68.871094 67.914062 C 70.117188 66.621094 70.808594 65.914062 72.667969 66.296875 Z M 72.667969 66.296875 "/>
<path style=" stroke:none;fill-rule:nonzero;fill:rgb(50.980395%,20%,1.176471%);fill-opacity:1;" d="M 121.800781 41.800781 C 123.859375 42.589844 125.105469 44.222656 126 46.199219 C 126.351562 47.351562 126.472656 48.398438 126.476562 49.601562 C 126.480469 49.75 126.484375 49.902344 126.488281 50.058594 C 126.496094 51.191406 126.234375 52.054688 125.601562 53 C 124.945312 53.609375 124.417969 53.851562 123.539062 53.914062 C 121.671875 53.804688 120.246094 52.40625 118.820312 51.320312 C 117.648438 50.425781 116.441406 49.597656 115.199219 48.800781 C 115.464844 48.210938 115.753906 47.796875 116.214844 47.339844 C 116.339844 47.214844 116.460938 47.09375 116.589844 46.964844 C 116.722656 46.832031 116.859375 46.699219 116.996094 46.566406 C 117.132812 46.429688 117.269531 46.292969 117.410156 46.152344 C 117.847656 45.71875 118.285156 45.285156 118.726562 44.851562 C 119.023438 44.554688 119.320312 44.261719 119.617188 43.964844 C 120.34375 43.242188 121.070312 42.519531 121.800781 41.800781 Z M 121.800781 41.800781 "/>
<path style=" stroke:none;fill-rule:nonzero;fill:rgb(50.980395%,19.607843%,1.176471%);fill-opacity:1;" d="M 113.199219 71.601562 C 115.773438 73.570312 115.773438 73.570312 116.09375 75.03125 C 116.15625 75.699219 116.128906 76.1875 115.777344 76.769531 C 114.84375 77.71875 113.746094 77.828125 112.46875 77.953125 C 111.898438 78.011719 111.328125 78.082031 110.757812 78.15625 C 110.300781 78.210938 109.84375 78.269531 109.386719 78.324219 C 109.171875 78.351562 108.953125 78.378906 108.726562 78.40625 C 104.65625 78.882812 104.65625 78.882812 103.398438 78 C 102.921875 77.539062 102.8125 77.257812 102.6875 76.601562 C 102.773438 74.878906 103.960938 73.25 105.183594 72.125 C 107.34375 70.445312 110.847656 70.109375 113.199219 71.601562 Z M 113.199219 71.601562 "/>
<path style=" stroke:none;fill-rule:nonzero;fill:rgb(2.745098%,1.960784%,0.392157%);fill-opacity:1;" d="M 93.332031 50.109375 C 93.671875 50.109375 93.671875 50.109375 94.015625 50.109375 C 94.496094 50.109375 94.972656 50.113281 95.453125 50.117188 C 96.183594 50.125 96.914062 50.125 97.644531 50.125 C 98.113281 50.128906 98.578125 50.128906 99.042969 50.132812 C 99.371094 50.132812 99.371094 50.132812 99.703125 50.132812 C 101.179688 50.152344 102.289062 50.285156 103.476562 51.226562 C 103.613281 51.332031 103.75 51.441406 103.890625 51.550781 C 103.992188 51.632812 104.09375 51.714844 104.199219 51.800781 C 104.105469 52.664062 103.59375 53.066406 102.988281 53.648438 C 102.804688 53.828125 102.621094 54.007812 102.429688 54.191406 C 102.289062 54.324219 102.144531 54.460938 102 54.601562 C 101.9375 54.472656 101.875 54.34375 101.8125 54.210938 C 101.632812 53.8125 101.632812 53.8125 101.398438 53.601562 C 100.78125 53.566406 100.164062 53.546875 99.542969 53.535156 C 99.355469 53.53125 99.171875 53.527344 98.980469 53.523438 C 98.382812 53.511719 97.785156 53.5 97.1875 53.488281 C 96.785156 53.480469 96.378906 53.46875 95.976562 53.460938 C 94.984375 53.441406 93.992188 53.417969 93 53.398438 C 93 55.117188 93 56.832031 93 58.601562 C 94.585938 58.601562 96.167969 58.601562 97.800781 58.601562 C 97.402344 59.0625 97.007812 59.523438 96.601562 60 C 96.496094 60.160156 96.394531 60.320312 96.289062 60.488281 C 95.796875 61.171875 95.359375 61.539062 94.507812 61.683594 C 93.914062 61.730469 93.332031 61.75 92.738281 61.75 C 92.539062 61.75 92.339844 61.75 92.136719 61.75 C 91.054688 61.71875 91.054688 61.71875 90.601562 61.601562 C 90.054688 61.015625 89.925781 60.613281 89.917969 59.820312 C 89.914062 59.628906 89.910156 59.433594 89.90625 59.234375 C 89.90625 59.027344 89.90625 58.820312 89.90625 58.605469 C 89.90625 58.390625 89.902344 58.175781 89.902344 57.957031 C 89.898438 57.503906 89.898438 57.050781 89.898438 56.597656 C 89.898438 55.902344 89.890625 55.207031 89.882812 54.515625 C 89.882812 54.074219 89.882812 53.632812 89.882812 53.195312 C 89.878906 52.984375 89.875 52.777344 89.871094 52.5625 C 89.882812 51.167969 89.882812 51.167969 90.363281 50.46875 C 91.34375 50.054688 92.273438 50.09375 93.332031 50.109375 Z M 93.332031 50.109375 "/>
<path style=" stroke:none;fill-rule:nonzero;fill:rgb(51.372552%,20%,1.568628%);fill-opacity:1;" d="M 101.351562 78.863281 C 101.800781 79.398438 101.800781 79.398438 101.851562 80.050781 C 101.25 81.855469 100.070312 83.171875 98.441406 84.125 C 97.234375 84.640625 95.777344 84.652344 94.527344 84.246094 C 93.160156 83.472656 92.058594 82.085938 91.199219 80.800781 C 91.085938 80.125 91.027344 79.644531 91.4375 79.0625 C 93.875 76.722656 98.722656 77.058594 101.351562 78.863281 Z M 101.351562 78.863281 "/>
<path style=" stroke:none;fill-rule:nonzero;fill:rgb(77.254903%,58.431375%,40.784314%);fill-opacity:1;" d="M 93 53.398438 C 94.1875 53.390625 95.378906 53.382812 96.566406 53.378906 C 96.972656 53.375 97.375 53.375 97.78125 53.371094 C 98.363281 53.363281 98.941406 53.363281 99.523438 53.359375 C 99.707031 53.359375 99.886719 53.355469 100.074219 53.355469 C 100.242188 53.355469 100.410156 53.355469 100.582031 53.355469 C 100.804688 53.351562 100.804688 53.351562 101.03125 53.351562 C 101.398438 53.398438 101.398438 53.398438 101.800781 53.800781 C 101.886719 54.417969 101.847656 54.71875 101.53125 55.261719 C 98.746094 58.628906 98.746094 58.628906 96.632812 58.847656 C 95.394531 58.898438 94.257812 58.730469 93 58.601562 C 93 56.882812 93 55.167969 93 53.398438 Z M 93 53.398438 "/>
<path style=" stroke:none;fill-rule:nonzero;fill:rgb(52.549022%,23.137255%,4.313726%);fill-opacity:1;" d="M 89.398438 74.601562 C 89.875 75.570312 90.175781 76.300781 90 77.398438 C 89.714844 78.039062 89.402344 78.4375 88.800781 78.800781 C 87.582031 78.984375 86.398438 78.867188 85.199219 78.601562 C 86 77.617188 86.859375 76.710938 87.75 75.8125 C 87.867188 75.695312 87.980469 75.574219 88.101562 75.453125 C 88.953125 74.601562 88.953125 74.601562 89.398438 74.601562 Z M 89.398438 74.601562 "/>
</g>
</svg>
