<?xml version="1.0" encoding="UTF-8"?>
<svg version="1.1" xmlns="http://www.w3.org/2000/svg" width="1024" height="1024">
<path d="M0 0 C1.25232422 0.16628906 2.50464844 0.33257812 3.79492188 0.50390625 C61.41265447 8.21674105 117.15167327 25.2818491 168.87158203 51.90917969 C171.15659111 53.08025339 173.45129971 54.23104225 175.74609375 55.3828125 C196.47492437 65.89644975 216.35843787 78.11143273 235 92 C235.83901855 92.62406738 236.67803711 93.24813477 237.54248047 93.89111328 C247.16505922 101.07720017 256.70499784 108.33605351 265.77416992 116.21411133 C267.8513405 118.01671236 269.94554909 119.78783181 272.05908203 121.54882812 C281.10212715 129.09518734 289.48171869 137.20348609 297.77075195 145.56494141 C299.95397978 147.76661905 302.14529844 149.95999532 304.33789062 152.15234375 C305.75568346 153.5750475 307.17301784 154.99820832 308.58984375 156.421875 C309.55252419 157.38622467 309.55252419 157.38622467 310.53465271 158.37005615 C314.8785283 162.7589963 318.97325146 167.31987503 323 172 C323.94940757 173.08300819 324.8997303 174.1652159 325.8515625 175.24609375 C333.65207426 184.18878853 340.92410877 193.47613101 348 203 C348.54833496 203.73798828 349.09666992 204.47597656 349.66162109 205.23632812 C357.53951716 215.88826161 364.98421845 226.76152778 372 238 C372.57113525 238.91265625 372.57113525 238.91265625 373.15380859 239.84375 C380.26632126 251.27894004 386.69550169 263.10472017 393 275 C393.46696289 275.88042969 393.93392578 276.76085937 394.41503906 277.66796875 C424.87456299 335.59951532 447.94995501 407.13286891 448.17700195 473.14868164 C448.18357315 474.00421631 448.19014435 474.85975098 448.19691467 475.74121094 C448.21646574 478.54752741 448.22828297 481.35379026 448.23828125 484.16015625 C448.24235678 485.13582487 448.2464323 486.11149349 448.25063133 487.11672783 C448.27143692 492.30299535 448.28575021 497.48923702 448.29516602 502.67553711 C448.30393624 506.89248505 448.32460252 511.10909379 448.35668945 515.32592773 C448.54417291 540.53726219 448.03059256 565.07724104 444 590 C443.77892075 591.40736923 443.77892075 591.40736923 443.55337524 592.84317017 C442.73679926 597.96342591 441.79317598 603.04649684 440.75 608.125 C440.60282532 608.85761047 440.45565063 609.59022095 440.30401611 610.34503174 C429.20506335 665.490615 409.80026712 719.52325135 381 768 C380.41492676 768.98564941 379.82985352 769.97129883 379.22705078 770.98681641 C370.77052947 785.14622687 361.91786523 798.82429131 352 812 C351.15771582 813.13717857 350.31650157 814.2751507 349.4765625 815.4140625 C338.73064498 829.90087964 327.1555055 843.68089055 315 857 C314.19433594 857.89847656 313.38867188 858.79695312 312.55859375 859.72265625 C307.12566 865.73855755 301.5335541 871.56951597 295.8125 877.3125 C295.15950928 877.97008301 294.50651855 878.62766602 293.83374023 879.30517578 C289.95140171 883.17529494 285.95533521 886.85724224 281.8059082 890.43920898 C279.5627382 892.37791195 277.37567436 894.37460242 275.1875 896.375 C269.93556426 901.10253671 264.52471159 905.59638486 259 910 C258.38189453 910.4959668 257.76378906 910.99193359 257.12695312 911.50292969 C227.25457756 935.40372195 195.1875684 955.01147309 161 972 C160.12085938 972.44279297 159.24171875 972.88558594 158.3359375 973.34179688 C117.53061812 993.84414383 72.67118454 1007.09501193 27.875 1015.375 C26.658125 1015.6016333 25.44125 1015.8282666 24.1875 1016.06176758 C20.89601981 1016.63999471 17.60558934 1017.16909307 14.29986572 1017.65658569 C12.71669921 1017.89298299 11.13515059 1018.14039202 9.55511475 1018.3968811 C-12.19440029 1021.85455733 -34.11467449 1021.4944411 -56.07373047 1021.44604492 C-60.43069702 1021.43687048 -64.78712685 1021.44375834 -69.14404297 1021.46655273 C-94.41698838 1021.59798563 -119.03062051 1021.17879506 -144 1017 C-144.92053162 1016.8527951 -145.84106323 1016.70559021 -146.78948975 1016.55392456 C-151.92559086 1015.72880685 -157.02779602 1014.78696722 -162.125 1013.75 C-162.86005768 1013.60348999 -163.59511536 1013.45697998 -164.35244751 1013.30603027 C-252.90549661 995.59894963 -333.45899032 954.27162867 -440.203125 858.078125 C-442.06984551 855.91922215 -443.99875642 853.82464178 -445.94067383 851.73339844 C-451.55294693 845.68456214 -456.84277462 839.44440064 -462 833 C-462.92240375 831.86916043 -463.84562196 830.73898485 -464.76953125 829.609375 C-484.36470802 805.54301202 -500.90458275 779.53477815 -515.73828125 752.31494141 C-516.56833831 750.7919923 -517.40158695 749.27077763 -518.23828125 747.75146484 C-544.61410752 699.74118108 -561.35015092 646.28989837 -570.3125 592.375 C-570.42992554 591.68403229 -570.54735107 590.99306458 -570.66833496 590.28115845 C-574.95566719 564.71727133 -576.51997374 539.02736341 -576.39111328 513.14550781 C-576.37402254 509.69094009 -576.38423038 506.23706647 -576.40142822 502.7825222 C-576.51093912 476.79026765 -574.62733741 451.02278479 -570.25 425.375 C-570.12372223 424.61726288 -569.99744446 423.85952576 -569.86734009 423.0788269 C-556.01044422 340.22727331 -521.53421817 259.76405977 -469 194 C-468.49082031 193.36078613 -467.98164063 192.72157227 -467.45703125 192.06298828 C-461.48699555 184.58803563 -455.45258115 177.21383156 -448.98046875 170.1640625 C-447.09159671 168.10008792 -445.2605374 165.99709746 -443.4375 163.875 C-440.42821454 160.41397422 -437.22288502 157.20188127 -433.953125 153.98828125 C-432.11801329 152.12013753 -430.43254182 150.19266513 -428.75 148.1875 C-424.4600289 143.20997145 -419.55503019 138.91378913 -414.6796875 134.52685547 C-412.33505388 132.39555625 -410.03104528 130.22218029 -407.72314453 128.05126953 C-401.36109344 122.07890929 -394.83108744 116.43529014 -388 111 C-386.85967685 110.06893203 -385.72041261 109.13656613 -384.58203125 108.203125 C-375.36153445 100.67802578 -365.82328036 93.71571715 -356 87 C-355.25282715 86.48904785 -354.5056543 85.9780957 -353.73583984 85.45166016 C-338.67162097 75.19332277 -323.18519526 65.92735971 -307.18945312 57.20117188 C-305.18542756 56.10172877 -303.19349568 54.98327517 -301.203125 53.859375 C-248.23553756 24.39260128 -187.7891341 7.93906155 -128 0 C-126.85595703 -0.16371094 -125.71191406 -0.32742188 -124.53320312 -0.49609375 C-84.5156067 -6.07137201 -39.96223208 -5.71853913 0 0 Z " fill="#96CF00" transform="translate(576,3)"/>
<path d="M0 0 C2.99970289 1.00762383 6.00448033 1.99716269 9.01220703 2.98046875 C22.55431992 7.48114333 35.49921077 13.25921353 48.47705078 19.16796875 C49.27240234 19.52503906 50.06775391 19.88210937 50.88720703 20.25 C90.88532286 38.20979799 126.71750593 63.27359481 160.03955078 91.54296875 C160.64790771 92.05520996 161.25626465 92.56745117 161.88305664 93.09521484 C164.50363499 95.33293698 166.5535054 97.28265068 168.47705078 100.16796875 C115.34705078 153.29796875 62.21705078 206.42796875 7.47705078 261.16796875 C2.8781899 259.63501512 -0.74373076 258.09544522 -4.96044922 255.85546875 C-37.52468809 239.05534174 -75.9477685 241.54472513 -111.52294922 241.16796875 C-110.84855935 235.89654043 -109.67867331 231.38827216 -107.52294922 226.54296875 C-107.21534668 225.84929199 -106.90774414 225.15561523 -106.59082031 224.44091797 C-95.84265586 201.10067223 -76.27247583 184.85095822 -52.58544922 175.73046875 C-44.30846418 172.97147374 -38.09242606 172.51948665 -29.96826172 176.3828125 C-28.22340009 177.25524331 -26.4857849 178.14238548 -24.75732422 179.046875 C-18.32086321 182.27635806 -12.56114698 181.72970346 -5.89794922 179.60546875 C0.02983243 177.30845336 3.64648971 173.8290909 6.47705078 168.16796875 C6.87032977 162.36710372 6.56721452 158.28605244 3.47705078 153.16796875 C-7.72260598 144.13824548 -23.87526478 146.12139023 -37.52294922 147.16796875 C-66.86436768 150.86480088 -92.84160624 164.77255812 -111.27294922 188.04296875 C-118.24831905 197.13993647 -124.00887027 206.62717719 -128.77294922 217.04296875 C-129.09030029 217.72520508 -129.40765137 218.40744141 -129.73461914 219.11035156 C-132.93488404 226.38727454 -134.40403679 233.22204713 -136.52294922 241.16796875 C-148.40294922 241.16796875 -160.28294922 241.16796875 -172.52294922 241.16796875 C-173.32732422 238.42484375 -174.13169922 235.68171875 -174.96044922 232.85546875 C-184.43984239 202.30545128 -202.99501644 175.45696397 -231.33935547 159.72265625 C-248.85987545 151.16662318 -267.06031926 146.99054258 -286.52294922 146.98046875 C-287.76818359 146.96822266 -289.01341797 146.95597656 -290.29638672 146.94335938 C-299.91422825 146.92797903 -306.46100864 147.27025935 -313.52294922 154.16796875 C-316.45587838 158.85264742 -316.09831605 163.82638747 -315.52294922 169.16796875 C-313.23370298 175.23447129 -308.24448894 177.43894692 -302.60498047 180.0234375 C-294.52100744 183.02547058 -288.9308188 180.90302583 -281.24951172 177.48046875 C-279.20724709 176.49737288 -277.19882216 175.4434464 -275.21044922 174.35546875 C-269.22761338 171.71189012 -263.46660695 173.45918615 -257.58544922 175.60546875 C-256.85108643 175.87206299 -256.11672363 176.13865723 -255.36010742 176.41333008 C-241.73376887 181.57148733 -230.67201311 188.76703028 -220.52294922 199.16796875 C-219.71212891 199.96976563 -218.90130859 200.7715625 -218.06591797 201.59765625 C-207.95133606 212.10855057 -199.7878678 226.70243915 -197.52294922 241.16796875 C-198.40926025 241.17676811 -198.40926025 241.17676811 -199.31347656 241.18574524 C-205.54472672 241.25040507 -211.77549443 241.33499637 -218.00634766 241.43041992 C-220.32203756 241.46337719 -222.63780216 241.49149669 -224.95361328 241.5144043 C-255.49867477 241.82460695 -280.11293642 247.14373082 -302.52294922 269.16796875 C-303.02697266 269.791875 -303.53099609 270.41578125 -304.05029297 271.05859375 C-305.52294922 272.16796875 -305.52294922 272.16796875 -307.70263672 272.078125 C-310.69157642 271.11355028 -313.48533078 269.93240347 -316.34545898 268.64135742 C-354.46840017 251.48987407 -401.01264204 243.79447956 -441.13232422 258.80859375 C-448.9121472 261.95351413 -455.98597944 265.87825726 -462.52294922 271.16796875 C-463.35181641 271.81121094 -464.18068359 272.45445312 -465.03466797 273.1171875 C-476.77638507 282.84501131 -484.91680116 297.11867347 -487.52294922 312.16796875 C-489.7384285 344.62092039 -479.81779987 371.65169669 -458.52294922 396.16796875 C-457.46140625 397.39386719 -457.46140625 397.39386719 -456.37841797 398.64453125 C-454.12973485 401.18857555 -451.83854153 403.68474938 -449.52294922 406.16796875 C-448.79849609 406.95816406 -448.07404297 407.74835938 -447.32763672 408.5625 C-428.43072824 428.38823957 -402.70373199 443.79539698 -377.52294922 454.16796875 C-380.88046241 458.23232682 -384.3314805 461.96751227 -388.14794922 465.60546875 C-401.50358529 478.88077017 -411.51296632 495.04300178 -418.46044922 512.48046875 C-418.74315674 513.18478027 -419.02586426 513.8890918 -419.31713867 514.61474609 C-426.0499407 532.41876202 -426.16245934 553.71199048 -418.52294922 571.16796875 C-416.79706415 574.75586503 -414.87993823 577.96156365 -412.52294922 581.16796875 C-411.97251953 581.92335938 -411.42208984 582.67875 -410.85498047 583.45703125 C-397.77048507 599.69408098 -377.32789536 605.45708157 -357.52294922 608.16796875 C-352.19832999 608.73096056 -346.87515188 609.01656273 -341.52294922 609.16796875 C-345.47814885 613.90268116 -349.59619292 618.38681798 -353.96356201 622.74229431 C-354.89405975 623.67619038 -354.89405975 623.67619038 -355.84335542 624.62895304 C-357.90444342 626.69632724 -359.9690439 628.76015568 -362.03369141 630.82397461 C-363.51919638 632.31247418 -365.00449684 633.80117786 -366.48960876 635.29006958 C-370.50955342 639.31882155 -374.53271179 643.34434917 -378.55674267 647.36901927 C-381.06966228 649.88265052 -383.5818682 652.39699276 -386.09381866 654.91159248 C-394.85331328 663.6803252 -403.61537407 672.44648414 -412.37988281 681.21020508 C-420.55862266 689.38834249 -428.73175082 697.57205879 -436.90230632 705.75837225 C-443.91625454 712.78536705 -450.93402318 719.80853066 -457.95481801 726.82868487 C-462.14897412 731.02258541 -466.34154571 735.21804122 -470.53029633 739.41734123 C-474.46242907 743.35910804 -478.39927078 747.29610834 -482.33987617 751.22940445 C-483.78887044 752.67734745 -485.23614075 754.1270179 -486.68160057 755.5784893 C-488.64659726 757.55113166 -490.61757586 759.51758957 -492.590271 761.48252869 C-493.16788579 762.06528704 -493.74550058 762.6480454 -494.34061885 763.24846309 C-498.29467662 767.16796875 -498.29467662 767.16796875 -500.52294922 767.16796875 C-501.93733328 765.59510191 -503.27899323 763.95656879 -504.58544922 762.29296875 C-507.4970259 758.64311589 -510.44593278 755.12691503 -513.64794922 751.73046875 C-520.91695963 743.73836306 -527.15443151 734.87922139 -533.52294922 726.16796875 C-534.06387207 725.43094727 -534.60479492 724.69392578 -535.16210938 723.93457031 C-548.53796552 705.63255678 -560.00572113 686.23242383 -570.52294922 666.16796875 C-570.99474609 665.26965332 -571.46654297 664.37133789 -571.95263672 663.44580078 C-591.92192241 625.1552471 -608.42661565 581.58965337 -614.95263672 538.7109375 C-615.383124 536.03660897 -615.89197262 533.46213432 -616.49951172 530.828125 C-617.58451124 526.05382373 -618.34340307 521.26493567 -619.02294922 516.41796875 C-619.15040527 515.51328857 -619.27786133 514.6086084 -619.40917969 513.67651367 C-620.28459663 507.28972334 -621.02585147 500.89675597 -621.64794922 494.48046875 C-621.72335937 493.71186523 -621.79876953 492.94326172 -621.87646484 492.15136719 C-623.24685261 477.16969557 -623.7911043 462.14493785 -623.83544922 447.10546875 C-623.83806763 446.23744629 -623.84068604 445.36942383 -623.84338379 444.47509766 C-623.8745545 346.20720487 -590.60810341 248.21810845 -496.91162109 126.67431641 C-495.49293092 125.13540671 -494.09238015 123.58154941 -492.69482422 122.0234375 C-485.60560543 114.15926453 -478.08421695 106.88908228 -470.26123047 99.7578125 C-468.70294226 98.3325916 -467.15885483 96.89188045 -465.61669922 95.44921875 C-459.18401305 89.47060455 -452.43110309 84.039849 -445.47998047 78.68798828 C-443.42742745 77.09377731 -441.39598286 75.47527074 -439.36669922 73.8515625 C-399.46569887 42.07945604 -353.50642184 18.14134761 -305.52294922 1.16796875 C-304.38817139 0.75756348 -304.38817139 0.75756348 -303.23046875 0.33886719 C-274.28254442 -10.10483094 -243.98379415 -16.64445623 -213.52294922 -20.58203125 C-212.69828156 -20.68921478 -211.87361389 -20.79639832 -211.0239563 -20.90682983 C-140.01350474 -30.03266033 -67.72284262 -22.76398071 0 0 Z " fill="#F7B200" transform="translate(663.52294921875,64.83203125)"/>
<path d="M0 0 C1.10916508 0.93418377 2.21595941 1.8711827 3.32177734 2.80932617 C3.93838226 3.33080734 4.55498718 3.85228851 5.1902771 4.38957214 C7.92423368 6.8224528 10.27511716 9.51396973 12.625 12.3125 C13.38478149 13.20884155 13.38478149 13.20884155 14.15991211 14.12329102 C19.82646732 20.87819977 25.17117664 27.877402 30.45361328 34.93457031 C31.89888495 36.8649458 33.35330235 38.78811372 34.80859375 40.7109375 C52.02369961 63.63438985 66.07602803 88.46436241 79 114 C79.39928711 114.78246094 79.79857422 115.56492187 80.20996094 116.37109375 C104.5526247 164.42304755 118.72354047 218.57584723 124 272 C124.10441406 272.9988623 124.20882812 273.99772461 124.31640625 275.02685547 C127.80041264 309.25501316 126.74832696 343.85004824 123 378 C122.88253418 379.08522949 122.76506836 380.17045898 122.64404297 381.28857422 C121.13434411 394.73961744 118.58009939 407.93527238 115.63525391 421.140625 C115.04697425 423.78856171 114.48098355 426.4403543 113.91796875 429.09375 C97.67404221 503.3976516 59.75103485 576.65474762 8.1953125 632.59375 C7.00726275 633.895954 5.82616565 635.2054259 4.6875 636.55102539 C-0.96815611 643.20050675 -7.14515631 649.3312405 -13.31396484 655.49926758 C-15.23696182 657.42444702 -17.15180574 659.35749031 -19.06640625 661.29101562 C-25.35591976 667.60861412 -31.6702885 673.64274611 -38.68505859 679.15869141 C-41.0022534 681.00179236 -43.19231116 682.93790938 -45.375 684.9375 C-50.98771414 689.9661751 -56.96348716 694.49917353 -63 699 C-63.65613281 699.49129395 -64.31226563 699.98258789 -64.98828125 700.48876953 C-115.9011941 738.44573634 -175.15246683 766.3455671 -237 781 C-237.85770996 781.2057666 -238.71541992 781.4115332 -239.59912109 781.62353516 C-255.26887326 785.33811715 -271.02556754 787.99022968 -287 790 C-288.175625 790.15243164 -289.35125 790.30486328 -290.5625 790.46191406 C-309.36921253 792.80768667 -328.0595394 793.28791365 -347 793.3125 C-348.10486755 793.31608521 -349.20973511 793.31967041 -350.3480835 793.32336426 C-371.17225795 793.35974242 -391.87741824 792.15517743 -412.5 789.1875 C-414.31105225 788.92984863 -414.31105225 788.92984863 -416.15869141 788.66699219 C-491.66315106 777.59920854 -566.77691409 748.31538653 -627.27294922 701.33007812 C-629.87930598 699.32280761 -632.53727626 697.38629555 -635.1875 695.4375 C-641.09552767 691.00647925 -646.70411906 686.26713245 -652.30175781 681.45556641 C-655.29223606 678.89242217 -658.30371326 676.35409925 -661.3125 673.8125 C-662.41284895 672.88161506 -663.5131179 671.95063554 -664.61328125 671.01953125 C-665.40089844 670.35308594 -666.18851563 669.68664062 -667 669 C-665.55420588 665.69328761 -663.75407733 663.49711273 -661.21780396 660.94364929 C-660.42990479 660.14577499 -659.64200562 659.3479007 -658.83023071 658.52584839 C-657.96473602 657.65968903 -657.09924133 656.79352966 -656.20751953 655.90112305 C-655.29681702 654.98209702 -654.3861145 654.06307098 -653.44781494 653.11619568 C-650.95272919 650.5991923 -648.45112597 648.08876737 -645.9476037 645.580158 C-644.38435111 644.01326094 -642.82240442 642.44507396 -641.26089096 640.87644386 C-635.81521909 635.40629451 -630.36386564 629.94187421 -624.90771484 624.48217773 C-619.81755197 619.38837294 -614.74069152 614.28156588 -609.66966164 609.16871995 C-605.31665036 604.78107315 -600.95412482 600.40304051 -596.58411109 596.03232795 C-593.97347772 593.42089996 -591.36701247 590.80561022 -588.77020645 588.18042564 C-585.87763929 585.25695547 -582.96560674 582.35367279 -580.05126953 579.4519043 C-579.1898233 578.57562378 -578.32837708 577.69934326 -577.44082642 576.79650879 C-576.6472876 576.01273361 -575.85374878 575.22895844 -575.03616333 574.4214325 C-574.34925982 573.73251765 -573.6623563 573.04360281 -572.95463753 572.33381176 C-571 571 -571 571 -568.91204643 571.13576984 C-565.80584871 572.53974712 -563.73366449 575.05289465 -561.4375 577.5 C-555.963681 583.14547769 -550.20924132 588.16395628 -544 593 C-542.94780177 593.83188594 -541.89572235 594.66392219 -540.84375 595.49609375 C-533.79473209 601.0341553 -526.56891596 606.1866287 -519 611 C-518.33339355 611.4242627 -517.66678711 611.84852539 -516.97998047 612.28564453 C-483.83322734 633.26790449 -447.36859004 647.09576714 -409 655 C-407.58920166 655.29366455 -407.58920166 655.29366455 -406.14990234 655.59326172 C-353.70420059 666.32611757 -297.99690958 663.59692762 -247.03173828 646.66650391 C-244.96384729 645.98814024 -242.88795193 645.3414934 -240.80859375 644.69921875 C-206.2850507 633.86700399 -174.45126599 616.17723438 -146 594 C-145.03707031 593.25234375 -144.07414063 592.5046875 -143.08203125 591.734375 C-94.32690305 552.84549874 -62.24429286 496.78630216 -50.1875 435.875 C-49.992771 434.91287598 -49.79804199 433.95075195 -49.59741211 432.95947266 C-46.22194753 414.89456885 -45.59767058 396.51870746 -45.625 378.1875 C-45.6235498 377.17917114 -45.62209961 376.17084229 -45.62060547 375.13195801 C-45.62313492 359.07438113 -46.75509267 343.51351727 -49.125 327.640625 C-51.30288448 312.15000708 -51.30288448 312.15000708 -47.9453125 306.609375 C-47.02836317 305.63395354 -46.08682069 304.68120571 -45.125 303.75 C-44.10066555 302.64625978 -43.08260085 301.53667356 -42.0703125 300.421875 C-41.5537207 299.85919922 -41.03712891 299.29652344 -40.50488281 298.71679688 C-23.19097907 278.96478988 -12.78997251 252.49535646 -8 227 C-7.82194824 226.14003418 -7.64389648 225.28006836 -7.46044922 224.39404297 C-5.75557719 215.48574382 -5.60062928 206.65853244 -5.625 197.625 C-5.62587616 196.83108856 -5.62675232 196.03717712 -5.62765503 195.21920776 C-5.76517618 157.35330482 -18.82680956 120.58575323 -44 92 C-44.7528125 91.13761719 -45.505625 90.27523437 -46.28125 89.38671875 C-52.74448934 82.09344011 -59.38170395 75.09463684 -67 69 C-65.3255737 64.63230114 -62.06484147 61.79877723 -58.80615234 58.57910156 C-58.1718782 57.94453537 -57.53760406 57.30996918 -56.8841095 56.65617371 C-54.78942522 54.56288118 -52.68774898 52.4767592 -50.5859375 50.390625 C-49.1310443 48.93946247 -47.67659244 47.48785733 -46.2225647 46.03582764 C-42.39649074 42.21738582 -38.56444838 38.40498851 -34.73114014 34.59381104 C-30.81974796 30.70288621 -26.91401915 26.80628572 -23.0078125 22.91015625 C-15.34407973 15.26786601 -7.67403095 7.63194826 0 0 Z " fill="#FEFEFE" transform="translate(860,193)"/>
<path d="M0 0 C17.69365994 6.82445548 31.75319134 28.60758824 39.35546875 45.21875 C46.58992298 61.66867018 50.1771653 76.8089663 50.1875 94.75 C50.19974609 95.8534375 50.21199219 96.956875 50.22460938 98.09375 C50.24358997 108.8747295 48.66834541 118.9906896 45.375 129.25 C45.11775146 130.05501953 44.86050293 130.86003906 44.59545898 131.68945312 C41.86738257 139.88900411 38.22104707 147.47423367 34 155 C33.44570313 155.99515625 32.89140625 156.9903125 32.3203125 158.015625 C25.35950568 169.67247853 15.12654741 179.24284111 5.3671875 188.55859375 C2.23042581 191.57884715 1.12571007 193.52290665 0.75 197.9375 C0.81410286 202.33312495 2.03498566 206.37955802 3.14453125 210.609375 C4.76172053 217.01905671 5.93132986 223.48178429 7 230 C7.20955322 231.21260498 7.20955322 231.21260498 7.42333984 232.44970703 C12.02317464 259.97075253 12.87394763 291.27241017 7.44873047 318.70800781 C6.98071849 321.09848465 6.58291658 323.49432679 6.19140625 325.8984375 C-2.92305807 379.1725338 -35.13467413 429.52771686 -79 461 C-79.62583984 461.4542334 -80.25167969 461.9084668 -80.89648438 462.37646484 C-90.53455418 469.3316988 -100.50065999 475.43862272 -111 481 C-111.6280957 481.33596191 -112.25619141 481.67192383 -112.90332031 482.01806641 C-129.09591051 490.6174974 -146.37519852 497.91568874 -164 503 C-165.23049072 503.35723145 -165.23049072 503.35723145 -166.48583984 503.72167969 C-239.53449271 524.46502578 -316.31970383 512.87328408 -382.27978516 476.54443359 C-388.44070078 473.04650214 -394.29312212 469.19305343 -400 465 C-400.81718506 464.40372803 -400.81718506 464.40372803 -401.65087891 463.79541016 C-413.07791438 455.39168623 -424.19920179 446.26750289 -434 436 C-432.53129995 432.62616564 -430.64893106 430.37512587 -428.08181763 427.75382996 C-427.26340897 426.91388489 -426.44500031 426.07393982 -425.60179138 425.20854187 C-424.70211136 424.29562881 -423.80243134 423.38271576 -422.87548828 422.44213867 C-421.91897167 421.46489665 -420.9627984 420.48731846 -420.00694275 419.50942993 C-416.86954144 416.30422915 -413.72101127 413.11009258 -410.5703125 409.91796875 C-410.03373189 409.37414496 -409.49715129 408.83032116 -408.94431067 408.27001786 C-403.88040287 403.13892773 -398.81195779 398.01235508 -393.7334919 392.89567089 C-387.2463877 386.35908172 -380.78187885 379.80180105 -374.34624875 373.21451586 C-369.81426948 368.57941444 -365.25755992 363.96955787 -360.68198383 359.37749273 C-357.95193747 356.63624772 -355.23391232 353.88517641 -352.54202652 351.10640526 C-350.0075006 348.49112756 -347.44361336 345.90862134 -344.85444832 343.3474617 C-343.46545359 341.95790427 -342.1087715 340.5362779 -340.75349426 339.11381531 C-334.66226215 333.17195571 -334.66226215 333.17195571 -329.823452 332.67139626 C-326.80204832 332.91177719 -323.96299958 333.37789259 -321 334 C-309.25805613 334.90852193 -309.25805613 334.90852193 -299 330 C-295.08780786 325.78601018 -294.38795301 321.245449 -294.59375 315.62890625 C-295.17371502 311.87586338 -296.51864309 308.65122618 -298.125 305.2265625 C-299 303 -299 303 -299 299 C-297.685534 297.18874002 -297.685534 297.18874002 -295.79843903 295.30624771 C-295.08434293 294.58418742 -294.37024684 293.86212714 -293.63451147 293.11818624 C-292.83686707 292.3321932 -292.03922267 291.54620017 -291.21740723 290.73638916 C-290.38027899 289.89584323 -289.54315076 289.05529729 -288.680655 288.18928027 C-286.35045757 285.85362081 -284.01158841 283.52729979 -281.66868711 281.20442462 C-279.1461063 278.6990805 -276.63505741 276.1822259 -274.12260437 273.66673279 C-269.76653168 269.30856034 -265.4031816 264.95778486 -261.03483582 260.61191559 C-254.7189228 254.32847887 -248.41405379 248.03405611 -242.11184555 241.73687729 C-231.88721954 231.5210108 -221.65368848 221.31411314 -211.41455078 211.11279297 C-201.46683888 201.20178416 -191.52332713 191.28659251 -181.58544922 181.36572266 C-180.97311513 180.75443946 -180.36078103 180.14315626 -179.72989136 179.51334932 C-176.65808804 176.44676607 -173.58636727 173.38010015 -170.51468754 170.31339312 C-145.022577 144.86276507 -119.51601081 119.42666518 -94 94 C-90.73048098 95.26914869 -87.99620537 96.53088418 -85.171875 98.6171875 C-84.46337402 99.13555176 -83.75487305 99.65391602 -83.02490234 100.18798828 C-81.89882568 101.02305908 -81.89882568 101.02305908 -80.75 101.875 C-79.13337709 103.05806355 -77.51617592 104.24033727 -75.8984375 105.421875 C-75.08084961 106.02064453 -74.26326172 106.61941406 -73.42089844 107.23632812 C-67.70288144 111.40201538 -61.90938546 115.46212606 -56.11425781 119.51953125 C-54.66980005 120.53098528 -53.22649099 121.54408126 -51.78417969 122.55859375 C-49.60989407 124.08621273 -47.43072659 125.60659425 -45.25 127.125 C-44.59435059 127.58664551 -43.93870117 128.04829102 -43.26318359 128.52392578 C-35.84304809 133.66094267 -30.03914088 134.72877339 -21 134 C-15.48894878 132.99132174 -11.71175665 130.64363479 -8.34667969 126.14501953 C-3.68884767 118.72592741 -3.51161931 110.19105144 -3.625 101.6875 C-3.63587646 100.58172607 -3.64675293 99.47595215 -3.65795898 98.33666992 C-4.03089923 79.23790741 -10.57552371 63.36528211 -24.26171875 49.75 C-28.55151434 45.78794771 -32.80156453 42.65452024 -38 40 C-36.59490901 36.81740149 -34.93078658 34.68651534 -32.46826172 32.24121094 C-31.38736771 31.16054352 -31.38736771 31.16054352 -30.28463745 30.05804443 C-29.50750397 29.29123352 -28.73037048 28.52442261 -27.9296875 27.734375 C-27.13345978 26.94097717 -26.33723206 26.14757935 -25.51687622 25.33013916 C-22.97424052 22.79869297 -20.42473652 20.27429197 -17.875 17.75 C-16.14928247 16.03431383 -14.42401645 14.31817338 -12.69921875 12.6015625 C-8.47136968 8.39575752 -4.23786131 4.19571493 0 0 Z " fill="#FEFEFE" transform="translate(758,295)"/>
<path d="M0 0 C0.62696777 0.16628906 1.25393555 0.33257812 1.89990234 0.50390625 C17.65866136 4.68661938 31.41704141 11.55920461 44 22 C45.27423828 23.02867187 45.27423828 23.02867187 46.57421875 24.078125 C65.47394306 40.09986931 79.79517506 64.82495783 85 89 C85 89.99 85 90.98 85 92 C96.88 92 108.76 92 121 92 C121.33 89.36 121.66 86.72 122 84 C122.66463783 81.24089239 123.60015265 78.60653962 124.5625 75.9375 C124.82643555 75.20362061 125.09037109 74.46974121 125.36230469 73.71362305 C136.20997608 44.58480371 157.3853185 21.0303346 185 7 C185.95003906 6.50628906 186.90007812 6.01257813 187.87890625 5.50390625 C202.85236344 -1.49242528 219.4734864 -3.45962537 235.8125 -3.625 C237.0691748 -3.64796143 238.32584961 -3.67092285 239.62060547 -3.69458008 C248.70903098 -3.61856956 255.98692201 -2.01307799 262.5625 4.5625 C265.24421495 9.10975578 265.72073816 13.75180802 265 19 C261.78884695 25.29880022 257.18407578 29.39659257 250.625 31.8125 C241.07445149 34.56165955 234.74487618 32.2752728 226 28 C225.01 27.34 224.02 26.68 223 26 C210.83537514 22.63531653 197.43637325 30.23616321 187 36 C183.11746046 38.43897077 179.5430696 41.09433838 176 44 C175.23558594 44.59039062 174.47117187 45.18078125 173.68359375 45.7890625 C164.36557214 53.40553233 157.95372615 63.62205313 152.5625 74.25 C152.24466553 74.87455078 151.92683105 75.49910156 151.59936523 76.14257812 C149.84282119 79.76618821 148.52876286 83.38334349 147.39428711 87.24902344 C147.13111191 88.14119568 146.86793671 89.03336792 146.5967865 89.95257568 C146.39984695 90.62822571 146.20290741 91.30387573 146 92 C146.55391922 91.99333817 147.10783844 91.98667633 147.67854309 91.97981262 C231.19227028 91.02209006 231.19227028 91.02209006 263 111 C262.42118732 114.54822446 261.17307641 116.18422803 258.62109375 118.671875 C257.61079102 119.66767578 257.61079102 119.66767578 256.58007812 120.68359375 C255.87302734 121.36550781 255.16597656 122.04742187 254.4375 122.75 C253.72658203 123.44738281 253.01566406 124.14476562 252.28320312 124.86328125 C250.52869286 126.5824658 248.76756648 128.29425872 247 130 C246.31808594 129.7215625 245.63617187 129.443125 244.93359375 129.15625 C241.66568842 127.86823405 238.37148221 126.67844317 235.0625 125.5 C233.87785156 125.0771875 232.69320313 124.654375 231.47265625 124.21875 C230.32667969 123.8165625 229.18070313 123.414375 228 123 C226.70551138 122.51681777 226.70551138 122.51681777 225.38487148 122.02387428 C211.15839944 117.72057387 195.82904356 117.55695825 181.08959961 117.61181641 C179.20451557 117.6077358 177.31943394 117.60238569 175.43435669 117.59588623 C170.38737337 117.58239204 165.3405772 117.58743364 160.29359126 117.59702349 C154.97815808 117.60470414 149.66273922 117.59755238 144.3473053 117.59286499 C135.43699305 117.5874359 126.52675588 117.59452822 117.61645508 117.60888672 C107.34210541 117.62525296 97.06793403 117.61988444 86.79358858 117.6034075 C77.92849203 117.589765 69.0634489 117.58788512 60.19834524 117.59572351 C54.92210153 117.60037905 49.6459415 117.60108267 44.36970329 117.59111404 C39.41592094 117.58240459 34.46236757 117.58853849 29.50860977 117.60579681 C27.69950934 117.60973854 25.89038939 117.60866766 24.08129692 117.60200882 C3.54104292 117.53341216 -12.92560411 122.10755396 -27.96484375 136.9375 C-40.13750485 150.14896588 -45.55032658 166.65308995 -45.03622437 184.41329956 C-45.00681241 185.91322219 -45.00681241 185.91322219 -44.97680628 187.44344628 C-44.93302732 189.62040946 -44.88434325 191.79727837 -44.83128929 193.97403526 C-44.7149266 198.76490776 -44.62325304 203.55617106 -44.530123 208.347543 C-44.47990512 210.92773509 -44.42851476 213.50790459 -44.37602973 216.08805156 C-44.18561771 225.60036078 -44.04975142 235.11235268 -43.94839478 244.62600708 C-43.93725209 245.66317979 -43.93725209 245.66317979 -43.92588429 246.72130547 C-43.85741263 253.140154 -43.79294704 259.55903945 -43.73204494 265.97796416 C-43.69023889 270.37237515 -43.64643152 274.76676209 -43.60058594 279.16113281 C-43.58921059 280.25548014 -43.58921059 280.25548014 -43.57760544 281.3719355 C-43.45174256 293.12862685 -43.20435248 304.87979523 -42.91257577 316.63340102 C-42.6144086 328.76572081 -42.45814264 340.89435997 -42.4251219 353.0303117 C-42.40262918 359.82186316 -42.3149849 366.59799443 -42.06965256 373.38558578 C-40.43845325 420.45284048 -40.43845325 420.45284048 -58.01284218 439.77778816 C-59.59171436 441.39963832 -61.18448133 443.00808913 -62.79150391 444.60205078 C-63.54775834 445.36716028 -64.30401277 446.13226978 -65.083184 446.92056441 C-72.91178555 454.5485206 -79.94582728 459.62752567 -91.12803304 460.01677024 C-95.7943119 459.93939796 -100.37081076 459.57932984 -105 459 C-105.79752158 458.90925398 -106.59504317 458.81850796 -107.41673207 458.72501206 C-125.87157902 456.55020929 -143.16378906 447.92752369 -155.1875 433.57421875 C-163.46038085 421.82458841 -167.58904316 409.03325637 -167.375 394.6875 C-167.36339844 393.67913086 -167.35179687 392.67076172 -167.33984375 391.63183594 C-166.5872442 357.15613596 -144.86307699 328.92248856 -121 306 C-122.4540625 305.29037109 -122.4540625 305.29037109 -123.9375 304.56640625 C-148.22070038 292.62665634 -170.37092136 278.73807507 -190 260 C-190.86496094 259.18789063 -191.72992188 258.37578125 -192.62109375 257.5390625 C-208.63965412 242.09527107 -221.31324919 222.24900814 -228 201 C-228.30035156 200.10925781 -228.60070312 199.21851563 -228.91015625 198.30078125 C-234.05735578 180.36937451 -232.65629503 159.83290987 -224.25 143.25 C-212.47045823 123.16588128 -194.06872384 110.79422834 -171.8046875 104.84375 C-154.04206301 100.46243023 -135.14185919 99.97183318 -117 102 C-116.01797607 102.10755615 -116.01797607 102.10755615 -115.01611328 102.21728516 C-94.87008004 104.58089383 -75.11790708 111.11773647 -56.6953125 119.43359375 C-52.5023624 121.36519064 -52.5023624 121.36519064 -48 122 C-45.44863961 119.98998814 -45.44863961 119.98998814 -43.0625 117.125 C-29.49017359 102.56236789 -9.71442889 93.90315053 10 92 C13.87429416 91.86770703 17.74493092 91.88342664 21.62109375 91.90234375 C22.72099136 91.9037587 23.82088898 91.90517365 24.95411682 91.90663147 C28.44860617 91.91220497 31.94303019 91.92475261 35.4375 91.9375 C37.8144522 91.94251842 40.1914054 91.94708073 42.56835938 91.95117188 C48.37892834 91.96216572 54.1894595 91.97887738 60 92 C59.07477877 89.47484609 58.14434892 86.95181344 57.2109375 84.4296875 C56.95304443 83.72416748 56.69515137 83.01864746 56.42944336 82.29174805 C52.36386604 71.34305377 46.80837503 61.73286388 39 53 C37.89205078 51.75089844 37.89205078 51.75089844 36.76171875 50.4765625 C25.06688857 38.0352538 6.14366508 26.20119644 -11.265625 24.72265625 C-15.75707457 25.05622625 -18.79248336 26.41115631 -22.75 28.4375 C-29.24768681 31.64819651 -34.58210652 34.12622032 -42 33 C-48.230294 30.78899579 -54.79903328 27.94334279 -58.29296875 22.0546875 C-60.22804751 16.43119896 -59.9121492 10.97024226 -57.4375 5.625 C-44.1764323 -8.65614983 -17.24109465 -4.9776385 0 0 Z " fill="#020200" transform="translate(406,214)"/>
<path d="M0 0 C2.90409224 1.56600914 5.18829157 3.77268459 7.55419922 6.03540039 C8.08859619 6.5392627 8.62299316 7.043125 9.17358398 7.56225586 C10.24201248 8.57316227 11.30727571 9.58742594 12.36914062 10.60522461 C13.53338176 11.7147991 14.71852667 12.80241083 15.90966797 13.88305664 C37.76273273 34.33827078 51.529154 63.36834303 58.80419922 91.97290039 C59.07321045 92.9899707 59.07321045 92.9899707 59.34765625 94.02758789 C65.08838563 116.73966916 63.74615658 144.48400655 57.80419922 166.97290039 C57.55412109 168.03250977 57.30404297 169.09211914 57.04638672 170.18383789 C56.38958934 172.81857681 55.62819299 175.38603534 54.80419922 177.97290039 C54.51544922 178.9487207 54.22669922 179.92454102 53.92919922 180.92993164 C48.01673956 199.2542092 38.07140671 217.88548034 24.96044922 232.09790039 C24.49525879 232.61392822 24.03006836 233.12995605 23.55078125 233.66162109 C22.27504078 235.05567071 20.95898404 236.41252889 19.64013672 237.76586914 C15.44665304 245.09108211 18.0359397 254.30909724 19.2277832 262.28442383 C27.77171189 320.66250833 21.07886686 381.8143974 -5.19580078 434.97290039 C-5.55641602 435.70653809 -5.91703125 436.44017578 -6.28857422 437.19604492 C-16.61154767 457.96720309 -29.9577304 476.54495974 -45.19580078 493.97290039 C-46.05947266 494.96161133 -46.92314453 495.95032227 -47.81298828 496.96899414 C-59.97891244 510.56089457 -73.45369511 522.25501082 -88.19580078 532.97290039 C-88.78103516 533.39941895 -89.36626953 533.8259375 -89.96923828 534.26538086 C-117.99210459 554.53426743 -150.10704698 570.05673296 -183.19580078 579.97290039 C-183.9624707 580.20315918 -184.72914063 580.43341797 -185.51904297 580.6706543 C-207.20152344 587.04812967 -229.76713654 590.49727931 -252.19580078 592.97290039 C-253.38044922 593.10567383 -254.56509766 593.23844727 -255.78564453 593.37524414 C-334.7550745 600.50103943 -419.64787768 572.76152523 -480.42236328 522.18774414 C-487.99303964 515.79023366 -495.28263354 509.07810006 -502.19580078 501.97290039 C-500.88203162 499.06746167 -499.47523586 497.0062898 -497.21484375 494.76489258 C-496.61437225 494.16457214 -496.01390076 493.56425171 -495.39523315 492.94573975 C-494.74934235 492.31017151 -494.10345154 491.67460327 -493.43798828 491.01977539 C-492.77493683 490.35955383 -492.11188538 489.69933228 -491.42874146 489.019104 C-489.31408246 486.91562215 -487.19256866 484.81920897 -485.07080078 482.72290039 C-483.63414521 481.29627778 -482.1979418 479.86919967 -480.76220703 478.44165039 C-477.24529274 474.94676378 -473.72221531 471.45819977 -470.19580078 467.97290039 C-469.08269067 468.92069981 -467.9704795 469.86955502 -466.85864258 470.81884766 C-466.23918259 471.34712662 -465.6197226 471.87540558 -464.98149109 472.41969299 C-462.58238645 474.50645298 -460.30455163 476.71141887 -458.00830078 478.91040039 C-445.44315774 490.60820039 -431.24327802 500.73319031 -416.19580078 508.97290039 C-415.37837402 509.42729492 -414.56094727 509.88168945 -413.71875 510.34985352 C-391.57304138 522.5854079 -368.67034476 531.59710433 -344.19580078 537.97290039 C-343.01244141 538.28565918 -343.01244141 538.28565918 -341.80517578 538.60473633 C-329.35384676 541.83185089 -316.71973167 543.31747432 -303.94628906 544.67456055 C-302.25041767 544.85850825 -300.55566973 545.05370404 -298.86328125 545.26733398 C-273.05173386 548.48871689 -245.53544926 545.38932409 -220.19580078 539.97290039 C-219.41430664 539.81096191 -218.6328125 539.64902344 -217.82763672 539.48217773 C-155.81801176 526.44209544 -96.97986944 491.11948021 -61.82519531 437.70532227 C-53.05037751 424.08741958 -46.23025106 410.00338054 -40.19580078 394.97290039 C-39.93283203 394.32611328 -39.66986328 393.67932617 -39.39892578 393.01293945 C-32.60776397 376.10106012 -29.50628385 357.96660722 -27.19580078 339.97290039 C-27.0237915 338.75393066 -26.85178223 337.53496094 -26.67456055 336.27905273 C-26.11163142 331.73607837 -25.99959194 327.23040577 -25.95751953 322.65649414 C-25.94296471 321.33404442 -25.94296471 321.33404442 -25.92811584 319.98487854 C-25.90319086 317.12667245 -25.89057837 314.26870441 -25.88330078 311.41040039 C-25.88068237 310.43192139 -25.87806396 309.45344238 -25.87536621 308.4453125 C-25.45890005 270.6958476 -25.45890005 270.6958476 -35.19580078 234.97290039 C-35.75302769 229.28918595 -34.76808673 225.38086249 -31.19580078 220.97290039 C-27.98228314 217.83438406 -24.5834147 214.92082401 -21.19580078 211.97290039 C-2.09781509 194.66335483 11.7434832 166.750203 13.80419922 140.97290039 C13.96600659 136.70118584 13.98924687 132.43485147 13.99169922 128.16040039 C14.00394531 127.04858398 14.01619141 125.93676758 14.02880859 124.79125977 C14.04139212 117.62284504 13.3619178 110.9668392 11.80419922 103.97290039 C11.53220703 102.7212207 11.26021484 101.46954102 10.97998047 100.17993164 C6.30774229 81.80809916 -1.93193771 66.46030499 -14.19580078 51.97290039 C-14.89576172 51.13758789 -15.59572266 50.30227539 -16.31689453 49.44165039 C-21.74994442 43.16604197 -27.63774892 38.04772931 -34.19580078 32.97290039 C-28.70778856 26.43852733 -22.85478767 20.34313555 -16.85449219 14.28149414 C-15.65642667 13.06670228 -14.46377519 11.84654909 -13.27636719 10.62133789 C-11.55045403 8.84097206 -9.80894157 7.07734026 -8.06298828 5.31665039 C-7.26911209 4.48877014 -7.26911209 4.48877014 -6.459198 3.64416504 C-2.75992175 -0.03406174 -2.75992175 -0.03406174 0 0 Z " fill="#813101" transform="translate(793.19580078125,262.027099609375)"/>
<path d="M0 0 C0.77843527 -0.00297112 1.55687055 -0.00594224 2.35889477 -0.0090034 C4.95842601 -0.01765072 7.55791098 -0.01919534 10.15745544 -0.02069092 C12.02572222 -0.02532229 13.89398806 -0.03034738 15.76225281 -0.03573608 C20.83545944 -0.04884056 25.90865284 -0.05530248 30.98187375 -0.05974674 C34.15973095 -0.06268363 37.33758459 -0.06678983 40.51543999 -0.07125092 C50.4813776 -0.08492734 60.44730702 -0.09459048 70.41325337 -0.09845281 C81.87198796 -0.1029191 93.3306024 -0.12039967 104.7893005 -0.1494534 C113.67205656 -0.17118356 122.55477913 -0.18116327 131.43756145 -0.18249393 C136.72942317 -0.18353487 142.021172 -0.18928808 147.31300545 -0.20731354 C152.30598887 -0.22398883 157.29877695 -0.22585708 162.29177856 -0.21717453 C164.1067705 -0.21641414 165.92177378 -0.22061171 167.7367382 -0.23063278 C188.998712 -0.34096914 210.15301293 1.70425574 229.09275818 12.14044189 C227.79281122 15.00400287 226.41897744 17.0627037 224.19477844 19.27893066 C223.60303833 19.8734201 223.01129822 20.46790955 222.40162659 21.08041382 C221.43058487 22.04066971 221.43058487 22.04066971 220.43992615 23.02032471 C219.75688416 23.70365875 219.07384216 24.3869928 218.37010193 25.09103394 C216.1130918 27.34665165 213.84908187 29.59510411 211.58494568 31.84356689 C210.01795132 33.40683082 208.45139819 34.97053713 206.88526917 36.53466797 C202.76327676 40.64902635 198.63531333 44.7573431 194.50608826 48.86444092 C190.29308234 53.05698355 186.0857366 57.25519778 181.87791443 61.45294189 C173.62173328 69.68767718 165.35923461 77.91604254 157.09275818 86.14044189 C156.31416443 85.35798096 155.53557068 84.57552002 154.73338318 83.76934814 C148.00203537 77.06787318 140.98224222 72.75573985 131.31700134 72.57611084 C130.1149707 72.58354309 130.1149707 72.58354309 128.88865662 72.59112549 C127.58200043 72.57579269 127.58200043 72.57579269 126.24894714 72.56015015 C123.3997217 72.53258469 120.55147518 72.53425175 117.70213318 72.53887939 C115.70914861 72.53109716 113.71616734 72.52242611 111.72319031 72.51290894 C107.56078798 72.4980366 103.39872519 72.49853185 99.23631287 72.50909424 C93.90391693 72.52072277 88.57290157 72.48670599 83.2407341 72.44040489 C79.13143302 72.4109513 75.02246623 72.40918291 70.91307831 72.41542435 C68.94667561 72.41439832 66.9802541 72.40393002 65.01395416 72.38380051 C62.26814421 72.35912177 59.52504805 72.37261212 56.77928162 72.39581299 C55.96983093 72.38052551 55.16038025 72.36523804 54.32640076 72.3494873 C49.98408593 72.43058623 48.51094719 72.7822039 45.08929443 75.71333313 C42.85254999 79.55276578 42.38745052 82.39541288 42.46165466 86.71881104 C42.45449936 87.45292709 42.44734406 88.18704315 42.43997192 88.94340515 C42.42314947 91.35478138 42.44244516 93.76428149 42.46385193 96.17559814 C42.46302271 97.85898492 42.46056134 99.5423716 42.45654297 101.22575378 C42.45368953 104.74712609 42.46834267 108.26786072 42.49583435 111.78912354 C42.52994316 116.29749319 42.5238862 120.80472505 42.50517178 125.31314945 C42.49459285 128.78681384 42.50354716 132.26021442 42.51855659 135.73385429 C42.52373058 137.39599257 42.52326611 139.05815848 42.51701164 140.72029305 C42.51154733 143.04461861 42.53196958 145.36732624 42.55931091 147.69146729 C42.55278503 148.37472076 42.54625916 149.05797424 42.53953552 149.76193237 C42.6334424 154.46801606 43.81352813 156.80919987 47.09275818 160.14044189 C50.4407551 162.47800732 53.59213344 162.44497031 57.60838318 162.55450439 C59.48396912 162.61251221 59.48396912 162.61251221 61.39744568 162.67169189 C62.6993988 162.70262939 64.00135193 162.73356689 65.34275818 162.76544189 C67.31889099 162.82344971 67.31889099 162.82344971 69.33494568 162.88262939 C72.58740979 162.97690372 75.83986814 163.06250939 79.09275818 163.14044189 C73.27383059 170.26321371 66.71961564 176.6542746 60.2184906 183.144104 C58.90869305 184.45525803 57.59910802 185.76662439 56.28971863 187.07818604 C52.74906327 190.62338364 49.20527233 194.16543105 45.66075683 197.70676875 C41.95082531 201.41416329 38.24334008 205.12400287 34.53546143 208.83345032 C28.31587899 215.05484917 22.09419701 221.27414253 15.87132263 227.49224854 C8.66774259 234.69037262 1.46779147 241.8921115 -5.73031312 249.09571069 C-11.91030249 255.28022912 -18.09222722 261.46280793 -24.2757923 267.6437512 C-27.96951503 271.33591186 -31.66255143 275.02875219 -35.3538456 278.72334099 C-38.81781414 282.19018571 -42.28419581 285.65459894 -45.75250244 289.11710358 C-47.02849478 290.39176757 -48.30362565 291.66729455 -49.57785606 292.94371986 C-51.30900313 294.67757515 -53.04316115 296.40835955 -54.77816772 298.13835144 C-55.54390357 298.90743337 -55.54390357 298.90743337 -56.32510883 299.6920523 C-59.79309106 303.14044189 -59.79309106 303.14044189 -60.90724182 303.14044189 C-60.97574839 271.49619259 -61.02880631 239.85196446 -61.06043781 208.20765828 C-61.06418972 204.46780478 -61.06807271 200.72795142 -61.07203674 196.98809814 C-61.07282367 196.24359218 -61.07361061 195.49908621 -61.07442138 194.73201945 C-61.08745872 182.69296453 -61.11110331 170.65395279 -61.13870021 158.61492345 C-61.16680102 146.25253253 -61.18342795 133.89016416 -61.18950731 121.52774262 C-61.19361407 113.90563495 -61.20656299 106.28364936 -61.23099122 98.66157928 C-61.24879342 92.80707312 -61.25059567 86.95262889 -61.24656487 81.09809494 C-61.24738781 78.70364253 -61.25332326 76.30918535 -61.26485825 73.91476059 C-61.36877049 51.22507452 -58.394119 33.81069726 -41.74708557 16.95294189 C-29.8920158 5.9133002 -16.22957607 -0.01955449 0 0 Z " fill="#F9BC35" transform="translate(421.90724182128906,330.85955810546875)"/>
<path d="M0 0 C0.68625458 -0.00100708 1.37250916 -0.00201416 2.07955933 -0.00305176 C12.66235366 0.00743588 22.63869609 0.62148239 32.9375 3.25 C34.64873047 3.66765625 34.64873047 3.66765625 36.39453125 4.09375 C43.33120077 5.93295837 50.0725866 8.30030823 56.8125 10.75 C57.98981689 11.17684082 57.98981689 11.17684082 59.19091797 11.61230469 C64.29672989 13.5124944 69.1023459 15.73880379 73.9375 18.25 C73.59976563 19.34957031 73.26203125 20.44914062 72.9140625 21.58203125 C72.46322644 23.07542571 72.0127237 24.56892082 71.5625 26.0625 C71.34078125 26.78115234 71.1190625 27.49980469 70.890625 28.24023438 C67.85192896 38.38411673 66.6394011 48.12048545 66.61865234 58.69799805 C66.60860672 59.88953995 66.5985611 61.08108185 66.58821106 62.30873108 C66.56282372 65.53939002 66.54584519 68.76995473 66.53278303 72.00068259 C66.51702955 75.3906259 66.49027912 78.78048312 66.4647522 82.17036438 C66.4181787 88.57317223 66.38133174 94.97599666 66.34807932 101.37888604 C66.30970539 108.67530737 66.26033587 115.97164176 66.21009517 123.26798952 C66.10709453 138.26192856 66.01773172 153.25592051 65.9375 168.25 C64.35849577 168.10252072 62.77977297 167.95202658 61.20117188 167.80029297 C59.88240051 167.67507767 59.88240051 167.67507767 58.5369873 167.54733276 C18.6312304 162.98286001 -24.00564251 135.14001843 -49.0625 104.25 C-63.59423508 85.58427847 -73.63091499 64.388838 -71.0625 40.25 C-69.89633758 35.91187581 -68.25100493 32.16258876 -66.0625 28.25 C-65.19625 26.6721875 -65.19625 26.6721875 -64.3125 25.0625 C-54.12546582 12.32870728 -39.43888701 3.329846 -23.06274414 0.96069336 C-15.38390598 0.13181674 -7.71813605 0.00788998 0 0 Z " fill="#E1E1E1" transform="translate(270.0625,339.75)"/>
<path d="M0 0 C2.45548358 0.49924907 4.90729945 1.0168184 7.35546875 1.55078125 C8.60352295 1.82188721 9.85157715 2.09299316 11.13745117 2.37231445 C12.08209229 2.57945068 13.0267334 2.78658691 14 3 C14.0154612 4.89894768 14.0154612 4.89894768 14.03123474 6.83625793 C14.12921179 18.79710294 14.23196752 30.75789875 14.33933926 42.71866322 C14.39438124 48.86703098 14.44777009 55.01540364 14.49731445 61.16381836 C14.5452357 67.10311961 14.59758627 73.04236716 14.65294075 78.98160362 C14.67323923 81.24165182 14.69197188 83.50171467 14.70907402 85.76178932 C14.73339736 88.9399606 14.76341034 92.11803303 14.79467773 95.29614258 C14.8004332 96.21972061 14.80618866 97.14329865 14.81211853 98.09486389 C14.88252491 104.43708837 15.34270108 110.69229569 16 117 C-4.24090554 121.08628264 -26.06965568 121.37649433 -44 110 C-49.88574104 105.24917764 -54.34269381 100.11827616 -57 93 C-57.35578125 92.09894531 -57.7115625 91.19789063 -58.078125 90.26953125 C-63.11878622 72.39227092 -55.4885663 54.44161277 -47 39 C-37.91537076 23.61608733 -19.01636133 -2.92830796 0 0 Z " fill="#C7C7C7" transform="translate(322,530)"/>
<path d="M0 0 C1.26965399 0.61126191 2.53663309 1.22808149 3.80249023 1.84716797 C4.50832748 2.19004852 5.21416473 2.53292908 5.94139099 2.88619995 C19.61721612 10.28543635 28.77386374 25.71971149 34.0390625 39.7734375 C37.84753004 53.04968417 38.81246108 71.84849699 33.3984375 84.75 C30.31663932 89.70842389 26.36775537 92.76230969 21.25 95.4375 C9.14290336 97.53295903 1.87241531 95.13569072 -7.9921875 88.23046875 C-11.89521441 85.45306618 -15.75259074 82.61611625 -19.60351562 79.76708984 C-23.46477104 76.91992535 -27.3579314 74.11731226 -31.25 71.3125 C-31.98911621 70.77858643 -32.72823242 70.24467285 -33.48974609 69.69458008 C-40.30777061 64.77011583 -47.14945414 59.87908652 -54 55 C-48.68985746 48.55309361 -42.82873116 42.70050563 -36.9140625 36.81640625 C-35.84624655 35.75045891 -34.77865378 34.68428795 -33.71127319 33.61790466 C-30.92207682 30.83249861 -28.129889 28.05011071 -25.33703613 25.26837158 C-22.47936425 22.42098936 -19.62457498 19.57072014 -16.76953125 16.72070312 C-11.18248158 11.14432919 -5.59226366 5.57114506 0 0 Z " fill="#813101" transform="translate(719,334)"/>
<path d="M0 0 C1.29067383 -0.01836914 1.29067383 -0.01836914 2.60742188 -0.03710938 C11.5256425 -0.05727114 18.99301578 1.49021916 26.8125 5.8125 C27.45977051 6.16803955 28.10704102 6.5235791 28.77392578 6.88989258 C39.62358207 13.03640328 47.7267194 22.0159388 53.3125 33.1875 C53.85869769 39.52339325 53.04073504 43.95449539 49.3125 49.1875 C39.13011821 59.36988179 17.83330369 58.47444634 4.36083984 59.97729492 C0.81864236 60.37431155 -2.72147477 60.78713836 -6.26171875 61.20117188 C-40.06533476 65.07459094 -40.06533476 65.07459094 -47.171875 59.62109375 C-51.49736869 55.52971183 -53.53348788 52.50257105 -53.93359375 46.48828125 C-53.86659056 41.97432782 -52.61618612 38.44425974 -50.75 34.375 C-50.43571045 33.68140381 -50.1214209 32.98780762 -49.79760742 32.27319336 C-42.90517404 17.74678888 -31.1834679 7.83110048 -16.28125 2.0625 C-10.7319084 0.19043295 -5.82671956 0.00426866 0 0 Z " fill="#823102" transform="translate(619.6875,565.8125)"/>
<path d="M0 0 C1.289133 -0.01598991 1.289133 -0.01598991 2.60430908 -0.03230286 C5.43696845 -0.05794779 8.26652342 -0.03277757 11.09912109 -0.00463867 C13.07962398 -0.00681661 15.06012556 -0.01122074 17.0406189 -0.01774597 C21.19187473 -0.02354971 25.34207327 -0.0045943 29.49316406 0.03222656 C34.78586059 0.07752825 40.07648913 0.06519796 45.36922646 0.03441906 C49.46174505 0.01651725 53.55378946 0.02793766 57.6462822 0.04805946 C59.59569741 0.05453049 61.54516139 0.05253361 63.49455643 0.0415554 C75.66391785 -0.00578843 85.8296454 0.24370146 95.37588501 8.79679871 C97.00478395 10.45850467 98.26824085 11.77688188 99.24755859 13.88989258 C98.81039256 17.62899441 97.11749959 19.39446566 94.50146484 21.99926758 C93.74671875 22.75336914 92.99197266 23.5074707 92.21435547 24.28442383 C91.4209375 25.06172852 90.62751953 25.8390332 89.81005859 26.63989258 C88.62573242 27.82905273 88.62573242 27.82905273 87.41748047 29.04223633 C81.51446775 34.88989258 81.51446775 34.88989258 79.24755859 34.88989258 C78.75255859 30.43489258 78.75255859 30.43489258 78.24755859 25.88989258 C55.47755859 25.55989258 32.70755859 25.22989258 9.24755859 24.88989258 C9.24755859 38.74989258 9.24755859 52.60989258 9.24755859 66.88989258 C22.11755859 66.88989258 34.98755859 66.88989258 48.24755859 66.88989258 C46.26755859 69.19989258 44.28755859 71.50989258 42.24755859 73.88989258 C41.1848047 75.34681837 40.13404124 76.81267933 39.10302734 78.29223633 C34.30627257 84.48077828 29.38719639 90.33847111 21.32666016 91.74487305 C16.90303188 92.27599524 12.5103256 92.34044181 8.06005859 92.26489258 C7.32596771 92.2567453 6.59187683 92.24859802 5.83554077 92.24020386 C-2.26759298 92.070246 -7.79102705 91.72593838 -13.75244141 85.88989258 C-15.2154626 82.9638502 -14.93415525 80.00692245 -14.96118164 76.79736328 C-14.97096542 76.06704391 -14.98074921 75.33672455 -14.99082947 74.58427429 C-15.02080115 72.16142603 -15.04217686 69.73863319 -15.06103516 67.31567383 C-15.06760698 66.48777029 -15.07417881 65.65986675 -15.08094978 64.80687523 C-15.11355554 60.42221155 -15.13800007 56.03757224 -15.1574707 51.65283203 C-15.17526558 48.02779635 -15.21005349 44.40354127 -15.26000977 40.77880859 C-15.32029183 36.3997596 -15.35095766 32.02143292 -15.36064339 27.64198875 C-15.36918807 25.97582791 -15.38798213 24.30968585 -15.41738701 22.64376259 C-15.45643925 20.30479195 -15.45731995 17.96861556 -15.44946289 15.62939453 C-15.4694635 14.94704742 -15.48946411 14.26470032 -15.5100708 13.56167603 C-15.43634185 8.6464257 -13.90910637 5.68710214 -10.60173512 2.23547077 C-7.25875086 -0.19694258 -4.01716875 -0.07892842 0 0 Z " fill="#020200" transform="translate(478.75244140625,402.110107421875)"/>
<path d="M0 0 C2.91106895 2.72956345 4.49082057 4.66430827 5.12890625 8.65234375 C3.73221039 19.47673668 -4.03652571 29.04364301 -12.1875 35.89453125 C-22.94597694 43.88654269 -31.953012 46.60586569 -45.37109375 45.52734375 C-58.02866874 42.79655498 -69.12869922 31.62108945 -75.97265625 21.0546875 C-78.93511842 15.7007405 -80.81092406 10.65272355 -79.37109375 4.52734375 C-74.64403443 -2.73206878 -64.1338777 -6.27506521 -56.05859375 -8.34765625 C-37.6758783 -11.71951345 -15.67630458 -11.43261809 0 0 Z " fill="#813101" transform="translate(553.37109375,630.47265625)"/>
<path d="M0 0 C16.60059053 -0.12032643 16.60059053 -0.12032643 23.66992188 -0.14648438 C28.49611285 -0.16442677 33.32213329 -0.18566577 38.14819336 -0.22631836 C42.0385392 -0.25888429 45.9287022 -0.27684711 49.81917381 -0.28463173 C51.30437283 -0.29018026 52.7895617 -0.30101511 54.274683 -0.31719017 C56.35302072 -0.33892851 58.43060032 -0.34196856 60.5090332 -0.34057617 C61.69261917 -0.34723801 62.87620514 -0.35389984 64.09565735 -0.36076355 C67 0 67 0 68.87382507 1.25738525 C71.05275777 4.62901088 70.68190413 8.15952347 70 12 C68.68541231 14.85383533 66.89582526 17.0766682 64.84375 19.44140625 C64.28587799 20.09591263 63.72800598 20.75041901 63.15322876 21.42475891 C61.31253128 23.51618153 59.42117572 25.54486157 57.5 27.5625 C56.85415955 28.25031555 56.20831909 28.9381311 55.54290771 29.64678955 C46.02900959 39.45677238 37.83407265 43.90786658 24.06494141 44.15551758 C16.02014596 43.77559691 8.01101042 42.82872522 0 42 C0 28.14 0 14.28 0 0 Z " fill="#C89765" transform="translate(488,427)"/>
<path d="M0 0 C5.27628886 5.27628886 7.10892283 9.61852762 7.4375 17.0625 C7.24917962 22.17069037 6.15215949 24.95876988 3 29 C0.72831193 30.65949596 -1.44081195 31.76779835 -4 33 C-4.99 33.495 -4.99 33.495 -6 34 C-13.67804777 34.34668476 -21.41127847 34.26478692 -29 33 C-29.66 32.34 -30.32 31.68 -31 31 C-20.77 20.77 -10.54 10.54 0 0 Z " fill="#823502" transform="translate(457,596)"/>
</svg>
