<?xml version="1.0" encoding="UTF-8"?>
<svg version="1.1" xmlns="http://www.w3.org/2000/svg" width="1500" height="1500">
<path d="M0 0 C3.36699872 0.00460889 6.73363414 -0.00223099 10.10058594 -0.02050781 C28.79438136 -0.1208272 47.35992033 0.22700582 66.00292969 1.69067383 C67.17704973 1.78262055 67.17704973 1.78262055 68.37488937 1.87642479 C146.89646367 8.16917717 225.01289291 27.00824913 331.20214844 73.31567383 C331.8221875 73.61473633 332.44222656 73.91379883 333.08105469 74.22192383 C350.64398756 82.70541635 367.81572159 91.60673371 384.52050781 101.70141602 C387.09588396 103.25170618 389.68474367 104.77598569 392.28027344 106.29223633 C433.24690127 130.33461446 471.68516363 159.24430566 506.83496094 191.16723633 C508.46811318 192.64947022 510.10926342 194.12292295 511.75683594 195.58911133 C516.41480518 199.73739396 520.90546417 203.98024261 525.28027344 208.42504883 C527.15188486 210.26622755 529.08306644 211.98373964 531.07714844 213.69067383 C538.08384423 219.73377688 544.48092606 226.35987865 550.49121094 233.38598633 C552.32014707 235.44875904 554.23795302 237.38158102 556.20214844 239.31567383 C559.41649575 242.48683413 562.41965807 245.77150136 565.36230469 249.19458008 C567.39723662 251.54058441 569.4850581 253.83303833 571.57714844 256.12817383 C576.30830189 261.37704609 580.76091629 266.82129459 585.20214844 272.31567383 C586.21297611 273.5468747 587.22474893 274.77730001 588.23730469 276.00708008 C595.29333858 284.59610866 602.11629912 293.32292624 608.70166016 302.27807617 C609.69161839 303.62239628 610.68536035 304.96393933 611.68310547 306.30249023 C626.5982222 326.31462231 640.28956963 347.39743918 652.83691406 368.97045898 C654.21364819 371.33542823 655.6061205 373.69066837 656.99902344 376.04614258 C691.21068749 434.4000182 716.41892542 497.85373493 733.20214844 563.31567383 C733.3830603 564.01976379 733.56397217 564.72385376 733.75036621 565.44927979 C748.70752426 623.90512248 755.78856828 683.26412335 755.64819336 743.5546875 C755.63903946 747.67110613 755.64587384 751.78695534 755.66870117 755.90332031 C756.09882877 834.01767512 743.68588646 911.11902862 719.20214844 985.31567383 C718.63077148 987.06436768 718.63077148 987.06436768 718.04785156 988.84838867 C703.15475303 1034.17817318 683.57320937 1078.18126094 659.78857422 1119.53100586 C658.32485649 1122.10028324 656.89537015 1124.68465453 655.47949219 1127.28051758 C635.35488199 1163.87836028 609.85318877 1198.24408292 583.20214844 1230.31567383 C582.7796582 1230.82453125 582.35716797 1231.33338867 581.921875 1231.85766602 C576.02480417 1238.94362768 569.96352801 1245.83874739 563.69824219 1252.60083008 C561.59355358 1254.88996714 559.54146174 1257.20795223 557.51464844 1259.56567383 C554.55302991 1262.98673199 551.38602051 1266.14994539 548.16308594 1269.32348633 C546.29736038 1271.21894457 544.55555589 1273.17014118 542.82714844 1275.19067383 C536.80379195 1282.1744744 530.20222489 1288.54900886 523.19824219 1294.53833008 C520.94082218 1296.54836159 518.82479131 1298.66400336 516.70214844 1300.81567383 C512.69413324 1304.86444851 508.52695856 1308.61171736 504.20214844 1312.31567383 C503.12188021 1313.25872158 502.04253418 1314.20282624 500.96386719 1315.14770508 C485.22347401 1328.91442796 469.0479383 1341.92360151 452.20214844 1354.31567383 C451.45884277 1354.86578125 450.71553711 1355.41588867 449.94970703 1355.98266602 C417.13355914 1380.23904134 382.31129959 1401.31194877 345.99902344 1419.88354492 C344.176376 1420.81682442 342.35594139 1421.75444211 340.53808594 1422.69702148 C268.8379905 1459.87138067 188.86270077 1483.56512809 104.07714844 1495.00317383 C103.36619019 1495.10004486 102.65523193 1495.19691589 101.92272949 1495.29672241 C71.6448977 1499.37366522 41.17542267 1500.83417697 10.64990234 1500.70678711 C6.52677071 1500.68969683 2.40422082 1500.69990071 -1.71889114 1500.71711063 C-35.21210757 1500.83517945 -68.64248082 1498.64730137 -101.80175781 1493.81176758 C-103.0047628 1493.63767616 -103.0047628 1493.63767616 -104.23207092 1493.46006775 C-147.66982502 1487.06577356 -190.28641384 1476.81970694 -231.92901611 1462.93621826 C-233.70594045 1462.3461928 -235.48595246 1461.7654903 -237.26611328 1461.18530273 C-284.46388623 1445.79487744 -330.84101125 1424.47902503 -373.31689453 1398.80151367 C-375.5250191 1397.4790726 -377.74772886 1396.1936436 -379.98925781 1394.92895508 C-401.11645643 1382.9598312 -421.37684407 1368.86850717 -440.79785156 1354.31567383 C-441.50119629 1353.7895752 -442.20454102 1353.26347656 -442.92919922 1352.72143555 C-461.08916474 1339.09022128 -478.65300671 1324.69748369 -495.46582031 1309.43286133 C-496.98265843 1308.05576542 -498.50579625 1306.68556599 -500.03613281 1305.32348633 C-513.91244914 1292.9630701 -527.99407701 1280.38205817 -540.08691406 1266.24536133 C-541.91585019 1264.18258861 -543.83365615 1262.24976663 -545.79785156 1260.31567383 C-549.67782426 1256.4801283 -553.2564217 1252.46323304 -556.79785156 1248.31567383 C-557.70380108 1247.26202998 -558.61007739 1246.20866706 -559.51660156 1245.15551758 C-562.10255113 1242.1487473 -564.68059147 1239.13530607 -567.25585938 1236.11938477 C-568.72265728 1234.40363066 -570.19359189 1232.69150289 -571.66503906 1230.97973633 C-577.49962393 1224.16878507 -583.08736818 1217.21254566 -588.48681641 1210.05200195 C-589.85146365 1208.24467026 -591.22480029 1206.44415569 -592.59863281 1204.64379883 C-647.33452169 1132.62771471 -687.93566883 1051.5317955 -724.79785156 925.31567383 C-724.97167358 924.57700073 -725.14549561 923.83832764 -725.32458496 923.07727051 C-733.73045191 887.25231213 -739.37287436 851.13493998 -742.60644531 814.48284912 C-742.78618422 812.44777598 -742.97151171 810.41319861 -743.15722656 808.37866211 C-746.62919724 768.73516362 -746.39064316 727.94016215 -742.79785156 688.31567383 C-742.672654 686.86746275 -742.54783005 685.41921932 -742.42333984 683.97094727 C-735.52057339 604.86299311 -716.20897572 527.25964754 -684.79785156 454.31567383 C-684.38873535 453.36450684 -683.97961914 452.41333984 -683.55810547 451.43334961 C-681.06445708 445.68277774 -678.45849447 439.99060342 -675.79785156 434.31567383 C-675.37246094 433.39931152 -674.94707031 432.48294922 -674.50878906 431.53881836 C-652.96519603 385.24317575 -626.68386231 341.01902371 -595.79785156 300.31567383 C-595.23453125 299.57269043 -594.67121094 298.82970703 -594.09082031 298.06420898 C-587.3902723 289.26700257 -580.51602685 280.64852324 -573.30957031 272.26098633 C-570.92253661 269.46188304 -568.60425005 266.61882292 -566.29785156 263.75317383 C-562.17498169 258.68455603 -557.8062944 253.88727127 -553.36425781 249.10083008 C-551.23418972 246.78920367 -549.15833399 244.44954403 -547.11035156 242.06567383 C-544.14631786 238.64182583 -540.97644402 235.47627251 -537.75097656 232.30004883 C-535.92797489 230.44787913 -534.23181491 228.54392203 -532.54785156 226.56567383 C-525.85520288 218.80097616 -518.459108 211.59756981 -510.65722656 204.95629883 C-508.61484329 203.15419594 -506.70883445 201.25628436 -504.79785156 199.31567383 C-500.96180778 195.43528272 -496.93609051 191.86843846 -492.79785156 188.31567383 C-491.7163932 187.37119563 -490.63573218 186.42580404 -489.55566406 185.47973633 C-473.81570496 171.71526357 -457.64221907 158.70669984 -440.79785156 146.31567383 C-440.0545459 145.76556641 -439.31124023 145.21545898 -438.54541016 144.64868164 C-405.75631454 120.41230227 -370.96280667 99.3404835 -334.67626953 80.79077148 C-331.83681413 79.3356409 -329.00680854 77.86321118 -326.17675781 76.38989258 C-252.68069727 38.49702466 -170.57093421 15.43722074 -79.79785156 4.06567383 C-77.87320068 3.83908081 -77.87320068 3.83908081 -75.90966797 3.60791016 C-71.54251373 3.12620277 -67.17419839 2.70369701 -62.79785156 2.31567383 C-61.82571716 2.22847076 -60.85358276 2.1412677 -59.85198975 2.05142212 C-39.89051048 0.32206627 -20.02367858 -0.02964864 0 0 Z " fill="#F1AC00" transform="translate(744.7978515625,-0.315673828125)"/>
<path d="M0 0 C0.7209787 -0.00040283 1.4419574 -0.00080566 2.18478394 -0.0012207 C46.4576687 0.13989779 88.4657412 15.0363434 120.40380859 46.01757812 C121.74869879 47.31560026 123.1173658 48.5888704 124.48828125 49.859375 C148.42559715 72.61318725 166.65429683 107.02436243 172.875 139.4375 C172.875 140.4275 172.875 141.4175 172.875 142.4375 C190.365 142.4375 207.855 142.4375 225.875 142.4375 C227.195 136.4975 228.515 130.5575 229.875 124.4375 C230.98151456 120.89616054 232.0760436 117.54944303 233.4375 114.125 C233.77555664 113.26165039 234.11361328 112.39830078 234.46191406 111.50878906 C241.18551875 94.83545546 249.99766958 79.71742226 260.875 65.4375 C261.59945312 64.46941406 262.32390625 63.50132812 263.0703125 62.50390625 C273.70986529 48.89094232 286.36650851 36.82019505 300.875 27.4375 C301.58994629 26.97504883 302.30489258 26.51259766 303.04150391 26.03613281 C319.72908094 15.44004435 337.57066819 8.54141368 356.875 4.4375 C357.53258301 4.29473633 358.19016602 4.15197266 358.86767578 4.00488281 C370.73887594 1.43985049 381.9791792 0.23219625 394.1394043 0.19726562 C396.17343176 0.18756708 398.20644282 0.15645165 400.24023438 0.125 C412.09203265 0.0786813 423.78174195 1.08104744 432.875 9.4375 C437.6017706 15.27117258 440.28818511 20.33149769 440.140625 27.90625 C439.28391269 36.07021432 435.66047458 41.60772365 429.390625 46.74609375 C425.46715195 49.38408107 421.35955276 51.00470968 416.875 52.4375 C415.39 52.9325 415.39 52.9325 413.875 53.4375 C400.31637488 54.35433811 391.43287103 51.62838056 379.7578125 44.9609375 C371.23404539 40.45650773 362.64523203 42.34203517 353.81640625 45.046875 C319.61261694 56.69441698 292.29640893 78.77295204 275.125 110.5625 C274.4896936 111.71286743 274.4896936 111.71286743 273.84155273 112.88647461 C268.98547713 122.24110606 266.06527286 132.42537717 262.875 142.4375 C263.79667465 142.43083817 264.7183493 142.42417633 265.66795349 142.41731262 C274.47510781 142.35649053 283.28218877 142.31117187 292.0895071 142.28206348 C296.61437074 142.26659422 301.13905686 142.24571231 305.66381836 142.21118164 C336.49711843 141.98223742 367.20171647 142.99974732 396.875 152.4375 C397.4834375 152.63037598 398.091875 152.82325195 398.71875 153.02197266 C413.51371541 157.78410215 432.27154305 164.24846745 443.11328125 175.828125 C445.62739402 177.67693632 445.62739402 177.67693632 447.79663086 177.15869141 C450.20720278 176.35543644 452.52885624 175.41279178 454.875 174.4375 C456.66762649 173.80297135 458.46474678 173.18102846 460.265625 172.5703125 C461.21074951 172.24458252 462.15587402 171.91885254 463.12963867 171.58325195 C520.6812484 151.97095427 583.05759169 146.88068953 638.90234375 173.90234375 C663.85347693 186.82538403 682.62656123 208.55840381 691.25 235.25 C694.25157859 245.41889942 695.26458097 255.36265041 695.25 265.9375 C695.24758301 267.77646851 695.24758301 267.77646851 695.24511719 269.65258789 C695.10658134 280.01765018 693.65625336 289.48406762 690.875 299.4375 C690.59785156 300.5409375 690.32070312 301.644375 690.03515625 302.78125 C678.6749573 344.24335862 647.25768911 382.32583496 613.875 408.4375 C612.81900105 409.29395845 611.76436977 410.15210529 610.7109375 411.01171875 C553.38751745 457.4375 553.38751745 457.4375 529.875 457.4375 C532.60341272 460.17616991 535.3441771 462.90002618 538.109375 465.6015625 C545.18530237 472.54528571 551.80466742 479.58058124 557.875 487.4375 C558.90327786 488.73727036 559.93195261 490.03672679 560.9609375 491.3359375 C586.99723663 524.4761805 602.90606361 561.67579291 599.875 604.4375 C598.36987666 614.8918137 594.90021546 625.15669668 589.875 634.4375 C589.21564453 635.67306641 589.21564453 635.67306641 588.54296875 636.93359375 C575.35511279 660.22124023 553.38849774 674.62323044 528.0625 681.6875 C496.83174891 689.90969172 463.82277209 688.06085375 432.875 679.4375 C432.7821875 680.72398437 432.689375 682.01046875 432.59375 683.3359375 C431.99905057 688.62008976 430.39532626 693.16850015 428.375 698.0625 C428.02115234 698.92987793 427.66730469 699.79725586 427.30273438 700.69091797 C414.04969906 732.21619855 388.81616303 754.6154108 357.41259766 767.44335938 C352.30427669 769.35699956 347.11497353 770.93045587 341.875 772.4375 C340.69550781 772.80230469 339.51601563 773.16710938 338.30078125 773.54296875 C319.24715569 779.11183355 298.71478292 781.84056557 278.875 781.4375 C278.46556152 782.51680786 278.46556152 782.51680786 278.04785156 783.61791992 C276.89439229 786.3908802 275.57761313 788.9322937 274.109375 791.55078125 C273.27986328 793.03288086 273.27986328 793.03288086 272.43359375 794.54492188 C271.83675781 795.60259766 271.23992188 796.66027344 270.625 797.75 C270.00238281 798.85794922 269.37976563 799.96589844 268.73828125 801.10742188 C263.95386134 809.59326926 259.05994065 818.01250817 254.12792969 826.41333008 C249.95418352 833.53950755 245.89113195 840.72146838 241.875 847.9375 C236.09074836 858.32514652 230.16825259 868.62351928 224.1328125 878.8671875 C222.05952897 882.38970955 220.03198854 885.93057953 218.0546875 889.5078125 C209.19694092 905.40072405 209.19694092 905.40072405 201.0078125 908.0390625 C193.65099869 909.41341233 186.9756769 909.41917144 180.69140625 905.1171875 C175.72395255 900.52362816 172.59549385 895.46897648 169.609375 889.48046875 C169.02382843 888.33007866 169.02382843 888.33007866 168.42645264 887.15644836 C167.15225528 884.64946962 165.88873356 882.13726716 164.625 879.625 C163.72935516 877.85894898 162.83285912 876.09332941 161.93554688 874.328125 C160.11229506 870.74025037 158.2923112 867.1507479 156.47460938 863.56005859 C153.14552689 856.99107094 149.77105219 850.44580034 146.39025879 843.90332031 C144.68418378 840.59988976 142.98310072 837.29388942 141.28125 833.98828125 C138.92787343 829.41800058 136.57156746 824.84925381 134.2109375 820.28271484 C131.88362325 815.78060945 129.56038955 811.2764176 127.23950195 806.77099609 C126.33589621 805.01875436 125.43080518 803.2672777 124.52416992 801.51660156 C123.26225369 799.07944238 122.00555687 796.63965872 120.75 794.19921875 C120.18255066 793.10784859 120.18255066 793.10784859 119.6036377 791.99443054 C117.98215709 788.83102906 116.64431859 785.90528792 115.875 782.4375 C114.6375 782.48390625 113.4 782.5303125 112.125 782.578125 C65.57727924 783.77083921 25.3981878 765.0259448 -8.55859375 734.23046875 C-23.25880883 720.10673269 -34.97060762 702.06839651 -43.125 683.4375 C-43.125 682.7775 -43.125 682.1175 -43.125 681.4375 C-43.75019531 681.73398437 -44.37539063 682.03046875 -45.01953125 682.3359375 C-66.92900517 690.10759995 -99.79575274 689.24825899 -122.125 683.4375 C-123.60526974 683.09289401 -125.08574871 682.74918591 -126.56640625 682.40625 C-137.20204376 679.81798593 -146.61072707 675.81236013 -156.125 670.4375 C-157.12144531 669.88191406 -158.11789062 669.32632813 -159.14453125 668.75390625 C-179.06045413 656.87273337 -192.96351368 637.48277164 -199.125 615.25 C-201.24066307 606.74516944 -201.58026968 598.30000981 -201.625 589.5625 C-201.63144531 588.37503174 -201.63789063 587.18756348 -201.64453125 585.96411133 C-201.07562062 546.54243353 -178.74488332 508.96273092 -153.125 480.4375 C-152.66496582 479.92251953 -152.20493164 479.40753906 -151.73095703 478.87695312 C-138.57207803 464.17825363 -138.57207803 464.17825363 -133.125 459.4375 C-132.465 459.4375 -131.805 459.4375 -131.125 459.4375 C-131.125 458.7775 -131.125 458.1175 -131.125 457.4375 C-131.6506958 457.27749512 -132.1763916 457.11749023 -132.71801758 456.95263672 C-170.64432471 444.91844702 -205.73771409 418.78145535 -234.125 391.4375 C-234.95475342 390.64061768 -234.95475342 390.64061768 -235.80126953 389.82763672 C-266.86713564 359.83085691 -295.35859438 317.28498395 -296.29296875 272.73046875 C-296.45029873 251.6585122 -296.45029873 251.6585122 -294.125 242.4375 C-293.75761719 240.82488281 -293.75761719 240.82488281 -293.3828125 239.1796875 C-286.56078609 212.19344142 -268.04291634 190.03825985 -244.42749023 175.89624023 C-229.34728611 167.20999826 -213.12904399 161.89018005 -196.125 158.4375 C-194.90562744 158.1897583 -194.90562744 158.1897583 -193.66162109 157.93701172 C-168.83494629 153.17647344 -141.90636717 153.86179756 -117.125 158.4375 C-115.00002312 158.80482126 -112.8750219 159.17200174 -110.75 159.5390625 C-81.01030975 164.82907562 -53.44608816 174.65340676 -26.125 187.4375 C-25.41214844 186.71949219 -24.69929688 186.00148438 -23.96484375 185.26171875 C-0.54130704 161.87106872 30.40039133 142.38464897 64.63246155 142.31307983 C65.32730148 142.31667511 66.02214142 142.32027039 66.73803711 142.32397461 C67.86610779 142.32375557 67.86610779 142.32375557 69.01696777 142.3235321 C71.47879011 142.32422338 73.94053479 142.33197869 76.40234375 142.33984375 C78.1186977 142.34171072 79.83505219 142.34313331 81.55140686 142.34413147 C86.05092867 142.34793467 90.55041779 142.35774602 95.04992676 142.36883545 C99.64851438 142.37909698 104.24710733 142.38363922 108.84570312 142.38867188 C117.85548305 142.39937041 126.8652388 142.41642023 135.875 142.4375 C130.74386615 125.97673095 130.74386615 125.97673095 123.5 110.375 C123.03158691 109.50705811 122.56317383 108.63911621 122.08056641 107.74487305 C116.04858986 96.80283896 108.42167119 87.52631078 99.875 78.4375 C99.3490625 77.84710938 98.823125 77.25671875 98.28125 76.6484375 C84.59245248 61.91202793 65.45685436 52.50584732 46.8125 45.8125 C45.40387695 45.29780151 45.40387695 45.29780151 43.96679688 44.77270508 C36.37636432 42.18891429 28.45764473 40.69926944 20.875 44.125 C20.05515625 44.48722656 19.2353125 44.84945312 18.390625 45.22265625 C14.99896252 46.86055537 11.62924557 48.5334176 8.296875 50.2890625 C-0.22011307 54.32776329 -9.92974502 54.86467916 -19.109375 52.75 C-28.00974827 49.43309071 -36.2115944 43.40304481 -40.4375 34.75 C-42.06801527 26.89388096 -42.05605321 20.35210804 -37.6796875 13.44140625 C-28.06904917 1.05382468 -14.65142138 -0.00838194 0 0 Z " fill="#010100" transform="translate(559.125,295.5625)"/>
<path d="M0 0 C1.12976865 -0.00367669 2.2595373 -0.00735338 3.42354137 -0.01114148 C7.20048183 -0.02213347 10.97739473 -0.02601468 14.75434875 -0.02983093 C17.46706372 -0.03557191 20.17977463 -0.04273459 22.89248657 -0.04974365 C31.030262 -0.06945586 39.16803856 -0.07957173 47.30583188 -0.08847144 C50.37989424 -0.09198439 53.45395559 -0.09613091 56.5280171 -0.1003111 C70.11204905 -0.11878238 83.69608102 -0.13452403 97.28012371 -0.14220905 C100.60095915 -0.14411853 103.92179459 -0.14603891 107.24263 -0.147995 C108.48049169 -0.14872061 108.48049169 -0.14872061 109.74336068 -0.14946087 C123.06374812 -0.1577326 136.38404492 -0.18302011 149.70439293 -0.21557567 C163.42652857 -0.24883523 177.1486185 -0.26667509 190.87079459 -0.26985329 C198.55615948 -0.27200202 206.24139258 -0.28050572 213.92671776 -0.30631447 C220.4829665 -0.32828215 227.03905151 -0.33594698 233.59533288 -0.32634769 C236.92669733 -0.32187549 240.25745836 -0.32555385 243.5888176 -0.34310913 C266.6232473 -0.45753499 290.58574696 0.74764232 312.60322571 8.14717102 C313.23406067 8.35567688 313.86489563 8.56418274 314.5148468 8.77900696 C328.83881249 13.58271217 342.3163522 19.92080912 353.60322571 30.14717102 C354.43338196 30.88451477 355.26353821 31.62185852 356.11885071 32.38154602 C378.17392508 53.08354834 384.82836881 83.93582683 385.88490295 113.16523743 C386.02889624 119.44046722 386.02154188 125.7144275 386.00166321 131.99092102 C386.00369327 134.30191641 386.00661235 136.61291117 386.01036072 138.92390442 C386.01474033 143.72739361 386.00849577 148.53071351 385.99433899 153.33418274 C385.97725008 159.42180113 385.987115 165.50902238 386.00505638 171.59662628 C386.01601349 176.3568153 386.0123939 181.11691363 386.004673 185.87710571 C386.00270375 188.11887665 386.00501164 190.36065644 386.01211166 192.60241699 C386.0632864 213.28839783 384.92012286 233.62820799 377.60322571 253.14717102 C377.19974915 254.23385071 376.79627258 255.3205304 376.38056946 256.44013977 C371.9521349 267.67497856 366.04988597 276.52514756 357.60322571 285.14717102 C357.02314758 285.7633429 356.44306946 286.37951477 355.84541321 287.01435852 C341.11543674 301.34801275 319.71869313 306.07373325 300.11885071 308.7167511 C299.08888977 308.8613678 298.05892883 309.0059845 296.99775696 309.15498352 C295.61874207 309.33504944 295.61874207 309.33504944 294.21186829 309.51875305 C291.24786749 310.23277627 289.17012479 311.53378551 286.60322571 313.14717102 C285.94322571 313.14717102 285.28322571 313.14717102 284.60322571 313.14717102 C284.31447571 313.72467102 284.02572571 314.30217102 283.72822571 314.89717102 C283.03815471 316.27731302 282.31892989 317.64389606 281.55244446 318.98310852 C279.39957579 323.8912947 280.04501839 329.5035606 281.72822571 334.45967102 C285.54671744 339.9328425 289.94037193 342.36438464 295.79072571 345.33467102 C311.93117439 353.85579729 320.74575139 367.30931231 326.31806946 384.33076477 C329.30449298 395.16472457 328.76622236 406.63095126 328.77119446 417.76435852 C328.77441514 419.47009813 328.7777798 421.17583748 328.78128052 422.88157654 C328.7872402 426.44358459 328.78912363 430.0055685 328.78852844 433.56758118 C328.78842687 438.10175364 328.80208833 442.63576934 328.81930065 447.16990471 C328.83048993 450.68922112 328.83244555 454.20850042 328.83191872 457.72783279 C328.83308806 459.39815436 328.83745004 461.06847722 328.84525108 462.73878098 C328.95887372 489.57183689 322.14101413 515.92974929 303.08613586 535.6789093 C274.74626993 563.73882924 228.58988506 568.504113 190.70185852 568.40596008 C188.90075541 568.40867986 187.09965342 568.41224626 185.29855347 568.4165802 C180.47028454 568.42558667 175.64210245 568.42220992 170.81383228 568.41582203 C165.72668055 568.41070354 160.63953549 568.41546924 155.55238342 568.41859436 C147.01935003 568.42221583 138.48635145 568.4174816 129.95332336 568.40791321 C120.12444884 568.3970182 110.29565725 568.40056922 100.46678472 568.41156602 C91.98215381 568.42067431 83.49754769 568.42190733 75.01291347 568.41668868 C69.96515594 568.41359018 64.91743726 568.413101 59.86968231 568.41976166 C55.12526039 568.42558686 50.38094436 568.42144471 45.63653374 568.40997314 C43.90770836 568.4073546 42.17887388 568.40804287 40.45005226 568.41249847 C26.84565374 568.44429818 13.55484724 567.71500106 0.41572571 563.83467102 C-0.34127625 563.61593323 -1.0982782 563.39719543 -1.8782196 563.17182922 C-23.05366079 556.89170316 -40.39894626 545.19074265 -56.39677429 530.14717102 C-56.98716492 529.62123352 -57.57755554 529.09529602 -58.18583679 528.55342102 C-72.80088627 514.9773561 -83.50185659 495.16366731 -88.83647037 476.11046898 C-89.3480765 474.31780749 -89.90294592 472.53763763 -90.46221352 470.75926876 C-94.75226282 455.00309766 -93.95317834 438.70797557 -93.89035487 422.51561821 C-93.87707224 417.94920811 -93.88712531 413.38283736 -93.89411926 408.81642151 C-93.90415031 399.89561602 -93.89298829 390.97496001 -93.87441866 382.05417312 C-93.8535539 371.65368846 -93.85379355 361.25323531 -93.85476382 350.85273366 C-93.85576279 332.29386565 -93.83750071 313.73506682 -93.80839539 295.17622375 C-93.7801966 277.18597657 -93.76605526 259.19579022 -93.76737976 241.20552063 C-93.76745967 240.09634575 -93.76753959 238.98717086 -93.76762192 237.84438462 C-93.76770263 236.7370839 -93.76778334 235.62978318 -93.76786649 234.4889279 C-93.76924725 213.97191594 -93.75746368 193.45492971 -93.73956006 172.9379261 C-93.73353784 165.69478256 -93.73140222 158.45164377 -93.73049545 151.208498 C-93.72912907 142.38257036 -93.72016968 133.55668614 -93.70182984 124.73077691 C-93.69261874 120.2311569 -93.6864937 115.73159227 -93.68901825 111.2319622 C-93.69121944 107.10869653 -93.68410426 102.98555306 -93.6697212 98.86231285 C-93.66611583 97.37545537 -93.66581303 95.88858519 -93.66925578 94.40172733 C-93.72384619 67.87688847 -83.97608287 45.48142407 -65.73661804 26.35810852 C-47.49245803 9.00063081 -25.08212272 -0.00441923 0 0 Z " fill="#F3B638" transform="translate(632.3967742919922,473.8528289794922)"/>
<path d="M0 0 C0.72005219 0.00149048 1.44010437 0.00298096 2.18197632 0.0045166 C14.67516192 0.05076401 26.77057734 1.04536043 39.0625 3.3125 C39.92117676 3.46235352 40.77985352 3.61220703 41.66455078 3.76660156 C53.10114218 5.77391833 64.09340632 8.49677087 75.0625 12.3125 C76.02414062 12.64443359 76.98578125 12.97636719 77.9765625 13.31835938 C89.91222352 17.4606496 101.77483679 21.59012601 113.0625 27.3125 C112.65 28.529375 112.2375 29.74625 111.8125 31 C111.53921875 31.83015625 111.2659375 32.6603125 110.984375 33.515625 C110.36154232 35.40523602 109.725769 37.29062339 109.078125 39.171875 C103.96601336 54.66550566 102.61348413 70.03261991 102.63012695 86.24658203 C102.62108168 88.06202855 102.61074784 89.87746902 102.59924316 91.69290161 C102.57197131 96.55946582 102.56242981 101.42591326 102.55638909 106.29254389 C102.54692671 111.4014452 102.5207178 116.51026189 102.49638367 121.61911011 C102.45292931 131.26580313 102.42425358 140.91247952 102.40106028 150.55924022 C102.37389485 161.55345184 102.32999094 172.54757744 102.28477156 183.5417273 C102.19222742 206.13193805 102.12040919 228.72217576 102.0625 251.3125 C99.99995776 251.00353336 97.93777008 250.69219924 95.87573242 250.37988281 C94.15310432 250.12020721 94.15310432 250.12020721 92.39567566 249.85528564 C87.99328135 249.1383848 83.69342613 248.16981176 79.375 247.0625 C78.52542725 246.84561523 77.67585449 246.62873047 76.80053711 246.40527344 C19.30134784 231.38830304 -40.16685814 196.31641025 -74.9375 147.3125 C-75.36321289 146.72049805 -75.78892578 146.12849609 -76.22753906 145.51855469 C-94.56301618 119.81065937 -105.41890826 91.45388347 -101.46875 59.5234375 C-97.70116809 42.52446676 -86.22192431 27.68163458 -71.78515625 18.25390625 C-58.440708 10.13759354 -44.2445837 5.17714076 -28.9375 2.3125 C-27.99479248 2.13372314 -27.05208496 1.95494629 -26.08081055 1.77075195 C-17.38130727 0.26691081 -8.80387279 -0.04531059 0 0 Z " fill="#DBDBDB" transform="translate(400.9375,486.6875)"/>
<path d="M0 0 C12.52062377 11.2995783 20.97323674 25.76287663 22.47973633 42.74267578 C23.41166212 61.17707149 20.15399877 77.41284157 12.24462891 94.09277344 C11.74318359 95.18589844 11.24173828 96.27902344 10.72509766 97.40527344 C4.31298932 110.8601893 -3.99816814 122.83981388 -13.75537109 134.09277344 C-14.42697266 134.87523437 -15.09857422 135.65769531 -15.79052734 136.46386719 C-25.83574792 147.89852014 -36.61818527 158.8836837 -48.75537109 168.09277344 C-49.44115234 168.61726074 -50.12693359 169.14174805 -50.83349609 169.68212891 C-75.15979663 188.22162453 -116.97469025 219.09277344 -148.75537109 219.09277344 C-148.33630811 214.69261207 -147.8982983 210.44295307 -146.81787109 206.15527344 C-142.97291733 189.26208192 -143.4290376 171.82929343 -143.41943359 154.61621094 C-143.4165767 153.25899813 -143.41338265 151.90178599 -143.40986252 150.54457474 C-143.3914695 143.43643778 -143.38317828 136.32837481 -143.38476562 129.22021484 C-143.38596405 122.67298142 -143.36489265 116.12607915 -143.3332783 109.57892931 C-143.30682887 103.89159892 -143.29641012 98.20437478 -143.29767644 92.51698363 C-143.29817779 89.14940807 -143.29101842 85.782359 -143.27132034 82.41480637 C-143.12111092 54.08663286 -145.4840622 21.15994371 -161.97021484 -3.17675781 C-163.75537109 -5.90722656 -163.75537109 -5.90722656 -163.75537109 -8.90722656 C-148.66394179 -14.86770704 -132.9905108 -18.22132004 -117.06787109 -21.15722656 C-115.74239258 -21.40194702 -115.74239258 -21.40194702 -114.39013672 -21.65161133 C-77.48477876 -28.20349791 -29.74321757 -25.68857802 0 0 Z " fill="#DBDBDB" transform="translate(1195.75537109375,510.9072265625)"/>
<path d="M0 0 C1.00771454 -0.00571014 2.01542908 -0.01142029 3.05368042 -0.01730347 C4.15345718 -0.01842133 5.25323395 -0.01953918 6.38633728 -0.02069092 C7.5494342 -0.02565582 8.71253113 -0.03062073 9.91087341 -0.03573608 C13.76459849 -0.05035798 17.61828236 -0.05716091 21.47203064 -0.06268311 C23.47513457 -0.06698166 25.4782385 -0.07128075 27.48134226 -0.07565761 C33.06629327 -0.0874659 38.65123435 -0.09500449 44.23619658 -0.09845281 C51.43660385 -0.10292389 58.63682039 -0.12042849 65.83716971 -0.1494534 C71.41614858 -0.17115387 76.99507414 -0.18116163 82.57409471 -0.18249393 C85.89944734 -0.1835366 89.22458106 -0.1907996 92.54989815 -0.20731354 C96.26896009 -0.22445964 99.98756383 -0.22247222 103.70664978 -0.21600342 C104.79225693 -0.2252182 105.87786407 -0.23443298 106.99636841 -0.243927 C120.33024493 -0.17165277 134.4608345 4.02819315 144.40953064 13.32012939 C154.81654962 25.23578258 157.15175258 37.60887771 157.16734314 52.93341064 C157.17067154 54.07522293 157.17399994 55.21703522 157.1774292 56.39344788 C157.18248344 58.80658568 157.18483799 61.21973044 157.18467712 63.63287354 C157.18685636 67.2976251 157.20500846 70.96207194 157.22398376 74.62677002 C157.22691956 76.97898254 157.22890311 79.33119648 157.22984314 81.68341064 C157.23702866 82.76712448 157.24421417 83.85083832 157.25161743 84.96739197 C157.21076342 98.78935297 154.5796472 112.10079771 144.81968689 122.55059814 C132.84419248 133.00988189 120.43680833 135.28072165 105.04649353 135.31744385 C103.84741867 135.32401505 102.64834381 135.33058624 101.41293335 135.33735657 C97.45347217 135.35703382 93.49402428 135.36874405 89.53453064 135.37872314 C88.16705748 135.38277411 86.79958451 135.38689113 85.43211174 135.39107323 C79.00940577 135.41009504 72.58671113 135.42433576 66.16398245 135.4326852 C58.76484166 135.44246504 51.36599942 135.46881633 43.96696383 135.50918609 C38.23599279 135.53937655 32.50510728 135.55415658 26.77405828 135.55746621 C23.35603281 135.55981211 19.93832741 135.56871293 16.52038765 135.59392738 C12.70723171 135.61823921 8.89485927 135.61736818 5.08164978 135.6104126 C3.9567514 135.62322266 2.83185303 135.63603271 1.67286682 135.64923096 C-4.78660838 135.60628054 -8.74176654 134.98110205 -14.00062561 131.14044189 C-15.74281311 129.32403564 -15.74281311 129.32403564 -16.87562561 127.57794189 C-17.26492249 126.99915283 -17.65421936 126.42036377 -18.05531311 125.82403564 C-19.76637459 122.77664929 -20.12786075 120.22043404 -20.1410675 116.8026123 C-20.14677765 115.9167041 -20.15248779 115.0307959 -20.15837097 114.11804199 C-20.15948883 113.14864685 -20.16060669 112.17925171 -20.16175842 111.18048096 C-20.16672333 110.15740845 -20.17168823 109.13433594 -20.17680359 108.08026123 C-20.19143238 104.68885632 -20.19822883 101.2974982 -20.20375061 97.90606689 C-20.20950196 95.55057778 -20.2152597 93.19508869 -20.22102356 90.83959961 C-20.23153593 85.89658388 -20.23737689 80.95358442 -20.24085999 76.01055908 C-20.24634176 69.68093723 -20.27036224 63.3515308 -20.29883194 57.02197647 C-20.31746969 52.15433121 -20.32266456 47.28673768 -20.32419586 42.41905975 C-20.3272209 40.08590265 -20.33524439 37.75274642 -20.34838104 35.41962433 C-20.36546304 32.15224402 -20.36355565 28.88538798 -20.35707092 25.61798096 C-20.36628571 24.65668274 -20.37550049 23.69538452 -20.38499451 22.70495605 C-20.3441888 16.13117817 -19.56837165 11.08254105 -15.09828186 5.96075439 C-14.4266803 5.40130127 -13.75507874 4.84184814 -13.06312561 4.26544189 C-12.39410217 3.69052002 -11.72507874 3.11559814 -11.03578186 2.52325439 C-7.52329225 0.13664917 -4.17014349 0.01418788 0 0 Z " fill="#010100" transform="translate(711.0006256103516,579.8595581054688)"/>
<path d="M0 0 C0.84304688 0.73605469 1.68609375 1.47210937 2.5546875 2.23046875 C3.97974609 3.46410156 3.97974609 3.46410156 5.43359375 4.72265625 C6.43374315 5.61947766 7.43242162 6.51794195 8.4296875 7.41796875 C8.92839355 7.86172852 9.42709961 8.30548828 9.94091797 8.76269531 C37.91738437 33.68472625 67.98476384 68.72321709 70.60107422 107.99023438 C71.16168477 119.37801017 71.11541089 129.844264 66.4296875 140.41796875 C66.0790625 141.21976563 65.7284375 142.0215625 65.3671875 142.84765625 C58.27205852 157.08718593 45.05891496 166.07977843 30.4296875 171.41796875 C3.06026247 179.74749019 -27.20024657 178.17561934 -54.5703125 170.41796875 C-56.34304378 168.64523747 -55.7137081 166.07186921 -55.72802734 163.67089844 C-55.73828949 162.43740662 -55.74855164 161.20391479 -55.75912476 159.93304443 C-55.76256268 159.26754326 -55.7660006 158.60204208 -55.76954269 157.91637421 C-55.7813702 155.81852419 -55.80084832 153.72087653 -55.82266235 151.62310791 C-55.88403645 145.65489828 -55.93763451 139.68669427 -55.97167969 133.71826172 C-56.18043937 99.0856814 -59.73421462 69.67621313 -79.5703125 40.41796875 C-78.64992188 40.00546875 -77.72953125 39.59296875 -76.78125 39.16796875 C-59.20102319 31.19270869 -39.70787797 21.51292605 -28.87109375 4.796875 C-25.57080665 1.38452383 -22.25654629 0.95655518 -17.6953125 0.10546875 C-16.90511719 -0.06275391 -16.11492187 -0.23097656 -15.30078125 -0.40429688 C-4.29987317 -2.64657847 -4.29987317 -2.64657847 0 0 Z " fill="#C1C1C1" transform="translate(1052.5703125,769.58203125)"/>
<path d="M0 0 C1.29066628 -0.00744736 1.29066628 -0.00744736 2.60740662 -0.01504517 C5.46557407 -0.0296951 8.32368587 -0.0364764 11.18188477 -0.04199219 C13.17049664 -0.04774495 15.15910849 -0.05350267 17.14772034 -0.05926514 C21.32667296 -0.06978565 25.5056063 -0.07562024 29.68457031 -0.07910156 C35.0172737 -0.08456343 40.34971879 -0.10853734 45.68234158 -0.13707352 C49.79611427 -0.15578728 53.90982613 -0.16091031 58.02363777 -0.16243744 C59.9878587 -0.16544898 61.95207895 -0.1734264 63.91625786 -0.18662262 C80.22890301 -0.28831972 93.30439291 0.78780914 105.97875977 12.23144531 C116.12309177 22.85159026 119.00033369 35.64630793 118.98657227 49.89941406 C118.99085739 50.90143356 118.99514252 51.90345306 118.9995575 52.93583679 C119.00526947 55.04437509 119.00582434 57.15293308 119.00146484 59.26147461 C118.99831013 62.45428791 119.02178612 65.64616841 119.04711914 68.83886719 C119.1014131 85.97858135 117.70970159 100.81231302 105.56079102 113.97363281 C92.05927343 126.61431538 75.69390589 126.49468863 58.33422852 126.56738281 C57.41778187 126.57303757 56.50133522 126.57869232 55.55711746 126.58451843 C50.71620822 126.61431881 45.87541556 126.63289839 41.03442383 126.64160156 C36.05677754 126.65260436 31.08021611 126.70077958 26.102911 126.75754547 C22.25085343 126.79489495 18.39905634 126.80521403 14.54683304 126.80827332 C12.71209343 126.81429599 10.87735673 126.83025005 9.04279709 126.85664368 C-8.09209724 127.08577243 -8.09209724 127.08577243 -14.62582397 122.23181152 C-19.72725472 115.97528593 -20.90618201 110.22345197 -20.84765625 102.29199219 C-20.85627182 101.33807083 -20.86488739 100.38414948 -20.87376404 99.40132141 C-20.89634401 96.26889398 -20.88970015 93.1373669 -20.88061523 90.00488281 C-20.88585398 87.81587459 -20.89213138 85.62686864 -20.8993988 83.43786621 C-20.90978806 78.85837147 -20.905262 74.27918776 -20.890625 69.69970703 C-20.87343146 63.84200075 -20.89694806 57.98527486 -20.9321146 52.12767792 C-20.95411201 47.60994005 -20.9526415 43.09243597 -20.94434929 38.57466125 C-20.94353122 36.41537907 -20.95036684 34.25607947 -20.96512032 32.09684753 C-20.982611 29.07404903 -20.9679858 26.05300264 -20.9453125 23.03027344 C-20.9570047 22.14588089 -20.9686969 21.26148834 -20.98074341 20.35029602 C-20.88604433 14.12054371 -19.25220515 10.00557064 -15.31420898 5.16113281 C-10.13441738 0.46318229 -6.81789262 0.00932749 0 0 Z " fill="#010100" transform="translate(711.314208984375,808.8388671875)"/>
<path d="M0 0 C1.48028871 0.37007218 2.9543997 0.76559338 4.421875 1.18359375 C5.86315118 1.56534441 7.30595627 1.94135543 8.75 2.3125 C9.50823059 2.50759659 10.26646118 2.70269318 11.04766846 2.90370178 C15.01316217 3.81427325 19.0022054 4.51092949 23.01074219 5.20288086 C23.79710052 5.34006279 24.58345886 5.47724472 25.39364624 5.61858368 C27.31945095 5.95431508 29.24562619 6.28791985 31.171875 6.62109375 C31.17610694 7.41916821 31.18033888 8.21724266 31.18469906 9.03950119 C31.28819438 28.4964067 31.39685956 47.95327712 31.51121426 67.41012192 C31.56639277 76.81946369 31.6198487 86.22880925 31.66918945 95.63818359 C31.71222046 103.84343063 31.75854461 112.04865149 31.80875355 120.25385785 C31.83520302 124.59475433 31.86005071 128.93564613 31.88094902 133.27657318 C31.90071122 137.37067168 31.92490956 141.46472105 31.95236588 145.55877495 C31.96163378 147.05340356 31.96934456 148.54804286 31.97529411 150.04268837 C32.01042331 158.61130786 32.30039883 167.09125359 33.171875 175.62109375 C13.59266022 179.11292823 -7.23427109 181.06274213 -26.828125 176.62109375 C-28.28412109 176.34652344 -28.28412109 176.34652344 -29.76953125 176.06640625 C-45.52696215 172.73823962 -60.38939762 163.79557007 -69.828125 150.62109375 C-79.64748049 132.87658217 -80.35497982 113.32263383 -75.140625 93.91015625 C-69.32017521 74.20811224 -58.88777248 56.3820369 -45.828125 40.62109375 C-44.98000432 39.56938477 -44.13235444 38.51729598 -43.28515625 37.46484375 C-33.06494377 24.92982941 -21.62036124 13.52135579 -8.828125 3.62109375 C-8.07273437 2.85023438 -7.31734375 2.079375 -6.5390625 1.28515625 C-3.828125 -0.37890625 -3.828125 -0.37890625 0 0 Z " fill="#C0C0C0" transform="translate(471.828125,767.37890625)"/>
<path d="M0 0 C24.21680777 -0.16043524 24.21680777 -0.16043524 34.54296875 -0.1953125 C41.58785051 -0.2192198 48.63252422 -0.2474962 55.67724609 -0.30175781 C61.35715387 -0.34523301 67.03683854 -0.36914097 72.71689987 -0.37950897 C74.88344205 -0.38689727 77.04997208 -0.40132486 79.21641922 -0.42292023 C82.25213213 -0.45197586 85.28692422 -0.45595502 88.32275391 -0.45410156 C89.66495499 -0.47567322 89.66495499 -0.47567322 91.03427124 -0.49768066 C96.46090604 -0.4618522 99.80245049 0.20561498 104 4 C105.27057737 6.85785765 105.13606681 9.76519128 105.16113281 12.87280273 C105.17074036 13.837379 105.1803479 14.80195526 105.19024658 15.79576111 C105.19449646 16.83124588 105.19874634 17.86673065 105.203125 18.93359375 C105.20882507 20.00368179 105.21452515 21.07376984 105.22039795 22.17628479 C105.22983789 24.43823256 105.23637793 26.70019402 105.24023438 28.9621582 C105.24995358 32.42097899 105.28099254 35.8792089 105.3125 39.33789062 C105.31902901 41.53645481 105.32427988 43.73502323 105.328125 45.93359375 C105.3404718 46.96705429 105.3528186 48.00051483 105.36553955 49.06529236 C105.33749508 58.10845636 105.33749508 58.10845636 102 62 C99.72422532 63.13788734 98.48966576 63.12342063 95.96310425 63.12025452 C94.69685715 63.12231651 94.69685715 63.12231651 93.4050293 63.12442017 C92.477146 63.12082489 91.5492627 63.11722961 90.59326172 63.11352539 C89.12978806 63.11374443 89.12978806 63.11374443 87.63674927 63.1139679 C84.40103966 63.11326935 81.1653871 63.10547966 77.9296875 63.09765625 C75.69052156 63.09579186 73.45135521 63.09436806 71.21218872 63.09336853 C65.31027099 63.08954498 59.40837776 63.07971607 53.50646973 63.06866455 C46.42966722 63.05665142 39.35285653 63.05204741 32.27604675 63.04621124 C21.51734745 63.03650425 10.75870192 63.01734653 0 63 C0 42.21 0 21.42 0 0 Z " fill="#C19066" transform="translate(727,616)"/>
<path d="M0 0 C7.9909387 -0.10492916 15.97937562 -0.20508411 23.97040558 -0.25875092 C27.69175255 -0.28512855 31.41252791 -0.32036048 35.13354492 -0.37719727 C38.71919713 -0.43162214 42.30429591 -0.46144192 45.89032936 -0.47438622 C47.25670902 -0.48360764 48.62305919 -0.50161581 49.9892025 -0.52865028 C60.72492951 -0.73260221 60.72492951 -0.73260221 65.34326172 1.92089844 C67.68513942 6.27335372 67.66409432 9.88072645 67.55859375 14.75390625 C67.55509666 16.160709 67.55509666 16.160709 67.55152893 17.59593201 C67.54180665 19.57373177 67.52005456 21.5515043 67.48706055 23.52905273 C67.43761281 26.55559525 67.42557598 29.58051167 67.41992188 32.60742188 C67.40583653 34.53126729 67.38963236 36.4550986 67.37109375 38.37890625 C67.3630497 39.73526939 67.3630497 39.73526939 67.35484314 41.11903381 C67.33885574 41.96348557 67.32286835 42.80793732 67.30639648 43.67797852 C67.29043678 44.78786888 67.29043678 44.78786888 67.27415466 45.92018127 C66.94914284 48.38581754 66.37690254 49.92502758 65 52 C61.7609615 54.29172981 58.83595018 54.24312376 54.94628906 54.22705078 C53.72532532 54.22689972 52.50436157 54.22674866 51.24639893 54.22659302 C49.93274353 54.21627045 48.61908813 54.20594788 47.265625 54.1953125 C45.90370898 54.19158042 44.54179027 54.18873437 43.17987061 54.18673706 C39.60252414 54.17911594 36.02534115 54.15948069 32.44805908 54.1373291 C28.7948227 54.11683779 25.14155902 54.10761862 21.48828125 54.09765625 C14.32537666 54.07729552 7.16292043 54.03814573 0 54 C0 36.18 0 18.36 0 0 Z " fill="#C29066" transform="translate(727,845)"/>
</svg>
