<?xml version="1.0" encoding="UTF-8"?>
<svg xmlns="http://www.w3.org/2000/svg" xmlns:xlink="http://www.w3.org/1999/xlink" width="128px" height="128px" viewBox="0 0 128 128" version="1.1">
<g id="surface1">
<path style=" stroke:none;fill-rule:nonzero;fill:rgb(94.509804%,67.450982%,0%);fill-opacity:1;" d="M 63.554688 -0.0273438 C 63.84375 -0.0273438 64.128906 -0.0273438 64.417969 -0.0273438 C 66.011719 -0.0390625 67.597656 -0.0078125 69.1875 0.117188 C 69.289062 0.125 69.289062 0.125 69.390625 0.132812 C 76.089844 0.671875 82.757812 2.277344 91.820312 6.230469 C 91.871094 6.253906 91.925781 6.28125 91.980469 6.308594 C 93.476562 7.03125 94.941406 7.789062 96.367188 8.652344 C 96.589844 8.785156 96.808594 8.914062 97.03125 9.042969 C 100.527344 11.09375 103.804688 13.5625 106.804688 16.285156 C 106.945312 16.414062 107.085938 16.539062 107.226562 16.664062 C 107.625 17.015625 108.007812 17.378906 108.378906 17.757812 C 108.539062 17.914062 108.703125 18.0625 108.875 18.207031 C 109.472656 18.722656 110.019531 19.289062 110.53125 19.886719 C 110.6875 20.066406 110.851562 20.230469 111.019531 20.394531 C 111.292969 20.664062 111.550781 20.945312 111.800781 21.238281 C 111.972656 21.4375 112.152344 21.632812 112.332031 21.828125 C 112.734375 22.277344 113.113281 22.742188 113.492188 23.210938 C 113.578125 23.316406 113.664062 23.421875 113.753906 23.527344 C 114.355469 24.257812 114.9375 25.003906 115.5 25.765625 C 115.582031 25.882812 115.667969 25.996094 115.753906 26.109375 C 117.027344 27.820312 118.195312 29.617188 119.265625 31.457031 C 119.382812 31.660156 119.5 31.863281 119.621094 32.0625 C 122.539062 37.042969 124.691406 42.457031 126.121094 48.042969 C 126.136719 48.101562 126.152344 48.164062 126.167969 48.226562 C 127.445312 53.214844 128.050781 58.277344 128.039062 63.421875 C 128.039062 63.773438 128.039062 64.125 128.039062 64.476562 C 128.078125 71.140625 127.015625 77.722656 124.929688 84.054688 C 124.878906 84.203125 124.878906 84.203125 124.828125 84.355469 C 123.558594 88.222656 121.886719 91.976562 119.859375 95.507812 C 119.734375 95.726562 119.609375 95.945312 119.492188 96.167969 C 117.773438 99.289062 115.597656 102.222656 113.324219 104.960938 C 113.285156 105.003906 113.25 105.046875 113.214844 105.089844 C 112.710938 105.695312 112.191406 106.285156 111.660156 106.863281 C 111.480469 107.058594 111.304688 107.253906 111.128906 107.457031 C 110.878906 107.746094 110.609375 108.019531 110.332031 108.289062 C 110.171875 108.449219 110.023438 108.617188 109.878906 108.789062 C 109.363281 109.386719 108.800781 109.929688 108.203125 110.441406 C 108.007812 110.613281 107.828125 110.792969 107.648438 110.976562 C 107.304688 111.320312 106.949219 111.640625 106.582031 111.957031 C 106.488281 112.039062 106.398438 112.117188 106.304688 112.199219 C 104.960938 113.375 103.582031 114.484375 102.144531 115.542969 C 102.082031 115.589844 102.015625 115.636719 101.953125 115.683594 C 99.152344 117.753906 96.179688 119.550781 93.082031 121.136719 C 92.925781 121.214844 92.769531 121.296875 92.617188 121.375 C 86.496094 124.546875 79.671875 126.570312 72.4375 127.546875 C 72.375 127.554688 72.316406 127.5625 72.253906 127.570312 C 69.667969 127.917969 67.070312 128.042969 64.464844 128.035156 C 64.113281 128.03125 63.761719 128.03125 63.410156 128.035156 C 60.550781 128.042969 57.699219 127.859375 54.867188 127.445312 C 54.765625 127.429688 54.765625 127.429688 54.660156 127.414062 C 50.953125 126.871094 47.316406 125.996094 43.765625 124.808594 C 43.613281 124.761719 43.460938 124.710938 43.308594 124.660156 C 39.28125 123.347656 35.324219 121.527344 31.699219 119.335938 C 31.511719 119.226562 31.320312 119.113281 31.128906 119.007812 C 29.328125 117.984375 27.597656 116.78125 25.941406 115.542969 C 25.882812 115.496094 25.820312 115.453125 25.757812 115.40625 C 24.210938 114.242188 22.710938 113.015625 21.277344 111.710938 C 21.148438 111.59375 21.015625 111.476562 20.886719 111.359375 C 19.703125 110.304688 18.5 109.230469 17.46875 108.027344 C 17.3125 107.851562 17.148438 107.683594 16.980469 107.519531 C 16.648438 107.191406 16.34375 106.851562 16.042969 106.496094 C 15.964844 106.40625 15.886719 106.316406 15.8125 106.226562 C 15.589844 105.96875 15.371094 105.710938 15.148438 105.457031 C 15.023438 105.308594 14.898438 105.164062 14.773438 105.015625 C 14.277344 104.433594 13.800781 103.84375 13.339844 103.230469 C 13.222656 103.078125 13.105469 102.921875 12.988281 102.769531 C 8.316406 96.625 4.851562 89.703125 1.707031 78.933594 C 1.691406 78.871094 1.675781 78.808594 1.660156 78.742188 C 0.945312 75.683594 0.464844 72.601562 0.1875 69.476562 C 0.171875 69.300781 0.15625 69.128906 0.140625 68.953125 C -0.15625 65.570312 -0.136719 62.089844 0.171875 58.710938 C 0.179688 58.585938 0.191406 58.460938 0.203125 58.339844 C 0.792969 51.589844 2.441406 44.964844 5.121094 38.742188 C 5.15625 38.660156 5.191406 38.578125 5.226562 38.496094 C 5.4375 38.003906 5.660156 37.519531 5.886719 37.035156 C 5.925781 36.957031 5.960938 36.878906 5.996094 36.796875 C 7.835938 32.847656 10.078125 29.074219 12.714844 25.601562 C 12.761719 25.535156 12.8125 25.472656 12.859375 25.40625 C 13.433594 24.65625 14.019531 23.921875 14.632812 23.207031 C 14.835938 22.96875 15.035156 22.722656 15.230469 22.480469 C 15.582031 22.046875 15.957031 21.636719 16.335938 21.230469 C 16.515625 21.03125 16.695312 20.832031 16.871094 20.628906 C 17.121094 20.335938 17.394531 20.066406 17.667969 19.796875 C 17.824219 19.636719 17.96875 19.476562 18.113281 19.308594 C 18.683594 18.644531 19.3125 18.03125 19.980469 17.460938 C 20.152344 17.308594 20.316406 17.148438 20.480469 16.980469 C 20.808594 16.648438 21.152344 16.347656 21.503906 16.042969 C 21.597656 15.960938 21.6875 15.882812 21.78125 15.800781 C 23.125 14.625 24.503906 13.515625 25.941406 12.457031 C 26.003906 12.410156 26.066406 12.363281 26.132812 12.316406 C 28.929688 10.25 31.902344 8.449219 34.996094 6.867188 C 35.238281 6.742188 35.480469 6.617188 35.722656 6.492188 C 41.992188 3.257812 49 1.289062 56.746094 0.320312 C 56.910156 0.300781 56.910156 0.300781 57.078125 0.28125 C 57.449219 0.238281 57.824219 0.203125 58.199219 0.171875 C 58.28125 0.164062 58.363281 0.15625 58.449219 0.148438 C 60.152344 0 61.847656 -0.03125 63.554688 -0.0273438 Z M 63.554688 -0.0273438 "/>
<path style=" stroke:none;fill-rule:nonzero;fill:rgb(0.392157%,0.392157%,0%);fill-opacity:1;" d="M 47.710938 25.222656 C 47.773438 25.222656 47.835938 25.222656 47.898438 25.222656 C 51.675781 25.234375 55.261719 26.503906 57.988281 29.148438 C 58.101562 29.257812 58.21875 29.367188 58.335938 29.476562 C 60.378906 31.417969 61.933594 34.355469 62.464844 37.121094 C 62.464844 37.203125 62.464844 37.289062 62.464844 37.375 C 63.957031 37.375 65.449219 37.375 66.988281 37.375 C 67.097656 36.867188 67.210938 36.363281 67.328125 35.839844 C 67.421875 35.539062 67.515625 35.253906 67.632812 34.960938 C 67.660156 34.886719 67.691406 34.8125 67.71875 34.738281 C 68.292969 33.3125 69.046875 32.023438 69.972656 30.804688 C 70.035156 30.722656 70.097656 30.640625 70.160156 30.554688 C 71.070312 29.394531 72.148438 28.363281 73.386719 27.5625 C 73.449219 27.523438 73.507812 27.484375 73.570312 27.441406 C 74.996094 26.539062 76.519531 25.949219 78.164062 25.601562 C 78.222656 25.585938 78.277344 25.574219 78.335938 25.5625 C 79.347656 25.34375 80.308594 25.242188 81.34375 25.238281 C 81.519531 25.238281 81.691406 25.234375 81.867188 25.230469 C 82.878906 25.226562 83.875 25.3125 84.652344 26.027344 C 85.054688 26.523438 85.285156 26.957031 85.269531 27.601562 C 85.199219 28.300781 84.886719 28.773438 84.351562 29.210938 C 84.019531 29.433594 83.667969 29.574219 83.285156 29.695312 C 83.160156 29.738281 83.160156 29.738281 83.03125 29.78125 C 81.871094 29.859375 81.113281 29.628906 80.117188 29.058594 C 79.390625 28.671875 78.65625 28.835938 77.90625 29.066406 C 74.984375 30.058594 72.65625 31.941406 71.1875 34.65625 C 71.136719 34.753906 71.136719 34.753906 71.078125 34.855469 C 70.664062 35.652344 70.417969 36.523438 70.144531 37.375 C 70.222656 37.375 70.300781 37.375 70.382812 37.375 C 71.132812 37.367188 71.886719 37.363281 72.636719 37.363281 C 73.023438 37.363281 73.410156 37.359375 73.796875 37.355469 C 76.425781 37.335938 79.046875 37.425781 81.578125 38.230469 C 81.628906 38.246094 81.683594 38.261719 81.734375 38.277344 C 83 38.6875 84.597656 39.238281 85.523438 40.226562 C 85.738281 40.382812 85.738281 40.382812 85.925781 40.339844 C 86.128906 40.269531 86.328125 40.191406 86.527344 40.105469 C 86.679688 40.050781 86.835938 40 86.988281 39.949219 C 87.070312 39.917969 87.148438 39.890625 87.230469 39.863281 C 92.144531 38.191406 97.464844 37.753906 102.230469 40.0625 C 104.359375 41.164062 105.960938 43.019531 106.699219 45.296875 C 106.953125 46.164062 107.042969 47.011719 107.039062 47.914062 C 107.039062 48.070312 107.039062 48.070312 107.039062 48.230469 C 107.027344 49.117188 106.902344 49.925781 106.667969 50.773438 C 106.644531 50.867188 106.621094 50.960938 106.59375 51.058594 C 105.625 54.597656 102.945312 57.847656 100.097656 60.074219 C 100.007812 60.148438 99.914062 60.222656 99.824219 60.292969 C 94.933594 64.257812 94.933594 64.257812 92.929688 64.257812 C 93.160156 64.488281 93.394531 64.722656 93.628906 64.953125 C 94.234375 65.546875 94.800781 66.144531 95.316406 66.816406 C 95.40625 66.925781 95.492188 67.039062 95.582031 67.148438 C 97.800781 69.976562 99.160156 73.152344 98.902344 76.800781 C 98.773438 77.691406 98.476562 78.566406 98.046875 79.359375 C 97.992188 79.464844 97.992188 79.464844 97.933594 79.574219 C 96.808594 81.558594 94.933594 82.789062 92.773438 83.390625 C 90.109375 84.09375 87.292969 83.9375 84.652344 83.199219 C 84.644531 83.308594 84.636719 83.417969 84.625 83.53125 C 84.574219 83.984375 84.4375 84.371094 84.265625 84.789062 C 84.238281 84.863281 84.207031 84.9375 84.175781 85.011719 C 83.042969 87.703125 80.890625 89.613281 78.210938 90.710938 C 77.773438 90.875 77.332031 91.007812 76.886719 91.136719 C 76.785156 91.167969 76.683594 91.199219 76.582031 91.230469 C 74.953125 91.707031 73.203125 91.9375 71.507812 91.902344 C 71.472656 91.996094 71.472656 91.996094 71.4375 92.089844 C 71.339844 92.328125 71.226562 92.542969 71.101562 92.765625 C 71.03125 92.894531 71.03125 92.894531 70.960938 93.023438 C 70.910156 93.113281 70.859375 93.203125 70.804688 93.296875 C 70.753906 93.390625 70.699219 93.484375 70.644531 93.582031 C 70.234375 94.304688 69.820312 95.023438 69.398438 95.742188 C 69.042969 96.351562 68.695312 96.964844 68.351562 97.578125 C 67.859375 98.464844 67.351562 99.34375 66.839844 100.21875 C 66.660156 100.519531 66.488281 100.820312 66.320312 101.125 C 65.5625 102.480469 65.5625 102.480469 64.863281 102.707031 C 64.238281 102.824219 63.667969 102.824219 63.132812 102.457031 C 62.707031 102.066406 62.441406 101.632812 62.183594 101.125 C 62.136719 101.027344 62.136719 101.027344 62.085938 100.925781 C 61.976562 100.710938 61.867188 100.496094 61.761719 100.28125 C 61.683594 100.132812 61.605469 99.980469 61.53125 99.832031 C 61.375 99.523438 61.21875 99.21875 61.066406 98.910156 C 60.78125 98.351562 60.492188 97.792969 60.203125 97.234375 C 60.058594 96.953125 59.914062 96.671875 59.769531 96.386719 C 59.566406 96 59.367188 95.609375 59.164062 95.21875 C 58.964844 94.835938 58.769531 94.449219 58.570312 94.066406 C 58.492188 93.917969 58.414062 93.765625 58.339844 93.617188 C 58.230469 93.410156 58.125 93.203125 58.015625 92.992188 C 57.96875 92.898438 57.96875 92.898438 57.917969 92.804688 C 57.78125 92.535156 57.664062 92.285156 57.601562 91.988281 C 57.496094 91.992188 57.390625 91.996094 57.28125 92 C 53.308594 92.101562 49.878906 90.503906 46.980469 87.875 C 45.726562 86.671875 44.726562 85.132812 44.03125 83.542969 C 44.03125 83.484375 44.03125 83.429688 44.03125 83.371094 C 43.980469 83.394531 43.925781 83.421875 43.871094 83.449219 C 42 84.109375 39.195312 84.039062 37.289062 83.542969 C 37.164062 83.511719 37.039062 83.484375 36.910156 83.453125 C 36.003906 83.234375 35.203125 82.890625 34.390625 82.433594 C 34.304688 82.382812 34.21875 82.335938 34.132812 82.289062 C 32.433594 81.273438 31.246094 79.621094 30.71875 77.722656 C 30.539062 76.996094 30.511719 76.277344 30.507812 75.53125 C 30.507812 75.429688 30.503906 75.328125 30.503906 75.222656 C 30.554688 71.859375 32.460938 68.652344 34.644531 66.21875 C 34.683594 66.175781 34.722656 66.128906 34.765625 66.085938 C 35.886719 64.832031 35.886719 64.832031 36.351562 64.425781 C 36.410156 64.425781 36.464844 64.425781 36.523438 64.425781 C 36.523438 64.371094 36.523438 64.3125 36.523438 64.257812 C 36.476562 64.242188 36.433594 64.230469 36.386719 64.214844 C 33.148438 63.1875 30.15625 60.957031 27.734375 58.625 C 27.664062 58.554688 27.664062 58.554688 27.589844 58.488281 C 24.9375 55.925781 22.507812 52.296875 22.429688 48.496094 C 22.414062 46.695312 22.414062 46.695312 22.613281 45.910156 C 22.644531 45.773438 22.644531 45.773438 22.675781 45.632812 C 23.257812 43.328125 24.839844 41.4375 26.855469 40.230469 C 28.140625 39.488281 29.523438 39.035156 30.976562 38.742188 C 31.078125 38.71875 31.078125 38.71875 31.1875 38.699219 C 33.304688 38.292969 35.601562 38.351562 37.71875 38.742188 C 37.898438 38.773438 38.078125 38.804688 38.261719 38.835938 C 40.800781 39.285156 43.152344 40.125 45.484375 41.214844 C 45.542969 41.15625 45.605469 41.09375 45.667969 41.03125 C 47.664062 39.035156 50.304688 37.371094 53.226562 37.367188 C 53.285156 37.367188 53.347656 37.367188 53.40625 37.367188 C 53.503906 37.367188 53.503906 37.367188 53.601562 37.367188 C 53.8125 37.367188 54.023438 37.367188 54.230469 37.367188 C 54.378906 37.367188 54.523438 37.367188 54.671875 37.367188 C 55.054688 37.367188 55.4375 37.371094 55.824219 37.371094 C 56.214844 37.371094 56.609375 37.371094 57 37.371094 C 57.769531 37.371094 58.539062 37.375 59.308594 37.375 C 58.867188 35.972656 58.867188 35.972656 58.25 34.640625 C 58.210938 34.566406 58.171875 34.492188 58.128906 34.414062 C 57.613281 33.480469 56.964844 32.691406 56.234375 31.914062 C 56.191406 31.863281 56.144531 31.8125 56.097656 31.761719 C 54.929688 30.503906 53.296875 29.703125 51.707031 29.128906 C 51.585938 29.085938 51.585938 29.085938 51.464844 29.042969 C 50.816406 28.820312 50.140625 28.695312 49.492188 28.988281 C 49.421875 29.015625 49.351562 29.046875 49.28125 29.082031 C 48.992188 29.21875 48.703125 29.363281 48.421875 29.511719 C 47.691406 29.855469 46.863281 29.902344 46.082031 29.722656 C 45.320312 29.441406 44.621094 28.925781 44.261719 28.1875 C 44.121094 27.515625 44.125 26.957031 44.496094 26.367188 C 45.316406 25.3125 46.460938 25.21875 47.710938 25.222656 Z M 47.710938 25.222656 "/>
<path style=" stroke:none;fill-rule:nonzero;fill:rgb(95.294118%,71.372551%,21.960784%);fill-opacity:1;" d="M 53.964844 40.433594 C 54.0625 40.433594 54.15625 40.433594 54.257812 40.433594 C 54.578125 40.433594 54.902344 40.433594 55.222656 40.433594 C 55.453125 40.433594 55.6875 40.433594 55.917969 40.429688 C 56.613281 40.429688 57.308594 40.429688 58 40.429688 C 58.261719 40.425781 58.527344 40.425781 58.789062 40.425781 C 59.949219 40.425781 61.105469 40.425781 62.265625 40.421875 C 62.550781 40.421875 62.832031 40.421875 63.117188 40.421875 C 63.222656 40.421875 63.222656 40.421875 63.328125 40.421875 C 64.464844 40.421875 65.601562 40.417969 66.738281 40.417969 C 67.910156 40.414062 69.082031 40.414062 70.253906 40.414062 C 70.90625 40.414062 71.5625 40.410156 72.21875 40.410156 C 72.777344 40.40625 73.339844 40.40625 73.898438 40.40625 C 74.183594 40.40625 74.464844 40.40625 74.75 40.40625 C 76.714844 40.394531 78.761719 40.5 80.640625 41.128906 C 80.695312 41.148438 80.746094 41.167969 80.804688 41.183594 C 82.027344 41.59375 83.175781 42.136719 84.136719 43.007812 C 84.210938 43.070312 84.28125 43.132812 84.351562 43.199219 C 86.234375 44.964844 86.804688 47.597656 86.894531 50.09375 C 86.90625 50.628906 86.90625 51.164062 86.902344 51.699219 C 86.902344 51.894531 86.902344 52.09375 86.902344 52.289062 C 86.90625 52.699219 86.902344 53.109375 86.902344 53.519531 C 86.902344 54.039062 86.902344 54.558594 86.902344 55.078125 C 86.90625 55.484375 86.902344 55.890625 86.902344 56.296875 C 86.902344 56.488281 86.902344 56.679688 86.902344 56.871094 C 86.910156 58.636719 86.8125 60.371094 86.1875 62.039062 C 86.152344 62.128906 86.117188 62.222656 86.082031 62.316406 C 85.703125 63.277344 85.199219 64.03125 84.480469 64.769531 C 84.429688 64.820312 84.382812 64.875 84.328125 64.925781 C 83.074219 66.152344 81.246094 66.554688 79.574219 66.777344 C 79.488281 66.792969 79.398438 66.804688 79.308594 66.816406 C 79.191406 66.832031 79.191406 66.832031 79.070312 66.847656 C 78.816406 66.910156 78.640625 67.019531 78.421875 67.15625 C 78.363281 67.15625 78.308594 67.15625 78.25 67.15625 C 78.226562 67.207031 78.203125 67.257812 78.175781 67.308594 C 78.117188 67.425781 78.054688 67.542969 77.992188 67.65625 C 77.804688 68.074219 77.863281 68.554688 78.003906 68.976562 C 78.332031 69.441406 78.707031 69.652344 79.207031 69.902344 C 80.582031 70.632812 81.335938 71.777344 81.808594 73.230469 C 82.066406 74.15625 82.019531 75.132812 82.019531 76.085938 C 82.019531 76.230469 82.019531 76.375 82.019531 76.519531 C 82.019531 76.824219 82.019531 77.128906 82.019531 77.433594 C 82.019531 77.820312 82.023438 78.207031 82.023438 78.59375 C 82.023438 78.894531 82.023438 79.195312 82.023438 79.496094 C 82.023438 79.636719 82.023438 79.78125 82.027344 79.921875 C 82.035156 82.210938 81.453125 84.460938 79.828125 86.148438 C 77.410156 88.542969 73.472656 88.949219 70.238281 88.9375 C 70.085938 88.941406 69.929688 88.941406 69.777344 88.941406 C 69.363281 88.941406 68.953125 88.941406 68.539062 88.941406 C 68.105469 88.941406 67.671875 88.941406 67.238281 88.941406 C 66.511719 88.941406 65.78125 88.941406 65.054688 88.941406 C 64.214844 88.9375 63.375 88.9375 62.539062 88.941406 C 61.8125 88.941406 61.089844 88.941406 60.367188 88.941406 C 59.933594 88.941406 59.503906 88.941406 59.074219 88.941406 C 58.667969 88.941406 58.265625 88.941406 57.859375 88.941406 C 57.710938 88.941406 57.5625 88.941406 57.417969 88.941406 C 56.253906 88.941406 55.121094 88.878906 54 88.550781 C 53.933594 88.53125 53.871094 88.511719 53.804688 88.492188 C 51.996094 87.957031 50.515625 86.957031 49.152344 85.675781 C 49.101562 85.628906 49.050781 85.585938 49 85.539062 C 47.753906 84.378906 46.839844 82.6875 46.382812 81.0625 C 46.339844 80.910156 46.292969 80.757812 46.246094 80.605469 C 45.878906 79.261719 45.945312 77.871094 45.953125 76.488281 C 45.953125 76.101562 45.953125 75.710938 45.953125 75.320312 C 45.953125 74.558594 45.953125 73.796875 45.953125 73.039062 C 45.957031 72.148438 45.957031 71.261719 45.957031 70.375 C 45.957031 68.792969 45.957031 67.207031 45.960938 65.625 C 45.960938 64.089844 45.964844 62.554688 45.964844 61.019531 C 45.964844 60.921875 45.964844 60.828125 45.964844 60.730469 C 45.964844 60.636719 45.964844 60.542969 45.964844 60.445312 C 45.960938 58.695312 45.964844 56.945312 45.964844 55.191406 C 45.964844 54.574219 45.964844 53.957031 45.964844 53.339844 C 45.964844 52.585938 45.96875 51.832031 45.96875 51.078125 C 45.96875 50.695312 45.96875 50.3125 45.96875 49.925781 C 45.96875 49.574219 45.96875 49.222656 45.972656 48.871094 C 45.972656 48.746094 45.972656 48.617188 45.972656 48.492188 C 45.964844 46.226562 46.796875 44.316406 48.355469 42.683594 C 49.910156 41.203125 51.824219 40.433594 53.964844 40.433594 Z M 53.964844 40.433594 "/>
<path style=" stroke:none;fill-rule:nonzero;fill:rgb(85.882354%,85.882354%,85.882354%);fill-opacity:1;" d="M 34.214844 41.53125 C 34.273438 41.53125 34.335938 41.53125 34.398438 41.53125 C 35.464844 41.535156 36.496094 41.621094 37.546875 41.8125 C 37.621094 41.824219 37.691406 41.839844 37.769531 41.851562 C 38.746094 42.023438 39.683594 42.253906 40.617188 42.582031 C 40.699219 42.609375 40.78125 42.636719 40.867188 42.667969 C 41.886719 43.019531 42.898438 43.371094 43.863281 43.863281 C 43.824219 43.964844 43.789062 44.070312 43.753906 44.175781 C 43.730469 44.246094 43.707031 44.316406 43.683594 44.390625 C 43.628906 44.550781 43.578125 44.710938 43.519531 44.875 C 43.085938 46.195312 42.96875 47.507812 42.972656 48.890625 C 42.96875 49.046875 42.96875 49.199219 42.96875 49.355469 C 42.964844 49.769531 42.964844 50.1875 42.964844 50.601562 C 42.964844 51.035156 42.960938 51.472656 42.960938 51.910156 C 42.957031 52.730469 42.953125 53.554688 42.953125 54.378906 C 42.949219 55.316406 42.945312 56.253906 42.941406 57.191406 C 42.933594 59.121094 42.925781 61.046875 42.921875 62.976562 C 42.746094 62.949219 42.570312 62.921875 42.394531 62.894531 C 42.246094 62.875 42.246094 62.875 42.097656 62.851562 C 41.722656 62.789062 41.355469 62.707031 40.988281 62.613281 C 40.914062 62.59375 40.839844 62.578125 40.765625 62.558594 C 35.859375 61.277344 30.785156 58.28125 27.820312 54.101562 C 27.78125 54.050781 27.746094 54 27.707031 53.949219 C 26.144531 51.753906 25.21875 49.335938 25.554688 46.609375 C 25.875 45.160156 26.855469 43.894531 28.085938 43.089844 C 29.226562 42.394531 30.4375 41.972656 31.742188 41.726562 C 31.824219 41.710938 31.90625 41.699219 31.988281 41.683594 C 32.730469 41.554688 33.460938 41.527344 34.214844 41.53125 Z M 34.214844 41.53125 "/>
<path style=" stroke:none;fill-rule:nonzero;fill:rgb(85.882354%,85.882354%,85.882354%);fill-opacity:1;" d="M 102.039062 43.597656 C 103.105469 44.5625 103.828125 45.796875 103.957031 47.246094 C 104.035156 48.816406 103.757812 50.203125 103.082031 51.625 C 103.039062 51.71875 102.996094 51.8125 102.953125 51.910156 C 102.40625 53.058594 101.695312 54.078125 100.863281 55.039062 C 100.808594 55.105469 100.75 55.171875 100.691406 55.242188 C 99.832031 56.21875 98.914062 57.15625 97.878906 57.941406 C 97.820312 57.984375 97.761719 58.03125 97.699219 58.078125 C 95.625 59.660156 92.054688 62.292969 89.34375 62.292969 C 89.378906 61.917969 89.417969 61.554688 89.507812 61.1875 C 89.835938 59.746094 89.796875 58.261719 89.800781 56.792969 C 89.800781 56.675781 89.800781 56.558594 89.800781 56.445312 C 89.800781 55.835938 89.800781 55.230469 89.800781 54.625 C 89.800781 54.066406 89.804688 53.507812 89.808594 52.949219 C 89.808594 52.460938 89.808594 51.976562 89.808594 51.492188 C 89.808594 51.203125 89.808594 50.917969 89.8125 50.628906 C 89.824219 48.210938 89.625 45.402344 88.214844 43.328125 C 88.0625 43.09375 88.0625 43.09375 88.0625 42.835938 C 89.351562 42.328125 90.6875 42.042969 92.046875 41.792969 C 92.160156 41.769531 92.160156 41.769531 92.277344 41.75 C 95.425781 41.191406 99.5 41.40625 102.039062 43.597656 Z M 102.039062 43.597656 "/>
<path style=" stroke:none;fill-rule:nonzero;fill:rgb(0.392157%,0.392157%,0%);fill-opacity:1;" d="M 60.671875 49.480469 C 60.757812 49.480469 60.84375 49.480469 60.933594 49.480469 C 61.027344 49.480469 61.121094 49.480469 61.21875 49.480469 C 61.316406 49.480469 61.414062 49.480469 61.519531 49.476562 C 61.847656 49.476562 62.175781 49.476562 62.503906 49.476562 C 62.675781 49.476562 62.847656 49.476562 63.015625 49.476562 C 63.492188 49.472656 63.96875 49.472656 64.445312 49.472656 C 65.0625 49.472656 65.675781 49.472656 66.289062 49.46875 C 66.765625 49.464844 67.242188 49.464844 67.71875 49.464844 C 68.003906 49.464844 68.285156 49.464844 68.570312 49.464844 C 68.886719 49.460938 69.203125 49.460938 69.523438 49.464844 C 69.613281 49.460938 69.707031 49.460938 69.800781 49.460938 C 70.941406 49.464844 72.144531 49.824219 72.996094 50.617188 C 73.882812 51.636719 74.082031 52.691406 74.082031 54 C 74.082031 54.097656 74.085938 54.191406 74.085938 54.292969 C 74.085938 54.5 74.085938 54.707031 74.085938 54.910156 C 74.085938 55.222656 74.085938 55.535156 74.089844 55.847656 C 74.089844 56.050781 74.089844 56.25 74.089844 56.453125 C 74.089844 56.542969 74.089844 56.636719 74.089844 56.730469 C 74.085938 57.910156 73.863281 59.046875 73.03125 59.9375 C 72.007812 60.832031 70.949219 61.023438 69.636719 61.027344 C 69.535156 61.027344 69.429688 61.03125 69.324219 61.03125 C 68.988281 61.03125 68.648438 61.03125 68.3125 61.035156 C 68.195312 61.035156 68.078125 61.035156 67.960938 61.035156 C 67.414062 61.035156 66.867188 61.039062 66.316406 61.039062 C 65.6875 61.039062 65.054688 61.042969 64.425781 61.042969 C 63.933594 61.046875 63.445312 61.046875 62.957031 61.050781 C 62.664062 61.050781 62.375 61.050781 62.082031 61.050781 C 61.757812 61.054688 61.429688 61.054688 61.105469 61.054688 C 61.007812 61.054688 60.914062 61.054688 60.816406 61.058594 C 60.261719 61.054688 59.925781 61 59.476562 60.671875 C 59.328125 60.515625 59.328125 60.515625 59.230469 60.367188 C 59.199219 60.320312 59.164062 60.269531 59.132812 60.21875 C 58.984375 59.957031 58.953125 59.738281 58.953125 59.449219 C 58.953125 59.371094 58.953125 59.296875 58.953125 59.21875 C 58.953125 59.136719 58.953125 59.054688 58.953125 58.96875 C 58.949219 58.882812 58.949219 58.792969 58.949219 58.703125 C 58.949219 58.414062 58.949219 58.125 58.949219 57.835938 C 58.949219 57.636719 58.945312 57.433594 58.945312 57.234375 C 58.945312 56.8125 58.945312 56.390625 58.945312 55.96875 C 58.945312 55.425781 58.941406 54.886719 58.941406 54.347656 C 58.9375 53.933594 58.9375 53.515625 58.9375 53.101562 C 58.9375 52.902344 58.9375 52.703125 58.9375 52.503906 C 58.933594 52.226562 58.933594 51.945312 58.933594 51.667969 C 58.933594 51.585938 58.933594 51.503906 58.933594 51.417969 C 58.9375 50.859375 59.003906 50.425781 59.382812 49.988281 C 59.441406 49.941406 59.5 49.894531 59.558594 49.84375 C 59.613281 49.796875 59.671875 49.746094 59.730469 49.695312 C 60.03125 49.492188 60.316406 49.484375 60.671875 49.480469 Z M 60.671875 49.480469 "/>
<path style=" stroke:none;fill-rule:nonzero;fill:rgb(75.686276%,75.686276%,75.686276%);fill-opacity:1;" d="M 89.820312 65.671875 C 89.890625 65.734375 89.964844 65.796875 90.039062 65.863281 C 90.160156 65.964844 90.160156 65.964844 90.28125 66.074219 C 90.367188 66.152344 90.453125 66.226562 90.539062 66.304688 C 90.582031 66.34375 90.625 66.378906 90.667969 66.417969 C 93.054688 68.546875 95.621094 71.535156 95.84375 74.886719 C 95.890625 75.859375 95.886719 76.75 95.488281 77.652344 C 95.457031 77.722656 95.429688 77.789062 95.398438 77.859375 C 94.792969 79.074219 93.664062 79.84375 92.414062 80.296875 C 90.082031 81.007812 87.5 80.875 85.164062 80.214844 C 85.011719 80.0625 85.066406 79.84375 85.0625 79.636719 C 85.0625 79.53125 85.0625 79.425781 85.0625 79.320312 C 85.0625 79.261719 85.0625 79.203125 85.058594 79.148438 C 85.058594 78.96875 85.058594 78.789062 85.054688 78.609375 C 85.050781 78.101562 85.046875 77.589844 85.042969 77.082031 C 85.023438 74.125 84.722656 71.617188 83.03125 69.121094 C 83.109375 69.085938 83.1875 69.050781 83.265625 69.011719 C 84.765625 68.332031 86.429688 67.507812 87.355469 66.082031 C 87.636719 65.789062 87.921875 65.753906 88.308594 65.679688 C 88.375 65.664062 88.445312 65.652344 88.511719 65.636719 C 89.453125 65.445312 89.453125 65.445312 89.820312 65.671875 Z M 89.820312 65.671875 "/>
<path style=" stroke:none;fill-rule:nonzero;fill:rgb(0.392157%,0.392157%,0%);fill-opacity:1;" d="M 60.699219 69.019531 C 60.808594 69.019531 60.808594 69.019531 60.921875 69.019531 C 61.164062 69.019531 61.410156 69.019531 61.652344 69.015625 C 61.824219 69.015625 61.992188 69.015625 62.160156 69.015625 C 62.519531 69.015625 62.875 69.015625 63.230469 69.015625 C 63.6875 69.015625 64.140625 69.011719 64.597656 69.007812 C 64.949219 69.007812 65.300781 69.007812 65.648438 69.007812 C 65.816406 69.007812 65.984375 69.007812 66.152344 69.003906 C 67.546875 68.996094 68.660156 69.089844 69.742188 70.066406 C 70.609375 70.972656 70.851562 72.0625 70.851562 73.277344 C 70.851562 73.363281 70.851562 73.449219 70.851562 73.539062 C 70.855469 73.71875 70.855469 73.898438 70.855469 74.078125 C 70.851562 74.351562 70.855469 74.621094 70.859375 74.894531 C 70.863281 76.359375 70.742188 77.625 69.707031 78.746094 C 68.554688 79.824219 67.15625 79.816406 65.675781 79.820312 C 65.597656 79.820312 65.519531 79.824219 65.441406 79.824219 C 65.027344 79.824219 64.613281 79.828125 64.199219 79.828125 C 63.777344 79.828125 63.351562 79.832031 62.925781 79.835938 C 62.597656 79.839844 62.269531 79.839844 61.941406 79.84375 C 61.785156 79.84375 61.628906 79.84375 61.46875 79.847656 C 60.007812 79.867188 60.007812 79.867188 59.449219 79.453125 C 59.015625 78.917969 58.914062 78.425781 58.917969 77.75 C 58.917969 77.667969 58.917969 77.585938 58.917969 77.503906 C 58.914062 77.234375 58.917969 76.96875 58.917969 76.703125 C 58.917969 76.515625 58.917969 76.328125 58.914062 76.140625 C 58.914062 75.75 58.914062 75.359375 58.917969 74.96875 C 58.917969 74.46875 58.914062 73.96875 58.914062 73.46875 C 58.910156 73.082031 58.910156 72.699219 58.910156 72.3125 C 58.910156 72.128906 58.910156 71.945312 58.910156 71.761719 C 58.910156 71.5 58.910156 71.242188 58.910156 70.984375 C 58.910156 70.910156 58.910156 70.835938 58.910156 70.757812 C 58.917969 70.226562 59.054688 69.875 59.390625 69.460938 C 59.835938 69.058594 60.117188 69.023438 60.699219 69.019531 Z M 60.699219 69.019531 "/>
<path style=" stroke:none;fill-rule:nonzero;fill:rgb(75.294119%,75.294119%,75.294119%);fill-opacity:1;" d="M 40.261719 65.484375 C 40.390625 65.515625 40.515625 65.546875 40.640625 65.585938 C 40.761719 65.617188 40.886719 65.648438 41.007812 65.679688 C 41.074219 65.695312 41.140625 65.714844 41.207031 65.730469 C 41.542969 65.808594 41.882812 65.867188 42.226562 65.925781 C 42.292969 65.9375 42.359375 65.949219 42.429688 65.960938 C 42.59375 65.992188 42.757812 66.019531 42.921875 66.046875 C 42.921875 66.117188 42.921875 66.183594 42.921875 66.253906 C 42.933594 67.914062 42.941406 69.574219 42.953125 71.234375 C 42.957031 72.039062 42.960938 72.839844 42.964844 73.644531 C 42.96875 74.34375 42.972656 75.042969 42.976562 75.746094 C 42.980469 76.113281 42.980469 76.484375 42.984375 76.855469 C 42.984375 77.207031 42.988281 77.554688 42.988281 77.902344 C 42.988281 78.03125 42.992188 78.160156 42.992188 78.285156 C 42.996094 79.019531 43.019531 79.742188 43.09375 80.46875 C 41.421875 80.765625 39.644531 80.933594 37.972656 80.554688 C 37.847656 80.53125 37.847656 80.53125 37.722656 80.507812 C 36.378906 80.222656 35.109375 79.460938 34.304688 78.335938 C 33.464844 76.820312 33.40625 75.152344 33.851562 73.496094 C 34.347656 71.816406 35.238281 70.292969 36.351562 68.949219 C 36.425781 68.859375 36.496094 68.769531 36.570312 68.679688 C 37.441406 67.609375 38.417969 66.636719 39.507812 65.792969 C 39.574219 65.726562 39.636719 65.660156 39.703125 65.59375 C 39.9375 65.449219 39.9375 65.449219 40.261719 65.484375 Z M 40.261719 65.484375 "/>
<path style=" stroke:none;fill-rule:nonzero;fill:rgb(75.686276%,56.470591%,40.000001%);fill-opacity:1;" d="M 62.039062 52.566406 C 64.105469 52.550781 64.105469 52.550781 64.984375 52.546875 C 65.585938 52.546875 66.1875 52.542969 66.789062 52.539062 C 67.273438 52.535156 67.757812 52.535156 68.242188 52.53125 C 68.425781 52.53125 68.613281 52.53125 68.796875 52.527344 C 69.054688 52.527344 69.316406 52.527344 69.574219 52.527344 C 69.6875 52.523438 69.6875 52.523438 69.804688 52.523438 C 70.269531 52.527344 70.554688 52.582031 70.910156 52.90625 C 71.019531 53.152344 71.007812 53.398438 71.011719 53.664062 C 71.011719 53.746094 71.011719 53.828125 71.011719 53.914062 C 71.015625 54 71.015625 54.089844 71.015625 54.179688 C 71.015625 54.273438 71.015625 54.363281 71.015625 54.457031 C 71.015625 54.652344 71.015625 54.84375 71.019531 55.035156 C 71.019531 55.332031 71.019531 55.628906 71.023438 55.921875 C 71.023438 56.109375 71.023438 56.296875 71.023438 56.484375 C 71.027344 56.574219 71.027344 56.660156 71.027344 56.753906 C 71.027344 57.523438 71.027344 57.523438 70.742188 57.855469 C 70.546875 57.953125 70.441406 57.953125 70.226562 57.953125 C 70.117188 57.953125 70.117188 57.953125 70.007812 57.953125 C 69.929688 57.953125 69.847656 57.953125 69.769531 57.949219 C 69.644531 57.949219 69.644531 57.949219 69.515625 57.949219 C 69.238281 57.949219 68.964844 57.949219 68.6875 57.949219 C 68.496094 57.949219 68.304688 57.949219 68.113281 57.949219 C 67.609375 57.949219 67.105469 57.949219 66.601562 57.945312 C 66 57.945312 65.394531 57.945312 64.792969 57.945312 C 63.875 57.945312 62.957031 57.941406 62.039062 57.941406 C 62.039062 56.167969 62.039062 54.394531 62.039062 52.566406 Z M 62.039062 52.566406 "/>
<path style=" stroke:none;fill-rule:nonzero;fill:rgb(76.078433%,56.470591%,40.000001%);fill-opacity:1;" d="M 62.039062 72.105469 C 62.71875 72.097656 63.402344 72.089844 64.082031 72.085938 C 64.398438 72.082031 64.71875 72.078125 65.035156 72.074219 C 65.339844 72.070312 65.648438 72.066406 65.953125 72.066406 C 66.070312 72.066406 66.1875 72.0625 66.304688 72.0625 C 67.21875 72.042969 67.21875 72.042969 67.613281 72.269531 C 67.8125 72.640625 67.8125 72.949219 67.800781 73.367188 C 67.800781 73.484375 67.800781 73.484375 67.800781 73.609375 C 67.800781 73.777344 67.800781 73.945312 67.796875 74.113281 C 67.792969 74.371094 67.789062 74.632812 67.789062 74.890625 C 67.789062 75.054688 67.789062 75.21875 67.785156 75.382812 C 67.785156 75.496094 67.785156 75.496094 67.785156 75.617188 C 67.785156 75.6875 67.78125 75.757812 67.78125 75.832031 C 67.78125 75.929688 67.78125 75.929688 67.777344 76.023438 C 67.75 76.234375 67.703125 76.367188 67.585938 76.542969 C 67.308594 76.738281 67.058594 76.734375 66.726562 76.734375 C 66.621094 76.734375 66.519531 76.734375 66.410156 76.734375 C 66.296875 76.734375 66.1875 76.730469 66.070312 76.730469 C 65.953125 76.730469 65.839844 76.730469 65.722656 76.730469 C 65.417969 76.730469 65.113281 76.726562 64.804688 76.726562 C 64.496094 76.726562 64.183594 76.722656 63.871094 76.722656 C 63.257812 76.722656 62.648438 76.71875 62.039062 76.714844 C 62.039062 75.195312 62.039062 73.671875 62.039062 72.105469 Z M 62.039062 72.105469 "/>
</g>
</svg>
