<svg xmlns="http://www.w3.org/2000/svg" viewBox="0 0 128 128"><path fill="#1cc75d" d="M90.096 54.293c11.573.008 23.146 0 34.719.005.729.003 1.456-.02 2.185.016-.16.581-.386 1.133-.597 1.694a8084 8084 0 0 0-6.368 16.57 10 10 0 0 1-.285.615q-.562.03-1.125.023c-2.243-.02-4.489.026-6.732-.02.204-.803.539-1.55.836-2.345 1.283-3.292 2.52-6.6 3.805-9.89.254-.672.539-1.287.679-1.993a157 157 0 0 0-5.122 0 8 8 0 0 0-.419.97c-.602 1.6-1.239 3.188-1.834 4.794-.965 2.545-1.973 5.075-2.916 7.63q-.165.42-.356.826-.548.034-1.097.028c-2.273-.02-4.547.02-6.82-.017.188-.633.444-1.23.683-1.845q2.058-5.352 4.105-10.71c.216-.556.457-1.097.607-1.679a172 172 0 0 0-5.126 0c-.434.775-.666 1.664-1.004 2.49-1.303 3.378-2.59 6.767-3.896 10.148-.214.534-.369 1.13-.67 1.616-2.622-.02-5.246.015-7.868-.018.193-.686.483-1.32.73-1.986.685-1.893 1.447-3.755 2.174-5.635.945-2.591 1.98-5.147 2.954-7.73q.127-.363.231-.73c-.615-.998-1.501-1.808-2.16-2.778.207-.077.466-.03.687-.049m-29.726.036q.137-.037.28-.036l25.468.005c.63 0 1.257-.017 1.887.013-.635 1.768-1.367 3.5-2 5.271-.705 1.82-1.422 3.64-2.108 5.47-.698 1.887-1.463 3.75-2.169 5.634-.33.828-.6 1.684-.978 2.49-.663.106-1.316.081-1.984.068-1.244-.056-2.494-.023-3.742-.03-1.805.01-3.614-.03-5.418.035-1.034-.005-2.062-.068-3.096-.025-1.204.074-2.403-.046-3.613-.01-2.184.091-4.358-.005-6.548-.015.411-1.212.932-2.39 1.367-3.6.266-.762.579-1.501.855-2.261 1.26-3.175 2.434-6.386 3.7-9.564.083-.29.304-.608.065-.877-.559-.775-1.23-1.468-1.811-2.228-.056-.091-.185-.223-.155-.34m5.751 14.23c.691.077 1.377.044 2.07.05 1.852 0 3.701-.008 5.553.004.28 0 .554-.028.83-.06.504-1.164.908-2.373 1.385-3.547.552-1.385 1.062-2.782 1.596-4.171.226-.585.477-1.154.66-1.753-2.436-.038-4.877.005-7.316-.018-.368 0-.75-.018-1.115.038-.353.584-.523 1.283-.787 1.913-.763 1.913-1.481 3.838-2.218 5.762-.229.597-.49 1.166-.66 1.783M31.902 54.296h25.45c.56 0 1.118-.013 1.677.013-.214.718-.529 1.39-.788 2.095-.962 2.571-2.007 5.111-2.954 7.687-.26.636-.467 1.309-.798 1.906-.802.081-1.62.028-2.425.04-4.675.01-9.359-.02-14.033.016a16.4 16.4 0 0 0-.93 2.5c.687.083 1.372.05 2.063.053h12.384c.637.002 1.27-.016 1.91.02-.28.91-.67 1.783-1.006 2.672-.267.668-.442 1.304-.795 1.906-7.811.025-15.648 0-23.464.012q-.423 0-.846-.017c.338-1.06.782-2.089 1.174-3.13.896-2.294 1.752-4.603 2.65-6.897.233-.59.418-1.19.69-1.763.673-.051 1.339-.02 2.015-.026l13.681.005c.247-.002.495-.025.74-.043.419-.693.665-1.498.914-2.263-5.24-.03-10.491-.005-15.73-.013q-.32-.012-.64-.038c.135-.653.534-1.245.618-1.9-.104-.25-.305-.47-.475-.678a23 23 0 0 1-1.639-2.099c.143-.089.392-.035.557-.058m-28.865 0c3.445.02 6.894-.028 10.334.023-.155.833-.562 1.646-.856 2.451-.562 1.522-1.235 3.013-1.725 4.56.688.086 1.37.05 2.058.056q2.775-.005 5.553.002.42-.004.84-.058c.277-.574.475-1.174.701-1.768.668-1.743 1.316-3.498 2.025-5.225.777-.087 1.575-.026 2.362-.041 1.847.013 3.699-.026 5.546.018a8 8 0 0 1-.237.767c-.782 2.088-1.64 4.143-2.398 6.241-1.333 3.404-2.616 6.829-3.944 10.233-.216.556-.384 1.118-.676 1.641q-.564.026-1.128.02c-2.24-.02-4.481.026-6.722-.02.204-.846.582-1.666.882-2.484a160 160 0 0 1 1.339-3.529c.15-.368.28-.737.373-1.125-.648-.038-1.29-.018-1.936-.02H2.915c-.64 0-1.275.025-1.915-.034.302-1.02.76-1.994 1.118-2.997.696-1.763 1.374-3.534 2.062-5.3.087-.304.254-.56.03-.85-.616-.874-1.396-1.629-2.006-2.515.254-.082.57-.03.833-.046M62.22 16.03c1.812-.02 3.646-.082 5.452.06 3.675.219 7.34.93 10.867 1.974A48.16 48.16 0 0 1 97.483 29.07a48.3 48.3 0 0 1 11.494 16.728c.356.902.749 1.822.988 2.76a9.5 9.5 0 0 1-1.295-.039 12 12 0 0 1-.325-.78 47.3 47.3 0 0 0-4.664-9.26c-.229-.337-.442-.761-.77-1.008-.483-.074-.988-.025-1.473-.03H84.672c-.632 0-1.262-.02-1.892.015q.09.47.226.935a86 86 0 0 1 2.1 9.635c.039.282.034.562.026.844a8 8 0 0 1-1.153-.005c-.196-.547-.239-1.1-.338-1.667a74 74 0 0 0-1.6-7.45c-.219-.776-.379-1.538-.691-2.282-.701-.056-1.39-.02-2.096-.025l-31.339-.003c-.261-.018-.294.241-.368.432a81 81 0 0 0-2.05 8.891c-.127.686-.203 1.367-.379 2.04q-.596.03-1.193-.01c.012-.965.241-1.847.396-2.794.46-2.47.99-4.954 1.671-7.37q.177-.58.308-1.171c-.838-.04-1.677-.008-2.515-.015-5.868.005-11.749-.016-17.614.007-.399.437-.68.932-1 1.428a51 51 0 0 0-2.561 4.537c-1.019 2.053-2.274 5.759-2.274 5.759h-1.524c.14-.602.615-1.598.83-2.172a48.2 48.2 0 0 1 22.424-25.42c6.209-3.328 13.128-5.17 20.154-5.55m-14.129 20.1q.355.028.708.033h30.196c.645-.003 1.285.015 1.93-.015-.152-.803-.495-1.603-.774-2.376a61 61 0 0 0-2.269-5.235c-1.392-2.62-2.987-5.167-5.08-7.291-1.608-1.606-3.516-2.977-5.73-3.595a9.04 9.04 0 0 0-5.046-.007c-2.007.556-3.7 1.689-5.215 3.086-1.854 1.72-3.378 3.861-4.646 6.041-1.702 2.95-3.005 6.13-4.074 9.359m9.566-18.321c-4.029.538-8.045 1.775-11.787 3.35a87 87 0 0 0-3.203 1.563 47.1 47.1 0 0 0-15.096 12.745q-.23.33-.44.67.399.024.798.028h16.628c.732-.005 1.443.026 2.172-.025q.224-.602.414-1.214a50 50 0 0 1 3.828-8.683c1.542-2.693 3.369-5.142 5.746-7.154.541-.444 1.123-.833 1.651-1.288a13 13 0 0 0-.71.008m13-.023c.76.61 1.553 1.13 2.27 1.796 2.463 2.248 4.32 4.987 5.857 7.933a46 46 0 0 1 2.609 5.917c.356.892.62 1.814.965 2.71.77.051 1.542.016 2.312.023 5.288.003 10.577-.007 15.866 0q.716.011 1.43-.028a10 10 0 0 0-1.118-1.529A47 47 0 0 0 86.08 22.544a46.7 46.7 0 0 0-11.899-4.265c-1.148-.209-2.362-.516-3.523-.493M18.889 78.259c.348-.097.77-.018 1.128.013q.17.37.305.754a46.2 46.2 0 0 0 5.205 10.652c.67-.03 2.108-.137 2.779-.14H44.17c.6 0 1.202.018 1.798-.018a8 8 0 0 0-.182-.955 92 92 0 0 1-1.867-8.891 7.6 7.6 0 0 1-.11-1.39 3.4 3.4 0 0 1 1.202.003c.127.582.203 1.168.282 1.758.52 3.206 1.186 6.356 2.106 9.475.815.038 1.63.016 2.446.02H79.64c.676-.004 1.347.026 2.022-.025.292-.792.465-1.638.683-2.456.547-2.101.938-4.23 1.321-6.366.145-.803.201-1.611.4-2.406a3.2 3.2 0 0 1 1.208 0q0 .64-.109 1.27a89 89 0 0 1-1.544 7.687c-.188.76-.407 1.51-.57 2.274.496.03.991.028 1.49.025 5.936-.007 13.094.064 19.028.054 1.359-1.995 2.223-3.519 3.244-5.706a43 43 0 0 0 1.839-4.491 7 7 0 0 1 .368-.89q.648-.081 1.306-.083c-.457 1.56-1.057 3.086-1.687 4.585a48 48 0 0 1-8.982 13.723c-.99 1.125-2.093 2.108-3.19 3.125a48.8 48.8 0 0 1-10.525 7.138 51 51 0 0 1-6.409 2.627 48.5 48.5 0 0 1-13.437 2.362c-1.527.003-3.071.056-4.598-.076a47.3 47.3 0 0 1-9.92-1.684 47.8 47.8 0 0 1-17.06-8.775 48.1 48.1 0 0 1-15.69-22.792c-.029-.13-.113-.33.06-.401m39.572 31.958c-.59-.468-1.212-.895-1.796-1.372-2.385-2.02-4.174-4.476-5.723-7.172a50.8 50.8 0 0 1-4.052-9.379c-.155-.485-.287-.978-.503-1.445-6.28-.038-12.571.008-18.85-.02-.298.01-.63-.041-.915.04-.234.15-.054.31.045.475a48.3 48.3 0 0 0 7.367 8.015 47 47 0 0 0 13.68 8.231c2.748 1.026 5.623 1.898 8.519 2.38.74.137 1.47.267 2.228.247M47.84 90.852c.2.977.553 1.897.893 2.84 1.181 3.228 2.591 6.312 4.469 9.198 1.127 1.684 2.433 3.338 3.96 4.674 1.026.874 2.166 1.723 3.409 2.256 1.59.661 3.259 1.024 4.984.806 2.532-.298 4.793-1.596 6.63-3.318 2.105-1.933 3.637-4.212 5.055-6.671a53.4 53.4 0 0 0 3.797-8.988c.076-.261.117-.526.16-.795-.777-.046-1.55-.015-2.33-.02h-29.15c-.628 0-1.25-.016-1.878.017m22.528 19.484c4.37-.488 8.688-1.727 12.727-3.45 1.33-.584 2.624-1.252 3.914-1.918a47.8 47.8 0 0 0 8.81-6.274 49.6 49.6 0 0 0 5.309-5.65c.551-.704 1.133-1.413 1.57-2.18-.846-.058-1.702-.02-2.553-.025q-8.06 0-16.123-.008c-.432.003-.871-.02-1.306.026-.33.54-.431 1.222-.655 1.813-.63 1.784-1.252 3.595-2.058 5.305-.482.94-.86 1.925-1.397 2.84-1.625 2.962-3.683 5.99-6.327 8.134-.608.506-1.27.927-1.913 1.384"/></svg>
