<svg width="128" height="128" viewBox="0 0 128 128" fill="none" xmlns="http://www.w3.org/2000/svg">
<g clip-path="url(#clip0_175_430)">
<path d="M64 128C99.346 128 128 99.346 128 64C128 28.654 99.346 0 64 0C28.654 0 0 28.654 0 64C0 99.346 28.654 128 64 128Z" fill="#2F63F9"/>
<path d="M91.3 25.24C93.433 26.817 95.374 28.558 97.28 30.4L98.009 31.09C102.995 35.914 106.696 42.384 108.8 48.96V49.92H107.52L107.19 49.05C105.47 44.621 103.532 40.704 100.8 36.8C95.283 36.337 95.283 36.337 88.98 36.44L82.471 36.437L77.44 36.48L78.72 41.6C79.312 44.371 79.535 47.092 79.68 49.92H78.4L78.073 47.874L77.64 45.18L77.213 42.514C76.879 40.4998 76.528 38.4884 76.16 36.48H53.12C51.837 43.184 51.837 43.184 50.88 49.92H49.6C49.681 45.457 50.66 41.165 51.52 36.8C47.7266 36.716 43.9333 36.6494 40.14 36.6L33.739 36.487L28.48 36.8C25.534 41.008 23.441 45.075 21.76 49.92H20.48C22.445 39.947 29.976 30.612 38.265 25.014C54.663 14.624 74.975 13.989 91.3 25.24Z" fill="#E6C040"/>
<path d="M21.76 80H23.04L23.521 80.985C24.736 83.447 25.987 85.857 27.409 88.206C27.84 88.96 27.84 88.96 28.16 89.92L51.52 89.6L49.92 81.28V80H51.2C51.86 83.302 52.49 86.611 53.12 89.92H76.16C76.6476 87.0144 77.1186 84.106 77.573 81.195L77.76 80H79.36C79.13 82.034 78.783 84.03 78.4 86.04L78.06 87.837C77.76 89.28 77.76 89.28 77.44 89.92C81.273 89.987 85.107 90.02 88.94 90.04L95.409 90.107L100.8 89.6C103.144 85.996 103.144 85.996 105.14 82.28L105.781 80.963L106.24 80H107.52C106.308 86.062 101.76 91.322 97.6 95.68L96.821 96.521C89.409 104.299 78.081 109.114 67.419 109.516C59.616 109.596 52.177 108.792 45.12 105.28L43.916 104.695C37.633 101.522 32.089 97.152 27.84 91.52L27.255 90.745C21.76 83.171 21.76 83.171 21.76 80Z" fill="#E4BF42"/>
<path d="M113.081 56.4C114.979 57.667 116.406 59.67 117.005 61.875C117.527 65.707 117.182 68.707 115.04 71.92C113.062 73.757 110.579 75.102 107.84 75.2L106.964 75.247C103.586 75.359 100.995 74.66 98.24 72.64C95.746 70.193 95.306 68.034 95.2 64.66C95.256 61.852 95.661 60.014 97.535 57.916C101.778 53.869 108.048 53.756 113.081 56.4Z" fill="#EFC537"/>
<path d="M54.72 55.04C60.8 55.04 60.8 55.04 62.413 56.353L63.56 58.12L64.803 59.969L65.92 61.76L66.877 63.181C68.8 66.053 68.8 66.053 68.8 66.88H69.44L69.281 65.731C69.082 63.594 69.09 61.487 69.101 59.341L69.109 56.899L69.12 55.04H74.88V74.88C68.8 74.88 68.8 74.88 67.456 73.954L66.66 72.7L65.764 71.371L64.96 70.08C64.4986 69.45 64.032 68.8233 63.56 68.2C62.49 66.719 61.496 65.204 60.48 63.68V74.88H54.72V55.04Z" fill="#ECC33A"/>
<path d="M35.52 55.04H53.12V60.16H40.96V62.4H52.48V67.52H40.96V69.76H53.12V74.88H35.52V55.04Z" fill="#EDC439"/>
<path d="M29.76 91.2H52.16C52.6767 92.5711 53.1847 93.9455 53.684 95.323C55.364 99.895 57.121 103.951 60.48 107.52V107.84C55.494 108.011 50.577 106.371 46.08 104.32L44.947 103.812C39.222 101.108 33.672 96.847 29.76 91.84V91.2Z" fill="#3264F6"/>
<path d="M13.12 55.04H18.56V62.4H27.84V55.04H33.28V74.88H27.84V67.52H18.56V74.88H13.12V55.04Z" fill="#F0C536"/>
<path d="M82.051 91.169L88.34 91.18L94.631 91.189L99.52 91.2C95.63 98.978 85.281 103.868 77.44 106.56C74.586 107.42 71.77 107.711 68.8 107.84L69.64 106.76C72.83 102.48 74.824 97.711 76.427 92.643C77.363 89.824 77.57 91.197 82.051 91.169Z" fill="#3264F6"/>
<path d="M60.48 18.56L59.66 19.62C56.06 24.462 54.174 29.492 52.16 35.2H29.76C33.49 27.738 43.302 22.865 50.74 20.2C53.874 19.214 57.19 18.56 60.48 18.56ZM68.8 18.56C79.543 18.6 89.712 24.73 97.12 32.04C99.52 34.461 99.52 34.461 99.52 35.2H77.12C76.16 32.64 76.16 32.64 75.725 31.427C74.199 27.217 72.486 23.475 69.702 19.945C69.12 19.2 69.12 19.2 68.8 18.56Z" fill="#3164F7"/>
<path d="M65.5999 18.24C70.2479 20.347 72.4319 25.511 74.1879 29.974C75.5199 33.643 75.5199 33.643 75.5199 35.2H53.4399C55.1139 29.063 57.3889 22.47 62.7199 18.56C63.7529 18.044 64.4499 18.112 65.5999 18.24Z" fill="#3164F7"/>
<path d="M53.4399 91.2H75.5199C74.7259 96.76 72.0259 103.184 67.6829 106.927C66.2059 108.017 65.1729 108.402 63.3599 108.16C57.5119 104.505 55.2499 97.533 53.4399 91.2Z" fill="#3264F6"/>
<path d="M76.8 55.04H82.24V69.76H93.76V74.88H76.8V55.04Z" fill="#F0C536"/>
<path d="M105.84 60.08L107.195 60.055C108.542 60.165 109.284 60.369 110.4 61.12C111.787 62.831 111.552 64.786 111.36 66.88C110.973 68.062 110.703 68.565 109.732 69.317C108.486 69.909 107.475 69.91 106.1 69.92L104.681 69.95C103.127 69.726 102.523 69.271 101.44 68.16C100.935 67.15 101.027 66.16 101 65.04L100.953 63.685C101.153 62.145 101.624 61.553 102.72 60.48C103.729 59.975 104.721 60.092 105.84 60.08Z" fill="#3264F6"/>
<g clip-path="url(#clip1_175_430)">
<path d="M76 0H128V52H76V0ZM83.444 19.7813C83.5502 19.8057 83.6659 19.8179 83.767 19.8605C83.8188 19.9189 83.8442 20.0032 83.8787 20.0728C84.3825 18.5717 85.0548 17.1321 85.9049 15.7955C86.0395 15.5959 86.1547 15.3598 86.3299 15.1938C86.5305 15.1394 86.7616 15.1724 86.9688 15.1663C89.2031 15.1684 91.4375 15.1673 93.6719 15.1673C93.9649 15.1684 94.2559 15.1562 94.5484 15.179C94.4971 15.4725 94.3986 15.7498 94.3239 16.0377C94.0329 17.1417 93.81 18.2741 93.618 19.3995C93.5942 19.5345 93.584 19.6711 93.5764 19.8077C93.7455 19.8296 93.9034 19.8306 94.073 19.8133C94.1573 19.5401 94.1771 19.2623 94.2249 18.982C94.4275 17.7841 94.7129 16.6065 95.0389 15.4365C95.0643 15.3568 95.0927 15.2775 95.1202 15.1978C95.3964 15.1404 95.6635 15.1714 95.957 15.1668C100.169 15.1653 104.394 15.1704 108.605 15.1648C108.698 15.1673 108.788 15.1826 108.879 15.1983C108.958 15.4065 109.013 15.6198 109.069 15.8346C109.391 17.0219 109.669 18.2376 109.847 19.4553C109.866 19.5777 109.897 19.696 109.928 19.8154C110.097 19.8301 110.257 19.8291 110.425 19.8103C110.418 19.7011 110.411 19.5945 110.395 19.4863C110.209 18.3544 109.981 17.2301 109.697 16.1185C109.618 15.8021 109.509 15.5 109.452 15.179C109.779 15.1541 110.101 15.1704 110.43 15.1673C112.766 15.1658 115.105 15.1704 117.441 15.1648C117.539 15.1739 117.668 15.1541 117.733 15.2435C117.898 15.4375 118.022 15.6691 118.161 15.8823C118.814 16.9208 119.363 18.0202 119.803 19.1643C119.869 19.3319 119.919 19.5168 120.013 19.6711C120.173 19.7427 120.381 19.7275 120.553 19.7265C120.5 19.5071 120.422 19.2964 120.34 19.0866C119.213 16.085 117.322 13.3722 114.909 11.2623C113.057 9.6398 110.895 8.36418 108.574 7.54355C106.205 6.69449 103.659 6.32633 101.146 6.43094C99.6981 6.49746 98.2559 6.72191 96.8548 7.09617C93.9959 7.87617 91.3217 9.30973 89.097 11.2684C86.5615 13.4855 84.612 16.3597 83.506 19.5421C83.4826 19.6209 83.4633 19.7016 83.444 19.7813ZM80.6978 22.0705C80.9161 22.3839 81.1771 22.6728 81.4189 22.9689C81.4762 23.043 81.5428 23.1227 81.5753 23.2116C81.5616 23.3396 81.5047 23.466 81.459 23.5854C81.2736 24.0343 81.1096 24.4903 80.9354 24.9432C80.5967 25.8233 80.2473 26.6993 79.9234 27.5849C79.8868 27.6819 79.8406 27.7733 79.7944 27.8657C79.5532 27.8804 79.315 27.8647 79.0753 27.8977C78.9682 28.1252 78.89 28.3629 78.8006 28.5975C78.6523 28.9971 78.4802 29.3902 78.3542 29.7974C79.7695 29.8111 81.1863 29.7949 82.6016 29.805C82.7488 29.8086 82.8961 29.802 83.0434 29.7929C83.2054 29.4821 83.2998 29.1373 83.4344 28.8133C83.5476 28.5061 83.6893 28.2034 83.7685 27.888C83.5359 27.8713 83.3029 27.8784 83.0698 27.8693C83.1993 27.462 83.376 27.07 83.5248 26.6693C84.0239 25.3591 84.5343 24.053 85.0325 22.7429C85.1203 22.5144 85.2163 22.2909 85.2854 22.0563C83.8477 22.0467 82.4081 22.0573 80.97 22.0512C80.8836 22.0589 80.779 22.0396 80.6978 22.0705ZM84.9548 29.7979C88.0768 29.8091 91.2085 29.7974 94.332 29.8035C94.5286 29.8071 94.7241 29.8081 94.9201 29.7903C95.0414 29.5557 95.1151 29.3064 95.21 29.0606C96.0043 27.009 96.7838 24.9509 97.5764 22.8988C97.6836 22.617 97.8034 22.3519 97.8796 22.0599C97.5937 22.0441 97.3093 22.0543 97.0234 22.0533C93.7902 22.0528 90.5575 22.0533 87.3242 22.0528C87.0723 22.0543 86.8189 22.0446 86.5676 22.0589C86.8139 22.4367 87.1445 22.7591 87.4075 23.1237C87.5004 23.2329 87.4171 23.3497 87.3841 23.467C87.0541 24.2816 86.7484 25.1047 86.4366 25.9259C85.9658 27.1202 85.5261 28.3263 85.0507 29.5186C85.0157 29.6105 84.9852 29.7045 84.9548 29.7979ZM98.4697 22.0716C98.6875 22.3986 98.9653 22.6941 99.2106 23.0014C99.2598 23.0659 99.3147 23.1364 99.3431 23.2131C99.333 23.3254 99.2842 23.4376 99.2451 23.5422C99.0105 24.1282 98.7779 24.7147 98.5626 25.3079C98.2869 26.0548 97.9781 26.7886 97.7085 27.5377C97.4774 28.1536 97.2352 28.765 96.9975 29.3785C96.9432 29.5141 96.9026 29.6532 96.868 29.7949C97.1057 29.8081 97.3439 29.8035 97.582 29.8025C100.375 29.802 103.168 29.8025 105.961 29.802C106.244 29.801 106.526 29.8142 106.808 29.7929C106.855 29.7014 106.901 29.6105 106.937 29.5141C107.352 28.3811 107.805 27.2629 108.225 26.1315C108.646 25.058 109.049 23.9779 109.466 22.9029C109.574 22.6185 109.699 22.3564 109.769 22.0594C109.363 22.0416 108.957 22.0573 108.551 22.0528C105.263 22.0518 101.973 22.0543 98.685 22.0518C98.6175 22.0584 98.5321 22.0421 98.4697 22.0716ZM110.304 22.068C110.533 22.39 110.803 22.686 111.049 22.9948C111.099 23.0608 111.155 23.1329 111.182 23.2121C111.177 23.2893 111.15 23.3685 111.125 23.4416C110.445 25.2032 109.774 26.9669 109.096 28.728C108.968 29.0845 108.809 29.4328 108.705 29.7969C109.431 29.8116 110.16 29.7984 110.887 29.8025C111.234 29.7969 111.585 29.8208 111.93 29.7898C111.993 29.6598 112.051 29.5283 112.099 29.3922C112.71 27.789 113.333 26.1904 113.943 24.5873C114.021 24.3821 114.088 24.1764 114.201 23.9865C114.899 23.9748 115.603 23.9774 116.302 23.9865C116.093 24.5832 115.842 25.1662 115.622 25.7593C115.231 26.8023 114.817 27.8368 114.426 28.8798C114.312 29.187 114.175 29.4846 114.084 29.7974C115.015 29.8121 115.948 29.7944 116.879 29.805C117.024 29.8086 117.169 29.801 117.314 29.7888C117.358 29.6943 117.403 29.6024 117.44 29.5044C117.663 28.8889 117.913 28.2836 118.143 27.6712C118.56 26.5535 119.011 25.45 119.421 24.3293C119.463 24.2089 119.519 24.0967 119.583 23.987C120.285 23.9748 120.991 23.9789 121.692 23.985C121.551 24.4283 121.355 24.8534 121.197 25.2911C120.925 26.0142 120.644 26.7338 120.365 27.4544C120.113 28.1018 119.877 28.7539 119.616 29.3978C119.562 29.5288 119.516 29.6623 119.474 29.7974C120.403 29.8116 121.333 29.7954 122.262 29.8055C122.409 29.8086 122.556 29.8015 122.704 29.7929C122.844 29.5369 122.915 29.2683 123.023 28.9976C123.809 26.9699 124.578 24.9351 125.363 22.9069C125.467 22.6276 125.603 22.3488 125.666 22.0609C125.36 22.0426 125.056 22.0548 124.75 22.0528C120.004 22.0523 115.258 22.0538 110.512 22.0523C110.444 22.0553 110.37 22.0492 110.304 22.068ZM120.685 31.8789C120.505 31.8779 120.33 31.9003 120.153 31.9292C120.03 32.1491 119.977 32.3822 119.888 32.6158C119.379 33.9762 118.722 35.2777 117.922 36.4899C117.87 36.5666 117.815 36.6417 117.759 36.7159C117.737 36.6239 117.717 36.5315 117.697 36.4386C117.407 36.4162 117.119 36.432 116.828 36.4295C114.712 36.4289 112.597 36.4295 110.48 36.4295C110.175 36.4279 109.873 36.4411 109.568 36.4178C109.61 36.1359 109.701 35.8714 109.767 35.5956C110.007 34.6196 110.207 33.6345 110.37 32.6427C110.414 32.3659 110.472 32.0998 110.47 31.818C110.308 31.8063 110.148 31.8068 109.986 31.8155C109.903 32.0714 109.888 32.3279 109.845 32.5914C109.687 33.5761 109.484 34.5531 109.235 35.5195C109.157 35.817 109.099 36.1131 108.989 36.4015C108.665 36.4584 108.321 36.4208 107.992 36.4289C103.946 36.4295 99.9012 36.4289 95.8555 36.4295C95.5599 36.4259 95.2918 36.4533 95.0115 36.4015C94.9059 36.1273 94.8495 35.8434 94.7748 35.5601C94.5286 34.61 94.3275 33.6482 94.1695 32.6798C94.1198 32.3908 94.1101 32.0877 94.0146 31.816C93.8516 31.8063 93.6912 31.8058 93.5277 31.8175C93.5312 31.947 93.5373 32.076 93.5576 32.2039C93.7348 33.3272 93.9517 34.4505 94.2223 35.555C94.2914 35.8455 94.3874 36.1217 94.4316 36.4178C94.1269 36.4411 93.8247 36.4279 93.5195 36.4295C91.4207 36.4295 89.3214 36.4295 87.2227 36.4295C86.9429 36.4305 86.6641 36.4203 86.3848 36.435C86.3685 36.5666 86.3497 36.6981 86.334 36.8296C86.1999 36.6595 86.0786 36.4818 85.9633 36.2984C85.5032 35.5692 85.0787 34.8217 84.7196 34.0371C84.4348 33.4115 84.1575 32.7722 83.9529 32.1151C83.9198 32.015 83.8797 31.9206 83.8401 31.8221C83.6817 31.8129 83.4989 31.784 83.3445 31.8236C83.2846 31.8729 83.3491 31.977 83.3592 32.0394C83.6878 33.0002 84.0544 33.9412 84.5231 34.8436C85.9029 37.5807 87.9498 39.9816 90.4198 41.7955C92.35 43.2169 94.5433 44.2711 96.8548 44.9043C98.6281 45.3746 100.469 45.6163 102.305 45.5838C104.06 45.5584 105.815 45.2908 107.503 44.8063C108.751 44.4351 109.965 43.9527 111.117 43.3438C113.581 42.0469 115.766 40.2198 117.473 38.0199C118.751 36.3817 119.768 34.5373 120.463 32.5787C120.547 32.3482 120.633 32.1196 120.685 31.8789Z" fill="black" stroke="black" stroke-width="17.7778"/>
<path d="M101.146 6.43092C103.658 6.32631 106.205 6.69448 108.574 7.54354C110.895 8.36417 113.057 9.63979 114.909 11.2623C117.322 13.3722 119.213 16.0849 120.34 19.0866C120.422 19.2964 120.5 19.5071 120.553 19.7265C120.381 19.7275 120.173 19.7427 120.013 19.6711C119.919 19.5167 119.869 19.3319 119.803 19.1643C119.363 18.0202 118.814 16.9208 118.161 15.8823C118.022 15.669 117.898 15.4375 117.732 15.2435C117.667 15.1541 117.538 15.1739 117.441 15.1648C115.105 15.1704 112.766 15.1658 110.43 15.1673C110.101 15.1704 109.779 15.1541 109.452 15.179C109.508 15.4999 109.618 15.8021 109.697 16.1185C109.981 17.2301 110.209 18.3544 110.395 19.4863C110.411 19.5944 110.417 19.7011 110.425 19.8103C110.256 19.829 110.097 19.8301 109.928 19.8153C109.897 19.696 109.865 19.5777 109.847 19.4553C109.669 18.2376 109.391 17.0219 109.069 15.8346C109.013 15.6198 108.957 15.4065 108.879 15.1983C108.788 15.1826 108.698 15.1673 108.605 15.1648C104.394 15.1704 100.169 15.1653 95.957 15.1668C95.6635 15.1714 95.3964 15.1404 95.1201 15.1978C95.0927 15.2775 95.0642 15.3567 95.0389 15.4365C94.7128 16.6065 94.4274 17.7841 94.2248 18.982C94.1771 19.2623 94.1573 19.5401 94.073 19.8133C93.9034 19.8306 93.7455 19.8296 93.5764 19.8077C93.584 19.6711 93.5941 19.5345 93.618 19.3994C93.8099 18.2741 94.0329 17.1417 94.3239 16.0377C94.3985 15.7498 94.497 15.4725 94.5483 15.179C94.2558 15.1562 93.9648 15.1683 93.6718 15.1673C91.4374 15.1673 89.2031 15.1683 86.9687 15.1663C86.7615 15.1724 86.5305 15.1394 86.3299 15.1937C86.1547 15.3598 86.0394 15.5959 85.9048 15.7955C85.0548 17.1321 84.3824 18.5717 83.8787 20.0728C83.8441 20.0032 83.8187 19.9189 83.7669 19.8605C83.6659 19.8179 83.5501 19.8057 83.444 19.7813C83.4633 19.7016 83.4826 19.6208 83.5059 19.5421C84.6119 16.3597 86.5614 13.4855 89.0969 11.2683C91.3217 9.30971 93.9958 7.87616 96.8548 7.09616C98.2558 6.7219 99.698 6.49745 101.146 6.43092ZM95.3029 14.6306C95.3847 14.6356 95.4664 14.6402 95.5482 14.6428C99.6117 14.6428 103.675 14.6428 107.738 14.6428C108.06 14.6407 108.377 14.6549 108.696 14.6306C108.638 14.3812 108.546 14.1451 108.458 13.9054C107.867 12.2718 107.083 10.6229 105.995 9.25842C105.286 8.37788 104.414 7.59229 103.343 7.18706C102.917 7.02963 102.454 6.94991 102 6.93924C101.415 6.95245 100.826 7.08092 100.3 7.33838C99.3126 7.8137 98.5336 8.57034 97.8704 9.42905C96.8436 10.7722 96.0992 12.3581 95.5274 13.942C95.4446 14.1695 95.3583 14.3944 95.3029 14.6306ZM86.7366 14.629C87.0362 14.6534 87.3292 14.6417 87.6289 14.6428C89.7109 14.6433 91.7929 14.6428 93.8749 14.6428C94.1629 14.6402 94.4376 14.661 94.7235 14.623C94.7723 14.5123 94.82 14.4015 94.8565 14.2858C95.1739 13.2778 95.5827 12.3124 96.0489 11.3648C96.7162 10.0537 97.5774 8.73639 98.6987 7.76901C98.9769 7.52018 99.2908 7.32417 99.5828 7.09413C98.3127 7.24901 97.0574 7.55624 95.8448 7.96045C92.5298 9.09084 89.5458 11.1551 87.3176 13.8572C87.1119 14.109 86.8991 14.3442 86.7366 14.629ZM104.454 7.11088C104.641 7.29116 104.877 7.41913 105.079 7.58467C106.031 8.34436 106.792 9.3412 107.409 10.3832C107.828 11.0769 108.175 11.8041 108.495 12.547C108.738 13.1163 108.959 13.6957 109.143 14.2863C109.179 14.4015 109.227 14.5128 109.275 14.6235C109.543 14.6595 109.806 14.6412 110.074 14.6428C112.19 14.6428 114.306 14.6428 116.422 14.6428C116.711 14.6417 116.997 14.6519 117.285 14.6316C117.119 14.3553 116.914 14.1299 116.712 13.878C114.254 10.8915 110.877 8.67901 107.147 7.64764C106.265 7.39983 105.363 7.20889 104.453 7.09768L104.454 7.11088Z" fill="black" stroke="#964DFE" stroke-width="17.7778"/>
<path d="M102 6.93927C102.455 6.94993 102.917 7.02966 103.343 7.18708C104.414 7.59232 105.286 8.3779 105.995 9.25845C107.083 10.6229 107.867 12.2718 108.458 13.9054C108.546 14.1451 108.638 14.3813 108.697 14.6306C108.377 14.655 108.06 14.6408 107.738 14.6428C103.675 14.6428 99.6118 14.6428 95.5483 14.6428C95.4665 14.6402 95.3847 14.6357 95.303 14.6306C95.3583 14.3945 95.4447 14.1695 95.5274 13.942C96.0992 12.3581 96.8437 10.7722 97.8705 9.42907C98.5337 8.57036 99.3127 7.81372 100.3 7.33841C100.826 7.08095 101.416 6.95247 102 6.93927Z" fill="black" stroke="black" stroke-width="17.7778"/>
<path d="M99.5828 7.09412C99.2908 7.32416 98.977 7.52017 98.6987 7.769C97.5775 8.73638 96.7162 10.0536 96.049 11.3648C95.5828 12.3124 95.174 13.2777 94.8566 14.2858C94.8201 14.4015 94.7723 14.5122 94.7236 14.6229C94.4377 14.661 94.1629 14.6402 93.875 14.6427C91.793 14.6427 89.711 14.6433 87.6289 14.6427C87.3293 14.6417 87.0363 14.6534 86.7367 14.629C86.8992 14.3442 87.112 14.109 87.3176 13.8572C89.5459 11.1551 92.5298 9.09083 95.8448 7.96044C97.0575 7.55623 98.3128 7.249 99.5828 7.09412Z" fill="black" stroke="black" stroke-width="17.7778"/>
<path d="M104.453 7.09772C105.363 7.20893 106.265 7.39987 107.147 7.64768C110.877 8.67905 114.255 10.8916 116.712 13.878C116.914 14.1299 117.119 14.3554 117.285 14.6316C116.997 14.6519 116.711 14.6418 116.422 14.6428C114.306 14.6428 112.19 14.6428 110.074 14.6428C109.806 14.6413 109.543 14.6596 109.275 14.6235C109.227 14.5128 109.179 14.4016 109.143 14.2863C108.959 13.6957 108.738 13.1163 108.495 12.5471C108.175 11.8041 107.828 11.0769 107.409 10.3833C106.792 9.34123 106.031 8.3444 105.079 7.58471C104.877 7.41916 104.641 7.29119 104.454 7.11092L104.453 7.09772Z" fill="black" stroke="black" stroke-width="17.7778"/>
<path d="M80.97 22.0513C82.4081 22.0574 83.8478 22.0467 85.2854 22.0563C85.2163 22.291 85.1203 22.5144 85.0325 22.7429C84.5343 24.0531 84.024 25.3592 83.5248 26.6693C83.376 27.07 83.1993 27.462 83.0698 27.8693C83.3029 27.8784 83.536 27.8713 83.7685 27.8881C83.6893 28.2034 83.5476 28.5061 83.4344 28.8133C83.2998 29.1373 83.2054 29.4821 83.0434 29.7929C82.8961 29.802 82.7489 29.8086 82.6016 29.8051C81.1863 29.7949 79.7695 29.8112 78.3542 29.7974C78.4802 29.3902 78.6523 28.9971 78.8006 28.5975C78.89 28.3629 78.9682 28.1252 79.0753 27.8977C79.315 27.8647 79.5532 27.8804 79.7944 27.8657C79.8406 27.7733 79.8868 27.6819 79.9234 27.5849C80.2474 26.6993 80.5967 25.8233 80.9355 24.9433C81.1096 24.4903 81.2737 24.0343 81.459 23.5854C81.5047 23.466 81.5616 23.3396 81.5753 23.2116C81.5428 23.1228 81.4763 23.043 81.4189 22.9689C81.1772 22.6728 80.9162 22.3839 80.6978 22.0706C80.7791 22.0396 80.8837 22.0589 80.97 22.0513Z" fill="black" stroke="#964DFE" stroke-width="17.7778"/>
<path d="M86.5675 22.0589C86.8189 22.0446 87.0723 22.0543 87.3242 22.0528C90.5574 22.0533 93.7901 22.0528 97.0234 22.0533C97.3093 22.0543 97.5937 22.0441 97.8796 22.0599C97.8034 22.3519 97.6835 22.6169 97.5764 22.8988C96.7837 24.9508 96.0042 27.009 95.21 29.0606C95.115 29.3064 95.0414 29.5557 94.92 29.7903C94.724 29.8081 94.5285 29.8071 94.332 29.8035C91.2084 29.7974 88.0767 29.8091 84.9547 29.7979C84.9852 29.7045 85.0156 29.6105 85.0507 29.5186C85.526 28.3263 85.9658 27.1202 86.4365 25.9258C86.7483 25.1047 87.054 24.2816 87.3841 23.467C87.4171 23.3497 87.5004 23.2329 87.4074 23.1237C87.1444 22.7591 86.8138 22.4367 86.5675 22.0589ZM88.9497 27.8687C89.6601 27.886 90.3715 27.8687 91.082 27.8748C91.5177 27.8682 91.9544 27.8906 92.3896 27.8662C92.5277 27.6108 92.6049 27.3421 92.7136 27.073C93.0614 26.196 93.3778 25.3083 93.7333 24.4344C93.7937 24.2887 93.8409 24.1419 93.878 23.9891C92.8964 23.9677 91.9123 23.9901 90.9301 23.9789C90.7707 23.9799 90.6046 23.9692 90.4472 23.9967C90.335 24.1653 90.2796 24.377 90.2055 24.5649C89.9181 25.3251 89.6149 26.0792 89.3326 26.8414C89.2081 27.1847 89.0512 27.5183 88.9497 27.8687Z" fill="black" stroke="#964DFE" stroke-width="17.7778"/>
<path d="M98.685 22.0517C101.973 22.0543 105.263 22.0517 108.551 22.0528C108.957 22.0573 109.363 22.0416 109.769 22.0594C109.699 22.3564 109.574 22.6185 109.466 22.9028C109.049 23.9779 108.646 25.058 108.225 26.1315C107.805 27.2629 107.352 28.3811 106.937 29.514C106.901 29.6105 106.855 29.7014 106.808 29.7928C106.526 29.8142 106.244 29.801 105.961 29.802C103.168 29.8025 100.375 29.802 97.582 29.8025C97.3439 29.8035 97.1057 29.8081 96.868 29.7949C96.9026 29.6532 96.9432 29.514 96.9975 29.3785C97.2352 28.765 97.4774 28.1536 97.7085 27.5376C97.9781 26.7886 98.2869 26.0548 98.5626 25.3078C98.7779 24.7147 99.0105 24.1282 99.2451 23.5422C99.2842 23.4376 99.333 23.3253 99.3431 23.2131C99.3147 23.1364 99.2598 23.0658 99.2106 23.0013C98.9653 22.6941 98.6875 22.3986 98.4697 22.0715C98.5321 22.0421 98.6175 22.0583 98.685 22.0517ZM100.839 27.8692C101.835 27.8855 102.832 27.8667 103.828 27.8774C103.977 27.8804 104.126 27.8748 104.276 27.8687C104.423 27.6285 104.482 27.3756 104.588 27.1151C104.889 26.3468 105.183 25.5755 105.476 24.8036C105.58 24.5294 105.698 24.2638 105.786 23.984C104.761 23.9743 103.735 23.988 102.71 23.9779C102.587 23.9789 102.457 23.9738 102.337 23.9997C102.217 24.1972 102.155 24.4324 102.068 24.6456C101.757 25.4383 101.459 26.2361 101.151 27.0303C101.044 27.3117 100.922 27.5798 100.839 27.8692Z" fill="black" stroke="#964DFE" stroke-width="17.7778"/>
<path d="M110.512 22.0523C115.258 22.0538 120.004 22.0523 124.75 22.0528C125.056 22.0548 125.36 22.0426 125.666 22.0609C125.603 22.3488 125.466 22.6276 125.363 22.9069C124.578 24.9351 123.809 26.9699 123.023 28.9976C122.915 29.2683 122.844 29.5369 122.703 29.7929C122.556 29.8015 122.409 29.8086 122.262 29.8056C121.333 29.7954 120.403 29.8116 119.474 29.7974C119.516 29.6623 119.562 29.5288 119.616 29.3978C119.876 28.7539 120.113 28.1018 120.365 27.4544C120.644 26.7338 120.925 26.0142 121.197 25.2911C121.355 24.8534 121.551 24.4283 121.692 23.985C120.991 23.9789 120.285 23.9748 119.583 23.987C119.519 24.0967 119.463 24.2089 119.421 24.3293C119.011 25.45 118.56 26.5535 118.143 27.6712C117.913 28.2836 117.663 28.8889 117.44 29.5044C117.403 29.6024 117.358 29.6943 117.314 29.7888C117.169 29.801 117.024 29.8086 116.879 29.805C115.948 29.7944 115.015 29.8122 114.084 29.7974C114.175 29.4846 114.312 29.187 114.426 28.8798C114.817 27.8368 115.23 26.8023 115.622 25.7593C115.842 25.1662 116.093 24.5832 116.302 23.9865C115.603 23.9774 114.899 23.9748 114.201 23.9865C114.088 24.1764 114.021 24.3821 113.943 24.5873C113.333 26.1904 112.71 27.789 112.099 29.3922C112.051 29.5283 111.993 29.6598 111.93 29.7898C111.585 29.8208 111.234 29.7969 110.887 29.8025C110.159 29.7984 109.431 29.8116 108.705 29.7969C108.809 29.4328 108.968 29.0845 109.096 28.728C109.774 26.9669 110.445 25.2032 111.125 23.4416C111.15 23.3685 111.177 23.2893 111.182 23.2121C111.155 23.1329 111.099 23.0608 111.049 22.9948C110.803 22.686 110.533 22.39 110.304 22.068C110.37 22.0492 110.444 22.0553 110.512 22.0523Z" fill="black" stroke="#964DFE" stroke-width="17.7778"/>
<path d="M90.4472 23.9966C90.6047 23.9692 90.7707 23.9799 90.9302 23.9789C91.9123 23.99 92.8964 23.9677 93.878 23.989C93.841 24.1419 93.7937 24.2886 93.7333 24.4344C93.3778 25.3083 93.0615 26.196 92.7136 27.073C92.6049 27.3421 92.5278 27.6108 92.3896 27.8662C91.9544 27.8906 91.5177 27.8682 91.082 27.8748C90.3716 27.8687 89.6601 27.886 88.9497 27.8687C89.0513 27.5183 89.2082 27.1847 89.3326 26.8414C89.6149 26.0792 89.9181 25.3251 90.2055 24.5649C90.2797 24.377 90.335 24.1652 90.4472 23.9966Z" fill="black" stroke="black" stroke-width="17.7778"/>
<path d="M102.337 23.9997C102.457 23.9738 102.587 23.9789 102.71 23.9779C103.735 23.9881 104.761 23.9744 105.786 23.984C105.698 24.2638 105.58 24.5294 105.476 24.8036C105.183 25.5755 104.889 26.3469 104.588 27.1152C104.482 27.3757 104.423 27.6286 104.275 27.8688C104.126 27.8749 103.977 27.8804 103.828 27.8774C102.832 27.8667 101.835 27.8855 100.839 27.8693C100.922 27.5798 101.044 27.3117 101.151 27.0304C101.459 26.2361 101.757 25.4384 102.068 24.6457C102.155 24.4324 102.217 24.1973 102.337 23.9997Z" fill="black" stroke="black" stroke-width="17.7778"/>
<path d="M83.3445 31.8236C83.4989 31.784 83.6817 31.8129 83.8401 31.8221C83.8798 31.9206 83.9199 32.015 83.9529 32.1151C84.1575 32.7722 84.4348 33.4115 84.7197 34.0371C85.0787 34.8217 85.5032 35.5692 85.9633 36.2984C86.0786 36.4818 86.1999 36.6595 86.334 36.8296C86.3498 36.6981 86.3685 36.5666 86.3848 36.435C86.6641 36.4203 86.9429 36.4305 87.2227 36.4295C89.3215 36.4295 91.4208 36.4295 93.5196 36.4295C93.8248 36.4279 94.1269 36.4411 94.4316 36.4178C94.3874 36.1217 94.2914 35.8455 94.2224 35.555C93.9517 34.4505 93.7349 33.3272 93.5576 32.2039C93.5373 32.076 93.5312 31.947 93.5277 31.8175C93.6912 31.8058 93.8517 31.8063 94.0147 31.816C94.1101 32.0877 94.1198 32.3908 94.1696 32.6798C94.3275 33.6482 94.5286 34.61 94.7749 35.5601C94.8495 35.8434 94.9059 36.1273 95.0115 36.4015C95.2918 36.4533 95.5599 36.4259 95.8555 36.4295C99.9012 36.4289 103.946 36.4294 107.992 36.4289C108.321 36.4208 108.665 36.4584 108.989 36.4015C109.099 36.1131 109.157 35.817 109.235 35.5195C109.484 34.5531 109.687 33.5761 109.845 32.5914C109.888 32.3278 109.903 32.0714 109.986 31.8155C110.148 31.8068 110.308 31.8063 110.47 31.818C110.472 32.0998 110.414 32.3659 110.37 32.6427C110.207 33.6344 110.007 34.6196 109.767 35.5956C109.701 35.8714 109.61 36.1359 109.568 36.4178C109.873 36.4411 110.175 36.4279 110.48 36.4295C112.597 36.4295 114.712 36.4289 116.828 36.4295C117.119 36.432 117.407 36.4162 117.698 36.4386C117.717 36.5315 117.737 36.6239 117.759 36.7159C117.815 36.6417 117.87 36.5666 117.922 36.4899C118.722 35.2777 119.379 33.9762 119.888 32.6158C119.977 32.3822 120.03 32.1491 120.153 31.9292C120.33 31.9003 120.505 31.8779 120.685 31.8789C120.633 32.1196 120.547 32.3482 120.463 32.5787C119.768 34.5373 118.751 36.3817 117.473 38.0199C115.766 40.2198 113.581 42.0469 111.117 43.3438C109.965 43.9527 108.751 44.4351 107.503 44.8063C105.815 45.2908 104.06 45.5584 102.305 45.5838C100.469 45.6163 98.6282 45.3746 96.8549 44.9043C94.5433 44.2711 92.3501 43.2169 90.4199 41.7955C87.9499 39.9816 85.9029 37.5807 84.5232 34.8436C84.0544 33.9412 83.6878 33.0002 83.3592 32.0394C83.3491 31.9769 83.2846 31.8728 83.3445 31.8236ZM99.5712 44.885C99.3051 44.6738 99.0161 44.4961 98.7587 44.2721C97.7009 43.3728 96.9026 42.2114 96.2445 40.9982C95.7153 39.9923 95.2659 38.9446 94.9049 37.8666C94.7962 37.5639 94.7241 37.2531 94.5971 36.9591C94.3732 36.9368 94.1498 36.9434 93.9258 36.9454C91.4294 36.9494 88.9173 36.9413 86.4229 36.9489C86.5656 37.2034 86.757 37.4329 86.9327 37.6645C88.8391 40.1278 91.3619 42.121 94.2066 43.3905C95.6681 44.0558 97.2246 44.5138 98.8044 44.7916C99.0588 44.8368 99.3127 44.8759 99.5712 44.885ZM108.803 36.951C108.533 36.9378 108.263 36.9464 107.992 36.9459C103.98 36.9459 99.9688 36.9459 95.9571 36.9459C95.7057 36.9484 95.4523 36.9332 95.2014 36.953C95.2141 37.2227 95.3396 37.4999 95.4249 37.7543C96.0276 39.4865 96.8244 41.2318 97.9639 42.6806C98.682 43.581 99.5691 44.397 100.664 44.8048C101.306 45.0521 101.994 45.0897 102.67 44.9886C103.64 44.8155 104.54 44.2366 105.24 43.5607C106.271 42.5593 107.029 41.3156 107.651 40.0298C108.063 39.1747 108.397 38.2743 108.708 37.3786C108.757 37.2389 108.785 37.0972 108.803 36.951ZM109.405 36.9606C109.288 37.2115 109.226 37.4903 109.133 37.7518C108.61 39.3159 107.928 40.8601 107.013 42.2358C106.476 43.0366 105.854 43.78 105.101 44.3864C104.869 44.5753 104.616 44.7322 104.379 44.914C105.149 44.819 105.914 44.6733 106.666 44.4808C107.475 44.2706 108.275 44.0329 109.048 43.713C112.223 42.4526 115.037 40.3223 117.118 37.6147C117.285 37.3984 117.452 37.1876 117.586 36.9494C115.068 36.9408 112.543 36.95 110.024 36.9449C109.814 36.9449 109.614 36.9342 109.405 36.9606Z" fill="black" stroke="#964DFE" stroke-width="17.7778"/>
<path d="M86.4229 36.949C88.9172 36.9413 91.4294 36.9495 93.9258 36.9454C94.1497 36.9434 94.3732 36.9368 94.5971 36.9591C94.7241 37.2531 94.7962 37.5639 94.9048 37.8666C95.2659 38.9447 95.7153 39.9923 96.2445 40.9982C96.9026 42.2114 97.7009 43.3728 98.7586 44.2721C99.0161 44.4961 99.305 44.6738 99.5711 44.885C99.3127 44.8759 99.0587 44.8368 98.8043 44.7916C97.2245 44.5138 95.6681 44.0558 94.2066 43.3906C91.3618 42.121 88.839 40.1279 86.9327 37.6645C86.757 37.4329 86.5655 37.2034 86.4229 36.949Z" fill="black" stroke="black" stroke-width="17.7778"/>
<path d="M95.2014 36.953C95.4523 36.9332 95.7057 36.9484 95.957 36.9459C99.9688 36.9459 103.98 36.9459 107.992 36.9459C108.263 36.9464 108.533 36.9378 108.803 36.951C108.785 37.0972 108.757 37.2389 108.708 37.3786C108.397 38.2743 108.063 39.1747 107.651 40.0299C107.029 41.3156 106.271 42.5593 105.24 43.5607C104.54 44.2366 103.64 44.8155 102.67 44.9886C101.994 45.0897 101.306 45.0521 100.664 44.8048C99.5691 44.397 98.682 43.581 97.9639 42.6806C96.8244 41.2318 96.0276 39.4865 95.4249 37.7543C95.3395 37.4999 95.2141 37.2227 95.2014 36.953Z" fill="black" stroke="black" stroke-width="17.7778"/>
<path d="M110.024 36.9449C112.543 36.95 115.067 36.9408 117.586 36.9494C117.452 37.1876 117.285 37.3984 117.118 37.6147C115.037 40.3223 112.223 42.4526 109.048 43.713C108.274 44.0329 107.475 44.2706 106.666 44.4808C105.914 44.6733 105.149 44.819 104.379 44.914C104.616 44.7322 104.869 44.5753 105.101 44.3864C105.854 43.78 106.476 43.0366 107.013 42.2358C107.928 40.8601 108.61 39.3159 109.133 37.7518C109.226 37.4903 109.288 37.2115 109.405 36.9606C109.614 36.9342 109.814 36.9449 110.024 36.9449Z" fill="black" stroke="black" stroke-width="17.7778"/>
<path d="M76 0H128V52H76V0ZM83.444 19.7813C83.5502 19.8057 83.6659 19.8179 83.767 19.8605C83.8188 19.9189 83.8442 20.0032 83.8787 20.0728C84.3825 18.5717 85.0548 17.1321 85.9049 15.7955C86.0395 15.5959 86.1547 15.3598 86.3299 15.1938C86.5305 15.1394 86.7616 15.1724 86.9688 15.1663C89.2031 15.1684 91.4375 15.1673 93.6719 15.1673C93.9649 15.1684 94.2559 15.1562 94.5484 15.179C94.4971 15.4725 94.3986 15.7498 94.3239 16.0377C94.0329 17.1417 93.81 18.2741 93.618 19.3995C93.5942 19.5345 93.584 19.6711 93.5764 19.8077C93.7455 19.8296 93.9034 19.8306 94.073 19.8133C94.1573 19.5401 94.1771 19.2623 94.2249 18.982C94.4275 17.7841 94.7129 16.6065 95.0389 15.4365C95.0643 15.3568 95.0927 15.2775 95.1202 15.1978C95.3964 15.1404 95.6635 15.1714 95.957 15.1668C100.169 15.1653 104.394 15.1704 108.605 15.1648C108.698 15.1673 108.788 15.1826 108.879 15.1983C108.958 15.4065 109.013 15.6198 109.069 15.8346C109.391 17.0219 109.669 18.2376 109.847 19.4553C109.866 19.5777 109.897 19.696 109.928 19.8154C110.097 19.8301 110.257 19.8291 110.425 19.8103C110.418 19.7011 110.411 19.5945 110.395 19.4863C110.209 18.3544 109.981 17.2301 109.697 16.1185C109.618 15.8021 109.509 15.5 109.452 15.179C109.779 15.1541 110.101 15.1704 110.43 15.1673C112.766 15.1658 115.105 15.1704 117.441 15.1648C117.539 15.1739 117.668 15.1541 117.733 15.2435C117.898 15.4375 118.022 15.6691 118.161 15.8823C118.814 16.9208 119.363 18.0202 119.803 19.1643C119.869 19.3319 119.919 19.5168 120.013 19.6711C120.173 19.7427 120.381 19.7275 120.553 19.7265C120.5 19.5071 120.422 19.2964 120.34 19.0866C119.213 16.085 117.322 13.3722 114.909 11.2623C113.057 9.6398 110.895 8.36418 108.574 7.54355C106.205 6.69449 103.659 6.32633 101.146 6.43094C99.6981 6.49746 98.2559 6.72191 96.8548 7.09617C93.9959 7.87617 91.3217 9.30973 89.097 11.2684C86.5615 13.4855 84.612 16.3597 83.506 19.5421C83.4826 19.6209 83.4633 19.7016 83.444 19.7813ZM80.6978 22.0705C80.9161 22.3839 81.1771 22.6728 81.4189 22.9689C81.4762 23.043 81.5428 23.1227 81.5753 23.2116C81.5616 23.3396 81.5047 23.466 81.459 23.5854C81.2736 24.0343 81.1096 24.4903 80.9354 24.9432C80.5967 25.8233 80.2473 26.6993 79.9234 27.5849C79.8868 27.6819 79.8406 27.7733 79.7944 27.8657C79.5532 27.8804 79.315 27.8647 79.0753 27.8977C78.9682 28.1252 78.89 28.3629 78.8006 28.5975C78.6523 28.9971 78.4802 29.3902 78.3542 29.7974C79.7695 29.8111 81.1863 29.7949 82.6016 29.805C82.7488 29.8086 82.8961 29.802 83.0434 29.7929C83.2054 29.4821 83.2998 29.1373 83.4344 28.8133C83.5476 28.5061 83.6893 28.2034 83.7685 27.888C83.5359 27.8713 83.3029 27.8784 83.0698 27.8693C83.1993 27.462 83.376 27.07 83.5248 26.6693C84.0239 25.3591 84.5343 24.053 85.0325 22.7429C85.1203 22.5144 85.2163 22.2909 85.2854 22.0563C83.8477 22.0467 82.4081 22.0573 80.97 22.0512C80.8836 22.0589 80.779 22.0396 80.6978 22.0705ZM84.9548 29.7979C88.0768 29.8091 91.2085 29.7974 94.332 29.8035C94.5286 29.8071 94.7241 29.8081 94.9201 29.7903C95.0414 29.5557 95.1151 29.3064 95.21 29.0606C96.0043 27.009 96.7838 24.9509 97.5764 22.8988C97.6836 22.617 97.8034 22.3519 97.8796 22.0599C97.5937 22.0441 97.3093 22.0543 97.0234 22.0533C93.7902 22.0528 90.5575 22.0533 87.3242 22.0528C87.0723 22.0543 86.8189 22.0446 86.5676 22.0589C86.8139 22.4367 87.1445 22.7591 87.4075 23.1237C87.5004 23.2329 87.4171 23.3497 87.3841 23.467C87.0541 24.2816 86.7484 25.1047 86.4366 25.9259C85.9658 27.1202 85.5261 28.3263 85.0507 29.5186C85.0157 29.6105 84.9852 29.7045 84.9548 29.7979ZM98.4697 22.0716C98.6875 22.3986 98.9653 22.6941 99.2106 23.0014C99.2598 23.0659 99.3147 23.1364 99.3431 23.2131C99.333 23.3254 99.2842 23.4376 99.2451 23.5422C99.0105 24.1282 98.7779 24.7147 98.5626 25.3079C98.2869 26.0548 97.9781 26.7886 97.7085 27.5377C97.4774 28.1536 97.2352 28.765 96.9975 29.3785C96.9432 29.5141 96.9026 29.6532 96.868 29.7949C97.1057 29.8081 97.3439 29.8035 97.582 29.8025C100.375 29.802 103.168 29.8025 105.961 29.802C106.244 29.801 106.526 29.8142 106.808 29.7929C106.855 29.7014 106.901 29.6105 106.937 29.5141C107.352 28.3811 107.805 27.2629 108.225 26.1315C108.646 25.058 109.049 23.9779 109.466 22.9029C109.574 22.6185 109.699 22.3564 109.769 22.0594C109.363 22.0416 108.957 22.0573 108.551 22.0528C105.263 22.0518 101.973 22.0543 98.685 22.0518C98.6175 22.0584 98.5321 22.0421 98.4697 22.0716ZM110.304 22.068C110.533 22.39 110.803 22.686 111.049 22.9948C111.099 23.0608 111.155 23.1329 111.182 23.2121C111.177 23.2893 111.15 23.3685 111.125 23.4416C110.445 25.2032 109.774 26.9669 109.096 28.728C108.968 29.0845 108.809 29.4328 108.705 29.7969C109.431 29.8116 110.16 29.7984 110.887 29.8025C111.234 29.7969 111.585 29.8208 111.93 29.7898C111.993 29.6598 112.051 29.5283 112.099 29.3922C112.71 27.789 113.333 26.1904 113.943 24.5873C114.021 24.3821 114.088 24.1764 114.201 23.9865C114.899 23.9748 115.603 23.9774 116.302 23.9865C116.093 24.5832 115.842 25.1662 115.622 25.7593C115.231 26.8023 114.817 27.8368 114.426 28.8798C114.312 29.187 114.175 29.4846 114.084 29.7974C115.015 29.8121 115.948 29.7944 116.879 29.805C117.024 29.8086 117.169 29.801 117.314 29.7888C117.358 29.6943 117.403 29.6024 117.44 29.5044C117.663 28.8889 117.913 28.2836 118.143 27.6712C118.56 26.5535 119.011 25.45 119.421 24.3293C119.463 24.2089 119.519 24.0967 119.583 23.987C120.285 23.9748 120.991 23.9789 121.692 23.985C121.551 24.4283 121.355 24.8534 121.197 25.2911C120.925 26.0142 120.644 26.7338 120.365 27.4544C120.113 28.1018 119.877 28.7539 119.616 29.3978C119.562 29.5288 119.516 29.6623 119.474 29.7974C120.403 29.8116 121.333 29.7954 122.262 29.8055C122.409 29.8086 122.556 29.8015 122.704 29.7929C122.844 29.5369 122.915 29.2683 123.023 28.9976C123.809 26.9699 124.578 24.9351 125.363 22.9069C125.467 22.6276 125.603 22.3488 125.666 22.0609C125.36 22.0426 125.056 22.0548 124.75 22.0528C120.004 22.0523 115.258 22.0538 110.512 22.0523C110.444 22.0553 110.37 22.0492 110.304 22.068ZM120.685 31.8789C120.505 31.8779 120.33 31.9003 120.153 31.9292C120.03 32.1491 119.977 32.3822 119.888 32.6158C119.379 33.9762 118.722 35.2777 117.922 36.4899C117.87 36.5666 117.815 36.6417 117.759 36.7159C117.737 36.6239 117.717 36.5315 117.697 36.4386C117.407 36.4162 117.119 36.432 116.828 36.4295C114.712 36.4289 112.597 36.4295 110.48 36.4295C110.175 36.4279 109.873 36.4411 109.568 36.4178C109.61 36.1359 109.701 35.8714 109.767 35.5956C110.007 34.6196 110.207 33.6345 110.37 32.6427C110.414 32.3659 110.472 32.0998 110.47 31.818C110.308 31.8063 110.148 31.8068 109.986 31.8155C109.903 32.0714 109.888 32.3279 109.845 32.5914C109.687 33.5761 109.484 34.5531 109.235 35.5195C109.157 35.817 109.099 36.1131 108.989 36.4015C108.665 36.4584 108.321 36.4208 107.992 36.4289C103.946 36.4295 99.9012 36.4289 95.8555 36.4295C95.5599 36.4259 95.2918 36.4533 95.0115 36.4015C94.9059 36.1273 94.8495 35.8434 94.7748 35.5601C94.5286 34.61 94.3275 33.6482 94.1695 32.6798C94.1198 32.3908 94.1101 32.0877 94.0146 31.816C93.8516 31.8063 93.6912 31.8058 93.5277 31.8175C93.5312 31.947 93.5373 32.076 93.5576 32.2039C93.7348 33.3272 93.9517 34.4505 94.2223 35.555C94.2914 35.8455 94.3874 36.1217 94.4316 36.4178C94.1269 36.4411 93.8247 36.4279 93.5195 36.4295C91.4207 36.4295 89.3214 36.4295 87.2227 36.4295C86.9429 36.4305 86.6641 36.4203 86.3848 36.435C86.3685 36.5666 86.3497 36.6981 86.334 36.8296C86.1999 36.6595 86.0786 36.4818 85.9633 36.2984C85.5032 35.5692 85.0787 34.8217 84.7196 34.0371C84.4348 33.4115 84.1575 32.7722 83.9529 32.1151C83.9198 32.015 83.8797 31.9206 83.8401 31.8221C83.6817 31.8129 83.4989 31.784 83.3445 31.8236C83.2846 31.8729 83.3491 31.977 83.3592 32.0394C83.6878 33.0002 84.0544 33.9412 84.5231 34.8436C85.9029 37.5807 87.9498 39.9816 90.4198 41.7955C92.35 43.2169 94.5433 44.2711 96.8548 44.9043C98.6281 45.3746 100.469 45.6163 102.305 45.5838C104.06 45.5584 105.815 45.2908 107.503 44.8063C108.751 44.4351 109.965 43.9527 111.117 43.3438C113.581 42.0469 115.766 40.2198 117.473 38.0199C118.751 36.3817 119.768 34.5373 120.463 32.5787C120.547 32.3482 120.633 32.1196 120.685 31.8789Z" fill="black"/>
<path d="M101.146 6.43092C103.658 6.32631 106.205 6.69448 108.574 7.54354C110.895 8.36417 113.057 9.63979 114.909 11.2623C117.322 13.3722 119.213 16.0849 120.34 19.0866C120.422 19.2964 120.5 19.5071 120.553 19.7265C120.381 19.7275 120.173 19.7427 120.013 19.6711C119.919 19.5167 119.869 19.3319 119.803 19.1643C119.363 18.0202 118.814 16.9208 118.161 15.8823C118.022 15.669 117.898 15.4375 117.732 15.2435C117.667 15.1541 117.538 15.1739 117.441 15.1648C115.105 15.1704 112.766 15.1658 110.43 15.1673C110.101 15.1704 109.779 15.1541 109.452 15.179C109.508 15.4999 109.618 15.8021 109.697 16.1185C109.981 17.2301 110.209 18.3544 110.395 19.4863C110.411 19.5944 110.417 19.7011 110.425 19.8103C110.256 19.829 110.097 19.8301 109.928 19.8153C109.897 19.696 109.865 19.5777 109.847 19.4553C109.669 18.2376 109.391 17.0219 109.069 15.8346C109.013 15.6198 108.957 15.4065 108.879 15.1983C108.788 15.1826 108.698 15.1673 108.605 15.1648C104.394 15.1704 100.169 15.1653 95.957 15.1668C95.6635 15.1714 95.3964 15.1404 95.1201 15.1978C95.0927 15.2775 95.0642 15.3567 95.0389 15.4365C94.7128 16.6065 94.4274 17.7841 94.2248 18.982C94.1771 19.2623 94.1573 19.5401 94.073 19.8133C93.9034 19.8306 93.7455 19.8296 93.5764 19.8077C93.584 19.6711 93.5941 19.5345 93.618 19.3994C93.8099 18.2741 94.0329 17.1417 94.3239 16.0377C94.3985 15.7498 94.497 15.4725 94.5483 15.179C94.2558 15.1562 93.9648 15.1683 93.6718 15.1673C91.4374 15.1673 89.2031 15.1683 86.9687 15.1663C86.7615 15.1724 86.5305 15.1394 86.3299 15.1937C86.1547 15.3598 86.0394 15.5959 85.9048 15.7955C85.0548 17.1321 84.3824 18.5717 83.8787 20.0728C83.8441 20.0032 83.8187 19.9189 83.7669 19.8605C83.6659 19.8179 83.5501 19.8057 83.444 19.7813C83.4633 19.7016 83.4826 19.6208 83.5059 19.5421C84.6119 16.3597 86.5614 13.4855 89.0969 11.2683C91.3217 9.30971 93.9958 7.87616 96.8548 7.09616C98.2558 6.7219 99.698 6.49745 101.146 6.43092ZM95.3029 14.6306C95.3847 14.6356 95.4664 14.6402 95.5482 14.6428C99.6117 14.6428 103.675 14.6428 107.738 14.6428C108.06 14.6407 108.377 14.6549 108.696 14.6306C108.638 14.3812 108.546 14.1451 108.458 13.9054C107.867 12.2718 107.083 10.6229 105.995 9.25842C105.286 8.37788 104.414 7.59229 103.343 7.18706C102.917 7.02963 102.454 6.94991 102 6.93924C101.415 6.95245 100.826 7.08092 100.3 7.33838C99.3126 7.8137 98.5336 8.57034 97.8704 9.42905C96.8436 10.7722 96.0992 12.3581 95.5274 13.942C95.4446 14.1695 95.3583 14.3944 95.3029 14.6306ZM86.7366 14.629C87.0362 14.6534 87.3292 14.6417 87.6289 14.6428C89.7109 14.6433 91.7929 14.6428 93.8749 14.6428C94.1629 14.6402 94.4376 14.661 94.7235 14.623C94.7723 14.5123 94.82 14.4015 94.8565 14.2858C95.1739 13.2778 95.5827 12.3124 96.0489 11.3648C96.7162 10.0537 97.5774 8.73639 98.6987 7.76901C98.9769 7.52018 99.2908 7.32417 99.5828 7.09413C98.3127 7.24901 97.0574 7.55624 95.8448 7.96045C92.5298 9.09084 89.5458 11.1551 87.3176 13.8572C87.1119 14.109 86.8991 14.3442 86.7366 14.629ZM104.454 7.11088C104.641 7.29116 104.877 7.41913 105.079 7.58467C106.031 8.34436 106.792 9.3412 107.409 10.3832C107.828 11.0769 108.175 11.8041 108.495 12.547C108.738 13.1163 108.959 13.6957 109.143 14.2863C109.179 14.4015 109.227 14.5128 109.275 14.6235C109.543 14.6595 109.806 14.6412 110.074 14.6428C112.19 14.6428 114.306 14.6428 116.422 14.6428C116.711 14.6417 116.997 14.6519 117.285 14.6316C117.119 14.3553 116.914 14.1299 116.712 13.878C114.254 10.8915 110.877 8.67901 107.147 7.64764C106.265 7.39983 105.363 7.20889 104.453 7.09768L104.454 7.11088Z" fill="#964DFE"/>
<path d="M102 6.93927C102.455 6.94993 102.917 7.02966 103.343 7.18708C104.414 7.59232 105.286 8.3779 105.995 9.25845C107.083 10.6229 107.867 12.2718 108.458 13.9054C108.546 14.1451 108.638 14.3813 108.697 14.6306C108.377 14.655 108.06 14.6408 107.738 14.6428C103.675 14.6428 99.6118 14.6428 95.5483 14.6428C95.4665 14.6402 95.3847 14.6357 95.303 14.6306C95.3583 14.3945 95.4447 14.1695 95.5274 13.942C96.0992 12.3581 96.8437 10.7722 97.8705 9.42907C98.5337 8.57036 99.3127 7.81372 100.3 7.33841C100.826 7.08095 101.416 6.95247 102 6.93927Z" fill="black"/>
<path d="M99.5828 7.09412C99.2908 7.32416 98.977 7.52017 98.6987 7.769C97.5775 8.73638 96.7162 10.0536 96.049 11.3648C95.5828 12.3124 95.174 13.2777 94.8566 14.2858C94.8201 14.4015 94.7723 14.5122 94.7236 14.6229C94.4377 14.661 94.1629 14.6402 93.875 14.6427C91.793 14.6427 89.711 14.6433 87.6289 14.6427C87.3293 14.6417 87.0363 14.6534 86.7367 14.629C86.8992 14.3442 87.112 14.109 87.3176 13.8572C89.5459 11.1551 92.5298 9.09083 95.8448 7.96044C97.0575 7.55623 98.3128 7.249 99.5828 7.09412Z" fill="black"/>
<path d="M104.453 7.09772C105.363 7.20893 106.265 7.39987 107.147 7.64768C110.877 8.67905 114.255 10.8916 116.712 13.878C116.914 14.1299 117.119 14.3554 117.285 14.6316C116.997 14.6519 116.711 14.6418 116.422 14.6428C114.306 14.6428 112.19 14.6428 110.074 14.6428C109.806 14.6413 109.543 14.6596 109.275 14.6235C109.227 14.5128 109.179 14.4016 109.143 14.2863C108.959 13.6957 108.738 13.1163 108.495 12.5471C108.175 11.8041 107.828 11.0769 107.409 10.3833C106.792 9.34123 106.031 8.3444 105.079 7.58471C104.877 7.41916 104.641 7.29119 104.454 7.11092L104.453 7.09772Z" fill="black"/>
<path d="M80.97 22.0513C82.4081 22.0574 83.8478 22.0467 85.2854 22.0563C85.2163 22.291 85.1203 22.5144 85.0325 22.7429C84.5343 24.0531 84.024 25.3592 83.5248 26.6693C83.376 27.07 83.1993 27.462 83.0698 27.8693C83.3029 27.8784 83.536 27.8713 83.7685 27.8881C83.6893 28.2034 83.5476 28.5061 83.4344 28.8133C83.2998 29.1373 83.2054 29.4821 83.0434 29.7929C82.8961 29.802 82.7489 29.8086 82.6016 29.8051C81.1863 29.7949 79.7695 29.8112 78.3542 29.7974C78.4802 29.3902 78.6523 28.9971 78.8006 28.5975C78.89 28.3629 78.9682 28.1252 79.0753 27.8977C79.315 27.8647 79.5532 27.8804 79.7944 27.8657C79.8406 27.7733 79.8868 27.6819 79.9234 27.5849C80.2474 26.6993 80.5967 25.8233 80.9355 24.9433C81.1096 24.4903 81.2737 24.0343 81.459 23.5854C81.5047 23.466 81.5616 23.3396 81.5753 23.2116C81.5428 23.1228 81.4763 23.043 81.4189 22.9689C81.1772 22.6728 80.9162 22.3839 80.6978 22.0706C80.7791 22.0396 80.8837 22.0589 80.97 22.0513Z" fill="#964DFE"/>
<path d="M86.5675 22.0589C86.8189 22.0446 87.0723 22.0543 87.3242 22.0528C90.5574 22.0533 93.7901 22.0528 97.0234 22.0533C97.3093 22.0543 97.5937 22.0441 97.8796 22.0599C97.8034 22.3519 97.6835 22.6169 97.5764 22.8988C96.7837 24.9508 96.0042 27.009 95.21 29.0606C95.115 29.3064 95.0414 29.5557 94.92 29.7903C94.724 29.8081 94.5285 29.8071 94.332 29.8035C91.2084 29.7974 88.0767 29.8091 84.9547 29.7979C84.9852 29.7045 85.0156 29.6105 85.0507 29.5186C85.526 28.3263 85.9658 27.1202 86.4365 25.9258C86.7483 25.1047 87.054 24.2816 87.3841 23.467C87.4171 23.3497 87.5004 23.2329 87.4074 23.1237C87.1444 22.7591 86.8138 22.4367 86.5675 22.0589ZM88.9497 27.8687C89.6601 27.886 90.3715 27.8687 91.082 27.8748C91.5177 27.8682 91.9544 27.8906 92.3896 27.8662C92.5277 27.6108 92.6049 27.3421 92.7136 27.073C93.0614 26.196 93.3778 25.3083 93.7333 24.4344C93.7937 24.2887 93.8409 24.1419 93.878 23.9891C92.8964 23.9677 91.9123 23.9901 90.9301 23.9789C90.7707 23.9799 90.6046 23.9692 90.4472 23.9967C90.335 24.1653 90.2796 24.377 90.2055 24.5649C89.9181 25.3251 89.6149 26.0792 89.3326 26.8414C89.2081 27.1847 89.0512 27.5183 88.9497 27.8687Z" fill="#964DFE"/>
<path d="M98.685 22.0517C101.973 22.0543 105.263 22.0517 108.551 22.0528C108.957 22.0573 109.363 22.0416 109.769 22.0594C109.699 22.3564 109.574 22.6185 109.466 22.9028C109.049 23.9779 108.646 25.058 108.225 26.1315C107.805 27.2629 107.352 28.3811 106.937 29.514C106.901 29.6105 106.855 29.7014 106.808 29.7928C106.526 29.8142 106.244 29.801 105.961 29.802C103.168 29.8025 100.375 29.802 97.582 29.8025C97.3439 29.8035 97.1057 29.8081 96.868 29.7949C96.9026 29.6532 96.9432 29.514 96.9975 29.3785C97.2352 28.765 97.4774 28.1536 97.7085 27.5376C97.9781 26.7886 98.2869 26.0548 98.5626 25.3078C98.7779 24.7147 99.0105 24.1282 99.2451 23.5422C99.2842 23.4376 99.333 23.3253 99.3431 23.2131C99.3147 23.1364 99.2598 23.0658 99.2106 23.0013C98.9653 22.6941 98.6875 22.3986 98.4697 22.0715C98.5321 22.0421 98.6175 22.0583 98.685 22.0517ZM100.839 27.8692C101.835 27.8855 102.832 27.8667 103.828 27.8774C103.977 27.8804 104.126 27.8748 104.276 27.8687C104.423 27.6285 104.482 27.3756 104.588 27.1151C104.889 26.3468 105.183 25.5755 105.476 24.8036C105.58 24.5294 105.698 24.2638 105.786 23.984C104.761 23.9743 103.735 23.988 102.71 23.9779C102.587 23.9789 102.457 23.9738 102.337 23.9997C102.217 24.1972 102.155 24.4324 102.068 24.6456C101.757 25.4383 101.459 26.2361 101.151 27.0303C101.044 27.3117 100.922 27.5798 100.839 27.8692Z" fill="#964DFE"/>
<path d="M110.512 22.0523C115.258 22.0538 120.004 22.0523 124.75 22.0528C125.056 22.0548 125.36 22.0426 125.666 22.0609C125.603 22.3488 125.466 22.6276 125.363 22.9069C124.578 24.9351 123.809 26.9699 123.023 28.9976C122.915 29.2683 122.844 29.5369 122.703 29.7929C122.556 29.8015 122.409 29.8086 122.262 29.8056C121.333 29.7954 120.403 29.8116 119.474 29.7974C119.516 29.6623 119.562 29.5288 119.616 29.3978C119.876 28.7539 120.113 28.1018 120.365 27.4544C120.644 26.7338 120.925 26.0142 121.197 25.2911C121.355 24.8534 121.551 24.4283 121.692 23.985C120.991 23.9789 120.285 23.9748 119.583 23.987C119.519 24.0967 119.463 24.2089 119.421 24.3293C119.011 25.45 118.56 26.5535 118.143 27.6712C117.913 28.2836 117.663 28.8889 117.44 29.5044C117.403 29.6024 117.358 29.6943 117.314 29.7888C117.169 29.801 117.024 29.8086 116.879 29.805C115.948 29.7944 115.015 29.8122 114.084 29.7974C114.175 29.4846 114.312 29.187 114.426 28.8798C114.817 27.8368 115.23 26.8023 115.622 25.7593C115.842 25.1662 116.093 24.5832 116.302 23.9865C115.603 23.9774 114.899 23.9748 114.201 23.9865C114.088 24.1764 114.021 24.3821 113.943 24.5873C113.333 26.1904 112.71 27.789 112.099 29.3922C112.051 29.5283 111.993 29.6598 111.93 29.7898C111.585 29.8208 111.234 29.7969 110.887 29.8025C110.159 29.7984 109.431 29.8116 108.705 29.7969C108.809 29.4328 108.968 29.0845 109.096 28.728C109.774 26.9669 110.445 25.2032 111.125 23.4416C111.15 23.3685 111.177 23.2893 111.182 23.2121C111.155 23.1329 111.099 23.0608 111.049 22.9948C110.803 22.686 110.533 22.39 110.304 22.068C110.37 22.0492 110.444 22.0553 110.512 22.0523Z" fill="#964DFE"/>
<path d="M90.4472 23.9966C90.6047 23.9692 90.7707 23.9799 90.9302 23.9789C91.9123 23.99 92.8964 23.9677 93.878 23.989C93.841 24.1419 93.7937 24.2886 93.7333 24.4344C93.3778 25.3083 93.0615 26.196 92.7136 27.073C92.6049 27.3421 92.5278 27.6108 92.3896 27.8662C91.9544 27.8906 91.5177 27.8682 91.082 27.8748C90.3716 27.8687 89.6601 27.886 88.9497 27.8687C89.0513 27.5183 89.2082 27.1847 89.3326 26.8414C89.6149 26.0792 89.9181 25.3251 90.2055 24.5649C90.2797 24.377 90.335 24.1652 90.4472 23.9966Z" fill="black"/>
<path d="M102.337 23.9997C102.457 23.9738 102.587 23.9789 102.71 23.9779C103.735 23.9881 104.761 23.9744 105.786 23.984C105.698 24.2638 105.58 24.5294 105.476 24.8036C105.183 25.5755 104.889 26.3469 104.588 27.1152C104.482 27.3757 104.423 27.6286 104.275 27.8688C104.126 27.8749 103.977 27.8804 103.828 27.8774C102.832 27.8667 101.835 27.8855 100.839 27.8693C100.922 27.5798 101.044 27.3117 101.151 27.0304C101.459 26.2361 101.757 25.4384 102.068 24.6457C102.155 24.4324 102.217 24.1973 102.337 23.9997Z" fill="black"/>
<path d="M83.3445 31.8236C83.4989 31.784 83.6817 31.8129 83.8401 31.8221C83.8798 31.9206 83.9199 32.015 83.9529 32.1151C84.1575 32.7722 84.4348 33.4115 84.7197 34.0371C85.0787 34.8217 85.5032 35.5692 85.9633 36.2984C86.0786 36.4818 86.1999 36.6595 86.334 36.8296C86.3498 36.6981 86.3685 36.5666 86.3848 36.435C86.6641 36.4203 86.9429 36.4305 87.2227 36.4295C89.3215 36.4295 91.4208 36.4295 93.5196 36.4295C93.8248 36.4279 94.1269 36.4411 94.4316 36.4178C94.3874 36.1217 94.2914 35.8455 94.2224 35.555C93.9517 34.4505 93.7349 33.3272 93.5576 32.2039C93.5373 32.076 93.5312 31.947 93.5277 31.8175C93.6912 31.8058 93.8517 31.8063 94.0147 31.816C94.1101 32.0877 94.1198 32.3908 94.1696 32.6798C94.3275 33.6482 94.5286 34.61 94.7749 35.5601C94.8495 35.8434 94.9059 36.1273 95.0115 36.4015C95.2918 36.4533 95.5599 36.4259 95.8555 36.4295C99.9012 36.4289 103.946 36.4294 107.992 36.4289C108.321 36.4208 108.665 36.4584 108.989 36.4015C109.099 36.1131 109.157 35.817 109.235 35.5195C109.484 34.5531 109.687 33.5761 109.845 32.5914C109.888 32.3278 109.903 32.0714 109.986 31.8155C110.148 31.8068 110.308 31.8063 110.47 31.818C110.472 32.0998 110.414 32.3659 110.37 32.6427C110.207 33.6344 110.007 34.6196 109.767 35.5956C109.701 35.8714 109.61 36.1359 109.568 36.4178C109.873 36.4411 110.175 36.4279 110.48 36.4295C112.597 36.4295 114.712 36.4289 116.828 36.4295C117.119 36.432 117.407 36.4162 117.698 36.4386C117.717 36.5315 117.737 36.6239 117.759 36.7159C117.815 36.6417 117.87 36.5666 117.922 36.4899C118.722 35.2777 119.379 33.9762 119.888 32.6158C119.977 32.3822 120.03 32.1491 120.153 31.9292C120.33 31.9003 120.505 31.8779 120.685 31.8789C120.633 32.1196 120.547 32.3482 120.463 32.5787C119.768 34.5373 118.751 36.3817 117.473 38.0199C115.766 40.2198 113.581 42.0469 111.117 43.3438C109.965 43.9527 108.751 44.4351 107.503 44.8063C105.815 45.2908 104.06 45.5584 102.305 45.5838C100.469 45.6163 98.6282 45.3746 96.8549 44.9043C94.5433 44.2711 92.3501 43.2169 90.4199 41.7955C87.9499 39.9816 85.9029 37.5807 84.5232 34.8436C84.0544 33.9412 83.6878 33.0002 83.3592 32.0394C83.3491 31.9769 83.2846 31.8728 83.3445 31.8236ZM99.5712 44.885C99.3051 44.6738 99.0161 44.4961 98.7587 44.2721C97.7009 43.3728 96.9026 42.2114 96.2445 40.9982C95.7153 39.9923 95.2659 38.9446 94.9049 37.8666C94.7962 37.5639 94.7241 37.2531 94.5971 36.9591C94.3732 36.9368 94.1498 36.9434 93.9258 36.9454C91.4294 36.9494 88.9173 36.9413 86.4229 36.9489C86.5656 37.2034 86.757 37.4329 86.9327 37.6645C88.8391 40.1278 91.3619 42.121 94.2066 43.3905C95.6681 44.0558 97.2246 44.5138 98.8044 44.7916C99.0588 44.8368 99.3127 44.8759 99.5712 44.885ZM108.803 36.951C108.533 36.9378 108.263 36.9464 107.992 36.9459C103.98 36.9459 99.9688 36.9459 95.9571 36.9459C95.7057 36.9484 95.4523 36.9332 95.2014 36.953C95.2141 37.2227 95.3396 37.4999 95.4249 37.7543C96.0276 39.4865 96.8244 41.2318 97.9639 42.6806C98.682 43.581 99.5691 44.397 100.664 44.8048C101.306 45.0521 101.994 45.0897 102.67 44.9886C103.64 44.8155 104.54 44.2366 105.24 43.5607C106.271 42.5593 107.029 41.3156 107.651 40.0298C108.063 39.1747 108.397 38.2743 108.708 37.3786C108.757 37.2389 108.785 37.0972 108.803 36.951ZM109.405 36.9606C109.288 37.2115 109.226 37.4903 109.133 37.7518C108.61 39.3159 107.928 40.8601 107.013 42.2358C106.476 43.0366 105.854 43.78 105.101 44.3864C104.869 44.5753 104.616 44.7322 104.379 44.914C105.149 44.819 105.914 44.6733 106.666 44.4808C107.475 44.2706 108.275 44.0329 109.048 43.713C112.223 42.4526 115.037 40.3223 117.118 37.6147C117.285 37.3984 117.452 37.1876 117.586 36.9494C115.068 36.9408 112.543 36.95 110.024 36.9449C109.814 36.9449 109.614 36.9342 109.405 36.9606Z" fill="#964DFE"/>
<path d="M86.4229 36.949C88.9172 36.9413 91.4294 36.9495 93.9258 36.9454C94.1497 36.9434 94.3732 36.9368 94.5971 36.9591C94.7241 37.2531 94.7962 37.5639 94.9048 37.8666C95.2659 38.9447 95.7153 39.9923 96.2445 40.9982C96.9026 42.2114 97.7009 43.3728 98.7586 44.2721C99.0161 44.4961 99.305 44.6738 99.5711 44.885C99.3127 44.8759 99.0587 44.8368 98.8043 44.7916C97.2245 44.5138 95.6681 44.0558 94.2066 43.3906C91.3618 42.121 88.839 40.1279 86.9327 37.6645C86.757 37.4329 86.5655 37.2034 86.4229 36.949Z" fill="black"/>
<path d="M95.2014 36.953C95.4523 36.9332 95.7057 36.9484 95.957 36.9459C99.9688 36.9459 103.98 36.9459 107.992 36.9459C108.263 36.9464 108.533 36.9378 108.803 36.951C108.785 37.0972 108.757 37.2389 108.708 37.3786C108.397 38.2743 108.063 39.1747 107.651 40.0299C107.029 41.3156 106.271 42.5593 105.24 43.5607C104.54 44.2366 103.64 44.8155 102.67 44.9886C101.994 45.0897 101.306 45.0521 100.664 44.8048C99.5691 44.397 98.682 43.581 97.9639 42.6806C96.8244 41.2318 96.0276 39.4865 95.4249 37.7543C95.3395 37.4999 95.2141 37.2227 95.2014 36.953Z" fill="black"/>
<path d="M110.024 36.9449C112.543 36.95 115.067 36.9408 117.586 36.9494C117.452 37.1876 117.285 37.3984 117.118 37.6147C115.037 40.3223 112.223 42.4526 109.048 43.713C108.274 44.0329 107.475 44.2706 106.666 44.4808C105.914 44.6733 105.149 44.819 104.379 44.914C104.616 44.7322 104.869 44.5753 105.101 44.3864C105.854 43.78 106.476 43.0366 107.013 42.2358C107.928 40.8601 108.61 39.3159 109.133 37.7518C109.226 37.4903 109.288 37.2115 109.405 36.9606C109.614 36.9342 109.814 36.9449 110.024 36.9449Z" fill="black"/>
</g>
</g>
<defs>
<clipPath id="clip0_175_430">
<rect width="128" height="128" fill="white"/>
</clipPath>
<clipPath id="clip1_175_430">
<rect x="76" width="52" height="52" rx="26" fill="white"/>
</clipPath>
</defs>
</svg>
