<svg xmlns="http://www.w3.org/2000/svg" viewBox="0 0 128 128"><path fill="#F3C733" d="M90.215 54.326c.935-.025 1.87-.01 2.81-.015l33.975.003a7 7 0 0 1-.249.87c-1.748 4.485-3.446 9.002-5.191 13.492-.498 1.368-1.094 2.71-1.527 4.097-.841.055-1.671.025-2.514.032h-5.316c1.75-4.651 3.568-9.285 5.316-13.932-1.703-.02-3.406 0-5.11-.01-.721 1.727-1.32 3.5-2.029 5.231-1.084 2.886-2.23 5.804-3.324 8.699-2.579.025-5.157.007-7.736.012q.19-.689.456-1.343 1.897-4.955 3.799-9.905c.331-.885.746-1.766.952-2.689-1.686.013-3.379-.04-5.065.03-.53 1.532-1.166 3.032-1.728 4.552-1.188 3.12-2.397 6.226-3.573 9.348q-3.896.018-7.798 0c.814-2.137 1.641-4.261 2.447-6.398.818-2.044 1.56-4.114 2.375-6.161.345-.858.639-1.736.997-2.59.082-.256.268-.587.055-.825-.68-.826-1.375-1.642-2.022-2.498m-27.369-.015c8.668.005 17.341-.007 26.009.008-.751 2.047-1.552 4.08-2.337 6.111-1.562 4.122-3.166 8.234-4.725 12.356-.925.037-1.857.012-2.785.02-7.029-.005-14.06.007-21.09-.008q.224-.758.522-1.493c1.756-4.559 3.529-9.22 5.289-13.767.095-.299.162-.543-.065-.796-.641-.809-1.305-1.6-1.94-2.413q.563-.018 1.122-.018m8.139 4.687c-1.216 3.074-2.382 6.184-3.581 9.265.622.078 1.25.068 1.877.058 1.56.007 3.116 0 4.675 0 .597.015 1.193.015 1.785-.055 1.027-2.692 2.046-5.383 3.103-8.064.162-.398.291-.804.413-1.214-2.357-.025-4.714 0-7.071-.013-.398 0-.804-.007-1.202.023m-37.728-4.67c1.318-.029 2.636-.01 3.956-.014 7.708.005 15.414-.013 23.122.007a15 15 0 0 1-.587 1.66 342 342 0 0 0-1.66 4.318c-.881 2.343-1.826 4.664-2.686 7.012q-1.067 2.74-2.119 5.49c-7.969.02-15.938.004-23.905.004.535-1.485 1.194-2.935 1.656-4.445a24 24 0 0 1 1.885-.034h12.756c.554.017 1.101.017 1.65-.085.17-.843.572-1.597.767-2.433-4.765-.007-9.524 0-14.288-.002a10 10 0 0 1-1.758-.075c1.136-2.893 2.238-5.795 3.374-8.696-.698-.92-1.506-1.758-2.163-2.706m8.372 6.854c.632.084 1.263.08 1.897.067 1.6.005 3.198-.003 4.8 0a9 9 0 0 0 1.648-.077q.395-1.097.845-2.177c-2.471-.037-4.948 0-7.42-.02-.298 0-.614-.012-.91.043-.338.694-.561 1.452-.86 2.164M4.864 54.329c1.06-.028 2.121-.01 3.183-.015 7.986.007 15.973-.015 23.96.01-.572 1.525-1.194 3.037-1.716 4.577-.769.124-1.524.07-2.295.077H16.884c-.93.005-1.858-.018-2.788.02q-.413 1.096-.853 2.184c.925.117 1.83.052 2.758.067 4.45.01 8.902-.023 13.35.015-.634 1.527-1.179 3.084-1.785 4.621-.896 2.301-1.763 4.61-2.648 6.915q-.796.018-1.592.015c-7.442-.005-14.884.013-22.326-.014l5.483-14.286c.171-.48.435-.97.502-1.475-.62-.957-1.467-1.773-2.121-2.711M10.558 68.3c2.36.06 4.724 0 7.084.03.433.012.845-.02 1.27-.093.23-.833.558-1.611.854-2.422-2.475-.038-4.954.005-7.428-.018-.286 0-.584-.007-.867.035a20 20 0 0 0-.913 2.468m50.366-51.27c1.773-.02 3.568-.08 5.336.06 3.598.213 7.186.91 10.637 1.932a47.14 47.14 0 0 1 18.545 10.776 47.3 47.3 0 0 1 11.251 16.38c.348.883.733 1.783.967 2.7a9 9 0 0 1-1.268-.036 12 12 0 0 1-.318-.764 46.3 46.3 0 0 0-4.565-9.067c-.224-.33-.433-.746-.754-.987-.472-.072-.967-.025-1.442-.03h-16.41c-.62 0-1.237-.02-1.853.015q.09.46.221.915a85 85 0 0 1 2.056 9.435 5 5 0 0 1 .025.826q-.56.037-1.129-.005c-.191-.535-.233-1.077-.33-1.632a72 72 0 0 0-1.567-7.296c-.214-.758-.37-1.504-.676-2.233-.686-.055-1.36-.02-2.051-.025l-30.676-.003c-.256-.017-.289.237-.36.423a80 80 0 0 0-2.007 8.706c-.125.672-.2 1.339-.37 1.998q-.585.03-1.17-.01c.013-.945.237-1.809.389-2.736.45-2.418.97-4.85 1.636-7.216q.172-.568.3-1.147c-.82-.04-1.64-.008-2.461-.015-5.744.005-11.5-.015-17.241.007-.39.428-.667.913-.98 1.398a50 50 0 0 0-2.506 4.443c-.998 2.01-2.226 5.639-2.226 5.639h-1.492c.137-.59.602-1.565.813-2.127a47.18 47.18 0 0 1 21.949-24.89c6.076-3.258 12.85-5.061 19.727-5.434m-13.83 19.68q.35.029.694.033h29.557c.632-.003 1.258.015 1.89-.015-.15-.786-.485-1.57-.759-2.326a60 60 0 0 0-2.22-5.126c-1.363-2.565-2.924-5.06-4.973-7.14-1.574-1.572-3.441-2.915-5.61-3.52a8.85 8.85 0 0 0-4.938-.007c-1.964.545-3.623 1.654-5.105 3.023-1.815 1.684-3.306 3.78-4.55 5.915-1.66 2.888-2.939 6.002-3.986 9.163m9.365-17.939c-3.944.527-7.875 1.739-11.538 3.281a85 85 0 0 0-3.135 1.53 46.1 46.1 0 0 0-14.777 12.48q-.225.323-.43.656.39.023.78.027h16.277c.716-.005 1.412.025 2.126-.025q.218-.59.405-1.189a49 49 0 0 1 3.747-8.502c1.51-2.636 3.297-5.034 5.624-7.004.53-.436 1.1-.816 1.617-1.261a13 13 0 0 0-.697.007m12.725-.022c.744.597 1.52 1.107 2.22 1.758 2.413 2.202 4.23 4.883 5.735 7.768a45 45 0 0 1 2.553 5.794c.348.873.607 1.776.945 2.654.754.05 1.51.015 2.263.022 5.177.003 10.353-.007 15.53 0q.7.011 1.4-.027a10 10 0 0 0-1.094-1.498A46 46 0 0 0 84.28 23.408a45.7 45.7 0 0 0-11.647-4.177c-1.124-.204-2.312-.505-3.449-.482M18.51 77.962c.34-.095.753-.017 1.104.012a9 9 0 0 1 .298.74 45.3 45.3 0 0 0 5.095 10.429c.656-.03 2.064-.134 2.72-.137h15.53c.588 0 1.177.017 1.761-.017q-.06-.474-.179-.936a90 90 0 0 1-1.827-8.706 7.5 7.5 0 0 1-.107-1.36c.407-.065.77-.075 1.176.002.124.57.199 1.144.276 1.722.51 3.139 1.161 6.223 2.061 9.278.798.037 1.596.015 2.395.02h29.164c.66-.005 1.317.024 1.979-.025.286-.776.455-1.605.669-2.406.534-2.057.917-4.141 1.293-6.233.141-.786.196-1.577.39-2.356a3.2 3.2 0 0 1 1.183 0q0 .627-.106 1.244a87 87 0 0 1-1.512 7.527c-.184.744-.398 1.477-.557 2.226.485.03.97.027 1.457.025 5.81-.007 12.818.062 18.626.052 1.33-1.952 2.176-3.445 3.175-5.587a43 43 0 0 0 1.801-4.397 7 7 0 0 1 .36-.87q.634-.08 1.278-.083c-.447 1.527-1.034 3.022-1.651 4.49a47 47 0 0 1-8.792 13.437c-.97 1.102-2.049 2.065-3.123 3.06a47.7 47.7 0 0 1-10.302 6.989 50 50 0 0 1-6.273 2.572 47.5 47.5 0 0 1-13.153 2.313c-1.495.003-3.007.055-4.5-.074a46.3 46.3 0 0 1-9.71-1.649 46.8 46.8 0 0 1-16.7-8.592A47.1 47.1 0 0 1 18.45 78.355c-.027-.127-.11-.324.06-.393m38.734 31.292c-.577-.458-1.186-.876-1.758-1.343-2.334-1.978-4.085-4.383-5.602-7.022a49.8 49.8 0 0 1-3.966-9.184c-.151-.475-.28-.958-.492-1.415-6.147-.038-12.306.007-18.452-.02-.291.01-.617-.04-.895.04-.23.146-.053.303.044.465 2.1 2.88 4.52 5.512 7.211 7.847a46 46 0 0 0 13.39 8.06c2.69 1.005 5.505 1.858 8.34 2.33.723.135 1.44.262 2.18.242M46.848 90.292c.197.958.542 1.858.876 2.781 1.156 3.162 2.536 6.181 4.373 9.007 1.104 1.649 2.382 3.268 3.877 4.577 1.004.856 2.12 1.686 3.337 2.209 1.556.646 3.19 1.002 4.878.788 2.479-.291 4.692-1.562 6.49-3.248 2.061-1.893 3.56-4.125 4.948-6.532a52.3 52.3 0 0 0 3.717-8.8c.075-.257.115-.516.157-.78-.761-.044-1.517-.014-2.28-.02H48.686c-.614 0-1.224-.014-1.838.018m22.053 19.079c4.277-.478 8.504-1.692 12.457-3.378 1.303-.572 2.569-1.227 3.832-1.878a46.8 46.8 0 0 0 8.623-6.144 48 48 0 0 0 5.197-5.532c.54-.69 1.109-1.383 1.536-2.134-.828-.058-1.666-.02-2.499-.025q-7.89 0-15.781-.008c-.423.003-.853-.02-1.278.025-.324.53-.423 1.197-.642 1.776-.617 1.746-1.226 3.52-2.014 5.194-.472.92-.843 1.885-1.367 2.781-1.592 2.9-3.606 5.865-6.194 7.965-.595.495-1.244.907-1.873 1.355"/></svg>
