<svg xmlns="http://www.w3.org/2000/svg" fill="none" viewBox="0 0 128 128"><g clip-path="url(#a)"><path fill="#2F63F9" d="M64 128c35.346 0 64-28.654 64-64S99.346 0 64 0 0 28.654 0 64s28.654 64 64 64"/><path fill="#E6C040" d="M91.3 25.24c2.133 1.577 4.074 3.318 5.98 5.16l.729.69c4.986 4.824 8.687 11.294 10.791 17.87v.96h-1.28l-.33-.87c-1.72-4.429-3.658-8.346-6.39-12.25-5.517-.463-5.517-.463-11.82-.36l-6.509-.003-5.031.043 1.28 5.12c.592 2.771.815 5.492.96 8.32H78.4l-.327-2.046-.433-2.694-.427-2.666a363 363 0 0 0-1.053-6.034H53.12c-1.283 6.704-1.283 6.704-2.24 13.44H49.6c.081-4.463 1.06-8.755 1.92-13.12q-5.69-.126-11.38-.2l-6.401-.113-5.259.313c-2.946 4.208-5.039 8.275-6.72 13.12h-1.28c1.965-9.973 9.496-19.308 17.785-24.906 16.398-10.39 36.71-11.025 53.035.226"/><path fill="#E4BF42" d="M21.76 80h1.28l.481.985c1.215 2.462 2.466 4.872 3.888 7.221.431.754.431.754.751 1.714l23.36-.32-1.6-8.32V80h1.28c.66 3.302 1.29 6.611 1.92 9.92h23.04q.732-4.359 1.413-8.725L77.76 80h1.6c-.23 2.034-.577 4.03-.96 6.04l-.34 1.797c-.3 1.443-.3 1.443-.62 2.083 3.833.067 7.667.1 11.5.12l6.469.067 5.391-.507c2.344-3.604 2.344-3.604 4.34-7.32l.641-1.317.459-.963h1.28c-1.212 6.062-5.76 11.322-9.92 15.68l-.779.841c-7.412 7.778-18.74 12.593-29.402 12.995-7.803.08-15.242-.724-22.299-4.236l-1.204-.585c-6.283-3.173-11.827-7.543-16.076-13.175l-.585-.775C21.76 83.171 21.76 83.171 21.76 80"/><path fill="#EFC537" d="M113.081 56.4c1.898 1.267 3.325 3.27 3.924 5.475.522 3.832.177 6.832-1.965 10.045-1.978 1.837-4.461 3.182-7.2 3.28l-.876.047c-3.378.112-5.969-.587-8.724-2.607-2.494-2.447-2.934-4.606-3.04-7.98.056-2.808.461-4.646 2.335-6.744 4.243-4.047 10.513-4.16 15.546-1.516"/><path fill="#ECC33A" d="M54.72 55.04c6.08 0 6.08 0 7.693 1.313l1.147 1.767 1.243 1.849 1.117 1.791.957 1.421C68.8 66.053 68.8 66.053 68.8 66.88h.64l-.159-1.149c-.199-2.137-.191-4.244-.18-6.39l.008-2.442.011-1.859h5.76v19.84c-6.08 0-6.08 0-7.424-.926L66.66 72.7l-.896-1.329-.804-1.291a147 147 0 0 0-1.4-1.88c-1.07-1.481-2.064-2.996-3.08-4.52v11.2h-5.76z"/><path fill="#EDC439" d="M35.52 55.04h17.6v5.12H40.96v2.24h11.52v5.12H40.96v2.24h12.16v5.12h-17.6z"/><path fill="#3264F6" d="M29.76 91.2h22.4a347 347 0 0 1 1.524 4.123c1.68 4.572 3.437 8.628 6.796 12.197v.32c-4.986.171-9.903-1.469-14.4-3.52l-1.133-.508c-5.725-2.704-11.275-6.965-15.187-11.972z"/><path fill="#F0C536" d="M13.12 55.04h5.44v7.36h9.28v-7.36h5.44v19.84h-5.44v-7.36h-9.28v7.36h-5.44z"/><path fill="#3264F6" d="m82.051 91.169 6.289.011 6.291.009 4.889.011c-3.89 7.778-14.239 12.668-22.08 15.36-2.854.86-5.67 1.151-8.64 1.28l.84-1.08c3.19-4.28 5.184-9.049 6.787-14.117.936-2.819 1.143-1.446 5.624-1.474"/><path fill="#3164F7" d="m60.48 18.56-.82 1.06c-3.6 4.842-5.486 9.872-7.5 15.58h-22.4c3.73-7.462 13.542-12.335 20.98-15 3.134-.986 6.45-1.64 9.74-1.64m8.32 0c10.743.04 20.912 6.17 28.32 13.48 2.4 2.421 2.4 2.421 2.4 3.16h-22.4c-.96-2.56-.96-2.56-1.395-3.773-1.526-4.21-3.239-7.952-6.023-11.482-.582-.745-.582-.745-.902-1.385"/><path fill="#3164F7" d="M65.6 18.24c4.648 2.107 6.832 7.271 8.588 11.734 1.332 3.669 1.332 3.669 1.332 5.226H53.44c1.674-6.137 3.949-12.73 9.28-16.64 1.033-.516 1.73-.448 2.88-.32"/><path fill="#3264F6" d="M53.44 91.2h22.08c-.794 5.56-3.494 11.984-7.837 15.727-1.477 1.09-2.51 1.475-4.323 1.233-5.848-3.655-8.11-10.627-9.92-16.96"/><path fill="#F0C536" d="M76.8 55.04h5.44v14.72h11.52v5.12H76.8z"/><path fill="#3264F6" d="m105.84 60.08 1.355-.025c1.347.11 2.089.314 3.205 1.065 1.387 1.711 1.152 3.666.96 5.76-.387 1.182-.657 1.685-1.628 2.437-1.246.592-2.257.593-3.632.603l-1.419.03c-1.554-.224-2.158-.679-3.241-1.79-.505-1.01-.413-2-.44-3.12l-.047-1.355c.2-1.54.671-2.132 1.767-3.205 1.009-.505 2.001-.388 3.12-.4"/><g clip-path="url(#b)"><path fill="#000" stroke="#000" stroke-width="17.778" d="M0 0h52v52H0zm8.214 19.59c-.839.019-1.679-.012-2.517.015.416.577.864 1.13 1.283 1.706.094.1.012.221-.016.334-.645 1.764-1.275 3.532-1.91 5.3-.215.58-.41 1.169-.64 1.743-.36.029-.718-.008-1.078.024-.224.698-.49 1.384-.732 2.077-.099.298-.227.583-.314.885 1.589.014 3.18.001 4.769.006.316.006.618-.022.931.023.242.84.58 1.637.94 2.43a19.05 19.05 0 0 0 4.89 6.383 18.7 18.7 0 0 0 5.946 3.413c1.716.594 3.505.947 5.32 1.033.81.008 1.633.03 2.439-.05a18.7 18.7 0 0 0 6.746-1.902 18.8 18.8 0 0 0 6.34-5.14 19 19 0 0 0 3.25-6.091c.358-1.03.739-2.05 1.098-3.08.61-1.658 1.19-3.327 1.802-4.984.48-1.374.985-2.74 1.469-4.112-1.527-.025-3.058.008-4.585-.017a18.9 18.9 0 0 0-3.707-6.255 18.8 18.8 0 0 0-6.42-4.699 18.8 18.8 0 0 0-5.452-1.488c-.366-.032-.732-.073-1.1-.1a38 38 0 0 0-1.832-.008c-1.56.078-3.11.333-4.605.79-4.072 1.211-7.66 3.868-10.06 7.368a18.4 18.4 0 0 0-1.475 2.534 25 25 0 0 0-.78 1.862Z"/><path fill="#000" stroke="#D51A35" stroke-width="17.778" d="M25.134 7.036a38 38 0 0 1 1.833.008c.367.027.733.068 1.099.1 1.878.22 3.723.719 5.451 1.488a18.8 18.8 0 0 1 6.421 4.7 18.9 18.9 0 0 1 3.706 6.254c1.528.025 3.059-.008 4.586.017-.484 1.373-.988 2.738-1.468 4.112-.612 1.657-1.192 3.326-1.803 4.985-.36 1.028-.74 2.05-1.099 3.079a19 19 0 0 1-3.25 6.091 18.8 18.8 0 0 1-6.339 5.14 18.7 18.7 0 0 1-6.747 1.902c-.805.08-1.629.058-2.439.05a19 19 0 0 1-5.32-1.033 18.7 18.7 0 0 1-5.946-3.413 19.05 19.05 0 0 1-4.89-6.382c-.358-.794-.697-1.592-.939-2.43-.313-.046-.615-.018-.931-.024-1.59-.005-3.18.008-4.77-.006.088-.302.216-.587.315-.885.241-.694.508-1.379.732-2.077.36-.032.718.005 1.078-.024.23-.574.425-1.163.64-1.743.635-1.768 1.265-3.536 1.91-5.3.028-.113.11-.233.016-.334-.418-.576-.867-1.129-1.283-1.706.838-.027 1.679.004 2.517-.015.242-.629.489-1.254.78-1.862a18.5 18.5 0 0 1 1.476-2.534c2.4-3.5 5.987-6.157 10.06-7.368a19 19 0 0 1 4.604-.79Zm-5.638 7.958c.255.013.51.008.766.008h11.375c.238.001.476.004.714-.01-.08-.355-.215-.7-.343-1.04a17 17 0 0 0-.798-1.84c-.54-1.111-1.237-2.197-2.112-3.073-.729-.72-1.571-1.274-2.596-1.449-.838-.143-1.682.044-2.423.443-.818.455-1.495 1.11-2.063 1.848-.723.92-1.29 1.993-1.761 3.06-.28.671-.566 1.351-.759 2.053Zm-8.233-.002c.24.015.48.01.721.01h6.043c.305-.001.61.005.915-.006.55-1.686 1.219-3.291 2.198-4.777.505-.757 1.109-1.465 1.812-2.044.208-.18.444-.314.66-.482-.291.008-.583.084-.872.128-1.301.219-2.547.61-3.77 1.099a18.4 18.4 0 0 0-7.29 5.502c-.149.184-.299.364-.417.57Zm21.648.002q.353.013.706.008h6.297c.228.001.454.005.681-.013a3 3 0 0 0-.125-.21 18.5 18.5 0 0 0-5.13-4.618c-2.078-1.254-4.42-2.107-6.827-2.431-.045.007-.192-.041-.158.051.348.23.679.477.975.771 1.099 1.034 1.903 2.398 2.547 3.75.344.793.682 1.6.939 2.426q.046.133.095.266ZM8.78 19.59c1.119.012 2.239 0 3.357.005q.152.003.303.015c-.172.568-.406 1.117-.599 1.679q-.435 1.234-.886 2.46c-.422 1.213-.874 2.414-1.302 3.623-.145.442-.334.872-.462 1.319.35.018.7.003 1.05.009-.357.991-.703 1.987-1.065 2.976a17 17 0 0 0-.648.013c.076.315.192.602.306.906a18.5 18.5 0 0 0 1.817 3.575q.113.173.24.34.012-.203.028-.404c.288-.027.574-.013.862-.015l6.895-.001c-.244-.93-.48-1.855-.637-2.805-.107-.528-.175-1.061-.265-1.591-.322-.027-.642-.011-.965-.015-1.61-.003-3.218.006-4.827-.003.154-.494.358-.97.52-1.462.584-1.611 1.155-3.227 1.746-4.836.329-.954.69-1.896 1.024-2.847.128-.366.277-.727.384-1.099-.419-.612-.917-1.17-1.336-1.782 1.183-.02 2.367.002 3.55-.01.098-.455.149-.919.249-1.375.14-.662.277-1.323.454-1.977.07-.26.153-.514.209-.777-2.603-.006-5.212.002-7.816-.004-.117-.008-.154.088-.215.168-.536.83-1.028 1.669-1.439 2.57-.187.442-.399.883-.532 1.345Zm9.614.049c3.82.01 7.644.001 11.465.004.344.004.69-.012 1.032.013-.08.285-.192.558-.293.835-.332.935-.67 1.869-1.005 2.803-.05.123-.077.24-.198.314-.887.577-1.768 1.136-2.654 1.711-.174.112-.352.202-.502.347.817.027 1.637-.007 2.455.017-.158.541-.377 1.066-.556 1.6-.542 1.46-1.058 2.929-1.598 4.39-.366.015-.732.003-1.098.006-2.38.003-4.76-.005-7.138.004.007.28.07.545.111.82.175 1.112.431 2.193.703 3.284q.043.15.094.3c4.038.008 8.081.001 12.12.004.436-.003.873.005 1.309-.003.178-.54.291-1.103.425-1.655.196-.906.376-1.82.495-2.74-.369-.027-.742-.009-1.112-.014-1.047-.004-2.096.009-3.144-.005.062-.2.137-.394.21-.59.336-.904.656-1.814.98-2.723.406-1.091.78-2.194 1.185-3.286.324-.908.644-1.818.98-2.723.109-.322.243-.634.338-.96-.44-.605-.918-1.182-1.353-1.79.603-.02 1.207.004 1.81-.012a34 34 0 0 0-.446-2.282c-.148-.607-.283-1.205-.48-1.796-4.257-.009-8.518 0-12.775-.004-.141 0-.286-.007-.427.011-.038.084-.064.177-.089.265a33 33 0 0 0-.844 3.855Zm15.568-.062c.156.016.31.026.468.019 1.066-.003 2.133 0 3.199-.002q.298-.008.594.016c.973 1.655 1.968 3.326 2.946 4.982.099.178.197.352.321.512.176-.458.332-.923.51-1.381.348-1.018.731-2.023 1.09-3.037.085-.237.18-.469.241-.714-.21-.186-.229-.42-.33-.666a19.2 19.2 0 0 0-1.998-3.791 13 13 0 0 0-.683-.006h-7.11q-.068 0-.135.005c.038.232.126.456.181.685.292 1.11.552 2.239.706 3.378Zm-14.51 4.59c.745.006 1.49-.003 2.234.003.101-.004.218.007.307-.047.777-.485 1.538-.998 2.318-1.478-.285-.026-.565-.014-.85-.015-1.032-.001-2.065.002-3.098-.002-.119.004-.254-.017-.369.012-.052.074-.073.171-.104.256-.135.427-.31.841-.438 1.27Zm13.726 11.921c2.313.006 4.627.001 6.94.003.298.001.596-.01.895.012q.019.153.04.305a18.7 18.7 0 0 0 2.283-4.657l.405-.04a16 16 0 0 0-1.237-.032c-1.059-.006-2.12.012-3.178-.008-.596-.982-1.18-1.974-1.768-2.96-.511-.836-.999-1.687-1.512-2.52-.075.151-.133.31-.188.47-.374 1.078-.778 2.145-1.151 3.224-.124.362-.264.718-.391 1.079-.095.277-.211.516-.255.805a32 32 0 0 1-.883 4.32Zm-15.36-7.402c.29.023.579.012.87.013h3.25c.303-.002.605.01.909-.012.195-.501.388-1.01.557-1.521-.303-.02-.604-.01-.908-.011-1.219-.001-2.437.002-3.656-.001-.157.002-.334-.015-.486.031-.093.184-.15.388-.222.58-.105.31-.233.607-.315.921Zm5.76 15.602c-.159-.142-.337-.252-.506-.379-.782-.607-1.423-1.375-1.97-2.195-.842-1.289-1.453-2.674-1.96-4.123-.116-.32-.195-.652-.315-.972-.267-.034-.532-.018-.8-.02H11.68c-.234.002-.471-.011-.704.013.096.193.241.366.37.538a18.4 18.4 0 0 0 4.58 4.308 18.1 18.1 0 0 0 6.621 2.683c.344.06.68.13 1.03.147Zm-4.175-7.657c.017.218.093.415.166.62.351 1.038.76 2.063 1.285 3.027.378.744.841 1.446 1.37 2.092.601.719 1.364 1.405 2.238 1.768a3.6 3.6 0 0 0 2.386.184c.704-.18 1.326-.554 1.873-1.025.487-.405.906-.902 1.285-1.406.818-1.127 1.425-2.358 1.926-3.653.192-.529.397-1.057.543-1.6-.28-.023-.558-.012-.838-.013H20.313c-.304 0-.607-.006-.91.006Zm8.787 7.681c.35-.014.683-.096 1.027-.154.776-.132 1.54-.33 2.289-.571.897-.301 1.776-.633 2.612-1.08 2.026-.997 3.845-2.425 5.363-4.093.41-.455.794-.937 1.164-1.426q.125-.166.224-.35c-.286-.024-.567-.011-.853-.014q-3.406.002-6.808 0a2 2 0 0 0-.158.01c-.07.116-.11.257-.152.386a23 23 0 0 1-1.141 2.913c-.62 1.267-1.4 2.536-2.43 3.51a6.3 6.3 0 0 1-1.137.87Z"/><path fill="#000" stroke="#000" stroke-width="17.778" d="M26.502 7.59c1.024.175 1.867.73 2.596 1.449.875.876 1.573 1.962 2.112 3.073.307.595.564 1.213.798 1.84.128.34.263.685.343 1.04-.238.014-.476.011-.714.01H20.262c-.256 0-.51.005-.766-.008.192-.702.48-1.382.759-2.052.47-1.068 1.038-2.141 1.761-3.061.568-.738 1.245-1.393 2.063-1.848.74-.4 1.585-.586 2.423-.443Z"/><path fill="#000" stroke="#000" stroke-width="17.778" d="M23.612 7.693c-.216.168-.452.303-.66.482-.703.579-1.308 1.287-1.812 2.044-.98 1.486-1.648 3.091-2.199 4.777-.304.01-.609.005-.914.005h-6.043c-.24.002-.48.006-.721-.01.118-.205.268-.385.417-.57a18.4 18.4 0 0 1 7.29-5.501c1.223-.488 2.469-.88 3.77-1.1.29-.043.58-.119.872-.127Zm4.901.037c2.406.324 4.75 1.177 6.826 2.43a18.5 18.5 0 0 1 5.131 4.62c.046.067.085.138.125.21-.227.017-.453.013-.681.012h-6.297q-.352.005-.706-.008-.049-.133-.095-.266c-.258-.827-.595-1.633-.94-2.426-.643-1.352-1.447-2.716-2.546-3.75a6.2 6.2 0 0 0-.975-.77c-.034-.093.113-.045.158-.052Zm-17.547 7.777c2.604.006 5.213-.002 7.816.004-.056.263-.14.518-.209.777-.177.654-.314 1.315-.454 1.977-.1.456-.151.92-.25 1.375-1.182.012-2.366-.01-3.549.01.42.613.917 1.17 1.336 1.782-.107.372-.256.733-.384 1.099-.334.951-.695 1.893-1.024 2.847-.59 1.609-1.162 3.225-1.747 4.836-.16.491-.365.968-.518 1.462 1.608.009 3.217 0 4.826.003.323.004.643-.012.965.015.09.53.158 1.063.265 1.59.156.951.393 1.875.637 2.806q-3.448.002-6.895 0c-.288.003-.574-.01-.862.015q-.017.203-.029.404a6 6 0 0 1-.239-.34 18.5 18.5 0 0 1-1.817-3.574c-.114-.304-.23-.591-.306-.906q.324-.013.648-.013c.362-.99.708-1.985 1.065-2.976-.35-.006-.7.009-1.05-.01.128-.447.317-.876.462-1.318.428-1.21.88-2.41 1.302-3.622q.45-1.228.886-2.46c.193-.563.427-1.112.6-1.68a6 6 0 0 0-.304-.015c-1.118-.004-2.238.007-3.357-.005.133-.462.346-.903.532-1.345.41-.901.903-1.739 1.439-2.57.061-.08.098-.176.215-.168Z"/><path fill="#000" stroke="#000" stroke-width="17.778" d="M19.327 15.52c.14-.02.286-.011.427-.012 4.258.005 8.518-.005 12.775.004.197.591.332 1.189.48 1.796.171.755.326 1.518.445 2.282-.602.016-1.206-.008-1.809.012.435.608.913 1.185 1.353 1.79-.095.326-.23.638-.338.96-.336.905-.655 1.815-.98 2.723-.406 1.092-.78 2.195-1.185 3.286-.324.909-.644 1.82-.98 2.724-.073.195-.148.39-.21.589 1.048.014 2.097.001 3.144.005.37.005.743-.013 1.112.014-.119.92-.3 1.834-.495 2.74-.134.552-.247 1.115-.425 1.655-.436.008-.873 0-1.309.003-4.039-.003-8.082.004-12.12-.004q-.05-.15-.094-.3c-.271-1.09-.528-2.172-.703-3.285-.041-.274-.104-.54-.111-.819 2.378-.01 4.759 0 7.138-.004.366-.003.732.009 1.098-.007.54-1.46 1.056-2.929 1.598-4.389.179-.535.398-1.059.556-1.6-.817-.024-1.638.01-2.455-.017.15-.145.328-.235.502-.347.886-.575 1.767-1.134 2.654-1.711.121-.075.148-.19.198-.314.335-.934.673-1.868 1.005-2.803.101-.278.213-.55.293-.835-.342-.025-.688-.009-1.031-.013-3.822-.003-7.645.006-11.466-.004.204-1.299.484-2.59.844-3.855.025-.088.05-.181.089-.265Zm13.748-.006a2 2 0 0 1 .134-.006l7.111.001q.342-.006.683.006a19.2 19.2 0 0 1 1.998 3.791c.101.246.12.48.33.666-.062.245-.156.477-.241.714-.359 1.014-.742 2.02-1.09 3.037-.178.458-.334.923-.51 1.381a4 4 0 0 1-.321-.512c-.978-1.656-1.973-3.327-2.946-4.982a6 6 0 0 0-.594-.015c-1.066.002-2.133-.002-3.199.001a3 3 0 0 1-.468-.019c-.154-1.14-.414-2.267-.706-3.378-.055-.23-.142-.453-.18-.685Z"/><path fill="#000" stroke="#000" stroke-width="17.778" d="M19.994 22.64c.115-.03.25-.008.37-.012 1.032.004 2.064 0 3.097.002.285.001.565-.011.85.015-.78.48-1.541.993-2.318 1.478-.09.054-.206.043-.307.047-.745-.006-1.49.003-2.234-.004.129-.429.303-.843.438-1.27.03-.085.052-.182.104-.256Zm16.052 3.55c.513.834 1.001 1.685 1.512 2.52.588.987 1.172 1.979 1.768 2.96 1.058.021 2.12.003 3.178.01a16 16 0 0 1 1.237.03l-.405.041a18.7 18.7 0 0 1-2.282 4.657l-.041-.305c-.3-.023-.597-.01-.896-.012-2.312-.002-4.626.003-6.939-.003a32 32 0 0 0 .883-4.319c.044-.289.16-.528.255-.805.126-.361.267-.717.391-1.079.373-1.079.777-2.146 1.15-3.225.056-.16.113-.318.19-.47Zm-17.692.995c.152-.046.329-.029.486-.031 1.219.003 2.437 0 3.656 0 .304.003.605-.008.908.012-.169.511-.362 1.02-.558 1.521-.303.022-.605.01-.909.012h-3.25c-.29-.001-.58.01-.87-.013.082-.314.21-.612.315-.92.073-.193.128-.397.222-.58Zm-7.378 9.427c.232-.024.47-.011.704-.013h6.347c.268.002.533-.014.8.02.12.32.2.651.314.972.508 1.45 1.12 2.834 1.962 4.123.546.82 1.187 1.588 1.968 2.195.17.127.348.237.506.38-.35-.019-.686-.088-1.03-.148a18.1 18.1 0 0 1-6.622-2.683 18.4 18.4 0 0 1-4.58-4.308c-.128-.172-.273-.345-.369-.538Z"/><path fill="#000" stroke="#000" stroke-width="17.778" d="M19.403 36.631c.303-.012.606-.005.91-.007l11.324.001c.28 0 .558-.01.838.012-.145.544-.351 1.072-.543 1.6-.501 1.296-1.108 2.527-1.926 3.654-.379.504-.798 1-1.285 1.406-.547.471-1.169.844-1.873 1.025a3.6 3.6 0 0 1-2.386-.184c-.873-.363-1.637-1.05-2.238-1.768a11.6 11.6 0 0 1-1.37-2.092c-.526-.964-.934-1.989-1.285-3.028-.073-.203-.15-.4-.166-.619Z"/><path fill="#000" stroke="#000" stroke-width="17.778" d="M33.05 36.635q.078-.01.158-.011 3.403.002 6.808 0c.286.002.567-.01.853.014q-.1.184-.224.35c-.37.49-.754.971-1.164 1.426-1.518 1.668-3.337 3.096-5.363 4.092-.836.448-1.715.78-2.612 1.08-.749.242-1.514.44-2.289.572-.344.058-.677.14-1.027.154a6.3 6.3 0 0 0 1.136-.869c1.032-.974 1.811-2.243 2.43-3.51.441-.95.833-1.912 1.142-2.913.042-.129.082-.27.151-.385Z"/><path fill="#000" d="M0 0h52v52H0zm8.214 19.59c-.839.019-1.679-.012-2.517.015.416.577.864 1.13 1.283 1.706.094.1.012.221-.016.334-.645 1.764-1.275 3.532-1.91 5.3-.215.58-.41 1.169-.64 1.743-.36.029-.718-.008-1.078.024-.224.698-.49 1.384-.732 2.077-.099.298-.227.583-.314.885 1.589.014 3.18.001 4.769.006.316.006.618-.022.931.023.242.84.58 1.637.94 2.43a19.05 19.05 0 0 0 4.89 6.383 18.7 18.7 0 0 0 5.946 3.413c1.716.594 3.505.947 5.32 1.033.81.008 1.633.03 2.439-.05a18.7 18.7 0 0 0 6.746-1.902 18.8 18.8 0 0 0 6.34-5.14 19 19 0 0 0 3.25-6.091c.358-1.03.739-2.05 1.098-3.08.61-1.658 1.19-3.327 1.802-4.984.48-1.374.985-2.74 1.469-4.112-1.527-.025-3.058.008-4.585-.017a18.9 18.9 0 0 0-3.707-6.255 18.8 18.8 0 0 0-6.42-4.699 18.8 18.8 0 0 0-5.452-1.488c-.366-.032-.732-.073-1.1-.1a38 38 0 0 0-1.832-.008c-1.56.078-3.11.333-4.605.79-4.072 1.211-7.66 3.868-10.06 7.368a18.4 18.4 0 0 0-1.475 2.534 25 25 0 0 0-.78 1.862"/><path fill="#D51A35" d="M25.134 7.036a38 38 0 0 1 1.833.008c.367.027.733.068 1.099.1 1.878.22 3.723.719 5.451 1.488a18.8 18.8 0 0 1 6.421 4.7 18.9 18.9 0 0 1 3.706 6.254c1.528.025 3.059-.008 4.586.017-.484 1.373-.988 2.738-1.468 4.112-.612 1.657-1.192 3.326-1.803 4.985-.36 1.028-.74 2.05-1.099 3.079a19 19 0 0 1-3.25 6.091 18.8 18.8 0 0 1-6.339 5.14 18.7 18.7 0 0 1-6.747 1.902c-.805.08-1.629.058-2.439.05a19 19 0 0 1-5.32-1.033 18.7 18.7 0 0 1-5.946-3.413 19.05 19.05 0 0 1-4.89-6.382c-.358-.794-.697-1.592-.939-2.43-.313-.046-.615-.018-.931-.024-1.59-.005-3.18.008-4.77-.006.088-.302.216-.587.315-.885.241-.694.508-1.379.732-2.077.36-.032.718.005 1.078-.024.23-.574.425-1.163.64-1.743.635-1.768 1.265-3.536 1.91-5.3.028-.113.11-.233.016-.334-.418-.576-.867-1.129-1.283-1.706.838-.027 1.679.004 2.517-.015.242-.629.489-1.254.78-1.862a18.5 18.5 0 0 1 1.476-2.534c2.4-3.5 5.987-6.157 10.06-7.368a19 19 0 0 1 4.604-.79m-5.638 7.958c.255.013.51.008.766.008h11.375c.238.001.476.004.714-.01-.08-.355-.215-.7-.343-1.04a17 17 0 0 0-.798-1.84c-.54-1.111-1.237-2.197-2.112-3.073-.729-.72-1.571-1.274-2.596-1.449-.838-.143-1.682.044-2.423.443-.818.455-1.495 1.11-2.063 1.848-.723.92-1.29 1.993-1.761 3.06-.28.671-.566 1.351-.759 2.053m-8.233-.002c.24.015.48.01.721.01h6.043c.305-.001.61.005.915-.006.55-1.686 1.219-3.291 2.198-4.777.505-.757 1.109-1.465 1.812-2.044.208-.18.444-.314.66-.482-.291.008-.583.084-.872.128-1.301.219-2.547.61-3.77 1.099a18.4 18.4 0 0 0-7.29 5.502c-.149.184-.299.364-.417.57m21.648.002q.353.013.706.008h6.297c.228.001.454.005.681-.013a3 3 0 0 0-.125-.21 18.5 18.5 0 0 0-5.13-4.618c-2.078-1.254-4.42-2.107-6.827-2.431-.045.007-.192-.041-.158.051.348.23.679.477.975.771 1.099 1.034 1.903 2.398 2.547 3.75.344.793.682 1.6.939 2.426q.046.133.095.266M8.78 19.59c1.119.012 2.239 0 3.357.005q.152.003.303.015c-.172.568-.406 1.117-.599 1.679q-.435 1.234-.886 2.46c-.422 1.213-.874 2.414-1.302 3.623-.145.442-.334.872-.462 1.319.35.018.7.003 1.05.009-.357.991-.703 1.987-1.065 2.976a17 17 0 0 0-.648.013c.076.315.192.602.306.906a18.5 18.5 0 0 0 1.817 3.575q.113.173.24.34.012-.203.028-.404c.288-.027.574-.013.862-.015l6.895-.001c-.244-.93-.48-1.855-.637-2.805-.107-.528-.175-1.061-.265-1.591-.322-.027-.642-.011-.965-.015-1.61-.003-3.218.006-4.827-.003.154-.494.358-.97.52-1.462.584-1.611 1.155-3.227 1.746-4.836.329-.954.69-1.896 1.024-2.847.128-.366.277-.727.384-1.099-.419-.612-.917-1.17-1.336-1.782 1.183-.02 2.367.002 3.55-.01.098-.455.149-.919.249-1.375.14-.662.277-1.323.454-1.977.07-.26.153-.514.209-.777-2.603-.006-5.212.002-7.816-.004-.117-.008-.154.088-.215.168-.536.83-1.028 1.669-1.439 2.57-.187.442-.399.883-.532 1.345m9.614.049c3.82.01 7.644.001 11.465.004.344.004.69-.012 1.032.013-.08.285-.192.558-.293.835-.332.935-.67 1.869-1.005 2.803-.05.123-.077.24-.198.314-.887.577-1.768 1.136-2.654 1.711-.174.112-.352.202-.502.347.817.027 1.637-.007 2.455.017-.158.541-.377 1.066-.556 1.6-.542 1.46-1.058 2.929-1.598 4.39-.366.015-.732.003-1.098.006-2.38.003-4.76-.005-7.138.004.007.28.07.545.111.82.175 1.112.431 2.193.703 3.284q.043.15.094.3c4.038.008 8.081.001 12.12.004.436-.003.873.005 1.309-.003.178-.54.291-1.103.425-1.655.196-.906.376-1.82.495-2.74-.369-.027-.742-.009-1.112-.014-1.047-.004-2.096.009-3.144-.005.062-.2.137-.394.21-.59.336-.904.656-1.814.98-2.723.406-1.091.78-2.194 1.185-3.286.324-.908.644-1.818.98-2.723.109-.322.243-.634.338-.96-.44-.605-.918-1.182-1.353-1.79.603-.02 1.207.004 1.81-.012a34 34 0 0 0-.446-2.282c-.148-.607-.283-1.205-.48-1.796-4.257-.009-8.518 0-12.775-.004-.141 0-.286-.007-.427.011-.038.084-.064.177-.089.265a33 33 0 0 0-.844 3.855m15.568-.062c.156.016.31.026.468.019 1.066-.003 2.133 0 3.199-.002q.298-.008.594.016c.973 1.655 1.968 3.326 2.946 4.982.099.178.197.352.321.512.176-.458.332-.923.51-1.381.348-1.018.731-2.023 1.09-3.037.085-.237.18-.469.241-.714-.21-.186-.229-.42-.33-.666a19.2 19.2 0 0 0-1.998-3.791 13 13 0 0 0-.683-.006h-7.11q-.068 0-.135.005c.038.232.126.456.181.685.292 1.11.552 2.239.706 3.378m-14.51 4.59c.745.006 1.49-.003 2.234.003.101-.004.218.007.307-.047.777-.485 1.538-.998 2.318-1.478-.285-.026-.565-.014-.85-.015-1.032-.001-2.065.002-3.098-.002-.119.004-.254-.017-.369.012-.052.074-.073.171-.104.256-.135.427-.31.841-.438 1.27m13.726 11.921c2.313.006 4.627.001 6.94.003.298.001.596-.01.895.012q.019.153.04.305a18.7 18.7 0 0 0 2.283-4.657l.405-.04a16 16 0 0 0-1.237-.032c-1.059-.006-2.12.012-3.178-.008-.596-.982-1.18-1.974-1.768-2.96-.511-.836-.999-1.687-1.512-2.52-.075.151-.133.31-.188.47-.374 1.078-.778 2.145-1.151 3.224-.124.362-.264.718-.391 1.079-.095.277-.211.516-.255.805a32 32 0 0 1-.883 4.32m-15.36-7.402c.29.023.579.012.87.013h3.25c.303-.002.605.01.909-.012.195-.501.388-1.01.557-1.521-.303-.02-.604-.01-.908-.011-1.219-.001-2.437.002-3.656-.001-.157.002-.334-.015-.486.031-.093.184-.15.388-.222.58-.105.31-.233.607-.315.921m5.76 15.602c-.159-.142-.337-.252-.506-.379-.782-.607-1.423-1.375-1.97-2.195-.842-1.289-1.453-2.674-1.96-4.123-.116-.32-.195-.652-.315-.972-.267-.034-.532-.018-.8-.02H11.68c-.234.002-.471-.011-.704.013.096.193.241.366.37.538a18.4 18.4 0 0 0 4.58 4.308 18.1 18.1 0 0 0 6.621 2.683c.344.06.68.13 1.03.147m-4.175-7.657c.017.218.093.415.166.62.351 1.038.76 2.063 1.285 3.027.378.744.841 1.446 1.37 2.092.601.719 1.364 1.405 2.238 1.768a3.6 3.6 0 0 0 2.386.184c.704-.18 1.326-.554 1.873-1.025.487-.405.906-.902 1.285-1.406.818-1.127 1.425-2.358 1.926-3.653.192-.529.397-1.057.543-1.6-.28-.023-.558-.012-.838-.013H20.313c-.304 0-.607-.006-.91.006m8.787 7.681c.35-.014.683-.096 1.027-.154.776-.132 1.54-.33 2.289-.571.897-.301 1.776-.633 2.612-1.08 2.026-.997 3.845-2.425 5.363-4.093.41-.455.794-.937 1.164-1.426q.125-.166.224-.35c-.286-.024-.567-.011-.853-.014q-3.406.002-6.808 0a2 2 0 0 0-.158.01c-.07.116-.11.257-.152.386a23 23 0 0 1-1.141 2.913c-.62 1.267-1.4 2.536-2.43 3.51a6.3 6.3 0 0 1-1.137.87"/><path fill="#000" d="M26.502 7.59c1.024.175 1.867.73 2.596 1.449.875.876 1.573 1.962 2.112 3.073.307.595.564 1.213.798 1.84.128.34.263.685.343 1.04-.238.014-.476.011-.714.01H20.262c-.256 0-.51.005-.766-.008.192-.702.48-1.382.759-2.052.47-1.068 1.038-2.141 1.761-3.061.568-.738 1.245-1.393 2.063-1.848.74-.4 1.585-.586 2.423-.443"/><path fill="#000" d="M23.612 7.693c-.216.168-.452.303-.66.482-.703.579-1.308 1.287-1.812 2.044-.98 1.486-1.648 3.091-2.199 4.777-.304.01-.609.005-.914.005h-6.043c-.24.002-.48.006-.721-.01.118-.205.268-.385.417-.57a18.4 18.4 0 0 1 7.29-5.501c1.223-.488 2.469-.88 3.77-1.1.29-.043.58-.119.872-.127m4.901.037c2.406.324 4.75 1.177 6.826 2.43a18.5 18.5 0 0 1 5.131 4.62q.067.101.125.21c-.227.017-.453.013-.681.012h-6.297q-.352.005-.706-.008-.049-.133-.095-.266c-.258-.827-.595-1.633-.94-2.426-.643-1.352-1.447-2.716-2.546-3.75a6.2 6.2 0 0 0-.975-.77c-.034-.093.113-.045.158-.052m-17.547 7.777c2.604.006 5.213-.002 7.816.004-.056.263-.14.518-.209.777-.177.654-.314 1.315-.454 1.977-.1.456-.151.92-.25 1.375-1.182.012-2.366-.01-3.549.01.42.613.917 1.17 1.336 1.782-.107.372-.256.733-.384 1.099-.334.951-.695 1.893-1.024 2.847-.59 1.609-1.162 3.225-1.747 4.836-.16.491-.365.968-.518 1.462 1.608.009 3.217 0 4.826.003.323.004.643-.012.965.015.09.53.158 1.063.265 1.59.156.951.393 1.875.637 2.806q-3.448.002-6.895 0c-.288.003-.574-.01-.862.015q-.017.203-.029.404a6 6 0 0 1-.239-.34 18.5 18.5 0 0 1-1.817-3.574c-.114-.304-.23-.591-.306-.906q.324-.013.648-.013c.362-.99.708-1.985 1.065-2.976-.35-.006-.7.009-1.05-.01.128-.447.317-.876.462-1.318.428-1.21.88-2.41 1.302-3.622q.45-1.228.886-2.46c.193-.563.427-1.112.6-1.68a6 6 0 0 0-.304-.015c-1.118-.004-2.238.007-3.357-.005.133-.462.346-.903.532-1.345.41-.901.903-1.739 1.439-2.57.061-.08.098-.176.215-.168"/><path fill="#000" d="M19.327 15.52c.14-.02.286-.011.427-.012 4.258.005 8.518-.005 12.775.004.197.591.332 1.189.48 1.796.171.755.326 1.518.445 2.282-.602.016-1.206-.008-1.809.012.435.608.913 1.185 1.353 1.79-.095.326-.23.638-.338.96-.336.905-.655 1.815-.98 2.723-.406 1.092-.78 2.195-1.185 3.286-.324.909-.644 1.82-.98 2.724-.073.195-.148.39-.21.589 1.048.014 2.097.001 3.144.005.37.005.743-.013 1.112.014-.119.92-.3 1.834-.495 2.74-.134.552-.247 1.115-.425 1.655-.436.008-.873 0-1.309.003-4.039-.003-8.082.004-12.12-.004q-.05-.15-.094-.3c-.271-1.09-.528-2.172-.703-3.285-.041-.274-.104-.54-.111-.819 2.378-.01 4.759 0 7.138-.004.366-.003.732.009 1.098-.007.54-1.46 1.056-2.929 1.598-4.389.179-.535.398-1.059.556-1.6-.817-.024-1.638.01-2.455-.017.15-.145.328-.235.502-.347.886-.575 1.767-1.134 2.654-1.711.121-.075.148-.19.198-.314.335-.934.673-1.868 1.005-2.803.101-.278.213-.55.293-.835-.342-.025-.688-.009-1.031-.013-3.822-.003-7.645.006-11.466-.004.204-1.299.484-2.59.844-3.855.025-.088.05-.181.089-.265m13.748-.005a2 2 0 0 1 .134-.006l7.111.001q.342-.006.683.006a19.2 19.2 0 0 1 1.998 3.791c.101.246.12.48.33.666-.062.245-.156.477-.241.714-.359 1.014-.742 2.02-1.09 3.037-.178.458-.334.923-.51 1.381a4 4 0 0 1-.321-.512c-.978-1.656-1.973-3.327-2.946-4.982a6 6 0 0 0-.594-.015c-1.066.002-2.133-.002-3.199.001a3 3 0 0 1-.468-.019c-.154-1.14-.414-2.267-.706-3.378-.055-.23-.142-.453-.18-.685"/><path fill="#000" d="M19.994 22.64c.115-.03.25-.008.37-.012 1.032.004 2.064 0 3.097.002.285.001.565-.011.85.015-.78.48-1.541.993-2.318 1.478-.09.054-.206.043-.307.047-.745-.006-1.49.003-2.234-.004.129-.429.303-.843.438-1.27.03-.085.052-.182.104-.256m16.052 3.55c.513.834 1.001 1.685 1.512 2.52.588.987 1.172 1.979 1.768 2.96 1.058.021 2.12.003 3.178.01a16 16 0 0 1 1.237.03l-.405.041a18.7 18.7 0 0 1-2.282 4.657l-.041-.305c-.3-.023-.597-.01-.896-.012-2.312-.002-4.626.003-6.939-.003a32 32 0 0 0 .883-4.319c.044-.289.16-.528.255-.805.126-.361.267-.717.391-1.079.373-1.079.777-2.146 1.15-3.225.056-.16.113-.318.19-.47m-17.693.995c.152-.046.329-.029.486-.031 1.219.003 2.437 0 3.656 0 .304.003.605-.008.908.012-.169.511-.362 1.02-.558 1.521-.303.022-.605.01-.909.012h-3.25c-.29-.001-.58.01-.87-.013.082-.314.21-.612.315-.92.073-.193.128-.397.222-.58m-7.378 9.426c.232-.024.47-.011.704-.013h6.347c.268.002.533-.014.8.02.12.32.2.651.314.972.508 1.45 1.12 2.834 1.962 4.123.546.82 1.187 1.588 1.968 2.195.17.127.348.237.506.38-.35-.019-.686-.088-1.03-.148a18.1 18.1 0 0 1-6.622-2.683 18.4 18.4 0 0 1-4.58-4.308c-.128-.172-.273-.345-.369-.538"/><path fill="#000" d="M19.403 36.631c.303-.012.606-.005.91-.007l11.324.001c.28 0 .558-.01.838.012-.145.544-.351 1.072-.543 1.6-.501 1.296-1.108 2.527-1.926 3.654-.379.504-.798 1-1.285 1.406-.547.471-1.169.844-1.873 1.025a3.6 3.6 0 0 1-2.386-.184c-.873-.363-1.637-1.05-2.238-1.768a11.6 11.6 0 0 1-1.37-2.092c-.526-.964-.934-1.989-1.285-3.028-.073-.203-.15-.4-.166-.619"/><path fill="#000" d="M33.05 36.635q.078-.01.158-.011 3.403.002 6.808 0c.286.002.567-.01.853.014q-.1.184-.224.35c-.37.49-.754.971-1.164 1.426-1.518 1.668-3.337 3.096-5.363 4.092-.836.448-1.715.78-2.612 1.08-.749.242-1.514.44-2.289.572-.344.058-.677.14-1.027.154a6.3 6.3 0 0 0 1.136-.869c1.032-.974 1.811-2.243 2.43-3.51.441-.95.833-1.912 1.142-2.913.042-.129.082-.27.151-.385"/></g></g><defs><clipPath id="a"><path fill="#fff" d="M0 0h128v128H0z"/></clipPath><clipPath id="b"><rect width="52" height="52" fill="#fff" rx="26"/></clipPath></defs></svg>
