<svg xmlns="http://www.w3.org/2000/svg" fill="none" viewBox="0 0 128 128"><g clip-path="url(#a)"><path fill="#2F63F9" d="M64 128c35.346 0 64-28.654 64-64S99.346 0 64 0 0 28.654 0 64s28.654 64 64 64"/><path fill="#E6C040" d="M91.3 25.24c2.133 1.577 4.074 3.318 5.98 5.16l.729.69c4.986 4.824 8.687 11.294 10.791 17.87v.96h-1.28l-.33-.87c-1.72-4.429-3.658-8.346-6.39-12.25-5.517-.463-5.517-.463-11.82-.36l-6.509-.003-5.031.043 1.28 5.12c.592 2.771.815 5.492.96 8.32H78.4l-.327-2.046-.433-2.694-.427-2.666a363 363 0 0 0-1.053-6.034H53.12c-1.283 6.704-1.283 6.704-2.24 13.44H49.6c.081-4.463 1.06-8.755 1.92-13.12q-5.69-.126-11.38-.2l-6.401-.113-5.259.313c-2.946 4.208-5.039 8.275-6.72 13.12h-1.28c1.965-9.973 9.496-19.308 17.785-24.906 16.398-10.39 36.71-11.025 53.035.226"/><path fill="#E4BF42" d="M21.76 80h1.28l.481.985c1.215 2.462 2.466 4.872 3.888 7.221.431.754.431.754.751 1.714l23.36-.32-1.6-8.32V80h1.28c.66 3.302 1.29 6.611 1.92 9.92h23.04q.732-4.359 1.413-8.725L77.76 80h1.6c-.23 2.034-.577 4.03-.96 6.04l-.34 1.797c-.3 1.443-.3 1.443-.62 2.083 3.833.067 7.667.1 11.5.12l6.469.067 5.391-.507c2.344-3.604 2.344-3.604 4.34-7.32l.641-1.317.459-.963h1.28c-1.212 6.062-5.76 11.322-9.92 15.68l-.779.841c-7.412 7.778-18.74 12.593-29.402 12.995-7.803.08-15.242-.724-22.299-4.236l-1.204-.585c-6.283-3.173-11.827-7.543-16.076-13.175l-.585-.775C21.76 83.171 21.76 83.171 21.76 80"/><path fill="#EFC537" d="M113.081 56.4c1.898 1.267 3.325 3.27 3.924 5.475.522 3.832.177 6.832-1.965 10.045-1.978 1.837-4.461 3.182-7.2 3.28l-.876.047c-3.378.112-5.969-.587-8.724-2.607-2.494-2.447-2.934-4.606-3.04-7.98.056-2.808.461-4.646 2.335-6.744 4.243-4.047 10.513-4.16 15.546-1.516"/><path fill="#ECC33A" d="M54.72 55.04c6.08 0 6.08 0 7.693 1.313l1.147 1.767 1.243 1.849 1.117 1.791.957 1.421C68.8 66.053 68.8 66.053 68.8 66.88h.64l-.159-1.149c-.199-2.137-.191-4.244-.18-6.39l.008-2.442.011-1.859h5.76v19.84c-6.08 0-6.08 0-7.424-.926L66.66 72.7l-.896-1.329-.804-1.291a147 147 0 0 0-1.4-1.88c-1.07-1.481-2.064-2.996-3.08-4.52v11.2h-5.76z"/><path fill="#EDC439" d="M35.52 55.04h17.6v5.12H40.96v2.24h11.52v5.12H40.96v2.24h12.16v5.12h-17.6z"/><path fill="#3264F6" d="M29.76 91.2h22.4a347 347 0 0 1 1.524 4.123c1.68 4.572 3.437 8.628 6.796 12.197v.32c-4.986.171-9.903-1.469-14.4-3.52l-1.133-.508c-5.725-2.704-11.275-6.965-15.187-11.972z"/><path fill="#F0C536" d="M13.12 55.04h5.44v7.36h9.28v-7.36h5.44v19.84h-5.44v-7.36h-9.28v7.36h-5.44z"/><path fill="#3264F6" d="m82.051 91.169 6.289.011 6.291.009 4.889.011c-3.89 7.778-14.239 12.668-22.08 15.36-2.854.86-5.67 1.151-8.64 1.28l.84-1.08c3.19-4.28 5.184-9.049 6.787-14.117.936-2.819 1.143-1.446 5.624-1.474"/><path fill="#3164F7" d="m60.48 18.56-.82 1.06c-3.6 4.842-5.486 9.872-7.5 15.58h-22.4c3.73-7.462 13.542-12.335 20.98-15 3.134-.986 6.45-1.64 9.74-1.64m8.32 0c10.743.04 20.912 6.17 28.32 13.48 2.4 2.421 2.4 2.421 2.4 3.16h-22.4c-.96-2.56-.96-2.56-1.395-3.773-1.526-4.21-3.239-7.952-6.023-11.482-.582-.745-.582-.745-.902-1.385"/><path fill="#3164F7" d="M65.6 18.24c4.648 2.107 6.832 7.271 8.588 11.734 1.332 3.669 1.332 3.669 1.332 5.226H53.44c1.674-6.137 3.949-12.73 9.28-16.64 1.033-.516 1.73-.448 2.88-.32"/><path fill="#3264F6" d="M53.44 91.2h22.08c-.794 5.56-3.494 11.984-7.837 15.727-1.477 1.09-2.51 1.475-4.323 1.233-5.848-3.655-8.11-10.627-9.92-16.96"/><path fill="#F0C536" d="M76.8 55.04h5.44v14.72h11.52v5.12H76.8z"/><path fill="#3264F6" d="m105.84 60.08 1.355-.025c1.347.11 2.089.314 3.205 1.065 1.387 1.711 1.152 3.666.96 5.76-.387 1.182-.657 1.685-1.628 2.437-1.246.592-2.257.593-3.632.603l-1.419.03c-1.554-.224-2.158-.679-3.241-1.79-.505-1.01-.413-2-.44-3.12l-.047-1.355c.2-1.54.671-2.132 1.767-3.205 1.009-.505 2.001-.388 3.12-.4"/><g clip-path="url(#b)"><path fill="#000" stroke="#000" stroke-width="17.778" d="M76 0h52v52H76zm7.118 19.996q.29.004.58.022c.472-1.418 1.027-2.876 1.832-4.14.175-.276.346-.586.583-.814.154-.045.328-.05.488-.057 2.738-.004 5.478.024 8.217-.018-.26 1.665-.78 3.317-.913 5q.27.015.537.053c.243-.828.275-1.671.447-2.51.176-.848.317-1.692.596-2.514 1.45-.045 2.886.038 4.333-.06 2.427-.015 4.856.009 7.282-.013.437-.005.869.038 1.301.082.341.953.48 1.897.693 2.895.137.624.13 1.268.275 1.887.062.297.4.176.616.197-.041-.837-.24-1.684-.392-2.511-.15-.823-.338-1.636-.509-2.454.335-.022.669-.047 1.005-.047 2.366.03 4.733.01 7.099.006.197.006.41.004.599.062.285.245.477.618.674.933.6.988 1.04 2.04 1.437 3.123.112.304.242.6.382.892l.521-.005a8 8 0 0 0-.326-1.142c-.635-1.554-1.351-3.06-2.327-4.433-2.967-4.372-7.768-7.253-12.956-8.098-1.658-.34-3.27-.275-4.952-.238-2.416.28-4.774.85-6.966 1.925-1.672.771-3.174 1.827-4.562 3.03-.903.793-1.704 1.713-2.417 2.679-.887 1.128-1.627 2.392-2.23 3.693-.35.868-.778 1.682-.947 2.575Zm.209 3.987c.853.014 1.706.02 2.56.008.522.05.732-.677 1.24-.715.482-.048.973-.02 1.457-.026.92.01 1.84-.011 2.76.036-.15.542-.341 1.122-.666 1.587-.213.305-.611.294-.944.32-1.666.026-3.336-.005-5.002.001-.602.004-1.304.105-1.812.45-.508.376-.777 1.114-1.019 1.678-.389 1.01-.827 1.999-1.216 3.009 1.43.17 2.828-.057 4.259.042 2.355-.06 4.706-.013 7.058-.035a19 19 0 0 0 .732-1.825c-.765-.077-1.513.032-2.278.012-.902-.012-1.803.003-2.704-.019-.894-.055-1.789-.018-2.684-.05.147-.382.274-.854.552-1.161.198-.225.5-.199.773-.212 1.701.005 3.403.01 5.104-.003.81-.025 1.595-.15 2.13-.819.418-.587.636-1.331.93-1.987.228-.584.606-1.282.525-1.92-.035-.421-.383-.714-.772-.818-.434-.106-.914-.074-1.358-.08-2.15.022-4.298-.011-6.448.01-.625.013-1.256-.056-1.88-.008-.236.013-.28.237-.376.412-.296.71-.646 1.396-.921 2.113Zm16.177 6.37c1.423-.025 2.845-.002 4.268-.013.464-.006.905-.065 1.291-.341.431-.31.661-.747.855-1.227.602-1.54 1.232-3.068 1.843-4.604.211-.555.508-1.127.602-1.713.055-.331-.148-.668-.427-.834-.279-.172-.622-.166-.938-.172-2.638.018-5.277.008-7.915.01-.441.003-.856.04-1.232.293-.503.328-.746.884-.969 1.418-.732 1.8-1.444 3.608-2.2 5.396-.148.367-.297.753-.251 1.156.034.346.384.596.715.612.757.04 1.519-.015 2.278.03.694.043 1.386.027 2.08-.012Zm11.387-8.877c-.309.51-.496 1.121-.718 1.677-.763 1.907-1.542 3.81-2.286 5.725-.202.485-.408.967-.571 1.468 1.051.065 2.128.067 3.177-.018.651-1.462 1.194-2.972 1.779-4.46.095-.245.215-.478.344-.706.411 1.727.12 3.422.51 5.184.782-.02 1.583.05 2.358-.035.354-.14.606-.608.862-.884.639-.781 1.314-1.532 1.942-2.325.632-.71 1.151-1.473 1.864-2.057q-.195.65-.463 1.272c-.397.932-.738 1.886-1.142 2.814-.169.397-.319.795-.446 1.207a7 7 0 0 0 1.163.027c.722-.048 1.439-.013 2.162-.027.356-.743.594-1.529.929-2.28.421-1.07.882-2.123 1.281-3.202.433-1.132.909-2.252 1.302-3.398-1.48-.005-2.95-.004-4.432-.01-.515-.043-.816.489-1.118.822a61 61 0 0 1-1.665 1.976c-.549.626-1.014 1.291-1.615 1.874-.139-.747-.126-1.498-.193-2.251-.061-.815-.002-1.606-.175-2.412-1.148.01-2.296.001-3.444-.011-.471-.002-.934-.016-1.405.03Zm-1.453 10.403c-.182.7-.222 1.435-.366 2.149-.181.95-.331 1.956-.664 2.859a9 9 0 0 1-1 .066c-3.154-.01-6.31.015-9.464 0-.826-.007-1.638.042-2.46-.063-.47-1.613-.741-3.29-.99-4.948a8 8 0 0 1-.561-.044c0 .647.144 1.262.264 1.893.176 1.04.443 2.062.622 3.1-.8.1-1.585.05-2.387.06-1.838.008-3.675-.007-5.513.01-.258-.006-.545.01-.791-.072-.17-.089-.283-.3-.391-.453-.486-.791-.935-1.585-1.297-2.441-.29-.68-.494-1.386-.777-2.068a3.4 3.4 0 0 0-.566.033c.156.738.425 1.433.736 2.118.522 1.226 1.193 2.372 1.928 3.482.843 1.2 1.835 2.33 2.916 3.322.953.815 1.887 1.601 2.985 2.217 1.53.935 3.188 1.625 4.904 2.135.856.246 1.716.389 2.593.535 1.269.21 2.603.178 3.885.148 1.885-.114 3.748-.43 5.53-1.068 1.752-.582 3.362-1.463 4.876-2.513a20 20 0 0 0 1.773-1.444c.9-.763 1.682-1.672 2.4-2.604.726-.923 1.32-1.965 1.882-2.993.549-1.083 1.062-2.234 1.312-3.426q-.286.006-.57-.004c-.209.533-.37 1.082-.575 1.617-.44 1.11-.966 2.243-1.665 3.218-.172.28-.533.236-.817.257q-2.81-.006-5.622-.01c-.835-.008-1.649.048-2.482-.049.065-.568.216-1.112.35-1.665.177-.83.306-1.673.447-2.511.053-.292.074-.587.04-.883a8 8 0 0 0-.485.04Z"/><path fill="#000" stroke="#868685" stroke-width="17.778" d="M100.24 6.094c1.682-.037 3.294-.102 4.952.238 5.188.845 9.989 3.726 12.956 8.098.976 1.374 1.692 2.879 2.327 4.433.142.372.24.755.326 1.142l-.521.005q-.212-.437-.382-.892c-.397-1.082-.837-2.135-1.437-3.123-.197-.315-.389-.688-.674-.933-.189-.058-.402-.056-.599-.062-2.366.004-4.733.025-7.099-.006-.336 0-.67.025-1.004.047.17.818.358 1.631.508 2.454.152.827.351 1.674.392 2.511-.216-.021-.554.1-.616-.197-.145-.619-.138-1.263-.275-1.887-.213-.998-.352-1.942-.693-2.895a12 12 0 0 0-1.301-.082c-2.426.022-4.855-.002-7.282.013-1.447.098-2.884.015-4.332.06-.28.822-.42 1.666-.598 2.513-.171.84-.203 1.683-.446 2.51a6 6 0 0 0-.537-.052c.133-1.683.654-3.335.913-5-2.739.042-5.479.014-8.217.018-.16.006-.334.012-.488.057-.237.228-.408.538-.583.814-.805 1.264-1.36 2.722-1.832 4.14a12 12 0 0 0-.58-.022c.17-.893.598-1.707.946-2.575.604-1.301 1.344-2.565 2.231-3.693.713-.966 1.514-1.886 2.417-2.679 1.388-1.203 2.89-2.259 4.562-3.03 2.192-1.075 4.55-1.646 6.966-1.925Zm-4.493 8.26c1.452.118 2.924.027 4.381.048 1.872.01 3.744-.013 5.616.003.821-.001 1.635.031 2.453-.047-.282-1.189-.761-2.338-1.31-3.427-.428-.89-.937-1.726-1.604-2.46-.435-.479-.919-.999-1.478-1.332-.615-.361-1.294-.587-2.015-.556-.77.004-1.525.412-2.125.863a8.9 8.9 0 0 0-2.011 2.357c-.696 1.037-1.13 2.156-1.575 3.316-.154.4-.255.814-.332 1.235Zm13.157.03c1.684.056 3.371-.006 5.056.009 1.109-.015 2.236.066 3.338-.036-.484-.843-1.133-1.465-1.793-2.174a19.1 19.1 0 0 0-7.365-4.494c-.585-.196-1.151-.403-1.761-.517q-.902-.173-1.803-.335c.629.727 1.375 1.358 1.91 2.199a19 19 0 0 1 1.931 3.992c.149.458.298.913.487 1.356Zm-22.294-.023c.73.052 1.45.036 2.182.037 2.064-.019 4.13.026 6.193-.005.487-1.141.811-2.362 1.388-3.482.567-1.113 1.237-2.29 2.13-3.174.277-.284.556-.566.819-.864-.81.037-1.564.22-2.356.405-1.697.46-3.343 1.189-4.872 2.056a18.2 18.2 0 0 0-4.451 3.662c-.412.405-.737.87-1.033 1.365Z"/><path fill="#000" stroke="#000" stroke-width="17.778" d="M101.79 6.583c.721-.031 1.4.195 2.015.556.559.333 1.043.853 1.478 1.332.667.734 1.175 1.57 1.604 2.46.549 1.09 1.027 2.239 1.31 3.427-.818.078-1.632.046-2.453.047-1.872-.016-3.744.006-5.616-.003-1.457-.02-2.929.07-4.382-.048.077-.421.18-.835.333-1.235.445-1.16.88-2.28 1.575-3.316a8.9 8.9 0 0 1 2.011-2.357c.6-.451 1.355-.859 2.125-.863Z"/><path fill="#000" stroke="#000" stroke-width="17.778" d="M104.576 6.837q.901.164 1.803.335c.61.114 1.176.321 1.761.517a19.1 19.1 0 0 1 7.365 4.494c.66.709 1.309 1.33 1.793 2.174-1.102.102-2.229.021-3.338.036-1.685-.015-3.372.047-5.057-.009a16 16 0 0 1-.486-1.356 19 19 0 0 0-1.932-3.992c-.534-.84-1.28-1.472-1.909-2.199Zm-5.254.036c-.263.298-.542.58-.819.864-.893.885-1.563 2.06-2.13 3.174-.577 1.12-.901 2.34-1.388 3.482-2.063.03-4.129-.014-6.193.005-.731-.001-1.453.015-2.182-.037.296-.495.621-.96 1.033-1.365a18.2 18.2 0 0 1 4.451-3.662c1.529-.867 3.175-1.595 4.872-2.056.792-.185 1.547-.368 2.356-.405Z"/><path fill="#000" stroke="#868685" stroke-width="17.778" d="M84.625 21.458c.623-.047 1.254.021 1.879.009 2.15-.022 4.298.011 6.448-.01.444.005.924-.027 1.358.08.39.103.736.396.772.818.081.637-.296 1.335-.525 1.919-.294.656-.512 1.4-.93 1.987-.535.67-1.32.794-2.13.819-1.701.013-3.403.008-5.104.003-.273.013-.575-.013-.773.212-.278.307-.405.779-.552 1.16.895.033 1.79-.004 2.684.051.9.022 1.802.007 2.704.02.765.019 1.513-.09 2.278-.013-.208.623-.46 1.228-.731 1.825-2.353.022-4.704-.025-7.059.035-1.431-.099-2.83.128-4.259-.042.39-1.01.827-2 1.216-3.01.242-.563.51-1.301 1.02-1.677.507-.345 1.209-.446 1.81-.45 1.667-.006 3.337.025 5.003-.001.333-.026.731-.015.944-.32.325-.465.516-1.045.665-1.587-.918-.047-1.84-.026-2.759-.036-.484.006-.975-.022-1.457.026-.508.038-.718.766-1.24.715q-1.28.015-2.56-.008c.275-.717.625-1.402.921-2.113.096-.175.14-.4.377-.412Zm14.458.002c2.638-.003 5.277.007 7.915-.011.316.006.659 0 .938.172.279.166.482.503.427.834-.094.586-.391 1.158-.602 1.713-.611 1.536-1.241 3.063-1.843 4.604-.194.48-.424.917-.855 1.227-.386.277-.827.335-1.291.34-1.423.012-2.845-.01-4.268.013-.694.039-1.386.055-2.08.012-.76-.045-1.52.01-2.278-.03-.331-.016-.68-.265-.715-.612-.046-.403.103-.79.25-1.156.757-1.788 1.469-3.597 2.201-5.396.223-.534.466-1.09.97-1.418.375-.252.79-.29 1.23-.293Zm-.45 6.99c.672.023 1.344.016 2.015.05.483.014 1.034.069 1.498-.08.289-.126.456-.484.582-.753.484-1.128.913-2.282 1.368-3.42.122-.298.163-.608.189-.925-.84-.107-1.642-.047-2.492-.064-.338.008-.756-.035-1.065.116-.273.127-.405.467-.524.725-.444 1.082-.866 2.172-1.33 3.246a2.7 2.7 0 0 0-.24 1.104Zm13.663-7.004c1.148.012 2.296.02 3.445.011.172.806.113 1.597.174 2.412.067.753.054 1.504.193 2.25.601-.582 1.066-1.247 1.615-1.873a61 61 0 0 0 1.665-1.976c.302-.333.603-.865 1.118-.822 1.482.006 2.952.005 4.432.01-.393 1.146-.869 2.267-1.302 3.398-.399 1.078-.86 2.132-1.281 3.202-.335.751-.573 1.537-.929 2.28-.723.014-1.44-.021-2.162.027a7 7 0 0 1-1.163-.027c.127-.412.277-.81.446-1.207.404-.928.745-1.882 1.142-2.814q.268-.623.463-1.272c-.713.584-1.232 1.347-1.863 2.057-.629.793-1.304 1.544-1.943 2.325-.256.276-.508.743-.862.884-.775.085-1.576.014-2.358.035-.39-1.762-.099-3.457-.51-5.184-.129.228-.249.46-.344.706-.585 1.488-1.128 2.998-1.779 4.46a23 23 0 0 1-3.176.018c.162-.501.368-.983.57-1.468.744-1.915 1.523-3.818 2.286-5.725.222-.556.409-1.166.718-1.677.471-.046.934-.032 1.405-.03Z"/><path fill="#000" stroke="#000" stroke-width="17.778" d="M101.793 23.258c.85.017 1.652-.043 2.492.064-.026.317-.067.627-.189.925-.455 1.138-.884 2.292-1.368 3.42-.126.27-.293.627-.582.753-.464.149-1.015.094-1.498.08-.67-.034-1.343-.027-2.014-.05.008-.402.079-.737.24-1.105.464-1.073.886-2.163 1.33-3.246.119-.258.251-.598.524-.725.309-.15.727-.108 1.065-.116Z"/><path fill="#000" stroke="#868685" stroke-width="17.778" d="M109.923 31.839c.034.296.013.591-.04.883-.141.838-.27 1.68-.447 2.511-.134.553-.285 1.097-.351 1.665.834.097 1.648.04 2.483.049q2.812.004 5.622.01c.284-.021.645.022.817-.258.698-.974 1.225-2.106 1.665-3.217.205-.535.366-1.084.575-1.617q.284.01.57.004c-.25 1.192-.763 2.343-1.312 3.425-.562 1.029-1.156 2.071-1.882 2.994-.718.933-1.5 1.841-2.4 2.604a20 20 0 0 1-1.773 1.444c-1.514 1.05-3.124 1.93-4.876 2.513-1.782.639-3.645.954-5.53 1.068-1.282.03-2.617.061-3.885-.148-.877-.146-1.737-.289-2.593-.535-1.716-.51-3.374-1.2-4.904-2.135-1.098-.616-2.032-1.402-2.986-2.217a20.7 20.7 0 0 1-2.915-3.322c-.735-1.11-1.406-2.256-1.928-3.482-.31-.685-.58-1.38-.736-2.118.19-.026.375-.038.566-.033.283.682.487 1.388.777 2.068.362.856.81 1.65 1.296 2.441.109.153.222.364.391.453.247.082.534.066.792.073 1.838-.018 3.675-.004 5.513-.01.802-.011 1.587.04 2.387-.06-.18-1.039-.446-2.061-.622-3.101-.12-.63-.263-1.246-.264-1.893q.28.031.56.044c.25 1.658.521 3.335.99 4.948.823.105 1.635.056 2.461.063 3.154.015 6.31-.01 9.464 0a9 9 0 0 0 1-.066c.333-.903.483-1.909.664-2.86.143-.713.184-1.448.366-2.148a8 8 0 0 1 .485-.04ZM86.55 37.518c.502.934 1.232 1.637 1.977 2.372a17 17 0 0 0 2.748 2.241c.948.588 1.856 1.164 2.894 1.583 1.628.69 3.459 1.376 5.241 1.423-.557-.565-1.131-1.09-1.608-1.73a15 15 0 0 1-1.719-2.96c-.427-.966-.692-1.983-1.098-2.954-1.958-.069-3.922-.024-5.881-.035-.85.014-1.72-.047-2.554.06Zm9.116.002a21 21 0 0 0 1.69 4.149c.72 1.237 1.558 2.364 2.778 3.15.733.455 1.601.71 2.457.47 1.048-.238 1.879-.87 2.585-1.657 1.008-1.128 1.738-2.55 2.3-3.946.288-.732.599-1.414.714-2.201-2.061-.068-4.128-.002-6.19-.039a64 64 0 0 0-3.224-.013c-1.043.06-2.07-.034-3.11.087Zm13.258-.017c-.265.559-.409 1.172-.639 1.749-.578 1.482-1.213 2.893-2.171 4.174-.453.605-1.044 1.124-1.556 1.697a9.5 9.5 0 0 0 1.768-.239c3.642-.859 6.997-2.793 9.595-5.481.54-.594 1.063-1.194 1.486-1.88a12 12 0 0 0-1.471-.068c-1.595.013-3.19.008-4.784.002-.737.008-1.495-.03-2.228.046Z"/><path fill="#000" stroke="#000" stroke-width="17.778" d="M89.104 37.458c1.96.011 3.923-.034 5.881.035.406.971.671 1.988 1.099 2.954a15 15 0 0 0 1.719 2.96c.476.64 1.05 1.165 1.607 1.73-1.782-.047-3.612-.732-5.241-1.423-1.038-.419-1.946-.995-2.893-1.583a17 17 0 0 1-2.75-2.24c-.744-.736-1.474-1.44-1.976-2.373.835-.107 1.704-.046 2.554-.06Z"/><path fill="#000" stroke="#000" stroke-width="17.778" d="M98.776 37.433a64 64 0 0 1 3.224.013c2.062.037 4.129-.029 6.19.039-.115.787-.426 1.47-.714 2.201-.562 1.396-1.292 2.818-2.3 3.946-.706.786-1.537 1.419-2.585 1.657-.856.24-1.724-.015-2.457-.47-1.22-.786-2.058-1.913-2.779-3.15a21 21 0 0 1-1.689-4.149c1.04-.12 2.067-.027 3.11-.087Z"/><path fill="#000" stroke="#000" stroke-width="17.778" d="M111.152 37.457c1.594.006 3.189.011 4.784-.002.493-.006.98.015 1.471.068-.423.686-.946 1.286-1.486 1.88-2.598 2.688-5.953 4.622-9.595 5.481a9.5 9.5 0 0 1-1.768.24c.512-.574 1.103-1.093 1.556-1.698.958-1.281 1.593-2.692 2.171-4.174.23-.577.374-1.19.639-1.749.733-.075 1.491-.038 2.228-.046Z"/><path fill="#000" d="M76 0h52v52H76zm7.118 19.996q.29.004.58.022c.472-1.418 1.027-2.876 1.832-4.14.175-.276.346-.586.583-.814.154-.045.328-.05.488-.057 2.738-.004 5.478.024 8.217-.018-.26 1.665-.78 3.317-.913 5q.27.015.537.053c.243-.828.275-1.671.447-2.51.176-.848.317-1.692.596-2.514 1.45-.045 2.886.038 4.333-.06 2.427-.015 4.856.009 7.282-.013.437-.005.869.038 1.301.082.341.953.48 1.897.693 2.895.137.624.13 1.268.275 1.887.062.297.4.176.616.197-.041-.837-.24-1.684-.392-2.511-.15-.823-.338-1.636-.509-2.454.335-.022.669-.047 1.005-.047 2.366.03 4.733.01 7.099.006.197.006.41.004.599.062.285.245.477.618.674.933.6.988 1.04 2.04 1.437 3.123.112.304.242.6.382.892l.521-.005a8 8 0 0 0-.326-1.142c-.635-1.554-1.351-3.06-2.327-4.433-2.967-4.372-7.768-7.253-12.956-8.098-1.658-.34-3.27-.275-4.952-.238-2.416.28-4.774.85-6.966 1.925-1.672.771-3.174 1.827-4.562 3.03-.903.793-1.704 1.713-2.417 2.679-.887 1.128-1.627 2.392-2.23 3.693-.35.868-.778 1.682-.947 2.575m.209 3.987c.853.014 1.706.02 2.56.008.522.05.732-.677 1.24-.715.482-.048.973-.02 1.457-.026.92.01 1.84-.011 2.76.036-.15.542-.341 1.122-.666 1.587-.213.305-.611.294-.944.32-1.666.026-3.336-.005-5.002.001-.602.004-1.304.105-1.812.45-.508.376-.777 1.114-1.019 1.678-.389 1.01-.827 1.999-1.216 3.009 1.43.17 2.828-.057 4.259.042 2.355-.06 4.706-.013 7.058-.035a19 19 0 0 0 .732-1.825c-.765-.077-1.513.032-2.278.012-.902-.012-1.803.003-2.704-.019-.894-.055-1.789-.018-2.684-.05.147-.382.274-.854.552-1.161.198-.225.5-.199.773-.212 1.701.005 3.403.01 5.104-.003.81-.025 1.595-.15 2.13-.819.418-.587.636-1.331.93-1.987.228-.584.606-1.282.525-1.92-.035-.421-.383-.714-.772-.818-.434-.106-.914-.074-1.358-.08-2.15.022-4.298-.011-6.448.01-.625.013-1.256-.056-1.88-.008-.236.013-.28.237-.376.412-.296.71-.646 1.396-.921 2.113m16.177 6.37c1.423-.025 2.845-.002 4.268-.013.464-.006.905-.065 1.291-.341.431-.31.661-.747.855-1.227.602-1.54 1.232-3.068 1.843-4.604.211-.555.508-1.127.602-1.713.055-.331-.148-.668-.427-.834-.279-.172-.622-.166-.938-.172-2.638.018-5.277.008-7.915.01-.441.003-.856.04-1.232.293-.503.328-.746.884-.969 1.418-.732 1.8-1.444 3.608-2.2 5.396-.148.367-.297.753-.251 1.156.034.346.384.596.715.612.757.04 1.519-.015 2.278.03.694.043 1.386.027 2.08-.012m11.387-8.877c-.309.51-.496 1.121-.718 1.677-.763 1.907-1.542 3.81-2.286 5.725-.202.485-.408.967-.571 1.468 1.051.065 2.128.067 3.177-.018.651-1.462 1.194-2.972 1.779-4.46.095-.245.215-.478.344-.706.411 1.727.12 3.422.51 5.184.782-.02 1.583.05 2.358-.035.354-.14.606-.608.862-.884.639-.781 1.314-1.532 1.942-2.325.632-.71 1.151-1.473 1.864-2.057q-.195.65-.463 1.272c-.397.932-.738 1.886-1.142 2.814-.169.397-.319.795-.446 1.207a7 7 0 0 0 1.163.027c.722-.048 1.439-.013 2.162-.027.356-.743.594-1.529.929-2.28.421-1.07.882-2.123 1.281-3.202.433-1.132.909-2.252 1.302-3.398-1.48-.005-2.95-.004-4.432-.01-.515-.043-.816.489-1.118.822a61 61 0 0 1-1.665 1.976c-.549.626-1.014 1.291-1.615 1.874-.139-.747-.126-1.498-.193-2.251-.061-.815-.002-1.606-.175-2.412-1.148.01-2.296.001-3.444-.011-.471-.002-.934-.016-1.405.03m-1.453 10.403c-.182.7-.222 1.435-.366 2.149-.181.95-.331 1.956-.664 2.859a9 9 0 0 1-1 .066c-3.154-.01-6.31.015-9.464 0-.826-.007-1.638.042-2.46-.063-.47-1.613-.741-3.29-.99-4.948a8 8 0 0 1-.561-.044c0 .647.144 1.262.264 1.893.176 1.04.443 2.062.622 3.1-.8.1-1.585.05-2.387.06-1.838.008-3.675-.007-5.513.01-.258-.006-.545.01-.791-.072-.17-.089-.283-.3-.391-.453-.486-.791-.935-1.585-1.297-2.441-.29-.68-.494-1.386-.777-2.068a3.4 3.4 0 0 0-.566.033c.156.738.425 1.433.736 2.118.522 1.226 1.193 2.372 1.928 3.482.843 1.2 1.835 2.33 2.916 3.322.953.815 1.887 1.601 2.985 2.217 1.53.935 3.188 1.625 4.904 2.135.856.246 1.716.389 2.593.535 1.269.21 2.603.178 3.885.148 1.885-.114 3.748-.43 5.53-1.068 1.752-.582 3.362-1.463 4.876-2.513a20 20 0 0 0 1.773-1.444c.9-.763 1.682-1.672 2.4-2.604.726-.923 1.32-1.965 1.882-2.993.549-1.083 1.062-2.234 1.312-3.426q-.286.006-.57-.004c-.209.533-.37 1.082-.575 1.617-.44 1.11-.966 2.243-1.665 3.218-.172.28-.533.236-.817.257q-2.81-.006-5.622-.01c-.835-.008-1.649.048-2.482-.049.065-.568.216-1.112.35-1.665.177-.83.306-1.673.447-2.511.053-.292.074-.587.04-.883a8 8 0 0 0-.485.04"/><path fill="#868685" d="M100.24 6.094c1.682-.037 3.294-.102 4.952.238 5.188.845 9.989 3.726 12.956 8.098.976 1.374 1.692 2.879 2.327 4.433.142.372.24.755.326 1.142l-.521.005q-.212-.437-.382-.892c-.397-1.082-.837-2.135-1.437-3.123-.197-.315-.389-.688-.674-.933-.189-.058-.402-.056-.599-.062-2.366.004-4.733.025-7.099-.006-.336 0-.67.025-1.004.047.17.818.358 1.631.508 2.454.152.827.351 1.674.392 2.511-.216-.021-.554.1-.616-.197-.145-.619-.138-1.263-.275-1.887-.213-.998-.352-1.942-.693-2.895a12 12 0 0 0-1.301-.082c-2.426.022-4.855-.002-7.282.013-1.447.098-2.884.015-4.332.06-.28.822-.42 1.666-.598 2.513-.171.84-.203 1.683-.446 2.51a6 6 0 0 0-.537-.052c.133-1.683.654-3.335.913-5-2.739.042-5.479.014-8.217.018-.16.006-.334.012-.488.057-.237.228-.408.538-.583.814-.805 1.264-1.36 2.722-1.832 4.14a12 12 0 0 0-.58-.022c.17-.893.598-1.707.946-2.575.604-1.301 1.344-2.565 2.231-3.693.713-.966 1.514-1.886 2.417-2.679 1.388-1.203 2.89-2.259 4.562-3.03 2.192-1.075 4.55-1.646 6.966-1.925m-4.493 8.26c1.452.118 2.924.027 4.381.048 1.872.01 3.744-.013 5.616.003.821-.001 1.635.031 2.453-.047-.282-1.189-.761-2.338-1.31-3.427-.428-.89-.937-1.726-1.604-2.46-.435-.479-.919-.999-1.478-1.332-.615-.361-1.294-.587-2.015-.556-.77.004-1.525.412-2.125.863a8.9 8.9 0 0 0-2.011 2.357c-.696 1.037-1.13 2.156-1.575 3.316-.154.4-.255.814-.332 1.235m13.157.03c1.684.056 3.371-.006 5.056.009 1.109-.015 2.236.066 3.338-.036-.484-.843-1.133-1.465-1.793-2.174a19.1 19.1 0 0 0-7.365-4.494c-.585-.196-1.151-.403-1.761-.517q-.902-.173-1.803-.335c.629.727 1.375 1.358 1.91 2.199a19 19 0 0 1 1.931 3.992c.149.458.298.913.487 1.356m-22.294-.023c.73.052 1.45.036 2.182.037 2.064-.019 4.13.026 6.193-.005.487-1.141.811-2.362 1.388-3.482.567-1.113 1.237-2.29 2.13-3.174.277-.284.556-.566.819-.864-.81.037-1.564.22-2.356.405-1.697.46-3.343 1.189-4.872 2.056a18.2 18.2 0 0 0-4.451 3.662c-.412.405-.737.87-1.033 1.365"/><path fill="#000" d="M101.79 6.583c.721-.031 1.4.195 2.015.556.559.333 1.043.853 1.478 1.332.667.734 1.175 1.57 1.604 2.46.549 1.09 1.027 2.239 1.31 3.427-.818.078-1.632.046-2.453.047-1.872-.016-3.744.006-5.616-.003-1.457-.02-2.929.07-4.382-.048.077-.421.18-.835.333-1.235.445-1.16.88-2.28 1.575-3.316a8.9 8.9 0 0 1 2.011-2.357c.6-.451 1.355-.859 2.125-.863"/><path fill="#000" d="M104.576 6.837q.901.164 1.803.335c.61.114 1.176.321 1.761.517a19.1 19.1 0 0 1 7.365 4.494c.66.709 1.309 1.33 1.793 2.174-1.102.102-2.229.021-3.338.036-1.685-.015-3.372.047-5.057-.009a16 16 0 0 1-.486-1.356 19 19 0 0 0-1.932-3.992c-.534-.84-1.28-1.472-1.909-2.199m-5.254.036c-.263.298-.542.58-.819.864-.893.885-1.563 2.06-2.13 3.174-.577 1.12-.901 2.34-1.388 3.482-2.063.03-4.129-.014-6.193.005-.731-.001-1.453.015-2.182-.037.296-.495.621-.96 1.033-1.365a18.2 18.2 0 0 1 4.451-3.662c1.529-.867 3.175-1.595 4.872-2.056.792-.185 1.547-.368 2.356-.405"/><path fill="#868685" d="M84.625 21.458c.623-.047 1.254.021 1.879.009 2.15-.022 4.298.011 6.448-.01.444.005.924-.027 1.358.08.39.103.736.396.772.818.081.637-.296 1.335-.525 1.919-.294.656-.512 1.4-.93 1.987-.535.67-1.32.794-2.13.819-1.701.013-3.403.008-5.104.003-.273.013-.575-.013-.773.212-.278.307-.405.779-.552 1.16.895.033 1.79-.004 2.684.051.9.022 1.802.007 2.704.02.765.019 1.513-.09 2.278-.013-.208.623-.46 1.228-.731 1.825-2.353.022-4.704-.025-7.059.035-1.431-.099-2.83.128-4.259-.042.39-1.01.827-2 1.216-3.01.242-.563.51-1.301 1.02-1.677.507-.345 1.209-.446 1.81-.45 1.667-.006 3.337.025 5.003-.001.333-.026.731-.015.944-.32.325-.465.516-1.045.665-1.587-.918-.047-1.84-.026-2.759-.036-.484.006-.975-.022-1.457.026-.508.038-.718.766-1.24.715q-1.28.015-2.56-.008c.275-.717.625-1.402.921-2.113.096-.175.14-.4.377-.412m14.458.002c2.638-.003 5.277.007 7.915-.011.316.006.659 0 .938.172.279.166.482.503.427.834-.094.586-.391 1.158-.602 1.713-.611 1.536-1.241 3.063-1.843 4.604-.194.48-.424.917-.855 1.227-.386.277-.827.335-1.291.34-1.423.012-2.845-.01-4.268.013-.694.039-1.386.055-2.08.012-.76-.045-1.52.01-2.278-.03-.331-.016-.68-.265-.715-.612-.046-.403.103-.79.25-1.156.757-1.788 1.469-3.597 2.201-5.396.223-.534.466-1.09.97-1.418.375-.252.79-.29 1.23-.293m-.45 6.99c.672.023 1.344.016 2.015.05.483.014 1.034.069 1.498-.08.289-.126.456-.484.582-.753.484-1.128.913-2.282 1.368-3.42.122-.298.163-.608.189-.925-.84-.107-1.642-.047-2.492-.064-.338.008-.756-.035-1.065.116-.273.127-.405.467-.524.725-.444 1.082-.866 2.172-1.33 3.246a2.7 2.7 0 0 0-.24 1.104m13.663-7.002c1.148.012 2.296.02 3.445.011.172.806.113 1.597.174 2.412.067.753.054 1.504.193 2.25.601-.582 1.066-1.247 1.615-1.873a61 61 0 0 0 1.665-1.976c.302-.333.603-.865 1.118-.822 1.482.006 2.952.005 4.432.01-.393 1.146-.869 2.267-1.302 3.398-.399 1.078-.86 2.132-1.281 3.202-.335.751-.573 1.537-.929 2.28-.723.014-1.44-.021-2.162.027a7 7 0 0 1-1.163-.027c.127-.412.277-.81.446-1.207.404-.928.745-1.882 1.142-2.814q.268-.623.463-1.272c-.713.584-1.232 1.347-1.863 2.057-.629.793-1.304 1.544-1.943 2.325-.256.276-.508.743-.862.884-.775.085-1.576.014-2.358.035-.39-1.762-.099-3.457-.51-5.184-.129.228-.249.46-.344.706-.585 1.488-1.128 2.998-1.779 4.46a23 23 0 0 1-3.176.018c.162-.501.368-.983.57-1.468.744-1.915 1.523-3.818 2.286-5.725.222-.556.409-1.166.718-1.677.471-.046.934-.032 1.405-.03"/><path fill="#000" d="M101.793 23.258c.85.017 1.652-.043 2.492.064-.026.317-.067.627-.189.925-.455 1.138-.884 2.292-1.368 3.42-.126.27-.293.627-.582.753-.464.149-1.015.094-1.498.08-.67-.034-1.343-.027-2.014-.05.008-.402.079-.737.24-1.105.464-1.073.886-2.163 1.33-3.246.119-.258.251-.598.524-.725.309-.15.727-.108 1.065-.116"/><path fill="#868685" d="M109.923 31.839c.034.296.013.591-.04.883-.141.838-.27 1.68-.447 2.511-.134.553-.285 1.097-.351 1.665.834.097 1.648.04 2.483.049q2.812.004 5.622.01c.284-.021.645.022.817-.258.698-.974 1.225-2.106 1.665-3.217.205-.535.366-1.084.575-1.617q.284.01.57.004c-.25 1.192-.763 2.343-1.312 3.425-.562 1.029-1.156 2.071-1.882 2.994-.718.933-1.5 1.841-2.4 2.604a20 20 0 0 1-1.773 1.444c-1.514 1.05-3.124 1.93-4.876 2.513-1.782.639-3.645.954-5.53 1.068-1.282.03-2.617.061-3.885-.148-.877-.146-1.737-.289-2.593-.535-1.716-.51-3.374-1.2-4.904-2.135-1.098-.616-2.032-1.402-2.986-2.217a20.7 20.7 0 0 1-2.915-3.322c-.735-1.11-1.406-2.256-1.928-3.482-.31-.685-.58-1.38-.736-2.118.19-.026.375-.038.566-.033.283.682.487 1.388.777 2.068.362.856.81 1.65 1.296 2.441.109.153.222.364.391.453.247.082.534.066.792.073 1.838-.018 3.675-.004 5.513-.01.802-.011 1.587.04 2.387-.06-.18-1.039-.446-2.061-.622-3.101-.12-.63-.263-1.246-.264-1.893q.28.031.56.044c.25 1.658.521 3.335.99 4.948.823.105 1.635.056 2.461.063 3.154.015 6.31-.01 9.464 0a9 9 0 0 0 1-.066c.333-.903.483-1.909.664-2.86.143-.713.184-1.448.366-2.148a8 8 0 0 1 .485-.04M86.55 37.518c.502.934 1.232 1.637 1.977 2.372a17 17 0 0 0 2.748 2.241c.948.588 1.856 1.164 2.894 1.583 1.628.69 3.459 1.376 5.241 1.423-.557-.565-1.131-1.09-1.608-1.73a15 15 0 0 1-1.719-2.96c-.427-.966-.692-1.983-1.098-2.954-1.958-.069-3.922-.024-5.881-.035-.85.014-1.72-.047-2.554.06m9.116.002a21 21 0 0 0 1.69 4.149c.72 1.237 1.558 2.364 2.778 3.15.733.455 1.601.71 2.457.47 1.048-.238 1.879-.87 2.585-1.657 1.008-1.128 1.738-2.55 2.3-3.946.288-.732.599-1.414.714-2.201-2.061-.068-4.128-.002-6.19-.039a64 64 0 0 0-3.224-.013c-1.043.06-2.07-.034-3.11.087m13.258-.017c-.265.559-.409 1.172-.639 1.749-.578 1.482-1.213 2.893-2.171 4.174-.453.605-1.044 1.124-1.556 1.697a9.5 9.5 0 0 0 1.768-.239c3.642-.859 6.997-2.793 9.595-5.481.54-.594 1.063-1.194 1.486-1.88a12 12 0 0 0-1.471-.068c-1.595.013-3.19.008-4.784.002-.737.008-1.495-.03-2.228.046"/><path fill="#000" d="M89.104 37.458c1.96.011 3.923-.034 5.881.035.406.971.671 1.988 1.099 2.954a15 15 0 0 0 1.719 2.96c.476.64 1.05 1.165 1.607 1.73-1.782-.047-3.612-.732-5.241-1.423-1.038-.419-1.946-.995-2.893-1.583a17 17 0 0 1-2.75-2.24c-.744-.736-1.474-1.44-1.976-2.373.835-.107 1.704-.046 2.554-.06"/><path fill="#000" d="M98.776 37.433a64 64 0 0 1 3.224.013c2.062.037 4.129-.029 6.19.039-.115.787-.426 1.47-.714 2.201-.562 1.396-1.292 2.818-2.3 3.946-.706.786-1.537 1.419-2.585 1.657-.856.24-1.724-.015-2.457-.47-1.22-.786-2.058-1.913-2.779-3.15a21 21 0 0 1-1.689-4.149c1.04-.12 2.067-.027 3.11-.087"/><path fill="#000" d="M111.152 37.457c1.594.006 3.189.011 4.784-.002.493-.006.98.015 1.471.068-.423.686-.946 1.286-1.486 1.88-2.598 2.688-5.953 4.622-9.595 5.481a9.5 9.5 0 0 1-1.768.24c.512-.574 1.103-1.093 1.556-1.698.958-1.281 1.593-2.692 2.171-4.174.23-.577.374-1.19.639-1.749.733-.075 1.491-.038 2.228-.046"/></g></g><defs><clipPath id="a"><path fill="#fff" d="M0 0h128v128H0z"/></clipPath><clipPath id="b"><rect width="52" height="52" x="76" fill="#fff" rx="26"/></clipPath></defs></svg>
