<svg xmlns="http://www.w3.org/2000/svg" viewBox="0 0 128 128"><path fill="#3264F6" d="M64 128c35.346 0 64-28.654 64-64S99.346 0 64 0 0 28.654 0 64s28.654 64 64 64"/><path fill="#E4BF42" d="M62.907 18.029c1.748-.019 3.516-.079 5.26.06 3.546.21 7.08.895 10.483 1.903 6.81 2.065 13.097 5.74 18.279 10.616 4.777 4.512 8.601 10.053 11.088 16.138.345.87.724 1.758.953 2.663a9.5 9.5 0 0 1-1.249-.037c-.111-.248-.22-.497-.314-.752a45.5 45.5 0 0 0-4.498-8.934c-.221-.325-.427-.733-.743-.972-.465-.071-.953-.023-1.423-.031l-16.176.001c-.608.001-1.215-.019-1.824.014q.09.454.218.903a83 83 0 0 1 2.026 9.295c.037.272.034.542.027.813-.373.025-.74.022-1.114-.005-.189-.525-.23-1.061-.325-1.606-.41-2.423-.89-4.817-1.545-7.188-.21-.748-.365-1.484-.666-2.202-.677-.054-1.341-.02-2.023-.025l-30.234-.002c-.253-.016-.284.234-.355.416-.8 2.827-1.5 5.678-1.979 8.579-.12.66-.193 1.319-.364 1.968a10 10 0 0 1-1.152-.01c.012-.932.232-1.782.382-2.696.444-2.382.956-4.777 1.612-7.11.112-.374.217-.748.298-1.13-.808-.039-1.62-.007-2.428-.015-5.66.006-11.334-.014-16.992.008-.386.422-.657.9-.967 1.377a48 48 0 0 0-2.469 4.377C23.71 46.426 22.5 50 22.5 50h-1.472c.137-.579.593-1.54.802-2.095a46.5 46.5 0 0 1 12.332-18.01 45.8 45.8 0 0 1 9.3-6.51c5.99-3.21 12.667-4.988 19.445-5.356m-13.631 19.39q.34.027.683.033l29.133-.001c.621-.003 1.24.016 1.86-.015-.147-.775-.475-1.546-.745-2.29-.637-1.723-1.392-3.397-2.19-5.052-1.341-2.527-2.88-4.986-4.9-7.032-1.552-1.55-3.391-2.873-5.528-3.47a8.73 8.73 0 0 0-4.868-.006c-1.935.535-3.57 1.63-5.032 2.977-1.788 1.66-3.258 3.726-4.482 5.828-1.64 2.845-2.9 5.914-3.931 9.028m9.23-17.674c-3.887.518-7.762 1.712-11.373 3.231-1.037.487-2.072.98-3.09 1.508-5.652 3.02-10.653 7.218-14.565 12.295-.148.211-.285.429-.423.647.256.013.513.026.77.028l16.042-.001c.705-.005 1.393.026 2.095-.026q.217-.58.4-1.169a48.3 48.3 0 0 1 3.694-8.378c1.486-2.596 3.25-4.96 5.542-6.901.523-.427 1.085-.802 1.594-1.243q-.343-.005-.686.009m12.542-.022c.732.586 1.498 1.09 2.188 1.731 2.379 2.17 4.17 4.812 5.653 7.654a45 45 0 0 1 2.517 5.708c.344.861.598 1.751.93 2.615.742.048 1.487.015 2.232.022 5.102.004 10.204-.006 15.307.001.459.004.92.002 1.379-.028a9.7 9.7 0 0 0-1.079-1.476c-3.886-4.792-8.768-8.797-14.247-11.637a45 45 0 0 0-11.48-4.114c-1.109-.202-2.279-.498-3.4-.476M21.102 78.062c.337-.092.744-.016 1.09.013.106.24.208.48.291.727 1.217 3.629 2.925 7.077 5.023 10.276.648-.03 2.035-.132 2.682-.134h15.306c.58 0 1.159.016 1.737-.019q-.061-.465-.178-.92c-.761-2.818-1.325-5.699-1.8-8.578a7 7 0 0 1-.105-1.34c.4-.065.758-.076 1.159.003.12.56.193 1.126.272 1.694.502 3.093 1.143 6.133 2.03 9.141.788.039 1.573.016 2.36.02h28.745c.653-.004 1.3.025 1.951-.024.281-.765.448-1.581.659-2.37.527-2.027.904-4.08 1.274-6.141.14-.775.194-1.554.386-2.32a3.1 3.1 0 0 1 1.167 0c-.004.412-.029.82-.106 1.226a85 85 0 0 1-1.49 7.414c-.182.733-.394 1.455-.55 2.194.478.028.957.027 1.437.022 5.727-.006 12.633.063 18.359.054 1.31-1.924 2.143-3.395 3.128-5.504.648-1.411 1.288-2.857 1.776-4.333q.146-.442.353-.859.629-.077 1.262-.08c-.443 1.505-1.02 2.978-1.629 4.424a46.3 46.3 0 0 1-8.666 13.238c-.953 1.085-2.018 2.036-3.077 3.013a47 47 0 0 1-10.154 6.887c-2.006.965-4.064 1.849-6.182 2.536-4.2 1.345-8.55 2.153-12.964 2.279-1.474.002-2.964.052-4.435-.073-3.232-.186-6.454-.759-9.572-1.627-5.983-1.656-11.622-4.577-16.458-8.464C29.13 94.792 23.79 87.06 21.045 78.45c-.029-.127-.11-.321.057-.388m38.177 30.831c-.567-.453-1.167-.864-1.732-1.322-2.3-1.95-4.027-4.321-5.522-6.92-1.627-2.877-2.894-5.906-3.908-9.048-.15-.47-.278-.943-.485-1.395-6.058-.037-12.128.007-18.188-.02-.285.011-.608-.038-.883.04-.225.143-.05.299.046.458a46.4 46.4 0 0 0 7.108 7.732 45.3 45.3 0 0 0 13.197 7.942c2.652.987 5.425 1.828 8.218 2.294.714.132 1.419.259 2.149.239M49.033 90.21c.194.945.535 1.83.862 2.74 1.141 3.115 2.5 6.089 4.312 8.875 1.087 1.623 2.348 3.22 3.82 4.51.992.841 2.092 1.66 3.29 2.175 1.534.637 3.144.988 4.807.777 2.444-.287 4.626-1.54 6.399-3.201 2.03-1.865 3.507-4.064 4.875-6.436a51 51 0 0 0 3.663-8.67c.073-.252.114-.508.155-.767-.749-.045-1.496-.014-2.248-.02H50.845c-.605 0-1.208-.014-1.812.017m21.737 18.795c4.216-.468 8.384-1.662 12.28-3.327 1.283-.561 2.531-1.207 3.777-1.848a46 46 0 0 0 8.498-6.053c1.835-1.696 3.576-3.489 5.124-5.452.53-.678 1.091-1.362 1.514-2.103-.817-.055-1.643-.018-2.464-.025-5.185-.002-10.369.002-15.554-.006-.418.002-.842-.02-1.26.023-.317.523-.415 1.181-.633 1.751-.607 1.72-1.208 3.468-1.986 5.118-.466.908-.829 1.857-1.346 2.74-1.57 2.857-3.554 5.777-6.106 7.845-.585.489-1.223.896-1.844 1.337"/><path fill="#E4BF42" d="M62.907 18.029c1.748-.019 3.516-.079 5.26.06 3.546.21 7.08.895 10.483 1.903 6.81 2.065 13.097 5.74 18.279 10.616 4.777 4.512 8.601 10.053 11.088 16.138.345.87.724 1.758.953 2.663a9.5 9.5 0 0 1-1.249-.037c-.111-.248-.22-.497-.314-.752a45.5 45.5 0 0 0-4.498-8.934c-.221-.325-.427-.733-.743-.972-.465-.071-.953-.023-1.423-.031l-16.176.001c-.608.001-1.215-.019-1.824.014q.09.454.218.903a83 83 0 0 1 2.026 9.295c.037.272.034.542.027.813-.373.025-.74.022-1.114-.005-.189-.525-.23-1.061-.325-1.606-.41-2.423-.89-4.817-1.545-7.188-.21-.748-.365-1.484-.666-2.202-.677-.054-1.341-.02-2.023-.025l-30.234-.002c-.253-.016-.284.234-.355.416-.8 2.827-1.5 5.678-1.979 8.579-.12.66-.193 1.319-.364 1.968a10 10 0 0 1-1.152-.01c.012-.932.232-1.782.382-2.696.444-2.382.956-4.777 1.612-7.11.112-.374.217-.748.298-1.13-.808-.039-1.62-.007-2.428-.015-5.66.006-11.334-.014-16.992.008-.386.422-.657.9-.967 1.377a48 48 0 0 0-2.469 4.377C23.71 46.426 22.5 50 22.5 50h-1.472c.137-.579.593-1.54.802-2.095a46.5 46.5 0 0 1 12.332-18.01 45.8 45.8 0 0 1 9.3-6.51c5.99-3.21 12.667-4.988 19.445-5.356m-13.631 19.39q.34.027.683.033l29.133-.001c.621-.003 1.24.016 1.86-.015-.147-.775-.475-1.546-.745-2.29-.637-1.723-1.392-3.397-2.19-5.052-1.341-2.527-2.88-4.986-4.9-7.032-1.552-1.55-3.391-2.873-5.528-3.47a8.73 8.73 0 0 0-4.868-.006c-1.935.535-3.57 1.63-5.032 2.977-1.788 1.66-3.258 3.726-4.482 5.828-1.64 2.845-2.9 5.914-3.931 9.028m9.23-17.674c-3.887.518-7.762 1.712-11.373 3.231-1.037.487-2.072.98-3.09 1.508-5.652 3.02-10.653 7.218-14.565 12.295-.148.211-.285.429-.423.647.256.013.513.026.77.028l16.042-.001c.705-.005 1.393.026 2.095-.026q.217-.58.4-1.169a48.3 48.3 0 0 1 3.694-8.378c1.486-2.596 3.25-4.96 5.542-6.901.523-.427 1.085-.802 1.594-1.243q-.343-.005-.686.009m12.542-.022c.732.586 1.498 1.09 2.188 1.731 2.379 2.17 4.17 4.812 5.653 7.654a45 45 0 0 1 2.517 5.708c.344.861.598 1.751.93 2.615.742.048 1.487.015 2.232.022 5.102.004 10.204-.006 15.307.001.459.004.92.002 1.379-.028a9.7 9.7 0 0 0-1.079-1.476c-3.886-4.792-8.768-8.797-14.247-11.637a45 45 0 0 0-11.48-4.114c-1.109-.202-2.279-.498-3.4-.476M21.102 78.062c.337-.092.744-.016 1.09.013.106.24.208.48.291.727 1.217 3.629 2.925 7.077 5.023 10.276.648-.03 2.035-.132 2.682-.134h15.306c.58 0 1.159.016 1.737-.019q-.061-.465-.178-.92c-.761-2.818-1.325-5.699-1.8-8.578a7 7 0 0 1-.105-1.34c.4-.065.758-.076 1.159.003.12.56.193 1.126.272 1.694.502 3.093 1.143 6.133 2.03 9.141.788.039 1.573.016 2.36.02h28.745c.653-.004 1.3.025 1.951-.024.281-.765.448-1.581.659-2.37.527-2.027.904-4.08 1.274-6.141.14-.775.194-1.554.386-2.32a3.1 3.1 0 0 1 1.167 0c-.004.412-.029.82-.106 1.226a85 85 0 0 1-1.49 7.414c-.182.733-.394 1.455-.55 2.194.478.028.957.027 1.437.022 5.727-.006 12.633.063 18.359.054 1.31-1.924 2.143-3.395 3.128-5.504.648-1.411 1.288-2.857 1.776-4.333q.146-.442.353-.859.629-.077 1.262-.08c-.443 1.505-1.02 2.978-1.629 4.424a46.3 46.3 0 0 1-8.666 13.238c-.953 1.085-2.018 2.036-3.077 3.013a47 47 0 0 1-10.154 6.887c-2.006.965-4.064 1.849-6.182 2.536-4.2 1.345-8.55 2.153-12.964 2.279-1.474.002-2.964.052-4.435-.073-3.232-.186-6.454-.759-9.572-1.627-5.983-1.656-11.622-4.577-16.458-8.464C29.13 94.792 23.79 87.06 21.045 78.45c-.029-.127-.11-.321.057-.388m38.177 30.831c-.567-.453-1.167-.864-1.732-1.322-2.3-1.95-4.027-4.321-5.522-6.92-1.627-2.877-2.894-5.906-3.908-9.048-.15-.47-.278-.943-.485-1.395-6.058-.037-12.128.007-18.188-.02-.285.011-.608-.038-.883.04-.225.143-.05.299.046.458a46.4 46.4 0 0 0 7.108 7.732 45.3 45.3 0 0 0 13.197 7.942c2.652.987 5.425 1.828 8.218 2.294.714.132 1.419.259 2.149.239M49.033 90.21c.194.945.535 1.83.862 2.74 1.141 3.115 2.5 6.089 4.312 8.875 1.087 1.623 2.348 3.22 3.82 4.51.992.841 2.092 1.66 3.29 2.175 1.534.637 3.144.988 4.807.777 2.444-.287 4.626-1.54 6.399-3.201 2.03-1.865 3.507-4.064 4.875-6.436a51 51 0 0 0 3.663-8.67c.073-.252.114-.508.155-.767-.749-.045-1.496-.014-2.248-.02H50.845c-.605 0-1.208-.014-1.812.017m21.737 18.795c4.216-.468 8.384-1.662 12.28-3.327 1.283-.561 2.531-1.207 3.777-1.848a46 46 0 0 0 8.498-6.053c1.835-1.696 3.576-3.489 5.124-5.452.53-.678 1.091-1.362 1.514-2.103-.817-.055-1.643-.018-2.464-.025-5.185-.002-10.369.002-15.554-.006-.418.002-.842-.02-1.26.023-.317.523-.415 1.181-.633 1.751-.607 1.72-1.208 3.468-1.986 5.118-.466.908-.829 1.857-1.346 2.74-1.57 2.857-3.554 5.777-6.106 7.845-.585.489-1.223.896-1.844 1.337"/><path fill="#EFC537" d="M97.535 57.916c4.243-4.047 10.513-4.16 15.546-1.516 1.898 1.267 3.325 3.27 3.924 5.475.522 3.832.177 6.832-1.965 10.045-1.978 1.837-4.461 3.182-7.2 3.28l-.876.047c-3.378.112-5.969-.587-8.724-2.607-2.494-2.447-2.934-4.606-3.04-7.98.056-2.808.461-4.646 2.335-6.744m8.305 2.164c-1.119.012-2.111-.105-3.12.4-1.096 1.073-1.567 1.665-1.767 3.205L101 65.04c.027 1.12-.064 2.11.44 3.12 1.083 1.11 1.687 1.566 3.241 1.79l1.419-.03c1.375-.01 2.386-.011 3.632-.603.971-.752 1.241-1.255 1.628-2.437.192-2.094.427-4.05-.96-5.76-1.116-.751-1.858-.955-3.205-1.065z"/><path fill="#F0C536" d="M76.8 55.04h5.44v14.72h11.52v5.12H76.8z"/><path fill="#ECC33A" d="M54.72 55.04c6.08 0 6.08 0 7.693 1.313l1.147 1.767 1.243 1.849 1.117 1.791.957 1.421C68.8 66.053 68.8 66.053 68.8 66.88h.64l-.159-1.149c-.199-2.137-.191-4.244-.18-6.39l.008-2.442.011-1.859h5.76v19.84c-6.08 0-6.08 0-7.424-.926L66.66 72.7l-.896-1.329-.804-1.291q-.692-.945-1.4-1.88c-1.07-1.481-2.064-2.996-3.08-4.52v11.2h-5.76z"/><path fill="#EDC439" d="M35.52 55.04h17.6v5.12H40.96v2.24h11.52v5.12H40.96v2.24h12.16v5.12h-17.6z"/><path fill="#F0C536" d="M13.12 55.04h5.44v7.36h9.28v-7.36h5.44v19.84h-5.44v-7.36h-9.28v7.36h-5.44z"/><path d="M32 64c17.673 0 32-14.327 32-32S49.673 0 32 0 0 14.327 0 32s14.327 32 32 32"/><path fill="#1CC75D" d="M42.074 28.074c4.556.003 9.112 0 13.668.002.287.001.573-.008.86.006-.063.229-.152.446-.235.667q-1.257 3.26-2.507 6.523a4 4 0 0 1-.112.242 7 7 0 0 1-.443.009c-.883-.008-1.767.01-2.65-.008.08-.316.212-.61.329-.923.505-1.296.992-2.598 1.498-3.893.1-.265.212-.507.267-.785-.67-.01-1.347-.012-2.016 0a3 3 0 0 0-.165.382c-.237.63-.488 1.255-.722 1.887-.38 1.002-.777 1.998-1.148 3.004q-.065.165-.14.325a6 6 0 0 1-.432.011c-.895-.008-1.79.008-2.685-.007.074-.249.175-.484.269-.726q.81-2.107 1.616-4.216c.085-.219.18-.432.239-.661-.671-.01-1.347-.01-2.018 0-.171.305-.262.655-.395.98-.513 1.33-1.02 2.664-1.534 3.995-.084.21-.145.445-.264.636-1.032-.008-2.065.006-3.097-.007.076-.27.19-.52.287-.782.27-.745.57-1.478.856-2.218.372-1.02.78-2.026 1.163-3.043q.05-.143.091-.287c-.242-.393-.591-.712-.85-1.094.081-.03.183-.012.27-.019m-11.702.014a.4.4 0 0 1 .11-.014l10.026.002c.248 0 .495-.007.743.005-.25.696-.538 1.378-.787 2.075-.278.716-.56 1.433-.83 2.153-.275.743-.576 1.476-.854 2.218-.13.326-.236.663-.385.98-.261.042-.518.032-.781.027-.49-.022-.982-.009-1.473-.012-.711.004-1.423-.012-2.133.014-.407-.002-.812-.027-1.219-.01-.474.029-.946-.018-1.422-.004-.86.036-1.716-.002-2.578-.006.162-.477.367-.941.538-1.417.105-.3.228-.591.337-.89.496-1.25.958-2.514 1.456-3.765.033-.114.12-.239.026-.345-.22-.305-.484-.578-.713-.877-.022-.036-.073-.088-.061-.134m2.264 5.602c.272.03.542.017.815.019.729 0 1.457-.003 2.186.002.11 0 .218-.011.327-.024.198-.458.357-.934.545-1.396.217-.545.418-1.095.628-1.642.089-.23.188-.454.26-.69-.959-.015-1.92.002-2.88-.007-.145 0-.295-.007-.439.015-.139.23-.206.505-.31.753-.3.753-.583 1.511-.873 2.268-.09.235-.193.459-.26.702m-13.47-5.615h10.019c.22 0 .44-.005.66.005-.084.283-.208.547-.31.825-.379 1.012-.79 2.012-1.163 3.026-.102.25-.184.515-.314.75-.316.032-.638.011-.955.016-1.84.004-3.684-.008-5.524.006-.149.31-.27.653-.366.984.27.033.54.02.812.021h4.875c.251.001.5-.006.752.008-.11.358-.264.702-.396 1.052-.105.263-.174.513-.313.75-3.075.01-6.16 0-9.237.005a8 8 0 0 1-.333-.007c.133-.417.308-.822.462-1.232.353-.903.69-1.812 1.043-2.715.092-.232.165-.468.272-.694.265-.02.527-.008.793-.01l5.386.002c.097-.001.195-.01.291-.017.165-.273.262-.59.36-.891-2.063-.012-4.13-.002-6.192-.005a6 6 0 0 1-.252-.015c.053-.257.21-.49.243-.748-.041-.098-.12-.185-.187-.267a9 9 0 0 1-.645-.826c.056-.035.154-.014.219-.023m-11.363 0c1.356.008 2.714-.011 4.068.009-.061.328-.221.648-.337.965-.221.599-.486 1.186-.679 1.795.271.034.539.02.81.022a483 483 0 0 1 2.186.001q.165-.002.331-.023c.109-.226.187-.462.276-.696.263-.686.518-1.377.797-2.057.306-.034.62-.01.93-.016.727.005 1.456-.01 2.183.007a3 3 0 0 1-.093.302c-.308.822-.646 1.631-.944 2.457-.525 1.34-1.03 2.688-1.553 4.028-.085.219-.151.44-.266.646a8 8 0 0 1-.444.008c-.882-.008-1.764.01-2.646-.008.08-.333.229-.656.347-.978a63 63 0 0 1 .527-1.389c.059-.145.11-.29.147-.443-.255-.015-.508-.007-.762-.008H7.754c-.252 0-.502.01-.754-.013.119-.402.299-.785.44-1.18.274-.694.541-1.391.812-2.086.034-.12.1-.221.012-.335-.243-.344-.55-.641-.79-.99.1-.032.224-.012.328-.018M31.1 13.012c.713-.008 1.435-.032 2.146.024 1.447.086 2.89.366 4.278.777a18.96 18.96 0 0 1 7.458 4.332 19 19 0 0 1 4.525 6.585c.14.355.295.717.389 1.086q-.255.01-.51-.015a5 5 0 0 1-.128-.307 18.6 18.6 0 0 0-1.836-3.645c-.09-.133-.174-.3-.303-.397-.19-.029-.389-.01-.58-.012h-6.6c-.249 0-.497-.008-.745.006q.036.185.089.368.522 1.873.827 3.793c.015.111.013.221.01.332q-.226.015-.454-.002c-.077-.215-.094-.433-.133-.656a29 29 0 0 0-.63-2.933c-.086-.305-.149-.605-.272-.898-.276-.022-.547-.008-.825-.01l-12.337-.001c-.103-.007-.116.095-.145.17a32 32 0 0 0-.807 3.5c-.05.27-.08.538-.149.803a4 4 0 0 1-.47-.004c.005-.38.095-.727.156-1.1.181-.972.39-1.95.658-2.901a6 6 0 0 0 .121-.461c-.33-.016-.66-.003-.99-.006-2.31.002-4.625-.006-6.934.003-.157.172-.268.367-.394.562a20 20 0 0 0-1.008 1.786c-.401.808-.895 2.267-.895 2.267h-.6c.055-.237.242-.629.327-.855a18.97 18.97 0 0 1 8.827-10.006c2.444-1.31 5.168-2.035 7.934-2.185m-5.562 7.912q.14.011.279.013h11.887c.254-.001.506.006.76-.006-.06-.316-.195-.631-.305-.935a24 24 0 0 0-.893-2.061c-.548-1.031-1.176-2.034-2-2.87-.633-.632-1.384-1.172-2.256-1.415a3.56 3.56 0 0 0-1.986-.003c-.79.219-1.457.665-2.053 1.215-.73.677-1.33 1.52-1.829 2.378-.67 1.161-1.183 2.413-1.604 3.684m3.766-7.212c-1.586.212-3.167.699-4.64 1.319-.424.198-.846.4-1.261.615a18.55 18.55 0 0 0-5.943 5.017q-.09.13-.173.264.157.009.314.011h6.546c.288-.002.568.01.855-.01q.088-.237.163-.478a19.7 19.7 0 0 1 1.507-3.418c.607-1.06 1.326-2.024 2.262-2.816.213-.175.442-.328.65-.507a5 5 0 0 0-.28.003m5.118-.009c.299.24.611.445.893.707.97.885 1.701 1.963 2.306 3.123q.595 1.129 1.027 2.329c.14.351.244.714.38 1.067.303.02.607.006.91.009 2.082.001 4.164-.003 6.246 0a8 8 0 0 0 .563-.011 4 4 0 0 0-.44-.602 18.5 18.5 0 0 0-5.814-4.749 18.4 18.4 0 0 0-4.684-1.679c-.452-.082-.93-.203-1.387-.194m-20.38 23.805c.137-.038.303-.007.444.005q.067.146.12.297a18.2 18.2 0 0 0 2.049 4.193c.264-.012.83-.054 1.094-.055h6.246c.236 0 .473.007.708-.007a3 3 0 0 0-.072-.376 36 36 0 0 1-.735-3.5 3 3 0 0 1-.043-.547c.164-.026.31-.03.473.001.05.229.08.46.111.692.205 1.262.467 2.502.829 3.73.321.015.642.006.963.008h11.729c.266-.002.53.01.796-.01.115-.312.183-.645.269-.967.215-.827.369-1.665.52-2.506.057-.316.079-.634.157-.947.158-.03.32-.03.476 0a3 3 0 0 1-.043.5 35 35 0 0 1-.608 3.026c-.074.299-.16.594-.224.895.195.012.39.011.586.01 2.337-.003 5.155.025 7.491.021.535-.785.875-1.385 1.277-2.246a17 17 0 0 0 .724-1.768q.06-.18.145-.35.255-.032.514-.033c-.18.614-.416 1.215-.664 1.805a18.9 18.9 0 0 1-3.536 5.402c-.39.443-.824.83-1.256 1.23a19.2 19.2 0 0 1-4.143 2.81 20 20 0 0 1-2.523 1.034 19.1 19.1 0 0 1-5.29.93c-.601.001-1.209.022-1.81-.03a18.6 18.6 0 0 1-3.905-.663 18.8 18.8 0 0 1-6.716-3.454 18.93 18.93 0 0 1-6.177-8.972c-.011-.051-.044-.13.024-.158m15.578 12.58c-.232-.184-.477-.352-.707-.54-.939-.795-1.643-1.762-2.253-2.823a20 20 0 0 1-1.595-3.692c-.061-.191-.113-.385-.198-.569-2.472-.015-4.949.003-7.421-.008-.117.004-.248-.016-.36.016-.092.059-.021.122.018.187a19 19 0 0 0 2.9 3.155 18.5 18.5 0 0 0 5.385 3.24c1.082.404 2.214.747 3.354.937.291.054.579.105.877.097m-4.181-7.623c.079.385.218.747.352 1.118.465 1.271 1.02 2.485 1.759 3.621.444.663.958 1.314 1.559 1.84.404.344.853.678 1.342.888.626.26 1.283.403 1.962.317.997-.117 1.887-.628 2.61-1.306.829-.761 1.432-1.658 1.99-2.626a21 21 0 0 0 1.495-3.538c.03-.103.046-.207.063-.313-.306-.018-.61-.006-.917-.008H26.178c-.247 0-.493-.006-.74.007m8.87 7.67c1.72-.192 3.42-.68 5.01-1.358.524-.23 1.033-.493 1.541-.755a18.8 18.8 0 0 0 3.468-2.47 19.5 19.5 0 0 0 2.09-2.224c.217-.277.446-.556.618-.858-.333-.023-.67-.008-1.005-.01q-3.173 0-6.347-.003c-.17.001-.343-.008-.514.01-.13.213-.17.481-.258.714-.248.702-.493 1.415-.81 2.088-.19.37-.339.758-.55 1.118-.64 1.166-1.45 2.358-2.491 3.202-.239.199-.5.365-.753.545"/></svg>
