<svg width="128" height="128" viewBox="0 0 128 128" fill="none" xmlns="http://www.w3.org/2000/svg">
<g clip-path="url(#clip0_175_431)">
<path d="M64 128C99.346 128 128 99.346 128 64C128 28.654 99.346 0 64 0C28.654 0 0 28.654 0 64C0 99.346 28.654 128 64 128Z" fill="#2F63F9"/>
<path d="M91.3 25.24C93.433 26.817 95.374 28.558 97.28 30.4L98.009 31.09C102.995 35.914 106.696 42.384 108.8 48.96V49.92H107.52L107.19 49.05C105.47 44.621 103.532 40.704 100.8 36.8C95.283 36.337 95.283 36.337 88.98 36.44L82.471 36.437L77.44 36.48L78.72 41.6C79.312 44.371 79.535 47.092 79.68 49.92H78.4L78.073 47.874L77.64 45.18L77.213 42.514C76.879 40.4998 76.528 38.4884 76.16 36.48H53.12C51.837 43.184 51.837 43.184 50.88 49.92H49.6C49.681 45.457 50.66 41.165 51.52 36.8C47.7266 36.716 43.9333 36.6494 40.14 36.6L33.739 36.487L28.48 36.8C25.534 41.008 23.441 45.075 21.76 49.92H20.48C22.445 39.947 29.976 30.612 38.265 25.014C54.663 14.624 74.975 13.989 91.3 25.24Z" fill="#E6C040"/>
<path d="M21.76 80H23.04L23.521 80.985C24.736 83.447 25.987 85.857 27.409 88.206C27.84 88.96 27.84 88.96 28.16 89.92L51.52 89.6L49.92 81.28V80H51.2C51.86 83.302 52.49 86.611 53.12 89.92H76.16C76.6476 87.0144 77.1186 84.106 77.573 81.195L77.76 80H79.36C79.13 82.034 78.783 84.03 78.4 86.04L78.06 87.837C77.76 89.28 77.76 89.28 77.44 89.92C81.273 89.987 85.107 90.02 88.94 90.04L95.409 90.107L100.8 89.6C103.144 85.996 103.144 85.996 105.14 82.28L105.781 80.963L106.24 80H107.52C106.308 86.062 101.76 91.322 97.6 95.68L96.821 96.521C89.409 104.299 78.081 109.114 67.419 109.516C59.616 109.596 52.177 108.792 45.12 105.28L43.916 104.695C37.633 101.522 32.089 97.152 27.84 91.52L27.255 90.745C21.76 83.171 21.76 83.171 21.76 80Z" fill="#E4BF42"/>
<path d="M113.081 56.4C114.979 57.667 116.406 59.67 117.005 61.875C117.527 65.707 117.182 68.707 115.04 71.92C113.062 73.757 110.579 75.102 107.84 75.2L106.964 75.247C103.586 75.359 100.995 74.66 98.24 72.64C95.746 70.193 95.306 68.034 95.2 64.66C95.256 61.852 95.661 60.014 97.535 57.916C101.778 53.869 108.048 53.756 113.081 56.4Z" fill="#EFC537"/>
<path d="M54.72 55.04C60.8 55.04 60.8 55.04 62.413 56.353L63.56 58.12L64.803 59.969L65.92 61.76L66.877 63.181C68.8 66.053 68.8 66.053 68.8 66.88H69.44L69.281 65.731C69.082 63.594 69.09 61.487 69.101 59.341L69.109 56.899L69.12 55.04H74.88V74.88C68.8 74.88 68.8 74.88 67.456 73.954L66.66 72.7L65.764 71.371L64.96 70.08C64.4986 69.45 64.032 68.8233 63.56 68.2C62.49 66.719 61.496 65.204 60.48 63.68V74.88H54.72V55.04Z" fill="#ECC33A"/>
<path d="M35.52 55.04H53.12V60.16H40.96V62.4H52.48V67.52H40.96V69.76H53.12V74.88H35.52V55.04Z" fill="#EDC439"/>
<path d="M29.76 91.2H52.16C52.6767 92.5711 53.1847 93.9455 53.684 95.323C55.364 99.895 57.121 103.951 60.48 107.52V107.84C55.494 108.011 50.577 106.371 46.08 104.32L44.947 103.812C39.222 101.108 33.672 96.847 29.76 91.84V91.2Z" fill="#3264F6"/>
<path d="M13.12 55.04H18.56V62.4H27.84V55.04H33.28V74.88H27.84V67.52H18.56V74.88H13.12V55.04Z" fill="#F0C536"/>
<path d="M82.051 91.169L88.34 91.18L94.631 91.189L99.52 91.2C95.63 98.978 85.281 103.868 77.44 106.56C74.586 107.42 71.77 107.711 68.8 107.84L69.64 106.76C72.83 102.48 74.824 97.711 76.427 92.643C77.363 89.824 77.57 91.197 82.051 91.169Z" fill="#3264F6"/>
<path d="M60.48 18.56L59.66 19.62C56.06 24.462 54.174 29.492 52.16 35.2H29.76C33.49 27.738 43.302 22.865 50.74 20.2C53.874 19.214 57.19 18.56 60.48 18.56ZM68.8 18.56C79.543 18.6 89.712 24.73 97.12 32.04C99.52 34.461 99.52 34.461 99.52 35.2H77.12C76.16 32.64 76.16 32.64 75.725 31.427C74.199 27.217 72.486 23.475 69.702 19.945C69.12 19.2 69.12 19.2 68.8 18.56Z" fill="#3164F7"/>
<path d="M65.5999 18.24C70.2479 20.347 72.4319 25.511 74.1879 29.974C75.5199 33.643 75.5199 33.643 75.5199 35.2H53.4399C55.1139 29.063 57.3889 22.47 62.7199 18.56C63.7529 18.044 64.4499 18.112 65.5999 18.24Z" fill="#3164F7"/>
<path d="M53.4399 91.2H75.5199C74.7259 96.76 72.0259 103.184 67.6829 106.927C66.2059 108.017 65.1729 108.402 63.3599 108.16C57.5119 104.505 55.2499 97.533 53.4399 91.2Z" fill="#3264F6"/>
<path d="M76.8 55.04H82.24V69.76H93.76V74.88H76.8V55.04Z" fill="#F0C536"/>
<path d="M105.84 60.08L107.195 60.055C108.542 60.165 109.284 60.369 110.4 61.12C111.787 62.831 111.552 64.786 111.36 66.88C110.973 68.062 110.703 68.565 109.732 69.317C108.486 69.909 107.475 69.91 106.1 69.92L104.681 69.95C103.127 69.726 102.523 69.271 101.44 68.16C100.935 67.15 101.027 66.16 101 65.04L100.953 63.685C101.153 62.145 101.624 61.553 102.72 60.48C103.729 59.975 104.721 60.092 105.84 60.08Z" fill="#3264F6"/>
<g clip-path="url(#clip1_175_431)">
<path d="M76 0H128V52H76V0ZM83.1178 19.9961C83.3112 19.9992 83.5046 20.0054 83.6981 20.0179C84.1702 18.6004 84.7246 17.1423 85.5295 15.8777C85.7053 15.6021 85.8758 15.2922 86.113 15.0644C86.2669 15.0186 86.4406 15.0134 86.6007 15.0072C89.339 15.003 92.0794 15.0311 94.8178 14.9885C94.5588 16.6535 94.0378 18.3061 93.9046 19.9888C94.0856 19.9982 94.2634 20.0158 94.4423 20.0418C94.6846 19.214 94.7169 18.3706 94.8885 17.5313C95.0653 16.6837 95.2057 15.8402 95.4854 15.0176C96.9342 14.9729 98.3714 15.0561 99.8181 14.9583C102.245 14.9427 104.674 14.9666 107.1 14.9448C107.537 14.9396 107.969 14.9833 108.401 15.027C108.742 15.9796 108.881 16.9239 109.094 17.9223C109.231 18.5463 109.224 19.1901 109.369 19.8089C109.431 20.1063 109.769 19.9846 109.985 20.0065C109.944 19.1693 109.745 18.3217 109.593 17.4949C109.443 16.6722 109.255 15.859 109.084 15.0415C109.419 15.0186 109.753 14.9937 110.089 14.9937C112.455 15.0249 114.822 15.0041 117.188 14.9999C117.385 15.0062 117.598 15.0041 117.787 15.0623C118.072 15.3067 118.264 15.6801 118.461 15.9952C119.061 16.9832 119.501 18.0357 119.898 19.1183C120.01 19.422 120.14 19.7184 120.28 20.0096C120.454 20.0086 120.627 20.0065 120.801 20.0054C120.715 19.6175 120.617 19.2348 120.475 18.8635C119.84 17.3087 119.124 15.8038 118.148 14.43C115.181 10.0578 110.38 7.17704 105.192 6.33152C103.534 5.99248 101.922 6.05696 100.24 6.0944C97.8244 6.37312 95.4657 6.94408 93.2744 8.01944C91.6021 8.79008 90.1003 9.84568 88.7119 11.049C87.8092 11.8425 87.0084 12.7618 86.295 13.728C85.4078 14.8564 84.6684 16.12 84.0642 17.421C83.7158 18.2894 83.2873 19.1027 83.1178 19.9961ZM83.3268 23.9834C84.1796 23.997 85.0334 24.0022 85.8862 23.9907C86.4094 24.0417 86.6194 23.3137 87.127 23.2762C87.6085 23.2284 88.1004 23.2554 88.584 23.2502C89.5034 23.2596 90.4248 23.2388 91.3431 23.2856C91.1944 23.8285 91.003 24.4078 90.6775 24.8726C90.4654 25.1784 90.067 25.167 89.7342 25.193C88.0682 25.219 86.3979 25.1878 84.7318 25.194C84.1297 25.1982 83.4277 25.299 82.9202 25.6443C82.4116 26.0198 82.1433 26.7582 81.901 27.3218C81.512 28.3317 81.0742 29.3207 80.6852 30.3306C82.1142 30.5011 83.513 30.2744 84.944 30.3732C87.2986 30.3129 89.65 30.3597 92.0025 30.3378C92.2739 29.7409 92.5256 29.1356 92.7336 28.5126C91.9692 28.4357 91.2214 28.5449 90.456 28.5251C89.5543 28.5126 88.6526 28.5282 87.752 28.5064C86.8576 28.4513 85.9632 28.4877 85.0678 28.4554C85.2154 28.0738 85.3423 27.6016 85.62 27.2948C85.8176 27.0702 86.1202 27.0962 86.3927 27.0826C88.0942 27.0878 89.7956 27.093 91.497 27.0795C92.3072 27.0546 93.0924 26.9308 93.627 26.261C94.045 25.6745 94.2634 24.9298 94.5567 24.2736C94.7855 23.6902 95.163 22.9923 95.0819 22.3548C95.0466 21.9326 94.6992 21.6403 94.3102 21.5363C93.8755 21.4302 93.3961 21.4625 92.952 21.4562C90.8023 21.4781 88.6537 21.4448 86.504 21.4666C85.879 21.4791 85.2477 21.4105 84.6247 21.4583C84.3876 21.4708 84.3439 21.6954 84.2482 21.8702C83.9518 22.5805 83.6024 23.2658 83.3268 23.9834ZM99.504 30.3524C100.927 30.3285 102.349 30.3514 103.772 30.3399C104.236 30.3337 104.677 30.2754 105.063 29.9988C105.494 29.6889 105.724 29.2521 105.918 28.7716C106.52 27.2314 107.15 25.7036 107.761 24.1675C107.972 23.6132 108.269 23.0412 108.363 22.4546C108.418 22.1239 108.215 21.787 107.936 21.6206C107.657 21.449 107.314 21.4552 106.998 21.449C104.36 21.4666 101.721 21.4573 99.0828 21.4594C98.6418 21.4625 98.2269 21.4999 97.8514 21.7516C97.3481 22.0802 97.1047 22.6356 96.8822 23.1702C96.15 24.9694 95.4376 26.7779 94.6815 28.5657C94.5338 28.9328 94.3851 29.3186 94.4309 29.7222C94.4652 30.0685 94.8146 30.3181 95.1464 30.3337C95.9035 30.3732 96.6648 30.3191 97.424 30.3638C98.1177 30.4065 98.8103 30.3909 99.504 30.3524ZM110.891 21.476C110.582 21.9866 110.395 22.5971 110.173 23.1525C109.41 25.0598 108.631 26.963 107.887 28.8777C107.685 29.3634 107.479 29.8449 107.316 30.3462C108.367 30.4106 109.444 30.4127 110.493 30.3285C111.144 28.8662 111.687 27.3562 112.272 25.8679C112.367 25.6225 112.487 25.3895 112.616 25.1618C113.027 26.8892 112.736 28.5844 113.126 30.3462C113.908 30.3254 114.709 30.3961 115.484 30.3108C115.838 30.1704 116.09 29.7034 116.346 29.4268C116.985 28.6458 117.66 27.8949 118.288 27.1024C118.92 26.3921 119.439 25.6287 120.152 25.0453C120.021 25.479 119.869 25.9012 119.689 26.3172C119.292 27.249 118.951 28.2027 118.547 29.1314C118.378 29.5277 118.228 29.926 118.101 30.3378C118.489 30.3722 118.875 30.395 119.264 30.3649C119.986 30.317 120.703 30.3524 121.426 30.3378C121.782 29.5953 122.02 28.809 122.355 28.0582C122.776 26.988 123.237 25.9345 123.636 24.856C124.069 23.7245 124.545 22.6044 124.938 21.4583C123.458 21.4531 121.988 21.4542 120.506 21.4479C119.991 21.4053 119.69 21.9367 119.388 22.2695C118.851 22.9445 118.287 23.5955 117.723 24.2455C117.174 24.8716 116.709 25.5372 116.108 26.1196C115.969 25.3729 115.982 24.622 115.915 23.869C115.854 23.0537 115.913 22.2633 115.74 21.4573C114.592 21.4666 113.444 21.4583 112.296 21.4458C111.825 21.4438 111.362 21.4302 110.891 21.476ZM109.438 31.8791C109.256 32.579 109.216 33.3143 109.072 34.0278C108.891 34.9783 108.741 35.984 108.408 36.8867C108.076 36.9242 107.743 36.9543 107.408 36.9533C104.254 36.9439 101.098 36.9678 97.944 36.9533C97.1182 36.946 96.306 36.9949 95.4834 36.8898C95.0143 35.2768 94.7429 33.6003 94.4933 31.9415C94.3061 31.9342 94.1189 31.9176 93.9327 31.8978C93.9338 32.5447 94.0773 33.1604 94.1969 33.7906C94.3726 34.8306 94.6399 35.853 94.8188 36.8919C94.019 36.9918 93.2338 36.9408 92.432 36.9512C90.5943 36.9585 88.7566 36.9439 86.919 36.9616C86.661 36.9554 86.374 36.971 86.1275 36.8888C85.958 36.8004 85.8446 36.5893 85.7365 36.4364C85.2508 35.645 84.8015 34.8514 84.4396 33.9945C84.1505 33.3154 83.9456 32.6092 83.6627 31.927C83.4724 31.9218 83.2862 31.9342 83.097 31.9602C83.253 32.6976 83.5223 33.3934 83.8333 34.0777C84.3554 35.3038 85.0262 36.4499 85.7614 37.5596C86.6038 38.7598 87.596 39.8902 88.6766 40.8824C89.6302 41.6967 90.5642 42.483 91.6624 43.0986C93.1922 44.0336 94.85 44.7242 96.566 45.2338C97.4219 45.4802 98.282 45.6227 99.1587 45.7694C100.428 45.9784 101.762 45.9472 103.044 45.917C104.929 45.8026 106.792 45.4875 108.574 44.849C110.326 44.2666 111.936 43.3857 113.45 42.3363C114.074 41.8954 114.655 41.4014 115.223 40.8918C116.123 40.1294 116.905 39.2205 117.623 38.2876C118.349 37.3651 118.943 36.323 119.505 35.2945C120.054 34.2118 120.567 33.0606 120.817 31.8687C120.626 31.8729 120.437 31.8718 120.247 31.8646C120.038 32.3981 119.877 32.9472 119.672 33.4818C119.232 34.5925 118.706 35.725 118.007 36.6995C117.835 36.9793 117.474 36.9356 117.19 36.9574C115.317 36.9522 113.442 36.9502 111.568 36.947C110.733 36.9387 109.919 36.9949 109.086 36.8982C109.151 36.3303 109.302 35.7864 109.436 35.2331C109.613 34.4022 109.742 33.5598 109.883 32.7215C109.936 32.4303 109.957 32.135 109.923 31.8386C109.76 31.8479 109.599 31.8594 109.438 31.8791Z" fill="black" stroke="black" stroke-width="17.7778"/>
<path d="M100.24 6.0944C101.922 6.05696 103.534 5.99249 105.192 6.33153C110.38 7.17705 115.181 10.0578 118.148 14.43C119.124 15.8038 119.84 17.3087 120.475 18.8635C120.617 19.2348 120.715 19.6175 120.801 20.0054C120.627 20.0065 120.454 20.0086 120.28 20.0096C120.14 19.7184 120.01 19.422 119.898 19.1183C119.501 18.0357 119.061 16.9832 118.461 15.9952C118.264 15.6801 118.072 15.3067 117.787 15.0623C117.598 15.0041 117.385 15.0062 117.188 14.9999C114.822 15.0041 112.455 15.0249 110.089 14.9937C109.753 14.9937 109.419 15.0186 109.085 15.0415C109.255 15.859 109.443 16.6722 109.593 17.4949C109.745 18.3217 109.944 19.1693 109.985 20.0065C109.769 19.9846 109.431 20.1063 109.369 19.8089C109.224 19.1901 109.231 18.5463 109.094 17.9223C108.881 16.9239 108.742 15.9796 108.401 15.027C107.969 14.9833 107.537 14.9396 107.1 14.9448C104.674 14.9666 102.245 14.9427 99.8181 14.9583C98.3715 15.0561 96.9342 14.9729 95.4855 15.0176C95.2057 15.8402 95.0653 16.6837 94.8885 17.5313C94.7169 18.3706 94.6847 19.214 94.4424 20.0418C94.2635 20.0158 94.0856 19.9982 93.9047 19.9888C94.0378 18.3061 94.5588 16.6535 94.8178 14.9885C92.0795 15.0311 89.3391 15.003 86.6008 15.0072C86.4406 15.0134 86.2669 15.0186 86.113 15.0644C85.8759 15.2922 85.7053 15.6021 85.5296 15.8777C84.7246 17.1423 84.1703 18.6004 83.6981 20.0179C83.5047 20.0054 83.3112 19.9992 83.1178 19.9961C83.2873 19.1027 83.7158 18.2894 84.0642 17.421C84.6684 16.12 85.4079 14.8564 86.295 13.728C87.0084 12.7618 87.8092 11.8425 88.712 11.049C90.1004 9.84568 91.6021 8.79009 93.2744 8.01945C95.4657 6.94409 97.8244 6.37312 100.24 6.0944ZM95.7465 14.3541C97.1994 14.4716 98.671 14.3811 100.128 14.4019C102 14.4113 103.872 14.3894 105.744 14.405C106.565 14.404 107.379 14.4362 108.197 14.3582C107.915 13.1695 107.436 12.0203 106.887 10.9314C106.459 10.0402 105.95 9.20504 105.283 8.4708C104.848 7.9924 104.364 7.4724 103.805 7.13856C103.19 6.77768 102.511 6.552 101.79 6.5832C101.02 6.58736 100.265 6.99504 99.6652 7.4464C98.8551 8.1068 98.1905 8.90657 97.6539 9.80305C96.9581 10.8399 96.5244 11.959 96.0793 13.1186C95.9254 13.519 95.8235 13.9329 95.7465 14.3541ZM108.904 14.3842C110.588 14.4404 112.275 14.378 113.96 14.3926C115.069 14.378 116.196 14.4591 117.298 14.3572C116.814 13.5138 116.165 12.8918 115.505 12.1826C113.435 10.1504 110.897 8.59561 108.14 7.68873C107.555 7.49321 106.989 7.28624 106.379 7.17184C105.778 7.0564 105.177 6.94616 104.576 6.83696C105.205 7.56392 105.951 8.1952 106.486 9.03552C107.278 10.2856 107.935 11.6272 108.417 13.0281C108.566 13.4857 108.715 13.9412 108.904 14.3842ZM86.6101 14.3614C87.3392 14.4134 88.0609 14.3967 88.792 14.3978C90.8564 14.379 92.9219 14.4238 94.9852 14.3926C95.472 13.2517 95.7964 12.0307 96.3726 10.9106C96.9404 9.79785 97.6102 8.62161 98.5036 7.73656C98.7802 7.45264 99.0589 7.1708 99.322 6.87336C98.5129 6.90976 97.7579 7.09281 96.9664 7.27793C95.2692 7.73865 93.6228 8.46665 92.094 9.33401C90.4217 10.3022 88.9272 11.5544 87.6428 12.9958C87.231 13.4014 86.9055 13.8663 86.6101 14.3614Z" fill="black" stroke="#868685" stroke-width="17.7778"/>
<path d="M101.79 6.58319C102.511 6.55199 103.19 6.77767 103.805 7.13855C104.364 7.47239 104.848 7.99239 105.283 8.47079C105.95 9.20503 106.458 10.0402 106.887 10.9314C107.436 12.0203 107.914 13.1695 108.197 14.3582C107.379 14.4362 106.565 14.404 105.744 14.405C103.872 14.3894 102 14.4113 100.128 14.4019C98.6709 14.3811 97.1993 14.4716 95.7465 14.3541C95.8234 13.9329 95.9253 13.519 96.0793 13.1186C96.5244 11.959 96.9581 10.8399 97.6538 9.80303C98.1905 8.90655 98.855 8.10679 99.6652 7.44639C100.265 6.99503 101.02 6.58735 101.79 6.58319Z" fill="black" stroke="black" stroke-width="17.7778"/>
<path d="M104.576 6.83698C105.177 6.94618 105.778 7.05642 106.379 7.17186C106.989 7.28626 107.555 7.49322 108.14 7.68874C110.897 8.59562 113.435 10.1504 115.505 12.1826C116.165 12.8919 116.814 13.5138 117.298 14.3572C116.196 14.4591 115.069 14.378 113.96 14.3926C112.275 14.378 110.588 14.4404 108.903 14.3843C108.715 13.9412 108.565 13.4857 108.417 13.0281C107.935 11.6272 107.278 10.2856 106.485 9.03554C105.951 8.19522 105.205 7.56394 104.576 6.83698Z" fill="black" stroke="black" stroke-width="17.7778"/>
<path d="M99.322 6.87335C99.0589 7.17079 98.7802 7.45263 98.5035 7.73655C97.6102 8.62159 96.9404 9.79783 96.3726 10.9106C95.7964 12.0307 95.4719 13.2517 94.9852 14.3926C92.9219 14.4238 90.8564 14.379 88.792 14.3978C88.0609 14.3967 87.3391 14.4134 86.6101 14.3614C86.9055 13.8663 87.231 13.4014 87.6428 12.9958C88.9272 11.5544 90.4217 10.3022 92.094 9.33399C93.6228 8.46663 95.2691 7.73863 96.9664 7.27791C97.7579 7.09279 98.5129 6.90975 99.322 6.87335Z" fill="black" stroke="black" stroke-width="17.7778"/>
<path d="M84.6247 21.4583C85.2477 21.4105 85.8789 21.4791 86.504 21.4667C88.6537 21.4448 90.8023 21.4781 92.952 21.4563C93.3961 21.4625 93.8755 21.4303 94.3102 21.5363C94.6992 21.6403 95.0465 21.9326 95.0819 22.3548C95.163 22.9923 94.7855 23.6902 94.5567 24.2736C94.2634 24.9299 94.045 25.6745 93.6269 26.2611C93.0924 26.9308 92.3072 27.0546 91.497 27.0795C89.7956 27.0931 88.0941 27.0879 86.3927 27.0827C86.1202 27.0962 85.8176 27.0702 85.62 27.2948C85.3423 27.6016 85.2154 28.0738 85.0677 28.4555C85.9632 28.4877 86.8576 28.4513 87.752 28.5064C88.6526 28.5283 89.5543 28.5127 90.456 28.5251C91.2214 28.5449 91.9692 28.4357 92.7336 28.5127C92.5256 29.1356 92.2739 29.7409 92.0025 30.3379C89.65 30.3597 87.2985 30.3129 84.944 30.3732C83.5129 30.2744 82.1141 30.5011 80.6852 30.3306C81.0741 29.3207 81.512 28.3317 81.9009 27.3219C82.1433 26.7582 82.4116 26.0198 82.9201 25.6443C83.4277 25.2991 84.1297 25.1982 84.7318 25.194C86.3979 25.1878 88.0681 25.219 89.7342 25.193C90.067 25.167 90.4653 25.1784 90.6775 24.8727C91.003 24.4078 91.1944 23.8285 91.3431 23.2856C90.4248 23.2388 89.5033 23.2596 88.584 23.2503C88.1004 23.2555 87.6085 23.2284 87.1269 23.2763C86.6194 23.3137 86.4093 24.0417 85.8862 23.9907C85.0334 24.0022 84.1796 23.997 83.3268 23.9835C83.6024 23.2659 83.9518 22.5805 84.2482 21.8702C84.3439 21.6955 84.3876 21.4708 84.6247 21.4583Z" fill="black" stroke="#868685" stroke-width="17.7778"/>
<path d="M99.0828 21.4594C101.721 21.4573 104.36 21.4667 106.998 21.449C107.314 21.4552 107.657 21.449 107.936 21.6206C108.215 21.787 108.418 22.1239 108.363 22.4547C108.269 23.0412 107.972 23.6132 107.761 24.1675C107.15 25.7036 106.52 27.2314 105.918 28.7716C105.724 29.2521 105.494 29.6889 105.063 29.9988C104.677 30.2755 104.236 30.3337 103.772 30.3399C102.349 30.3514 100.927 30.3285 99.504 30.3524C98.8104 30.3909 98.1177 30.4065 97.424 30.3639C96.6648 30.3191 95.9036 30.3732 95.1464 30.3337C94.8147 30.3181 94.4652 30.0685 94.4309 29.7222C94.3852 29.3187 94.5339 28.9328 94.6816 28.5657C95.4376 26.7779 96.15 24.9694 96.8822 23.1702C97.1048 22.6356 97.3481 22.0803 97.8515 21.7516C98.2269 21.4999 98.6419 21.4625 99.0828 21.4594ZM98.6336 28.4492C99.3054 28.4731 99.9772 28.4659 100.648 28.5002C101.131 28.5137 101.682 28.5688 102.146 28.4201C102.435 28.2943 102.602 27.9365 102.728 27.6671C103.212 26.5387 103.641 25.3854 104.096 24.2466C104.218 23.9491 104.259 23.6392 104.285 23.322C103.445 23.2149 102.643 23.2752 101.793 23.2575C101.455 23.2659 101.037 23.2232 100.728 23.374C100.455 23.5009 100.323 23.841 100.204 24.0989C99.7599 25.1815 99.3376 26.2715 98.8748 27.3447C98.7126 27.7129 98.6419 28.0478 98.6336 28.4492Z" fill="black" stroke="#868685" stroke-width="17.7778"/>
<path d="M112.296 21.4458C113.444 21.4583 114.592 21.4666 115.741 21.4573C115.913 22.2633 115.854 23.0537 115.915 23.869C115.982 24.622 115.969 25.3729 116.108 26.1196C116.709 25.5372 117.174 24.8716 117.723 24.2455C118.287 23.5955 118.851 22.9445 119.388 22.2695C119.69 21.9367 119.991 21.4053 120.506 21.4479C121.988 21.4542 123.458 21.4531 124.938 21.4583C124.545 22.6044 124.069 23.7245 123.636 24.856C123.237 25.9345 122.776 26.988 122.355 28.0582C122.02 28.809 121.782 29.5953 121.426 30.3378C120.703 30.3524 119.986 30.317 119.264 30.3649C118.875 30.395 118.489 30.3722 118.101 30.3378C118.228 29.926 118.378 29.5277 118.547 29.1314C118.951 28.2027 119.292 27.249 119.689 26.3172C119.869 25.9012 120.021 25.479 120.152 25.0453C119.439 25.6287 118.92 26.3921 118.289 27.1024C117.66 27.8949 116.985 28.6458 116.346 29.4268C116.09 29.7034 115.838 30.1704 115.484 30.3108C114.709 30.3961 113.908 30.3254 113.126 30.3462C112.736 28.5844 113.027 26.8892 112.616 25.1618C112.487 25.3895 112.367 25.6225 112.272 25.8679C111.687 27.3562 111.144 28.8662 110.493 30.3285C109.444 30.4127 108.367 30.4106 107.317 30.3462C107.479 29.8449 107.685 29.3634 107.887 28.8777C108.631 26.963 109.41 25.0598 110.173 23.1525C110.395 22.5971 110.582 21.9866 110.891 21.476C111.362 21.4302 111.825 21.4438 112.296 21.4458Z" fill="black" stroke="#868685" stroke-width="17.7778"/>
<path d="M101.793 23.2575C102.643 23.2752 103.445 23.2149 104.285 23.322C104.259 23.6392 104.218 23.9491 104.096 24.2466C103.641 25.3854 103.212 26.5387 102.728 27.6671C102.602 27.9365 102.435 28.2943 102.146 28.4201C101.682 28.5688 101.131 28.5137 100.648 28.5002C99.9772 28.4659 99.3054 28.4731 98.6335 28.4492C98.6419 28.0478 98.7126 27.7129 98.8748 27.3447C99.3376 26.2715 99.7599 25.1815 100.204 24.0989C100.323 23.841 100.455 23.5009 100.728 23.374C101.037 23.2232 101.455 23.2659 101.793 23.2575Z" fill="black" stroke="black" stroke-width="17.7778"/>
<path d="M109.923 31.8386C109.957 32.135 109.936 32.4303 109.883 32.7215C109.742 33.5598 109.613 34.4022 109.436 35.2331C109.302 35.7864 109.151 36.3303 109.085 36.8982C109.919 36.9949 110.733 36.9387 111.568 36.947C113.442 36.9502 115.317 36.9522 117.19 36.9574C117.474 36.9356 117.835 36.9793 118.007 36.6995C118.705 35.725 119.232 34.5925 119.672 33.4818C119.877 32.9472 120.038 32.3981 120.247 31.8646C120.437 31.8718 120.626 31.8729 120.817 31.8687C120.567 33.0606 120.054 34.2118 119.505 35.2945C118.943 36.323 118.349 37.3651 117.623 38.2876C116.905 39.2205 116.123 40.1294 115.223 40.8918C114.655 41.4014 114.074 41.8954 113.45 42.3363C111.936 43.3857 110.326 44.2666 108.574 44.849C106.792 45.4875 104.929 45.8026 103.044 45.917C101.762 45.9472 100.427 45.9784 99.1587 45.7694C98.282 45.6227 97.4219 45.4802 96.566 45.2338C94.85 44.7242 93.1922 44.0336 91.6624 43.0986C90.5641 42.483 89.6302 41.6967 88.6765 40.8824C87.596 39.8902 86.6038 38.7598 85.7614 37.5596C85.0261 36.4499 84.3553 35.3038 83.8332 34.0777C83.5223 33.3934 83.2529 32.6976 83.0969 31.9602C83.2862 31.9342 83.4724 31.9218 83.6627 31.927C83.9456 32.6092 84.1504 33.3154 84.4396 33.9945C84.8015 34.8514 85.2508 35.645 85.7364 36.4364C85.8446 36.5893 85.958 36.8004 86.1275 36.8888C86.374 36.971 86.661 36.9554 86.9189 36.9616C88.7566 36.9439 90.5943 36.9585 92.432 36.9512C93.2338 36.9408 94.019 36.9918 94.8188 36.8919C94.6399 35.853 94.3726 34.8306 94.1968 33.7906C94.0772 33.1604 93.9337 32.5447 93.9327 31.8978C94.1188 31.9176 94.306 31.9342 94.4932 31.9415C94.7428 33.6003 95.0143 35.2768 95.4833 36.8898C96.306 36.9949 97.1182 36.946 97.944 36.9533C101.098 36.9678 104.254 36.9439 107.408 36.9533C107.743 36.9543 108.076 36.9242 108.408 36.8867C108.741 35.984 108.891 34.9783 109.072 34.0278C109.215 33.3143 109.256 32.579 109.438 31.8791C109.599 31.8594 109.76 31.8479 109.923 31.8386ZM86.5497 37.518C87.052 38.4519 87.7821 39.155 88.5268 39.8902C89.3608 40.7274 90.2854 41.4856 91.2755 42.1314C92.2229 42.719 93.1308 43.2952 94.1688 43.7143C95.7974 44.4049 97.6278 45.0902 99.4104 45.137C98.8529 44.5723 98.2788 44.0461 97.8025 43.4065C97.1182 42.4954 96.542 41.4887 96.0834 40.4466C95.656 39.4815 95.3908 38.4644 94.9852 37.493C93.0268 37.4244 91.0633 37.4691 89.104 37.4577C88.2543 37.4722 87.3848 37.4109 86.5497 37.518ZM95.6664 37.5201C96.0844 38.9584 96.6398 40.352 97.3553 41.6686C98.076 42.9062 98.9143 44.0326 100.134 44.8188C100.867 45.2743 101.735 45.5291 102.591 45.2889C103.639 45.0507 104.47 44.4184 105.176 43.6322C106.184 42.5038 106.914 41.0821 107.476 39.6864C107.764 38.9542 108.075 38.272 108.19 37.4847C106.129 37.4171 104.062 37.4826 102 37.4462C100.927 37.4067 99.8503 37.4182 98.776 37.4327C97.7328 37.493 96.7064 37.3994 95.6664 37.5201ZM108.924 37.5034C108.659 38.0619 108.515 38.6755 108.285 39.2517C107.707 40.7337 107.072 42.145 106.114 43.4262C105.661 44.0315 105.07 44.5505 104.558 45.1235C105.155 45.0954 105.746 45.0226 106.326 44.8843C109.968 44.0253 113.323 42.0909 115.921 39.4025C116.461 38.8086 116.984 38.2086 117.407 37.5232C116.916 37.4702 116.429 37.4494 115.936 37.4546C114.341 37.4681 112.746 37.4629 111.152 37.4566C110.415 37.465 109.657 37.4275 108.924 37.5034Z" fill="black" stroke="#868685" stroke-width="17.7778"/>
<path d="M89.104 37.4577C91.0634 37.4691 93.0269 37.4244 94.9852 37.493C95.3908 38.4644 95.656 39.4815 96.0835 40.4466C96.5421 41.4887 97.1183 42.4954 97.8026 43.4065C98.2789 44.0461 98.853 44.5723 99.4104 45.137C97.6279 45.0902 95.7975 44.4049 94.1688 43.7143C93.1309 43.2952 92.223 42.719 91.2756 42.1314C90.2855 41.4856 89.3609 40.7274 88.5268 39.8902C87.7822 39.155 87.0521 38.4519 86.5498 37.518C87.3849 37.4109 88.2544 37.4722 89.104 37.4577Z" fill="black" stroke="black" stroke-width="17.7778"/>
<path d="M98.776 37.4327C99.8503 37.4182 100.927 37.4067 102 37.4462C104.062 37.4826 106.129 37.4171 108.19 37.4847C108.075 38.272 107.764 38.9542 107.476 39.6864C106.914 41.0821 106.184 42.5038 105.176 43.6322C104.47 44.4184 103.639 45.0507 102.591 45.2889C101.735 45.5291 100.867 45.2743 100.134 44.8188C98.9143 44.0326 98.0761 42.9062 97.3553 41.6686C96.6398 40.352 96.0845 38.9584 95.6664 37.5201C96.7064 37.3994 97.7329 37.493 98.776 37.4327Z" fill="black" stroke="black" stroke-width="17.7778"/>
<path d="M111.152 37.4566C112.746 37.4629 114.341 37.4681 115.936 37.4546C116.429 37.4494 116.916 37.4702 117.407 37.5232C116.984 38.2086 116.461 38.8086 115.921 39.4025C113.323 42.0909 109.968 44.0253 106.326 44.8843C105.746 45.0226 105.155 45.0954 104.558 45.1235C105.07 44.5505 105.661 44.0315 106.114 43.4262C107.072 42.145 107.707 40.7337 108.285 39.2517C108.515 38.6755 108.659 38.0619 108.924 37.5034C109.657 37.4275 110.415 37.465 111.152 37.4566Z" fill="black" stroke="black" stroke-width="17.7778"/>
<path d="M76 0H128V52H76V0ZM83.1178 19.9961C83.3112 19.9992 83.5046 20.0054 83.6981 20.0179C84.1702 18.6004 84.7246 17.1423 85.5295 15.8777C85.7053 15.6021 85.8758 15.2922 86.113 15.0644C86.2669 15.0186 86.4406 15.0134 86.6007 15.0072C89.339 15.003 92.0794 15.0311 94.8178 14.9885C94.5588 16.6535 94.0378 18.3061 93.9046 19.9888C94.0856 19.9982 94.2634 20.0158 94.4423 20.0418C94.6846 19.214 94.7169 18.3706 94.8885 17.5313C95.0653 16.6837 95.2057 15.8402 95.4854 15.0176C96.9342 14.9729 98.3714 15.0561 99.8181 14.9583C102.245 14.9427 104.674 14.9666 107.1 14.9448C107.537 14.9396 107.969 14.9833 108.401 15.027C108.742 15.9796 108.881 16.9239 109.094 17.9223C109.231 18.5463 109.224 19.1901 109.369 19.8089C109.431 20.1063 109.769 19.9846 109.985 20.0065C109.944 19.1693 109.745 18.3217 109.593 17.4949C109.443 16.6722 109.255 15.859 109.084 15.0415C109.419 15.0186 109.753 14.9937 110.089 14.9937C112.455 15.0249 114.822 15.0041 117.188 14.9999C117.385 15.0062 117.598 15.0041 117.787 15.0623C118.072 15.3067 118.264 15.6801 118.461 15.9952C119.061 16.9832 119.501 18.0357 119.898 19.1183C120.01 19.422 120.14 19.7184 120.28 20.0096C120.454 20.0086 120.627 20.0065 120.801 20.0054C120.715 19.6175 120.617 19.2348 120.475 18.8635C119.84 17.3087 119.124 15.8038 118.148 14.43C115.181 10.0578 110.38 7.17704 105.192 6.33152C103.534 5.99248 101.922 6.05696 100.24 6.0944C97.8244 6.37312 95.4657 6.94408 93.2744 8.01944C91.6021 8.79008 90.1003 9.84568 88.7119 11.049C87.8092 11.8425 87.0084 12.7618 86.295 13.728C85.4078 14.8564 84.6684 16.12 84.0642 17.421C83.7158 18.2894 83.2873 19.1027 83.1178 19.9961ZM83.3268 23.9834C84.1796 23.997 85.0334 24.0022 85.8862 23.9907C86.4094 24.0417 86.6194 23.3137 87.127 23.2762C87.6085 23.2284 88.1004 23.2554 88.584 23.2502C89.5034 23.2596 90.4248 23.2388 91.3431 23.2856C91.1944 23.8285 91.003 24.4078 90.6775 24.8726C90.4654 25.1784 90.067 25.167 89.7342 25.193C88.0682 25.219 86.3979 25.1878 84.7318 25.194C84.1297 25.1982 83.4277 25.299 82.9202 25.6443C82.4116 26.0198 82.1433 26.7582 81.901 27.3218C81.512 28.3317 81.0742 29.3207 80.6852 30.3306C82.1142 30.5011 83.513 30.2744 84.944 30.3732C87.2986 30.3129 89.65 30.3597 92.0025 30.3378C92.2739 29.7409 92.5256 29.1356 92.7336 28.5126C91.9692 28.4357 91.2214 28.5449 90.456 28.5251C89.5543 28.5126 88.6526 28.5282 87.752 28.5064C86.8576 28.4513 85.9632 28.4877 85.0678 28.4554C85.2154 28.0738 85.3423 27.6016 85.62 27.2948C85.8176 27.0702 86.1202 27.0962 86.3927 27.0826C88.0942 27.0878 89.7956 27.093 91.497 27.0795C92.3072 27.0546 93.0924 26.9308 93.627 26.261C94.045 25.6745 94.2634 24.9298 94.5567 24.2736C94.7855 23.6902 95.163 22.9923 95.0819 22.3548C95.0466 21.9326 94.6992 21.6403 94.3102 21.5363C93.8755 21.4302 93.3961 21.4625 92.952 21.4562C90.8023 21.4781 88.6537 21.4448 86.504 21.4666C85.879 21.4791 85.2477 21.4105 84.6247 21.4583C84.3876 21.4708 84.3439 21.6954 84.2482 21.8702C83.9518 22.5805 83.6024 23.2658 83.3268 23.9834ZM99.504 30.3524C100.927 30.3285 102.349 30.3514 103.772 30.3399C104.236 30.3337 104.677 30.2754 105.063 29.9988C105.494 29.6889 105.724 29.2521 105.918 28.7716C106.52 27.2314 107.15 25.7036 107.761 24.1675C107.972 23.6132 108.269 23.0412 108.363 22.4546C108.418 22.1239 108.215 21.787 107.936 21.6206C107.657 21.449 107.314 21.4552 106.998 21.449C104.36 21.4666 101.721 21.4573 99.0828 21.4594C98.6418 21.4625 98.2269 21.4999 97.8514 21.7516C97.3481 22.0802 97.1047 22.6356 96.8822 23.1702C96.15 24.9694 95.4376 26.7779 94.6815 28.5657C94.5338 28.9328 94.3851 29.3186 94.4309 29.7222C94.4652 30.0685 94.8146 30.3181 95.1464 30.3337C95.9035 30.3732 96.6648 30.3191 97.424 30.3638C98.1177 30.4065 98.8103 30.3909 99.504 30.3524ZM110.891 21.476C110.582 21.9866 110.395 22.5971 110.173 23.1525C109.41 25.0598 108.631 26.963 107.887 28.8777C107.685 29.3634 107.479 29.8449 107.316 30.3462C108.367 30.4106 109.444 30.4127 110.493 30.3285C111.144 28.8662 111.687 27.3562 112.272 25.8679C112.367 25.6225 112.487 25.3895 112.616 25.1618C113.027 26.8892 112.736 28.5844 113.126 30.3462C113.908 30.3254 114.709 30.3961 115.484 30.3108C115.838 30.1704 116.09 29.7034 116.346 29.4268C116.985 28.6458 117.66 27.8949 118.288 27.1024C118.92 26.3921 119.439 25.6287 120.152 25.0453C120.021 25.479 119.869 25.9012 119.689 26.3172C119.292 27.249 118.951 28.2027 118.547 29.1314C118.378 29.5277 118.228 29.926 118.101 30.3378C118.489 30.3722 118.875 30.395 119.264 30.3649C119.986 30.317 120.703 30.3524 121.426 30.3378C121.782 29.5953 122.02 28.809 122.355 28.0582C122.776 26.988 123.237 25.9345 123.636 24.856C124.069 23.7245 124.545 22.6044 124.938 21.4583C123.458 21.4531 121.988 21.4542 120.506 21.4479C119.991 21.4053 119.69 21.9367 119.388 22.2695C118.851 22.9445 118.287 23.5955 117.723 24.2455C117.174 24.8716 116.709 25.5372 116.108 26.1196C115.969 25.3729 115.982 24.622 115.915 23.869C115.854 23.0537 115.913 22.2633 115.74 21.4573C114.592 21.4666 113.444 21.4583 112.296 21.4458C111.825 21.4438 111.362 21.4302 110.891 21.476ZM109.438 31.8791C109.256 32.579 109.216 33.3143 109.072 34.0278C108.891 34.9783 108.741 35.984 108.408 36.8867C108.076 36.9242 107.743 36.9543 107.408 36.9533C104.254 36.9439 101.098 36.9678 97.944 36.9533C97.1182 36.946 96.306 36.9949 95.4834 36.8898C95.0143 35.2768 94.7429 33.6003 94.4933 31.9415C94.3061 31.9342 94.1189 31.9176 93.9327 31.8978C93.9338 32.5447 94.0773 33.1604 94.1969 33.7906C94.3726 34.8306 94.6399 35.853 94.8188 36.8919C94.019 36.9918 93.2338 36.9408 92.432 36.9512C90.5943 36.9585 88.7566 36.9439 86.919 36.9616C86.661 36.9554 86.374 36.971 86.1275 36.8888C85.958 36.8004 85.8446 36.5893 85.7365 36.4364C85.2508 35.645 84.8015 34.8514 84.4396 33.9945C84.1505 33.3154 83.9456 32.6092 83.6627 31.927C83.4724 31.9218 83.2862 31.9342 83.097 31.9602C83.253 32.6976 83.5223 33.3934 83.8333 34.0777C84.3554 35.3038 85.0262 36.4499 85.7614 37.5596C86.6038 38.7598 87.596 39.8902 88.6766 40.8824C89.6302 41.6967 90.5642 42.483 91.6624 43.0986C93.1922 44.0336 94.85 44.7242 96.566 45.2338C97.4219 45.4802 98.282 45.6227 99.1587 45.7694C100.428 45.9784 101.762 45.9472 103.044 45.917C104.929 45.8026 106.792 45.4875 108.574 44.849C110.326 44.2666 111.936 43.3857 113.45 42.3363C114.074 41.8954 114.655 41.4014 115.223 40.8918C116.123 40.1294 116.905 39.2205 117.623 38.2876C118.349 37.3651 118.943 36.323 119.505 35.2945C120.054 34.2118 120.567 33.0606 120.817 31.8687C120.626 31.8729 120.437 31.8718 120.247 31.8646C120.038 32.3981 119.877 32.9472 119.672 33.4818C119.232 34.5925 118.706 35.725 118.007 36.6995C117.835 36.9793 117.474 36.9356 117.19 36.9574C115.317 36.9522 113.442 36.9502 111.568 36.947C110.733 36.9387 109.919 36.9949 109.086 36.8982C109.151 36.3303 109.302 35.7864 109.436 35.2331C109.613 34.4022 109.742 33.5598 109.883 32.7215C109.936 32.4303 109.957 32.135 109.923 31.8386C109.76 31.8479 109.599 31.8594 109.438 31.8791Z" fill="black"/>
<path d="M100.24 6.0944C101.922 6.05696 103.534 5.99249 105.192 6.33153C110.38 7.17705 115.181 10.0578 118.148 14.43C119.124 15.8038 119.84 17.3087 120.475 18.8635C120.617 19.2348 120.715 19.6175 120.801 20.0054C120.627 20.0065 120.454 20.0086 120.28 20.0096C120.14 19.7184 120.01 19.422 119.898 19.1183C119.501 18.0357 119.061 16.9832 118.461 15.9952C118.264 15.6801 118.072 15.3067 117.787 15.0623C117.598 15.0041 117.385 15.0062 117.188 14.9999C114.822 15.0041 112.455 15.0249 110.089 14.9937C109.753 14.9937 109.419 15.0186 109.085 15.0415C109.255 15.859 109.443 16.6722 109.593 17.4949C109.745 18.3217 109.944 19.1693 109.985 20.0065C109.769 19.9846 109.431 20.1063 109.369 19.8089C109.224 19.1901 109.231 18.5463 109.094 17.9223C108.881 16.9239 108.742 15.9796 108.401 15.027C107.969 14.9833 107.537 14.9396 107.1 14.9448C104.674 14.9666 102.245 14.9427 99.8181 14.9583C98.3715 15.0561 96.9342 14.9729 95.4855 15.0176C95.2057 15.8402 95.0653 16.6837 94.8885 17.5313C94.7169 18.3706 94.6847 19.214 94.4424 20.0418C94.2635 20.0158 94.0856 19.9982 93.9047 19.9888C94.0378 18.3061 94.5588 16.6535 94.8178 14.9885C92.0795 15.0311 89.3391 15.003 86.6008 15.0072C86.4406 15.0134 86.2669 15.0186 86.113 15.0644C85.8759 15.2922 85.7053 15.6021 85.5296 15.8777C84.7246 17.1423 84.1703 18.6004 83.6981 20.0179C83.5047 20.0054 83.3112 19.9992 83.1178 19.9961C83.2873 19.1027 83.7158 18.2894 84.0642 17.421C84.6684 16.12 85.4079 14.8564 86.295 13.728C87.0084 12.7618 87.8092 11.8425 88.712 11.049C90.1004 9.84568 91.6021 8.79009 93.2744 8.01945C95.4657 6.94409 97.8244 6.37312 100.24 6.0944ZM95.7465 14.3541C97.1994 14.4716 98.671 14.3811 100.128 14.4019C102 14.4113 103.872 14.3894 105.744 14.405C106.565 14.404 107.379 14.4362 108.197 14.3582C107.915 13.1695 107.436 12.0203 106.887 10.9314C106.459 10.0402 105.95 9.20504 105.283 8.4708C104.848 7.9924 104.364 7.4724 103.805 7.13856C103.19 6.77768 102.511 6.552 101.79 6.5832C101.02 6.58736 100.265 6.99504 99.6652 7.4464C98.8551 8.1068 98.1905 8.90657 97.6539 9.80305C96.9581 10.8399 96.5244 11.959 96.0793 13.1186C95.9254 13.519 95.8235 13.9329 95.7465 14.3541ZM108.904 14.3842C110.588 14.4404 112.275 14.378 113.96 14.3926C115.069 14.378 116.196 14.4591 117.298 14.3572C116.814 13.5138 116.165 12.8918 115.505 12.1826C113.435 10.1504 110.897 8.59561 108.14 7.68873C107.555 7.49321 106.989 7.28624 106.379 7.17184C105.778 7.0564 105.177 6.94616 104.576 6.83696C105.205 7.56392 105.951 8.1952 106.486 9.03552C107.278 10.2856 107.935 11.6272 108.417 13.0281C108.566 13.4857 108.715 13.9412 108.904 14.3842ZM86.6101 14.3614C87.3392 14.4134 88.0609 14.3967 88.792 14.3978C90.8564 14.379 92.9219 14.4238 94.9852 14.3926C95.472 13.2517 95.7964 12.0307 96.3726 10.9106C96.9404 9.79785 97.6102 8.62161 98.5036 7.73656C98.7802 7.45264 99.0589 7.1708 99.322 6.87336C98.5129 6.90976 97.7579 7.09281 96.9664 7.27793C95.2692 7.73865 93.6228 8.46665 92.094 9.33401C90.4217 10.3022 88.9272 11.5544 87.6428 12.9958C87.231 13.4014 86.9055 13.8663 86.6101 14.3614Z" fill="#868685"/>
<path d="M101.79 6.58319C102.511 6.55199 103.19 6.77767 103.805 7.13855C104.364 7.47239 104.848 7.99239 105.283 8.47079C105.95 9.20503 106.458 10.0402 106.887 10.9314C107.436 12.0203 107.914 13.1695 108.197 14.3582C107.379 14.4362 106.565 14.404 105.744 14.405C103.872 14.3894 102 14.4113 100.128 14.4019C98.6709 14.3811 97.1993 14.4716 95.7465 14.3541C95.8234 13.9329 95.9253 13.519 96.0793 13.1186C96.5244 11.959 96.9581 10.8399 97.6538 9.80303C98.1905 8.90655 98.855 8.10679 99.6652 7.44639C100.265 6.99503 101.02 6.58735 101.79 6.58319Z" fill="black"/>
<path d="M104.576 6.83698C105.177 6.94618 105.778 7.05642 106.379 7.17186C106.989 7.28626 107.555 7.49322 108.14 7.68874C110.897 8.59562 113.435 10.1504 115.505 12.1826C116.165 12.8919 116.814 13.5138 117.298 14.3572C116.196 14.4591 115.069 14.378 113.96 14.3926C112.275 14.378 110.588 14.4404 108.903 14.3843C108.715 13.9412 108.565 13.4857 108.417 13.0281C107.935 11.6272 107.278 10.2856 106.485 9.03554C105.951 8.19522 105.205 7.56394 104.576 6.83698Z" fill="black"/>
<path d="M99.322 6.87335C99.0589 7.17079 98.7802 7.45263 98.5035 7.73655C97.6102 8.62159 96.9404 9.79783 96.3726 10.9106C95.7964 12.0307 95.4719 13.2517 94.9852 14.3926C92.9219 14.4238 90.8564 14.379 88.792 14.3978C88.0609 14.3967 87.3391 14.4134 86.6101 14.3614C86.9055 13.8663 87.231 13.4014 87.6428 12.9958C88.9272 11.5544 90.4217 10.3022 92.094 9.33399C93.6228 8.46663 95.2691 7.73863 96.9664 7.27791C97.7579 7.09279 98.5129 6.90975 99.322 6.87335Z" fill="black"/>
<path d="M84.6247 21.4583C85.2477 21.4105 85.8789 21.4791 86.504 21.4667C88.6537 21.4448 90.8023 21.4781 92.952 21.4563C93.3961 21.4625 93.8755 21.4303 94.3102 21.5363C94.6992 21.6403 95.0465 21.9326 95.0819 22.3548C95.163 22.9923 94.7855 23.6902 94.5567 24.2736C94.2634 24.9299 94.045 25.6745 93.6269 26.2611C93.0924 26.9308 92.3072 27.0546 91.497 27.0795C89.7956 27.0931 88.0941 27.0879 86.3927 27.0827C86.1202 27.0962 85.8176 27.0702 85.62 27.2948C85.3423 27.6016 85.2154 28.0738 85.0677 28.4555C85.9632 28.4877 86.8576 28.4513 87.752 28.5064C88.6526 28.5283 89.5543 28.5127 90.456 28.5251C91.2214 28.5449 91.9692 28.4357 92.7336 28.5127C92.5256 29.1356 92.2739 29.7409 92.0025 30.3379C89.65 30.3597 87.2985 30.3129 84.944 30.3732C83.5129 30.2744 82.1141 30.5011 80.6852 30.3306C81.0741 29.3207 81.512 28.3317 81.9009 27.3219C82.1433 26.7582 82.4116 26.0198 82.9201 25.6443C83.4277 25.2991 84.1297 25.1982 84.7318 25.194C86.3979 25.1878 88.0681 25.219 89.7342 25.193C90.067 25.167 90.4653 25.1784 90.6775 24.8727C91.003 24.4078 91.1944 23.8285 91.3431 23.2856C90.4248 23.2388 89.5033 23.2596 88.584 23.2503C88.1004 23.2555 87.6085 23.2284 87.1269 23.2763C86.6194 23.3137 86.4093 24.0417 85.8862 23.9907C85.0334 24.0022 84.1796 23.997 83.3268 23.9835C83.6024 23.2659 83.9518 22.5805 84.2482 21.8702C84.3439 21.6955 84.3876 21.4708 84.6247 21.4583Z" fill="#868685"/>
<path d="M99.0828 21.4594C101.721 21.4573 104.36 21.4667 106.998 21.449C107.314 21.4552 107.657 21.449 107.936 21.6206C108.215 21.787 108.418 22.1239 108.363 22.4547C108.269 23.0412 107.972 23.6132 107.761 24.1675C107.15 25.7036 106.52 27.2314 105.918 28.7716C105.724 29.2521 105.494 29.6889 105.063 29.9988C104.677 30.2755 104.236 30.3337 103.772 30.3399C102.349 30.3514 100.927 30.3285 99.504 30.3524C98.8104 30.3909 98.1177 30.4065 97.424 30.3639C96.6648 30.3191 95.9036 30.3732 95.1464 30.3337C94.8147 30.3181 94.4652 30.0685 94.4309 29.7222C94.3852 29.3187 94.5339 28.9328 94.6816 28.5657C95.4376 26.7779 96.15 24.9694 96.8822 23.1702C97.1048 22.6356 97.3481 22.0803 97.8515 21.7516C98.2269 21.4999 98.6419 21.4625 99.0828 21.4594ZM98.6336 28.4492C99.3054 28.4731 99.9772 28.4659 100.648 28.5002C101.131 28.5137 101.682 28.5688 102.146 28.4201C102.435 28.2943 102.602 27.9365 102.728 27.6671C103.212 26.5387 103.641 25.3854 104.096 24.2466C104.218 23.9491 104.259 23.6392 104.285 23.322C103.445 23.2149 102.643 23.2752 101.793 23.2575C101.455 23.2659 101.037 23.2232 100.728 23.374C100.455 23.5009 100.323 23.841 100.204 24.0989C99.7599 25.1815 99.3376 26.2715 98.8748 27.3447C98.7126 27.7129 98.6419 28.0478 98.6336 28.4492Z" fill="#868685"/>
<path d="M112.296 21.4458C113.444 21.4583 114.592 21.4666 115.741 21.4573C115.913 22.2633 115.854 23.0537 115.915 23.869C115.982 24.622 115.969 25.3729 116.108 26.1196C116.709 25.5372 117.174 24.8716 117.723 24.2455C118.287 23.5955 118.851 22.9445 119.388 22.2695C119.69 21.9367 119.991 21.4053 120.506 21.4479C121.988 21.4542 123.458 21.4531 124.938 21.4583C124.545 22.6044 124.069 23.7245 123.636 24.856C123.237 25.9345 122.776 26.988 122.355 28.0582C122.02 28.809 121.782 29.5953 121.426 30.3378C120.703 30.3524 119.986 30.317 119.264 30.3649C118.875 30.395 118.489 30.3722 118.101 30.3378C118.228 29.926 118.378 29.5277 118.547 29.1314C118.951 28.2027 119.292 27.249 119.689 26.3172C119.869 25.9012 120.021 25.479 120.152 25.0453C119.439 25.6287 118.92 26.3921 118.289 27.1024C117.66 27.8949 116.985 28.6458 116.346 29.4268C116.09 29.7034 115.838 30.1704 115.484 30.3108C114.709 30.3961 113.908 30.3254 113.126 30.3462C112.736 28.5844 113.027 26.8892 112.616 25.1618C112.487 25.3895 112.367 25.6225 112.272 25.8679C111.687 27.3562 111.144 28.8662 110.493 30.3285C109.444 30.4127 108.367 30.4106 107.317 30.3462C107.479 29.8449 107.685 29.3634 107.887 28.8777C108.631 26.963 109.41 25.0598 110.173 23.1525C110.395 22.5971 110.582 21.9866 110.891 21.476C111.362 21.4302 111.825 21.4438 112.296 21.4458Z" fill="#868685"/>
<path d="M101.793 23.2575C102.643 23.2752 103.445 23.2149 104.285 23.322C104.259 23.6392 104.218 23.9491 104.096 24.2466C103.641 25.3854 103.212 26.5387 102.728 27.6671C102.602 27.9365 102.435 28.2943 102.146 28.4201C101.682 28.5688 101.131 28.5137 100.648 28.5002C99.9772 28.4659 99.3054 28.4731 98.6335 28.4492C98.6419 28.0478 98.7126 27.7129 98.8748 27.3447C99.3376 26.2715 99.7599 25.1815 100.204 24.0989C100.323 23.841 100.455 23.5009 100.728 23.374C101.037 23.2232 101.455 23.2659 101.793 23.2575Z" fill="black"/>
<path d="M109.923 31.8386C109.957 32.135 109.936 32.4303 109.883 32.7215C109.742 33.5598 109.613 34.4022 109.436 35.2331C109.302 35.7864 109.151 36.3303 109.085 36.8982C109.919 36.9949 110.733 36.9387 111.568 36.947C113.442 36.9502 115.317 36.9522 117.19 36.9574C117.474 36.9356 117.835 36.9793 118.007 36.6995C118.705 35.725 119.232 34.5925 119.672 33.4818C119.877 32.9472 120.038 32.3981 120.247 31.8646C120.437 31.8718 120.626 31.8729 120.817 31.8687C120.567 33.0606 120.054 34.2118 119.505 35.2945C118.943 36.323 118.349 37.3651 117.623 38.2876C116.905 39.2205 116.123 40.1294 115.223 40.8918C114.655 41.4014 114.074 41.8954 113.45 42.3363C111.936 43.3857 110.326 44.2666 108.574 44.849C106.792 45.4875 104.929 45.8026 103.044 45.917C101.762 45.9472 100.427 45.9784 99.1587 45.7694C98.282 45.6227 97.4219 45.4802 96.566 45.2338C94.85 44.7242 93.1922 44.0336 91.6624 43.0986C90.5641 42.483 89.6302 41.6967 88.6765 40.8824C87.596 39.8902 86.6038 38.7598 85.7614 37.5596C85.0261 36.4499 84.3553 35.3038 83.8332 34.0777C83.5223 33.3934 83.2529 32.6976 83.0969 31.9602C83.2862 31.9342 83.4724 31.9218 83.6627 31.927C83.9456 32.6092 84.1504 33.3154 84.4396 33.9945C84.8015 34.8514 85.2508 35.645 85.7364 36.4364C85.8446 36.5893 85.958 36.8004 86.1275 36.8888C86.374 36.971 86.661 36.9554 86.9189 36.9616C88.7566 36.9439 90.5943 36.9585 92.432 36.9512C93.2338 36.9408 94.019 36.9918 94.8188 36.8919C94.6399 35.853 94.3726 34.8306 94.1968 33.7906C94.0772 33.1604 93.9337 32.5447 93.9327 31.8978C94.1188 31.9176 94.306 31.9342 94.4932 31.9415C94.7428 33.6003 95.0143 35.2768 95.4833 36.8898C96.306 36.9949 97.1182 36.946 97.944 36.9533C101.098 36.9678 104.254 36.9439 107.408 36.9533C107.743 36.9543 108.076 36.9242 108.408 36.8867C108.741 35.984 108.891 34.9783 109.072 34.0278C109.215 33.3143 109.256 32.579 109.438 31.8791C109.599 31.8594 109.76 31.8479 109.923 31.8386ZM86.5497 37.518C87.052 38.4519 87.7821 39.155 88.5268 39.8902C89.3608 40.7274 90.2854 41.4856 91.2755 42.1314C92.2229 42.719 93.1308 43.2952 94.1688 43.7143C95.7974 44.4049 97.6278 45.0902 99.4104 45.137C98.8529 44.5723 98.2788 44.0461 97.8025 43.4065C97.1182 42.4954 96.542 41.4887 96.0834 40.4466C95.656 39.4815 95.3908 38.4644 94.9852 37.493C93.0268 37.4244 91.0633 37.4691 89.104 37.4577C88.2543 37.4722 87.3848 37.4109 86.5497 37.518ZM95.6664 37.5201C96.0844 38.9584 96.6398 40.352 97.3553 41.6686C98.076 42.9062 98.9143 44.0326 100.134 44.8188C100.867 45.2743 101.735 45.5291 102.591 45.2889C103.639 45.0507 104.47 44.4184 105.176 43.6322C106.184 42.5038 106.914 41.0821 107.476 39.6864C107.764 38.9542 108.075 38.272 108.19 37.4847C106.129 37.4171 104.062 37.4826 102 37.4462C100.927 37.4067 99.8503 37.4182 98.776 37.4327C97.7328 37.493 96.7064 37.3994 95.6664 37.5201ZM108.924 37.5034C108.659 38.0619 108.515 38.6755 108.285 39.2517C107.707 40.7337 107.072 42.145 106.114 43.4262C105.661 44.0315 105.07 44.5505 104.558 45.1235C105.155 45.0954 105.746 45.0226 106.326 44.8843C109.968 44.0253 113.323 42.0909 115.921 39.4025C116.461 38.8086 116.984 38.2086 117.407 37.5232C116.916 37.4702 116.429 37.4494 115.936 37.4546C114.341 37.4681 112.746 37.4629 111.152 37.4566C110.415 37.465 109.657 37.4275 108.924 37.5034Z" fill="#868685"/>
<path d="M89.104 37.4577C91.0634 37.4691 93.0269 37.4244 94.9852 37.493C95.3908 38.4644 95.656 39.4815 96.0835 40.4466C96.5421 41.4887 97.1183 42.4954 97.8026 43.4065C98.2789 44.0461 98.853 44.5723 99.4104 45.137C97.6279 45.0902 95.7975 44.4049 94.1688 43.7143C93.1309 43.2952 92.223 42.719 91.2756 42.1314C90.2855 41.4856 89.3609 40.7274 88.5268 39.8902C87.7822 39.155 87.0521 38.4519 86.5498 37.518C87.3849 37.4109 88.2544 37.4722 89.104 37.4577Z" fill="black"/>
<path d="M98.776 37.4327C99.8503 37.4182 100.927 37.4067 102 37.4462C104.062 37.4826 106.129 37.4171 108.19 37.4847C108.075 38.272 107.764 38.9542 107.476 39.6864C106.914 41.0821 106.184 42.5038 105.176 43.6322C104.47 44.4184 103.639 45.0507 102.591 45.2889C101.735 45.5291 100.867 45.2743 100.134 44.8188C98.9143 44.0326 98.0761 42.9062 97.3553 41.6686C96.6398 40.352 96.0845 38.9584 95.6664 37.5201C96.7064 37.3994 97.7329 37.493 98.776 37.4327Z" fill="black"/>
<path d="M111.152 37.4566C112.746 37.4629 114.341 37.4681 115.936 37.4546C116.429 37.4494 116.916 37.4702 117.407 37.5232C116.984 38.2086 116.461 38.8086 115.921 39.4025C113.323 42.0909 109.968 44.0253 106.326 44.8843C105.746 45.0226 105.155 45.0954 104.558 45.1235C105.07 44.5505 105.661 44.0315 106.114 43.4262C107.072 42.145 107.707 40.7337 108.285 39.2517C108.515 38.6755 108.659 38.0619 108.924 37.5034C109.657 37.4275 110.415 37.465 111.152 37.4566Z" fill="black"/>
</g>
</g>
<defs>
<clipPath id="clip0_175_431">
<rect width="128" height="128" fill="white"/>
</clipPath>
<clipPath id="clip1_175_431">
<rect x="76" width="52" height="52" rx="26" fill="white"/>
</clipPath>
</defs>
</svg>
