<svg xmlns="http://www.w3.org/2000/svg" viewBox="0 0 128 128"><path fill="#3264F6" d="M64 128c35.346 0 64-28.654 64-64S99.346 0 64 0 0 28.654 0 64s28.654 64 64 64"/><path fill="#E4BF42" d="M62.907 18.029c1.748-.019 3.516-.079 5.26.06 3.546.21 7.08.895 10.483 1.903 6.81 2.065 13.097 5.74 18.279 10.616 4.777 4.512 8.601 10.053 11.088 16.138.345.87.724 1.758.953 2.663a9.5 9.5 0 0 1-1.249-.037c-.111-.248-.22-.497-.314-.752a45.5 45.5 0 0 0-4.498-8.934c-.221-.325-.427-.733-.743-.972-.465-.071-.953-.023-1.423-.031l-16.176.001c-.608.001-1.215-.019-1.824.014q.09.454.218.903a83 83 0 0 1 2.026 9.295c.037.272.034.542.027.813-.373.025-.74.022-1.114-.005-.189-.525-.23-1.061-.325-1.606-.41-2.423-.89-4.817-1.545-7.188-.21-.748-.365-1.484-.666-2.202-.677-.054-1.341-.02-2.023-.025l-30.234-.002c-.253-.016-.284.234-.355.416-.8 2.827-1.5 5.678-1.979 8.579-.12.66-.193 1.319-.364 1.968a10 10 0 0 1-1.152-.01c.012-.932.232-1.782.382-2.696.444-2.382.956-4.777 1.612-7.11.112-.374.217-.748.298-1.13-.808-.039-1.62-.007-2.428-.015-5.66.006-11.334-.014-16.992.008-.386.422-.657.9-.967 1.377a48 48 0 0 0-2.469 4.377C23.71 46.426 22.5 50 22.5 50h-1.472c.137-.579.593-1.54.802-2.095a46.5 46.5 0 0 1 12.332-18.01 45.8 45.8 0 0 1 9.3-6.51c5.99-3.21 12.667-4.988 19.445-5.356m-13.631 19.39q.34.027.683.033l29.133-.001c.621-.003 1.24.016 1.86-.015-.147-.775-.475-1.546-.745-2.29-.637-1.723-1.392-3.397-2.19-5.052-1.341-2.527-2.88-4.986-4.9-7.032-1.552-1.55-3.391-2.873-5.528-3.47a8.73 8.73 0 0 0-4.868-.006c-1.935.535-3.57 1.63-5.032 2.977-1.788 1.66-3.258 3.726-4.482 5.828-1.64 2.845-2.9 5.914-3.931 9.028m9.23-17.674c-3.887.518-7.762 1.712-11.373 3.231-1.037.487-2.072.98-3.09 1.508-5.652 3.02-10.653 7.218-14.565 12.295-.148.211-.285.429-.423.647.256.013.513.026.77.028l16.042-.001c.705-.005 1.393.026 2.095-.026q.217-.58.4-1.169a48.3 48.3 0 0 1 3.694-8.378c1.486-2.596 3.25-4.96 5.542-6.901.523-.427 1.085-.802 1.594-1.243q-.343-.005-.686.009m12.542-.022c.732.586 1.498 1.09 2.188 1.731 2.379 2.17 4.17 4.812 5.653 7.654a45 45 0 0 1 2.517 5.708c.344.861.598 1.751.93 2.615.742.048 1.487.015 2.232.022 5.102.004 10.204-.006 15.307.001.459.004.92.002 1.379-.028a9.7 9.7 0 0 0-1.079-1.476c-3.886-4.792-8.768-8.797-14.247-11.637a45 45 0 0 0-11.48-4.114c-1.109-.202-2.279-.498-3.4-.476M21.102 78.062c.337-.092.744-.016 1.09.013.106.24.208.48.291.727 1.217 3.629 2.925 7.077 5.023 10.276.648-.03 2.035-.132 2.682-.134h15.306c.58 0 1.159.016 1.737-.019q-.061-.465-.178-.92c-.761-2.818-1.325-5.699-1.8-8.578a7 7 0 0 1-.105-1.34c.4-.065.758-.076 1.159.003.12.56.193 1.126.272 1.694.502 3.093 1.143 6.133 2.03 9.141.788.039 1.573.016 2.36.02h28.745c.653-.004 1.3.025 1.951-.024.281-.765.448-1.581.659-2.37.527-2.027.904-4.08 1.274-6.141.14-.775.194-1.554.386-2.32a3.1 3.1 0 0 1 1.167 0c-.004.412-.029.82-.106 1.226a85 85 0 0 1-1.49 7.414c-.182.733-.394 1.455-.55 2.194.478.028.957.027 1.437.022 5.727-.006 12.633.063 18.359.054 1.31-1.924 2.143-3.395 3.128-5.504.648-1.411 1.288-2.857 1.776-4.333q.146-.442.353-.859.629-.077 1.262-.08c-.443 1.505-1.02 2.978-1.629 4.424a46.3 46.3 0 0 1-8.666 13.238c-.953 1.085-2.018 2.036-3.077 3.013a47 47 0 0 1-10.154 6.887c-2.006.965-4.064 1.849-6.182 2.536-4.2 1.345-8.55 2.153-12.964 2.279-1.474.002-2.964.052-4.435-.073-3.232-.186-6.454-.759-9.572-1.627-5.983-1.656-11.622-4.577-16.458-8.464C29.13 94.792 23.79 87.06 21.045 78.45c-.029-.127-.11-.321.057-.388m38.177 30.831c-.567-.453-1.167-.864-1.732-1.322-2.3-1.95-4.027-4.321-5.522-6.92-1.627-2.877-2.894-5.906-3.908-9.048-.15-.47-.278-.943-.485-1.395-6.058-.037-12.128.007-18.188-.02-.285.011-.608-.038-.883.04-.225.143-.05.299.046.458a46.4 46.4 0 0 0 7.108 7.732 45.3 45.3 0 0 0 13.197 7.942c2.652.987 5.425 1.828 8.218 2.294.714.132 1.419.259 2.149.239M49.033 90.21c.194.945.535 1.83.862 2.74 1.141 3.115 2.5 6.089 4.312 8.875 1.087 1.623 2.348 3.22 3.82 4.51.992.841 2.092 1.66 3.29 2.175 1.534.637 3.144.988 4.807.777 2.444-.287 4.626-1.54 6.399-3.201 2.03-1.865 3.507-4.064 4.875-6.436a51 51 0 0 0 3.663-8.67c.073-.252.114-.508.155-.767-.749-.045-1.496-.014-2.248-.02H50.845c-.605 0-1.208-.014-1.812.017m21.737 18.795c4.216-.468 8.384-1.662 12.28-3.327 1.283-.561 2.531-1.207 3.777-1.848a46 46 0 0 0 8.498-6.053c1.835-1.696 3.576-3.489 5.124-5.452.53-.678 1.091-1.362 1.514-2.103-.817-.055-1.643-.018-2.464-.025-5.185-.002-10.369.002-15.554-.006-.418.002-.842-.02-1.26.023-.317.523-.415 1.181-.633 1.751-.607 1.72-1.208 3.468-1.986 5.118-.466.908-.829 1.857-1.346 2.74-1.57 2.857-3.554 5.777-6.106 7.845-.585.489-1.223.896-1.844 1.337"/><path fill="#E4BF42" d="M62.907 18.029c1.748-.019 3.516-.079 5.26.06 3.546.21 7.08.895 10.483 1.903 6.81 2.065 13.097 5.74 18.279 10.616 4.777 4.512 8.601 10.053 11.088 16.138.345.87.724 1.758.953 2.663a9.5 9.5 0 0 1-1.249-.037c-.111-.248-.22-.497-.314-.752a45.5 45.5 0 0 0-4.498-8.934c-.221-.325-.427-.733-.743-.972-.465-.071-.953-.023-1.423-.031l-16.176.001c-.608.001-1.215-.019-1.824.014q.09.454.218.903a83 83 0 0 1 2.026 9.295c.037.272.034.542.027.813-.373.025-.74.022-1.114-.005-.189-.525-.23-1.061-.325-1.606-.41-2.423-.89-4.817-1.545-7.188-.21-.748-.365-1.484-.666-2.202-.677-.054-1.341-.02-2.023-.025l-30.234-.002c-.253-.016-.284.234-.355.416-.8 2.827-1.5 5.678-1.979 8.579-.12.66-.193 1.319-.364 1.968a10 10 0 0 1-1.152-.01c.012-.932.232-1.782.382-2.696.444-2.382.956-4.777 1.612-7.11.112-.374.217-.748.298-1.13-.808-.039-1.62-.007-2.428-.015-5.66.006-11.334-.014-16.992.008-.386.422-.657.9-.967 1.377a48 48 0 0 0-2.469 4.377C23.71 46.426 22.5 50 22.5 50h-1.472c.137-.579.593-1.54.802-2.095a46.5 46.5 0 0 1 12.332-18.01 45.8 45.8 0 0 1 9.3-6.51c5.99-3.21 12.667-4.988 19.445-5.356m-13.631 19.39q.34.027.683.033l29.133-.001c.621-.003 1.24.016 1.86-.015-.147-.775-.475-1.546-.745-2.29-.637-1.723-1.392-3.397-2.19-5.052-1.341-2.527-2.88-4.986-4.9-7.032-1.552-1.55-3.391-2.873-5.528-3.47a8.73 8.73 0 0 0-4.868-.006c-1.935.535-3.57 1.63-5.032 2.977-1.788 1.66-3.258 3.726-4.482 5.828-1.64 2.845-2.9 5.914-3.931 9.028m9.23-17.674c-3.887.518-7.762 1.712-11.373 3.231-1.037.487-2.072.98-3.09 1.508-5.652 3.02-10.653 7.218-14.565 12.295-.148.211-.285.429-.423.647.256.013.513.026.77.028l16.042-.001c.705-.005 1.393.026 2.095-.026q.217-.58.4-1.169a48.3 48.3 0 0 1 3.694-8.378c1.486-2.596 3.25-4.96 5.542-6.901.523-.427 1.085-.802 1.594-1.243q-.343-.005-.686.009m12.542-.022c.732.586 1.498 1.09 2.188 1.731 2.379 2.17 4.17 4.812 5.653 7.654a45 45 0 0 1 2.517 5.708c.344.861.598 1.751.93 2.615.742.048 1.487.015 2.232.022 5.102.004 10.204-.006 15.307.001.459.004.92.002 1.379-.028a9.7 9.7 0 0 0-1.079-1.476c-3.886-4.792-8.768-8.797-14.247-11.637a45 45 0 0 0-11.48-4.114c-1.109-.202-2.279-.498-3.4-.476M21.102 78.062c.337-.092.744-.016 1.09.013.106.24.208.48.291.727 1.217 3.629 2.925 7.077 5.023 10.276.648-.03 2.035-.132 2.682-.134h15.306c.58 0 1.159.016 1.737-.019q-.061-.465-.178-.92c-.761-2.818-1.325-5.699-1.8-8.578a7 7 0 0 1-.105-1.34c.4-.065.758-.076 1.159.003.12.56.193 1.126.272 1.694.502 3.093 1.143 6.133 2.03 9.141.788.039 1.573.016 2.36.02h28.745c.653-.004 1.3.025 1.951-.024.281-.765.448-1.581.659-2.37.527-2.027.904-4.08 1.274-6.141.14-.775.194-1.554.386-2.32a3.1 3.1 0 0 1 1.167 0c-.004.412-.029.82-.106 1.226a85 85 0 0 1-1.49 7.414c-.182.733-.394 1.455-.55 2.194.478.028.957.027 1.437.022 5.727-.006 12.633.063 18.359.054 1.31-1.924 2.143-3.395 3.128-5.504.648-1.411 1.288-2.857 1.776-4.333q.146-.442.353-.859.629-.077 1.262-.08c-.443 1.505-1.02 2.978-1.629 4.424a46.3 46.3 0 0 1-8.666 13.238c-.953 1.085-2.018 2.036-3.077 3.013a47 47 0 0 1-10.154 6.887c-2.006.965-4.064 1.849-6.182 2.536-4.2 1.345-8.55 2.153-12.964 2.279-1.474.002-2.964.052-4.435-.073-3.232-.186-6.454-.759-9.572-1.627-5.983-1.656-11.622-4.577-16.458-8.464C29.13 94.792 23.79 87.06 21.045 78.45c-.029-.127-.11-.321.057-.388m38.177 30.831c-.567-.453-1.167-.864-1.732-1.322-2.3-1.95-4.027-4.321-5.522-6.92-1.627-2.877-2.894-5.906-3.908-9.048-.15-.47-.278-.943-.485-1.395-6.058-.037-12.128.007-18.188-.02-.285.011-.608-.038-.883.04-.225.143-.05.299.046.458a46.4 46.4 0 0 0 7.108 7.732 45.3 45.3 0 0 0 13.197 7.942c2.652.987 5.425 1.828 8.218 2.294.714.132 1.419.259 2.149.239M49.033 90.21c.194.945.535 1.83.862 2.74 1.141 3.115 2.5 6.089 4.312 8.875 1.087 1.623 2.348 3.22 3.82 4.51.992.841 2.092 1.66 3.29 2.175 1.534.637 3.144.988 4.807.777 2.444-.287 4.626-1.54 6.399-3.201 2.03-1.865 3.507-4.064 4.875-6.436a51 51 0 0 0 3.663-8.67c.073-.252.114-.508.155-.767-.749-.045-1.496-.014-2.248-.02H50.845c-.605 0-1.208-.014-1.812.017m21.737 18.795c4.216-.468 8.384-1.662 12.28-3.327 1.283-.561 2.531-1.207 3.777-1.848a46 46 0 0 0 8.498-6.053c1.835-1.696 3.576-3.489 5.124-5.452.53-.678 1.091-1.362 1.514-2.103-.817-.055-1.643-.018-2.464-.025-5.185-.002-10.369.002-15.554-.006-.418.002-.842-.02-1.26.023-.317.523-.415 1.181-.633 1.751-.607 1.72-1.208 3.468-1.986 5.118-.466.908-.829 1.857-1.346 2.74-1.57 2.857-3.554 5.777-6.106 7.845-.585.489-1.223.896-1.844 1.337"/><path fill="#EFC537" d="M97.535 57.916c4.243-4.047 10.513-4.16 15.546-1.516 1.898 1.267 3.325 3.27 3.924 5.475.522 3.832.177 6.832-1.965 10.045-1.978 1.837-4.461 3.182-7.2 3.28l-.876.047c-3.378.112-5.969-.587-8.724-2.607-2.494-2.447-2.934-4.606-3.04-7.98.056-2.808.461-4.646 2.335-6.744m8.305 2.164c-1.119.012-2.111-.105-3.12.4-1.096 1.073-1.567 1.665-1.767 3.205L101 65.04c.027 1.12-.064 2.11.44 3.12 1.083 1.11 1.687 1.566 3.241 1.79l1.419-.03c1.375-.01 2.386-.011 3.632-.603.971-.752 1.241-1.255 1.628-2.437.192-2.094.427-4.05-.96-5.76-1.116-.751-1.858-.955-3.205-1.065z"/><path fill="#F0C536" d="M76.8 55.04h5.44v14.72h11.52v5.12H76.8z"/><path fill="#ECC33A" d="M54.72 55.04c6.08 0 6.08 0 7.693 1.313l1.147 1.767 1.243 1.849 1.117 1.791.957 1.421C68.8 66.053 68.8 66.053 68.8 66.88h.64l-.159-1.149c-.199-2.137-.191-4.244-.18-6.39l.008-2.442.011-1.859h5.76v19.84c-6.08 0-6.08 0-7.424-.926L66.66 72.7l-.896-1.329-.804-1.291q-.692-.945-1.4-1.88c-1.07-1.481-2.064-2.996-3.08-4.52v11.2h-5.76z"/><path fill="#EDC439" d="M35.52 55.04h17.6v5.12H40.96v2.24h11.52v5.12H40.96v2.24h12.16v5.12h-17.6z"/><path fill="#F0C536" d="M13.12 55.04h5.44v7.36h9.28v-7.36h5.44v19.84h-5.44v-7.36h-9.28v7.36h-5.44z"/><path d="M32 64c17.673 0 32-14.327 32-32S49.673 0 32 0 0 14.327 0 32s14.327 32 32 32"/><path fill="#D51A35" d="M31.845 13.007c.61-.01 1.222-.012 1.832.008.367.027.733.069 1.1.1 1.877.22 3.722.719 5.45 1.488a18.8 18.8 0 0 1 6.421 4.7 18.9 18.9 0 0 1 3.707 6.254c1.527.025 3.058-.008 4.585.017-.484 1.373-.988 2.738-1.468 4.112-.612 1.657-1.192 3.327-1.803 4.985-.36 1.028-.74 2.05-1.098 3.079a19 19 0 0 1-3.25 6.091 18.8 18.8 0 0 1-6.34 5.14 18.7 18.7 0 0 1-6.746 1.902c-.806.08-1.63.058-2.44.05a19 19 0 0 1-5.32-1.033 18.7 18.7 0 0 1-5.946-3.413 19.05 19.05 0 0 1-4.889-6.382c-.359-.794-.698-1.592-.94-2.43-.313-.046-.615-.018-.931-.024-1.59-.005-3.18.008-4.769-.006.087-.302.215-.587.314-.885.242-.693.509-1.378.733-2.077.36-.032.718.005 1.078-.024.23-.574.424-1.163.639-1.743.635-1.768 1.266-3.536 1.91-5.3.028-.113.11-.233.016-.334-.418-.575-.867-1.129-1.283-1.706.838-.027 1.679.004 2.517-.015.242-.629.49-1.254.78-1.862a18.5 18.5 0 0 1 1.476-2.534c2.4-3.5 5.987-6.157 10.06-7.368a19 19 0 0 1 4.605-.79m-5.639 7.958c.256.013.51.008.766.008h11.375c.238.001.476.004.714-.01-.08-.355-.215-.7-.342-1.04a17 17 0 0 0-.8-1.84c-.538-1.111-1.236-2.197-2.11-3.073-.73-.72-1.572-1.274-2.597-1.449-.837-.143-1.682.044-2.423.443-.818.455-1.494 1.11-2.062 1.848-.724.92-1.29 1.993-1.762 3.06-.28.672-.566 1.352-.759 2.053m-8.233-.002c.24.015.48.01.722.01h6.043c.304-.001.609.005.914-.006.55-1.686 1.219-3.291 2.198-4.777.505-.757 1.11-1.465 1.812-2.044.209-.18.445-.314.66-.482-.29.009-.582.084-.872.128-1.3.219-2.547.61-3.77 1.099a18.4 18.4 0 0 0-7.29 5.502c-.148.184-.299.363-.417.57m21.648.002c.236.01.47.01.706.008h6.297c.228.001.454.006.681-.013-.04-.071-.078-.142-.125-.21a18.5 18.5 0 0 0-5.13-4.618c-2.078-1.254-4.42-2.107-6.827-2.431-.044.007-.192-.041-.158.051.348.23.679.477.976.771 1.098 1.034 1.902 2.398 2.546 3.75.344.794.682 1.6.94 2.426zM15.49 25.561c1.12.012 2.239.001 3.358.005q.152.003.303.015c-.173.568-.407 1.117-.6 1.68q-.435 1.232-.886 2.46c-.422 1.212-.874 2.413-1.302 3.622-.144.442-.334.872-.461 1.319.35.018.698.003 1.049.01-.357.99-.703 1.986-1.065 2.975q-.324 0-.647.013c.075.315.191.602.305.906a18.5 18.5 0 0 0 1.817 3.575q.113.173.24.34.012-.203.028-.404c.288-.027.574-.013.862-.015l6.895-.001c-.244-.93-.48-1.855-.637-2.805-.107-.528-.174-1.061-.265-1.591-.322-.027-.642-.011-.965-.015-1.609-.003-3.218.006-4.826-.003.153-.494.358-.97.519-1.462.584-1.611 1.155-3.227 1.747-4.836.328-.954.69-1.896 1.023-2.847.129-.366.277-.727.385-1.099-.42-.612-.918-1.17-1.336-1.782 1.182-.02 2.366.002 3.549-.01.098-.455.149-.919.249-1.374.14-.663.277-1.324.454-1.978.07-.26.153-.514.21-.777-2.604-.006-5.213.002-7.816-.004-.118-.008-.155.088-.216.168-.536.831-1.028 1.669-1.438 2.57-.187.442-.4.883-.533 1.345m9.614.049c3.821.01 7.644.001 11.466.004.343.004.69-.012 1.031.014-.08.284-.191.556-.292.834q-.5 1.402-1.006 2.803c-.05.123-.077.24-.197.314-.888.577-1.77 1.136-2.655 1.711-.174.112-.352.202-.502.347.818.027 1.638-.007 2.455.017-.158.542-.377 1.066-.556 1.6-.542 1.46-1.058 2.929-1.597 4.39-.367.015-.733.003-1.1.006-2.378.004-4.759-.005-7.137.005.007.278.07.544.112.819.174 1.112.43 2.193.702 3.284q.043.15.094.3c4.038.008 8.081.001 12.12.004.436-.003.873.005 1.309-.003.178-.54.291-1.103.425-1.655.196-.906.376-1.82.495-2.74-.369-.027-.741-.008-1.111-.014-1.048-.004-2.097.009-3.144-.005.062-.2.136-.394.21-.59.336-.904.655-1.814.979-2.723.406-1.091.78-2.194 1.185-3.286.325-.908.644-1.818.98-2.723.109-.322.244-.634.338-.96-.44-.605-.918-1.181-1.352-1.79.602-.02 1.206.004 1.808-.012a34 34 0 0 0-.445-2.282c-.148-.607-.283-1.205-.48-1.796-4.257-.009-8.517 0-12.775-.004-.141 0-.286-.008-.427.011-.038.084-.064.177-.089.265a33 33 0 0 0-.844 3.855m15.568-.062c.157.016.31.026.469.019 1.065-.003 2.132 0 3.198-.002q.299-.008.594.016c.973 1.655 1.969 3.326 2.946 4.982.099.178.197.352.322.512.175-.458.332-.923.508-1.381.349-1.018.733-2.023 1.091-3.037.086-.237.18-.469.241-.714-.21-.186-.229-.42-.33-.665a19.2 19.2 0 0 0-1.997-3.792 13 13 0 0 0-.683-.006H39.92q-.068 0-.134.005c.038.232.125.456.18.685.292 1.11.552 2.239.706 3.378m-14.51 4.59c.745.006 1.49-.003 2.234.003.101-.004.218.008.307-.047.777-.485 1.538-.998 2.318-1.478-.285-.026-.565-.014-.85-.015-1.032-.001-2.065.002-3.097-.002-.12.004-.254-.017-.37.012-.051.074-.073.171-.104.256-.135.427-.309.841-.438 1.27m13.726 11.921c2.313.006 4.627.001 6.94.003.299.001.596-.01.895.013l.04.304a18.7 18.7 0 0 0 2.283-4.657l.405-.04a16 16 0 0 0-1.237-.032c-1.059-.006-2.12.012-3.178-.008-.596-.982-1.18-1.974-1.768-2.96-.51-.836-.999-1.687-1.512-2.52-.075.151-.133.31-.188.47-.374 1.078-.778 2.145-1.15 3.224-.125.362-.265.718-.392 1.079-.095.277-.211.516-.255.805a32 32 0 0 1-.883 4.32m-15.36-7.402c.29.023.579.012.87.013h3.25c.303-.002.606.01.909-.012.195-.501.389-1.01.557-1.521-.303-.02-.604-.01-.908-.011-1.218-.001-2.437.002-3.655-.001-.158.002-.334-.015-.486.031-.094.184-.15.388-.223.58-.104.31-.232.607-.315.921m5.76 15.602c-.158-.142-.337-.252-.506-.379-.782-.607-1.423-1.375-1.97-2.195-.841-1.288-1.453-2.674-1.96-4.123-.116-.32-.195-.652-.315-.972-.267-.034-.531-.018-.8-.02H18.39c-.234.002-.471-.011-.703.013.095.193.24.367.369.538a18.4 18.4 0 0 0 4.58 4.308 18.1 18.1 0 0 0 6.622 2.683c.343.06.68.13 1.03.147m-4.175-7.657c.017.219.093.416.166.62.351 1.038.76 2.063 1.285 3.027.378.744.841 1.447 1.37 2.092.601.719 1.365 1.405 2.239 1.768a3.6 3.6 0 0 0 2.385.184c.704-.18 1.326-.554 1.874-1.025.487-.405.906-.902 1.284-1.407.819-1.126 1.425-2.357 1.926-3.652.192-.529.398-1.057.543-1.6-.28-.023-.558-.013-.838-.013H27.023c-.304 0-.607-.006-.91.006m8.787 7.681c.35-.014.683-.096 1.027-.154.776-.132 1.54-.33 2.289-.571.897-.301 1.776-.633 2.612-1.08 2.026-.997 3.845-2.425 5.363-4.092.41-.456.794-.938 1.164-1.427q.125-.166.225-.35c-.286-.024-.568-.012-.854-.014q-3.405.002-6.808 0a2 2 0 0 0-.158.01c-.07.116-.11.257-.152.386a23 23 0 0 1-1.141 2.913c-.62 1.267-1.4 2.536-2.43 3.51a6.3 6.3 0 0 1-1.137.87"/></svg>
