<svg width="128" height="128" viewBox="0 0 128 128" fill="none" xmlns="http://www.w3.org/2000/svg">
<g clip-path="url(#clip0_175_433)">
<path d="M64 128C99.346 128 128 99.346 128 64C128 28.654 99.346 0 64 0C28.654 0 0 28.654 0 64C0 99.346 28.654 128 64 128Z" fill="#2F63F9"/>
<path d="M91.3 25.24C93.433 26.817 95.374 28.558 97.28 30.4L98.009 31.09C102.995 35.914 106.696 42.384 108.8 48.96V49.92H107.52L107.19 49.05C105.47 44.621 103.532 40.704 100.8 36.8C95.283 36.337 95.283 36.337 88.98 36.44L82.471 36.437L77.44 36.48L78.72 41.6C79.312 44.371 79.535 47.092 79.68 49.92H78.4L78.073 47.874L77.64 45.18L77.213 42.514C76.879 40.4998 76.528 38.4884 76.16 36.48H53.12C51.837 43.184 51.837 43.184 50.88 49.92H49.6C49.681 45.457 50.66 41.165 51.52 36.8C47.7266 36.716 43.9333 36.6494 40.14 36.6L33.739 36.487L28.48 36.8C25.534 41.008 23.441 45.075 21.76 49.92H20.48C22.445 39.947 29.976 30.612 38.265 25.014C54.663 14.624 74.975 13.989 91.3 25.24Z" fill="#E6C040"/>
<path d="M21.76 80H23.04L23.521 80.985C24.736 83.447 25.987 85.857 27.409 88.206C27.84 88.96 27.84 88.96 28.16 89.92L51.52 89.6L49.92 81.28V80H51.2C51.86 83.302 52.49 86.611 53.12 89.92H76.16C76.6476 87.0144 77.1186 84.106 77.573 81.195L77.76 80H79.36C79.13 82.034 78.783 84.03 78.4 86.04L78.06 87.837C77.76 89.28 77.76 89.28 77.44 89.92C81.273 89.987 85.107 90.02 88.94 90.04L95.409 90.107L100.8 89.6C103.144 85.996 103.144 85.996 105.14 82.28L105.781 80.963L106.24 80H107.52C106.308 86.062 101.76 91.322 97.6 95.68L96.821 96.521C89.409 104.299 78.081 109.114 67.419 109.516C59.616 109.596 52.177 108.792 45.12 105.28L43.916 104.695C37.633 101.522 32.089 97.152 27.84 91.52L27.255 90.745C21.76 83.171 21.76 83.171 21.76 80Z" fill="#E4BF42"/>
<path d="M113.081 56.4C114.979 57.667 116.406 59.67 117.005 61.875C117.527 65.707 117.182 68.707 115.04 71.92C113.062 73.757 110.579 75.102 107.84 75.2L106.964 75.247C103.586 75.359 100.995 74.66 98.24 72.64C95.746 70.193 95.306 68.034 95.2 64.66C95.256 61.852 95.661 60.014 97.535 57.916C101.778 53.869 108.048 53.756 113.081 56.4Z" fill="#EFC537"/>
<path d="M54.72 55.04C60.8 55.04 60.8 55.04 62.413 56.353L63.56 58.12L64.803 59.969L65.92 61.76L66.877 63.181C68.8 66.053 68.8 66.053 68.8 66.88H69.44L69.281 65.731C69.082 63.594 69.09 61.487 69.101 59.341L69.109 56.899L69.12 55.04H74.88V74.88C68.8 74.88 68.8 74.88 67.456 73.954L66.66 72.7L65.764 71.371L64.96 70.08C64.4986 69.45 64.032 68.8233 63.56 68.2C62.49 66.719 61.496 65.204 60.48 63.68V74.88H54.72V55.04Z" fill="#ECC33A"/>
<path d="M35.52 55.04H53.12V60.16H40.96V62.4H52.48V67.52H40.96V69.76H53.12V74.88H35.52V55.04Z" fill="#EDC439"/>
<path d="M29.76 91.2H52.16C52.6767 92.5711 53.1847 93.9455 53.684 95.323C55.364 99.895 57.121 103.951 60.48 107.52V107.84C55.494 108.011 50.577 106.371 46.08 104.32L44.947 103.812C39.222 101.108 33.672 96.847 29.76 91.84V91.2Z" fill="#3264F6"/>
<path d="M13.1201 55.04H18.5601V62.4H27.8401V55.04H33.2801V74.88H27.8401V67.52H18.5601V74.88H13.1201V55.04Z" fill="#F0C536"/>
<path d="M82.051 91.169L88.34 91.18L94.631 91.189L99.52 91.2C95.63 98.978 85.281 103.868 77.44 106.56C74.586 107.42 71.77 107.711 68.8 107.84L69.64 106.76C72.83 102.48 74.824 97.711 76.427 92.643C77.363 89.824 77.57 91.197 82.051 91.169Z" fill="#3264F6"/>
<path d="M60.48 18.56L59.66 19.62C56.06 24.462 54.174 29.492 52.16 35.2H29.76C33.49 27.738 43.302 22.865 50.74 20.2C53.874 19.214 57.19 18.56 60.48 18.56ZM68.8 18.56C79.543 18.6 89.712 24.73 97.12 32.04C99.52 34.461 99.52 34.461 99.52 35.2H77.12C76.16 32.64 76.16 32.64 75.725 31.427C74.199 27.217 72.486 23.475 69.702 19.945C69.12 19.2 69.12 19.2 68.8 18.56Z" fill="#3164F7"/>
<path d="M65.5999 18.24C70.2479 20.347 72.4319 25.511 74.1879 29.974C75.5199 33.643 75.5199 33.643 75.5199 35.2H53.4399C55.1139 29.063 57.3889 22.47 62.7199 18.56C63.7529 18.044 64.4499 18.112 65.5999 18.24Z" fill="#3164F7"/>
<path d="M53.4399 91.2H75.5199C74.7259 96.76 72.0259 103.184 67.6829 106.927C66.2059 108.017 65.1729 108.402 63.3599 108.16C57.5119 104.505 55.2499 97.533 53.4399 91.2Z" fill="#3264F6"/>
<path d="M76.8 55.04H82.24V69.76H93.76V74.88H76.8V55.04Z" fill="#F0C536"/>
<path d="M105.84 60.08L107.195 60.055C108.542 60.165 109.284 60.369 110.4 61.12C111.787 62.831 111.552 64.786 111.36 66.88C110.973 68.062 110.703 68.565 109.732 69.317C108.486 69.909 107.475 69.91 106.1 69.92L104.681 69.95C103.127 69.726 102.523 69.271 101.44 68.16C100.935 67.15 101.027 66.16 101 65.04L100.953 63.685C101.153 62.145 101.624 61.553 102.72 60.48C103.729 59.975 104.721 60.092 105.84 60.08Z" fill="#3264F6"/>
<g clip-path="url(#clip1_175_433)">
<path d="M0 0H52V52H0V0ZM8.21387 19.5899C7.37547 19.6087 6.53504 19.5777 5.69664 19.6051C6.11305 20.182 6.56145 20.7355 6.97988 21.3109C7.07434 21.4119 6.99207 21.5323 6.96414 21.645C6.31922 23.4091 5.68902 25.1768 5.05324 26.9445C4.83895 27.5245 4.64395 28.114 4.41441 28.6879C4.05438 28.7168 3.69586 28.6797 3.33633 28.7117C3.11238 29.4105 2.84527 30.0955 2.60406 30.7887C2.50504 31.0868 2.37656 31.3716 2.28973 31.6738C3.87867 31.6875 5.46914 31.6753 7.05859 31.6799C7.37496 31.686 7.67711 31.658 7.99043 31.7032C8.23215 32.5421 8.57086 33.3399 8.92988 34.1336C10.0801 36.5762 11.7609 38.7689 13.8191 40.5158C15.567 42.0073 17.5967 43.1712 19.7656 43.9288C21.4815 44.523 23.271 44.8764 25.0854 44.9617C25.8954 44.9698 26.7191 44.9922 27.5245 44.912C29.8624 44.7058 32.1735 44.0659 34.2713 43.0097C36.7326 41.7894 38.901 40.0182 40.6108 37.8701C42.0565 36.0628 43.1564 33.9828 43.8603 31.7789C44.2188 30.7496 44.5996 29.7284 44.9592 28.6995C45.5696 27.0415 46.1495 25.3723 46.7614 23.7148C47.2418 22.3412 47.7461 20.9757 48.23 19.6031C46.7025 19.5777 45.172 19.6112 43.6445 19.5863C42.8284 17.2875 41.5634 15.1511 39.9379 13.3311C38.1631 11.3318 35.9618 9.71649 33.5172 8.63231C31.7891 7.86297 29.9442 7.3648 28.0658 7.14391C27.6996 7.11242 27.3335 7.07078 26.9669 7.04387C26.3565 7.02406 25.7446 7.0266 25.1342 7.03625C23.5742 7.11395 22.0238 7.36887 20.5293 7.8259C16.4567 9.03703 12.8695 11.6944 10.4696 15.1938C9.90742 15.9966 9.42195 16.8472 8.99438 17.7282C8.70289 18.3361 8.45559 18.9612 8.21387 19.5899Z" fill="black" stroke="black" stroke-width="17.7778"/>
<path d="M25.1342 7.03625C25.7446 7.0266 26.3566 7.02406 26.9669 7.04387C27.3336 7.07078 27.6997 7.11242 28.0658 7.14391C29.9442 7.3648 31.7891 7.86297 33.5172 8.63231C35.9618 9.71648 38.1632 11.3318 39.938 13.3311C41.5635 15.1511 42.8285 17.2875 43.6445 19.5863C45.172 19.6112 46.7026 19.5777 48.2301 19.6031C47.7461 20.9757 47.2419 22.3412 46.7615 23.7148C46.1496 25.3723 45.5696 27.0415 44.9592 28.6995C44.5997 29.7284 44.2189 30.7496 43.8603 31.7789C43.1565 33.9828 42.0566 36.0628 40.6108 37.8701C38.901 40.0182 36.7327 41.7894 34.2713 43.0097C32.1735 44.0659 29.8625 44.7058 27.5245 44.912C26.7191 44.9922 25.8955 44.9698 25.0855 44.9617C23.2711 44.8764 21.4816 44.523 19.7657 43.9288C17.5968 43.1712 15.5671 42.0073 13.8192 40.5158C11.761 38.7689 10.0801 36.5762 8.92995 34.1336C8.57093 33.3399 8.23222 32.5421 7.9905 31.7032C7.67718 31.658 7.37503 31.686 7.05866 31.6799C5.46921 31.6753 3.87874 31.6875 2.28979 31.6738C2.37663 31.3716 2.50511 31.0868 2.60413 30.7887C2.84534 30.0955 3.11245 29.4105 3.3364 28.7117C3.69593 28.6797 4.05444 28.7168 4.41448 28.6879C4.64401 28.114 4.83901 27.5245 5.05331 26.9445C5.68909 25.1768 6.31929 23.4091 6.96421 21.645C6.99214 21.5323 7.0744 21.4119 6.97995 21.3109C6.56151 20.7355 6.11312 20.182 5.69671 19.6051C6.53511 19.5777 7.37554 19.6087 8.21394 19.5899C8.45565 18.9612 8.70296 18.3361 8.99444 17.7282C9.42202 16.8472 9.90749 15.9966 10.4696 15.1938C12.8696 11.6944 16.4567 9.03703 20.5294 7.8259C22.0239 7.36887 23.5742 7.11395 25.1342 7.03625ZM19.496 14.9937C19.7514 15.0069 20.0064 15.0023 20.2618 15.0018C24.0536 15.0018 27.8449 15.0018 31.6368 15.0018C31.875 15.0033 32.1131 15.0059 32.3508 14.9921C32.2716 14.6367 32.136 14.2919 32.0085 13.9511C31.7739 13.3245 31.5169 12.7065 31.2097 12.1118C30.6709 11.0007 29.9732 9.91504 29.0982 9.03856C28.3695 8.31949 27.5266 7.76547 26.5018 7.59027C25.6644 7.44656 24.8199 7.63395 24.079 8.03309C23.2609 8.48809 22.5845 9.14316 22.0163 9.88102C21.2932 10.8007 20.7259 11.8742 20.2547 12.9416C19.9754 13.6124 19.6885 14.2924 19.496 14.9937ZM11.2628 14.9916C11.5035 15.0069 11.7437 15.0028 11.9844 15.0018C13.9989 15.0013 16.0129 15.0018 18.0274 15.0013C18.3321 15.0008 18.6368 15.0069 18.9415 14.9957C19.4919 13.3103 20.1607 11.7046 21.1403 10.2192C21.6446 9.46207 22.2489 8.75367 22.9522 8.17477C23.1604 7.99551 23.3965 7.86094 23.6123 7.69285C23.3209 7.70148 23.0294 7.77715 22.7399 7.82082C21.4389 8.03969 20.1932 8.43172 18.9699 8.91973C16.1287 10.1075 13.5957 12.0093 11.6798 14.4219C11.5315 14.6057 11.3812 14.7855 11.2628 14.9916ZM32.9109 14.9942C33.1465 15.0043 33.3816 15.0043 33.6173 15.0018C35.716 15.0018 37.8153 15.0018 39.9141 15.0018C40.1416 15.0033 40.3681 15.0074 40.5951 14.9891C40.555 14.9175 40.5164 14.8469 40.4702 14.7794C39.0686 12.9411 37.3187 11.3562 35.3392 10.1608C33.2623 8.90703 30.9192 8.05441 28.5132 7.72992C28.4685 7.73703 28.3208 7.68879 28.3548 7.78121C28.7026 8.01074 29.0337 8.25754 29.3303 8.55207C30.4287 9.58598 31.2331 10.95 31.8765 12.3023C32.2213 13.0955 32.5585 13.9014 32.8159 14.7276C32.8464 14.817 32.8794 14.9053 32.9109 14.9942ZM8.77964 19.5899C9.89886 19.6016 11.0186 19.5909 12.1373 19.5945C12.2389 19.596 12.3394 19.6026 12.4405 19.6097C12.2678 20.1779 12.0342 20.7274 11.8412 21.289C11.5503 22.1112 11.2557 22.9318 10.9546 23.7499C10.5326 24.9615 10.0807 26.1625 9.65308 27.3721C9.50835 27.8144 9.31894 28.2435 9.19147 28.6909C9.54136 28.7087 9.89022 28.6939 10.2406 28.7C9.88362 29.6913 9.53831 30.6866 9.17624 31.6763C8.96042 31.6773 8.74409 31.6799 8.52827 31.689C8.60394 32.0039 8.72023 32.2913 8.83398 32.595C9.30015 33.8487 9.92526 35.0467 10.6509 36.1695C10.7256 36.2863 10.8073 36.398 10.8901 36.5092C10.8998 36.3746 10.9074 36.24 10.9191 36.1055C11.207 36.0791 11.4929 36.0928 11.7813 36.0907C14.0792 36.0897 16.378 36.0923 18.6759 36.0897C18.4316 35.1594 18.1955 34.2352 18.0386 33.2846C17.9319 32.757 17.8644 32.2237 17.774 31.6936C17.4516 31.6672 17.1321 31.6829 16.8087 31.6794C15.1999 31.6763 13.5907 31.6845 11.9824 31.6758C12.1358 31.1817 12.3404 30.7054 12.5014 30.2138C13.0859 28.6025 13.6572 26.9867 14.2483 25.3779C14.5768 24.4243 14.9379 23.4823 15.272 22.5306C15.4005 22.165 15.5493 21.8039 15.6564 21.4322C15.237 20.8203 14.7393 20.2627 14.3204 19.6503C15.5031 19.6305 16.6868 19.6523 17.8695 19.6396C17.968 19.1846 18.0188 18.721 18.1188 18.2655C18.2585 17.6033 18.3956 16.9416 18.5733 16.2881C18.6424 16.0286 18.7262 15.7742 18.782 15.5111C16.179 15.5045 13.5698 15.5132 10.9663 15.5066C10.8485 15.4989 10.8119 15.5954 10.7505 15.6746C10.2152 16.5059 9.72265 17.3438 9.31233 18.2447C9.12546 18.687 8.91319 19.1278 8.77964 19.5899ZM18.3941 19.6386C22.2148 19.6493 26.0382 19.6402 29.8594 19.6432C30.2032 19.6473 30.5491 19.6305 30.8908 19.6564C30.8111 19.9413 30.6994 20.2135 30.5983 20.4907C30.2657 21.4261 29.928 22.3595 29.5928 23.2939C29.5431 23.4173 29.5162 23.5336 29.3953 23.6077C28.5076 24.1851 27.6266 24.7442 26.7405 25.319C26.5668 25.4312 26.3891 25.5206 26.2387 25.6659C27.0563 25.6933 27.8764 25.6588 28.694 25.6831C28.5356 26.2245 28.3167 26.7485 28.1375 27.2832C27.5961 28.7432 27.0797 30.2118 26.5404 31.6723C26.1737 31.688 25.8081 31.6763 25.4415 31.6794C23.0629 31.6824 20.6823 31.6738 18.3037 31.6834C18.3108 31.9622 18.3737 32.2283 18.4154 32.5025C18.5896 33.6146 18.8465 34.6963 19.1182 35.7871C19.1456 35.8876 19.1791 35.9882 19.2116 36.0872C23.2498 36.0953 27.293 36.0882 31.3321 36.0907C31.7683 36.0882 32.2045 36.0963 32.6407 36.0877C32.819 35.5479 32.9322 34.9852 33.0658 34.4332C33.2618 33.5268 33.4421 32.6132 33.5609 31.6931C33.1922 31.6657 32.8195 31.6845 32.4493 31.6794C31.4017 31.6753 30.353 31.6875 29.3054 31.6738C29.3674 31.4742 29.4415 31.2802 29.5151 31.0847C29.8513 30.1803 30.1707 29.2698 30.4947 28.3613C30.9005 27.2695 31.2742 26.1671 31.6799 25.0753C32.0044 24.1668 32.3239 23.2568 32.6595 22.3519C32.7687 22.0304 32.9033 21.7176 32.9977 21.3916C32.558 20.7873 32.0801 20.2104 31.6454 19.6021C32.2477 19.5818 32.8515 19.6056 33.4542 19.5904C33.3349 18.8256 33.18 18.0629 33.0089 17.3078C32.8611 16.7009 32.726 16.1032 32.529 15.5121C28.272 15.503 24.0115 15.5127 19.754 15.5076C19.6128 15.5086 19.4676 15.5005 19.3269 15.5193C19.2888 15.603 19.2629 15.696 19.238 15.7843C18.878 17.0488 18.5977 18.3402 18.3941 19.6386ZM33.9616 19.5772C34.1185 19.5929 34.2718 19.6026 34.4303 19.596C35.4962 19.5929 36.5626 19.5965 37.629 19.5945C37.828 19.5894 38.0246 19.5934 38.2226 19.6097C39.1956 21.2652 40.1914 22.9364 41.1689 24.5923C41.2675 24.7696 41.366 24.9443 41.4904 25.1042C41.6656 24.6462 41.8225 24.181 41.9992 23.723C42.3476 22.7053 42.7315 21.7004 43.09 20.6857C43.1753 20.4491 43.2692 20.217 43.3312 19.9723C43.1215 19.7859 43.1022 19.5523 43.0006 19.3065C42.4796 17.972 41.8083 16.7004 41.0034 15.5147C40.7759 15.5061 40.5484 15.5061 40.3204 15.5091C37.9504 15.5081 35.5789 15.5096 33.2095 15.5081C33.1648 15.5086 33.1201 15.5106 33.0754 15.5142C33.1135 15.7463 33.2008 15.9697 33.2562 16.1987C33.5482 17.3098 33.8077 18.4377 33.9616 19.5772ZM19.4518 24.1663C20.1968 24.1729 20.9412 24.1643 21.6857 24.1704C21.7873 24.1663 21.9035 24.1775 21.9929 24.1231C22.7699 23.6382 23.5311 23.1253 24.3106 22.6454C24.0262 22.6185 23.7459 22.6312 23.461 22.6296C22.4286 22.6286 21.3957 22.6322 20.3633 22.6281C20.244 22.6322 20.1094 22.6109 19.9942 22.6398C19.9424 22.7139 19.921 22.8114 19.8901 22.8957C19.755 23.3228 19.5808 23.7372 19.4518 24.1663ZM33.178 36.0882C35.4906 36.0938 37.8047 36.0892 40.1173 36.0907C40.4164 36.0923 40.7139 36.0801 41.0125 36.1034C41.0252 36.205 41.0389 36.3066 41.0537 36.4076C42.0276 34.9741 42.7934 33.3963 43.3358 31.751C43.4708 31.7357 43.6059 31.7251 43.741 31.7104C43.3287 31.6834 42.9173 31.6743 42.504 31.6794C41.4452 31.6733 40.3844 31.6911 39.3261 31.6707C38.7299 30.6886 38.1464 29.6974 37.5579 28.7102C37.047 27.8748 36.559 27.0243 36.0461 26.1904C35.9705 26.3423 35.9131 26.5002 35.8577 26.6602C35.484 27.7388 35.0798 28.8062 34.707 29.8853C34.5826 30.2468 34.4425 30.6028 34.316 30.9639C34.221 31.2406 34.1048 31.4803 34.0611 31.7693C33.8742 33.2252 33.5609 34.6719 33.178 36.0882ZM17.8172 28.6863C18.1076 28.7087 18.3966 28.698 18.6876 28.699C19.7707 28.6995 20.8544 28.6985 21.9376 28.699C22.2412 28.697 22.5434 28.7092 22.8466 28.6873C23.0421 28.1856 23.2355 27.6773 23.4041 27.1659C23.101 27.1456 22.7998 27.1568 22.4962 27.1548C21.2774 27.1537 20.0587 27.1568 18.8404 27.1537C18.6825 27.1563 18.5063 27.1385 18.3544 27.1852C18.2605 27.3686 18.2046 27.5727 18.132 27.7652C18.0274 28.0744 17.8994 28.372 17.8172 28.6863ZM23.5773 44.2884C23.4194 44.1457 23.2406 44.0365 23.0715 43.909C22.29 43.3022 21.6491 42.5339 21.1027 41.7138C20.2603 40.4254 19.6489 39.0401 19.1416 37.5913C19.0263 37.2704 18.9466 36.9388 18.8267 36.6189C18.5601 36.5848 18.2955 36.6006 18.0274 36.5986C15.9114 36.5986 13.7958 36.5991 11.6798 36.5986C11.4462 36.6006 11.2085 36.5879 10.9764 36.6123C11.0719 36.8047 11.2171 36.9784 11.3456 37.15C12.6101 38.8355 14.1675 40.2975 15.9256 41.4578C17.9253 42.7766 20.1917 43.7008 22.5475 44.1406C22.8907 44.201 23.2279 44.2701 23.5773 44.2884ZM19.4026 36.6311C19.4198 36.8494 19.4955 37.0464 19.5691 37.2501C19.92 38.2891 20.3283 39.3143 20.8539 40.2782C21.2322 41.0221 21.6953 41.7244 22.2245 42.3698C22.8252 43.0889 23.5885 43.775 24.4624 44.1375C25.2104 44.4615 26.059 44.5418 26.8476 44.3219C27.5519 44.1411 28.174 43.7684 28.7214 43.2966C29.2084 42.8919 29.6274 42.3952 30.0062 41.8905C30.8243 40.7636 31.4306 39.5332 31.9323 38.2378C32.1238 37.7091 32.3294 37.1805 32.4752 36.6371C32.1954 36.6153 31.9171 36.6255 31.6368 36.625C27.8622 36.6245 24.0871 36.625 20.3126 36.6245C20.0089 36.6255 19.7062 36.6189 19.4026 36.6311ZM28.1898 44.3122C28.5401 44.298 28.8728 44.2157 29.2171 44.1584C29.9925 44.0258 30.7573 43.8278 31.5058 43.5866C32.4031 43.2859 33.2821 42.9538 34.118 42.5064C36.1441 41.5101 37.9631 40.0816 39.481 38.4145C39.8913 37.959 40.2747 37.4771 40.6449 36.988C40.7292 36.8779 40.8018 36.7595 40.8693 36.6382C40.5834 36.6143 40.3021 36.6265 40.0157 36.6245C37.7468 36.6245 35.4764 36.6255 33.208 36.6239C33.1551 36.625 33.1018 36.6285 33.0495 36.6346C32.9799 36.7499 32.9398 36.8911 32.8982 37.0195C32.5894 38.0209 32.1974 38.9832 31.7566 39.9329C31.1371 41.1998 30.3576 42.4694 29.3262 43.4434C28.9789 43.7755 28.6026 44.0664 28.1898 44.3122Z" fill="black" stroke="#D51A35" stroke-width="17.7778"/>
<path d="M26.5016 7.59026C27.5264 7.76545 28.3694 8.31948 29.0981 9.03854C29.973 9.91502 30.6708 11.0007 31.2096 12.1118C31.5168 12.7065 31.7737 13.3245 32.0083 13.9511C32.1358 14.2919 32.2714 14.6367 32.3506 14.9921C32.113 15.0058 31.8748 15.0033 31.6366 15.0018C27.8448 15.0018 24.0535 15.0018 20.2616 15.0018C20.0062 15.0023 19.7513 15.0069 19.4958 14.9937C19.6883 14.2924 19.9752 13.6124 20.2545 12.9416C20.7258 11.8742 21.293 10.8006 22.0161 9.881C22.5844 9.14315 23.2608 8.48807 24.0789 8.03307C24.8198 7.63393 25.6642 7.44655 26.5016 7.59026Z" fill="black" stroke="black" stroke-width="17.7778"/>
<path d="M23.6122 7.69287C23.3964 7.86096 23.1602 7.99553 22.952 8.17478C22.2487 8.75369 21.6444 9.46209 21.1402 10.2192C20.1606 11.7046 19.4918 13.3103 18.9413 14.9957C18.6366 15.0069 18.332 15.0008 18.0273 15.0013C16.0128 15.0018 13.9988 15.0013 11.9843 15.0018C11.7436 15.0028 11.5034 15.0069 11.2627 14.9917C11.381 14.7855 11.5313 14.6057 11.6796 14.4219C13.5956 12.0093 16.1286 10.1075 18.9698 8.91975C20.1931 8.43174 21.4387 8.03971 22.7398 7.82084C23.0292 7.77717 23.3207 7.7015 23.6122 7.69287Z" fill="black" stroke="black" stroke-width="17.7778"/>
<path d="M28.5131 7.72993C30.9191 8.05442 33.2621 8.90704 35.3391 10.1608C37.3186 11.3562 39.0685 12.9411 40.47 14.7794C40.5163 14.8469 40.5548 14.9175 40.595 14.9891C40.368 15.0074 40.1415 15.0033 39.914 15.0018C37.8152 15.0018 35.7159 15.0018 33.6171 15.0018C33.3815 15.0043 33.1464 15.0043 32.9107 14.9942C32.8793 14.9053 32.8462 14.817 32.8158 14.7276C32.5583 13.9014 32.2211 13.0955 31.8763 12.3023C31.2329 10.95 30.4286 9.58598 29.3302 8.55208C29.0336 8.25755 28.7025 8.01075 28.3546 7.78122C28.3206 7.6888 28.4684 7.73704 28.5131 7.72993Z" fill="black" stroke="black" stroke-width="17.7778"/>
<path d="M10.9663 15.5066C13.5699 15.5132 16.179 15.5046 18.7821 15.5112C18.7262 15.7742 18.6424 16.0286 18.5734 16.2881C18.3956 16.9417 18.2585 17.6033 18.1189 18.2655C18.0188 18.721 17.968 19.1847 17.8695 19.6397C16.6868 19.6524 15.5031 19.6305 14.3204 19.6503C14.7394 20.2628 15.237 20.8203 15.6565 21.4323C15.5493 21.804 15.4005 22.165 15.2721 22.5307C14.9379 23.4823 14.5769 24.4243 14.2483 25.378C13.6572 26.9867 13.0859 28.6026 12.5014 30.2139C12.3405 30.7054 12.1358 31.1817 11.9825 31.6758C13.5907 31.6845 15.2 31.6764 16.8087 31.6794C17.1322 31.683 17.4516 31.6672 17.7741 31.6936C17.8645 32.2238 17.932 32.757 18.0386 33.2846C18.1955 34.2352 18.4317 35.1594 18.6759 36.0898C16.3781 36.0923 14.0792 36.0898 11.7814 36.0908C11.4929 36.0928 11.207 36.0791 10.9191 36.1055C10.9074 36.2401 10.8998 36.3746 10.8902 36.5092C10.8074 36.398 10.7256 36.2863 10.651 36.1695C9.92531 35.0467 9.3002 33.8488 8.83402 32.595C8.72027 32.2913 8.60398 32.0039 8.52832 31.6891C8.74414 31.6799 8.96047 31.6774 9.17629 31.6764C9.53836 30.6866 9.88367 29.6913 10.2407 28.7001C9.89027 28.694 9.54141 28.7087 9.19152 28.6909C9.31898 28.2435 9.5084 27.8144 9.65312 27.3721C10.0807 26.1625 10.5327 24.9616 10.9546 23.7499C11.2558 22.9318 11.5503 22.1112 11.8413 21.2891C12.0343 20.7274 12.2679 20.178 12.4405 19.6097C12.3395 19.6026 12.2389 19.596 12.1373 19.5945C11.0186 19.5909 9.89891 19.6016 8.77969 19.5899C8.91324 19.1278 9.12551 18.687 9.31238 18.2447C9.7227 17.3439 10.2153 16.506 10.7505 15.6747C10.812 15.5955 10.8485 15.499 10.9663 15.5066Z" fill="black" stroke="black" stroke-width="17.7778"/>
<path d="M19.327 15.5192C19.4676 15.5004 19.6129 15.5086 19.754 15.5076C24.0115 15.5126 28.2721 15.503 32.5291 15.5121C32.7261 16.1032 32.8612 16.7009 33.0089 17.3077C33.1801 18.0629 33.335 18.8256 33.4543 19.5904C32.8515 19.6056 32.2477 19.5817 31.6455 19.602C32.0802 20.2104 32.558 20.7873 32.9978 21.3916C32.9033 21.7176 32.7688 22.0304 32.6596 22.3518C32.3239 23.2568 32.0045 24.1668 31.68 25.0752C31.2743 26.167 30.9005 27.2695 30.4948 28.3613C30.1708 29.2698 29.8514 30.1803 29.5152 31.0847C29.4416 31.2802 29.3674 31.4742 29.3055 31.6738C30.3531 31.6875 31.4017 31.6753 32.4493 31.6793C32.8195 31.6844 33.1923 31.6656 33.5609 31.6931C33.4421 32.6132 33.2618 33.5268 33.0658 34.4332C32.9323 34.9852 32.819 35.5479 32.6408 36.0877C32.2046 36.0963 31.7684 36.0882 31.3321 36.0907C27.293 36.0882 23.2498 36.0953 19.2117 36.0872C19.1792 35.9881 19.1457 35.8876 19.1182 35.787C18.8466 34.6963 18.5896 33.6146 18.4154 32.5025C18.3738 32.2283 18.3108 31.9622 18.3037 31.6834C20.6823 31.6738 23.0629 31.6824 25.4415 31.6793C25.8082 31.6763 26.1738 31.688 26.5404 31.6722C27.0797 30.2118 27.5962 28.7432 28.1375 27.2832C28.3168 26.7485 28.5356 26.2244 28.6941 25.6831C27.8765 25.6587 27.0564 25.6933 26.2388 25.6658C26.3891 25.5206 26.5668 25.4312 26.7405 25.319C27.6266 24.7442 28.5077 24.1851 29.3954 23.6077C29.5162 23.5335 29.5431 23.4172 29.5929 23.2938C29.928 22.3595 30.2657 21.4261 30.5984 20.4907C30.6994 20.2134 30.8111 19.9413 30.8909 19.6564C30.5491 19.6305 30.2033 19.6472 29.8595 19.6432C26.0382 19.6401 22.2149 19.6493 18.3941 19.6386C18.5977 18.3401 18.878 17.0488 19.2381 15.7843C19.263 15.6959 19.2889 15.603 19.327 15.5192Z" fill="black" stroke="black" stroke-width="17.7778"/>
<path d="M33.0754 15.5142C33.1201 15.5106 33.1648 15.5086 33.2095 15.5081C35.579 15.5096 37.9504 15.5081 40.3204 15.5091C40.5484 15.5061 40.7759 15.5061 41.0034 15.5147C41.8083 16.7004 42.4796 17.972 43.0006 19.3065C43.1022 19.5523 43.1215 19.7859 43.3312 19.9723C43.2693 20.217 43.1753 20.4491 43.09 20.6858C42.7315 21.7004 42.3476 22.7053 41.9992 23.723C41.8225 24.181 41.6656 24.6462 41.4904 25.1042C41.366 24.9443 41.2675 24.7696 41.169 24.5924C40.1914 22.9364 39.1956 21.2652 38.2226 19.6097C38.0246 19.5934 37.8281 19.5894 37.629 19.5945C36.5626 19.5965 35.4962 19.5929 34.4303 19.596C34.2718 19.6026 34.1185 19.5929 33.9616 19.5772C33.8077 18.4377 33.5482 17.3098 33.2562 16.1987C33.2009 15.9697 33.1135 15.7463 33.0754 15.5142Z" fill="black" stroke="black" stroke-width="17.7778"/>
<path d="M19.994 22.6398C20.1093 22.6109 20.2438 22.6322 20.3632 22.6281C21.3956 22.6322 22.4285 22.6286 23.4608 22.6296C23.7457 22.6312 24.026 22.6185 24.3104 22.6454C23.5309 23.1253 22.7697 23.6382 21.9928 24.1231C21.9034 24.1775 21.7871 24.1663 21.6855 24.1703C20.9411 24.1643 20.1966 24.1729 19.4517 24.1663C19.5806 23.7372 19.7548 23.3228 19.8899 22.8957C19.9209 22.8114 19.9422 22.7139 19.994 22.6398Z" fill="black" stroke="black" stroke-width="17.7778"/>
<path d="M36.0461 26.1904C36.559 27.0243 37.047 27.8748 37.5579 28.7102C38.1464 29.6974 38.7299 30.6886 39.3261 31.6707C40.3843 31.6911 41.4452 31.6733 42.504 31.6794C42.9173 31.6743 43.3286 31.6834 43.741 31.7104C43.6059 31.7251 43.4708 31.7357 43.3358 31.751C42.7934 33.3963 42.0276 34.9741 41.0536 36.4076C41.0389 36.3066 41.0252 36.205 41.0125 36.1034C40.7139 36.0801 40.4163 36.0923 40.1172 36.0907C37.8047 36.0892 35.4906 36.0938 33.178 36.0882C33.5609 34.6719 33.8742 33.2252 34.0611 31.7693C34.1047 31.4803 34.221 31.2406 34.316 30.9639C34.4424 30.6028 34.5826 30.2468 34.707 29.8853C35.0797 28.8062 35.484 27.7387 35.8577 26.6602C35.9131 26.5002 35.9704 26.3423 36.0461 26.1904Z" fill="black" stroke="black" stroke-width="17.7778"/>
<path d="M18.3544 27.1852C18.5062 27.1385 18.6825 27.1563 18.8404 27.1537C20.0586 27.1568 21.2774 27.1537 22.4961 27.1548C22.7998 27.1568 23.1009 27.1456 23.4041 27.1659C23.2355 27.6773 23.042 28.1856 22.8465 28.6873C22.5434 28.7092 22.2412 28.697 21.9375 28.699C20.8544 28.6985 19.7707 28.6995 18.6875 28.699C18.3966 28.698 18.1076 28.7087 17.8171 28.6863C17.8994 28.372 18.0274 28.0744 18.132 27.7651C18.2046 27.5727 18.2605 27.3685 18.3544 27.1852Z" fill="black" stroke="black" stroke-width="17.7778"/>
<path d="M10.9763 36.6123C11.2084 36.5879 11.446 36.6006 11.6796 36.5986C13.7957 36.5991 15.9112 36.5986 18.0273 36.5986C18.2954 36.6006 18.56 36.5848 18.8266 36.6189C18.9464 36.9388 19.0262 37.2704 19.1414 37.5913C19.6487 39.0401 20.2601 40.4254 21.1026 41.7137C21.649 42.5339 22.2899 43.3022 23.0714 43.909C23.2405 44.0365 23.4192 44.1457 23.5772 44.2884C23.2278 44.2701 22.8906 44.201 22.5473 44.1406C20.1916 43.7008 17.9252 42.7766 15.9255 41.4578C14.1674 40.2975 12.61 38.8355 11.3455 37.15C11.217 36.9784 11.0718 36.8047 10.9763 36.6123Z" fill="black" stroke="black" stroke-width="17.7778"/>
<path d="M19.4026 36.6311C19.7063 36.6189 20.0089 36.6255 20.3126 36.6245C24.0872 36.625 27.8622 36.6245 31.6368 36.625C31.9171 36.6255 32.1954 36.6153 32.4752 36.6372C32.3295 37.1805 32.1238 37.7092 31.9324 38.2378C31.4306 39.5332 30.8243 40.7636 30.0062 41.8905C29.6274 42.3952 29.2084 42.8919 28.7215 43.2966C28.174 43.7684 27.552 44.1411 26.8476 44.3219C26.059 44.5418 25.2104 44.4615 24.4624 44.1375C23.5885 43.775 22.8252 43.0889 22.2245 42.3699C21.6954 41.7244 21.2322 41.0221 20.8539 40.2782C20.3283 39.3143 19.92 38.2891 19.5692 37.2501C19.4955 37.0465 19.4199 36.8494 19.4026 36.6311Z" fill="black" stroke="black" stroke-width="17.7778"/>
<path d="M33.0495 36.6346C33.1018 36.6285 33.1551 36.625 33.2079 36.6239C35.4763 36.6255 37.7467 36.6245 40.0156 36.6245C40.302 36.6265 40.5834 36.6143 40.8693 36.6382C40.8017 36.7595 40.7291 36.8779 40.6448 36.988C40.2746 37.4771 39.8912 37.959 39.4809 38.4145C37.9631 40.0816 36.1441 41.5101 34.1179 42.5064C33.282 42.9538 32.403 43.2859 31.5057 43.5866C30.7572 43.8278 29.9924 44.0258 29.217 44.1584C28.8727 44.2157 28.5401 44.298 28.1897 44.3122C28.6025 44.0664 28.9788 43.7755 29.3262 43.4434C30.3575 42.4694 31.137 41.1998 31.7566 39.9329C32.1974 38.9832 32.5894 38.0209 32.8981 37.0195C32.9398 36.8911 32.9799 36.7499 33.0495 36.6346Z" fill="black" stroke="black" stroke-width="17.7778"/>
<path d="M0 0H52V52H0V0ZM8.21387 19.5899C7.37547 19.6087 6.53504 19.5777 5.69664 19.6051C6.11305 20.182 6.56145 20.7355 6.97988 21.3109C7.07434 21.4119 6.99207 21.5323 6.96414 21.645C6.31922 23.4091 5.68902 25.1768 5.05324 26.9445C4.83895 27.5245 4.64395 28.114 4.41441 28.6879C4.05438 28.7168 3.69586 28.6797 3.33633 28.7117C3.11238 29.4105 2.84527 30.0955 2.60406 30.7887C2.50504 31.0868 2.37656 31.3716 2.28973 31.6738C3.87867 31.6875 5.46914 31.6753 7.05859 31.6799C7.37496 31.686 7.67711 31.658 7.99043 31.7032C8.23215 32.5421 8.57086 33.3399 8.92988 34.1336C10.0801 36.5762 11.7609 38.7689 13.8191 40.5158C15.567 42.0073 17.5967 43.1712 19.7656 43.9288C21.4815 44.523 23.271 44.8764 25.0854 44.9617C25.8954 44.9698 26.7191 44.9922 27.5245 44.912C29.8624 44.7058 32.1735 44.0659 34.2713 43.0097C36.7326 41.7894 38.901 40.0182 40.6108 37.8701C42.0565 36.0628 43.1564 33.9828 43.8603 31.7789C44.2188 30.7496 44.5996 29.7284 44.9592 28.6995C45.5696 27.0415 46.1495 25.3723 46.7614 23.7148C47.2418 22.3412 47.7461 20.9757 48.23 19.6031C46.7025 19.5777 45.172 19.6112 43.6445 19.5863C42.8284 17.2875 41.5634 15.1511 39.9379 13.3311C38.1631 11.3318 35.9618 9.71649 33.5172 8.63231C31.7891 7.86297 29.9442 7.3648 28.0658 7.14391C27.6996 7.11242 27.3335 7.07078 26.9669 7.04387C26.3565 7.02406 25.7446 7.0266 25.1342 7.03625C23.5742 7.11395 22.0238 7.36887 20.5293 7.8259C16.4567 9.03703 12.8695 11.6944 10.4696 15.1938C9.90742 15.9966 9.42195 16.8472 8.99438 17.7282C8.70289 18.3361 8.45559 18.9612 8.21387 19.5899Z" fill="black"/>
<path d="M25.1342 7.03625C25.7446 7.0266 26.3566 7.02406 26.9669 7.04387C27.3336 7.07078 27.6997 7.11242 28.0658 7.14391C29.9442 7.3648 31.7891 7.86297 33.5172 8.63231C35.9618 9.71648 38.1632 11.3318 39.938 13.3311C41.5635 15.1511 42.8285 17.2875 43.6445 19.5863C45.172 19.6112 46.7026 19.5777 48.2301 19.6031C47.7461 20.9757 47.2419 22.3412 46.7615 23.7148C46.1496 25.3723 45.5696 27.0415 44.9592 28.6995C44.5997 29.7284 44.2189 30.7496 43.8603 31.7789C43.1565 33.9828 42.0566 36.0628 40.6108 37.8701C38.901 40.0182 36.7327 41.7894 34.2713 43.0097C32.1735 44.0659 29.8625 44.7058 27.5245 44.912C26.7191 44.9922 25.8955 44.9698 25.0855 44.9617C23.2711 44.8764 21.4816 44.523 19.7657 43.9288C17.5968 43.1712 15.5671 42.0073 13.8192 40.5158C11.761 38.7689 10.0801 36.5762 8.92995 34.1336C8.57093 33.3399 8.23222 32.5421 7.9905 31.7032C7.67718 31.658 7.37503 31.686 7.05866 31.6799C5.46921 31.6753 3.87874 31.6875 2.28979 31.6738C2.37663 31.3716 2.50511 31.0868 2.60413 30.7887C2.84534 30.0955 3.11245 29.4105 3.3364 28.7117C3.69593 28.6797 4.05444 28.7168 4.41448 28.6879C4.64401 28.114 4.83901 27.5245 5.05331 26.9445C5.68909 25.1768 6.31929 23.4091 6.96421 21.645C6.99214 21.5323 7.0744 21.4119 6.97995 21.3109C6.56151 20.7355 6.11312 20.182 5.69671 19.6051C6.53511 19.5777 7.37554 19.6087 8.21394 19.5899C8.45565 18.9612 8.70296 18.3361 8.99444 17.7282C9.42202 16.8472 9.90749 15.9966 10.4696 15.1938C12.8696 11.6944 16.4567 9.03703 20.5294 7.8259C22.0239 7.36887 23.5742 7.11395 25.1342 7.03625ZM19.496 14.9937C19.7514 15.0069 20.0064 15.0023 20.2618 15.0018C24.0536 15.0018 27.8449 15.0018 31.6368 15.0018C31.875 15.0033 32.1131 15.0059 32.3508 14.9921C32.2716 14.6367 32.136 14.2919 32.0085 13.9511C31.7739 13.3245 31.5169 12.7065 31.2097 12.1118C30.6709 11.0007 29.9732 9.91504 29.0982 9.03856C28.3695 8.31949 27.5266 7.76547 26.5018 7.59027C25.6644 7.44656 24.8199 7.63395 24.079 8.03309C23.2609 8.48809 22.5845 9.14316 22.0163 9.88102C21.2932 10.8007 20.7259 11.8742 20.2547 12.9416C19.9754 13.6124 19.6885 14.2924 19.496 14.9937ZM11.2628 14.9916C11.5035 15.0069 11.7437 15.0028 11.9844 15.0018C13.9989 15.0013 16.0129 15.0018 18.0274 15.0013C18.3321 15.0008 18.6368 15.0069 18.9415 14.9957C19.4919 13.3103 20.1607 11.7046 21.1403 10.2192C21.6446 9.46207 22.2489 8.75367 22.9522 8.17477C23.1604 7.99551 23.3965 7.86094 23.6123 7.69285C23.3209 7.70148 23.0294 7.77715 22.7399 7.82082C21.4389 8.03969 20.1932 8.43172 18.9699 8.91973C16.1287 10.1075 13.5957 12.0093 11.6798 14.4219C11.5315 14.6057 11.3812 14.7855 11.2628 14.9916ZM32.9109 14.9942C33.1465 15.0043 33.3816 15.0043 33.6173 15.0018C35.716 15.0018 37.8153 15.0018 39.9141 15.0018C40.1416 15.0033 40.3681 15.0074 40.5951 14.9891C40.555 14.9175 40.5164 14.8469 40.4702 14.7794C39.0686 12.9411 37.3187 11.3562 35.3392 10.1608C33.2623 8.90703 30.9192 8.05441 28.5132 7.72992C28.4685 7.73703 28.3208 7.68879 28.3548 7.78121C28.7026 8.01074 29.0337 8.25754 29.3303 8.55207C30.4287 9.58598 31.2331 10.95 31.8765 12.3023C32.2213 13.0955 32.5585 13.9014 32.8159 14.7276C32.8464 14.817 32.8794 14.9053 32.9109 14.9942ZM8.77964 19.5899C9.89886 19.6016 11.0186 19.5909 12.1373 19.5945C12.2389 19.596 12.3394 19.6026 12.4405 19.6097C12.2678 20.1779 12.0342 20.7274 11.8412 21.289C11.5503 22.1112 11.2557 22.9318 10.9546 23.7499C10.5326 24.9615 10.0807 26.1625 9.65308 27.3721C9.50835 27.8144 9.31894 28.2435 9.19147 28.6909C9.54136 28.7087 9.89022 28.6939 10.2406 28.7C9.88362 29.6913 9.53831 30.6866 9.17624 31.6763C8.96042 31.6773 8.74409 31.6799 8.52827 31.689C8.60394 32.0039 8.72023 32.2913 8.83398 32.595C9.30015 33.8487 9.92526 35.0467 10.6509 36.1695C10.7256 36.2863 10.8073 36.398 10.8901 36.5092C10.8998 36.3746 10.9074 36.24 10.9191 36.1055C11.207 36.0791 11.4929 36.0928 11.7813 36.0907C14.0792 36.0897 16.378 36.0923 18.6759 36.0897C18.4316 35.1594 18.1955 34.2352 18.0386 33.2846C17.9319 32.757 17.8644 32.2237 17.774 31.6936C17.4516 31.6672 17.1321 31.6829 16.8087 31.6794C15.1999 31.6763 13.5907 31.6845 11.9824 31.6758C12.1358 31.1817 12.3404 30.7054 12.5014 30.2138C13.0859 28.6025 13.6572 26.9867 14.2483 25.3779C14.5768 24.4243 14.9379 23.4823 15.272 22.5306C15.4005 22.165 15.5493 21.8039 15.6564 21.4322C15.237 20.8203 14.7393 20.2627 14.3204 19.6503C15.5031 19.6305 16.6868 19.6523 17.8695 19.6396C17.968 19.1846 18.0188 18.721 18.1188 18.2655C18.2585 17.6033 18.3956 16.9416 18.5733 16.2881C18.6424 16.0286 18.7262 15.7742 18.782 15.5111C16.179 15.5045 13.5698 15.5132 10.9663 15.5066C10.8485 15.4989 10.8119 15.5954 10.7505 15.6746C10.2152 16.5059 9.72265 17.3438 9.31233 18.2447C9.12546 18.687 8.91319 19.1278 8.77964 19.5899ZM18.3941 19.6386C22.2148 19.6493 26.0382 19.6402 29.8594 19.6432C30.2032 19.6473 30.5491 19.6305 30.8908 19.6564C30.8111 19.9413 30.6994 20.2135 30.5983 20.4907C30.2657 21.4261 29.928 22.3595 29.5928 23.2939C29.5431 23.4173 29.5162 23.5336 29.3953 23.6077C28.5076 24.1851 27.6266 24.7442 26.7405 25.319C26.5668 25.4312 26.3891 25.5206 26.2387 25.6659C27.0563 25.6933 27.8764 25.6588 28.694 25.6831C28.5356 26.2245 28.3167 26.7485 28.1375 27.2832C27.5961 28.7432 27.0797 30.2118 26.5404 31.6723C26.1737 31.688 25.8081 31.6763 25.4415 31.6794C23.0629 31.6824 20.6823 31.6738 18.3037 31.6834C18.3108 31.9622 18.3737 32.2283 18.4154 32.5025C18.5896 33.6146 18.8465 34.6963 19.1182 35.7871C19.1456 35.8876 19.1791 35.9882 19.2116 36.0872C23.2498 36.0953 27.293 36.0882 31.3321 36.0907C31.7683 36.0882 32.2045 36.0963 32.6407 36.0877C32.819 35.5479 32.9322 34.9852 33.0658 34.4332C33.2618 33.5268 33.4421 32.6132 33.5609 31.6931C33.1922 31.6657 32.8195 31.6845 32.4493 31.6794C31.4017 31.6753 30.353 31.6875 29.3054 31.6738C29.3674 31.4742 29.4415 31.2802 29.5151 31.0847C29.8513 30.1803 30.1707 29.2698 30.4947 28.3613C30.9005 27.2695 31.2742 26.1671 31.6799 25.0753C32.0044 24.1668 32.3239 23.2568 32.6595 22.3519C32.7687 22.0304 32.9033 21.7176 32.9977 21.3916C32.558 20.7873 32.0801 20.2104 31.6454 19.6021C32.2477 19.5818 32.8515 19.6056 33.4542 19.5904C33.3349 18.8256 33.18 18.0629 33.0089 17.3078C32.8611 16.7009 32.726 16.1032 32.529 15.5121C28.272 15.503 24.0115 15.5127 19.754 15.5076C19.6128 15.5086 19.4676 15.5005 19.3269 15.5193C19.2888 15.603 19.2629 15.696 19.238 15.7843C18.878 17.0488 18.5977 18.3402 18.3941 19.6386ZM33.9616 19.5772C34.1185 19.5929 34.2718 19.6026 34.4303 19.596C35.4962 19.5929 36.5626 19.5965 37.629 19.5945C37.828 19.5894 38.0246 19.5934 38.2226 19.6097C39.1956 21.2652 40.1914 22.9364 41.1689 24.5923C41.2675 24.7696 41.366 24.9443 41.4904 25.1042C41.6656 24.6462 41.8225 24.181 41.9992 23.723C42.3476 22.7053 42.7315 21.7004 43.09 20.6857C43.1753 20.4491 43.2692 20.217 43.3312 19.9723C43.1215 19.7859 43.1022 19.5523 43.0006 19.3065C42.4796 17.972 41.8083 16.7004 41.0034 15.5147C40.7759 15.5061 40.5484 15.5061 40.3204 15.5091C37.9504 15.5081 35.5789 15.5096 33.2095 15.5081C33.1648 15.5086 33.1201 15.5106 33.0754 15.5142C33.1135 15.7463 33.2008 15.9697 33.2562 16.1987C33.5482 17.3098 33.8077 18.4377 33.9616 19.5772ZM19.4518 24.1663C20.1968 24.1729 20.9412 24.1643 21.6857 24.1704C21.7873 24.1663 21.9035 24.1775 21.9929 24.1231C22.7699 23.6382 23.5311 23.1253 24.3106 22.6454C24.0262 22.6185 23.7459 22.6312 23.461 22.6296C22.4286 22.6286 21.3957 22.6322 20.3633 22.6281C20.244 22.6322 20.1094 22.6109 19.9942 22.6398C19.9424 22.7139 19.921 22.8114 19.8901 22.8957C19.755 23.3228 19.5808 23.7372 19.4518 24.1663ZM33.178 36.0882C35.4906 36.0938 37.8047 36.0892 40.1173 36.0907C40.4164 36.0923 40.7139 36.0801 41.0125 36.1034C41.0252 36.205 41.0389 36.3066 41.0537 36.4076C42.0276 34.9741 42.7934 33.3963 43.3358 31.751C43.4708 31.7357 43.6059 31.7251 43.741 31.7104C43.3287 31.6834 42.9173 31.6743 42.504 31.6794C41.4452 31.6733 40.3844 31.6911 39.3261 31.6707C38.7299 30.6886 38.1464 29.6974 37.5579 28.7102C37.047 27.8748 36.559 27.0243 36.0461 26.1904C35.9705 26.3423 35.9131 26.5002 35.8577 26.6602C35.484 27.7388 35.0798 28.8062 34.707 29.8853C34.5826 30.2468 34.4425 30.6028 34.316 30.9639C34.221 31.2406 34.1048 31.4803 34.0611 31.7693C33.8742 33.2252 33.5609 34.6719 33.178 36.0882ZM17.8172 28.6863C18.1076 28.7087 18.3966 28.698 18.6876 28.699C19.7707 28.6995 20.8544 28.6985 21.9376 28.699C22.2412 28.697 22.5434 28.7092 22.8466 28.6873C23.0421 28.1856 23.2355 27.6773 23.4041 27.1659C23.101 27.1456 22.7998 27.1568 22.4962 27.1548C21.2774 27.1537 20.0587 27.1568 18.8404 27.1537C18.6825 27.1563 18.5063 27.1385 18.3544 27.1852C18.2605 27.3686 18.2046 27.5727 18.132 27.7652C18.0274 28.0744 17.8994 28.372 17.8172 28.6863ZM23.5773 44.2884C23.4194 44.1457 23.2406 44.0365 23.0715 43.909C22.29 43.3022 21.6491 42.5339 21.1027 41.7138C20.2603 40.4254 19.6489 39.0401 19.1416 37.5913C19.0263 37.2704 18.9466 36.9388 18.8267 36.6189C18.5601 36.5848 18.2955 36.6006 18.0274 36.5986C15.9114 36.5986 13.7958 36.5991 11.6798 36.5986C11.4462 36.6006 11.2085 36.5879 10.9764 36.6123C11.0719 36.8047 11.2171 36.9784 11.3456 37.15C12.6101 38.8355 14.1675 40.2975 15.9256 41.4578C17.9253 42.7766 20.1917 43.7008 22.5475 44.1406C22.8907 44.201 23.2279 44.2701 23.5773 44.2884ZM19.4026 36.6311C19.4198 36.8494 19.4955 37.0464 19.5691 37.2501C19.92 38.2891 20.3283 39.3143 20.8539 40.2782C21.2322 41.0221 21.6953 41.7244 22.2245 42.3698C22.8252 43.0889 23.5885 43.775 24.4624 44.1375C25.2104 44.4615 26.059 44.5418 26.8476 44.3219C27.5519 44.1411 28.174 43.7684 28.7214 43.2966C29.2084 42.8919 29.6274 42.3952 30.0062 41.8905C30.8243 40.7636 31.4306 39.5332 31.9323 38.2378C32.1238 37.7091 32.3294 37.1805 32.4752 36.6371C32.1954 36.6153 31.9171 36.6255 31.6368 36.625C27.8622 36.6245 24.0871 36.625 20.3126 36.6245C20.0089 36.6255 19.7062 36.6189 19.4026 36.6311ZM28.1898 44.3122C28.5401 44.298 28.8728 44.2157 29.2171 44.1584C29.9925 44.0258 30.7573 43.8278 31.5058 43.5866C32.4031 43.2859 33.2821 42.9538 34.118 42.5064C36.1441 41.5101 37.9631 40.0816 39.481 38.4145C39.8913 37.959 40.2747 37.4771 40.6449 36.988C40.7292 36.8779 40.8018 36.7595 40.8693 36.6382C40.5834 36.6143 40.3021 36.6265 40.0157 36.6245C37.7468 36.6245 35.4764 36.6255 33.208 36.6239C33.1551 36.625 33.1018 36.6285 33.0495 36.6346C32.9799 36.7499 32.9398 36.8911 32.8982 37.0195C32.5894 38.0209 32.1974 38.9832 31.7566 39.9329C31.1371 41.1998 30.3576 42.4694 29.3262 43.4434C28.9789 43.7755 28.6026 44.0664 28.1898 44.3122Z" fill="#D51A35"/>
<path d="M26.5016 7.59026C27.5264 7.76545 28.3694 8.31948 29.0981 9.03854C29.973 9.91502 30.6708 11.0007 31.2096 12.1118C31.5168 12.7065 31.7737 13.3245 32.0083 13.9511C32.1358 14.2919 32.2714 14.6367 32.3506 14.9921C32.113 15.0058 31.8748 15.0033 31.6366 15.0018C27.8448 15.0018 24.0535 15.0018 20.2616 15.0018C20.0062 15.0023 19.7513 15.0069 19.4958 14.9937C19.6883 14.2924 19.9752 13.6124 20.2545 12.9416C20.7258 11.8742 21.293 10.8006 22.0161 9.881C22.5844 9.14315 23.2608 8.48807 24.0789 8.03307C24.8198 7.63393 25.6642 7.44655 26.5016 7.59026Z" fill="black"/>
<path d="M23.6122 7.69287C23.3964 7.86096 23.1602 7.99553 22.952 8.17478C22.2487 8.75369 21.6444 9.46209 21.1402 10.2192C20.1606 11.7046 19.4918 13.3103 18.9413 14.9957C18.6366 15.0069 18.332 15.0008 18.0273 15.0013C16.0128 15.0018 13.9988 15.0013 11.9843 15.0018C11.7436 15.0028 11.5034 15.0069 11.2627 14.9917C11.381 14.7855 11.5313 14.6057 11.6796 14.4219C13.5956 12.0093 16.1286 10.1075 18.9698 8.91975C20.1931 8.43174 21.4387 8.03971 22.7398 7.82084C23.0292 7.77717 23.3207 7.7015 23.6122 7.69287Z" fill="black"/>
<path d="M28.5131 7.72993C30.9191 8.05442 33.2621 8.90704 35.3391 10.1608C37.3186 11.3562 39.0685 12.9411 40.47 14.7794C40.5163 14.8469 40.5548 14.9175 40.595 14.9891C40.368 15.0074 40.1415 15.0033 39.914 15.0018C37.8152 15.0018 35.7159 15.0018 33.6171 15.0018C33.3815 15.0043 33.1464 15.0043 32.9107 14.9942C32.8793 14.9053 32.8462 14.817 32.8158 14.7276C32.5583 13.9014 32.2211 13.0955 31.8763 12.3023C31.2329 10.95 30.4286 9.58598 29.3302 8.55208C29.0336 8.25755 28.7025 8.01075 28.3546 7.78122C28.3206 7.6888 28.4684 7.73704 28.5131 7.72993Z" fill="black"/>
<path d="M10.9663 15.5066C13.5699 15.5132 16.179 15.5046 18.7821 15.5112C18.7262 15.7742 18.6424 16.0286 18.5734 16.2881C18.3956 16.9417 18.2585 17.6033 18.1189 18.2655C18.0188 18.721 17.968 19.1847 17.8695 19.6397C16.6868 19.6524 15.5031 19.6305 14.3204 19.6503C14.7394 20.2628 15.237 20.8203 15.6565 21.4323C15.5493 21.804 15.4005 22.165 15.2721 22.5307C14.9379 23.4823 14.5769 24.4243 14.2483 25.378C13.6572 26.9867 13.0859 28.6026 12.5014 30.2139C12.3405 30.7054 12.1358 31.1817 11.9825 31.6758C13.5907 31.6845 15.2 31.6764 16.8087 31.6794C17.1322 31.683 17.4516 31.6672 17.7741 31.6936C17.8645 32.2238 17.932 32.757 18.0386 33.2846C18.1955 34.2352 18.4317 35.1594 18.6759 36.0898C16.3781 36.0923 14.0792 36.0898 11.7814 36.0908C11.4929 36.0928 11.207 36.0791 10.9191 36.1055C10.9074 36.2401 10.8998 36.3746 10.8902 36.5092C10.8074 36.398 10.7256 36.2863 10.651 36.1695C9.92531 35.0467 9.3002 33.8488 8.83402 32.595C8.72027 32.2913 8.60398 32.0039 8.52832 31.6891C8.74414 31.6799 8.96047 31.6774 9.17629 31.6764C9.53836 30.6866 9.88367 29.6913 10.2407 28.7001C9.89027 28.694 9.54141 28.7087 9.19152 28.6909C9.31898 28.2435 9.5084 27.8144 9.65312 27.3721C10.0807 26.1625 10.5327 24.9616 10.9546 23.7499C11.2558 22.9318 11.5503 22.1112 11.8413 21.2891C12.0343 20.7274 12.2679 20.178 12.4405 19.6097C12.3395 19.6026 12.2389 19.596 12.1373 19.5945C11.0186 19.5909 9.89891 19.6016 8.77969 19.5899C8.91324 19.1278 9.12551 18.687 9.31238 18.2447C9.7227 17.3439 10.2153 16.506 10.7505 15.6747C10.812 15.5955 10.8485 15.499 10.9663 15.5066Z" fill="black"/>
<path d="M19.327 15.5192C19.4676 15.5004 19.6129 15.5086 19.754 15.5076C24.0115 15.5126 28.2721 15.503 32.5291 15.5121C32.7261 16.1032 32.8612 16.7009 33.0089 17.3077C33.1801 18.0629 33.335 18.8256 33.4543 19.5904C32.8515 19.6056 32.2477 19.5817 31.6455 19.602C32.0802 20.2104 32.558 20.7873 32.9978 21.3916C32.9033 21.7176 32.7688 22.0304 32.6596 22.3518C32.3239 23.2568 32.0045 24.1668 31.68 25.0752C31.2743 26.167 30.9005 27.2695 30.4948 28.3613C30.1708 29.2698 29.8514 30.1803 29.5152 31.0847C29.4416 31.2802 29.3674 31.4742 29.3055 31.6738C30.3531 31.6875 31.4017 31.6753 32.4493 31.6793C32.8195 31.6844 33.1923 31.6656 33.5609 31.6931C33.4421 32.6132 33.2618 33.5268 33.0658 34.4332C32.9323 34.9852 32.819 35.5479 32.6408 36.0877C32.2046 36.0963 31.7684 36.0882 31.3321 36.0907C27.293 36.0882 23.2498 36.0953 19.2117 36.0872C19.1792 35.9881 19.1457 35.8876 19.1182 35.787C18.8466 34.6963 18.5896 33.6146 18.4154 32.5025C18.3738 32.2283 18.3108 31.9622 18.3037 31.6834C20.6823 31.6738 23.0629 31.6824 25.4415 31.6793C25.8082 31.6763 26.1738 31.688 26.5404 31.6722C27.0797 30.2118 27.5962 28.7432 28.1375 27.2832C28.3168 26.7485 28.5356 26.2244 28.6941 25.6831C27.8765 25.6587 27.0564 25.6933 26.2388 25.6658C26.3891 25.5206 26.5668 25.4312 26.7405 25.319C27.6266 24.7442 28.5077 24.1851 29.3954 23.6077C29.5162 23.5335 29.5431 23.4172 29.5929 23.2938C29.928 22.3595 30.2657 21.4261 30.5984 20.4907C30.6994 20.2134 30.8111 19.9413 30.8909 19.6564C30.5491 19.6305 30.2033 19.6472 29.8595 19.6432C26.0382 19.6401 22.2149 19.6493 18.3941 19.6386C18.5977 18.3401 18.878 17.0488 19.2381 15.7843C19.263 15.6959 19.2889 15.603 19.327 15.5192Z" fill="black"/>
<path d="M33.0754 15.5142C33.1201 15.5106 33.1648 15.5086 33.2095 15.5081C35.579 15.5096 37.9504 15.5081 40.3204 15.5091C40.5484 15.5061 40.7759 15.5061 41.0034 15.5147C41.8083 16.7004 42.4796 17.972 43.0006 19.3065C43.1022 19.5523 43.1215 19.7859 43.3312 19.9723C43.2693 20.217 43.1753 20.4491 43.09 20.6858C42.7315 21.7004 42.3476 22.7053 41.9992 23.723C41.8225 24.181 41.6656 24.6462 41.4904 25.1042C41.366 24.9443 41.2675 24.7696 41.169 24.5924C40.1914 22.9364 39.1956 21.2652 38.2226 19.6097C38.0246 19.5934 37.8281 19.5894 37.629 19.5945C36.5626 19.5965 35.4962 19.5929 34.4303 19.596C34.2718 19.6026 34.1185 19.5929 33.9616 19.5772C33.8077 18.4377 33.5482 17.3098 33.2562 16.1987C33.2009 15.9697 33.1135 15.7463 33.0754 15.5142Z" fill="black"/>
<path d="M19.994 22.6398C20.1093 22.6109 20.2438 22.6322 20.3632 22.6281C21.3956 22.6322 22.4285 22.6286 23.4608 22.6296C23.7457 22.6312 24.026 22.6185 24.3104 22.6454C23.5309 23.1253 22.7697 23.6382 21.9928 24.1231C21.9034 24.1775 21.7871 24.1663 21.6855 24.1703C20.9411 24.1643 20.1966 24.1729 19.4517 24.1663C19.5806 23.7372 19.7548 23.3228 19.8899 22.8957C19.9209 22.8114 19.9422 22.7139 19.994 22.6398Z" fill="black"/>
<path d="M36.0461 26.1904C36.559 27.0243 37.047 27.8748 37.5579 28.7102C38.1464 29.6974 38.7299 30.6886 39.3261 31.6707C40.3843 31.6911 41.4452 31.6733 42.504 31.6794C42.9173 31.6743 43.3286 31.6834 43.741 31.7104C43.6059 31.7251 43.4708 31.7357 43.3358 31.751C42.7934 33.3963 42.0276 34.9741 41.0536 36.4076C41.0389 36.3066 41.0252 36.205 41.0125 36.1034C40.7139 36.0801 40.4163 36.0923 40.1172 36.0907C37.8047 36.0892 35.4906 36.0938 33.178 36.0882C33.5609 34.6719 33.8742 33.2252 34.0611 31.7693C34.1047 31.4803 34.221 31.2406 34.316 30.9639C34.4424 30.6028 34.5826 30.2468 34.707 29.8853C35.0797 28.8062 35.484 27.7387 35.8577 26.6602C35.9131 26.5002 35.9704 26.3423 36.0461 26.1904Z" fill="black"/>
<path d="M18.3544 27.1852C18.5062 27.1385 18.6825 27.1563 18.8404 27.1537C20.0586 27.1568 21.2774 27.1537 22.4961 27.1548C22.7998 27.1568 23.1009 27.1456 23.4041 27.1659C23.2355 27.6773 23.042 28.1856 22.8465 28.6873C22.5434 28.7092 22.2412 28.697 21.9375 28.699C20.8544 28.6985 19.7707 28.6995 18.6875 28.699C18.3966 28.698 18.1076 28.7087 17.8171 28.6863C17.8994 28.372 18.0274 28.0744 18.132 27.7651C18.2046 27.5727 18.2605 27.3685 18.3544 27.1852Z" fill="black"/>
<path d="M10.9763 36.6123C11.2084 36.5879 11.446 36.6006 11.6796 36.5986C13.7957 36.5991 15.9112 36.5986 18.0273 36.5986C18.2954 36.6006 18.56 36.5848 18.8266 36.6189C18.9464 36.9388 19.0262 37.2704 19.1414 37.5913C19.6487 39.0401 20.2601 40.4254 21.1026 41.7137C21.649 42.5339 22.2899 43.3022 23.0714 43.909C23.2405 44.0365 23.4192 44.1457 23.5772 44.2884C23.2278 44.2701 22.8906 44.201 22.5473 44.1406C20.1916 43.7008 17.9252 42.7766 15.9255 41.4578C14.1674 40.2975 12.61 38.8355 11.3455 37.15C11.217 36.9784 11.0718 36.8047 10.9763 36.6123Z" fill="black"/>
<path d="M19.4026 36.6311C19.7063 36.6189 20.0089 36.6255 20.3126 36.6245C24.0872 36.625 27.8622 36.6245 31.6368 36.625C31.9171 36.6255 32.1954 36.6153 32.4752 36.6372C32.3295 37.1805 32.1238 37.7092 31.9324 38.2378C31.4306 39.5332 30.8243 40.7636 30.0062 41.8905C29.6274 42.3952 29.2084 42.8919 28.7215 43.2966C28.174 43.7684 27.552 44.1411 26.8476 44.3219C26.059 44.5418 25.2104 44.4615 24.4624 44.1375C23.5885 43.775 22.8252 43.0889 22.2245 42.3699C21.6954 41.7244 21.2322 41.0221 20.8539 40.2782C20.3283 39.3143 19.92 38.2891 19.5692 37.2501C19.4955 37.0465 19.4199 36.8494 19.4026 36.6311Z" fill="black"/>
<path d="M33.0495 36.6346C33.1018 36.6285 33.1551 36.625 33.2079 36.6239C35.4763 36.6255 37.7467 36.6245 40.0156 36.6245C40.302 36.6265 40.5834 36.6143 40.8693 36.6382C40.8017 36.7595 40.7291 36.8779 40.6448 36.988C40.2746 37.4771 39.8912 37.959 39.4809 38.4145C37.9631 40.0816 36.1441 41.5101 34.1179 42.5064C33.282 42.9538 32.403 43.2859 31.5057 43.5866C30.7572 43.8278 29.9924 44.0258 29.217 44.1584C28.8727 44.2157 28.5401 44.298 28.1897 44.3122C28.6025 44.0664 28.9788 43.7755 29.3262 43.4434C30.3575 42.4694 31.137 41.1998 31.7566 39.9329C32.1974 38.9832 32.5894 38.0209 32.8981 37.0195C32.9398 36.8911 32.9799 36.7499 33.0495 36.6346Z" fill="black"/>
</g>
</g>
<defs>
<clipPath id="clip0_175_433">
<rect width="128" height="128" fill="white"/>
</clipPath>
<clipPath id="clip1_175_433">
<rect width="52" height="52" rx="26" fill="white"/>
</clipPath>
</defs>
</svg>
