<svg xmlns="http://www.w3.org/2000/svg" fill="none" viewBox="0 0 128 128"><g clip-path="url(#a)"><path fill="#2F63F9" d="M64 128c35.346 0 64-28.654 64-64S99.346 0 64 0 0 28.654 0 64s28.654 64 64 64"/><path fill="#E6C040" d="M91.3 25.24c2.133 1.577 4.074 3.318 5.98 5.16l.729.69c4.986 4.824 8.687 11.294 10.791 17.87v.96h-1.28l-.33-.87c-1.72-4.429-3.658-8.346-6.39-12.25-5.517-.463-5.517-.463-11.82-.36l-6.509-.003-5.031.043 1.28 5.12c.592 2.771.815 5.492.96 8.32H78.4l-.327-2.046-.433-2.694-.427-2.666a363 363 0 0 0-1.053-6.034H53.12c-1.283 6.704-1.283 6.704-2.24 13.44H49.6c.081-4.463 1.06-8.755 1.92-13.12q-5.69-.126-11.38-.2l-6.401-.113-5.259.313c-2.946 4.208-5.039 8.275-6.72 13.12h-1.28c1.965-9.973 9.496-19.308 17.785-24.906 16.398-10.39 36.71-11.025 53.035.226"/><path fill="#E4BF42" d="M21.76 80h1.28l.481.985c1.215 2.462 2.466 4.872 3.888 7.221.431.754.431.754.751 1.714l23.36-.32-1.6-8.32V80h1.28c.66 3.302 1.29 6.611 1.92 9.92h23.04q.732-4.359 1.413-8.725L77.76 80h1.6c-.23 2.034-.577 4.03-.96 6.04l-.34 1.797c-.3 1.443-.3 1.443-.62 2.083 3.833.067 7.667.1 11.5.12l6.469.067 5.391-.507c2.344-3.604 2.344-3.604 4.34-7.32l.641-1.317.459-.963h1.28c-1.212 6.062-5.76 11.322-9.92 15.68l-.779.841c-7.412 7.778-18.74 12.593-29.402 12.995-7.803.08-15.242-.724-22.299-4.236l-1.204-.585c-6.283-3.173-11.827-7.543-16.076-13.175l-.585-.775C21.76 83.171 21.76 83.171 21.76 80"/><path fill="#EFC537" d="M113.081 56.4c1.898 1.267 3.325 3.27 3.924 5.475.522 3.832.177 6.832-1.965 10.045-1.978 1.837-4.461 3.182-7.2 3.28l-.876.047c-3.378.112-5.969-.587-8.724-2.607-2.494-2.447-2.934-4.606-3.04-7.98.056-2.808.461-4.646 2.335-6.744 4.243-4.047 10.513-4.16 15.546-1.516"/><path fill="#ECC33A" d="M54.72 55.04c6.08 0 6.08 0 7.693 1.313l1.147 1.767 1.243 1.849 1.117 1.791.957 1.421C68.8 66.053 68.8 66.053 68.8 66.88h.64l-.159-1.149c-.199-2.137-.191-4.244-.18-6.39l.008-2.442.011-1.859h5.76v19.84c-6.08 0-6.08 0-7.424-.926L66.66 72.7l-.896-1.329-.804-1.291a147 147 0 0 0-1.4-1.88c-1.07-1.481-2.064-2.996-3.08-4.52v11.2h-5.76z"/><path fill="#EDC439" d="M35.52 55.04h17.6v5.12H40.96v2.24h11.52v5.12H40.96v2.24h12.16v5.12h-17.6z"/><path fill="#3264F6" d="M29.76 91.2h22.4a347 347 0 0 1 1.524 4.123c1.68 4.572 3.437 8.628 6.796 12.197v.32c-4.986.171-9.903-1.469-14.4-3.52l-1.133-.508c-5.725-2.704-11.275-6.965-15.187-11.972z"/><path fill="#F0C536" d="M13.12 55.04h5.44v7.36h9.28v-7.36h5.44v19.84h-5.44v-7.36h-9.28v7.36h-5.44z"/><path fill="#3264F6" d="m82.051 91.169 6.289.011 6.291.009 4.889.011c-3.89 7.778-14.239 12.668-22.08 15.36-2.854.86-5.67 1.151-8.64 1.28l.84-1.08c3.19-4.28 5.184-9.049 6.787-14.117.936-2.819 1.143-1.446 5.624-1.474"/><path fill="#3164F7" d="m60.48 18.56-.82 1.06c-3.6 4.842-5.486 9.872-7.5 15.58h-22.4c3.73-7.462 13.542-12.335 20.98-15 3.134-.986 6.45-1.64 9.74-1.64m8.32 0c10.743.04 20.912 6.17 28.32 13.48 2.4 2.421 2.4 2.421 2.4 3.16h-22.4c-.96-2.56-.96-2.56-1.395-3.773-1.526-4.21-3.239-7.952-6.023-11.482-.582-.745-.582-.745-.902-1.385"/><path fill="#3164F7" d="M65.6 18.24c4.648 2.107 6.832 7.271 8.588 11.734 1.332 3.669 1.332 3.669 1.332 5.226H53.44c1.674-6.137 3.949-12.73 9.28-16.64 1.033-.516 1.73-.448 2.88-.32"/><path fill="#3264F6" d="M53.44 91.2h22.08c-.794 5.56-3.494 11.984-7.837 15.727-1.477 1.09-2.51 1.475-4.323 1.233-5.848-3.655-8.11-10.627-9.92-16.96"/><path fill="#F0C536" d="M76.8 55.04h5.44v14.72h11.52v5.12H76.8z"/><path fill="#3264F6" d="m105.84 60.08 1.355-.025c1.347.11 2.089.314 3.205 1.065 1.387 1.711 1.152 3.666.96 5.76-.387 1.182-.657 1.685-1.628 2.437-1.246.592-2.257.593-3.632.603l-1.419.03c-1.554-.224-2.158-.679-3.241-1.79-.505-1.01-.413-2-.44-3.12l-.047-1.355c.2-1.54.671-2.132 1.767-3.205 1.009-.505 2.001-.388 3.12-.4"/><g clip-path="url(#b)"><path fill="#000" stroke="#000" stroke-width="17.778" d="M76 0h52v52H76zm7.444 19.781c.106.025.222.037.323.08.052.058.077.142.112.212a19.6 19.6 0 0 1 2.026-4.277c.135-.2.25-.436.425-.602.2-.055.432-.022.639-.028q3.351.002 6.703.001c.293.001.584-.01.876.012-.05.293-.15.57-.224.859a39 39 0 0 0-.706 3.361 4 4 0 0 0-.042.409c.17.022.327.023.497.005.084-.273.104-.55.152-.831a35 35 0 0 1 .814-3.545q.039-.12.081-.24c.276-.057.543-.026.837-.03 4.212-.002 8.437.003 12.648-.002.093.002.183.018.274.033.079.208.134.422.19.637.322 1.187.6 2.403.778 3.62.019.123.05.241.081.36.169.015.329.014.497-.005a4 4 0 0 0-.03-.324 39 39 0 0 0-.698-3.367c-.079-.317-.188-.619-.245-.94.327-.025.649-.009.978-.012 2.336-.001 4.675.003 7.011-.002.098.009.227-.01.292.079.165.194.289.425.428.638a19 19 0 0 1 1.642 3.282c.066.168.116.353.21.507.16.072.368.056.54.056a5 5 0 0 0-.213-.64 19.6 19.6 0 0 0-5.431-7.825 19.5 19.5 0 0 0-6.335-3.718 19.7 19.7 0 0 0-7.428-1.113c-1.448.066-2.89.29-4.291.665a19.6 19.6 0 0 0-7.758 4.172 19.6 19.6 0 0 0-5.591 8.274q-.034.12-.062.24Zm-2.746 2.29c.218.313.48.602.72.898.058.074.125.154.157.243-.013.128-.07.254-.116.373-.185.45-.35.905-.524 1.358-.338.88-.688 1.756-1.012 2.642a3 3 0 0 1-.129.28c-.24.015-.479 0-.719.033-.107.227-.185.465-.274.7-.149.4-.32.792-.447 1.2 1.415.013 2.832-.003 4.248.007.147.004.294-.003.441-.012.162-.31.257-.656.391-.98.114-.307.255-.61.335-.925-.233-.017-.466-.01-.7-.019.13-.407.307-.799.456-1.2.499-1.31 1.01-2.616 1.507-3.926.088-.229.184-.452.253-.687-1.437-.01-2.877.001-4.315-.005-.086.008-.191-.011-.272.02Zm4.257 7.727c3.122.011 6.254 0 9.377.006.197.003.392.004.588-.014.121-.234.195-.484.29-.73.794-2.051 1.574-4.11 2.366-6.161.108-.282.227-.547.304-.84-.286-.015-.57-.005-.857-.006h-9.699c-.252.001-.505-.008-.756.006.246.378.576.7.84 1.065.092.109.01.226-.024.343-.33.815-.636 1.638-.947 2.459-.471 1.194-.91 2.4-1.386 3.593q-.052.138-.096.279Zm13.515-7.726c.218.327.495.622.74.93.05.064.105.134.133.211-.01.112-.059.225-.098.33a58 58 0 0 0-.682 1.765c-.276.747-.585 1.48-.855 2.23-.23.616-.473 1.227-.71 1.84a3 3 0 0 0-.13.417c.238.013.476.008.714.007h8.379c.283-.001.565.012.847-.01.047-.09.093-.182.129-.278.415-1.133.868-2.251 1.288-3.383.421-1.073.824-2.153 1.241-3.228.108-.284.233-.547.303-.844-.406-.017-.812-.002-1.218-.006l-9.866-.001c-.067.006-.153-.01-.215.02Zm11.834-.004c.229.322.499.618.745.927.05.066.106.138.133.217a1 1 0 0 1-.057.23c-.68 1.761-1.351 3.525-2.029 5.286-.128.356-.287.705-.391 1.069.726.015 1.455.001 2.182.005.347-.005.698.019 1.043-.012q.096-.195.169-.398c.611-1.603 1.234-3.202 1.844-4.805.078-.205.145-.41.258-.6.698-.012 1.402-.01 2.101 0-.209.596-.46 1.18-.68 1.772-.391 1.043-.805 2.078-1.196 3.12-.114.308-.251.606-.342.918.931.015 1.864-.003 2.795.008q.218.004.435-.016c.044-.095.089-.187.126-.285.223-.615.473-1.22.703-1.833.417-1.117.868-2.221 1.278-3.342q.064-.179.162-.342a81 81 0 0 1 2.109-.002c-.141.443-.337.868-.495 1.306-.272.723-.553 1.443-.832 2.163-.252.648-.488 1.3-.749 1.944a5 5 0 0 0-.142.4c.929.014 1.859-.003 2.788.008.147.003.294-.005.442-.013.14-.256.211-.525.319-.795.786-2.028 1.555-4.063 2.34-6.091.104-.28.24-.558.303-.846-.306-.018-.61-.006-.916-.008h-14.238c-.068.002-.142-.004-.208.015Zm10.381 9.81a3 3 0 0 0-.532.051c-.123.22-.176.453-.265.687a19.3 19.3 0 0 1-1.966 3.874 6 6 0 0 1-.163.226l-.062-.277c-.29-.023-.578-.007-.869-.01h-6.348c-.305-.001-.607.012-.912-.011.042-.282.133-.547.199-.822q.36-1.464.603-2.953c.044-.277.102-.543.1-.825a4 4 0 0 0-.484-.003c-.083.256-.098.513-.141.776a32 32 0 0 1-.61 2.928c-.078.298-.136.594-.246.883-.324.056-.668.019-.997.027H95.856c-.296-.003-.564.024-.844-.028-.106-.274-.162-.558-.237-.84a32 32 0 0 1-.606-2.881c-.05-.29-.059-.592-.154-.864a4 4 0 0 0-.487.002c.003.129.01.258.03.386.177 1.123.394 2.246.664 3.351.07.29.165.567.21.863-.305.023-.607.01-.913.011h-6.296c-.28.002-.559-.009-.838.006l-.051.395a6 6 0 0 1-.37-.532 19 19 0 0 1-1.244-2.26c-.285-.626-.562-1.266-.767-1.923-.033-.1-.073-.194-.113-.293-.158-.01-.341-.038-.496.002-.06.049.005.153.015.215.329.961.695 1.902 1.164 2.805a19.66 19.66 0 0 0 5.897 6.951 19.6 19.6 0 0 0 6.435 3.11 20 20 0 0 0 5.45.679 20 20 0 0 0 5.198-.778 20 20 0 0 0 3.614-1.462 19.67 19.67 0 0 0 9.346-10.765c.084-.23.17-.46.222-.7Z"/><path fill="#000" stroke="#964DFE" stroke-width="17.778" d="M101.146 6.43a19.7 19.7 0 0 1 7.428 1.114 19.5 19.5 0 0 1 6.335 3.718 19.6 19.6 0 0 1 5.431 7.825c.082.21.16.42.213.64-.172 0-.38.016-.54-.056-.094-.154-.144-.34-.21-.507a19 19 0 0 0-1.642-3.282c-.139-.213-.263-.444-.429-.639-.065-.089-.194-.07-.291-.078-2.336.005-4.675 0-7.011.002-.329.003-.651-.013-.978.012.056.32.166.623.245.94.284 1.111.512 2.235.698 3.367.016.108.022.215.03.324-.169.019-.328.02-.497.005-.031-.119-.063-.237-.081-.36a31 31 0 0 0-.778-3.62 6 6 0 0 0-.19-.637 2 2 0 0 0-.274-.033c-4.211.005-8.436 0-12.648.002-.293.004-.56-.027-.837.03q-.042.12-.081.24a35 35 0 0 0-.814 3.545c-.048.28-.068.558-.152.831-.17.018-.327.017-.497-.005a4 4 0 0 1 .042-.409c.192-1.125.415-2.257.706-3.361.075-.288.173-.566.224-.859-.292-.023-.583-.01-.876-.012h-6.703c-.207.005-.438-.028-.64.027-.174.166-.29.402-.424.601a19.6 19.6 0 0 0-2.026 4.278c-.035-.07-.06-.154-.112-.213-.101-.042-.217-.054-.323-.079q.029-.12.062-.239a19.6 19.6 0 0 1 5.59-8.274 19.6 19.6 0 0 1 7.759-4.172 20.3 20.3 0 0 1 4.291-.665Zm-5.843 8.2q.122.009.245.013h12.19c.322-.002.639.012.958-.012-.058-.25-.15-.486-.238-.726-.591-1.633-1.375-3.282-2.463-4.647-.709-.88-1.581-1.666-2.652-2.07a4.2 4.2 0 0 0-1.343-.25 4.1 4.1 0 0 0-1.7.4c-.987.475-1.766 1.231-2.43 2.09-1.026 1.343-1.77 2.93-2.343 4.513-.082.227-.169.452-.224.689Zm-8.566-.001c.3.024.592.013.892.014h6.246c.288-.003.563.018.849-.02a3 3 0 0 0 .132-.337 21 21 0 0 1 1.193-2.921c.667-1.311 1.528-2.629 2.65-3.596.278-.249.592-.445.884-.675-1.27.155-2.526.462-3.738.866a19.1 19.1 0 0 0-8.527 5.897c-.206.252-.419.487-.581.772Zm17.717-7.518c.187.18.423.308.625.474.952.76 1.713 1.756 2.33 2.798.419.694.766 1.421 1.086 2.164.243.57.464 1.149.648 1.74.036.114.084.226.132.336.268.037.531.018.799.02h6.348c.289-.001.575.009.863-.011-.166-.277-.371-.502-.573-.754-2.458-2.986-5.835-5.199-9.565-6.23a18 18 0 0 0-2.694-.55z"/><path fill="#000" stroke="#000" stroke-width="17.778" d="M102 6.94c.455.01.917.09 1.343.247 1.071.405 1.943 1.19 2.652 2.071 1.088 1.365 1.872 3.014 2.463 4.647.088.24.18.476.239.726-.32.024-.637.01-.959.012h-12.19l-.245-.012c.055-.236.142-.462.224-.689.572-1.584 1.317-3.17 2.344-4.513.663-.859 1.442-1.615 2.429-2.09a4.1 4.1 0 0 1 1.7-.4Z"/><path fill="#000" stroke="#000" stroke-width="17.778" d="M99.583 7.094c-.292.23-.606.426-.884.675-1.121.967-1.983 2.285-2.65 3.596a21 21 0 0 0-1.192 2.92 3 3 0 0 1-.133.338c-.286.038-.561.017-.849.02h-6.246c-.3-.001-.593.01-.892-.014.162-.285.375-.52.58-.772a19.1 19.1 0 0 1 8.528-5.897 19.2 19.2 0 0 1 3.738-.866Zm4.87.004c.91.11 1.812.302 2.694.55 3.73 1.031 7.108 3.244 9.565 6.23.202.252.407.477.573.754-.288.02-.574.01-.863.01h-6.348c-.268 0-.531.018-.799-.018a3 3 0 0 1-.132-.338c-.184-.59-.405-1.17-.648-1.739a18 18 0 0 0-1.086-2.164c-.617-1.042-1.378-2.039-2.33-2.798-.202-.166-.438-.294-.625-.474z"/><path fill="#000" stroke="#964DFE" stroke-width="17.778" d="M80.97 22.051c1.438.006 2.878-.004 4.315.005-.069.235-.165.458-.252.687-.499 1.31-1.009 2.616-1.508 3.926-.149.401-.326.793-.455 1.2.233.01.466.002.699.02-.08.314-.221.617-.335.924-.134.324-.229.67-.39.98a5 5 0 0 1-.442.012c-1.416-.01-2.833.006-4.248-.008.126-.407.298-.8.447-1.2.089-.234.167-.472.274-.7.24-.032.478-.017.72-.031.046-.093.092-.184.128-.281.324-.886.674-1.762 1.013-2.642.174-.453.338-.909.523-1.358.046-.119.103-.245.116-.373-.032-.09-.099-.169-.156-.243-.242-.296-.503-.585-.721-.898.081-.031.186-.012.272-.02Zm5.598.008c.25-.014.504-.005.756-.006h9.7c.285.001.57-.009.856.007-.077.292-.197.557-.304.839-.792 2.052-1.572 4.11-2.366 6.162-.095.245-.169.495-.29.73a5 5 0 0 1-.588.012c-3.124-.006-6.255.006-9.377-.005q.043-.14.096-.28c.475-1.192.915-2.398 1.385-3.592.312-.821.618-1.644.948-2.459.033-.117.116-.234.023-.343-.263-.365-.593-.687-.84-1.065Zm2.382 5.81c.71.017 1.421 0 2.132.006.436-.007.872.016 1.308-.009.138-.255.215-.524.324-.793.347-.877.664-1.765 1.02-2.639q.09-.216.144-.445c-.982-.021-1.966.001-2.948-.01-.16 0-.325-.01-.483.018-.112.168-.167.38-.242.568-.287.76-.59 1.514-.872 2.276-.125.344-.282.677-.383 1.028Zm9.735-5.817q4.933.002 9.866 0c.406.005.812-.01 1.218.007-.07.297-.195.56-.303.844-.417 1.075-.82 2.155-1.241 3.229-.42 1.13-.873 2.25-1.288 3.382a3 3 0 0 1-.129.279c-.282.021-.564.008-.847.009h-8.379c-.238.002-.476.006-.714-.007a3 3 0 0 1 .13-.417c.237-.613.48-1.224.71-1.84.27-.75.579-1.483.855-2.23.215-.593.447-1.18.682-1.766.04-.104.088-.217.098-.329-.028-.077-.083-.147-.132-.212-.246-.307-.523-.602-.741-.93.062-.029.148-.013.215-.02Zm2.154 5.817c.996.017 1.993-.002 2.989.008q.223.003.448-.008c.147-.24.206-.493.312-.754q.45-1.153.888-2.311c.104-.275.222-.54.31-.82-1.025-.01-2.051.004-3.076-.006-.123 0-.253-.004-.373.022-.12.197-.182.432-.269.646-.311.792-.609 1.59-.917 2.384-.107.282-.229.55-.312.84Zm9.673-5.817h14.238c.306.003.61-.01.916.009-.063.288-.2.567-.303.846-.785 2.028-1.554 4.063-2.34 6.09-.108.271-.179.54-.32.796a6 6 0 0 1-.441.013c-.929-.01-1.859.006-2.788-.009a5 5 0 0 1 .142-.4c.26-.643.497-1.295.749-1.943.279-.72.56-1.44.832-2.163.158-.438.354-.863.495-1.306a81 81 0 0 0-2.109.002q-.097.164-.162.342c-.41 1.121-.861 2.224-1.278 3.342-.23.613-.48 1.218-.703 1.833-.037.098-.082.19-.126.285q-.218.02-.435.016c-.931-.01-1.864.007-2.795-.008.091-.312.228-.61.342-.917.391-1.043.804-2.078 1.196-3.12.22-.594.471-1.177.68-1.774a71 71 0 0 0-2.101 0c-.113.19-.18.396-.258.601-.61 1.603-1.233 3.202-1.844 4.805a4 4 0 0 1-.169.398c-.345.03-.696.007-1.043.012-.728-.004-1.456.01-2.182-.005.104-.364.263-.713.391-1.069.678-1.761 1.349-3.525 2.029-5.286a1 1 0 0 0 .057-.23c-.027-.08-.083-.151-.133-.217-.246-.309-.516-.605-.745-.927.066-.019.14-.013.208-.016Z"/><path fill="#000" stroke="#000" stroke-width="17.778" d="M90.447 23.997c.158-.028.324-.017.483-.018.982.011 1.966-.011 2.948.01q-.055.229-.145.445c-.355.874-.672 1.762-1.02 2.639-.108.27-.185.538-.323.793-.436.025-.872.002-1.308.009-.71-.006-1.422.011-2.132-.006.101-.35.258-.684.383-1.028.282-.762.585-1.516.873-2.276.074-.188.129-.4.241-.568Zm11.89.003c.12-.026.25-.021.373-.022 1.025.01 2.051-.004 3.076.006-.088.28-.206.545-.31.82q-.438 1.159-.888 2.311c-.106.26-.165.514-.313.754a7 7 0 0 1-.447.008c-.996-.01-1.993.009-2.989-.008.083-.29.205-.557.312-.839.308-.794.606-1.592.917-2.384.087-.214.149-.449.269-.646Z"/><path fill="#000" stroke="#964DFE" stroke-width="17.778" d="M83.345 31.824c.154-.04.337-.011.495-.002.04.099.08.193.113.293.204.657.482 1.296.767 1.922.359.785.783 1.532 1.243 2.261q.172.276.371.532l.05-.395c.28-.015.559-.005.839-.006h6.297c.305-.001.607.012.912-.011-.045-.296-.14-.572-.21-.863a41 41 0 0 1-.664-3.351 3 3 0 0 1-.03-.387q.243-.015.487-.001c.095.272.105.575.155.864q.236 1.454.605 2.88c.075.283.13.567.236.841.28.052.549.025.845.028h12.136c.329-.008.673.03.997-.028.11-.288.168-.584.246-.882q.373-1.45.61-2.928c.043-.263.058-.52.141-.776q.242-.014.484.003c.002.282-.056.548-.1.825a39 39 0 0 1-.603 2.953c-.066.275-.157.54-.199.822.305.023.607.01.912.011h6.348c.291.003.579-.013.87.01q.028.14.061.277a6 6 0 0 0 .163-.226 19.3 19.3 0 0 0 1.966-3.874c.089-.234.142-.467.265-.687.177-.029.352-.051.532-.05-.052.24-.138.47-.222.7a19.67 19.67 0 0 1-9.346 10.765 20 20 0 0 1-3.614 1.462 20 20 0 0 1-5.198.778 20 20 0 0 1-5.45-.68 19.6 19.6 0 0 1-6.435-3.109 19.66 19.66 0 0 1-5.897-6.951c-.469-.903-.835-1.844-1.164-2.805-.01-.062-.074-.166-.014-.215ZM99.57 44.885c-.266-.211-.555-.389-.812-.613-1.058-.9-1.856-2.06-2.514-3.274a21 21 0 0 1-1.34-3.131c-.109-.303-.18-.614-.308-.908-.224-.022-.447-.016-.671-.014-2.497.004-5.009-.004-7.503.004.143.254.334.484.51.715a19.1 19.1 0 0 0 11.871 7.128c.255.045.509.084.767.093Zm9.232-7.934c-.27-.013-.54-.005-.811-.005H95.957c-.251.002-.505-.013-.756.007.013.27.139.547.224.801.603 1.733 1.4 3.478 2.539 4.927.718.9 1.605 1.716 2.7 2.124.642.247 1.33.285 2.006.184.97-.173 1.87-.752 2.57-1.428 1.031-1.002 1.789-2.245 2.411-3.531.412-.855.746-1.756 1.057-2.651.049-.14.077-.282.095-.428Zm.602.01c-.117.25-.179.53-.272.79-.523 1.565-1.205 3.11-2.12 4.485-.537.8-1.159 1.544-1.912 2.15-.232.19-.485.346-.722.528q1.157-.143 2.287-.433c.809-.21 1.609-.448 2.382-.768a19.14 19.14 0 0 0 8.07-6.098c.167-.217.334-.427.468-.666-2.518-.008-5.043.001-7.562-.004-.21 0-.41-.01-.619.016Z"/><path fill="#000" stroke="#000" stroke-width="17.778" d="M86.423 36.949c2.494-.008 5.006 0 7.503-.004.224-.002.447-.008.671.014.127.294.2.605.308.908.36 1.078.81 2.125 1.34 3.131.658 1.213 1.456 2.375 2.514 3.274.257.224.546.402.812.613a5.5 5.5 0 0 1-.767-.093 19.1 19.1 0 0 1-11.871-7.128c-.176-.231-.368-.46-.51-.715Z"/><path fill="#000" stroke="#000" stroke-width="17.778" d="M95.201 36.953c.251-.02.505-.005.756-.007h12.035c.271 0 .541-.008.811.005a2 2 0 0 1-.095.428c-.311.895-.645 1.796-1.057 2.65-.622 1.287-1.38 2.53-2.411 3.532-.7.676-1.6 1.255-2.57 1.428-.676.1-1.364.063-2.006-.184-1.095-.408-1.982-1.224-2.7-2.124-1.14-1.45-1.936-3.194-2.54-4.927-.085-.254-.21-.531-.223-.801Z"/><path fill="#000" stroke="#000" stroke-width="17.778" d="M110.024 36.945c2.519.005 5.043-.004 7.562.004-.134.239-.301.45-.468.666a19.14 19.14 0 0 1-8.07 6.098c-.774.32-1.573.558-2.382.768-.752.192-1.517.338-2.287.433.237-.182.49-.339.722-.528.753-.606 1.375-1.35 1.912-2.15.915-1.376 1.597-2.92 2.12-4.484.093-.262.155-.54.272-.791.209-.027.409-.016.619-.016Z"/><path fill="#000" d="M76 0h52v52H76zm7.444 19.781c.106.025.222.037.323.08.052.058.077.142.112.212a19.6 19.6 0 0 1 2.026-4.277c.135-.2.25-.436.425-.602.2-.055.432-.022.639-.028q3.351.002 6.703.001c.293.001.584-.01.876.012-.05.293-.15.57-.224.859a39 39 0 0 0-.706 3.361 4 4 0 0 0-.042.409c.17.022.327.023.497.005.084-.273.104-.55.152-.831a35 35 0 0 1 .814-3.545q.039-.12.081-.24c.276-.057.543-.026.837-.03 4.212-.002 8.437.003 12.648-.002.093.002.183.018.274.033.079.208.134.422.19.637.322 1.187.6 2.403.778 3.62.019.123.05.241.081.36.169.015.329.014.497-.005a4 4 0 0 0-.03-.324 39 39 0 0 0-.698-3.367c-.079-.317-.188-.619-.245-.94.327-.025.649-.009.978-.012 2.336-.001 4.675.003 7.011-.002.098.009.227-.01.292.079.165.194.289.425.428.638a19 19 0 0 1 1.642 3.282c.066.168.116.353.21.507.16.072.368.056.54.056a5 5 0 0 0-.213-.64 19.6 19.6 0 0 0-5.431-7.825 19.5 19.5 0 0 0-6.335-3.718 19.7 19.7 0 0 0-7.428-1.113c-1.448.066-2.89.29-4.291.665a19.6 19.6 0 0 0-7.758 4.172 19.6 19.6 0 0 0-5.591 8.274q-.034.12-.062.24m-2.746 2.29c.218.313.48.602.72.898.058.074.125.154.157.243-.013.128-.07.254-.116.373-.185.45-.35.905-.524 1.358-.338.88-.688 1.756-1.012 2.642a3 3 0 0 1-.129.28c-.24.015-.479 0-.719.033-.107.227-.185.465-.274.7-.149.4-.32.792-.447 1.2 1.415.013 2.832-.003 4.248.007.147.004.294-.003.441-.012.162-.31.257-.656.391-.98.114-.307.255-.61.335-.925-.233-.017-.466-.01-.7-.019.13-.407.307-.799.456-1.2.499-1.31 1.01-2.616 1.507-3.926.088-.229.184-.452.253-.687-1.437-.01-2.877.001-4.315-.005-.086.008-.191-.011-.272.02m4.257 7.727c3.122.011 6.254 0 9.377.006.197.003.392.004.588-.014.121-.234.195-.484.29-.73.794-2.051 1.574-4.11 2.366-6.161.108-.282.227-.547.304-.84-.286-.015-.57-.005-.857-.006h-9.699c-.252.001-.505-.008-.756.006.246.378.576.7.84 1.065.092.109.01.226-.024.343-.33.815-.636 1.638-.947 2.459-.471 1.194-.91 2.4-1.386 3.593q-.052.138-.096.279m13.515-7.726c.218.327.495.622.74.93.05.064.105.134.133.211-.01.112-.059.225-.098.33a58 58 0 0 0-.682 1.765c-.276.747-.585 1.48-.855 2.23-.23.616-.473 1.227-.71 1.84a3 3 0 0 0-.13.417c.238.013.476.008.714.007h8.379c.283-.001.565.012.847-.01.047-.09.093-.182.129-.278.415-1.133.868-2.251 1.288-3.383.421-1.073.824-2.153 1.241-3.228.108-.284.233-.547.303-.844-.406-.017-.812-.002-1.218-.006l-9.866-.001c-.067.006-.153-.01-.215.02m11.834-.004c.229.322.499.618.745.927.05.066.106.138.133.217a1 1 0 0 1-.057.23c-.68 1.761-1.351 3.525-2.029 5.286-.128.356-.287.705-.391 1.069.726.015 1.455.001 2.182.005.347-.005.698.019 1.043-.012q.096-.195.169-.398c.611-1.603 1.234-3.202 1.844-4.805.078-.205.145-.41.258-.6.698-.012 1.402-.01 2.101 0-.209.596-.46 1.18-.68 1.772-.391 1.043-.805 2.078-1.196 3.12-.114.308-.251.606-.342.918.931.015 1.864-.003 2.795.008.145.004.29-.004.435-.016.044-.095.089-.187.126-.285.223-.615.473-1.22.703-1.833.417-1.117.868-2.221 1.278-3.342q.064-.179.162-.342a81 81 0 0 1 2.109-.002c-.141.443-.337.868-.495 1.306-.272.723-.553 1.443-.832 2.163-.252.648-.488 1.3-.749 1.944a5 5 0 0 0-.142.4c.929.014 1.859-.003 2.788.008.147.003.294-.005.442-.013.14-.256.211-.525.319-.795.786-2.028 1.555-4.063 2.34-6.091.104-.28.24-.558.303-.846-.306-.018-.61-.006-.916-.008h-14.238c-.068.002-.142-.004-.208.015m10.381 9.81a3 3 0 0 0-.532.051c-.123.22-.176.453-.265.687a19.3 19.3 0 0 1-1.966 3.874 6 6 0 0 1-.163.226l-.062-.277c-.29-.023-.578-.007-.869-.01h-6.348c-.305-.001-.607.012-.912-.011.042-.282.133-.547.199-.822q.36-1.464.603-2.953c.044-.277.102-.543.1-.825a4 4 0 0 0-.484-.003c-.083.256-.098.513-.141.776a32 32 0 0 1-.61 2.928c-.078.298-.136.594-.246.883-.324.056-.668.019-.997.027H95.856c-.296-.003-.564.024-.844-.028-.106-.274-.162-.558-.237-.84a32 32 0 0 1-.606-2.881c-.05-.29-.059-.592-.154-.864a4 4 0 0 0-.487.002c.003.129.01.258.03.386.177 1.123.394 2.246.664 3.351.07.29.165.567.21.863-.305.023-.607.01-.913.011h-6.296c-.28.002-.559-.009-.838.006l-.051.395a6 6 0 0 1-.37-.532 19 19 0 0 1-1.244-2.26c-.285-.626-.562-1.266-.767-1.923-.033-.1-.073-.194-.113-.293-.158-.01-.341-.038-.496.002-.06.049.005.153.015.215.329.961.695 1.902 1.164 2.805a19.66 19.66 0 0 0 5.897 6.951 19.6 19.6 0 0 0 6.435 3.11 20 20 0 0 0 5.45.679 20 20 0 0 0 5.198-.778 20 20 0 0 0 3.614-1.462 19.67 19.67 0 0 0 9.346-10.765c.084-.23.17-.46.222-.7"/><path fill="#964DFE" d="M101.146 6.43a19.7 19.7 0 0 1 7.428 1.114 19.5 19.5 0 0 1 6.335 3.718 19.6 19.6 0 0 1 5.431 7.825c.082.21.16.42.213.64-.172 0-.38.016-.54-.056-.094-.154-.144-.34-.21-.507a19 19 0 0 0-1.642-3.282c-.139-.213-.263-.444-.429-.639-.065-.089-.194-.07-.291-.078-2.336.005-4.675 0-7.011.002-.329.003-.651-.013-.978.012.056.32.166.623.245.94.284 1.111.512 2.235.698 3.367.016.108.022.215.03.324-.169.019-.328.02-.497.005-.031-.119-.063-.237-.081-.36a31 31 0 0 0-.778-3.62 6 6 0 0 0-.19-.637 2 2 0 0 0-.274-.033c-4.211.005-8.436 0-12.648.002-.293.004-.56-.027-.837.03q-.042.12-.081.24a35 35 0 0 0-.814 3.545c-.048.28-.068.558-.152.831-.17.018-.327.017-.497-.005a4 4 0 0 1 .042-.409c.192-1.125.415-2.257.706-3.361.075-.288.173-.566.224-.859-.292-.023-.583-.01-.876-.012h-6.703c-.207.005-.438-.028-.64.027-.174.166-.29.402-.424.601a19.6 19.6 0 0 0-2.026 4.278c-.035-.07-.06-.154-.112-.213-.101-.042-.217-.054-.323-.079q.029-.12.062-.239a19.6 19.6 0 0 1 5.59-8.274 19.6 19.6 0 0 1 7.759-4.172 20.3 20.3 0 0 1 4.291-.665m-5.843 8.2q.122.009.245.013h12.19c.322-.002.639.012.958-.012-.058-.25-.15-.486-.238-.726-.591-1.633-1.375-3.282-2.463-4.647-.709-.88-1.581-1.666-2.652-2.07A4.2 4.2 0 0 0 102 6.938a4.1 4.1 0 0 0-1.7.4c-.987.475-1.766 1.231-2.43 2.09-1.026 1.343-1.77 2.93-2.343 4.513-.082.227-.169.452-.224.689m-8.566-.001c.3.024.592.013.892.014h6.246c.288-.003.563.018.849-.02a3 3 0 0 0 .132-.337 21 21 0 0 1 1.193-2.921c.667-1.311 1.528-2.629 2.65-3.596.278-.249.592-.445.884-.675-1.27.155-2.526.462-3.738.866a19.1 19.1 0 0 0-8.527 5.897c-.206.252-.419.487-.581.772m17.717-7.518c.187.18.423.308.625.474.952.76 1.713 1.756 2.33 2.798.419.694.766 1.421 1.086 2.164.243.57.464 1.149.648 1.74.036.114.084.226.132.336.268.037.531.018.799.02h6.348c.289-.001.575.009.863-.011-.166-.277-.371-.502-.573-.754-2.458-2.986-5.835-5.199-9.565-6.23a18 18 0 0 0-2.694-.55z"/><path fill="#000" d="M102 6.94c.455.01.917.09 1.343.247 1.071.405 1.943 1.19 2.652 2.071 1.088 1.365 1.872 3.014 2.463 4.647.088.24.18.476.239.726-.32.024-.637.01-.959.012h-12.19l-.245-.012c.055-.236.142-.462.224-.689.572-1.584 1.317-3.17 2.344-4.513.663-.859 1.442-1.615 2.429-2.09a4.1 4.1 0 0 1 1.7-.4"/><path fill="#000" d="M99.583 7.094c-.292.23-.606.426-.884.675-1.121.967-1.983 2.285-2.65 3.596a21 21 0 0 0-1.192 2.92 3 3 0 0 1-.133.338c-.286.038-.561.017-.849.02h-6.246c-.3-.001-.593.01-.892-.014.162-.285.375-.52.58-.772a19.1 19.1 0 0 1 8.528-5.897 19.2 19.2 0 0 1 3.738-.866m4.87.004c.91.11 1.812.302 2.694.55 3.73 1.031 7.108 3.244 9.565 6.23.202.252.407.477.573.754-.288.02-.574.01-.863.01h-6.348c-.268 0-.531.018-.799-.018a3 3 0 0 1-.132-.338c-.184-.59-.405-1.17-.648-1.739a18 18 0 0 0-1.086-2.164c-.617-1.042-1.378-2.039-2.33-2.798-.202-.166-.438-.294-.625-.474z"/><path fill="#964DFE" d="M80.97 22.051c1.438.006 2.878-.004 4.315.005-.069.235-.165.458-.252.687-.499 1.31-1.009 2.616-1.508 3.926-.149.401-.326.793-.455 1.2.233.01.466.002.699.02-.08.314-.221.617-.335.924-.134.324-.229.67-.39.98a5 5 0 0 1-.442.012c-1.416-.01-2.833.006-4.248-.008.126-.407.298-.8.447-1.2.089-.234.167-.472.274-.7.24-.032.478-.017.72-.031.046-.093.092-.184.128-.281.324-.886.674-1.762 1.013-2.642.174-.453.338-.909.523-1.358.046-.119.103-.245.116-.373-.032-.09-.099-.169-.156-.243-.242-.296-.503-.585-.721-.898.081-.031.186-.012.272-.02m5.598.008c.25-.014.504-.005.756-.006h9.7c.285.001.57-.009.856.007-.077.292-.197.557-.304.839-.792 2.052-1.572 4.11-2.366 6.162-.095.245-.169.495-.29.73a5 5 0 0 1-.588.012c-3.124-.006-6.255.006-9.377-.005q.043-.14.096-.28c.475-1.192.915-2.398 1.385-3.592.312-.821.618-1.644.948-2.459.033-.117.116-.234.023-.343-.263-.365-.593-.687-.84-1.065m2.382 5.81c.71.017 1.421 0 2.132.006.436-.007.872.016 1.308-.009.138-.255.215-.524.324-.793.347-.877.664-1.765 1.02-2.639q.09-.216.144-.445c-.982-.021-1.966.001-2.948-.01-.16 0-.325-.01-.483.018-.112.168-.167.38-.242.568-.287.76-.59 1.514-.872 2.276-.125.344-.282.677-.383 1.028m9.736-5.817q4.933.002 9.866 0c.406.005.812-.01 1.218.007-.07.297-.195.56-.303.844-.417 1.075-.82 2.155-1.241 3.229-.42 1.13-.873 2.25-1.288 3.382a3 3 0 0 1-.129.279c-.282.021-.564.008-.847.009h-8.379c-.238.002-.476.006-.714-.007a3 3 0 0 1 .13-.417c.237-.613.48-1.224.71-1.84.27-.75.579-1.483.855-2.23.215-.593.447-1.18.682-1.766.04-.104.088-.217.098-.329-.028-.077-.083-.147-.132-.212-.246-.307-.523-.602-.741-.93.062-.029.148-.013.215-.02m2.154 5.817c.996.017 1.993-.002 2.989.008q.223.003.448-.008c.147-.24.206-.493.312-.754q.45-1.153.888-2.311c.104-.275.222-.54.31-.82-1.025-.01-2.051.004-3.076-.006-.123 0-.253-.004-.373.022-.12.197-.182.432-.269.646-.311.792-.609 1.59-.917 2.384-.107.282-.229.55-.312.84m9.673-5.817h14.238c.306.003.61-.01.916.009-.063.288-.2.567-.303.846-.785 2.028-1.554 4.063-2.34 6.09-.108.271-.179.54-.32.796a6 6 0 0 1-.441.013c-.929-.01-1.859.006-2.788-.009a5 5 0 0 1 .142-.4c.26-.643.497-1.295.749-1.943.279-.72.56-1.44.832-2.163.158-.438.354-.863.495-1.306a81 81 0 0 0-2.109.002q-.097.164-.162.342c-.41 1.121-.861 2.224-1.278 3.342-.23.613-.48 1.218-.703 1.833-.037.098-.082.19-.126.285q-.218.02-.435.016c-.931-.01-1.864.007-2.795-.008.091-.312.228-.61.342-.917.391-1.043.804-2.078 1.196-3.12.22-.594.471-1.177.68-1.774a71 71 0 0 0-2.101 0c-.113.19-.18.396-.258.601-.61 1.603-1.233 3.202-1.844 4.805a4 4 0 0 1-.169.398c-.345.03-.696.007-1.043.012-.728-.004-1.456.01-2.182-.005.104-.364.263-.713.391-1.069.678-1.761 1.349-3.525 2.029-5.286a1 1 0 0 0 .057-.23c-.027-.08-.083-.151-.133-.217-.246-.309-.516-.605-.745-.927.066-.019.14-.013.208-.016"/><path fill="#000" d="M90.447 23.997c.158-.028.324-.017.483-.018.982.011 1.966-.011 2.948.01q-.055.229-.145.445c-.355.874-.672 1.762-1.02 2.639-.108.27-.185.538-.323.793-.436.025-.872.002-1.308.009-.71-.006-1.422.011-2.132-.006.101-.35.258-.684.383-1.028.282-.762.585-1.516.873-2.276.074-.188.129-.4.241-.568m11.89.003c.12-.026.25-.021.373-.022 1.025.01 2.051-.004 3.076.006-.088.28-.206.545-.31.82q-.438 1.159-.888 2.311c-.106.26-.165.514-.313.754a7 7 0 0 1-.447.008c-.996-.01-1.993.009-2.989-.008.083-.29.205-.557.312-.839.308-.794.606-1.592.917-2.384.087-.214.149-.449.269-.646"/><path fill="#964DFE" d="M83.345 31.824c.154-.04.337-.011.495-.002.04.099.08.193.113.293.204.657.482 1.296.767 1.922.359.785.783 1.532 1.243 2.261q.172.276.371.532l.05-.395c.28-.015.559-.005.839-.006h6.297c.305-.001.607.012.912-.011-.045-.296-.14-.572-.21-.863a41 41 0 0 1-.664-3.351 3 3 0 0 1-.03-.387q.243-.015.487-.001c.095.272.105.575.155.864q.236 1.454.605 2.88c.075.283.13.567.236.841.28.052.549.025.845.028h12.136c.329-.008.673.03.997-.028.11-.288.168-.584.246-.882q.373-1.45.61-2.928c.043-.263.058-.52.141-.776q.242-.014.484.003c.002.282-.056.548-.1.825a39 39 0 0 1-.603 2.953c-.066.275-.157.54-.199.822.305.023.607.01.912.011h6.348c.291.003.579-.013.87.01q.028.14.061.277a6 6 0 0 0 .163-.226 19.3 19.3 0 0 0 1.966-3.874c.089-.234.142-.467.265-.687.177-.029.352-.051.532-.05-.052.24-.138.47-.222.7a19.67 19.67 0 0 1-9.346 10.765 20 20 0 0 1-3.614 1.462 20 20 0 0 1-5.198.778 20 20 0 0 1-5.45-.68 19.6 19.6 0 0 1-6.435-3.109 19.66 19.66 0 0 1-5.897-6.951c-.469-.903-.835-1.844-1.164-2.805-.01-.062-.074-.166-.014-.215M99.57 44.885c-.266-.211-.555-.389-.812-.613-1.058-.9-1.856-2.06-2.514-3.274a21 21 0 0 1-1.34-3.131c-.109-.303-.18-.614-.308-.908-.224-.022-.447-.016-.671-.014-2.497.004-5.009-.004-7.503.004.143.254.334.484.51.715a19.1 19.1 0 0 0 11.871 7.128c.255.045.509.084.767.093m9.232-7.934c-.27-.013-.54-.005-.811-.005H95.957c-.251.002-.505-.013-.756.007.013.27.139.547.224.801.603 1.733 1.4 3.478 2.539 4.927.718.9 1.605 1.716 2.7 2.124.642.247 1.33.285 2.006.184.97-.173 1.87-.752 2.57-1.428 1.031-1.002 1.789-2.245 2.411-3.531.412-.855.746-1.756 1.057-2.651.049-.14.077-.282.095-.428m.602.01c-.117.25-.179.53-.272.79-.523 1.565-1.205 3.11-2.12 4.485-.537.8-1.159 1.544-1.912 2.15-.232.19-.485.346-.722.528.77-.095 1.535-.24 2.287-.433.809-.21 1.609-.448 2.382-.768a19.14 19.14 0 0 0 8.07-6.098c.167-.217.334-.427.468-.666-2.518-.008-5.043.001-7.562-.004-.21 0-.41-.01-.619.016"/><path fill="#000" d="M86.423 36.949c2.494-.008 5.006 0 7.503-.004.224-.002.447-.008.671.014.127.294.2.605.308.908.36 1.078.81 2.125 1.34 3.131.658 1.213 1.456 2.375 2.514 3.274.257.224.546.402.812.613a5.5 5.5 0 0 1-.767-.093 19.1 19.1 0 0 1-11.871-7.128c-.176-.231-.368-.46-.51-.715"/><path fill="#000" d="M95.201 36.953c.251-.02.505-.005.756-.007h12.035c.271 0 .541-.008.811.005a2 2 0 0 1-.095.428c-.311.895-.645 1.796-1.057 2.65-.622 1.287-1.38 2.53-2.411 3.532-.7.676-1.6 1.255-2.57 1.428-.676.1-1.364.063-2.006-.184-1.095-.408-1.982-1.224-2.7-2.124-1.14-1.45-1.936-3.194-2.54-4.927-.085-.254-.21-.531-.223-.801"/><path fill="#000" d="M110.024 36.945c2.519.005 5.043-.004 7.562.004-.134.239-.301.45-.468.666a19.14 19.14 0 0 1-8.07 6.098c-.774.32-1.573.558-2.382.768-.752.192-1.517.338-2.287.433.237-.182.49-.339.722-.528.753-.606 1.375-1.35 1.912-2.15.915-1.376 1.597-2.92 2.12-4.484.093-.262.155-.54.272-.791.209-.027.409-.016.619-.016"/></g></g><defs><clipPath id="a"><path fill="#fff" d="M0 0h128v128H0z"/></clipPath><clipPath id="b"><rect width="52" height="52" x="76" fill="#fff" rx="26"/></clipPath></defs></svg>
