<svg xmlns="http://www.w3.org/2000/svg" viewBox="0 0 128 128"><path fill="#4678FF" d="M90.25 54.361c.424-.087.894-.03 1.331-.042 11.802.015 23.615-.008 35.419.012-.576 1.605-1.242 3.18-1.829 4.784-1.746 4.576-3.518 9.148-5.262 13.728-.78.064-1.557.042-2.338.042-1.811-.02-3.627.04-5.436-.03.269-.846.614-1.642.927-2.472 1.041-2.779 2.137-5.537 3.18-8.316.388-1.062.838-2.104 1.2-3.176-1.702-.013-3.408-.033-5.108.007-.33.786-.611 1.587-.917 2.378-.916 2.445-1.885 4.868-2.795 7.313-.564 1.418-1.068 2.863-1.669 4.269-1.004.054-2 .017-3.006.025-1.571-.013-3.143.037-4.711-.03q.217-.73.497-1.435c1.456-3.732 2.847-7.483 4.31-11.209q.26-.646.448-1.318-2.517-.034-5.034.007c-1.172 2.933-2.256 5.905-3.409 8.848-.673 1.697-1.262 3.428-1.967 5.112-1.004.052-2 .02-3.007.025-1.587-.013-3.18.034-4.767-.025 1.774-4.682 3.582-9.36 5.371-14.037.199-.564.512-1.132.609-1.724-.124-.293-.36-.547-.554-.796-.45-.53-.882-1.077-1.32-1.617-.054-.087-.196-.213-.163-.323m-28.574-.032c9.04-.005 18.087-.013 27.128.002q-.181.552-.39 1.095l-4.485 11.683c-.738 1.916-1.443 3.843-2.22 5.741-.704.05-1.407.04-2.113.035H60.041c-.723 0-1.444.012-2.166-.03.223-.796.551-1.547.84-2.323.471-1.249.976-2.483 1.44-3.731 1.004-2.69 2.067-5.353 3.074-8.042.19-.547.484-1.095.578-1.667-.082-.221-.25-.417-.397-.604-.589-.714-1.193-1.41-1.734-2.16m5.712 13.98c1.5.054 3.006.01 4.511.024 1.255-.012 2.512.03 3.767-.025.256-.56.472-1.137.68-1.716.773-2.042 1.566-4.08 2.353-6.112q.294-.72.522-1.467c-2.4-.043-4.797.002-7.195-.025-.348.005-.718-.018-1.058.057q-.171.293-.286.612-1.394 3.706-2.832 7.39-.249.625-.462 1.261M34.682 54.32c8.564.01 17.135-.01 25.7.008-.311.95-.706 1.865-1.061 2.796-2.013 5.243-4.013 10.472-6.03 15.71-.696.068-1.387.058-2.082.05H31.653c-.767 0-1.53.017-2.295-.027.228-.722.526-1.413.795-2.117.308-.796.584-1.6.912-2.388.658-.025 1.316-.02 1.975-.017l12.492.002c.529-.005 1.078.037 1.605-.04.139-.164.226-.39.308-.592.228-.617.454-1.231.633-1.868-4.213-.032-8.427-.005-12.64-.015-1.136-.01-2.274.025-3.407-.02.373-1.149.875-2.253 1.282-3.392.15-.369.263-.814.522-1.12.571-.064 1.155-.017 1.729-.025h11.734c.872-.005 1.74.028 2.609-.032q.47-1.105.882-2.229c-4.49-.015-8.98 0-13.468-.005-.241-.025-.532.013-.696-.204-.398-.443-.733-.945-1.106-1.415-.745-1.013-1.565-1.98-2.285-3.01.472-.072.971-.052 1.448-.05m-29.558.005c8.934 0 17.973-.015 26.9.008-.296.893-.666 1.743-1 2.624a468 468 0 0 1-2.38 6.209c-1.075 2.905-2.24 5.773-3.309 8.68q-.19.509-.402 1.003c-.706.045-1.406.04-2.112.035H3.266c-.755 0-1.51.015-2.266-.03.527-1.512 1.158-2.985 1.71-4.492.732-.045 1.465-.027 2.196-.025H16.64c.743 0 1.483.018 2.226-.04q.469-1.225.887-2.47c-4.527-.01-9.056 0-13.585-.005-.838 0-1.667.018-2.505-.02.348-1.012.783-1.99 1.156-2.994q.277-.777.616-1.528c4.365-.037 8.733-.005 13.098-.017 1.006-.01 2.002.032 3.006-.025.33-.731.614-1.48.885-2.234C17.927 58.988 13.43 59 8.933 59c-.176-.01-.388-.007-.547-.09-.248-.21-.437-.502-.636-.758-.877-1.194-1.803-2.348-2.7-3.522-.105-.15-.194-.304.074-.304M60.876 17.03c1.771-.02 3.565-.08 5.331.06 3.596.213 7.18.91 10.629 1.932a47.1 47.1 0 0 1 18.53 10.776 47.25 47.25 0 0 1 11.241 16.38c.348.883.733 1.783.967 2.7a9 9 0 0 1-1.267-.036 12 12 0 0 1-.318-.764 46.3 46.3 0 0 0-4.562-9.067c-.223-.33-.432-.746-.752-.987-.473-.072-.967-.025-1.441-.03H82.836c-.619 0-1.235-.02-1.85.015q.088.46.22.915a85 85 0 0 1 2.055 9.435 5 5 0 0 1 .025.826q-.562.037-1.128-.005c-.192-.535-.234-1.077-.33-1.632a72 72 0 0 0-1.566-7.296c-.214-.758-.37-1.504-.676-2.233-.685-.055-1.359-.02-2.05-.025l-30.65-.003c-.256-.017-.289.237-.36.423a80 80 0 0 0-2.006 8.706c-.124.672-.198 1.339-.37 1.998q-.584.03-1.167-.01c.012-.945.236-1.809.387-2.736.45-2.418.97-4.85 1.635-7.216q.173-.568.3-1.147c-.82-.04-1.64-.008-2.459-.015-5.74.005-11.49-.015-17.227.007-.39.428-.666.913-.98 1.398a50 50 0 0 0-2.504 4.443c-.996 2.01-2.223 5.639-2.223 5.639h-1.49c.136-.59.6-1.565.811-2.127a47.17 47.17 0 0 1 21.931-24.89c6.072-3.258 12.84-5.061 19.712-5.434M47.057 36.71q.348.029.693.033h29.533c.631-.003 1.257.015 1.888-.015-.149-.786-.484-1.57-.757-2.326a60 60 0 0 0-2.219-5.126c-1.361-2.565-2.922-5.06-4.969-7.14-1.573-1.572-3.438-2.915-5.605-3.52a8.84 8.84 0 0 0-4.934-.007c-1.963.545-3.62 1.654-5.1 3.023-1.814 1.684-3.305 3.78-4.547 5.915-1.66 2.888-2.937 6.002-3.983 9.163m9.357-17.939c-3.94.527-7.869 1.739-11.528 3.281a85 85 0 0 0-3.133 1.53 46.1 46.1 0 0 0-14.765 12.48q-.225.323-.43.656.39.023.78.027H43.6c.716-.005 1.411.025 2.124-.025q.219-.59.405-1.189a49 49 0 0 1 3.744-8.502c1.509-2.636 3.295-5.034 5.62-7.004.53-.436 1.099-.816 1.615-1.261a13 13 0 0 0-.695.007m12.715-.022c.743.597 1.518 1.107 2.219 1.758 2.41 2.202 4.226 4.883 5.729 7.768a45 45 0 0 1 2.552 5.794c.347.873.606 1.776.944 2.654.753.05 1.508.015 2.26.022 5.173.003 10.346-.007 15.519 0q.699.011 1.398-.027a10 10 0 0 0-1.093-1.498 46 46 0 0 0-14.445-11.812 45.7 45.7 0 0 0-11.637-4.177c-1.123-.204-2.31-.505-3.446-.482M18.496 77.962c.34-.095.752-.017 1.103.012q.166.363.298.74a45.3 45.3 0 0 0 5.09 10.429c.657-.03 2.063-.134 2.719-.137h15.518c.586 0 1.175.017 1.759-.017q-.06-.474-.18-.936a90 90 0 0 1-1.825-8.706 7.5 7.5 0 0 1-.107-1.36c.407-.065.77-.075 1.175.002.124.57.199 1.144.276 1.722.51 3.139 1.16 6.223 2.06 9.278.797.037 1.594.015 2.392.02h29.14c.661-.005 1.317.024 1.978-.025.286-.776.455-1.605.668-2.406.534-2.057.917-4.141 1.292-6.233.142-.786.196-1.577.39-2.356a3.2 3.2 0 0 1 1.183 0q-.002.627-.107 1.244a87 87 0 0 1-1.51 7.527c-.184.744-.398 1.477-.557 2.226.484.03.969.027 1.456.025 5.806-.007 12.807.062 18.611.052 1.329-1.952 2.174-3.445 3.173-5.587a42 42 0 0 0 1.798-4.397q.15-.448.361-.87.633-.08 1.277-.083c-.448 1.527-1.034 3.022-1.65 4.49a47 47 0 0 1-8.785 13.437c-.969 1.102-2.047 2.065-3.12 3.06a47.7 47.7 0 0 1-10.294 6.989 50 50 0 0 1-6.268 2.572 47.4 47.4 0 0 1-13.143 2.313c-1.493.003-3.004.055-4.497-.074a46.2 46.2 0 0 1-9.702-1.649 46.7 46.7 0 0 1-16.685-8.592 47.1 47.1 0 0 1-15.347-22.317c-.027-.127-.11-.324.06-.393m38.703 31.292c-.577-.458-1.185-.876-1.757-1.343-2.333-1.978-4.082-4.383-5.597-7.022a49.8 49.8 0 0 1-3.963-9.184c-.152-.475-.28-.958-.492-1.415-6.142-.038-12.296.007-18.437-.02-.29.01-.616-.04-.895.04-.228.146-.052.303.045.465a47.2 47.2 0 0 0 7.205 7.847 46 46 0 0 0 13.379 8.06c2.688 1.005 5.5 1.858 8.333 2.33.723.135 1.438.262 2.179.242M46.81 90.292c.197.958.542 1.858.875 2.781 1.155 3.162 2.534 6.181 4.37 9.007 1.103 1.649 2.38 3.268 3.873 4.577 1.004.856 2.12 1.686 3.334 2.209 1.556.646 3.188 1.002 4.875.788 2.477-.291 4.688-1.562 6.484-3.248 2.06-1.893 3.558-4.125 4.945-6.532a52.3 52.3 0 0 0 3.714-8.8c.074-.257.114-.516.156-.78-.76-.044-1.515-.014-2.278-.02H48.647c-.614 0-1.222-.014-1.836.018m22.035 19.079c4.273-.478 8.497-1.692 12.447-3.378 1.302-.572 2.567-1.227 3.829-1.878a46.7 46.7 0 0 0 8.616-6.144 48 48 0 0 0 5.192-5.532c.54-.69 1.109-1.383 1.536-2.134-.828-.058-1.665-.02-2.497-.025q-7.883 0-15.769-.008c-.422.003-.852-.02-1.277.025-.323.53-.422 1.197-.641 1.776-.616 1.746-1.225 3.52-2.012 5.194-.472.92-.843 1.885-1.367 2.781-1.59 2.9-3.602 5.865-6.189 7.965-.593.495-1.242.907-1.87 1.355"/></svg>
