<svg xmlns="http://www.w3.org/2000/svg" viewBox="0 0 128 128"><path fill="#d51a35" d="M63.657 12.02c1.673-.027 3.352-.033 5.025.022 1.006.074 2.01.19 3.017.274a51.6 51.6 0 0 1 14.948 4.079 51.55 51.55 0 0 1 17.61 12.883 51.8 51.8 0 0 1 10.168 17.142c4.188.068 8.387-.022 12.575.046-1.327 3.764-2.71 7.505-4.026 11.271-1.679 4.542-3.27 9.12-4.945 13.664-.988 2.818-2.03 5.62-3.012 8.44a52 52 0 0 1-8.914 16.695 51.55 51.55 0 0 1-17.388 14.089 51.3 51.3 0 0 1-18.503 5.214c-2.21.219-4.47.159-6.692.137a52.2 52.2 0 0 1-14.591-2.832 51.3 51.3 0 0 1-16.308-9.355 52.2 52.2 0 0 1-13.41-17.493c-.984-2.176-1.914-4.364-2.578-6.66-.858-.127-1.686-.05-2.553-.066-4.36-.014-8.722.022-13.08-.017.239-.828.59-1.609.861-2.426.664-1.9 1.396-3.777 2.01-5.693.988-.087 1.97.014 2.957-.066.631-1.573 1.163-3.187 1.753-4.777 1.742-4.846 3.472-9.692 5.238-14.527.077-.31.302-.64.044-.916-1.146-1.576-2.378-3.095-3.519-4.676 2.299-.074 4.605.01 6.904-.041.663-1.724 1.344-3.437 2.14-5.104a51 51 0 0 1 4.047-6.946c6.583-9.593 16.42-16.876 27.592-20.195a52 52 0 0 1 12.63-2.166M48.191 33.833c.702.036 1.399.022 2.1.022h31.2c.652.003 1.305.011 1.957-.027-.219-.973-.59-1.92-.937-2.851a47 47 0 0 0-2.195-5.044c-1.475-3.045-3.39-6.021-5.787-8.423-2.002-1.973-4.311-3.492-7.123-3.971-2.295-.392-4.613.12-6.645 1.214-2.244 1.247-4.098 3.043-5.656 5.065-1.985 2.522-3.538 5.463-4.832 8.388-.768 1.842-1.553 3.706-2.082 5.627m-22.58-.005c.658.04 1.316.027 1.98.027h16.574c.834-.003 1.67.014 2.507-.016 1.508-4.622 3.343-9.021 6.028-13.094 1.385-2.075 3.044-4.016 4.97-5.603.573-.493 1.22-.86 1.81-1.321-.795.025-1.596.23-2.392.35-3.565.601-6.985 1.673-10.34 3.013a50.46 50.46 0 0 0-19.994 15.081c-.406.505-.82.995-1.144 1.563m59.374.005c.647.028 1.288.028 1.936.022h17.271c.625.003 1.245.017 1.867-.036-.109-.194-.214-.389-.342-.575a50.7 50.7 0 0 0-14.07-12.658c-5.7-3.437-12.123-5.775-18.725-6.664-.12.02-.527-.112-.433.14.954.63 1.862 1.308 2.677 2.114 3.011 2.834 5.216 6.573 6.983 10.278.943 2.177 1.87 4.386 2.578 6.65zM18.8 46.431c3.072.033 6.141.003 9.21.014q.417.008.831.04c-.474 1.557-1.116 3.062-1.645 4.605a572 572 0 0 1-2.43 6.743c-1.158 3.323-2.398 6.614-3.571 9.928-.395 1.212-.916 2.39-1.265 3.616.96.049 1.915.008 2.877.027-.979 2.714-1.928 5.444-2.92 8.155q-.89 0-1.775.035c.206.864.524 1.65.836 2.484a50.7 50.7 0 0 0 4.984 9.799q.31.474.658.932.033-.556.077-1.108c.79-.074 1.574-.035 2.364-.04l18.911-.004c-.67-2.549-1.316-5.084-1.747-7.688-.294-1.447-.477-2.908-.727-4.361-.883-.074-1.76-.03-2.647-.041-4.413-.008-8.826.016-13.236-.008.42-1.355.982-2.66 1.424-4.008 1.601-4.416 3.167-8.845 4.791-13.255.9-2.615 1.893-5.197 2.806-7.804.354-1.003.76-1.993 1.056-3.012-1.152-1.678-2.518-3.207-3.664-4.885 3.241-.055 6.489.006 9.733-.027.27-1.247.41-2.52.683-3.766.384-1.818.76-3.63 1.245-5.422.193-.713.42-1.409.577-2.13-7.142-.016-14.298.006-21.437-.01-.324-.023-.426.24-.593.46-1.47 2.277-2.82 4.575-3.944 7.044-.513 1.212-1.097 2.42-1.462 3.687m26.369.134c10.48.028 20.965.003 31.448.011.94.011 1.892-.033 2.827.038-.22.779-.524 1.524-.8 2.286q-1.373 3.843-2.76 7.684c-.137.337-.211.657-.54.86-2.436 1.582-4.855 3.114-7.282 4.69-.477.307-.965.554-1.377.951 2.244.074 4.493-.02 6.733.047-.433 1.485-1.034 2.922-1.525 4.385-1.486 4.002-2.901 8.029-4.38 12.033-1.006.041-2.01.009-3.017.017-6.522.01-13.052-.014-19.574.014.019.761.192 1.49.307 2.244.477 3.048 1.18 6.011 1.925 9.002q.119.411.258.822c11.075.022 22.164.003 33.242.011 1.196-.008 2.394.014 3.59-.008.488-1.48.798-3.023 1.166-4.537.537-2.483 1.03-4.988 1.357-7.51-1.012-.074-2.032-.022-3.047-.038-2.874-.011-5.751.025-8.623-.014.17-.548.373-1.08.576-1.617.921-2.478 1.796-4.972 2.685-7.464 1.114-2.99 2.14-6.014 3.25-9.007.892-2.489 1.766-4.983 2.688-7.464.299-.882.67-1.737.927-2.63-1.207-1.66-2.518-3.238-3.708-4.907 1.651-.055 3.308.01 4.959-.033a93 93 0 0 0-1.22-6.255c-.407-1.664-.777-3.303-1.317-4.923-11.676-.025-23.36 0-35.038-.011-.387 0-.785-.022-1.172.03-.104.23-.175.485-.244.727a90 90 0 0 0-2.314 10.566m42.698-.17c.43.044.85.071 1.286.052 2.921-.008 5.848 0 8.772-.005q.82-.022 1.629.044c2.668 4.536 5.4 9.116 8.08 13.655.271.488.54.965.883 1.404.48-1.256.91-2.53 1.393-3.786.957-2.79 2.011-5.545 2.992-8.324.236-.65.494-1.286.661-1.957-.575-.51-.628-1.151-.905-1.823a52.6 52.6 0 0 0-5.477-10.394 36 36 0 0 0-1.873-.016H85.804q-.186 0-.367.013c.104.636.343 1.25.494 1.878.8 3.042 1.514 6.137 1.936 9.26M48.07 58.976c2.044.017 4.087-.008 6.128.009.277-.011.597.022.842-.13 2.13-1.329 4.218-2.735 6.357-4.05-.782-.072-1.55-.039-2.331-.042-2.83-.002-5.664.006-8.494-.005-.33.01-.697-.047-1.015.033-.14.203-.2.469-.285.702-.37 1.17-.848 2.305-1.202 3.48M85.717 91.65c6.344.017 12.69.003 19.034.008.82.003 1.635-.027 2.455.036l.11.833a51.3 51.3 0 0 0 6.261-12.765l1.111-.11a44 44 0 0 0-3.393-.087c-2.904-.016-5.814.033-8.716-.022-1.635-2.692-3.236-5.41-4.85-8.113-1.398-2.292-2.74-4.624-4.146-6.908-.206.414-.365.85-.516 1.289-1.025 2.954-2.134 5.88-3.154 8.837-.343.992-.727 1.968-1.075 2.957-.26.76-.579 1.415-.7 2.207a88 88 0 0 1-2.421 11.838M43.589 71.363c.795.063 1.588.033 2.386.036h8.914c.83-.006 1.662.027 2.493-.033.535-1.373 1.067-2.769 1.528-4.17-.831-.054-1.657-.027-2.49-.03-3.342-.002-6.685.006-10.025-.002-.434.005-.917-.041-1.333.085-.258.504-.412 1.063-.612 1.59-.285.85-.634 1.663-.861 2.524m15.795 42.765c-.433-.389-.924-.691-1.388-1.039-2.145-1.663-3.903-3.769-5.403-6.016-2.307-3.531-3.985-7.33-5.376-11.301-.318-.878-.535-1.788-.864-2.665-.732-.093-1.456-.049-2.194-.054H26.754c-.642.005-1.292-.03-1.928.035.26.53.658 1.006 1.012 1.475A50.5 50.5 0 0 0 38.4 106.37a49.7 49.7 0 0 0 18.162 7.354c.94.165 1.862.357 2.822.403M47.936 93.14c.047.6.255 1.14.455 1.7.963 2.845 2.085 5.654 3.525 8.297a31.8 31.8 0 0 0 3.757 5.734c1.648 1.971 3.744 3.851 6.141 4.846a9.88 9.88 0 0 0 6.541.504c1.931-.493 3.637-1.518 5.14-2.809 1.336-1.11 2.485-2.473 3.522-3.857 2.246-3.086 3.908-6.46 5.282-10.01.527-1.45 1.092-2.897 1.49-4.386-.768-.063-1.53-.035-2.299-.035H50.432c-.834 0-1.665-.017-2.496.016m24.1 21.054c.96-.038 1.873-.263 2.817-.422 2.128-.362 4.224-.905 6.278-1.565 2.46-.825 4.871-1.735 7.164-2.961 5.557-2.732 10.546-6.647 14.709-11.216 1.125-1.25 2.178-2.57 3.193-3.911q.342-.454.617-.96c-.785-.065-1.558-.032-2.343-.038q-9.338.006-18.672 0-.218.006-.433.028c-.192.317-.302.704-.417 1.058a63 63 0 0 1-3.13 7.984c-1.7 3.473-3.84 6.951-6.664 9.621a17.3 17.3 0 0 1-3.119 2.382"/></svg>
