<svg xmlns="http://www.w3.org/2000/svg" fill="none" viewBox="0 0 128 128"><g clip-path="url(#a)"><path fill="#2F63F9" d="M64 128c35.346 0 64-28.654 64-64S99.346 0 64 0 0 28.654 0 64s28.654 64 64 64"/><path fill="#E6C040" d="M91.3 25.24c2.133 1.577 4.074 3.318 5.98 5.16l.729.69c4.986 4.824 8.687 11.294 10.791 17.87v.96h-1.28l-.33-.87c-1.72-4.429-3.658-8.346-6.39-12.25-5.517-.463-5.517-.463-11.82-.36l-6.509-.003-5.031.043 1.28 5.12c.592 2.771.815 5.492.96 8.32H78.4l-.327-2.046-.433-2.694-.427-2.666a363 363 0 0 0-1.053-6.034H53.12c-1.283 6.704-1.283 6.704-2.24 13.44H49.6c.081-4.463 1.06-8.755 1.92-13.12q-5.69-.126-11.38-.2l-6.401-.113-5.259.313c-2.946 4.208-5.039 8.275-6.72 13.12h-1.28c1.965-9.973 9.496-19.308 17.785-24.906 16.398-10.39 36.71-11.025 53.035.226"/><path fill="#E4BF42" d="M21.76 80h1.28l.481.985c1.215 2.462 2.466 4.872 3.888 7.221.431.754.431.754.751 1.714l23.36-.32-1.6-8.32V80h1.28c.66 3.302 1.29 6.611 1.92 9.92h23.04q.732-4.359 1.413-8.725L77.76 80h1.6c-.23 2.034-.577 4.03-.96 6.04l-.34 1.797c-.3 1.443-.3 1.443-.62 2.083 3.833.067 7.667.1 11.5.12l6.469.067 5.391-.507c2.344-3.604 2.344-3.604 4.34-7.32l.641-1.317.459-.963h1.28c-1.212 6.062-5.76 11.322-9.92 15.68l-.779.841c-7.412 7.778-18.74 12.593-29.402 12.995-7.803.08-15.242-.724-22.299-4.236l-1.204-.585c-6.283-3.173-11.827-7.543-16.076-13.175l-.585-.775C21.76 83.171 21.76 83.171 21.76 80"/><path fill="#EFC537" d="M113.081 56.4c1.898 1.267 3.325 3.27 3.924 5.475.522 3.832.177 6.832-1.965 10.045-1.978 1.837-4.461 3.182-7.2 3.28l-.876.047c-3.378.112-5.969-.587-8.724-2.607-2.494-2.447-2.934-4.606-3.04-7.98.056-2.808.461-4.646 2.335-6.744 4.243-4.047 10.513-4.16 15.546-1.516"/><path fill="#ECC33A" d="M54.72 55.04c6.08 0 6.08 0 7.693 1.313l1.147 1.767 1.243 1.849 1.117 1.791.957 1.421C68.8 66.053 68.8 66.053 68.8 66.88h.64l-.159-1.149c-.199-2.137-.191-4.244-.18-6.39l.008-2.442.011-1.859h5.76v19.84c-6.08 0-6.08 0-7.424-.926L66.66 72.7l-.896-1.329-.804-1.291a147 147 0 0 0-1.4-1.88c-1.07-1.481-2.064-2.996-3.08-4.52v11.2h-5.76z"/><path fill="#EDC439" d="M35.52 55.04h17.6v5.12H40.96v2.24h11.52v5.12H40.96v2.24h12.16v5.12h-17.6z"/><path fill="#3264F6" d="M29.76 91.2h22.4a347 347 0 0 1 1.524 4.123c1.68 4.572 3.437 8.628 6.796 12.197v.32c-4.986.171-9.903-1.469-14.4-3.52l-1.133-.508c-5.725-2.704-11.275-6.965-15.187-11.972z"/><path fill="#F0C536" d="M13.12 55.04h5.44v7.36h9.28v-7.36h5.44v19.84h-5.44v-7.36h-9.28v7.36h-5.44z"/><path fill="#3264F6" d="m82.051 91.169 6.289.011 6.291.009 4.889.011c-3.89 7.778-14.239 12.668-22.08 15.36-2.854.86-5.67 1.151-8.64 1.28l.84-1.08c3.19-4.28 5.184-9.049 6.787-14.117.936-2.819 1.143-1.446 5.624-1.474"/><path fill="#3164F7" d="m60.48 18.56-.82 1.06c-3.6 4.842-5.486 9.872-7.5 15.58h-22.4c3.73-7.462 13.542-12.335 20.98-15 3.134-.986 6.45-1.64 9.74-1.64m8.32 0c10.743.04 20.912 6.17 28.32 13.48 2.4 2.421 2.4 2.421 2.4 3.16h-22.4c-.96-2.56-.96-2.56-1.395-3.773-1.526-4.21-3.239-7.952-6.023-11.482-.582-.745-.582-.745-.902-1.385"/><path fill="#3164F7" d="M65.6 18.24c4.648 2.107 6.832 7.271 8.588 11.734 1.332 3.669 1.332 3.669 1.332 5.226H53.44c1.674-6.137 3.949-12.73 9.28-16.64 1.033-.516 1.73-.448 2.88-.32"/><path fill="#3264F6" d="M53.44 91.2h22.08c-.794 5.56-3.494 11.984-7.837 15.727-1.477 1.09-2.51 1.475-4.323 1.233-5.848-3.655-8.11-10.627-9.92-16.96"/><path fill="#F0C536" d="M76.8 55.04h5.44v14.72h11.52v5.12H76.8z"/><path fill="#3264F6" d="m105.84 60.08 1.355-.025c1.347.11 2.089.314 3.205 1.065 1.387 1.711 1.152 3.666.96 5.76-.387 1.182-.657 1.685-1.628 2.437-1.246.592-2.257.593-3.632.603l-1.419.03c-1.554-.224-2.158-.679-3.241-1.79-.505-1.01-.413-2-.44-3.12l-.047-1.355c.2-1.54.671-2.132 1.767-3.205 1.009-.505 2.001-.388 3.12-.4"/><g clip-path="url(#b)"><path fill="#000" stroke="#000" stroke-width="17.778" d="M76 0h52v52H76zm7.734 20.016q.178.04.354.084l.028.317c.296-.852.615-1.69 1.016-2.498a20 20 0 0 1 1.008-1.787c.126-.194.237-.39.395-.562 2.309-.009 4.624 0 6.934-.003.33.003.66-.01.99.006a6 6 0 0 1-.12.462 33 33 0 0 0-.659 2.9c-.06.374-.15.72-.156 1.101q.235.015.47.004c.07-.265.1-.533.15-.803a32 32 0 0 1 .806-3.5c.03-.075.042-.177.145-.17h12.339c.278.002.549-.012.825.01.123.293.187.594.272.899.267.967.463 1.944.631 2.933.038.223.055.441.132.656q.228.016.455.002a2 2 0 0 0-.011-.332 34 34 0 0 0-.827-3.793 4 4 0 0 1-.089-.369c.248-.013.496-.005.744-.005l6.601-.001c.192.003.391-.016.581.013.129.097.213.264.304.396a18.6 18.6 0 0 1 1.835 3.646q.059.156.128.307.254.024.51.015c-.093-.369-.248-.731-.389-1.086a19 19 0 0 0-4.525-6.586 18.95 18.95 0 0 0-7.459-4.332 19 19 0 0 0-4.278-.777c-.712-.057-1.434-.032-2.147-.025-2.766.15-5.49.876-7.935 2.186a18.7 18.7 0 0 0-3.796 2.657 19 19 0 0 0-5.032 7.35c-.085.226-.174.449-.23.685Zm-6.033 2.204c.24.348.547.645.79.99.087.113.021.214-.013.334-.27.695-.537 1.393-.81 2.087-.143.394-.323.778-.442 1.18.252.022.502.012.755.013h4.925c.255 0 .508-.008.762.007a3 3 0 0 1-.147.444q-.27.69-.527 1.389c-.118.322-.266.645-.346.978.88.017 1.763 0 2.645.008q.222.003.445-.008c.114-.207.18-.427.265-.646.524-1.34 1.028-2.689 1.554-4.028.297-.826.635-1.636.943-2.457q.054-.15.094-.302c-.727-.018-1.456-.003-2.184-.007-.31.005-.623-.019-.93.016-.279.68-.533 1.37-.797 2.057-.088.234-.167.47-.276.696a3 3 0 0 1-.33.023q-1.094-.003-2.186-.002c-.272 0-.54.013-.81-.021.193-.61.457-1.197.679-1.796.115-.316.275-.637.337-.965-1.355-.02-2.713 0-4.068-.009-.105.007-.228-.013-.328.019Zm11.471.005c.196.292.417.559.646.825.067.082.145.17.186.268-.032.257-.19.49-.243.747q.126.011.252.015c2.063.004 4.13-.007 6.192.006-.098.301-.195.618-.36.89a4 4 0 0 1-.291.018q-2.692-.003-5.386-.002c-.265.002-.528-.01-.792.01-.108.226-.181.461-.273.693-.353.903-.69 1.812-1.043 2.716-.153.41-.329.814-.462 1.231q.166.008.334.008c3.076-.006 6.161.005 9.237-.005.138-.238.207-.487.312-.75.132-.35.286-.695.397-1.052-.252-.014-.502-.007-.753-.008H92.25c-.272-.001-.54.011-.811-.021a6.4 6.4 0 0 1 .365-.985c1.84-.013 3.684-.001 5.524-.005.317-.005.64.016.955-.016.13-.235.212-.5.315-.75.372-1.015.784-2.014 1.163-3.026.102-.278.226-.543.309-.825-.22-.01-.44-.006-.66-.005H89.391c-.065.009-.163-.013-.219.023Zm9.843 7.418c.862.004 1.718.042 2.579.006.475-.015.947.033 1.422.004.406-.018.812.007 1.218.01.71-.027 1.422-.01 2.133-.015.491.004.983-.009 1.473.012.263.006.52.016.781-.027.15-.316.255-.654.385-.98.279-.742.579-1.474.853-2.218.272-.72.553-1.436.831-2.153.25-.696.537-1.379.787-2.074-.248-.012-.495-.005-.743-.006h-10.026a.4.4 0 0 0-.11.013c-.011.046.039.098.061.134.229.298.493.572.713.877.095.106.007.23-.026.345-.497 1.25-.959 2.514-1.456 3.764-.109.3-.232.591-.337.89-.17.477-.375.94-.538 1.418Zm13.015-7.423c.259.382.608.701.85 1.093q-.04.146-.091.288c-.383 1.016-.791 2.022-1.163 3.042-.285.74-.585 1.474-.856 2.218-.097.263-.21.513-.286.783 1.031.012 2.064-.001 3.096.007.119-.192.18-.426.265-.637.514-1.33 1.02-2.664 1.533-3.995.133-.325.224-.674.395-.98.671-.01 1.347-.01 2.018 0-.059.23-.153.443-.239.662q-.806 2.108-1.616 4.215c-.094.242-.195.478-.269.726.895.016 1.79 0 2.685.008a6 6 0 0 0 .433-.011q.075-.16.139-.325c.371-1.006.768-2.003 1.149-3.005.234-.631.484-1.256.721-1.886a3 3 0 0 1 .165-.382 59 59 0 0 1 2.017 0c-.056.278-.168.52-.267.785-.507 1.295-.994 2.597-1.499 3.893-.116.313-.248.606-.329.922.883.019 1.767 0 2.65.009a7 7 0 0 0 .443-.009q.061-.12.112-.243 1.25-3.262 2.507-6.523c.084-.22.173-.438.235-.666-.287-.014-.572-.005-.859-.007q-6.835.002-13.669 0c-.086.005-.188-.012-.27.018Zm7.638 9.483a4 4 0 0 0-.515.033q-.085.17-.144.35c-.199.603-.46 1.193-.725 1.769-.402.86-.875 1.691-1.41 2.476q-.053-.118-.104-.237a3 3 0 0 0-.24-.017c-2.336.003-4.677 0-7.015.002a8 8 0 0 1-.586-.01c.064-.3.15-.595.225-.894.25-1 .447-2.008.607-3.026.032-.165.042-.332.044-.5a1.3 1.3 0 0 0-.477 0c-.078.312-.1.63-.157.947-.151.84-.305 1.678-.52 2.506-.086.322-.154.655-.269.967-.266.02-.529.008-.796.01h-11.73c-.322-.002-.642.007-.964-.009a30 30 0 0 1-.828-3.73c-.033-.232-.062-.463-.111-.691a1.3 1.3 0 0 0-.473-.001q-.005.275.043.546c.194 1.175.424 2.351.734 3.501q.048.186.073.375c-.236.015-.472.009-.709.009l-6.246-.001c-.264.001-.528-.007-.792.005q-.032.196-.06.393a7 7 0 0 1-.243-.343 18.2 18.2 0 0 1-2.05-4.194 4 4 0 0 0-.118-.296c-.141-.012-.307-.043-.445-.006-.068.028-.035.107-.023.159a18.94 18.94 0 0 0 6.177 8.972 18.8 18.8 0 0 0 6.716 3.454 18.6 18.6 0 0 0 3.907.665c.6.05 1.208.03 1.81.029a19.1 19.1 0 0 0 5.29-.93c.865-.28 1.705-.641 2.523-1.035a19.2 19.2 0 0 0 4.144-2.81c.432-.4.867-.787 1.256-1.23a18.9 18.9 0 0 0 3.536-5.402c.248-.59.484-1.191.665-1.806Z"/><path fill="#000" stroke="#1CC75D" stroke-width="17.778" d="M100.727 7.138c.713-.007 1.435-.032 2.147.025 1.447.086 2.889.365 4.278.777a18.95 18.95 0 0 1 7.459 4.332 19 19 0 0 1 4.525 6.586c.141.355.296.717.389 1.086q-.256.01-.51-.015a5 5 0 0 1-.128-.307 18.6 18.6 0 0 0-1.835-3.646c-.091-.132-.175-.299-.304-.396-.19-.03-.389-.01-.581-.013h-6.601c-.248.001-.496-.007-.744.006q.036.186.089.369a34 34 0 0 1 .827 3.793c.015.11.014.221.011.332a3 3 0 0 1-.455-.002c-.077-.215-.094-.434-.132-.656a30 30 0 0 0-.631-2.933c-.085-.305-.149-.606-.272-.899-.276-.022-.547-.008-.825-.01H95.095c-.103-.007-.115.095-.144.17a32 32 0 0 0-.808 3.5c-.05.27-.079.538-.149.803a4 4 0 0 1-.47-.004c.005-.38.095-.727.156-1.1.181-.972.39-1.95.658-2.901q.07-.229.122-.462c-.33-.016-.661-.002-.991-.006-2.31.002-4.625-.006-6.934.004-.158.172-.269.367-.395.561-.37.577-.7 1.175-1.008 1.787-.4.808-.72 1.646-1.016 2.498l-.028-.317-.353-.084c.055-.236.144-.46.229-.686a19 19 0 0 1 5.032-7.35 18.7 18.7 0 0 1 3.796-2.656c2.445-1.31 5.169-2.035 7.935-2.186Zm-5.563 7.914q.14.01.28.013h11.888c.253-.002.506.006.759-.007-.06-.316-.194-.63-.304-.934a24 24 0 0 0-.894-2.062c-.547-1.031-1.175-2.035-1.999-2.87-.634-.632-1.384-1.172-2.256-1.416a3.56 3.56 0 0 0-1.987-.002c-.79.218-1.457.665-2.053 1.215-.73.677-1.33 1.52-1.83 2.378-.669 1.161-1.183 2.414-1.604 3.685Zm3.767-7.214c-1.586.212-3.167.699-4.641 1.319-.423.198-.846.4-1.261.615a18.55 18.55 0 0 0-5.944 5.018q-.089.13-.173.264.158.009.315.011h6.546c.288-.002.569.01.855-.01q.09-.237.164-.478a19.7 19.7 0 0 1 1.507-3.419c.606-1.06 1.326-2.024 2.262-2.816.213-.174.442-.327.65-.507a5 5 0 0 0-.28.003Zm5.118-.009c.299.24.611.445.893.707.971.885 1.702 1.963 2.307 3.123.398.752.736 1.53 1.027 2.33.14.351.244.714.379 1.067.303.02.607.006.911.009 2.082.001 4.164-.003 6.247 0q.28.004.563-.011a4 4 0 0 0-.441-.603 18.5 18.5 0 0 0-5.814-4.749 18.4 18.4 0 0 0-4.685-1.679c-.452-.082-.929-.203-1.387-.194Z"/><path fill="#000" stroke="#000" stroke-width="17.778" d="M102.638 7.776c.872.244 1.622.784 2.255 1.416.825.835 1.453 1.839 2 2.87.326.675.634 1.359.894 2.062.11.303.244.618.304.934-.253.013-.506.005-.759.006H95.443a5 5 0 0 1-.279-.012c.42-1.271.935-2.524 1.605-3.685.5-.858 1.099-1.7 1.829-2.378.596-.55 1.264-.997 2.053-1.215a3.56 3.56 0 0 1 1.987.002Z"/><path fill="#000" stroke="#000" stroke-width="17.778" d="M99.211 7.835c-.208.18-.437.333-.65.507-.936.792-1.656 1.757-2.262 2.816a19.7 19.7 0 0 0-1.507 3.42q-.075.24-.164.476c-.286.021-.567.009-.855.01l-6.546.001a7 7 0 0 1-.315-.011q.084-.135.173-.264a18.5 18.5 0 0 1 5.944-5.018c.415-.215.838-.417 1.26-.615 1.474-.62 3.056-1.107 4.642-1.319q.14-.005.28-.003Zm4.838-.005c.458-.01.935.111 1.387.193a18.4 18.4 0 0 1 4.685 1.68 18.5 18.5 0 0 1 5.814 4.748 4 4 0 0 1 .441.603 8 8 0 0 1-.563.011c-2.082-.003-4.165.001-6.247 0-.304-.003-.608.01-.911-.01-.135-.352-.239-.715-.379-1.066a18.5 18.5 0 0 0-1.027-2.33c-.605-1.16-1.336-2.238-2.307-3.123-.282-.262-.594-.467-.893-.707Z"/><path fill="#000" stroke="#1CC75D" stroke-width="17.778" d="M78.029 22.201c1.355.008 2.713-.01 4.068.01-.062.327-.222.648-.337.964-.222.6-.486 1.187-.68 1.796.271.034.539.02.81.021q1.094-.001 2.187.002.165-.002.33-.023c.109-.226.188-.462.276-.696.264-.686.518-1.377.797-2.057.306-.035.62-.01.93-.016.728.004 1.457-.011 2.184.007a4 4 0 0 1-.094.302c-.308.822-.646 1.63-.943 2.457-.526 1.34-1.03 2.688-1.554 4.028-.085.219-.151.44-.265.646q-.222.01-.445.008c-.882-.008-1.764.009-2.645-.008.08-.333.228-.656.346-.979q.255-.697.527-1.388a3 3 0 0 0 .147-.444c-.255-.015-.507-.007-.762-.007H77.98c-.252 0-.502.009-.754-.013.12-.402.299-.786.441-1.18.274-.694.54-1.392.811-2.087.034-.12.1-.22.012-.335-.242-.344-.55-.64-.789-.99.1-.031.223-.011.328-.018Zm11.362.001h10.02c.22-.001.44-.006.659.005-.083.282-.207.546-.309.825-.38 1.012-.79 2.011-1.163 3.025-.103.251-.185.516-.315.751-.316.032-.638.01-.955.016-1.84.004-3.684-.008-5.524.005a6.4 6.4 0 0 0-.365.985c.27.032.539.02.811.02l4.875.001c.251 0 .501-.006.752.008-.11.357-.264.702-.396 1.052-.105.263-.174.512-.312.75-3.076.01-6.161-.001-9.237.005q-.168 0-.334-.008c.133-.417.309-.821.462-1.231.353-.904.69-1.813 1.043-2.716.092-.232.165-.467.273-.693.264-.02.527-.008.792-.01q2.692-.002 5.386.002.146-.004.292-.018c.164-.272.261-.589.359-.89-2.062-.013-4.13-.002-6.192-.006q-.126-.004-.252-.015c.053-.257.21-.49.243-.747-.041-.099-.12-.186-.187-.268a9 9 0 0 1-.645-.825c.056-.036.154-.014.219-.024Zm11.207.013a.5.5 0 0 1 .11-.014l10.026.001c.248 0 .496-.007.743.006-.249.695-.537 1.378-.787 2.074-.278.717-.559 1.433-.831 2.153-.274.744-.574 1.476-.853 2.219-.13.325-.235.663-.385.98-.261.042-.518.032-.781.026-.49-.021-.982-.008-1.473-.012-.711.005-1.423-.012-2.133.014-.406-.002-.812-.027-1.218-.009-.475.029-.947-.019-1.422-.004-.861.036-1.717-.002-2.579-.006.163-.478.368-.942.538-1.417.105-.3.228-.592.337-.89.497-1.25.959-2.515 1.457-3.765.032-.115.12-.24.025-.345-.219-.305-.484-.579-.713-.877-.022-.036-.072-.089-.061-.134Zm2.263 5.601c.272.03.542.018.815.02.729 0 1.457-.004 2.186.001q.164-.002.327-.024c.199-.458.358-.933.545-1.396.218-.544.418-1.094.629-1.641.088-.23.187-.454.26-.69-.96-.015-1.921.001-2.881-.007-.145 0-.295-.008-.439.014-.138.23-.206.505-.31.753-.299.753-.583 1.512-.872 2.269-.09.235-.194.458-.26.701Zm9.439-5.615c4.556.003 9.113 0 13.669.001.287.002.572-.007.859.007-.062.228-.151.445-.235.666q-1.257 3.26-2.507 6.523a3 3 0 0 1-.112.243 7 7 0 0 1-.443.009c-.883-.008-1.767.01-2.65-.008.081-.317.213-.61.329-.923.505-1.296.992-2.598 1.499-3.893.099-.266.211-.507.267-.786a60 60 0 0 0-2.017.001 3 3 0 0 0-.165.382c-.237.63-.487 1.255-.721 1.886-.381 1.002-.778 1.999-1.149 3.005q-.064.165-.139.325-.216.015-.433.011c-.895-.008-1.79.008-2.685-.008.074-.248.175-.484.269-.726q.81-2.106 1.616-4.215c.086-.22.18-.433.239-.662-.671-.01-1.347-.01-2.018 0-.171.305-.262.655-.395.98-.513 1.33-1.019 2.664-1.533 3.995-.085.211-.146.445-.265.637-1.032-.008-2.065.005-3.096-.007.076-.27.189-.52.286-.782.271-.745.571-1.479.856-2.219.372-1.02.78-2.026 1.163-3.042q.05-.142.091-.288c-.242-.392-.591-.711-.85-1.093.082-.03.184-.013.27-.019Z"/><path fill="#000" stroke="#000" stroke-width="17.778" d="M104.303 24.093c.144-.022.294-.014.439-.014.96.008 1.921-.008 2.881.007-.073.236-.172.46-.261.69-.21.547-.41 1.097-.628 1.641-.188.463-.347.938-.545 1.396a3 3 0 0 1-.327.024c-.729-.005-1.457 0-2.186-.002-.273-.001-.543.01-.815-.018.066-.244.17-.467.26-.702.289-.757.573-1.516.872-2.269.104-.248.172-.523.31-.753Z"/><path fill="#000" stroke="#1CC75D" stroke-width="17.778" d="M83.667 31.637c.138-.037.304-.006.445.006q.066.145.119.296a18.2 18.2 0 0 0 2.05 4.194q.116.174.243.343.026-.197.059-.393c.264-.012.528-.004.792-.005h6.246c.237 0 .473.007.709-.008a3 3 0 0 0-.073-.375 36 36 0 0 1-.734-3.5 3 3 0 0 1-.043-.547c.163-.027.31-.032.473 0 .049.23.078.46.11.692a30 30 0 0 0 .83 3.73c.32.016.641.007.962.008h11.731c.267-.001.53.01.796-.01.115-.311.183-.645.269-.966.215-.828.369-1.666.52-2.506.057-.317.079-.635.157-.948.168-.03.308-.029.477 0a3 3 0 0 1-.044.501 35 35 0 0 1-.607 3.026c-.075.299-.161.593-.225.895a8 8 0 0 0 .586.009c2.338-.002 4.679.001 7.015-.002q.12.003.24.017.05.12.104.237a18 18 0 0 0 1.41-2.476c.265-.576.526-1.166.725-1.768q.058-.181.144-.35a4 4 0 0 1 .515-.034 17 17 0 0 1-.665 1.806 18.9 18.9 0 0 1-3.536 5.402c-.389.443-.824.83-1.256 1.23a19.2 19.2 0 0 1-4.144 2.81 20 20 0 0 1-2.523 1.035 19.1 19.1 0 0 1-5.29.93c-.602.001-1.21.021-1.81-.03a18.6 18.6 0 0 1-3.907-.664 18.94 18.94 0 0 1-12.894-12.427c-.011-.051-.044-.13.024-.158Zm15.58 12.582c-.232-.185-.477-.353-.707-.54-.94-.795-1.644-1.763-2.254-2.824a20 20 0 0 1-1.594-3.692c-.061-.192-.114-.385-.198-.569-2.472-.015-4.95.003-7.423-.008-.116.004-.248-.016-.36.016-.092.059-.02.122.019.187a19 19 0 0 0 2.9 3.155 18.5 18.5 0 0 0 5.386 3.241c1.082.403 2.214.746 3.354.937.291.054.579.105.877.097Zm-4.182-7.624c.08.385.219.747.352 1.118.466 1.271 1.02 2.485 1.76 3.622.443.662.958 1.314 1.559 1.84.404.344.853.678 1.342.888.626.26 1.283.403 1.962.317.997-.117 1.888-.628 2.611-1.306.829-.762 1.431-1.659 1.99-2.627a21 21 0 0 0 1.494-3.538 3 3 0 0 0 .064-.313c-.306-.018-.611-.006-.918-.008H95.805c-.247 0-.493-.006-.74.007Zm8.871 7.67c1.72-.191 3.421-.678 5.011-1.358.524-.229 1.033-.492 1.542-.754a18.7 18.7 0 0 0 3.467-2.47 19.5 19.5 0 0 0 2.092-2.225c.216-.277.445-.556.618-.858-.334-.023-.671-.008-1.006-.01q-3.173 0-6.348-.003c-.17 0-.343-.008-.513.01-.13.213-.17.481-.259.714-.248.702-.493 1.415-.81 2.089-.191.37-.339.757-.55 1.118-.64 1.166-1.45 2.357-2.492 3.201-.238.2-.499.366-.752.546Z"/><path fill="#000" stroke="#000" stroke-width="17.778" d="M86.71 36.602c.113-.032.245-.012.361-.016 2.473.011 4.95-.007 7.422.008.085.184.138.377.199.57a19.8 19.8 0 0 0 1.594 3.691c.61 1.061 1.315 2.029 2.254 2.825.23.186.475.355.707.54-.298.007-.586-.044-.877-.098-1.14-.19-2.272-.534-3.354-.937a18.5 18.5 0 0 1-5.386-3.24 19 19 0 0 1-2.9-3.156c-.04-.065-.111-.129-.02-.187Z"/><path fill="#000" stroke="#000" stroke-width="17.778" d="M95.065 36.595c.247-.013.493-.007.74-.007h11.476c.307.002.612-.01.918.008a3 3 0 0 1-.064.313 21 21 0 0 1-1.494 3.538c-.559.968-1.161 1.865-1.99 2.627-.723.678-1.614 1.189-2.611 1.306-.679.086-1.336-.057-1.962-.317-.489-.21-.937-.544-1.342-.888-.601-.526-1.116-1.178-1.56-1.84-.74-1.137-1.293-2.35-1.759-3.622-.133-.371-.273-.733-.352-1.118Z"/><path fill="#000" stroke="#000" stroke-width="17.778" d="M108.799 36.597c.17-.018.343-.01.514-.01q3.174.003 6.347.002c.335.004.672-.012 1.006.01-.173.303-.402.582-.618.859a19.5 19.5 0 0 1-2.092 2.225 18.7 18.7 0 0 1-3.467 2.47c-.509.261-1.018.525-1.542.754-1.59.68-3.291 1.167-5.011 1.358.253-.18.514-.346.752-.546 1.042-.844 1.852-2.035 2.492-3.201.211-.36.359-.748.55-1.118.317-.674.562-1.387.81-2.089.089-.233.129-.501.259-.715Z"/><path fill="#000" d="M76 1a1 1 0 0 1 1-1h50a1 1 0 0 1 1 1v50a1 1 0 0 1-1 1H77a1 1 0 0 1-1-1zm7.791 18.811a.2.2 0 0 0 .15.253l.106.026a.06.06 0 0 1 .045.052c.005.064.094.075.115.015.27-.762.565-1.512.925-2.238a20 20 0 0 1 1.008-1.787q.069-.105.134-.21c.15-.235.42-.352.699-.353 2.163-.007 4.332 0 6.496-.002q.256.002.513-.002c.25 0 .428.23.356.47a33 33 0 0 0-.658 2.9c-.047.286-.11.556-.14.838-.015.147.1.272.248.272a.256.256 0 0 0 .252-.206c.04-.2.066-.4.103-.602a32 32 0 0 1 .808-3.5c.029-.075.041-.177.144-.17h12.555a.8.8 0 0 1 .796.59q.041.159.085.319c.267.967.463 1.944.631 2.933.027.16.044.318.08.474a.25.25 0 0 0 .242.19.255.255 0 0 0 .261-.272l-.007-.066a34 34 0 0 0-.827-3.793.295.295 0 0 1 .29-.376l.365.002 6.601-.001c.109.002.219-.003.329-.003.166 0 .327.066.42.204.048.07.091.143.136.208a18.6 18.6 0 0 1 1.835 3.646q.03.08.063.158a.26.26 0 0 0 .228.161c.178.01.305-.16.248-.33-.087-.255-.192-.506-.29-.753a19 19 0 0 0-4.525-6.586 18.95 18.95 0 0 0-7.459-4.332 19 19 0 0 0-4.278-.777c-.712-.057-1.434-.032-2.147-.025-2.766.15-5.49.876-7.935 2.186a18.7 18.7 0 0 0-3.796 2.657 19 19 0 0 0-5.032 7.35c-.06.16-.122.318-.173.48m-5.762 2.39c-.164.01-.233.154-.13.282.197.243.412.472.591.726.088.114.022.215-.012.335-.27.695-.537 1.393-.81 2.087q-.088.237-.184.471c-.145.362.107.72.497.722h4.925l.294-.002c.244-.001.413.227.321.453q-.27.69-.527 1.389a.718.718 0 0 0 .692.986c.536 0 1.072-.005 1.607 0a.64.64 0 0 0 .622-.416l.088-.238c.524-1.34 1.028-2.689 1.554-4.028.297-.826.635-1.636.943-2.457.056-.151-.061-.306-.223-.308-.622-.008-1.245.003-1.867-.001q-.168.002-.338-.002a.86.86 0 0 0-.812.568c-.196.5-.384 1.005-.577 1.507-.05.13-.095.261-.146.39a.5.5 0 0 1-.46.329q-1.094-.003-2.186-.002a.563.563 0 0 1-.536-.784c.135-.345.277-.687.405-1.033.183-.502-.152-.972-.687-.974-1.014-.003-2.03.006-3.044 0m11.362 0c-.12.018-.163.108-.091.206.162.223.337.433.518.643.036.045.076.09.11.139.058.08.072.18.045.275-.035.122-.09.24-.136.36a.188.188 0 0 0 .176.256c1.83.004 3.662-.004 5.491.002.347.002.606.347.462.663a.43.43 0 0 1-.382.248h-5.416l-.215-.001a.825.825 0 0 0-.79.546l-.06.157c-.353.903-.69 1.812-1.043 2.716-.114.306-.241.608-.354.916a.24.24 0 0 0 .226.323c2.885-.006 5.78.004 8.665-.004.354 0 .678-.192.799-.525q.04-.111.085-.226.066-.174.136-.346a.514.514 0 0 0-.492-.714h-5.001a.485.485 0 0 1-.465-.672.545.545 0 0 1 .51-.336c1.719-.01 3.44 0 5.16-.003q.213-.003.429.002a.77.77 0 0 0 .736-.5q.05-.135.104-.269c.372-1.014.784-2.013 1.163-3.025q.038-.104.08-.207a.448.448 0 0 0-.43-.623zm10.119 6.144a.966.966 0 0 0 .894 1.317c.396.004.792.004 1.19-.013.475-.015.947.033 1.422.004.406-.018.812.007 1.218.01.71-.027 1.422-.01 2.133-.015.491.004.983-.009 1.473.012q.129.004.258.005a.77.77 0 0 0 .723-.517c.061-.165.12-.331.185-.494.279-.743.579-1.475.853-2.219.272-.72.553-1.436.831-2.153.166-.463.349-.92.526-1.379a.51.51 0 0 0-.482-.7l-10.026-.002c-.068 0-.111.059-.072.114l.023.034c.229.298.493.572.713.877.095.106.007.23-.026.345-.497 1.25-.959 2.514-1.456 3.764-.109.3-.232.591-.337.89zM112.3 22.2c-.138.01-.194.13-.108.238.168.212.353.412.517.626a.56.56 0 0 1 .08.536c-.383 1.016-.791 2.022-1.163 3.042-.285.74-.585 1.474-.856 2.218a.574.574 0 0 0 .547.788c.568.001 1.136-.002 1.703 0 .348 0 .66-.186.779-.513l.046-.122c.514-1.33 1.02-2.664 1.533-3.995.061-.147.112-.3.167-.451.121-.336.448-.533.805-.535q.368-.002.737 0a.485.485 0 0 1 .465.668q-.806 2.108-1.616 4.215a.532.532 0 0 0 .506.733c.636.002 1.274-.005 1.91.001h.079a.525.525 0 0 0 .493-.336c.371-1.006.768-2.003 1.149-3.005.234-.631.484-1.256.721-1.886a.61.61 0 0 1 .581-.388q.384-.003.77-.002c.432 0 .715.388.564.793-.507 1.295-.994 2.597-1.499 3.893-.174.47.15.931.651.931.557 0 1.114-.005 1.67 0h.176a.41.41 0 0 0 .379-.252q1.25-3.262 2.507-6.523a.49.49 0 0 0-.472-.673h-.152q-6.835.002-13.669 0m7.258 9.855a.253.253 0 0 0-.259-.335.25.25 0 0 0-.208.148 2 2 0 0 0-.082.218c-.199.602-.46 1.192-.725 1.768a18 18 0 0 1-1.301 2.315.108.108 0 0 1-.188-.016.11.11 0 0 0-.09-.067 2 2 0 0 0-.175-.01c-2.336.003-4.677 0-7.015.002a.454.454 0 0 1-.446-.578l.085-.326c.25-1 .447-2.008.607-3.026q.022-.114.032-.229c.013-.156-.101-.297-.258-.294a.266.266 0 0 0-.25.225c-.046.247-.069.496-.114.745-.151.84-.305 1.678-.52 2.506l-.089.349a.83.83 0 0 1-.824.628H95.602a.925.925 0 0 1-.901-.693 32 32 0 0 1-.637-3.046c-.023-.162-.044-.325-.072-.486-.021-.125-.12-.226-.248-.228-.154-.003-.268.134-.257.288q.01.14.036.28c.194 1.175.424 2.351.734 3.501a.31.31 0 0 1-.31.385l-.326-.001-6.246-.001c-.231 0-.462-.005-.694.002a.12.12 0 0 0-.114.1c-.017.109-.156.144-.218.054l-.069-.101a18.2 18.2 0 0 1-2.05-4.194.46.46 0 0 0-.563-.302c-.068.028-.035.107-.023.159a18.94 18.94 0 0 0 6.177 8.972 18.8 18.8 0 0 0 6.716 3.454 18.6 18.6 0 0 0 3.907.665c.6.05 1.208.03 1.81.029a19.1 19.1 0 0 0 5.29-.93c.865-.28 1.705-.641 2.523-1.035a19.2 19.2 0 0 0 4.144-2.81c.432-.4.867-.787 1.256-1.23a18.9 18.9 0 0 0 3.536-5.402c.201-.477.393-.96.555-1.453"/><path fill="#1CC75D" d="M100.727 7.138c.713-.007 1.435-.032 2.147.025 1.447.086 2.889.365 4.278.777a18.95 18.95 0 0 1 7.459 4.332 19 19 0 0 1 4.525 6.586c.141.355.296.717.389 1.086q-.256.01-.51-.015a5 5 0 0 1-.128-.307 18.6 18.6 0 0 0-1.835-3.646c-.091-.132-.175-.299-.304-.396-.19-.03-.389-.01-.581-.013h-6.601c-.248.001-.496-.007-.744.006q.036.186.089.369a34 34 0 0 1 .827 3.793c.015.11.014.221.011.332a3 3 0 0 1-.455-.002c-.077-.215-.094-.434-.132-.656a30 30 0 0 0-.631-2.933c-.085-.305-.149-.606-.272-.899-.276-.022-.547-.008-.825-.01H95.095c-.103-.007-.115.095-.144.17a32 32 0 0 0-.808 3.5c-.05.27-.079.538-.149.803a4 4 0 0 1-.47-.004c.005-.38.095-.727.156-1.1.181-.972.39-1.95.658-2.901q.07-.229.122-.462c-.33-.016-.661-.002-.991-.006-2.31.002-4.625-.006-6.934.004-.158.172-.269.367-.395.561-.37.577-.7 1.175-1.008 1.787-.4.808-.72 1.646-1.016 2.498l-.028-.317-.353-.084c.055-.236.144-.46.229-.686a19 19 0 0 1 5.032-7.35 18.7 18.7 0 0 1 3.796-2.656c2.445-1.31 5.169-2.035 7.935-2.186m-5.563 7.914q.14.01.28.013h11.888c.253-.002.506.006.759-.007-.06-.316-.194-.63-.304-.934a24 24 0 0 0-.894-2.062c-.547-1.031-1.175-2.035-1.999-2.87-.634-.632-1.384-1.172-2.256-1.416a3.56 3.56 0 0 0-1.987-.002c-.79.218-1.457.665-2.053 1.215-.73.677-1.33 1.52-1.83 2.378-.669 1.161-1.183 2.414-1.604 3.685m3.767-7.214c-1.586.212-3.167.699-4.641 1.319-.423.198-.846.4-1.261.615a18.55 18.55 0 0 0-5.944 5.018q-.089.13-.173.264.158.009.315.011h6.546c.288-.002.569.01.855-.01q.09-.237.164-.478a19.7 19.7 0 0 1 1.507-3.419c.606-1.06 1.326-2.024 2.262-2.816.213-.174.442-.327.65-.507a5 5 0 0 0-.28.003m5.118-.009c.299.24.611.445.893.707.971.885 1.702 1.963 2.307 3.123.398.752.736 1.53 1.027 2.33.14.351.244.714.379 1.067.303.02.607.006.911.009 2.082.001 4.164-.003 6.247 0q.28.004.563-.011a4 4 0 0 0-.441-.603 18.5 18.5 0 0 0-5.814-4.749 18.4 18.4 0 0 0-4.685-1.679c-.452-.082-.929-.203-1.387-.194"/><path fill="#000" d="M102.638 7.776c.872.244 1.622.784 2.255 1.416.825.835 1.453 1.839 2 2.87.326.675.634 1.359.894 2.062.11.303.244.618.304.934-.253.013-.506.005-.759.006H95.443a5 5 0 0 1-.279-.012c.42-1.271.935-2.524 1.605-3.685.5-.858 1.099-1.7 1.829-2.378.596-.55 1.264-.997 2.053-1.215a3.56 3.56 0 0 1 1.987.002"/><path fill="#000" d="M99.211 7.835c-.208.18-.437.333-.65.507-.936.792-1.656 1.757-2.262 2.816a19.7 19.7 0 0 0-1.507 3.42q-.075.24-.164.476c-.286.021-.567.009-.855.01l-6.546.001a7 7 0 0 1-.315-.011q.084-.135.173-.264a18.5 18.5 0 0 1 5.944-5.018c.415-.215.838-.417 1.26-.615 1.474-.62 3.056-1.107 4.642-1.319q.14-.005.28-.003m4.838-.005c.458-.01.935.111 1.387.193a18.4 18.4 0 0 1 4.685 1.68 18.5 18.5 0 0 1 5.814 4.748 4 4 0 0 1 .441.603 8 8 0 0 1-.563.011c-2.082-.003-4.165.001-6.247 0-.304-.003-.608.01-.911-.01-.135-.352-.239-.715-.379-1.066a18.5 18.5 0 0 0-1.027-2.33c-.605-1.16-1.336-2.238-2.307-3.123-.282-.262-.594-.467-.893-.707"/><path fill="#1CC75D" d="M78.029 22.201c1.355.008 2.713-.01 4.068.01-.062.327-.222.648-.337.964-.222.6-.486 1.187-.68 1.796.271.034.539.02.81.021q1.094-.001 2.187.002.165-.002.33-.023c.109-.226.188-.462.276-.696.264-.686.518-1.377.797-2.057.306-.035.62-.01.93-.016.728.004 1.457-.011 2.184.007a4 4 0 0 1-.094.302c-.308.822-.646 1.63-.943 2.457-.526 1.34-1.03 2.688-1.554 4.028-.085.219-.151.44-.265.646q-.222.01-.445.008c-.882-.008-1.764.009-2.645-.008.08-.333.228-.656.346-.979q.255-.697.527-1.388a3 3 0 0 0 .147-.444c-.255-.015-.507-.007-.762-.007H77.98c-.252 0-.502.009-.754-.013.12-.402.299-.786.441-1.18.274-.694.54-1.392.811-2.087.034-.12.1-.22.012-.335-.242-.344-.55-.64-.789-.99.1-.031.223-.011.328-.018m11.362.001h10.02c.22-.001.44-.006.659.005-.083.282-.207.546-.309.825-.38 1.012-.79 2.011-1.163 3.025-.103.251-.185.516-.315.751-.316.032-.638.01-.955.016-1.84.004-3.684-.008-5.524.005a6.4 6.4 0 0 0-.365.985c.27.032.539.02.811.02l4.875.001c.251 0 .501-.006.752.008-.11.357-.264.702-.396 1.052-.105.263-.174.512-.312.75-3.076.01-6.161-.001-9.237.005q-.168 0-.334-.008c.133-.417.309-.821.462-1.231.353-.904.69-1.813 1.043-2.716.092-.232.165-.467.273-.693.264-.02.527-.008.792-.01q2.692-.002 5.386.002.146-.004.292-.018c.164-.272.261-.589.359-.89-2.062-.013-4.13-.002-6.192-.006q-.126-.004-.252-.015c.053-.257.21-.49.243-.747-.041-.099-.12-.186-.187-.268a9 9 0 0 1-.645-.825c.056-.036.154-.014.219-.024m11.207.014a.5.5 0 0 1 .11-.014l10.026.001c.248 0 .496-.007.743.006-.249.695-.537 1.378-.787 2.074-.278.717-.559 1.433-.831 2.153-.274.744-.574 1.476-.853 2.219-.13.325-.235.663-.385.98-.261.042-.518.032-.781.026-.49-.021-.982-.008-1.473-.012-.711.005-1.423-.012-2.133.014-.406-.002-.812-.027-1.218-.009-.475.029-.947-.019-1.422-.004-.861.036-1.717-.002-2.579-.006.163-.478.368-.942.538-1.417.105-.3.228-.592.337-.89.497-1.25.959-2.515 1.457-3.765.032-.115.12-.24.025-.345-.219-.305-.484-.579-.713-.877-.022-.036-.072-.089-.061-.134m2.263 5.601c.272.03.542.018.815.02.729 0 1.457-.004 2.186.001q.164-.002.327-.024c.199-.458.358-.933.545-1.396.218-.544.418-1.094.629-1.641.088-.23.187-.454.26-.69-.96-.015-1.921.001-2.881-.007-.145 0-.295-.008-.439.014-.138.23-.206.505-.31.753-.299.753-.583 1.512-.872 2.269-.09.235-.194.458-.26.701m9.439-5.615c4.556.003 9.113 0 13.669.001.287.002.572-.007.859.007-.062.228-.151.445-.235.666q-1.257 3.26-2.507 6.523a3 3 0 0 1-.112.243 7 7 0 0 1-.443.009c-.883-.008-1.767.01-2.65-.008.081-.317.213-.61.329-.923.505-1.296.992-2.598 1.499-3.893.099-.266.211-.507.267-.786a60 60 0 0 0-2.017.001 3 3 0 0 0-.165.382c-.237.63-.487 1.255-.721 1.886-.381 1.002-.778 1.999-1.149 3.005q-.064.165-.139.325-.216.015-.433.011c-.895-.008-1.79.008-2.685-.008.074-.248.175-.484.269-.726q.81-2.106 1.616-4.215c.086-.22.18-.433.239-.662-.671-.01-1.347-.01-2.018 0-.171.305-.262.655-.395.98-.513 1.33-1.019 2.664-1.533 3.995-.085.211-.146.445-.265.637-1.032-.008-2.065.005-3.096-.007.076-.27.189-.52.286-.782.271-.745.571-1.479.856-2.219.372-1.02.78-2.026 1.163-3.042q.05-.142.091-.288c-.242-.392-.591-.711-.85-1.093.082-.03.184-.013.27-.019"/><path fill="#000" d="M104.303 24.093c.144-.022.294-.014.439-.014.96.008 1.921-.008 2.881.007-.073.236-.172.46-.261.69-.21.547-.41 1.097-.628 1.641-.188.463-.347.938-.545 1.396a3 3 0 0 1-.327.024c-.729-.005-1.457 0-2.186-.002-.273-.001-.543.01-.815-.018.066-.244.17-.467.26-.702.289-.757.573-1.516.872-2.269.104-.248.172-.523.31-.753"/><path fill="#1CC75D" d="M83.667 31.637c.138-.037.304-.006.445.006q.066.145.119.296a18.2 18.2 0 0 0 2.05 4.194q.116.174.243.343.026-.197.059-.393c.264-.012.528-.004.792-.005h6.246c.237 0 .473.007.709-.008a3 3 0 0 0-.073-.375 36 36 0 0 1-.734-3.5 3 3 0 0 1-.043-.547c.163-.027.31-.032.473 0 .049.23.078.46.11.692a30 30 0 0 0 .83 3.73c.32.016.641.007.962.008h11.731c.267-.001.53.01.796-.01.115-.311.183-.645.269-.966.215-.828.369-1.666.52-2.506.057-.317.079-.635.157-.948.168-.03.308-.029.477 0a3 3 0 0 1-.044.501 35 35 0 0 1-.607 3.026c-.075.299-.161.593-.225.895a8 8 0 0 0 .586.009c2.338-.002 4.679.001 7.015-.002q.12.003.24.017.05.12.104.237a18 18 0 0 0 1.41-2.476c.265-.576.526-1.166.725-1.768q.058-.181.144-.35a4 4 0 0 1 .515-.034 17 17 0 0 1-.665 1.806 18.9 18.9 0 0 1-3.536 5.402c-.389.443-.824.83-1.256 1.23a19.2 19.2 0 0 1-4.144 2.81 20 20 0 0 1-2.523 1.035 19.1 19.1 0 0 1-5.29.93c-.602.001-1.21.021-1.81-.03a18.6 18.6 0 0 1-3.907-.664 18.94 18.94 0 0 1-12.894-12.427c-.011-.051-.044-.13.024-.158m15.58 12.582c-.232-.185-.477-.353-.707-.54-.94-.795-1.644-1.763-2.254-2.824a20 20 0 0 1-1.594-3.692c-.061-.192-.114-.385-.198-.569-2.472-.015-4.95.003-7.423-.008-.116.004-.248-.016-.36.016-.092.059-.02.122.019.187a19 19 0 0 0 2.9 3.155 18.5 18.5 0 0 0 5.386 3.241c1.082.403 2.214.746 3.354.937.291.054.579.105.877.097m-4.182-7.624c.08.385.219.747.352 1.118.466 1.271 1.02 2.485 1.76 3.622.443.662.958 1.314 1.559 1.84.404.344.853.678 1.342.888.626.26 1.283.403 1.962.317.997-.117 1.888-.628 2.611-1.306.829-.762 1.431-1.659 1.99-2.627a21 21 0 0 0 1.494-3.538 3 3 0 0 0 .064-.313c-.306-.018-.611-.006-.918-.008H95.805c-.247 0-.493-.006-.74.007m8.871 7.67c1.72-.191 3.421-.678 5.011-1.358.524-.229 1.033-.492 1.542-.754a18.7 18.7 0 0 0 3.467-2.47 19.5 19.5 0 0 0 2.092-2.225c.216-.277.445-.556.618-.858-.334-.023-.671-.008-1.006-.01q-3.173 0-6.348-.003c-.17 0-.343-.008-.513.01-.13.213-.17.481-.259.714-.248.702-.493 1.415-.81 2.089-.191.37-.339.757-.55 1.118-.64 1.166-1.45 2.357-2.492 3.201-.238.2-.499.366-.752.546"/><path fill="#000" d="M86.71 36.602c.113-.032.245-.012.361-.016 2.473.011 4.95-.007 7.422.008.085.184.138.377.199.57a19.8 19.8 0 0 0 1.594 3.691c.61 1.061 1.315 2.029 2.254 2.825.23.186.475.355.707.54-.298.007-.586-.044-.877-.098-1.14-.19-2.272-.534-3.354-.937a18.5 18.5 0 0 1-5.386-3.24 19 19 0 0 1-2.9-3.156c-.04-.065-.111-.129-.02-.187"/><path fill="#000" d="M95.065 36.595c.247-.013.493-.007.74-.007h11.476c.307.002.612-.01.918.008a3 3 0 0 1-.064.313 21 21 0 0 1-1.494 3.538c-.559.968-1.161 1.865-1.99 2.627-.723.678-1.614 1.189-2.611 1.306-.679.086-1.336-.057-1.962-.317-.489-.21-.937-.544-1.342-.888-.601-.526-1.116-1.178-1.56-1.84-.74-1.137-1.293-2.35-1.759-3.622-.133-.371-.273-.733-.352-1.118"/><path fill="#000" d="M108.799 36.597c.17-.018.343-.01.514-.01q3.174.003 6.347.002c.335.004.672-.012 1.006.01-.173.303-.402.582-.618.859a19.5 19.5 0 0 1-2.092 2.225 18.7 18.7 0 0 1-3.467 2.47c-.509.261-1.018.525-1.542.754-1.59.68-3.291 1.167-5.011 1.358.253-.18.514-.346.752-.546 1.042-.844 1.852-2.035 2.492-3.201.211-.36.359-.748.55-1.118.317-.674.562-1.387.81-2.089.089-.233.129-.501.259-.715"/></g></g><defs><clipPath id="a"><path fill="#fff" d="M0 0h128v128H0z"/></clipPath><clipPath id="b"><rect width="52" height="52" x="76" fill="#fff" rx="26"/></clipPath></defs></svg>
