<svg width="128" height="128" viewBox="0 0 128 128" fill="none" xmlns="http://www.w3.org/2000/svg">
<g clip-path="url(#clip0_175_432)">
<path d="M64 128C99.346 128 128 99.346 128 64C128 28.654 99.346 0 64 0C28.654 0 0 28.654 0 64C0 99.346 28.654 128 64 128Z" fill="#2F63F9"/>
<path d="M91.3 25.24C93.433 26.817 95.374 28.558 97.28 30.4L98.009 31.09C102.995 35.914 106.696 42.384 108.8 48.96V49.92H107.52L107.19 49.05C105.47 44.621 103.532 40.704 100.8 36.8C95.283 36.337 95.283 36.337 88.98 36.44L82.471 36.437L77.44 36.48L78.72 41.6C79.312 44.371 79.535 47.092 79.68 49.92H78.4L78.073 47.874L77.64 45.18L77.213 42.514C76.879 40.4998 76.528 38.4884 76.16 36.48H53.12C51.837 43.184 51.837 43.184 50.88 49.92H49.6C49.681 45.457 50.66 41.165 51.52 36.8C47.7266 36.716 43.9333 36.6494 40.14 36.6L33.739 36.487L28.48 36.8C25.534 41.008 23.441 45.075 21.76 49.92H20.48C22.445 39.947 29.976 30.612 38.265 25.014C54.663 14.624 74.975 13.989 91.3 25.24Z" fill="#E6C040"/>
<path d="M21.76 80H23.04L23.521 80.985C24.736 83.447 25.987 85.857 27.409 88.206C27.84 88.96 27.84 88.96 28.16 89.92L51.52 89.6L49.92 81.28V80H51.2C51.86 83.302 52.49 86.611 53.12 89.92H76.16C76.6476 87.0144 77.1186 84.106 77.573 81.195L77.76 80H79.36C79.13 82.034 78.783 84.03 78.4 86.04L78.06 87.837C77.76 89.28 77.76 89.28 77.44 89.92C81.273 89.987 85.107 90.02 88.94 90.04L95.409 90.107L100.8 89.6C103.144 85.996 103.144 85.996 105.14 82.28L105.781 80.963L106.24 80H107.52C106.308 86.062 101.76 91.322 97.6 95.68L96.821 96.521C89.409 104.299 78.081 109.114 67.419 109.516C59.616 109.596 52.177 108.792 45.12 105.28L43.916 104.695C37.633 101.522 32.089 97.152 27.84 91.52L27.255 90.745C21.76 83.171 21.76 83.171 21.76 80Z" fill="#E4BF42"/>
<path d="M113.081 56.4C114.979 57.667 116.406 59.67 117.005 61.875C117.527 65.707 117.182 68.707 115.04 71.92C113.062 73.757 110.579 75.102 107.84 75.2L106.964 75.247C103.586 75.359 100.995 74.66 98.24 72.64C95.746 70.193 95.306 68.034 95.2 64.66C95.256 61.852 95.661 60.014 97.535 57.916C101.778 53.869 108.048 53.756 113.081 56.4Z" fill="#EFC537"/>
<path d="M54.72 55.04C60.8 55.04 60.8 55.04 62.413 56.353L63.56 58.12L64.803 59.969L65.92 61.76L66.877 63.181C68.8 66.053 68.8 66.053 68.8 66.88H69.44L69.281 65.731C69.082 63.594 69.09 61.487 69.101 59.341L69.109 56.899L69.12 55.04H74.88V74.88C68.8 74.88 68.8 74.88 67.456 73.954L66.66 72.7L65.764 71.371L64.96 70.08C64.4986 69.45 64.032 68.8233 63.56 68.2C62.49 66.719 61.496 65.204 60.48 63.68V74.88H54.72V55.04Z" fill="#ECC33A"/>
<path d="M35.52 55.04H53.12V60.16H40.96V62.4H52.48V67.52H40.96V69.76H53.12V74.88H35.52V55.04Z" fill="#EDC439"/>
<path d="M29.76 91.2H52.16C52.6767 92.5711 53.1847 93.9455 53.684 95.323C55.364 99.895 57.121 103.951 60.48 107.52V107.84C55.494 108.011 50.577 106.371 46.08 104.32L44.947 103.812C39.222 101.108 33.672 96.847 29.76 91.84V91.2Z" fill="#3264F6"/>
<path d="M13.1201 55.04H18.5601V62.4H27.8401V55.04H33.2801V74.88H27.8401V67.52H18.5601V74.88H13.1201V55.04Z" fill="#F0C536"/>
<path d="M82.051 91.169L88.34 91.18L94.631 91.189L99.52 91.2C95.63 98.978 85.281 103.868 77.44 106.56C74.586 107.42 71.77 107.711 68.8 107.84L69.64 106.76C72.83 102.48 74.824 97.711 76.427 92.643C77.363 89.824 77.57 91.197 82.051 91.169Z" fill="#3264F6"/>
<path d="M60.48 18.56L59.66 19.62C56.06 24.462 54.174 29.492 52.16 35.2H29.76C33.49 27.738 43.302 22.865 50.74 20.2C53.874 19.214 57.19 18.56 60.48 18.56ZM68.8 18.56C79.543 18.6 89.712 24.73 97.12 32.04C99.52 34.461 99.52 34.461 99.52 35.2H77.12C76.16 32.64 76.16 32.64 75.725 31.427C74.199 27.217 72.486 23.475 69.702 19.945C69.12 19.2 69.12 19.2 68.8 18.56Z" fill="#3164F7"/>
<path d="M65.5999 18.24C70.2479 20.347 72.4319 25.511 74.1879 29.974C75.5199 33.643 75.5199 33.643 75.5199 35.2H53.4399C55.1139 29.063 57.3889 22.47 62.7199 18.56C63.7529 18.044 64.4499 18.112 65.5999 18.24Z" fill="#3164F7"/>
<path d="M53.4399 91.2H75.5199C74.7259 96.76 72.0259 103.184 67.6829 106.927C66.2059 108.017 65.1729 108.402 63.3599 108.16C57.5119 104.505 55.2499 97.533 53.4399 91.2Z" fill="#3264F6"/>
<path d="M76.8 55.04H82.24V69.76H93.76V74.88H76.8V55.04Z" fill="#F0C536"/>
<path d="M105.84 60.08L107.195 60.055C108.542 60.165 109.284 60.369 110.4 61.12C111.787 62.831 111.552 64.786 111.36 66.88C110.973 68.062 110.703 68.565 109.732 69.317C108.486 69.909 107.475 69.91 106.1 69.92L104.681 69.95C103.127 69.726 102.523 69.271 101.44 68.16C100.935 67.15 101.027 66.16 101 65.04L100.953 63.685C101.153 62.145 101.624 61.553 102.72 60.48C103.729 59.975 104.721 60.092 105.84 60.08Z" fill="#3264F6"/>
<g clip-path="url(#clip1_175_432)">
<path d="M0 0H52V52H0V0ZM7.73195 20.0713C7.85484 20.0738 7.97773 20.0748 8.10063 20.0774C8.10316 20.1896 8.10621 20.3023 8.10875 20.4146C8.47945 19.3944 8.87656 18.3407 9.4057 17.39C9.73426 16.7588 10.1141 16.1596 10.5077 15.5675C12.9802 15.5604 15.4532 15.5685 17.9258 15.5639C18.0995 15.5645 18.2838 15.5548 18.4549 15.5827C18.4245 15.7798 18.3574 15.959 18.3051 16.1505C18.1299 16.8167 17.9649 17.488 17.8318 18.1639C17.7282 18.7794 17.5566 19.4177 17.5256 20.0418C17.683 20.0413 17.841 20.0408 17.9989 20.0398C18.1802 19.0181 18.3447 18.0045 18.6134 16.9995C18.723 16.5186 18.8729 16.0489 18.9927 15.5711C19.2126 15.565 19.4325 15.5634 19.6523 15.5645C23.8555 15.566 28.0587 15.5624 32.2618 15.566C32.6747 16.8167 32.9428 18.1513 33.1723 19.4467C33.2023 19.6579 33.2333 19.8682 33.2896 20.0743C33.4288 20.0728 33.5679 20.0738 33.7071 20.0743C33.7304 20.0489 33.7543 20.0241 33.7782 19.9992C33.6365 19.1202 33.4826 18.2447 33.2759 17.3784C33.1429 16.77 32.9646 16.1723 32.8169 15.5675C35.4666 15.5604 38.1164 15.569 40.7662 15.5634C41.7097 16.9056 42.4562 18.3909 43.0021 19.9367C43.1828 19.9697 43.3652 19.9839 43.549 19.9784C42.9741 18.2523 42.1418 16.6136 41.0861 15.1318C39.0736 12.2586 36.2395 9.98309 33.0109 8.61555C30.91 7.7218 28.6345 7.2277 26.3555 7.13324C25.8477 7.12867 25.3398 7.12867 24.832 7.13527C22.7855 7.23836 20.7589 7.64512 18.8454 8.38398C16.6755 9.22441 14.6651 10.463 12.9452 12.0306C10.7189 14.0425 8.99336 16.5923 7.93914 19.4015C7.8523 19.6198 7.77207 19.8382 7.73195 20.0713ZM2.22422 22.2132C2.48777 22.5905 2.82852 22.9186 3.07734 23.3035C3.04992 23.5066 2.9443 23.7037 2.87523 23.8961C2.14094 25.8111 1.40562 27.7255 0.670312 29.6395C3.66285 29.6502 6.6559 29.643 9.64844 29.6456C9.86223 29.6466 10.0755 29.6436 10.2893 29.639C10.6453 28.7127 10.9946 27.7845 11.3547 26.8597C11.5984 26.2417 11.8173 25.6151 12.0722 25.0016C10.2832 24.9869 8.49266 24.9991 6.70312 24.995C6.32988 24.9895 5.96629 25.0159 5.59457 24.9681C5.71137 24.6766 5.82816 24.3852 5.93734 24.0906C6.3116 24.0754 6.68383 24.0845 7.05859 24.0825C8.54801 24.082 10.0379 24.0825 11.5273 24.0825C11.8376 24.0795 12.1413 24.1023 12.45 24.052C12.6603 23.4325 12.9101 22.8246 13.1402 22.2117C9.92875 22.2011 6.71582 22.2102 3.50391 22.2071C3.07734 22.2092 2.65078 22.2021 2.22422 22.2132ZM13.6434 22.2122C13.907 22.5931 14.232 22.9308 14.5128 23.301C14.0568 24.4659 13.6129 25.6334 13.1564 26.7973C13.3915 26.8323 13.6266 26.8313 13.8633 26.8262C15.7788 26.8282 17.6937 26.8247 19.6092 26.8272C19.5305 27.1634 19.3695 27.4671 19.3014 27.8058C19.0805 27.8464 18.8602 27.8464 18.6367 27.8398C16.9274 27.8388 15.2176 27.8398 13.5078 27.8393C13.2549 27.8373 13.0025 27.8357 12.7496 27.8535C12.5633 28.4604 12.2982 29.0433 12.0829 29.641C15.2877 29.6405 18.4925 29.6461 21.6973 29.6385C21.9796 28.9021 22.2635 28.1668 22.5489 27.4315C22.8957 26.487 23.2756 25.5546 23.629 24.6127C23.8464 24.0322 24.0698 23.4538 24.2968 22.877C24.3872 22.6586 24.47 22.4382 24.5329 22.2097C21.4332 22.2021 18.3336 22.2087 15.2344 22.2061C14.7042 22.2082 14.1736 22.2005 13.6434 22.2122ZM25.092 22.2148C25.347 22.5413 25.6141 22.8587 25.872 23.1832C25.9629 23.2862 25.9365 23.3848 25.8984 23.5036C25.19 25.3322 24.4776 27.2055 23.7712 29.0393C23.691 29.2363 23.6204 29.4348 23.561 29.639C26.388 29.6451 29.216 29.6395 32.043 29.6415C32.4167 29.639 32.791 29.6486 33.1637 29.6339C33.7909 27.9769 34.4358 26.324 35.0639 24.667C35.3793 23.8489 35.7018 23.0329 36.0039 22.2102C32.5173 22.2036 29.0296 22.2092 25.543 22.2071C25.3927 22.2077 25.2423 22.2077 25.092 22.2148ZM36.5498 22.2132C36.8098 22.557 37.0906 22.8846 37.3638 23.2172C37.4496 23.3127 37.3745 23.4462 37.342 23.5488C37.1978 23.8921 37.0795 24.245 36.9403 24.5898C36.6128 25.4125 36.3142 26.2453 35.9856 27.0669C35.6616 27.9261 35.328 28.7803 35.002 29.6385C36.0471 29.6446 37.0921 29.643 38.1372 29.6395C38.61 28.3842 39.0965 27.135 39.5743 25.8817C39.8008 25.2698 40.0568 24.667 40.2695 24.0505C40.9475 24.0226 41.6284 24.0444 42.3069 24.0388C42.2241 24.41 42.0565 24.764 41.9235 25.1205C41.4126 26.4464 40.9053 27.7748 40.396 29.1012C40.3244 29.2784 40.2624 29.4572 40.2121 29.6415C41.2491 29.64 42.2866 29.6476 43.3235 29.637C43.7638 28.473 44.2244 27.2995 44.6601 26.1396C44.945 25.4439 45.1872 24.731 45.4766 24.0373C46.1617 24.0404 46.8467 24.0332 47.5318 24.0409C46.8284 25.9091 46.0977 27.7728 45.3934 29.641C46.1063 29.6425 46.8188 29.6405 47.5312 29.642C47.87 29.6395 48.2041 29.6512 48.5428 29.6293C48.717 29.0707 48.9572 28.5314 49.1568 27.9815C49.8586 26.1767 50.5416 24.3613 51.2449 22.5575C51.286 22.4433 51.3155 22.326 51.3439 22.2082C46.7893 22.2061 42.2343 22.2082 37.6797 22.2071C37.3029 22.2092 36.9261 22.2026 36.5498 22.2132ZM43.6729 31.7038C43.4779 31.7007 43.2966 31.7164 43.1077 31.7647C42.9665 32.2893 42.7461 32.7961 42.5379 33.2973C42.1525 34.1941 41.6939 35.0614 41.1673 35.8841C41.0678 36.0527 40.9734 36.2162 40.821 36.3431C40.8124 36.2553 40.8043 36.1674 40.7987 36.0791C38.1728 36.0755 35.5464 36.0816 32.921 36.0755C33.2262 34.9532 33.4816 33.8203 33.6736 32.6732C33.7309 32.3339 33.799 31.9998 33.8046 31.6545C33.6461 31.654 33.4877 31.6525 33.3293 31.6514C33.2323 32.0805 33.2038 32.5193 33.1084 32.9489C32.9682 33.6827 32.8321 34.4307 32.6391 35.1533C32.5533 35.4656 32.4944 35.7769 32.3812 36.0811C27.883 36.0735 23.3838 36.0821 18.885 36.0765C18.723 35.4996 18.5829 34.9162 18.4422 34.3337C18.2477 33.445 18.0908 32.5498 17.9532 31.6509C17.7953 31.652 17.6368 31.6525 17.4784 31.653C17.4743 32.0318 17.5607 32.3908 17.6201 32.762C17.8191 33.8797 18.0487 34.9847 18.3615 36.0765C15.7645 36.0786 13.1676 36.0796 10.5706 36.0765C10.5513 36.2192 10.5447 36.3624 10.5315 36.5056C9.98918 35.7216 9.51082 34.8964 9.08781 34.0422C8.71508 33.2668 8.40125 32.4675 8.12449 31.653C7.95895 31.6525 7.79086 31.6454 7.62531 31.6591C7.64715 31.8216 7.70605 31.9846 7.75988 32.1395C8.55258 34.4896 9.84293 36.6757 11.4801 38.5364C11.9118 39.0036 12.3312 39.4738 12.8096 39.8953C14.5316 41.4903 16.5496 42.7619 18.7352 43.6196C20.5552 44.332 22.4905 44.7591 24.4405 44.8886C25.1098 44.9368 25.7862 44.913 26.457 44.9114C27.7636 44.8459 29.0687 44.6596 30.3362 44.3325C33.2333 43.6069 35.9506 42.1429 38.1855 40.1659C38.6313 39.7445 39.0914 39.3484 39.4926 38.8812C41.3999 36.8387 42.834 34.3693 43.6729 31.7038Z" fill="black" stroke="black" stroke-width="17.7778"/>
<path d="M24.832 7.13524C25.3398 7.12864 25.8476 7.12864 26.3554 7.13321C28.6345 7.22767 30.91 7.72177 33.0108 8.61552C36.2395 9.98306 39.0736 12.2586 41.0861 15.1318C42.1418 16.6136 42.9741 18.2523 43.549 19.9783C43.3651 19.9839 43.1828 19.9697 43.002 19.9367C42.4562 18.3909 41.7097 16.9056 40.7662 15.5634C38.1164 15.569 35.4666 15.5604 32.8169 15.5675C32.9646 16.1723 33.1429 16.77 33.2759 17.3783C33.4826 18.2447 33.6365 19.1201 33.7781 19.9992C33.7543 20.024 33.7304 20.0489 33.7071 20.0743C33.5679 20.0738 33.4288 20.0728 33.2896 20.0743C33.2333 19.8681 33.2023 19.6579 33.1723 19.4467C32.9428 18.1512 32.6747 16.8167 32.2618 15.5659C28.0587 15.5624 23.8555 15.5659 19.6523 15.5644C19.4324 15.5634 19.2126 15.5649 18.9927 15.571C18.8728 16.0489 18.723 16.5186 18.6133 16.9995C18.3447 18.0045 18.1802 19.0181 17.9989 20.0398C17.841 20.0408 17.683 20.0413 17.5256 20.0418C17.5566 19.4177 17.7282 18.7794 17.8318 18.1639C17.9649 17.488 18.1299 16.8167 18.3051 16.1504C18.3574 15.959 18.4244 15.7797 18.4549 15.5827C18.2838 15.5548 18.0994 15.5644 17.9258 15.5639C15.4532 15.5685 12.9802 15.5604 10.5076 15.5675C10.1141 16.1596 9.73424 16.7588 9.40568 17.39C8.87654 18.3406 8.47943 19.3943 8.10873 20.4145C8.10619 20.3023 8.10315 20.1896 8.10061 20.0774C7.97772 20.0748 7.85482 20.0738 7.73193 20.0713C7.77205 19.8382 7.85229 19.6198 7.93912 19.4015C8.99334 16.5922 10.7189 14.0425 12.9451 12.0306C14.6651 10.4629 16.6755 9.22439 18.8454 8.38396C20.7588 7.64509 22.7855 7.23833 24.832 7.13524ZM19.1892 15.0597C23.4904 15.0647 27.792 15.0642 32.0932 15.0602C32.049 14.8332 31.9739 14.6168 31.8881 14.4025C31.3356 12.8659 30.6084 11.3064 29.6049 10.0095C28.989 9.22286 28.2897 8.52614 27.3899 8.07013C26.974 7.8538 26.5139 7.72075 26.0523 7.64661C25.6623 7.62681 25.2403 7.6131 24.8615 7.7172C24.1074 7.88122 23.4183 8.28036 22.8368 8.77954C22.005 9.47474 21.3352 10.4071 20.7837 11.3338C20.2211 12.3134 19.7666 13.3468 19.3867 14.4092C19.3029 14.6214 19.2293 14.8342 19.1892 15.0597ZM22.849 7.84466C22.2523 7.94673 21.6602 8.04474 21.0747 8.20368C20.2749 8.41696 19.4832 8.67036 18.7169 8.98419C15.8077 10.1633 13.2229 12.1042 11.2678 14.5584C11.1353 14.7118 11.0139 14.8621 10.9454 15.0566C13.0685 15.0718 15.1932 15.0586 17.3164 15.0632C17.7572 15.0602 18.1985 15.0703 18.6387 15.0546C18.9155 14.1644 19.2461 13.2813 19.6467 12.4393C20.0606 11.5136 20.5765 10.6315 21.1783 9.81446C21.5617 9.3031 22.001 8.83642 22.4778 8.41087C22.721 8.19099 23.0115 8.04017 23.236 7.80302C23.1065 7.81114 22.9775 7.82689 22.849 7.84466ZM28.0165 7.83196C28.0912 7.88325 28.1663 7.93505 28.2415 7.98634C28.9742 8.484 29.6095 9.15837 30.1371 9.86677C31.2701 11.4034 32.0653 13.2483 32.6457 15.0586C34.6958 15.0688 36.7468 15.0602 38.7969 15.0627C39.3245 15.0612 39.8521 15.0683 40.3797 15.0551C40.0374 14.5112 39.5845 14.0318 39.1569 13.5545C38.7176 13.0472 38.223 12.6018 37.7152 12.1504C36.7788 11.3283 35.7535 10.6204 34.677 9.99524C32.9966 9.06341 31.1888 8.37431 29.3038 7.99497C28.8701 7.92337 28.4603 7.81267 28.0165 7.83196Z" fill="black" stroke="#F3C733" stroke-width="17.7778"/>
<path d="M26.0523 7.64663C26.5139 7.72077 26.974 7.85382 27.3899 8.07015C28.2897 8.52617 28.989 9.22288 29.605 10.0095C30.6084 11.3064 31.3356 12.8659 31.8881 14.4026C31.9739 14.6169 32.0491 14.8332 32.0932 15.0602C27.7921 15.0643 23.4904 15.0648 19.1892 15.0597C19.2293 14.8342 19.303 14.6214 19.3867 14.4092C19.7666 13.3468 20.2211 12.3134 20.7837 11.3339C21.3352 10.4071 22.005 9.47476 22.8368 8.77956C23.4183 8.28038 24.1074 7.88124 24.8615 7.71722C25.2403 7.61312 25.6623 7.62683 26.0523 7.64663Z" fill="black" stroke="black" stroke-width="17.7778"/>
<path d="M23.2359 7.80304C23.0114 8.04019 22.721 8.19101 22.4777 8.41089C22.0009 8.83644 21.5616 9.30312 21.1782 9.81448C20.5765 10.6316 20.0605 11.5136 19.6467 12.4394C19.246 13.2813 18.9154 14.1644 18.6387 15.0546C18.1984 15.0703 17.7571 15.0602 17.3163 15.0632C15.1932 15.0587 13.0685 15.0719 10.9453 15.0566C11.0139 14.8621 11.1352 14.7118 11.2678 14.5585C13.2229 12.1042 15.8076 10.1634 18.7169 8.98421C19.4832 8.67038 20.2748 8.41698 21.0746 8.2037C21.6602 8.04476 22.2523 7.94675 22.8489 7.84468C22.9774 7.82691 23.1064 7.81116 23.2359 7.80304Z" fill="black" stroke="black" stroke-width="17.7778"/>
<path d="M28.0166 7.832C28.4604 7.8127 28.8702 7.9234 29.3039 7.995C31.1889 8.37434 32.9967 9.06344 34.6771 9.99528C35.7536 10.6204 36.7789 11.3283 37.7153 12.1504C38.2231 12.6019 38.7177 13.0472 39.157 13.5545C39.5846 14.0319 40.0375 14.5113 40.3798 15.0551C39.8522 15.0683 39.3246 15.0612 38.797 15.0627C36.7469 15.0602 34.6959 15.0688 32.6458 15.0587C32.0654 13.2483 31.2702 11.4034 30.1372 9.8668C29.6096 9.1584 28.9743 8.48403 28.2416 7.98637C28.1664 7.93508 28.0913 7.88328 28.0166 7.832Z" fill="black" stroke="black" stroke-width="17.7778"/>
<path d="M2.22432 22.2132C2.65088 22.202 3.07744 22.2092 3.504 22.2071C6.71592 22.2102 9.92885 22.201 13.1403 22.2117C12.9102 22.8246 12.6604 23.4325 12.4501 24.052C12.1414 24.1023 11.8377 24.0794 11.5274 24.0825C10.038 24.0825 8.54811 24.082 7.05869 24.0825C6.68393 24.0845 6.3117 24.0754 5.93744 24.0906C5.82826 24.3851 5.71146 24.6766 5.59467 24.9681C5.96639 25.0158 6.32998 24.9894 6.70322 24.995C8.49275 24.9991 10.2833 24.9869 12.0723 25.0016C11.8174 25.6151 11.5985 26.2417 11.3548 26.8597C10.9947 27.7844 10.6454 28.7127 10.2894 29.639C10.0756 29.6435 9.86232 29.6466 9.64854 29.6456C6.656 29.643 3.66295 29.6501 0.67041 29.6395C1.40572 27.7255 2.14104 25.8111 2.87533 23.8961C2.94439 23.7037 3.05002 23.5066 3.07744 23.3035C2.82861 22.9186 2.48787 22.5905 2.22432 22.2132ZM4.51354 27.8301C5.46314 27.8545 6.41377 27.8301 7.36338 27.8428C7.53705 27.8469 7.70361 27.8347 7.87475 27.8058C7.96666 27.4706 8.09818 27.1578 8.21752 26.8318C7.22221 26.8165 6.22588 26.8333 5.23057 26.8242C5.11529 26.8242 4.99545 26.8211 4.8817 26.8389C4.7324 27.1532 4.61662 27.497 4.51354 27.8301Z" fill="black" stroke="#F3C733" stroke-width="17.7778"/>
<path d="M13.6435 22.2123C14.1737 22.2006 14.7043 22.2082 15.2345 22.2062C18.3337 22.2087 21.4334 22.2021 24.533 22.2097C24.4701 22.4382 24.3873 22.6586 24.2969 22.877C24.0699 23.4539 23.8465 24.0323 23.6291 24.6127C23.2757 25.5547 22.8959 26.487 22.549 27.4315C22.2636 28.1669 21.9798 28.9022 21.6974 29.6385C18.4926 29.6461 15.2878 29.6405 12.083 29.641C12.2983 29.0433 12.5634 28.4604 12.7498 27.8535C13.0027 27.8358 13.255 27.8373 13.5079 27.8393C15.2177 27.8398 16.9275 27.8388 18.6368 27.8398C18.8603 27.8464 19.0807 27.8464 19.3016 27.8058C19.3696 27.4671 19.5306 27.1634 19.6093 26.8273C17.6938 26.8247 15.7789 26.8283 13.8634 26.8262C13.6268 26.8313 13.3916 26.8323 13.1565 26.7973C13.613 25.6334 14.0569 24.4659 14.5129 23.301C14.2321 22.9308 13.9071 22.5931 13.6435 22.2123ZM17.0103 24.9676C17.2642 25.0012 17.5181 24.9991 17.7736 24.9946C18.417 24.9961 19.0598 24.9935 19.7032 24.9951C19.9257 25.0017 20.1461 24.9981 20.3664 24.9636C20.4711 24.6685 20.5868 24.3781 20.7067 24.0886C19.7124 24.0739 18.7171 24.0891 17.7228 24.0805C17.6019 24.0815 17.4755 24.0754 17.3561 24.0978C17.22 24.3765 17.1307 24.6812 17.0103 24.9676Z" fill="black" stroke="#F3C733" stroke-width="17.7778"/>
<path d="M25.543 22.2071C29.0297 22.2092 32.5173 22.2036 36.004 22.2102C35.7018 23.0328 35.3794 23.8489 35.064 24.667C34.4358 26.324 33.7909 27.9769 33.1638 29.6339C32.791 29.6486 32.4168 29.639 32.043 29.6415C29.216 29.6395 26.388 29.6451 23.561 29.639C23.6204 29.4348 23.691 29.2363 23.7713 29.0392C24.4776 27.2055 25.1901 25.3322 25.8985 23.5036C25.9366 23.3848 25.963 23.2862 25.8721 23.1832C25.6141 22.8587 25.347 22.5413 25.0921 22.2148C25.2424 22.2076 25.3927 22.2076 25.543 22.2071ZM28.8169 24.0906C28.3289 25.3271 27.8597 26.5764 27.3767 27.8154C27.6281 27.8469 27.88 27.8428 28.1329 27.8393C28.759 27.8413 29.3856 27.8383 30.0118 27.8398C30.252 27.8449 30.4917 27.8444 30.7308 27.8169C31.1437 26.7348 31.553 25.6526 31.978 24.5751C32.0435 24.4156 32.0953 24.2516 32.1441 24.0866C31.1965 24.0764 30.2484 24.0871 29.3008 24.0815C29.1399 24.081 28.9774 24.0789 28.8169 24.0906Z" fill="black" stroke="#F3C733" stroke-width="17.7778"/>
<path d="M36.5498 22.2133C36.9261 22.2026 37.3029 22.2092 37.6796 22.2072C42.2342 22.2082 46.7893 22.2061 51.3439 22.2082C51.3154 22.326 51.286 22.4433 51.2448 22.5576C50.5415 24.3613 49.8585 26.1767 49.1567 27.9815C48.9571 28.5315 48.717 29.0708 48.5428 29.6293C48.2041 29.6512 47.8699 29.6395 47.5312 29.642C46.8187 29.6405 46.1063 29.6426 45.3933 29.641C46.0977 27.7728 46.8284 25.9091 47.5317 24.0409C46.8467 24.0333 46.1616 24.0404 45.4766 24.0373C45.1871 24.731 44.9449 25.444 44.66 26.1397C44.2243 27.2995 43.7638 28.4731 43.3235 29.637C42.2865 29.6476 41.2491 29.64 40.2121 29.6415C40.2624 29.4572 40.3243 29.2785 40.3959 29.1012C40.9053 27.7748 41.4126 26.4464 41.9234 25.1205C42.0565 24.764 42.2241 24.4101 42.3068 24.0388C41.6284 24.0444 40.9474 24.0226 40.2695 24.0505C40.0567 24.667 39.8008 25.2698 39.5743 25.8817C39.0964 27.135 38.61 28.3842 38.1372 29.6395C37.0921 29.6431 36.047 29.6446 35.002 29.6385C35.328 28.7803 35.6616 27.9261 35.9856 27.0669C36.3141 26.2453 36.6127 25.4125 36.9403 24.5898C37.0794 24.245 37.1977 23.8921 37.342 23.5488C37.3745 23.4462 37.4496 23.3127 37.3638 23.2172C37.0906 22.8846 36.8098 22.557 36.5498 22.2133Z" fill="black" stroke="#F3C733" stroke-width="17.7778"/>
<path d="M17.3561 24.0978C17.4754 24.0754 17.6019 24.0815 17.7227 24.0805C18.717 24.0891 19.7123 24.0739 20.7066 24.0886C20.5868 24.3781 20.471 24.6685 20.3664 24.9636C20.146 24.9981 19.9256 25.0017 19.7032 24.9951C19.0598 24.9935 18.4169 24.9961 17.7735 24.9946C17.5181 24.9991 17.2642 25.0012 17.0103 24.9676C17.1306 24.6812 17.22 24.3765 17.3561 24.0978Z" fill="black" stroke="black" stroke-width="17.7778"/>
<path d="M29.3008 24.0815C30.2484 24.0871 31.1965 24.0764 32.1441 24.0866C32.0953 24.2516 32.0435 24.4157 31.978 24.5751C31.553 25.6527 31.1437 26.7348 30.7308 27.817C30.4916 27.8444 30.2519 27.8449 30.0117 27.8398C29.3856 27.8383 28.759 27.8414 28.1328 27.8393C27.88 27.8429 27.6281 27.8469 27.3767 27.8155C27.8596 26.5764 28.3289 25.3272 28.8169 24.0907C28.9773 24.079 29.1398 24.081 29.3008 24.0815Z" fill="black" stroke="black" stroke-width="17.7778"/>
<path d="M4.88159 26.8389C4.99534 26.8211 5.11519 26.8242 5.23046 26.8242C6.22577 26.8333 7.2221 26.8166 8.21741 26.8318C8.09808 27.1578 7.96655 27.4706 7.87464 27.8058C7.70351 27.8347 7.53694 27.8469 7.36327 27.8428C6.41366 27.8301 5.46304 27.8545 4.51343 27.8301C4.61651 27.497 4.73229 27.1532 4.88159 26.8389Z" fill="black" stroke="black" stroke-width="17.7778"/>
<path d="M7.62524 31.6591C7.79079 31.6453 7.95888 31.6524 8.12442 31.653C8.40118 32.4675 8.71501 33.2668 9.08774 34.0422C9.51075 34.8964 9.98911 35.7216 10.5315 36.5056C10.5447 36.3624 10.5513 36.2192 10.5706 36.0765C13.1675 36.0796 15.7645 36.0785 18.3614 36.0765C18.0486 34.9847 17.8191 33.8797 17.62 32.762C17.5606 32.3908 17.4743 32.0318 17.4783 31.653C17.6368 31.6524 17.7952 31.6519 17.9531 31.6509C18.0908 32.5498 18.2477 33.445 18.4422 34.3337C18.5828 34.9162 18.723 35.4996 18.885 36.0765C23.3837 36.0821 27.8829 36.0735 32.3811 36.0811C32.4943 35.7769 32.5533 35.4656 32.6391 35.1533C32.832 34.4307 32.9681 33.6827 33.1083 32.9489C33.2038 32.5193 33.2322 32.0805 33.3292 31.6514C33.4876 31.6524 33.6461 31.654 33.8045 31.6545C33.7989 31.9998 33.7309 32.3339 33.6735 32.6732C33.4815 33.8203 33.2261 34.9532 32.9209 36.0755C35.5463 36.0816 38.1727 36.0755 40.7986 36.079C40.8042 36.1674 40.8123 36.2553 40.8209 36.3431C40.9733 36.2162 41.0677 36.0526 41.1673 35.8841C41.6939 35.0614 42.1524 34.1941 42.5379 33.2973C42.7461 32.796 42.9665 32.2892 43.1076 31.7647C43.2965 31.7164 43.4778 31.7007 43.6728 31.7037C42.8339 34.3692 41.3999 36.8387 39.4925 38.8812C39.0913 39.3483 38.6313 39.7444 38.1854 40.1659C35.9505 42.1428 33.2332 43.6069 30.3361 44.3325C29.0686 44.6596 27.7636 44.8459 26.457 44.9114C25.7861 44.913 25.1097 44.9368 24.4404 44.8886C22.4904 44.7591 20.5552 44.332 18.7352 43.6196C16.5495 42.7619 14.5315 41.4903 12.8095 39.8953C12.3311 39.4738 11.9117 39.0035 11.48 38.5364C9.84286 36.6757 8.55251 34.4896 7.75981 32.1394C7.70599 31.9846 7.64708 31.8216 7.62524 31.6591ZM10.6112 36.593C10.8209 36.9378 11.0809 37.2546 11.3333 37.569C12.5084 39.0264 13.9084 40.3107 15.4699 41.344C17.4052 42.638 19.5893 43.5475 21.8663 44.0278C22.3579 44.1223 22.8545 44.2239 23.3547 44.2604C22.4945 43.7409 21.7952 43.0371 21.1945 42.2378C19.9448 40.5854 19.113 38.5541 18.5072 36.5853C16.1468 36.5833 13.786 36.5853 11.4257 36.5843C11.154 36.5828 10.8829 36.5808 10.6112 36.593ZM19.0531 36.5899C19.1236 36.9017 19.2349 37.1988 19.342 37.4994C19.9676 39.2849 20.8421 41.115 22.0984 42.546C22.8027 43.3215 23.7041 44.0324 24.7375 44.2894C25.7887 44.5768 26.8927 44.3142 27.7956 43.7364C28.5507 43.2514 29.1758 42.6131 29.7065 41.8935C30.1838 41.2785 30.556 40.6047 30.9201 39.9186C31.4472 38.8436 31.8936 37.7396 32.2313 36.5899C31.9657 36.5833 31.6996 36.5833 31.4335 36.5843C27.659 36.5843 23.8839 36.5843 20.1093 36.5843C19.7569 36.5853 19.405 36.5813 19.0531 36.5899ZM32.7564 36.599C32.4938 37.5268 32.1465 38.4333 31.7656 39.3189C31.1187 40.7596 30.293 42.1748 29.1672 43.2966C28.8198 43.6521 28.4171 43.9212 28.022 44.2178C28.3394 44.2233 28.6395 44.1848 28.9488 44.1182C32.3131 43.5134 35.4838 41.9367 38.0097 39.6353C38.2915 39.3555 38.5952 39.1051 38.8593 38.8085C39.0741 38.5678 39.3092 38.3495 39.5149 38.1012C39.9201 37.6177 40.338 37.1282 40.6747 36.593C40.5736 36.5899 40.4721 36.5874 40.371 36.5858C38.1026 36.5853 35.8347 36.5833 33.5663 36.5848C33.2972 36.5858 33.024 36.5742 32.7564 36.599Z" fill="black" stroke="#F3C733" stroke-width="17.7778"/>
<path d="M11.4259 36.5843C13.7862 36.5854 16.147 36.5833 18.5073 36.5854C19.1131 38.5542 19.9449 40.5854 21.1946 42.2378C21.7954 43.0371 22.4946 43.741 23.3549 44.2604C22.8547 44.2239 22.358 44.1223 21.8665 44.0279C19.5895 43.5475 17.4054 42.638 15.4701 41.3441C13.9086 40.3107 12.5085 39.0264 11.3334 37.569C11.0811 37.2547 10.8211 36.9378 10.6113 36.593C10.883 36.5808 11.1542 36.5828 11.4259 36.5843Z" fill="black" stroke="black" stroke-width="17.7778"/>
<path d="M32.2315 36.5899C31.8938 37.7396 31.4474 38.8436 30.9203 39.9186C30.5562 40.6047 30.184 41.2785 29.7066 41.8935C29.176 42.6131 28.5508 43.2514 27.7957 43.7364C26.8928 44.3142 25.7888 44.5768 24.7377 44.2894C23.7043 44.0324 22.8029 43.3215 22.0986 42.546C20.8422 41.115 19.9678 39.2849 19.3422 37.4994C19.235 37.1988 19.1238 36.9017 19.0532 36.5899C19.4051 36.5813 19.7571 36.5853 20.1095 36.5843C23.884 36.5843 27.6591 36.5843 31.4337 36.5843C31.6998 36.5833 31.9659 36.5833 32.2315 36.5899Z" fill="black" stroke="black" stroke-width="17.7778"/>
<path d="M33.5665 36.5848C35.8349 36.5833 38.1028 36.5854 40.3712 36.5859C40.4723 36.5874 40.5738 36.5899 40.6749 36.593C40.3382 37.1282 39.9203 37.6177 39.515 38.1012C39.3094 38.3495 39.0742 38.5679 38.8594 38.8086C38.5954 39.1051 38.2917 39.3555 38.0099 39.6353C35.484 41.9367 32.3132 43.5134 28.949 44.1182C28.6397 44.1848 28.3396 44.2234 28.0222 44.2178C28.4173 43.9212 28.82 43.6521 29.1673 43.2966C30.2932 42.1748 31.1189 40.7596 31.7658 39.3189C32.1467 38.4333 32.494 37.5268 32.7566 36.5991C33.0242 36.5742 33.2974 36.5859 33.5665 36.5848Z" fill="black" stroke="black" stroke-width="17.7778"/>
<path d="M0 0H52V52H0V0ZM7.73195 20.0713C7.85484 20.0738 7.97773 20.0748 8.10063 20.0774C8.10316 20.1896 8.10621 20.3023 8.10875 20.4146C8.47945 19.3944 8.87656 18.3407 9.4057 17.39C9.73426 16.7588 10.1141 16.1596 10.5077 15.5675C12.9802 15.5604 15.4532 15.5685 17.9258 15.5639C18.0995 15.5645 18.2838 15.5548 18.4549 15.5827C18.4245 15.7798 18.3574 15.959 18.3051 16.1505C18.1299 16.8167 17.9649 17.488 17.8318 18.1639C17.7282 18.7794 17.5566 19.4177 17.5256 20.0418C17.683 20.0413 17.841 20.0408 17.9989 20.0398C18.1802 19.0181 18.3447 18.0045 18.6134 16.9995C18.723 16.5186 18.8729 16.0489 18.9927 15.5711C19.2126 15.565 19.4325 15.5634 19.6523 15.5645C23.8555 15.566 28.0587 15.5624 32.2618 15.566C32.6747 16.8167 32.9428 18.1513 33.1723 19.4467C33.2023 19.6579 33.2333 19.8682 33.2896 20.0743C33.4288 20.0728 33.5679 20.0738 33.7071 20.0743C33.7304 20.0489 33.7543 20.0241 33.7782 19.9992C33.6365 19.1202 33.4826 18.2447 33.2759 17.3784C33.1429 16.77 32.9646 16.1723 32.8169 15.5675C35.4666 15.5604 38.1164 15.569 40.7662 15.5634C41.7097 16.9056 42.4562 18.3909 43.0021 19.9367C43.1828 19.9697 43.3652 19.9839 43.549 19.9784C42.9741 18.2523 42.1418 16.6136 41.0861 15.1318C39.0736 12.2586 36.2395 9.98309 33.0109 8.61555C30.91 7.7218 28.6345 7.2277 26.3555 7.13324C25.8477 7.12867 25.3398 7.12867 24.832 7.13527C22.7855 7.23836 20.7589 7.64512 18.8454 8.38398C16.6755 9.22441 14.6651 10.463 12.9452 12.0306C10.7189 14.0425 8.99336 16.5923 7.93914 19.4015C7.8523 19.6198 7.77207 19.8382 7.73195 20.0713ZM2.22422 22.2132C2.48777 22.5905 2.82852 22.9186 3.07734 23.3035C3.04992 23.5066 2.9443 23.7037 2.87523 23.8961C2.14094 25.8111 1.40562 27.7255 0.670312 29.6395C3.66285 29.6502 6.6559 29.643 9.64844 29.6456C9.86223 29.6466 10.0755 29.6436 10.2893 29.639C10.6453 28.7127 10.9946 27.7845 11.3547 26.8597C11.5984 26.2417 11.8173 25.6151 12.0722 25.0016C10.2832 24.9869 8.49266 24.9991 6.70312 24.995C6.32988 24.9895 5.96629 25.0159 5.59457 24.9681C5.71137 24.6766 5.82816 24.3852 5.93734 24.0906C6.3116 24.0754 6.68383 24.0845 7.05859 24.0825C8.54801 24.082 10.0379 24.0825 11.5273 24.0825C11.8376 24.0795 12.1413 24.1023 12.45 24.052C12.6603 23.4325 12.9101 22.8246 13.1402 22.2117C9.92875 22.2011 6.71582 22.2102 3.50391 22.2071C3.07734 22.2092 2.65078 22.2021 2.22422 22.2132ZM13.6434 22.2122C13.907 22.5931 14.232 22.9308 14.5128 23.301C14.0568 24.4659 13.6129 25.6334 13.1564 26.7973C13.3915 26.8323 13.6266 26.8313 13.8633 26.8262C15.7788 26.8282 17.6937 26.8247 19.6092 26.8272C19.5305 27.1634 19.3695 27.4671 19.3014 27.8058C19.0805 27.8464 18.8602 27.8464 18.6367 27.8398C16.9274 27.8388 15.2176 27.8398 13.5078 27.8393C13.2549 27.8373 13.0025 27.8357 12.7496 27.8535C12.5633 28.4604 12.2982 29.0433 12.0829 29.641C15.2877 29.6405 18.4925 29.6461 21.6973 29.6385C21.9796 28.9021 22.2635 28.1668 22.5489 27.4315C22.8957 26.487 23.2756 25.5546 23.629 24.6127C23.8464 24.0322 24.0698 23.4538 24.2968 22.877C24.3872 22.6586 24.47 22.4382 24.5329 22.2097C21.4332 22.2021 18.3336 22.2087 15.2344 22.2061C14.7042 22.2082 14.1736 22.2005 13.6434 22.2122ZM25.092 22.2148C25.347 22.5413 25.6141 22.8587 25.872 23.1832C25.9629 23.2862 25.9365 23.3848 25.8984 23.5036C25.19 25.3322 24.4776 27.2055 23.7712 29.0393C23.691 29.2363 23.6204 29.4348 23.561 29.639C26.388 29.6451 29.216 29.6395 32.043 29.6415C32.4167 29.639 32.791 29.6486 33.1637 29.6339C33.7909 27.9769 34.4358 26.324 35.0639 24.667C35.3793 23.8489 35.7018 23.0329 36.0039 22.2102C32.5173 22.2036 29.0296 22.2092 25.543 22.2071C25.3927 22.2077 25.2423 22.2077 25.092 22.2148ZM36.5498 22.2132C36.8098 22.557 37.0906 22.8846 37.3638 23.2172C37.4496 23.3127 37.3745 23.4462 37.342 23.5488C37.1978 23.8921 37.0795 24.245 36.9403 24.5898C36.6128 25.4125 36.3142 26.2453 35.9856 27.0669C35.6616 27.9261 35.328 28.7803 35.002 29.6385C36.0471 29.6446 37.0921 29.643 38.1372 29.6395C38.61 28.3842 39.0965 27.135 39.5743 25.8817C39.8008 25.2698 40.0568 24.667 40.2695 24.0505C40.9475 24.0226 41.6284 24.0444 42.3069 24.0388C42.2241 24.41 42.0565 24.764 41.9235 25.1205C41.4126 26.4464 40.9053 27.7748 40.396 29.1012C40.3244 29.2784 40.2624 29.4572 40.2121 29.6415C41.2491 29.64 42.2866 29.6476 43.3235 29.637C43.7638 28.473 44.2244 27.2995 44.6601 26.1396C44.945 25.4439 45.1872 24.731 45.4766 24.0373C46.1617 24.0404 46.8467 24.0332 47.5318 24.0409C46.8284 25.9091 46.0977 27.7728 45.3934 29.641C46.1063 29.6425 46.8188 29.6405 47.5312 29.642C47.87 29.6395 48.2041 29.6512 48.5428 29.6293C48.717 29.0707 48.9572 28.5314 49.1568 27.9815C49.8586 26.1767 50.5416 24.3613 51.2449 22.5575C51.286 22.4433 51.3155 22.326 51.3439 22.2082C46.7893 22.2061 42.2343 22.2082 37.6797 22.2071C37.3029 22.2092 36.9261 22.2026 36.5498 22.2132ZM43.6729 31.7038C43.4779 31.7007 43.2966 31.7164 43.1077 31.7647C42.9665 32.2893 42.7461 32.7961 42.5379 33.2973C42.1525 34.1941 41.6939 35.0614 41.1673 35.8841C41.0678 36.0527 40.9734 36.2162 40.821 36.3431C40.8124 36.2553 40.8043 36.1674 40.7987 36.0791C38.1728 36.0755 35.5464 36.0816 32.921 36.0755C33.2262 34.9532 33.4816 33.8203 33.6736 32.6732C33.7309 32.3339 33.799 31.9998 33.8046 31.6545C33.6461 31.654 33.4877 31.6525 33.3293 31.6514C33.2323 32.0805 33.2038 32.5193 33.1084 32.9489C32.9682 33.6827 32.8321 34.4307 32.6391 35.1533C32.5533 35.4656 32.4944 35.7769 32.3812 36.0811C27.883 36.0735 23.3838 36.0821 18.885 36.0765C18.723 35.4996 18.5829 34.9162 18.4422 34.3337C18.2477 33.445 18.0908 32.5498 17.9532 31.6509C17.7953 31.652 17.6368 31.6525 17.4784 31.653C17.4743 32.0318 17.5607 32.3908 17.6201 32.762C17.8191 33.8797 18.0487 34.9847 18.3615 36.0765C15.7645 36.0786 13.1676 36.0796 10.5706 36.0765C10.5513 36.2192 10.5447 36.3624 10.5315 36.5056C9.98918 35.7216 9.51082 34.8964 9.08781 34.0422C8.71508 33.2668 8.40125 32.4675 8.12449 31.653C7.95895 31.6525 7.79086 31.6454 7.62531 31.6591C7.64715 31.8216 7.70605 31.9846 7.75988 32.1395C8.55258 34.4896 9.84293 36.6757 11.4801 38.5364C11.9118 39.0036 12.3312 39.4738 12.8096 39.8953C14.5316 41.4903 16.5496 42.7619 18.7352 43.6196C20.5552 44.332 22.4905 44.7591 24.4405 44.8886C25.1098 44.9368 25.7862 44.913 26.457 44.9114C27.7636 44.8459 29.0687 44.6596 30.3362 44.3325C33.2333 43.6069 35.9506 42.1429 38.1855 40.1659C38.6313 39.7445 39.0914 39.3484 39.4926 38.8812C41.3999 36.8387 42.834 34.3693 43.6729 31.7038Z" fill="black"/>
<path d="M24.832 7.13524C25.3398 7.12864 25.8476 7.12864 26.3554 7.13321C28.6345 7.22767 30.91 7.72177 33.0108 8.61552C36.2395 9.98306 39.0736 12.2586 41.0861 15.1318C42.1418 16.6136 42.9741 18.2523 43.549 19.9783C43.3651 19.9839 43.1828 19.9697 43.002 19.9367C42.4562 18.3909 41.7097 16.9056 40.7662 15.5634C38.1164 15.569 35.4666 15.5604 32.8169 15.5675C32.9646 16.1723 33.1429 16.77 33.2759 17.3783C33.4826 18.2447 33.6365 19.1201 33.7781 19.9992C33.7543 20.024 33.7304 20.0489 33.7071 20.0743C33.5679 20.0738 33.4288 20.0728 33.2896 20.0743C33.2333 19.8681 33.2023 19.6579 33.1723 19.4467C32.9428 18.1512 32.6747 16.8167 32.2618 15.5659C28.0587 15.5624 23.8555 15.5659 19.6523 15.5644C19.4324 15.5634 19.2126 15.5649 18.9927 15.571C18.8728 16.0489 18.723 16.5186 18.6133 16.9995C18.3447 18.0045 18.1802 19.0181 17.9989 20.0398C17.841 20.0408 17.683 20.0413 17.5256 20.0418C17.5566 19.4177 17.7282 18.7794 17.8318 18.1639C17.9649 17.488 18.1299 16.8167 18.3051 16.1504C18.3574 15.959 18.4244 15.7797 18.4549 15.5827C18.2838 15.5548 18.0994 15.5644 17.9258 15.5639C15.4532 15.5685 12.9802 15.5604 10.5076 15.5675C10.1141 16.1596 9.73424 16.7588 9.40568 17.39C8.87654 18.3406 8.47943 19.3943 8.10873 20.4145C8.10619 20.3023 8.10315 20.1896 8.10061 20.0774C7.97772 20.0748 7.85482 20.0738 7.73193 20.0713C7.77205 19.8382 7.85229 19.6198 7.93912 19.4015C8.99334 16.5922 10.7189 14.0425 12.9451 12.0306C14.6651 10.4629 16.6755 9.22439 18.8454 8.38396C20.7588 7.64509 22.7855 7.23833 24.832 7.13524ZM19.1892 15.0597C23.4904 15.0647 27.792 15.0642 32.0932 15.0602C32.049 14.8332 31.9739 14.6168 31.8881 14.4025C31.3356 12.8659 30.6084 11.3064 29.6049 10.0095C28.989 9.22286 28.2897 8.52614 27.3899 8.07013C26.974 7.8538 26.5139 7.72075 26.0523 7.64661C25.6623 7.62681 25.2403 7.6131 24.8615 7.7172C24.1074 7.88122 23.4183 8.28036 22.8368 8.77954C22.005 9.47474 21.3352 10.4071 20.7837 11.3338C20.2211 12.3134 19.7666 13.3468 19.3867 14.4092C19.3029 14.6214 19.2293 14.8342 19.1892 15.0597ZM22.849 7.84466C22.2523 7.94673 21.6602 8.04474 21.0747 8.20368C20.2749 8.41696 19.4832 8.67036 18.7169 8.98419C15.8077 10.1633 13.2229 12.1042 11.2678 14.5584C11.1353 14.7118 11.0139 14.8621 10.9454 15.0566C13.0685 15.0718 15.1932 15.0586 17.3164 15.0632C17.7572 15.0602 18.1985 15.0703 18.6387 15.0546C18.9155 14.1644 19.2461 13.2813 19.6467 12.4393C20.0606 11.5136 20.5765 10.6315 21.1783 9.81446C21.5617 9.3031 22.001 8.83642 22.4778 8.41087C22.721 8.19099 23.0115 8.04017 23.236 7.80302C23.1065 7.81114 22.9775 7.82689 22.849 7.84466ZM28.0165 7.83196C28.0912 7.88325 28.1663 7.93505 28.2415 7.98634C28.9742 8.484 29.6095 9.15837 30.1371 9.86677C31.2701 11.4034 32.0653 13.2483 32.6457 15.0586C34.6958 15.0688 36.7468 15.0602 38.7969 15.0627C39.3245 15.0612 39.8521 15.0683 40.3797 15.0551C40.0374 14.5112 39.5845 14.0318 39.1569 13.5545C38.7176 13.0472 38.223 12.6018 37.7152 12.1504C36.7788 11.3283 35.7535 10.6204 34.677 9.99524C32.9966 9.06341 31.1888 8.37431 29.3038 7.99497C28.8701 7.92337 28.4603 7.81267 28.0165 7.83196Z" fill="#F3C733"/>
<path d="M26.0523 7.64663C26.5139 7.72077 26.974 7.85382 27.3899 8.07015C28.2897 8.52617 28.989 9.22288 29.605 10.0095C30.6084 11.3064 31.3356 12.8659 31.8881 14.4026C31.9739 14.6169 32.0491 14.8332 32.0932 15.0602C27.7921 15.0643 23.4904 15.0648 19.1892 15.0597C19.2293 14.8342 19.303 14.6214 19.3867 14.4092C19.7666 13.3468 20.2211 12.3134 20.7837 11.3339C21.3352 10.4071 22.005 9.47476 22.8368 8.77956C23.4183 8.28038 24.1074 7.88124 24.8615 7.71722C25.2403 7.61312 25.6623 7.62683 26.0523 7.64663Z" fill="black"/>
<path d="M23.2359 7.80304C23.0114 8.04019 22.721 8.19101 22.4777 8.41089C22.0009 8.83644 21.5616 9.30312 21.1782 9.81448C20.5765 10.6316 20.0605 11.5136 19.6467 12.4394C19.246 13.2813 18.9154 14.1644 18.6387 15.0546C18.1984 15.0703 17.7571 15.0602 17.3163 15.0632C15.1932 15.0587 13.0685 15.0719 10.9453 15.0566C11.0139 14.8621 11.1352 14.7118 11.2678 14.5585C13.2229 12.1042 15.8076 10.1634 18.7169 8.98421C19.4832 8.67038 20.2748 8.41698 21.0746 8.2037C21.6602 8.04476 22.2523 7.94675 22.8489 7.84468C22.9774 7.82691 23.1064 7.81116 23.2359 7.80304Z" fill="black"/>
<path d="M28.0166 7.832C28.4604 7.8127 28.8702 7.9234 29.3039 7.995C31.1889 8.37434 32.9967 9.06344 34.6771 9.99528C35.7536 10.6204 36.7789 11.3283 37.7153 12.1504C38.2231 12.6019 38.7177 13.0472 39.157 13.5545C39.5846 14.0319 40.0375 14.5113 40.3798 15.0551C39.8522 15.0683 39.3246 15.0612 38.797 15.0627C36.7469 15.0602 34.6959 15.0688 32.6458 15.0587C32.0654 13.2483 31.2702 11.4034 30.1372 9.8668C29.6096 9.1584 28.9743 8.48403 28.2416 7.98637C28.1664 7.93508 28.0913 7.88328 28.0166 7.832Z" fill="black"/>
<path d="M2.22432 22.2132C2.65088 22.202 3.07744 22.2092 3.504 22.2071C6.71592 22.2102 9.92885 22.201 13.1403 22.2117C12.9102 22.8246 12.6604 23.4325 12.4501 24.052C12.1414 24.1023 11.8377 24.0794 11.5274 24.0825C10.038 24.0825 8.54811 24.082 7.05869 24.0825C6.68393 24.0845 6.3117 24.0754 5.93744 24.0906C5.82826 24.3851 5.71146 24.6766 5.59467 24.9681C5.96639 25.0158 6.32998 24.9894 6.70322 24.995C8.49275 24.9991 10.2833 24.9869 12.0723 25.0016C11.8174 25.6151 11.5985 26.2417 11.3548 26.8597C10.9947 27.7844 10.6454 28.7127 10.2894 29.639C10.0756 29.6435 9.86232 29.6466 9.64854 29.6456C6.656 29.643 3.66295 29.6501 0.67041 29.6395C1.40572 27.7255 2.14104 25.8111 2.87533 23.8961C2.94439 23.7037 3.05002 23.5066 3.07744 23.3035C2.82861 22.9186 2.48787 22.5905 2.22432 22.2132ZM4.51354 27.8301C5.46314 27.8545 6.41377 27.8301 7.36338 27.8428C7.53705 27.8469 7.70361 27.8347 7.87475 27.8058C7.96666 27.4706 8.09818 27.1578 8.21752 26.8318C7.22221 26.8165 6.22588 26.8333 5.23057 26.8242C5.11529 26.8242 4.99545 26.8211 4.8817 26.8389C4.7324 27.1532 4.61662 27.497 4.51354 27.8301Z" fill="#F3C733"/>
<path d="M13.6435 22.2123C14.1737 22.2006 14.7043 22.2082 15.2345 22.2062C18.3337 22.2087 21.4334 22.2021 24.533 22.2097C24.4701 22.4382 24.3873 22.6586 24.2969 22.877C24.0699 23.4539 23.8465 24.0323 23.6291 24.6127C23.2757 25.5547 22.8959 26.487 22.549 27.4315C22.2636 28.1669 21.9798 28.9022 21.6974 29.6385C18.4926 29.6461 15.2878 29.6405 12.083 29.641C12.2983 29.0433 12.5634 28.4604 12.7498 27.8535C13.0027 27.8358 13.255 27.8373 13.5079 27.8393C15.2177 27.8398 16.9275 27.8388 18.6368 27.8398C18.8603 27.8464 19.0807 27.8464 19.3016 27.8058C19.3696 27.4671 19.5306 27.1634 19.6093 26.8273C17.6938 26.8247 15.7789 26.8283 13.8634 26.8262C13.6268 26.8313 13.3916 26.8323 13.1565 26.7973C13.613 25.6334 14.0569 24.4659 14.5129 23.301C14.2321 22.9308 13.9071 22.5931 13.6435 22.2123ZM17.0103 24.9676C17.2642 25.0012 17.5181 24.9991 17.7736 24.9946C18.417 24.9961 19.0598 24.9935 19.7032 24.9951C19.9257 25.0017 20.1461 24.9981 20.3664 24.9636C20.4711 24.6685 20.5868 24.3781 20.7067 24.0886C19.7124 24.0739 18.7171 24.0891 17.7228 24.0805C17.6019 24.0815 17.4755 24.0754 17.3561 24.0978C17.22 24.3765 17.1307 24.6812 17.0103 24.9676Z" fill="#F3C733"/>
<path d="M25.543 22.2071C29.0297 22.2092 32.5173 22.2036 36.004 22.2102C35.7018 23.0328 35.3794 23.8489 35.064 24.667C34.4358 26.324 33.7909 27.9769 33.1638 29.6339C32.791 29.6486 32.4168 29.639 32.043 29.6415C29.216 29.6395 26.388 29.6451 23.561 29.639C23.6204 29.4348 23.691 29.2363 23.7713 29.0392C24.4776 27.2055 25.1901 25.3322 25.8985 23.5036C25.9366 23.3848 25.963 23.2862 25.8721 23.1832C25.6141 22.8587 25.347 22.5413 25.0921 22.2148C25.2424 22.2076 25.3927 22.2076 25.543 22.2071ZM28.8169 24.0906C28.3289 25.3271 27.8597 26.5764 27.3767 27.8154C27.6281 27.8469 27.88 27.8428 28.1329 27.8393C28.759 27.8413 29.3856 27.8383 30.0118 27.8398C30.252 27.8449 30.4917 27.8444 30.7308 27.8169C31.1437 26.7348 31.553 25.6526 31.978 24.5751C32.0435 24.4156 32.0953 24.2516 32.1441 24.0866C31.1965 24.0764 30.2484 24.0871 29.3008 24.0815C29.1399 24.081 28.9774 24.0789 28.8169 24.0906Z" fill="#F3C733"/>
<path d="M36.5498 22.2133C36.9261 22.2026 37.3029 22.2092 37.6796 22.2072C42.2342 22.2082 46.7893 22.2061 51.3439 22.2082C51.3154 22.326 51.286 22.4433 51.2448 22.5576C50.5415 24.3613 49.8585 26.1767 49.1567 27.9815C48.9571 28.5315 48.717 29.0708 48.5428 29.6293C48.2041 29.6512 47.8699 29.6395 47.5312 29.642C46.8187 29.6405 46.1063 29.6426 45.3933 29.641C46.0977 27.7728 46.8284 25.9091 47.5317 24.0409C46.8467 24.0333 46.1616 24.0404 45.4766 24.0373C45.1871 24.731 44.9449 25.444 44.66 26.1397C44.2243 27.2995 43.7638 28.4731 43.3235 29.637C42.2865 29.6476 41.2491 29.64 40.2121 29.6415C40.2624 29.4572 40.3243 29.2785 40.3959 29.1012C40.9053 27.7748 41.4126 26.4464 41.9234 25.1205C42.0565 24.764 42.2241 24.4101 42.3068 24.0388C41.6284 24.0444 40.9474 24.0226 40.2695 24.0505C40.0567 24.667 39.8008 25.2698 39.5743 25.8817C39.0964 27.135 38.61 28.3842 38.1372 29.6395C37.0921 29.6431 36.047 29.6446 35.002 29.6385C35.328 28.7803 35.6616 27.9261 35.9856 27.0669C36.3141 26.2453 36.6127 25.4125 36.9403 24.5898C37.0794 24.245 37.1977 23.8921 37.342 23.5488C37.3745 23.4462 37.4496 23.3127 37.3638 23.2172C37.0906 22.8846 36.8098 22.557 36.5498 22.2133Z" fill="#F3C733"/>
<path d="M17.3561 24.0978C17.4754 24.0754 17.6019 24.0815 17.7227 24.0805C18.717 24.0891 19.7123 24.0739 20.7066 24.0886C20.5868 24.3781 20.471 24.6685 20.3664 24.9636C20.146 24.9981 19.9256 25.0017 19.7032 24.9951C19.0598 24.9935 18.4169 24.9961 17.7735 24.9946C17.5181 24.9991 17.2642 25.0012 17.0103 24.9676C17.1306 24.6812 17.22 24.3765 17.3561 24.0978Z" fill="black"/>
<path d="M29.3008 24.0815C30.2484 24.0871 31.1965 24.0764 32.1441 24.0866C32.0953 24.2516 32.0435 24.4157 31.978 24.5751C31.553 25.6527 31.1437 26.7348 30.7308 27.817C30.4916 27.8444 30.2519 27.8449 30.0117 27.8398C29.3856 27.8383 28.759 27.8414 28.1328 27.8393C27.88 27.8429 27.6281 27.8469 27.3767 27.8155C27.8596 26.5764 28.3289 25.3272 28.8169 24.0907C28.9773 24.079 29.1398 24.081 29.3008 24.0815Z" fill="black"/>
<path d="M4.88159 26.8389C4.99534 26.8211 5.11519 26.8242 5.23046 26.8242C6.22577 26.8333 7.2221 26.8166 8.21741 26.8318C8.09808 27.1578 7.96655 27.4706 7.87464 27.8058C7.70351 27.8347 7.53694 27.8469 7.36327 27.8428C6.41366 27.8301 5.46304 27.8545 4.51343 27.8301C4.61651 27.497 4.73229 27.1532 4.88159 26.8389Z" fill="black"/>
<path d="M7.62524 31.6591C7.79079 31.6453 7.95888 31.6524 8.12442 31.653C8.40118 32.4675 8.71501 33.2668 9.08774 34.0422C9.51075 34.8964 9.98911 35.7216 10.5315 36.5056C10.5447 36.3624 10.5513 36.2192 10.5706 36.0765C13.1675 36.0796 15.7645 36.0785 18.3614 36.0765C18.0486 34.9847 17.8191 33.8797 17.62 32.762C17.5606 32.3908 17.4743 32.0318 17.4783 31.653C17.6368 31.6524 17.7952 31.6519 17.9531 31.6509C18.0908 32.5498 18.2477 33.445 18.4422 34.3337C18.5828 34.9162 18.723 35.4996 18.885 36.0765C23.3837 36.0821 27.8829 36.0735 32.3811 36.0811C32.4943 35.7769 32.5533 35.4656 32.6391 35.1533C32.832 34.4307 32.9681 33.6827 33.1083 32.9489C33.2038 32.5193 33.2322 32.0805 33.3292 31.6514C33.4876 31.6524 33.6461 31.654 33.8045 31.6545C33.7989 31.9998 33.7309 32.3339 33.6735 32.6732C33.4815 33.8203 33.2261 34.9532 32.9209 36.0755C35.5463 36.0816 38.1727 36.0755 40.7986 36.079C40.8042 36.1674 40.8123 36.2553 40.8209 36.3431C40.9733 36.2162 41.0677 36.0526 41.1673 35.8841C41.6939 35.0614 42.1524 34.1941 42.5379 33.2973C42.7461 32.796 42.9665 32.2892 43.1076 31.7647C43.2965 31.7164 43.4778 31.7007 43.6728 31.7037C42.8339 34.3692 41.3999 36.8387 39.4925 38.8812C39.0913 39.3483 38.6313 39.7444 38.1854 40.1659C35.9505 42.1428 33.2332 43.6069 30.3361 44.3325C29.0686 44.6596 27.7636 44.8459 26.457 44.9114C25.7861 44.913 25.1097 44.9368 24.4404 44.8886C22.4904 44.7591 20.5552 44.332 18.7352 43.6196C16.5495 42.7619 14.5315 41.4903 12.8095 39.8953C12.3311 39.4738 11.9117 39.0035 11.48 38.5364C9.84286 36.6757 8.55251 34.4896 7.75981 32.1394C7.70599 31.9846 7.64708 31.8216 7.62524 31.6591ZM10.6112 36.593C10.8209 36.9378 11.0809 37.2546 11.3333 37.569C12.5084 39.0264 13.9084 40.3107 15.4699 41.344C17.4052 42.638 19.5893 43.5475 21.8663 44.0278C22.3579 44.1223 22.8545 44.2239 23.3547 44.2604C22.4945 43.7409 21.7952 43.0371 21.1945 42.2378C19.9448 40.5854 19.113 38.5541 18.5072 36.5853C16.1468 36.5833 13.786 36.5853 11.4257 36.5843C11.154 36.5828 10.8829 36.5808 10.6112 36.593ZM19.0531 36.5899C19.1236 36.9017 19.2349 37.1988 19.342 37.4994C19.9676 39.2849 20.8421 41.115 22.0984 42.546C22.8027 43.3215 23.7041 44.0324 24.7375 44.2894C25.7887 44.5768 26.8927 44.3142 27.7956 43.7364C28.5507 43.2514 29.1758 42.6131 29.7065 41.8935C30.1838 41.2785 30.556 40.6047 30.9201 39.9186C31.4472 38.8436 31.8936 37.7396 32.2313 36.5899C31.9657 36.5833 31.6996 36.5833 31.4335 36.5843C27.659 36.5843 23.8839 36.5843 20.1093 36.5843C19.7569 36.5853 19.405 36.5813 19.0531 36.5899ZM32.7564 36.599C32.4938 37.5268 32.1465 38.4333 31.7656 39.3189C31.1187 40.7596 30.293 42.1748 29.1672 43.2966C28.8198 43.6521 28.4171 43.9212 28.022 44.2178C28.3394 44.2233 28.6395 44.1848 28.9488 44.1182C32.3131 43.5134 35.4838 41.9367 38.0097 39.6353C38.2915 39.3555 38.5952 39.1051 38.8593 38.8085C39.0741 38.5678 39.3092 38.3495 39.5149 38.1012C39.9201 37.6177 40.338 37.1282 40.6747 36.593C40.5736 36.5899 40.4721 36.5874 40.371 36.5858C38.1026 36.5853 35.8347 36.5833 33.5663 36.5848C33.2972 36.5858 33.024 36.5742 32.7564 36.599Z" fill="#F3C733"/>
<path d="M11.4259 36.5843C13.7862 36.5854 16.147 36.5833 18.5073 36.5854C19.1131 38.5542 19.9449 40.5854 21.1946 42.2378C21.7954 43.0371 22.4946 43.741 23.3549 44.2604C22.8547 44.2239 22.358 44.1223 21.8665 44.0279C19.5895 43.5475 17.4054 42.638 15.4701 41.3441C13.9086 40.3107 12.5085 39.0264 11.3334 37.569C11.0811 37.2547 10.8211 36.9378 10.6113 36.593C10.883 36.5808 11.1542 36.5828 11.4259 36.5843Z" fill="black"/>
<path d="M32.2315 36.5899C31.8938 37.7396 31.4474 38.8436 30.9203 39.9186C30.5562 40.6047 30.184 41.2785 29.7066 41.8935C29.176 42.6131 28.5508 43.2514 27.7957 43.7364C26.8928 44.3142 25.7888 44.5768 24.7377 44.2894C23.7043 44.0324 22.8029 43.3215 22.0986 42.546C20.8422 41.115 19.9678 39.2849 19.3422 37.4994C19.235 37.1988 19.1238 36.9017 19.0532 36.5899C19.4051 36.5813 19.7571 36.5853 20.1095 36.5843C23.884 36.5843 27.6591 36.5843 31.4337 36.5843C31.6998 36.5833 31.9659 36.5833 32.2315 36.5899Z" fill="black"/>
<path d="M33.5665 36.5848C35.8349 36.5833 38.1028 36.5854 40.3712 36.5859C40.4723 36.5874 40.5738 36.5899 40.6749 36.593C40.3382 37.1282 39.9203 37.6177 39.515 38.1012C39.3094 38.3495 39.0742 38.5679 38.8594 38.8086C38.5954 39.1051 38.2917 39.3555 38.0099 39.6353C35.484 41.9367 32.3132 43.5134 28.949 44.1182C28.6397 44.1848 28.3396 44.2234 28.0222 44.2178C28.4173 43.9212 28.82 43.6521 29.1673 43.2966C30.2932 42.1748 31.1189 40.7596 31.7658 39.3189C32.1467 38.4333 32.494 37.5268 32.7566 36.5991C33.0242 36.5742 33.2974 36.5859 33.5665 36.5848Z" fill="black"/>
</g>
</g>
<defs>
<clipPath id="clip0_175_432">
<rect width="128" height="128" fill="white"/>
</clipPath>
<clipPath id="clip1_175_432">
<rect width="52" height="52" rx="26" fill="white"/>
</clipPath>
</defs>
</svg>
