<svg xmlns="http://www.w3.org/2000/svg" viewBox="0 0 128 128"><path fill="#868685" d="M91.002 50.025c3.272.034 6.54.057 9.809.031.492 2.304.324 4.564.498 6.894.191 2.151.154 4.298.55 6.43 1.708-1.663 3.035-3.567 4.598-5.356a169 169 0 0 0 4.741-5.647c.86-.949 1.717-2.47 3.183-2.346 4.22.017 8.405.014 12.619.028-1.119 3.275-2.477 6.476-3.707 9.711-1.139 3.081-2.449 6.093-3.647 9.151-.954 2.144-1.632 4.393-2.646 6.516-2.058.04-4.1-.06-6.155.077-1.111.086-2.207.02-3.312-.077a36 36 0 0 1 1.27-3.45c1.15-2.651 2.121-5.378 3.252-8.041a34 34 0 0 0 1.318-3.636c-2.03 1.67-3.508 3.85-5.307 5.88-1.788 2.265-3.71 4.412-5.53 6.644-.729.788-1.446 2.123-2.457 2.526-2.204.243-4.484.04-6.71.1-1.111-5.035-.283-9.88-1.453-14.815a14 14 0 0 0-.98 2.017c-1.668 4.253-3.214 8.568-5.068 12.747-3.01.226-6.03.243-9.042.051.464-1.432 1.047-2.81 1.625-4.195 2.119-5.473 4.337-10.912 6.51-16.365.631-1.586 1.164-3.329 2.043-4.79 1.339-.13 2.657-.09 3.998-.085m-15.082.008c.9.018 1.876 0 2.67.492.795.474 1.37 1.438 1.214 2.383-.265 1.675-1.11 3.31-1.714 4.896-1.737 4.387-3.53 8.754-5.245 13.155-.552 1.372-1.207 2.623-2.437 3.51-1.096.788-2.352.954-3.673.971-4.052.034-8.103-.028-12.152.037a51 51 0 0 1-5.923.035c-2.164-.129-4.327.028-6.486-.086-.942-.046-1.939-.76-2.035-1.75-.132-1.15.293-2.254.711-3.303 2.153-5.11 4.183-10.277 6.264-15.418.635-1.53 1.33-3.115 2.762-4.058 1.07-.718 2.25-.824 3.508-.832 7.511-.006 15.025.02 22.536-.032m-13.026 5.173L61.1 55.2c-.962.026-2.153-.097-3.032.335-.778.363-1.153 1.335-1.492 2.072-1.264 3.095-2.466 6.207-3.787 9.274a7.7 7.7 0 0 0-.683 3.158c1.91.068 3.823.045 5.734.143 1.375.04 2.944.2 4.262-.229.826-.357 1.302-1.38 1.66-2.15 1.378-3.226 2.6-6.52 3.892-9.773q.084-.211.146-.423c.233-.72.333-1.463.395-2.22-1.793-.23-3.527-.192-5.301-.18M12.218 50.06c1.774-.137 3.57.06 5.35.026 6.122-.063 12.238.028 18.36-.029 1.264.015 2.627-.077 3.866.229 1.108.294 2.096 1.129 2.198 2.338.228 1.82-.846 3.815-1.495 5.481-.837 1.878-1.458 4.004-2.648 5.682-1.523 1.914-3.758 2.266-6.064 2.337-4.846.04-9.69.026-14.536.012-.774.037-1.637-.037-2.198.606-.791.874-1.153 2.226-1.571 3.315 2.548.091 5.096-.012 7.642.146 2.562.063 5.13.02 7.699.054 2.178.057 4.308-.257 6.483-.037-.592 1.783-1.31 3.512-2.079 5.218-6.7.063-13.396-.071-20.101.1-4.072-.283-8.055.366-12.124-.123 1.108-2.886 2.355-5.71 3.462-8.596.69-1.612 1.452-3.721 2.902-4.796 1.446-.986 3.445-1.274 5.159-1.286 4.743-.017 9.498.072 14.242-.003.948-.074 2.081-.042 2.685-.914.928-1.33 1.472-2.987 1.896-4.538-2.614-.132-5.239-.075-7.858-.1-1.375.014-2.776-.063-4.146.074-1.446.105-2.044 2.186-3.533 2.043q-3.645.043-7.29-.023c.786-2.049 1.783-4.01 2.626-6.038.273-.5.398-1.144 1.073-1.178m51.707-40.025c2.03-.023 4.085-.091 6.11.069 4.12.246 8.228 1.046 12.18 2.22a53.9 53.9 0 0 1 21.235 12.38 54.3 54.3 0 0 1 12.884 18.82c.399 1.015.84 2.05 1.108 3.104q-.726.029-1.452-.043-.198-.433-.365-.877a53.2 53.2 0 0 0-5.227-10.418c-.257-.38-.496-.857-.863-1.134-.541-.083-1.108-.029-1.652-.034H89.092c-.71 0-1.416-.023-2.122.017q.103.528.254 1.052a97 97 0 0 1 2.354 10.84c.043.317.037.631.029.948q-.644.043-1.293-.005c-.219-.615-.267-1.238-.378-1.875a83 83 0 0 0-1.794-8.382c-.245-.872-.424-1.73-.775-2.567-.785-.063-1.557-.023-2.349-.028l-35.126-.003c-.294-.02-.33.271-.413.486a92 92 0 0 0-2.298 10.002c-.142.772-.228 1.538-.424 2.295q-.67.034-1.338-.011c.014-1.086.27-2.078.444-3.144.515-2.778 1.11-5.573 1.873-8.29q.198-.653.345-1.318c-.94-.046-1.88-.009-2.819-.017-6.577.005-13.169-.018-19.743.008-.447.492-.763 1.05-1.122 1.606a57 57 0 0 0-2.87 5.105c-1.142 2.309-2.548 6.478-2.548 6.478H15.27c.156-.677.688-1.797.93-2.443A54.15 54.15 0 0 1 41.333 16.28c6.96-3.744 14.715-5.816 22.59-6.245M48.088 32.646q.398.03.794.037h33.846c.723-.003 1.44.017 2.164-.017-.171-.903-.555-1.803-.869-2.672a69 69 0 0 0-2.542-5.89c-1.56-2.947-3.349-5.813-5.695-8.202-1.802-1.807-3.94-3.35-6.423-4.044a10.1 10.1 0 0 0-5.655-.009c-2.25.626-4.148 1.9-5.845 3.472-2.079 1.935-3.787 4.344-5.21 6.797-1.903 3.318-3.366 6.896-4.565 10.528m10.723-20.611c-4.516.606-9.017 1.998-13.211 3.77a97 97 0 0 0-3.59 1.757A52.9 52.9 0 0 0 25.087 31.9q-.256.372-.493.755.447.025.894.031h18.638c.82-.006 1.618.029 2.435-.029q.25-.676.464-1.366a56.4 56.4 0 0 1 4.29-9.768c1.73-3.03 3.776-5.784 6.441-8.048.607-.5 1.259-.937 1.851-1.449a14 14 0 0 0-.797.009m14.572-.026c.852.686 1.74 1.272 2.543 2.02 2.762 2.53 4.843 5.61 6.566 8.926a52 52 0 0 1 2.924 6.656c.398 1.003.694 2.04 1.082 3.05.862.056 1.728.016 2.59.025 5.929.003 11.857-.009 17.785 0a23 23 0 0 0 1.603-.032 11.5 11.5 0 0 0-1.253-1.72 52.7 52.7 0 0 0-16.554-13.572 52.3 52.3 0 0 0-13.337-4.798c-1.287-.235-2.648-.58-3.949-.555M15.356 80.041c.39-.108.863-.02 1.264.015q.19.417.342.848a52 52 0 0 0 5.834 11.984c.752-.035 2.363-.155 3.115-.158h17.784c.672 0 1.346.02 2.016-.02a9 9 0 0 0-.205-1.074 103 103 0 0 1-2.093-10.003 8.6 8.6 0 0 1-.123-1.563 3.7 3.7 0 0 1 1.347.003c.142.654.228 1.314.316 1.977.584 3.607 1.33 7.15 2.36 10.66.915.043 1.829.018 2.742.023h33.396c.758-.005 1.51.029 2.267-.028.327-.892.52-1.844.765-2.764.613-2.363 1.051-4.758 1.481-7.162.162-.903.225-1.812.447-2.706a3.6 3.6 0 0 1 1.355 0 8.6 8.6 0 0 1-.122 1.429 100 100 0 0 1-1.731 8.648c-.21.854-.456 1.697-.638 2.557.555.035 1.11.032 1.668.03 6.654-.01 14.678.07 21.329.06 1.524-2.244 2.492-3.96 3.636-6.42a49 49 0 0 0 2.062-5.052q.17-.515.413-1 .726-.093 1.463-.095c-.512 1.755-1.184 3.472-1.891 5.158a54 54 0 0 1-10.067 15.439c-1.111 1.266-2.347 2.372-3.577 3.515a54.7 54.7 0 0 1-11.796 8.031 57 57 0 0 1-7.183 2.955 54.3 54.3 0 0 1-15.062 2.658c-1.712.002-3.443.063-5.154-.086a52.8 52.8 0 0 1-11.119-1.895 53.45 53.45 0 0 1-19.122-9.871 54.1 54.1 0 0 1-17.587-25.641c-.032-.146-.126-.372.068-.452m44.355 35.953c-.661-.526-1.358-1.006-2.013-1.544-2.674-2.272-4.678-5.035-6.415-8.067a57.3 57.3 0 0 1-4.542-10.552c-.173-.546-.321-1.1-.563-1.626-7.039-.043-14.092.009-21.13-.023-.333.012-.706-.046-1.025.046-.262.169-.06.349.051.534a54.2 54.2 0 0 0 8.257 9.017 52.7 52.7 0 0 0 15.333 9.26c3.08 1.154 6.304 2.134 9.55 2.677.828.155 1.648.301 2.497.278M47.806 94.208c.225 1.1.62 2.135 1.002 3.195 1.324 3.632 2.905 7.102 5.009 10.348 1.264 1.895 2.727 3.756 4.439 5.259 1.15.983 2.428 1.938 3.82 2.538 1.783.743 3.654 1.152 5.587.906 2.839-.335 5.373-1.795 7.431-3.733 2.36-2.174 4.078-4.738 5.666-7.504a60 60 0 0 0 4.257-10.112c.086-.294.131-.591.18-.894-.872-.052-1.737-.017-2.612-.023H49.91c-.703 0-1.4-.017-2.104.02m25.253 21.92c4.897-.549 9.737-1.943 14.264-3.881 1.492-.657 2.942-1.409 4.388-2.158a53.5 53.5 0 0 0 9.874-7.059 55 55 0 0 0 5.951-6.356c.618-.791 1.27-1.589 1.76-2.452-.948-.066-1.908-.023-2.862-.028q-9.035 0-18.071-.009c-.484.003-.977-.023-1.464.029-.37.608-.484 1.374-.734 2.04-.707 2.006-1.404 4.044-2.307 5.967-.54 1.058-.965 2.167-1.566 3.196-1.822 3.332-4.128 6.739-7.092 9.151-.68.568-1.424 1.043-2.144 1.557"/></svg>
