<svg width="128" height="128" viewBox="0 0 128 128" fill="none" xmlns="http://www.w3.org/2000/svg">
<g clip-path="url(#clip0_175_181)">
<path d="M64 128C99.346 128 128 99.346 128 64C128 28.654 99.346 0 64 0C28.654 0 0 28.654 0 64C0 99.346 28.654 128 64 128Z" fill="#2F63F9"/>
<path d="M91.3 25.24C93.433 26.817 95.374 28.558 97.28 30.4L98.009 31.09C102.995 35.914 106.696 42.384 108.8 48.96V49.92H107.52L107.19 49.05C105.47 44.621 103.532 40.704 100.8 36.8C95.283 36.337 95.283 36.337 88.98 36.44L82.471 36.437L77.44 36.48L78.72 41.6C79.312 44.371 79.535 47.092 79.68 49.92H78.4L78.073 47.874L77.64 45.18L77.213 42.514C76.879 40.4998 76.528 38.4884 76.16 36.48H53.12C51.837 43.184 51.837 43.184 50.88 49.92H49.6C49.681 45.457 50.66 41.165 51.52 36.8C47.7266 36.716 43.9333 36.6494 40.14 36.6L33.739 36.487L28.48 36.8C25.534 41.008 23.441 45.075 21.76 49.92H20.48C22.445 39.947 29.976 30.612 38.265 25.014C54.663 14.624 74.975 13.989 91.3 25.24Z" fill="#E6C040"/>
<path d="M21.76 80H23.04L23.521 80.985C24.736 83.447 25.987 85.857 27.409 88.206C27.84 88.96 27.84 88.96 28.16 89.92L51.52 89.6L49.92 81.28V80H51.2C51.86 83.302 52.49 86.611 53.12 89.92H76.16C76.6476 87.0144 77.1186 84.106 77.573 81.195L77.76 80H79.36C79.13 82.034 78.783 84.03 78.4 86.04L78.06 87.837C77.76 89.28 77.76 89.28 77.44 89.92C81.273 89.987 85.107 90.02 88.94 90.04L95.409 90.107L100.8 89.6C103.144 85.996 103.144 85.996 105.14 82.28L105.781 80.963L106.24 80H107.52C106.308 86.062 101.76 91.322 97.6 95.68L96.821 96.521C89.409 104.299 78.081 109.114 67.419 109.516C59.616 109.596 52.177 108.792 45.12 105.28L43.916 104.695C37.633 101.522 32.089 97.152 27.84 91.52L27.255 90.745C21.76 83.171 21.76 83.171 21.76 80Z" fill="#E4BF42"/>
<path d="M113.081 56.4C114.979 57.667 116.406 59.67 117.005 61.875C117.527 65.707 117.182 68.707 115.04 71.92C113.062 73.757 110.579 75.102 107.84 75.2L106.964 75.247C103.586 75.359 100.995 74.66 98.24 72.64C95.746 70.193 95.306 68.034 95.2 64.66C95.256 61.852 95.661 60.014 97.535 57.916C101.778 53.869 108.048 53.756 113.081 56.4Z" fill="#EFC537"/>
<path d="M54.72 55.04C60.8 55.04 60.8 55.04 62.413 56.353L63.56 58.12L64.803 59.969L65.92 61.76L66.877 63.181C68.8 66.053 68.8 66.053 68.8 66.88H69.44L69.281 65.731C69.082 63.594 69.09 61.487 69.101 59.341L69.109 56.899L69.12 55.04H74.88V74.88C68.8 74.88 68.8 74.88 67.456 73.954L66.66 72.7L65.764 71.371L64.96 70.08C64.4986 69.45 64.032 68.8233 63.56 68.2C62.49 66.719 61.496 65.204 60.48 63.68V74.88H54.72V55.04Z" fill="#ECC33A"/>
<path d="M35.52 55.04H53.12V60.16H40.96V62.4H52.48V67.52H40.96V69.76H53.12V74.88H35.52V55.04Z" fill="#EDC439"/>
<path d="M29.76 91.2H52.16C52.6767 92.5711 53.1847 93.9455 53.684 95.323C55.364 99.895 57.121 103.951 60.48 107.52V107.84C55.494 108.011 50.577 106.371 46.08 104.32L44.947 103.812C39.222 101.108 33.672 96.847 29.76 91.84V91.2Z" fill="#3264F6"/>
<path d="M13.12 55.04H18.56V62.4H27.84V55.04H33.28V74.88H27.84V67.52H18.56V74.88H13.12V55.04Z" fill="#F0C536"/>
<path d="M82.051 91.169L88.34 91.18L94.631 91.189L99.52 91.2C95.63 98.978 85.281 103.868 77.44 106.56C74.586 107.42 71.77 107.711 68.8 107.84L69.64 106.76C72.83 102.48 74.824 97.711 76.427 92.643C77.363 89.824 77.57 91.197 82.051 91.169Z" fill="#3264F6"/>
<path d="M60.48 18.56L59.66 19.62C56.06 24.462 54.174 29.492 52.16 35.2H29.76C33.49 27.738 43.302 22.865 50.74 20.2C53.874 19.214 57.19 18.56 60.48 18.56ZM68.8 18.56C79.543 18.6 89.712 24.73 97.12 32.04C99.52 34.461 99.52 34.461 99.52 35.2H77.12C76.16 32.64 76.16 32.64 75.725 31.427C74.199 27.217 72.486 23.475 69.702 19.945C69.12 19.2 69.12 19.2 68.8 18.56Z" fill="#3164F7"/>
<path d="M65.5999 18.24C70.2479 20.347 72.4319 25.511 74.1879 29.974C75.5199 33.643 75.5199 33.643 75.5199 35.2H53.4399C55.1139 29.063 57.3889 22.47 62.7199 18.56C63.7529 18.044 64.4499 18.112 65.5999 18.24Z" fill="#3164F7"/>
<path d="M53.4399 91.2H75.5199C74.7259 96.76 72.0259 103.184 67.6829 106.927C66.2059 108.017 65.1729 108.402 63.3599 108.16C57.5119 104.505 55.2499 97.533 53.4399 91.2Z" fill="#3264F6"/>
<path d="M76.8 55.04H82.24V69.76H93.76V74.88H76.8V55.04Z" fill="#F0C536"/>
<path d="M105.84 60.08L107.195 60.055C108.542 60.165 109.284 60.369 110.4 61.12C111.787 62.831 111.552 64.786 111.36 66.88C110.973 68.062 110.703 68.565 109.732 69.317C108.486 69.909 107.475 69.91 106.1 69.92L104.681 69.95C103.127 69.726 102.523 69.271 101.44 68.16C100.935 67.15 101.027 66.16 101 65.04L100.953 63.685C101.153 62.145 101.624 61.553 102.72 60.48C103.729 59.975 104.721 60.092 105.84 60.08Z" fill="#3264F6"/>
<g clip-path="url(#clip1_175_181)">
<path d="M0 0H52V52H0V0ZM7.72637 20.0271C7.84519 20.0454 7.96352 20.0637 8.08234 20.0814C8.09098 20.2079 8.09859 20.3348 8.10621 20.4613C8.45356 19.4223 8.85625 18.4158 9.37523 17.4495C9.72207 16.802 10.0912 16.1571 10.529 15.5665C13.1742 15.5705 15.8209 15.5639 18.4656 15.5695C18.0385 17.0396 17.7257 18.5357 17.4921 20.0484C17.6683 20.0713 17.8298 20.0672 18.0055 20.0423C18.0725 19.7275 18.1157 19.4091 18.1695 19.0917C18.3676 17.9014 18.6712 16.738 18.9947 15.5771C19.2816 15.5614 19.568 15.5665 19.8555 15.5675C23.7148 15.5675 27.5742 15.5675 31.4336 15.5675C31.7109 15.5665 31.9881 15.5639 32.2654 15.5721C32.7422 17.0386 33.0083 18.5311 33.2739 20.0454C33.4369 20.0464 33.5999 20.0464 33.7629 20.0439C33.7462 19.6772 33.667 19.3258 33.606 18.9648C33.4024 17.8196 33.1236 16.6918 32.8159 15.5711C35.2996 15.5609 37.7853 15.5716 40.269 15.5655C40.427 15.567 40.592 15.5538 40.7479 15.5807C40.8134 15.6244 40.8637 15.6985 40.9094 15.7615C41.7366 17.0021 42.4191 18.3336 42.9279 19.7356C42.9569 19.7976 42.9807 19.888 43.0396 19.9276C43.1905 19.9834 43.3753 19.9748 43.5343 19.9779C43.2331 18.8957 42.6893 17.8278 42.1693 16.835C41.9478 16.4369 41.7 16.053 41.4614 15.6645C40.5818 14.3528 39.5703 13.1396 38.3993 12.0768C36.2517 10.11 33.6507 8.64703 30.8486 7.84977C27.6539 6.93824 24.2252 6.88289 21.0052 7.69996C18.0263 8.4434 15.244 9.94398 12.9695 12.0042C11.1937 13.6094 9.72309 15.5589 8.66836 17.7079C8.30781 18.458 7.96605 19.2293 7.72637 20.0271ZM9.28484 24.0815C9.17617 24.3841 9.06191 24.6848 8.92937 24.9783C8.52566 25.0021 8.12398 24.9854 7.71875 24.9895C5.96223 24.9945 4.20418 24.9813 2.44766 24.9955C2.35523 25.1966 2.275 25.4023 2.19883 25.61C2.04902 26.0137 1.87383 26.4073 1.73418 26.8145C2.07086 26.8293 2.40551 26.8211 2.74219 26.8221C4.56473 26.8242 6.38777 26.8196 8.21031 26.8242C8.09758 27.1573 7.97977 27.4889 7.85281 27.817C7.55422 27.8398 7.25613 27.8337 6.95703 27.8322C5.38281 27.8327 3.80859 27.8322 2.23438 27.8327C1.93934 27.8317 1.6448 27.8251 1.34977 27.8434C1.12785 28.4482 0.874453 29.0413 0.662188 29.6491C0.966367 29.6669 1.27004 29.6608 1.57422 29.6603C4.19809 29.6608 6.82145 29.6603 9.44531 29.6608C9.72867 29.6634 10.0115 29.6654 10.2949 29.6466C10.3512 29.5136 10.4066 29.38 10.4569 29.2444C10.887 28.0754 11.3562 26.9217 11.7894 25.7537C12.1139 24.9239 12.4333 24.0921 12.7476 23.2583C12.8812 22.9044 13.0305 22.5616 13.1493 22.2031C9.55652 22.1945 5.91855 22.2 2.32172 22.2C2.21457 22.2005 2.25012 22.2625 2.29227 22.3224C2.65332 22.7942 3.02605 23.2583 3.37898 23.7377C3.45871 23.8413 3.53539 23.9576 3.63441 24.0429C3.69941 24.0764 3.78422 24.0749 3.85531 24.0795C5.66465 24.0795 7.47551 24.0744 9.28484 24.0815ZM13.6358 22.2183C13.9268 22.6322 14.2553 23.0212 14.5564 23.4284C14.7062 23.6163 14.8403 23.8195 15.0018 23.9972C15.0673 24.0835 15.1846 24.0698 15.2811 24.0789C17.0879 24.0805 18.8952 24.0749 20.702 24.0815C20.5908 24.3831 20.4735 24.6807 20.348 24.9768C19.9971 25.0011 19.6483 24.9884 19.2969 24.99C17.7227 24.99 16.1484 24.9905 14.5742 24.9905C14.3437 24.9935 14.108 24.9742 13.879 25.0001C13.7744 25.123 13.7282 25.3018 13.6678 25.4495C13.5037 25.9076 13.3021 26.3519 13.1518 26.814C13.6084 26.8328 14.0664 26.8181 14.5234 26.8221C16.219 26.8262 17.9156 26.815 19.6112 26.8277C19.5396 27.0837 19.4482 27.331 19.3558 27.5793C19.3233 27.6595 19.2887 27.7509 19.2319 27.817C19.0201 27.8479 18.7992 27.8307 18.5859 27.8332C16.9102 27.8312 15.2344 27.8332 13.5586 27.8322C13.2935 27.8307 13.0284 27.8281 12.7634 27.8398C12.6308 28.1557 12.5201 28.4796 12.3962 28.7991C12.288 29.0824 12.1682 29.3602 12.0763 29.6496C12.3845 29.6679 12.6918 29.6608 13 29.6608C15.6239 29.6613 18.2472 29.6608 20.8711 29.6613C21.1509 29.6639 21.4297 29.6679 21.709 29.6415C22.5215 27.5351 23.3269 25.4333 24.1358 23.3254C24.2795 22.9506 24.4385 22.5834 24.5629 22.2016C21.1159 22.1945 17.6663 22.2021 14.2188 22.1975C14.0258 22.197 13.8267 22.1894 13.6358 22.2183ZM25.0844 22.2005C25.3028 22.5007 25.5455 22.782 25.7832 23.0694C25.8411 23.1436 25.9096 23.2233 25.9421 23.3127C25.9045 23.5427 25.7862 23.7626 25.7095 23.9825C25.3038 25.0626 24.8762 26.1341 24.4725 27.2152C24.2851 27.7174 24.082 28.2136 23.8926 28.7153C23.7763 29.0266 23.6437 29.3282 23.5544 29.6491C23.8448 29.6664 24.1348 29.6618 24.4258 29.6608C27.0496 29.6608 29.673 29.6608 32.2969 29.6608C32.5807 29.6629 32.8641 29.6664 33.1475 29.6471C33.4603 28.8839 33.7446 28.1084 34.0417 27.3386C34.6445 25.7735 35.2442 24.2074 35.846 22.6418C35.9023 22.4966 35.9541 22.3498 36.0029 22.2021C32.3644 22.196 28.7229 22.199 25.0844 22.2005ZM34.9984 29.6491C35.6378 29.674 36.2786 29.6547 36.918 29.6608C37.3222 29.6578 37.7234 29.6715 38.1271 29.6496C38.4114 28.9732 38.6481 28.277 38.9188 27.5945C39.3829 26.4123 39.8191 25.217 40.2909 24.0378C40.9647 24.0246 41.6432 24.0287 42.3175 24.0358C42.2663 24.2155 42.2073 24.3918 42.1373 24.5654C41.5487 26.0635 40.9886 27.5717 40.4021 29.0707C40.3269 29.2602 40.2604 29.4521 40.2025 29.6481C40.8332 29.675 41.4664 29.6547 42.0977 29.6608C42.5029 29.6568 42.9041 29.6725 43.3078 29.6496C43.55 29.0855 43.7536 28.5045 43.9806 27.9343C44.3463 26.9506 44.7362 25.9766 45.1054 24.9945C45.2283 24.6756 45.3416 24.3537 45.4746 24.0383C46.1586 24.0226 46.8452 24.0302 47.5297 24.0348C47.3845 24.4659 47.2032 24.8848 47.0468 25.3124C46.6268 26.4291 46.1861 27.5377 45.7676 28.6553C45.6417 28.9885 45.5025 29.3099 45.3944 29.6486C46.1226 29.6766 46.8533 29.6527 47.582 29.6608C47.8964 29.6608 48.2097 29.6705 48.5235 29.6441C49.2253 27.8032 49.9383 25.9655 50.6411 24.1246C50.8767 23.4802 51.1454 22.8475 51.3769 22.2016C46.6263 22.1945 41.8722 22.2026 37.1216 22.1975C36.9459 22.2021 36.7565 22.1787 36.5848 22.2138C36.5727 22.2584 36.629 22.3092 36.6509 22.3438C36.8271 22.5616 37.0007 22.781 37.182 22.9943C37.2607 23.0933 37.3557 23.1959 37.405 23.3137C37.3659 23.5518 37.2399 23.7798 37.1602 24.0073C36.4406 25.8873 35.7124 27.7682 34.9984 29.6491ZM43.6709 31.6956C43.4901 31.7053 43.3103 31.7215 43.1316 31.7495C42.7273 32.92 42.2464 34.0514 41.6249 35.1244C41.3689 35.5575 41.1186 36.0024 40.817 36.4056C40.8088 36.2994 40.8012 36.1933 40.7926 36.0872C40.4488 36.0714 40.1055 36.0801 39.7617 36.0791C37.4938 36.078 35.2249 36.0801 32.957 36.078C32.9799 35.8125 33.054 35.5606 33.1231 35.3041C33.4293 34.0961 33.6619 32.8712 33.8391 31.6372C33.6659 31.6276 33.4953 31.6286 33.3221 31.6408C33.0875 33.1368 32.824 34.6115 32.3878 36.0648C32.0171 36.0928 31.652 36.075 31.2812 36.0786C27.4386 36.0791 23.5965 36.0786 19.7539 36.0786C19.467 36.0801 19.1801 36.0836 18.8937 36.0699C18.4636 34.615 18.1741 33.1414 17.9578 31.6413C17.7887 31.6286 17.6231 31.6286 17.4545 31.6398C17.5007 32.1318 17.5932 32.6112 17.6795 33.1023C17.8075 33.7792 17.9451 34.4551 18.105 35.1254C18.1807 35.4448 18.2848 35.7515 18.3341 36.077C16.0992 36.0811 13.8638 36.0775 11.6289 36.0791C11.2719 36.0806 10.9164 36.0704 10.5595 36.0872C10.5518 36.2268 10.5457 36.3665 10.5381 36.5056C9.76168 35.3981 9.10762 34.1905 8.60184 32.9362C8.42004 32.5097 8.27938 32.0689 8.11687 31.6347C7.98078 31.6291 7.84266 31.6189 7.70656 31.6271C7.62531 31.6423 7.6116 31.6834 7.63242 31.7581C8.76332 35.3448 11.0058 38.5602 13.9623 40.8814C15.1963 41.8503 16.5506 42.6755 17.9877 43.3062C20.184 44.2894 22.5814 44.8282 24.9844 44.9155C25.576 44.9216 26.1706 44.9318 26.7617 44.8952C29.4567 44.7342 32.1151 43.9954 34.4993 42.7263C36.1974 41.8214 37.7437 40.6671 39.0985 39.3016C41.1836 37.1795 42.7989 34.5439 43.6709 31.6956Z" fill="black" stroke="black" stroke-width="17.7778"/>
<path d="M30.8485 7.84974C33.6507 8.647 36.2517 10.11 38.3992 12.0768C39.5702 13.1396 40.5818 14.3528 41.4613 15.6645C41.7 16.0529 41.9478 16.4368 42.1692 16.835C42.6892 17.8277 43.2331 18.8957 43.5342 19.9778C43.3753 19.9748 43.1904 19.9834 43.0396 19.9275C42.9807 19.8879 42.9568 19.7975 42.9279 19.7356C42.4191 18.3335 41.7365 17.002 40.9093 15.7615C40.8636 15.6985 40.8134 15.6243 40.7478 15.5807C40.5919 15.5538 40.4269 15.567 40.269 15.5654C37.7853 15.5715 35.2995 15.5609 32.8158 15.571C33.1235 16.6918 33.4023 17.8196 33.606 18.9647C33.6669 19.3258 33.7461 19.6772 33.7629 20.0438C33.5999 20.0464 33.4369 20.0464 33.2739 20.0454C33.0083 18.5311 32.7422 17.0386 32.2653 15.572C31.9881 15.5639 31.7108 15.5665 31.4335 15.5675C27.5742 15.5675 23.7148 15.5675 19.8554 15.5675C19.568 15.5665 19.2816 15.5614 18.9947 15.5771C18.6712 16.738 18.3675 17.9014 18.1695 19.0917C18.1157 19.4091 18.0725 19.7275 18.0055 20.0423C17.8298 20.0672 17.6683 20.0713 17.4921 20.0484C17.7257 18.5356 18.0385 17.0396 18.4655 15.5695C15.8209 15.5639 13.1741 15.5705 10.5289 15.5665C10.0912 16.157 9.72202 16.802 9.37519 17.4494C8.8562 18.4158 8.45351 19.4223 8.10616 20.4613C8.09855 20.3348 8.09093 20.2079 8.0823 20.0814C7.96347 20.0636 7.84515 20.0454 7.72632 20.0271C7.96601 19.2293 8.30776 18.4579 8.66831 17.7079C9.72304 15.5588 11.1937 13.6093 12.9695 12.0041C15.244 9.94395 18.0263 8.44337 21.0051 7.69993C24.2251 6.88286 27.6539 6.93821 30.8485 7.84974ZM19.1617 15.0612C23.2496 15.0683 27.3451 15.0612 31.4335 15.0647C31.6539 15.0663 31.8743 15.0663 32.0947 15.0602C32.0145 14.6966 31.8748 14.3675 31.7443 14.0095C31.1172 12.3845 30.3291 10.792 29.1631 9.48083C28.5735 8.81661 27.8311 8.21993 26.9983 7.89544C26.198 7.58161 25.2976 7.55063 24.4816 7.82536C23.4208 8.16509 22.5067 8.97911 21.8161 9.83173C20.5978 11.3389 19.7696 13.2331 19.1617 15.0612ZM10.922 15.0495C11.2267 15.0724 11.5273 15.0627 11.832 15.0632C13.7957 15.0632 15.7589 15.0637 17.7226 15.0632C18.0253 15.0642 18.3274 15.0708 18.6301 15.052C18.8027 14.5615 18.9459 14.0781 19.1425 13.5972C19.566 12.5414 20.0611 11.4821 20.6837 10.5279C21.2026 9.71645 21.8207 8.96083 22.5605 8.3413C22.7982 8.1397 23.0587 7.97466 23.308 7.78981C23.1562 7.80149 23.0054 7.81774 22.8551 7.8411C20.5562 8.19606 18.3203 8.98876 16.318 10.1735C14.4355 11.282 12.7557 12.7298 11.377 14.4239C11.2104 14.6229 11.0459 14.8195 10.922 15.0495ZM32.6533 15.0551C32.9407 15.0693 33.2282 15.0642 33.5156 15.0632C35.496 15.0632 37.4765 15.0632 39.457 15.0632C39.7607 15.0627 40.0618 15.0729 40.365 15.05C40.3142 14.9611 40.2634 14.8733 40.2045 14.7895C38.4094 12.4718 36.0663 10.5858 33.4064 9.35032C31.7804 8.58962 30.0366 8.07419 28.2602 7.81571C28.1673 7.80352 28.0744 7.7954 27.9809 7.78931C28.2008 7.97212 28.4491 8.11583 28.6685 8.29966C29.5983 9.06442 30.3209 10.0359 30.9273 11.0688C31.5773 12.1951 32.0871 13.391 32.5015 14.6219C32.5502 14.7672 32.602 14.9109 32.6533 15.0551Z" fill="black" stroke="#4678FF" stroke-width="17.7778"/>
<path d="M26.9983 7.89549C27.8311 8.21999 28.5735 8.81667 29.1631 9.48088C30.329 10.7921 31.1172 12.3846 31.7443 14.0096C31.8748 14.3676 32.0145 14.6966 32.0947 15.0602C31.8743 15.0663 31.6539 15.0663 31.4335 15.0648C27.3451 15.0612 23.2496 15.0683 19.1617 15.0612C19.7696 13.2331 20.5978 11.339 21.8161 9.83178C22.5067 8.97917 23.4208 8.16514 24.4816 7.82542C25.2976 7.55069 26.198 7.58167 26.9983 7.89549Z" fill="black" stroke="black" stroke-width="17.7778"/>
<path d="M23.3081 7.78986C23.0587 7.9747 22.7982 8.13974 22.5606 8.34134C21.8207 8.96087 21.2027 9.7165 20.6837 10.528C20.0611 11.4822 19.566 12.5415 19.1425 13.5972C18.9459 14.0781 18.8027 14.5615 18.6301 15.0521C18.3274 15.0709 18.0253 15.0643 17.7226 15.0633C15.7589 15.0638 13.7957 15.0633 11.832 15.0633C11.5273 15.0627 11.2267 15.0724 10.922 15.0495C11.0459 14.8195 11.2104 14.623 11.377 14.4239C12.7557 12.7299 14.4356 11.2821 16.318 10.1735C18.3203 8.9888 20.5562 8.19611 22.8551 7.84115C23.0054 7.81779 23.1562 7.80154 23.3081 7.78986Z" fill="black" stroke="black" stroke-width="17.7778"/>
<path d="M27.981 7.78931C28.0744 7.7954 28.1673 7.80353 28.2603 7.81571C30.0366 8.07419 31.7804 8.58962 33.4064 9.35032C36.0663 10.5858 38.4094 12.4718 40.2045 14.7895C40.2634 14.8733 40.3142 14.9611 40.365 15.05C40.0618 15.0729 39.7607 15.0627 39.457 15.0632C37.4765 15.0632 35.4961 15.0632 33.5156 15.0632C33.2282 15.0642 32.9408 15.0693 32.6533 15.0551C32.6021 14.9109 32.5503 14.7672 32.5015 14.6219C32.0871 13.391 31.5773 12.1951 30.9273 11.0688C30.321 10.0359 29.5983 9.06442 28.6685 8.29966C28.4492 8.11583 28.2008 7.97212 27.981 7.78931Z" fill="black" stroke="black" stroke-width="17.7778"/>
<path d="M2.32176 22.2C5.9186 22.2 9.55657 22.1944 13.1493 22.2031C13.0305 22.5616 12.8812 22.9044 12.7477 23.2583C12.4333 24.0921 12.1139 24.9239 11.7894 25.7537C11.3563 26.9217 10.887 28.0754 10.4569 29.2444C10.4066 29.38 10.3513 29.5135 10.2949 29.6466C10.0116 29.6654 9.72872 29.6633 9.44536 29.6608C6.82149 29.6603 4.19813 29.6608 1.57426 29.6603C1.27008 29.6608 0.966411 29.6669 0.662231 29.6491C0.874497 29.0413 1.1279 28.4481 1.34981 27.8433C1.64485 27.8251 1.93938 27.8317 2.23442 27.8327C3.80864 27.8322 5.38286 27.8327 6.95708 27.8322C7.25618 27.8337 7.55426 27.8398 7.85286 27.8169C7.97981 27.4889 8.09762 27.1573 8.21036 26.8242C6.38782 26.8196 4.56477 26.8242 2.74223 26.8221C2.40555 26.8211 2.0709 26.8292 1.73422 26.8145C1.87387 26.4072 2.04907 26.0137 2.19887 25.61C2.27504 25.4023 2.35528 25.1966 2.4477 24.9955C4.20422 24.9813 5.96227 24.9945 7.71879 24.9894C8.12403 24.9854 8.52571 25.0021 8.92942 24.9783C9.06196 24.6847 9.17622 24.3841 9.28489 24.0815C7.47555 24.0744 5.66469 24.0794 3.85536 24.0794C3.78426 24.0749 3.69946 24.0764 3.63446 24.0429C3.53543 23.9576 3.45875 23.8413 3.37903 23.7377C3.0261 23.2583 2.65336 22.7942 2.29231 22.3224C2.25016 22.2625 2.21461 22.2005 2.32176 22.2Z" fill="black" stroke="#4678FF" stroke-width="17.7778"/>
<path d="M14.2188 22.1975C17.6663 22.2021 21.1159 22.1945 24.5629 22.2016C24.4385 22.5834 24.2795 22.9506 24.1358 23.3254C23.3269 25.4333 22.5215 27.5351 21.709 29.6415C21.4297 29.6679 21.1509 29.6639 20.8711 29.6613C18.2472 29.6608 15.6239 29.6613 13 29.6608C12.6918 29.6608 12.3845 29.6679 12.0763 29.6497C12.1682 29.3602 12.2881 29.0824 12.3962 28.7991C12.5201 28.4797 12.6308 28.1557 12.7634 27.8398C13.0284 27.8281 13.2935 27.8307 13.5586 27.8322C15.2344 27.8332 16.9102 27.8312 18.5859 27.8332C18.7992 27.8307 19.0201 27.8479 19.2319 27.817C19.2888 27.7509 19.3233 27.6595 19.3558 27.5793C19.4482 27.331 19.5396 27.0837 19.6112 26.8277C17.9156 26.815 16.219 26.8262 14.5234 26.8222C14.0664 26.8181 13.6084 26.8328 13.1518 26.814C13.3022 26.3519 13.5038 25.9076 13.6678 25.4495C13.7282 25.3018 13.7744 25.123 13.879 25.0001C14.1081 24.9742 14.3437 24.9935 14.5742 24.9905C16.1484 24.9905 17.7227 24.99 19.2969 24.99C19.6483 24.9884 19.9972 25.0011 20.3481 24.9768C20.4735 24.6807 20.5908 24.3831 20.702 24.0815C18.8952 24.0749 17.0879 24.0805 15.2811 24.0789C15.1846 24.0698 15.0673 24.0835 15.0018 23.9972C14.8403 23.8195 14.7063 23.6163 14.5565 23.4284C14.2553 23.0212 13.9268 22.6322 13.6358 22.2183C13.8267 22.1894 14.0258 22.197 14.2188 22.1975Z" fill="black" stroke="#4678FF" stroke-width="17.7778"/>
<path d="M25.0844 22.2005C28.7228 22.199 32.3644 22.196 36.0028 22.2021C35.9541 22.3498 35.9023 22.4966 35.8459 22.6418C35.2442 24.2074 34.6444 25.7735 34.0417 27.3386C33.7446 28.1084 33.4602 28.8839 33.1474 29.6471C32.864 29.6664 32.5807 29.6629 32.2968 29.6608C29.673 29.6608 27.0496 29.6608 24.4257 29.6608C24.1348 29.6618 23.8448 29.6664 23.5543 29.6491C23.6437 29.3282 23.7762 29.0266 23.8925 28.7153C24.0819 28.2136 24.2851 27.7174 24.4724 27.2152C24.8762 26.1341 25.3037 25.0626 25.7095 23.9825C25.7862 23.7626 25.9045 23.5427 25.9421 23.3127C25.9096 23.2233 25.841 23.1436 25.7831 23.0694C25.5455 22.782 25.3027 22.5007 25.0844 22.2005ZM27.3827 27.822C27.9875 27.8444 28.5939 27.8261 29.1992 27.8322C29.7044 27.8271 30.2102 27.8439 30.715 27.8225C30.8186 27.5966 30.9049 27.365 30.9892 27.1319C31.3005 26.3108 31.6189 25.4927 31.9363 24.6746C32.014 24.4806 32.0856 24.2846 32.1455 24.0845C31.1807 24.0683 30.2148 24.0861 29.2499 24.0759C29.1098 24.0774 28.9615 24.0683 28.8244 24.0977C28.7767 24.1739 28.7421 24.2607 28.7091 24.344C28.3364 25.3368 27.954 26.327 27.5686 27.3152C27.5026 27.4828 27.4406 27.6514 27.3827 27.822Z" fill="black" stroke="#4678FF" stroke-width="17.7778"/>
<path d="M36.5848 22.2137C36.7565 22.1787 36.9459 22.202 37.1216 22.1975C41.8722 22.2026 46.6263 22.1944 51.3769 22.2015C51.1453 22.8475 50.8767 23.4802 50.6411 24.1246C49.9383 25.9654 49.2253 27.8032 48.5235 29.644C48.2097 29.6704 47.8963 29.6608 47.582 29.6608C46.8533 29.6527 46.1226 29.6765 45.3943 29.6486C45.5025 29.3099 45.6417 28.9884 45.7676 28.6553C46.186 27.5376 46.6268 26.4291 47.0468 25.3124C47.2032 24.8848 47.3845 24.4659 47.5297 24.0347C46.8452 24.0302 46.1586 24.0226 45.4746 24.0383C45.3415 24.3536 45.2283 24.6756 45.1054 24.9945C44.7362 25.9766 44.3462 26.9506 43.9806 27.9342C43.7536 28.5045 43.55 29.0854 43.3077 29.6496C42.904 29.6725 42.5029 29.6567 42.0976 29.6608C41.4664 29.6547 40.8332 29.675 40.2025 29.6481C40.2604 29.4521 40.3269 29.2601 40.402 29.0707C40.9886 27.5717 41.5487 26.0634 42.1372 24.5654C42.2073 24.3917 42.2662 24.2155 42.3175 24.0358C41.6431 24.0286 40.9647 24.0246 40.2908 24.0378C39.8191 25.2169 39.3829 26.4123 38.9187 27.5945C38.6481 28.277 38.4114 28.9732 38.127 29.6496C37.7233 29.6715 37.3222 29.6577 36.9179 29.6608C36.2786 29.6547 35.6377 29.674 34.9984 29.6491C35.7124 27.7682 36.4406 25.8872 37.1602 24.0073C37.2399 23.7798 37.3658 23.5518 37.4049 23.3136C37.3557 23.1958 37.2607 23.0933 37.182 22.9942C37.0007 22.7809 36.827 22.5616 36.6508 22.3437C36.629 22.3092 36.5726 22.2584 36.5848 22.2137Z" fill="black" stroke="#4678FF" stroke-width="17.7778"/>
<path d="M28.8245 24.0977C28.9616 24.0683 29.1099 24.0774 29.25 24.0759C30.2149 24.086 31.1807 24.0683 32.1456 24.0845C32.0857 24.2846 32.0141 24.4806 31.9364 24.6746C31.619 25.4927 31.3006 26.3108 30.9893 27.1319C30.905 27.365 30.8187 27.5966 30.7151 27.8225C30.2103 27.8439 29.7045 27.8271 29.1993 27.8322C28.5939 27.8261 27.9876 27.8444 27.3828 27.822C27.4407 27.6514 27.5027 27.4828 27.5687 27.3152C27.9541 26.327 28.3365 25.3368 28.7092 24.344C28.7422 24.2607 28.7768 24.1739 28.8245 24.0977Z" fill="black" stroke="black" stroke-width="17.7778"/>
<path d="M7.70658 31.6271C7.84268 31.6189 7.9808 31.6291 8.1169 31.6347C8.2794 32.0689 8.42006 32.5096 8.60186 32.9362C9.10764 34.1905 9.7617 35.3981 10.5381 36.5056C10.5458 36.3665 10.5519 36.2268 10.5595 36.0872C10.9165 36.0704 11.2719 36.0806 11.6289 36.079C13.8638 36.0775 16.0992 36.0811 18.3341 36.077C18.2848 35.7515 18.1807 35.4448 18.1051 35.1254C17.9451 34.4551 17.8075 33.7792 17.6795 33.1023C17.5932 32.6112 17.5008 32.1318 17.4546 31.6398C17.6231 31.6286 17.7887 31.6286 17.9578 31.6413C18.1741 33.1414 18.4636 34.615 18.8937 36.0699C19.1801 36.0836 19.467 36.0801 19.7539 36.0785C23.5965 36.0785 27.4387 36.079 31.2813 36.0785C31.652 36.075 32.0171 36.0928 32.3878 36.0648C32.824 34.6115 33.0876 33.1368 33.3222 31.6408C33.4953 31.6286 33.666 31.6276 33.8391 31.6372C33.6619 32.8712 33.4293 34.096 33.1231 35.3041C33.054 35.5606 32.9799 35.8124 32.9571 36.078C35.2249 36.0801 37.4938 36.078 39.7617 36.079C40.1055 36.0801 40.4488 36.0714 40.7926 36.0872C40.8012 36.1933 40.8088 36.2994 40.817 36.4056C41.1186 36.0024 41.369 35.5575 41.6249 35.1244C42.2465 34.0514 42.7274 32.9199 43.1316 31.7494C43.3103 31.7215 43.4901 31.7053 43.6709 31.6956C42.799 34.5439 41.1836 37.1795 39.0985 39.3016C37.7437 40.6671 36.1974 41.8214 34.4993 42.7263C32.1151 43.9953 29.4567 44.7342 26.7617 44.8952C26.1706 44.9317 25.576 44.9216 24.9844 44.9155C22.5814 44.8282 20.184 44.2894 17.9878 43.3062C16.5506 42.6755 15.1963 41.8503 13.9623 40.8814C11.0058 38.5602 8.76334 35.3448 7.63244 31.7581C7.61162 31.6834 7.62533 31.6423 7.70658 31.6271ZM10.6306 36.6026C10.8322 36.9682 11.1191 37.2983 11.3786 37.6253C13.3565 40.0593 15.9601 41.9732 18.8764 43.1275C20.3232 43.6907 21.8116 44.0939 23.3569 44.2655C22.4027 43.6825 21.641 42.8781 20.996 41.9732C20.0358 40.6118 19.3289 39.0447 18.7926 37.4725C18.6896 37.179 18.6144 36.8799 18.4935 36.5924C16.1546 36.5889 13.8156 36.593 11.4766 36.5904C11.1937 36.5899 10.9129 36.5848 10.6306 36.6026ZM19.0694 36.5996C19.1694 37.0673 19.3497 37.5217 19.5142 37.9701C20.117 39.5677 20.9229 41.1963 22.0543 42.4882C22.7744 43.3032 23.693 44.0375 24.7706 44.2934C25.5572 44.4971 26.3824 44.4016 27.1263 44.0883C28.013 43.7176 28.7803 43.0198 29.3927 42.2916C30.4652 40.9926 31.2208 39.422 31.8089 37.8518C31.9531 37.44 32.1197 37.0256 32.2162 36.6006C31.8871 36.5823 31.5596 36.5914 31.2305 36.5914C27.4727 36.5909 23.7149 36.5914 19.9571 36.5909C19.661 36.5909 19.3654 36.5853 19.0694 36.5996ZM27.9338 44.267C32.1374 43.7704 36.1111 41.7325 39.0076 38.6516C39.4997 38.1423 39.9506 37.5908 40.3803 37.0282C40.4838 36.8936 40.5747 36.7509 40.6585 36.6031C40.5453 36.5965 40.4326 36.5914 40.3193 36.5899C38.0347 36.5924 35.7495 36.5914 33.4649 36.5904C33.249 36.594 33.0256 36.5732 32.8123 36.6062C32.7473 36.6397 32.728 36.7443 32.7001 36.8078C32.2583 38.2332 31.7007 39.6155 30.9593 40.9129C30.3581 41.9417 29.6624 42.903 28.7442 43.6739C28.4883 43.8938 28.2075 44.0715 27.9338 44.267Z" fill="black" stroke="#4678FF" stroke-width="17.7778"/>
<path d="M10.6305 36.6026C10.9128 36.5849 11.1937 36.5899 11.4765 36.5904C13.8155 36.593 16.1545 36.5889 18.4935 36.5925C18.6143 36.8799 18.6895 37.179 18.7926 37.4725C19.3288 39.0447 20.0357 40.6118 20.996 41.9733C21.6409 42.8782 22.4026 43.6826 23.3568 44.2655C21.8115 44.0939 20.3231 43.6907 18.8764 43.1275C15.96 41.9733 13.3564 40.0593 11.3785 37.6254C11.119 37.2983 10.8321 36.9683 10.6305 36.6026Z" fill="black" stroke="black" stroke-width="17.7778"/>
<path d="M19.0693 36.5996C19.3654 36.5854 19.6609 36.5909 19.957 36.5909C23.7148 36.5915 27.4726 36.5909 31.2304 36.5915C31.5595 36.5915 31.887 36.5823 32.2161 36.6006C32.1196 37.0256 31.953 37.44 31.8088 37.8518C31.2208 39.422 30.4652 40.9927 29.3927 42.2917C28.7802 43.0199 28.0129 43.7176 27.1263 44.0883C26.3823 44.4016 25.5571 44.4971 24.7705 44.2934C23.693 44.0375 22.7743 43.3032 22.0543 42.4882C20.9229 41.1963 20.117 39.5677 19.5142 37.9702C19.3496 37.5218 19.1694 37.0673 19.0693 36.5996Z" fill="black" stroke="black" stroke-width="17.7778"/>
<path d="M32.8123 36.6062C33.0256 36.5732 33.249 36.594 33.4648 36.5904C35.7495 36.5915 38.0346 36.5925 40.3193 36.5899C40.4325 36.5915 40.5452 36.5965 40.6585 36.6031C40.5747 36.7509 40.4838 36.8936 40.3802 37.0282C39.9506 37.5908 39.4997 38.1423 39.0076 38.6517C36.111 41.7325 32.1374 43.7704 27.9337 44.267C28.2074 44.0715 28.4882 43.8938 28.7442 43.6739C29.6623 42.9031 30.358 41.9418 30.9593 40.9129C31.7007 39.6155 32.2582 38.2332 32.7 36.8078C32.728 36.7443 32.7473 36.6397 32.8123 36.6062Z" fill="black" stroke="black" stroke-width="17.7778"/>
<path d="M0 0H52V52H0V0ZM7.72637 20.0271C7.84519 20.0454 7.96352 20.0637 8.08234 20.0814C8.09098 20.2079 8.09859 20.3348 8.10621 20.4613C8.45356 19.4223 8.85625 18.4158 9.37523 17.4495C9.72207 16.802 10.0912 16.1571 10.529 15.5665C13.1742 15.5705 15.8209 15.5639 18.4656 15.5695C18.0385 17.0396 17.7257 18.5357 17.4921 20.0484C17.6683 20.0713 17.8298 20.0672 18.0055 20.0423C18.0725 19.7275 18.1157 19.4091 18.1695 19.0917C18.3676 17.9014 18.6712 16.738 18.9947 15.5771C19.2816 15.5614 19.568 15.5665 19.8555 15.5675C23.7148 15.5675 27.5742 15.5675 31.4336 15.5675C31.7109 15.5665 31.9881 15.5639 32.2654 15.5721C32.7422 17.0386 33.0083 18.5311 33.2739 20.0454C33.4369 20.0464 33.5999 20.0464 33.7629 20.0439C33.7462 19.6772 33.667 19.3258 33.606 18.9648C33.4024 17.8196 33.1236 16.6918 32.8159 15.5711C35.2996 15.5609 37.7853 15.5716 40.269 15.5655C40.427 15.567 40.592 15.5538 40.7479 15.5807C40.8134 15.6244 40.8637 15.6985 40.9094 15.7615C41.7366 17.0021 42.4191 18.3336 42.9279 19.7356C42.9569 19.7976 42.9807 19.888 43.0396 19.9276C43.1905 19.9834 43.3753 19.9748 43.5343 19.9779C43.2331 18.8957 42.6893 17.8278 42.1693 16.835C41.9478 16.4369 41.7 16.053 41.4614 15.6645C40.5818 14.3528 39.5703 13.1396 38.3993 12.0768C36.2517 10.11 33.6507 8.64703 30.8486 7.84977C27.6539 6.93824 24.2252 6.88289 21.0052 7.69996C18.0263 8.4434 15.244 9.94398 12.9695 12.0042C11.1937 13.6094 9.72309 15.5589 8.66836 17.7079C8.30781 18.458 7.96605 19.2293 7.72637 20.0271ZM9.28484 24.0815C9.17617 24.3841 9.06191 24.6848 8.92937 24.9783C8.52566 25.0021 8.12398 24.9854 7.71875 24.9895C5.96223 24.9945 4.20418 24.9813 2.44766 24.9955C2.35523 25.1966 2.275 25.4023 2.19883 25.61C2.04902 26.0137 1.87383 26.4073 1.73418 26.8145C2.07086 26.8293 2.40551 26.8211 2.74219 26.8221C4.56473 26.8242 6.38777 26.8196 8.21031 26.8242C8.09758 27.1573 7.97977 27.4889 7.85281 27.817C7.55422 27.8398 7.25613 27.8337 6.95703 27.8322C5.38281 27.8327 3.80859 27.8322 2.23438 27.8327C1.93934 27.8317 1.6448 27.8251 1.34977 27.8434C1.12785 28.4482 0.874453 29.0413 0.662188 29.6491C0.966367 29.6669 1.27004 29.6608 1.57422 29.6603C4.19809 29.6608 6.82145 29.6603 9.44531 29.6608C9.72867 29.6634 10.0115 29.6654 10.2949 29.6466C10.3512 29.5136 10.4066 29.38 10.4569 29.2444C10.887 28.0754 11.3562 26.9217 11.7894 25.7537C12.1139 24.9239 12.4333 24.0921 12.7476 23.2583C12.8812 22.9044 13.0305 22.5616 13.1493 22.2031C9.55652 22.1945 5.91855 22.2 2.32172 22.2C2.21457 22.2005 2.25012 22.2625 2.29227 22.3224C2.65332 22.7942 3.02605 23.2583 3.37898 23.7377C3.45871 23.8413 3.53539 23.9576 3.63441 24.0429C3.69941 24.0764 3.78422 24.0749 3.85531 24.0795C5.66465 24.0795 7.47551 24.0744 9.28484 24.0815ZM13.6358 22.2183C13.9268 22.6322 14.2553 23.0212 14.5564 23.4284C14.7062 23.6163 14.8403 23.8195 15.0018 23.9972C15.0673 24.0835 15.1846 24.0698 15.2811 24.0789C17.0879 24.0805 18.8952 24.0749 20.702 24.0815C20.5908 24.3831 20.4735 24.6807 20.348 24.9768C19.9971 25.0011 19.6483 24.9884 19.2969 24.99C17.7227 24.99 16.1484 24.9905 14.5742 24.9905C14.3437 24.9935 14.108 24.9742 13.879 25.0001C13.7744 25.123 13.7282 25.3018 13.6678 25.4495C13.5037 25.9076 13.3021 26.3519 13.1518 26.814C13.6084 26.8328 14.0664 26.8181 14.5234 26.8221C16.219 26.8262 17.9156 26.815 19.6112 26.8277C19.5396 27.0837 19.4482 27.331 19.3558 27.5793C19.3233 27.6595 19.2887 27.7509 19.2319 27.817C19.0201 27.8479 18.7992 27.8307 18.5859 27.8332C16.9102 27.8312 15.2344 27.8332 13.5586 27.8322C13.2935 27.8307 13.0284 27.8281 12.7634 27.8398C12.6308 28.1557 12.5201 28.4796 12.3962 28.7991C12.288 29.0824 12.1682 29.3602 12.0763 29.6496C12.3845 29.6679 12.6918 29.6608 13 29.6608C15.6239 29.6613 18.2472 29.6608 20.8711 29.6613C21.1509 29.6639 21.4297 29.6679 21.709 29.6415C22.5215 27.5351 23.3269 25.4333 24.1358 23.3254C24.2795 22.9506 24.4385 22.5834 24.5629 22.2016C21.1159 22.1945 17.6663 22.2021 14.2188 22.1975C14.0258 22.197 13.8267 22.1894 13.6358 22.2183ZM25.0844 22.2005C25.3028 22.5007 25.5455 22.782 25.7832 23.0694C25.8411 23.1436 25.9096 23.2233 25.9421 23.3127C25.9045 23.5427 25.7862 23.7626 25.7095 23.9825C25.3038 25.0626 24.8762 26.1341 24.4725 27.2152C24.2851 27.7174 24.082 28.2136 23.8926 28.7153C23.7763 29.0266 23.6437 29.3282 23.5544 29.6491C23.8448 29.6664 24.1348 29.6618 24.4258 29.6608C27.0496 29.6608 29.673 29.6608 32.2969 29.6608C32.5807 29.6629 32.8641 29.6664 33.1475 29.6471C33.4603 28.8839 33.7446 28.1084 34.0417 27.3386C34.6445 25.7735 35.2442 24.2074 35.846 22.6418C35.9023 22.4966 35.9541 22.3498 36.0029 22.2021C32.3644 22.196 28.7229 22.199 25.0844 22.2005ZM34.9984 29.6491C35.6378 29.674 36.2786 29.6547 36.918 29.6608C37.3222 29.6578 37.7234 29.6715 38.1271 29.6496C38.4114 28.9732 38.6481 28.277 38.9188 27.5945C39.3829 26.4123 39.8191 25.217 40.2909 24.0378C40.9647 24.0246 41.6432 24.0287 42.3175 24.0358C42.2663 24.2155 42.2073 24.3918 42.1373 24.5654C41.5487 26.0635 40.9886 27.5717 40.4021 29.0707C40.3269 29.2602 40.2604 29.4521 40.2025 29.6481C40.8332 29.675 41.4664 29.6547 42.0977 29.6608C42.5029 29.6568 42.9041 29.6725 43.3078 29.6496C43.55 29.0855 43.7536 28.5045 43.9806 27.9343C44.3463 26.9506 44.7362 25.9766 45.1054 24.9945C45.2283 24.6756 45.3416 24.3537 45.4746 24.0383C46.1586 24.0226 46.8452 24.0302 47.5297 24.0348C47.3845 24.4659 47.2032 24.8848 47.0468 25.3124C46.6268 26.4291 46.1861 27.5377 45.7676 28.6553C45.6417 28.9885 45.5025 29.3099 45.3944 29.6486C46.1226 29.6766 46.8533 29.6527 47.582 29.6608C47.8964 29.6608 48.2097 29.6705 48.5235 29.6441C49.2253 27.8032 49.9383 25.9655 50.6411 24.1246C50.8767 23.4802 51.1454 22.8475 51.3769 22.2016C46.6263 22.1945 41.8722 22.2026 37.1216 22.1975C36.9459 22.2021 36.7565 22.1787 36.5848 22.2138C36.5727 22.2584 36.629 22.3092 36.6509 22.3438C36.8271 22.5616 37.0007 22.781 37.182 22.9943C37.2607 23.0933 37.3557 23.1959 37.405 23.3137C37.3659 23.5518 37.2399 23.7798 37.1602 24.0073C36.4406 25.8873 35.7124 27.7682 34.9984 29.6491ZM43.6709 31.6956C43.4901 31.7053 43.3103 31.7215 43.1316 31.7495C42.7273 32.92 42.2464 34.0514 41.6249 35.1244C41.3689 35.5575 41.1186 36.0024 40.817 36.4056C40.8088 36.2994 40.8012 36.1933 40.7926 36.0872C40.4488 36.0714 40.1055 36.0801 39.7617 36.0791C37.4938 36.078 35.2249 36.0801 32.957 36.078C32.9799 35.8125 33.054 35.5606 33.1231 35.3041C33.4293 34.0961 33.6619 32.8712 33.8391 31.6372C33.6659 31.6276 33.4953 31.6286 33.3221 31.6408C33.0875 33.1368 32.824 34.6115 32.3878 36.0648C32.0171 36.0928 31.652 36.075 31.2812 36.0786C27.4386 36.0791 23.5965 36.0786 19.7539 36.0786C19.467 36.0801 19.1801 36.0836 18.8937 36.0699C18.4636 34.615 18.1741 33.1414 17.9578 31.6413C17.7887 31.6286 17.6231 31.6286 17.4545 31.6398C17.5007 32.1318 17.5932 32.6112 17.6795 33.1023C17.8075 33.7792 17.9451 34.4551 18.105 35.1254C18.1807 35.4448 18.2848 35.7515 18.3341 36.077C16.0992 36.0811 13.8638 36.0775 11.6289 36.0791C11.2719 36.0806 10.9164 36.0704 10.5595 36.0872C10.5518 36.2268 10.5457 36.3665 10.5381 36.5056C9.76168 35.3981 9.10762 34.1905 8.60184 32.9362C8.42004 32.5097 8.27938 32.0689 8.11687 31.6347C7.98078 31.6291 7.84266 31.6189 7.70656 31.6271C7.62531 31.6423 7.6116 31.6834 7.63242 31.7581C8.76332 35.3448 11.0058 38.5602 13.9623 40.8814C15.1963 41.8503 16.5506 42.6755 17.9877 43.3062C20.184 44.2894 22.5814 44.8282 24.9844 44.9155C25.576 44.9216 26.1706 44.9318 26.7617 44.8952C29.4567 44.7342 32.1151 43.9954 34.4993 42.7263C36.1974 41.8214 37.7437 40.6671 39.0985 39.3016C41.1836 37.1795 42.7989 34.5439 43.6709 31.6956Z" fill="black"/>
<path d="M30.8485 7.84974C33.6507 8.647 36.2517 10.11 38.3992 12.0768C39.5702 13.1396 40.5818 14.3528 41.4613 15.6645C41.7 16.0529 41.9478 16.4368 42.1692 16.835C42.6892 17.8277 43.2331 18.8957 43.5342 19.9778C43.3753 19.9748 43.1904 19.9834 43.0396 19.9275C42.9807 19.8879 42.9568 19.7975 42.9279 19.7356C42.4191 18.3335 41.7365 17.002 40.9093 15.7615C40.8636 15.6985 40.8134 15.6243 40.7478 15.5807C40.5919 15.5538 40.4269 15.567 40.269 15.5654C37.7853 15.5715 35.2995 15.5609 32.8158 15.571C33.1235 16.6918 33.4023 17.8196 33.606 18.9647C33.6669 19.3258 33.7461 19.6772 33.7629 20.0438C33.5999 20.0464 33.4369 20.0464 33.2739 20.0454C33.0083 18.5311 32.7422 17.0386 32.2653 15.572C31.9881 15.5639 31.7108 15.5665 31.4335 15.5675C27.5742 15.5675 23.7148 15.5675 19.8554 15.5675C19.568 15.5665 19.2816 15.5614 18.9947 15.5771C18.6712 16.738 18.3675 17.9014 18.1695 19.0917C18.1157 19.4091 18.0725 19.7275 18.0055 20.0423C17.8298 20.0672 17.6683 20.0713 17.4921 20.0484C17.7257 18.5356 18.0385 17.0396 18.4655 15.5695C15.8209 15.5639 13.1741 15.5705 10.5289 15.5665C10.0912 16.157 9.72202 16.802 9.37519 17.4494C8.8562 18.4158 8.45351 19.4223 8.10616 20.4613C8.09855 20.3348 8.09093 20.2079 8.0823 20.0814C7.96347 20.0636 7.84515 20.0454 7.72632 20.0271C7.96601 19.2293 8.30776 18.4579 8.66831 17.7079C9.72304 15.5588 11.1937 13.6093 12.9695 12.0041C15.244 9.94395 18.0263 8.44337 21.0051 7.69993C24.2251 6.88286 27.6539 6.93821 30.8485 7.84974ZM19.1617 15.0612C23.2496 15.0683 27.3451 15.0612 31.4335 15.0647C31.6539 15.0663 31.8743 15.0663 32.0947 15.0602C32.0145 14.6966 31.8748 14.3675 31.7443 14.0095C31.1172 12.3845 30.3291 10.792 29.1631 9.48083C28.5735 8.81661 27.8311 8.21993 26.9983 7.89544C26.198 7.58161 25.2976 7.55063 24.4816 7.82536C23.4208 8.16509 22.5067 8.97911 21.8161 9.83173C20.5978 11.3389 19.7696 13.2331 19.1617 15.0612ZM10.922 15.0495C11.2267 15.0724 11.5273 15.0627 11.832 15.0632C13.7957 15.0632 15.7589 15.0637 17.7226 15.0632C18.0253 15.0642 18.3274 15.0708 18.6301 15.052C18.8027 14.5615 18.9459 14.0781 19.1425 13.5972C19.566 12.5414 20.0611 11.4821 20.6837 10.5279C21.2026 9.71645 21.8207 8.96083 22.5605 8.3413C22.7982 8.1397 23.0587 7.97466 23.308 7.78981C23.1562 7.80149 23.0054 7.81774 22.8551 7.8411C20.5562 8.19606 18.3203 8.98876 16.318 10.1735C14.4355 11.282 12.7557 12.7298 11.377 14.4239C11.2104 14.6229 11.0459 14.8195 10.922 15.0495ZM32.6533 15.0551C32.9407 15.0693 33.2282 15.0642 33.5156 15.0632C35.496 15.0632 37.4765 15.0632 39.457 15.0632C39.7607 15.0627 40.0618 15.0729 40.365 15.05C40.3142 14.9611 40.2634 14.8733 40.2045 14.7895C38.4094 12.4718 36.0663 10.5858 33.4064 9.35032C31.7804 8.58962 30.0366 8.07419 28.2602 7.81571C28.1673 7.80352 28.0744 7.7954 27.9809 7.78931C28.2008 7.97212 28.4491 8.11583 28.6685 8.29966C29.5983 9.06442 30.3209 10.0359 30.9273 11.0688C31.5773 12.1951 32.0871 13.391 32.5015 14.6219C32.5502 14.7672 32.602 14.9109 32.6533 15.0551Z" fill="#4678FF"/>
<path d="M26.9983 7.89549C27.8311 8.21999 28.5735 8.81667 29.1631 9.48088C30.329 10.7921 31.1172 12.3846 31.7443 14.0096C31.8748 14.3676 32.0145 14.6966 32.0947 15.0602C31.8743 15.0663 31.6539 15.0663 31.4335 15.0648C27.3451 15.0612 23.2496 15.0683 19.1617 15.0612C19.7696 13.2331 20.5978 11.339 21.8161 9.83178C22.5067 8.97917 23.4208 8.16514 24.4816 7.82542C25.2976 7.55069 26.198 7.58167 26.9983 7.89549Z" fill="black"/>
<path d="M23.3081 7.78986C23.0587 7.9747 22.7982 8.13974 22.5606 8.34134C21.8207 8.96087 21.2027 9.7165 20.6837 10.528C20.0611 11.4822 19.566 12.5415 19.1425 13.5972C18.9459 14.0781 18.8027 14.5615 18.6301 15.0521C18.3274 15.0709 18.0253 15.0643 17.7226 15.0633C15.7589 15.0638 13.7957 15.0633 11.832 15.0633C11.5273 15.0627 11.2267 15.0724 10.922 15.0495C11.0459 14.8195 11.2104 14.623 11.377 14.4239C12.7557 12.7299 14.4356 11.2821 16.318 10.1735C18.3203 8.9888 20.5562 8.19611 22.8551 7.84115C23.0054 7.81779 23.1562 7.80154 23.3081 7.78986Z" fill="black"/>
<path d="M27.981 7.78931C28.0744 7.7954 28.1673 7.80353 28.2603 7.81571C30.0366 8.07419 31.7804 8.58962 33.4064 9.35032C36.0663 10.5858 38.4094 12.4718 40.2045 14.7895C40.2634 14.8733 40.3142 14.9611 40.365 15.05C40.0618 15.0729 39.7607 15.0627 39.457 15.0632C37.4765 15.0632 35.4961 15.0632 33.5156 15.0632C33.2282 15.0642 32.9408 15.0693 32.6533 15.0551C32.6021 14.9109 32.5503 14.7672 32.5015 14.6219C32.0871 13.391 31.5773 12.1951 30.9273 11.0688C30.321 10.0359 29.5983 9.06442 28.6685 8.29966C28.4492 8.11583 28.2008 7.97212 27.981 7.78931Z" fill="black"/>
<path d="M2.32176 22.2C5.9186 22.2 9.55657 22.1944 13.1493 22.2031C13.0305 22.5616 12.8812 22.9044 12.7477 23.2583C12.4333 24.0921 12.1139 24.9239 11.7894 25.7537C11.3563 26.9217 10.887 28.0754 10.4569 29.2444C10.4066 29.38 10.3513 29.5135 10.2949 29.6466C10.0116 29.6654 9.72872 29.6633 9.44536 29.6608C6.82149 29.6603 4.19813 29.6608 1.57426 29.6603C1.27008 29.6608 0.966411 29.6669 0.662231 29.6491C0.874497 29.0413 1.1279 28.4481 1.34981 27.8433C1.64485 27.8251 1.93938 27.8317 2.23442 27.8327C3.80864 27.8322 5.38286 27.8327 6.95708 27.8322C7.25618 27.8337 7.55426 27.8398 7.85286 27.8169C7.97981 27.4889 8.09762 27.1573 8.21036 26.8242C6.38782 26.8196 4.56477 26.8242 2.74223 26.8221C2.40555 26.8211 2.0709 26.8292 1.73422 26.8145C1.87387 26.4072 2.04907 26.0137 2.19887 25.61C2.27504 25.4023 2.35528 25.1966 2.4477 24.9955C4.20422 24.9813 5.96227 24.9945 7.71879 24.9894C8.12403 24.9854 8.52571 25.0021 8.92942 24.9783C9.06196 24.6847 9.17622 24.3841 9.28489 24.0815C7.47555 24.0744 5.66469 24.0794 3.85536 24.0794C3.78426 24.0749 3.69946 24.0764 3.63446 24.0429C3.53543 23.9576 3.45875 23.8413 3.37903 23.7377C3.0261 23.2583 2.65336 22.7942 2.29231 22.3224C2.25016 22.2625 2.21461 22.2005 2.32176 22.2Z" fill="#4678FF"/>
<path d="M14.2188 22.1975C17.6663 22.2021 21.1159 22.1945 24.5629 22.2016C24.4385 22.5834 24.2795 22.9506 24.1358 23.3254C23.3269 25.4333 22.5215 27.5351 21.709 29.6415C21.4297 29.6679 21.1509 29.6639 20.8711 29.6613C18.2472 29.6608 15.6239 29.6613 13 29.6608C12.6918 29.6608 12.3845 29.6679 12.0763 29.6497C12.1682 29.3602 12.2881 29.0824 12.3962 28.7991C12.5201 28.4797 12.6308 28.1557 12.7634 27.8398C13.0284 27.8281 13.2935 27.8307 13.5586 27.8322C15.2344 27.8332 16.9102 27.8312 18.5859 27.8332C18.7992 27.8307 19.0201 27.8479 19.2319 27.817C19.2888 27.7509 19.3233 27.6595 19.3558 27.5793C19.4482 27.331 19.5396 27.0837 19.6112 26.8277C17.9156 26.815 16.219 26.8262 14.5234 26.8222C14.0664 26.8181 13.6084 26.8328 13.1518 26.814C13.3022 26.3519 13.5038 25.9076 13.6678 25.4495C13.7282 25.3018 13.7744 25.123 13.879 25.0001C14.1081 24.9742 14.3437 24.9935 14.5742 24.9905C16.1484 24.9905 17.7227 24.99 19.2969 24.99C19.6483 24.9884 19.9972 25.0011 20.3481 24.9768C20.4735 24.6807 20.5908 24.3831 20.702 24.0815C18.8952 24.0749 17.0879 24.0805 15.2811 24.0789C15.1846 24.0698 15.0673 24.0835 15.0018 23.9972C14.8403 23.8195 14.7063 23.6163 14.5565 23.4284C14.2553 23.0212 13.9268 22.6322 13.6358 22.2183C13.8267 22.1894 14.0258 22.197 14.2188 22.1975Z" fill="#4678FF"/>
<path d="M25.0844 22.2005C28.7228 22.199 32.3644 22.196 36.0028 22.2021C35.9541 22.3498 35.9023 22.4966 35.8459 22.6418C35.2442 24.2074 34.6444 25.7735 34.0417 27.3386C33.7446 28.1084 33.4602 28.8839 33.1474 29.6471C32.864 29.6664 32.5807 29.6629 32.2968 29.6608C29.673 29.6608 27.0496 29.6608 24.4257 29.6608C24.1348 29.6618 23.8448 29.6664 23.5543 29.6491C23.6437 29.3282 23.7762 29.0266 23.8925 28.7153C24.0819 28.2136 24.2851 27.7174 24.4724 27.2152C24.8762 26.1341 25.3037 25.0626 25.7095 23.9825C25.7862 23.7626 25.9045 23.5427 25.9421 23.3127C25.9096 23.2233 25.841 23.1436 25.7831 23.0694C25.5455 22.782 25.3027 22.5007 25.0844 22.2005ZM27.3827 27.822C27.9875 27.8444 28.5939 27.8261 29.1992 27.8322C29.7044 27.8271 30.2102 27.8439 30.715 27.8225C30.8186 27.5966 30.9049 27.365 30.9892 27.1319C31.3005 26.3108 31.6189 25.4927 31.9363 24.6746C32.014 24.4806 32.0856 24.2846 32.1455 24.0845C31.1807 24.0683 30.2148 24.0861 29.2499 24.0759C29.1098 24.0774 28.9615 24.0683 28.8244 24.0977C28.7767 24.1739 28.7421 24.2607 28.7091 24.344C28.3364 25.3368 27.954 26.327 27.5686 27.3152C27.5026 27.4828 27.4406 27.6514 27.3827 27.822Z" fill="#4678FF"/>
<path d="M36.5848 22.2137C36.7565 22.1787 36.9459 22.202 37.1216 22.1975C41.8722 22.2026 46.6263 22.1944 51.3769 22.2015C51.1453 22.8475 50.8767 23.4802 50.6411 24.1246C49.9383 25.9654 49.2253 27.8032 48.5235 29.644C48.2097 29.6704 47.8963 29.6608 47.582 29.6608C46.8533 29.6527 46.1226 29.6765 45.3943 29.6486C45.5025 29.3099 45.6417 28.9884 45.7676 28.6553C46.186 27.5376 46.6268 26.4291 47.0468 25.3124C47.2032 24.8848 47.3845 24.4659 47.5297 24.0347C46.8452 24.0302 46.1586 24.0226 45.4746 24.0383C45.3415 24.3536 45.2283 24.6756 45.1054 24.9945C44.7362 25.9766 44.3462 26.9506 43.9806 27.9342C43.7536 28.5045 43.55 29.0854 43.3077 29.6496C42.904 29.6725 42.5029 29.6567 42.0976 29.6608C41.4664 29.6547 40.8332 29.675 40.2025 29.6481C40.2604 29.4521 40.3269 29.2601 40.402 29.0707C40.9886 27.5717 41.5487 26.0634 42.1372 24.5654C42.2073 24.3917 42.2662 24.2155 42.3175 24.0358C41.6431 24.0286 40.9647 24.0246 40.2908 24.0378C39.8191 25.2169 39.3829 26.4123 38.9187 27.5945C38.6481 28.277 38.4114 28.9732 38.127 29.6496C37.7233 29.6715 37.3222 29.6577 36.9179 29.6608C36.2786 29.6547 35.6377 29.674 34.9984 29.6491C35.7124 27.7682 36.4406 25.8872 37.1602 24.0073C37.2399 23.7798 37.3658 23.5518 37.4049 23.3136C37.3557 23.1958 37.2607 23.0933 37.182 22.9942C37.0007 22.7809 36.827 22.5616 36.6508 22.3437C36.629 22.3092 36.5726 22.2584 36.5848 22.2137Z" fill="#4678FF"/>
<path d="M28.8245 24.0977C28.9616 24.0683 29.1099 24.0774 29.25 24.0759C30.2149 24.086 31.1807 24.0683 32.1456 24.0845C32.0857 24.2846 32.0141 24.4806 31.9364 24.6746C31.619 25.4927 31.3006 26.3108 30.9893 27.1319C30.905 27.365 30.8187 27.5966 30.7151 27.8225C30.2103 27.8439 29.7045 27.8271 29.1993 27.8322C28.5939 27.8261 27.9876 27.8444 27.3828 27.822C27.4407 27.6514 27.5027 27.4828 27.5687 27.3152C27.9541 26.327 28.3365 25.3368 28.7092 24.344C28.7422 24.2607 28.7768 24.1739 28.8245 24.0977Z" fill="black"/>
<path d="M7.70658 31.6271C7.84268 31.6189 7.9808 31.6291 8.1169 31.6347C8.2794 32.0689 8.42006 32.5096 8.60186 32.9362C9.10764 34.1905 9.7617 35.3981 10.5381 36.5056C10.5458 36.3665 10.5519 36.2268 10.5595 36.0872C10.9165 36.0704 11.2719 36.0806 11.6289 36.079C13.8638 36.0775 16.0992 36.0811 18.3341 36.077C18.2848 35.7515 18.1807 35.4448 18.1051 35.1254C17.9451 34.4551 17.8075 33.7792 17.6795 33.1023C17.5932 32.6112 17.5008 32.1318 17.4546 31.6398C17.6231 31.6286 17.7887 31.6286 17.9578 31.6413C18.1741 33.1414 18.4636 34.615 18.8937 36.0699C19.1801 36.0836 19.467 36.0801 19.7539 36.0785C23.5965 36.0785 27.4387 36.079 31.2813 36.0785C31.652 36.075 32.0171 36.0928 32.3878 36.0648C32.824 34.6115 33.0876 33.1368 33.3222 31.6408C33.4953 31.6286 33.666 31.6276 33.8391 31.6372C33.6619 32.8712 33.4293 34.096 33.1231 35.3041C33.054 35.5606 32.9799 35.8124 32.9571 36.078C35.2249 36.0801 37.4938 36.078 39.7617 36.079C40.1055 36.0801 40.4488 36.0714 40.7926 36.0872C40.8012 36.1933 40.8088 36.2994 40.817 36.4056C41.1186 36.0024 41.369 35.5575 41.6249 35.1244C42.2465 34.0514 42.7274 32.9199 43.1316 31.7494C43.3103 31.7215 43.4901 31.7053 43.6709 31.6956C42.799 34.5439 41.1836 37.1795 39.0985 39.3016C37.7437 40.6671 36.1974 41.8214 34.4993 42.7263C32.1151 43.9953 29.4567 44.7342 26.7617 44.8952C26.1706 44.9317 25.576 44.9216 24.9844 44.9155C22.5814 44.8282 20.184 44.2894 17.9878 43.3062C16.5506 42.6755 15.1963 41.8503 13.9623 40.8814C11.0058 38.5602 8.76334 35.3448 7.63244 31.7581C7.61162 31.6834 7.62533 31.6423 7.70658 31.6271ZM10.6306 36.6026C10.8322 36.9682 11.1191 37.2983 11.3786 37.6253C13.3565 40.0593 15.9601 41.9732 18.8764 43.1275C20.3232 43.6907 21.8116 44.0939 23.3569 44.2655C22.4027 43.6825 21.641 42.8781 20.996 41.9732C20.0358 40.6118 19.3289 39.0447 18.7926 37.4725C18.6896 37.179 18.6144 36.8799 18.4935 36.5924C16.1546 36.5889 13.8156 36.593 11.4766 36.5904C11.1937 36.5899 10.9129 36.5848 10.6306 36.6026ZM19.0694 36.5996C19.1694 37.0673 19.3497 37.5217 19.5142 37.9701C20.117 39.5677 20.9229 41.1963 22.0543 42.4882C22.7744 43.3032 23.693 44.0375 24.7706 44.2934C25.5572 44.4971 26.3824 44.4016 27.1263 44.0883C28.013 43.7176 28.7803 43.0198 29.3927 42.2916C30.4652 40.9926 31.2208 39.422 31.8089 37.8518C31.9531 37.44 32.1197 37.0256 32.2162 36.6006C31.8871 36.5823 31.5596 36.5914 31.2305 36.5914C27.4727 36.5909 23.7149 36.5914 19.9571 36.5909C19.661 36.5909 19.3654 36.5853 19.0694 36.5996ZM27.9338 44.267C32.1374 43.7704 36.1111 41.7325 39.0076 38.6516C39.4997 38.1423 39.9506 37.5908 40.3803 37.0282C40.4838 36.8936 40.5747 36.7509 40.6585 36.6031C40.5453 36.5965 40.4326 36.5914 40.3193 36.5899C38.0347 36.5924 35.7495 36.5914 33.4649 36.5904C33.249 36.594 33.0256 36.5732 32.8123 36.6062C32.7473 36.6397 32.728 36.7443 32.7001 36.8078C32.2583 38.2332 31.7007 39.6155 30.9593 40.9129C30.3581 41.9417 29.6624 42.903 28.7442 43.6739C28.4883 43.8938 28.2075 44.0715 27.9338 44.267Z" fill="#4678FF"/>
<path d="M10.6305 36.6026C10.9128 36.5849 11.1937 36.5899 11.4765 36.5904C13.8155 36.593 16.1545 36.5889 18.4935 36.5925C18.6143 36.8799 18.6895 37.179 18.7926 37.4725C19.3288 39.0447 20.0357 40.6118 20.996 41.9733C21.6409 42.8782 22.4026 43.6826 23.3568 44.2655C21.8115 44.0939 20.3231 43.6907 18.8764 43.1275C15.96 41.9733 13.3564 40.0593 11.3785 37.6254C11.119 37.2983 10.8321 36.9683 10.6305 36.6026Z" fill="black"/>
<path d="M19.0693 36.5996C19.3654 36.5854 19.6609 36.5909 19.957 36.5909C23.7148 36.5915 27.4726 36.5909 31.2304 36.5915C31.5595 36.5915 31.887 36.5823 32.2161 36.6006C32.1196 37.0256 31.953 37.44 31.8088 37.8518C31.2208 39.422 30.4652 40.9927 29.3927 42.2917C28.7802 43.0199 28.0129 43.7176 27.1263 44.0883C26.3823 44.4016 25.5571 44.4971 24.7705 44.2934C23.693 44.0375 22.7743 43.3032 22.0543 42.4882C20.9229 41.1963 20.117 39.5677 19.5142 37.9702C19.3496 37.5218 19.1694 37.0673 19.0693 36.5996Z" fill="black"/>
<path d="M32.8123 36.6062C33.0256 36.5732 33.249 36.594 33.4648 36.5904C35.7495 36.5915 38.0346 36.5925 40.3193 36.5899C40.4325 36.5915 40.5452 36.5965 40.6585 36.6031C40.5747 36.7509 40.4838 36.8936 40.3802 37.0282C39.9506 37.5908 39.4997 38.1423 39.0076 38.6517C36.111 41.7325 32.1374 43.7704 27.9337 44.267C28.2074 44.0715 28.4882 43.8938 28.7442 43.6739C29.6623 42.9031 30.358 41.9418 30.9593 40.9129C31.7007 39.6155 32.2582 38.2332 32.7 36.8078C32.728 36.7443 32.7473 36.6397 32.8123 36.6062Z" fill="black"/>
</g>
</g>
<defs>
<clipPath id="clip0_175_181">
<rect width="128" height="128" fill="white"/>
</clipPath>
<clipPath id="clip1_175_181">
<rect width="52" height="52" rx="26" fill="white"/>
</clipPath>
</defs>
</svg>
