<svg width="128" height="128" viewBox="0 0 128 128" fill="none" xmlns="http://www.w3.org/2000/svg">
<g clip-path="url(#clip0_170_3)">
<path d="M64 128C99.346 128 128 99.346 128 64C128 28.654 99.346 0 64 0C28.654 0 0 28.654 0 64C0 99.346 28.654 128 64 128Z" fill="#2F63F9"/>
<path d="M91.3 25.24C93.433 26.817 95.374 28.558 97.28 30.4L98.009 31.09C102.995 35.914 106.696 42.384 108.8 48.96V49.92H107.52L107.19 49.05C105.47 44.621 103.532 40.704 100.8 36.8C95.283 36.337 95.283 36.337 88.98 36.44L82.471 36.437L77.44 36.48L78.72 41.6C79.312 44.371 79.535 47.092 79.68 49.92H78.4L78.073 47.874L77.64 45.18L77.213 42.514C76.879 40.4998 76.528 38.4884 76.16 36.48H53.12C51.837 43.184 51.837 43.184 50.88 49.92H49.6C49.681 45.457 50.66 41.165 51.52 36.8C47.7266 36.716 43.9333 36.6494 40.14 36.6L33.739 36.487L28.48 36.8C25.534 41.008 23.441 45.075 21.76 49.92H20.48C22.445 39.947 29.976 30.612 38.265 25.014C54.663 14.624 74.975 13.989 91.3 25.24Z" fill="#E6C040"/>
<path d="M21.76 80H23.04L23.521 80.985C24.736 83.447 25.987 85.857 27.409 88.206C27.84 88.96 27.84 88.96 28.16 89.92L51.52 89.6L49.92 81.28V80H51.2C51.86 83.302 52.49 86.611 53.12 89.92H76.16C76.6476 87.0144 77.1186 84.106 77.573 81.195L77.76 80H79.36C79.13 82.034 78.783 84.03 78.4 86.04L78.06 87.837C77.76 89.28 77.76 89.28 77.44 89.92C81.273 89.987 85.107 90.02 88.94 90.04L95.409 90.107L100.8 89.6C103.144 85.996 103.144 85.996 105.14 82.28L105.781 80.963L106.24 80H107.52C106.308 86.062 101.76 91.322 97.6 95.68L96.821 96.521C89.409 104.299 78.081 109.114 67.419 109.516C59.616 109.596 52.177 108.792 45.12 105.28L43.916 104.695C37.633 101.522 32.089 97.152 27.84 91.52L27.255 90.745C21.76 83.171 21.76 83.171 21.76 80Z" fill="#E4BF42"/>
<path d="M113.081 56.4C114.979 57.667 116.406 59.67 117.005 61.875C117.527 65.707 117.182 68.707 115.04 71.92C113.062 73.757 110.579 75.102 107.84 75.2L106.964 75.247C103.586 75.359 100.995 74.66 98.24 72.64C95.746 70.193 95.306 68.034 95.2 64.66C95.256 61.852 95.661 60.014 97.535 57.916C101.778 53.869 108.048 53.756 113.081 56.4Z" fill="#EFC537"/>
<path d="M54.72 55.04C60.8 55.04 60.8 55.04 62.413 56.353L63.56 58.12L64.803 59.969L65.92 61.76L66.877 63.181C68.8 66.053 68.8 66.053 68.8 66.88H69.44L69.281 65.731C69.082 63.594 69.09 61.487 69.101 59.341L69.109 56.899L69.12 55.04H74.88V74.88C68.8 74.88 68.8 74.88 67.456 73.954L66.66 72.7L65.764 71.371L64.96 70.08C64.4986 69.45 64.032 68.8233 63.56 68.2C62.49 66.719 61.496 65.204 60.48 63.68V74.88H54.72V55.04Z" fill="#ECC33A"/>
<path d="M35.52 55.04H53.12V60.16H40.96V62.4H52.48V67.52H40.96V69.76H53.12V74.88H35.52V55.04Z" fill="#EDC439"/>
<path d="M29.76 91.2H52.16C52.6767 92.5711 53.1847 93.9455 53.684 95.323C55.364 99.895 57.121 103.951 60.48 107.52V107.84C55.494 108.011 50.577 106.371 46.08 104.32L44.947 103.812C39.222 101.108 33.672 96.847 29.76 91.84V91.2Z" fill="#3264F6"/>
<path d="M13.12 55.04H18.56V62.4H27.84V55.04H33.28V74.88H27.84V67.52H18.56V74.88H13.12V55.04Z" fill="#F0C536"/>
<path d="M82.051 91.169L88.34 91.18L94.631 91.189L99.52 91.2C95.63 98.978 85.281 103.868 77.44 106.56C74.586 107.42 71.77 107.711 68.8 107.84L69.64 106.76C72.83 102.48 74.824 97.711 76.427 92.643C77.363 89.824 77.57 91.197 82.051 91.169Z" fill="#3264F6"/>
<path d="M60.48 18.56L59.66 19.62C56.06 24.462 54.174 29.492 52.16 35.2H29.76C33.49 27.738 43.302 22.865 50.74 20.2C53.874 19.214 57.19 18.56 60.48 18.56ZM68.8 18.56C79.543 18.6 89.712 24.73 97.12 32.04C99.52 34.461 99.52 34.461 99.52 35.2H77.12C76.16 32.64 76.16 32.64 75.725 31.427C74.199 27.217 72.486 23.475 69.702 19.945C69.12 19.2 69.12 19.2 68.8 18.56Z" fill="#3164F7"/>
<path d="M65.5999 18.24C70.2479 20.347 72.4319 25.511 74.1879 29.974C75.5199 33.643 75.5199 33.643 75.5199 35.2H53.4399C55.1139 29.063 57.3889 22.47 62.7199 18.56C63.7529 18.044 64.4499 18.112 65.5999 18.24Z" fill="#3164F7"/>
<path d="M53.4399 91.2H75.5199C74.7259 96.76 72.0259 103.184 67.6829 106.927C66.2059 108.017 65.1729 108.402 63.3599 108.16C57.5119 104.505 55.2499 97.533 53.4399 91.2Z" fill="#3264F6"/>
<path d="M76.8 55.04H82.24V69.76H93.76V74.88H76.8V55.04Z" fill="#F0C536"/>
<path d="M105.84 60.08L107.195 60.055C108.542 60.165 109.284 60.369 110.4 61.12C111.787 62.831 111.552 64.786 111.36 66.88C110.973 68.062 110.703 68.565 109.732 69.317C108.486 69.909 107.475 69.91 106.1 69.92L104.681 69.95C103.127 69.726 102.523 69.271 101.44 68.16C100.935 67.15 101.027 66.16 101 65.04L100.953 63.685C101.153 62.145 101.624 61.553 102.72 60.48C103.729 59.975 104.721 60.092 105.84 60.08Z" fill="#3264F6"/>
<g clip-path="url(#clip1_170_3)">
<path d="M76 0H128V52H76V0ZM83.7345 20.0159C83.8528 20.0429 83.9706 20.0708 84.0884 20.0997C84.0976 20.2054 84.1062 20.311 84.1159 20.4166C84.4119 19.5655 84.7313 18.7271 85.1325 17.9187C85.4397 17.3068 85.7698 16.7091 86.14 16.1322C86.2664 15.9377 86.3771 15.7427 86.5346 15.5705C88.8436 15.5614 91.1587 15.5695 93.4688 15.567C93.7988 15.5705 94.1299 15.5573 94.4595 15.5731C94.4265 15.729 94.3838 15.8818 94.3381 16.0347C94.0705 16.9863 93.8613 17.9639 93.68 18.9358C93.6191 19.3091 93.5292 19.6559 93.5241 20.0362C93.681 20.0474 93.8374 20.0469 93.9943 20.0403C94.0644 19.7752 94.0939 19.5066 94.1431 19.237C94.3381 18.0532 94.624 16.8898 94.9505 15.7361C94.9795 15.662 94.9922 15.5599 95.0953 15.5665C99.208 15.5675 103.321 15.567 107.434 15.567C107.712 15.569 107.983 15.5553 108.259 15.5771C108.382 15.8702 108.446 16.1708 108.531 16.476C108.798 17.4434 108.994 18.4204 109.162 19.4091C109.2 19.6315 109.217 19.8504 109.294 20.0647C109.447 20.0759 109.596 20.0769 109.749 20.0667C109.752 19.956 109.753 19.8458 109.738 19.7351C109.534 18.4564 109.26 17.1889 108.911 15.9418C108.876 15.8199 108.846 15.6975 108.822 15.5731C109.07 15.5599 109.318 15.568 109.566 15.5675C111.767 15.567 113.967 15.568 116.167 15.567C116.359 15.5705 116.558 15.5507 116.748 15.5797C116.877 15.6772 116.961 15.8437 117.052 15.9763C117.792 17.1224 118.414 18.3422 118.887 19.6224C118.925 19.7265 118.97 19.828 119.015 19.9291C119.185 19.9459 119.354 19.9499 119.525 19.9443C119.432 19.5752 119.277 19.2126 119.136 18.8576C118.121 16.3744 116.561 14.1131 114.611 12.2718C112.496 10.2817 109.931 8.78211 107.152 7.93965C105.763 7.52832 104.321 7.24852 102.874 7.1632C102.162 7.10633 101.44 7.1307 100.727 7.13832C97.9609 7.28863 95.2364 8.0143 92.7918 9.32445C91.4197 10.0461 90.1487 10.9439 88.9964 11.9808C86.7677 13.9862 85.0269 16.5263 83.964 19.3304C83.8787 19.5569 83.7904 19.7798 83.7345 20.0159ZM77.7012 22.2198C77.9404 22.5682 78.2476 22.8653 78.4903 23.2091C78.5782 23.3233 78.5121 23.4244 78.4781 23.5442C78.2075 24.2394 77.9409 24.9366 77.6671 25.6308C77.525 26.0254 77.3452 26.4088 77.2264 26.811C77.4782 26.8328 77.7281 26.8232 77.9805 26.8237C79.6222 26.8232 81.2645 26.8237 82.9062 26.8237C83.1607 26.8242 83.4136 26.8161 83.668 26.8313C83.6309 26.9836 83.5801 27.1299 83.5212 27.2751C83.3404 27.7362 83.1647 28.1983 82.9941 28.6635C82.8763 28.9859 82.728 29.3089 82.6478 29.642C83.5288 29.6588 84.4114 29.642 85.293 29.6496C85.4413 29.6517 85.5895 29.6486 85.7378 29.6415C85.8521 29.4354 85.9186 29.2145 86.0034 28.9956C86.527 27.6555 87.0312 26.3072 87.5568 24.9676C87.8544 24.1419 88.1921 23.3325 88.5003 22.5108C88.5369 22.4118 88.5663 22.3107 88.5938 22.2087C87.8666 22.1909 87.1379 22.2061 86.4102 22.2016C86.1009 22.2071 85.7866 22.1833 85.4798 22.2178C85.2011 22.8978 84.9466 23.5889 84.6831 24.275C84.5947 24.5091 84.516 24.7447 84.4073 24.9707C84.2971 24.9834 84.1875 24.9935 84.0768 24.994C83.348 24.991 82.6193 24.9925 81.8906 24.9925C81.6189 24.9915 81.3513 25.0047 81.0807 24.9707C81.2736 24.3618 81.5382 23.7743 81.7596 23.175C81.8754 22.8587 82.0354 22.5382 82.0968 22.2102C80.742 22.1904 79.3841 22.2092 78.0287 22.2011C77.9241 22.2077 77.8012 22.1879 77.7012 22.2198ZM89.1721 22.2249C89.3677 22.5169 89.5886 22.784 89.8176 23.0501C89.8846 23.1324 89.9628 23.2192 90.0039 23.3177C89.972 23.5747 89.8145 23.8083 89.7612 24.0652C89.845 24.0718 89.9288 24.0784 90.0131 24.0805C92.0758 24.084 94.1426 24.0734 96.2048 24.0855C96.1073 24.3872 96.0098 24.7041 95.8458 24.9762C95.7488 24.9844 95.6513 24.9925 95.5538 24.9935C93.7587 24.9905 91.9631 24.9925 90.168 24.9925C89.9029 24.994 89.6404 24.9813 89.3758 25.0021C89.2681 25.2276 89.195 25.4632 89.1031 25.6953C88.7496 26.5982 88.413 27.5072 88.06 28.4106C87.9067 28.8209 87.731 29.2251 87.5979 29.6425C87.7086 29.6466 87.8198 29.6496 87.9316 29.6496C91.0079 29.6441 94.0934 29.6547 97.1687 29.6446C97.3073 29.4074 97.3759 29.1576 97.481 28.8945C97.613 28.5446 97.7669 28.2004 97.8776 27.8429C97.6262 27.8286 97.3764 27.8357 97.125 27.8352C95.5 27.8342 93.875 27.8352 92.25 27.8347C91.9778 27.8337 91.7092 27.8464 91.4385 27.8139C91.5335 27.4823 91.6554 27.14 91.8041 26.8293C93.6439 26.8161 95.4878 26.8277 97.3281 26.8237C97.6455 26.8186 97.9675 26.8399 98.2833 26.8084C98.4128 26.5728 98.4951 26.3082 98.5977 26.0574C98.9704 25.0433 99.3817 24.0439 99.7611 23.0318C99.8626 22.7536 99.9865 22.4895 100.07 22.2066C99.8504 22.1965 99.6305 22.2011 99.4102 22.2016C96.0703 22.2021 92.7304 22.2021 89.391 22.2016C89.3265 22.2107 89.228 22.1894 89.1721 22.2249ZM99.0151 29.643C99.8768 29.6471 100.733 29.6847 101.594 29.6491C102.069 29.6344 102.541 29.6816 103.016 29.6532C103.422 29.6354 103.828 29.6603 104.234 29.6623C104.944 29.6364 105.656 29.6527 106.367 29.6481C106.858 29.6517 107.35 29.639 107.84 29.6603C108.103 29.6659 108.36 29.6761 108.621 29.6334C108.771 29.317 108.876 28.9793 109.006 28.6538C109.285 27.9114 109.585 27.1786 109.859 26.4352C110.131 25.7151 110.412 24.9991 110.69 24.2821C110.94 23.5859 111.227 22.9034 111.477 22.2077C111.229 22.1955 110.982 22.2026 110.734 22.2021C107.392 22.2016 104.05 22.2026 100.708 22.2011C100.671 22.2011 100.633 22.2056 100.598 22.2148C100.587 22.2605 100.637 22.3128 100.659 22.3488C100.888 22.6474 101.152 22.9211 101.372 23.2258C101.467 23.332 101.379 23.4564 101.346 23.5706C100.849 24.8214 100.387 26.0853 99.89 27.3355C99.7814 27.6341 99.658 27.9261 99.5534 28.2257C99.3827 28.7016 99.1776 29.1652 99.0151 29.643ZM112.03 22.2198C112.289 22.6017 112.638 22.9211 112.88 23.3132C112.852 23.4096 112.824 23.5061 112.789 23.6006C112.406 24.6172 111.998 25.6232 111.626 26.6434C111.341 27.3833 111.041 28.1166 110.77 28.8615C110.673 29.1236 110.56 29.3744 110.484 29.6441C111.515 29.6563 112.548 29.643 113.58 29.6507C113.699 29.4592 113.76 29.2251 113.845 29.0144C114.359 27.6834 114.865 26.3499 115.378 25.0189C115.511 24.6944 115.602 24.3445 115.773 24.0388C116.444 24.0292 117.12 24.0297 117.791 24.0393C117.732 24.2684 117.638 24.4816 117.552 24.701C117.016 26.1071 116.475 27.5118 115.936 28.9164C115.842 29.1581 115.741 29.3937 115.667 29.6425C116.562 29.6578 117.457 29.6415 118.352 29.6502C118.497 29.6517 118.641 29.6481 118.785 29.639C118.834 29.5318 118.883 29.4242 118.924 29.314C119.295 28.308 119.692 27.3112 120.073 26.3093C120.307 25.678 120.557 25.0529 120.794 24.4227C120.841 24.2912 120.896 24.1658 120.959 24.0414C121.628 24.0287 122.306 24.0302 122.976 24.0404C122.92 24.3191 122.808 24.5604 122.709 24.8259C122.202 26.1209 121.715 27.4229 121.21 28.7188C121.094 29.0321 120.962 29.3252 120.881 29.6415C121.764 29.6598 122.648 29.6415 123.531 29.6496C123.679 29.6517 123.826 29.6486 123.974 29.641C124.014 29.5613 124.053 29.4811 124.086 29.3983C124.92 27.2238 125.755 25.0484 126.593 22.8754C126.677 22.6545 126.766 22.4372 126.828 22.2087C126.541 22.195 126.256 22.2036 125.969 22.2021C121.413 22.2011 116.856 22.2036 112.3 22.2011C112.214 22.2071 112.112 22.1904 112.03 22.2198ZM119.668 31.7032C119.495 31.7048 119.324 31.7144 119.153 31.7363C119.097 31.85 119.048 31.9658 119.009 32.0866C118.81 32.6889 118.549 33.279 118.284 33.8548C117.882 34.7156 117.409 35.5464 116.874 36.3314C116.839 36.2522 116.803 36.174 116.77 36.0938C116.69 36.0857 116.61 36.078 116.53 36.0765C114.194 36.0801 111.853 36.0765 109.515 36.0791C109.32 36.0811 109.124 36.0816 108.929 36.0699C108.993 35.7683 109.079 35.4737 109.154 35.1746C109.404 34.1743 109.601 33.1673 109.761 32.1491C109.793 31.9836 109.803 31.817 109.805 31.6489C109.636 31.6195 109.496 31.6179 109.328 31.6484C109.25 31.9612 109.228 32.2791 109.171 32.5955C109.02 33.4364 108.866 34.2743 108.651 35.1015C108.565 35.4235 108.497 35.7566 108.382 36.0689C108.116 36.0887 107.853 36.077 107.586 36.0786C103.676 36.078 99.7656 36.0786 95.8555 36.0786C95.534 36.077 95.2136 36.0862 94.8921 36.0704C94.5301 34.843 94.2686 33.6025 94.0639 32.34C94.0314 32.1085 94.002 31.8774 93.9527 31.6489C93.7892 31.6164 93.6434 31.621 93.4799 31.6479C93.4774 31.8322 93.4891 32.0125 93.5226 32.1943C93.7166 33.3694 93.9466 34.545 94.2574 35.6952C94.2899 35.8186 94.3117 35.944 94.33 36.0704C94.0939 36.0846 93.8577 36.0786 93.6211 36.0786C91.5391 36.078 89.457 36.0791 87.375 36.078C87.1109 36.0791 86.8474 36.0709 86.5828 36.0831C86.5605 36.2136 86.5417 36.3446 86.5239 36.4757C86.4396 36.3634 86.3579 36.2497 86.2802 36.1329C85.424 34.8273 84.7273 33.4202 84.2306 31.9394C84.1966 31.8383 84.155 31.7403 84.1118 31.6428C83.9706 31.6306 83.8046 31.5996 83.667 31.6372C83.5989 31.6646 83.6319 31.7439 83.6436 31.7957C84.7638 35.3092 86.9434 38.4648 89.8211 40.7682C91.795 42.3546 94.0959 43.5464 96.5375 44.2223C97.81 44.5768 99.1248 44.8104 100.444 44.8866C101.044 44.9373 101.652 44.917 102.254 44.916C104.055 44.8647 105.83 44.5352 107.544 43.9862C108.409 43.7059 109.249 43.3448 110.067 42.9513C111.563 42.1967 112.961 41.2572 114.211 40.1405C114.643 39.7419 115.078 39.3539 115.467 38.9111C116.947 37.3313 118.142 35.4951 119.003 33.509C119.251 32.9189 119.487 32.3177 119.668 31.7032Z" fill="black" stroke="black" stroke-width="17.7778"/>
<path d="M100.727 7.13833C101.44 7.13071 102.162 7.10634 102.874 7.16321C104.321 7.24853 105.763 7.52833 107.152 7.93966C109.931 8.78212 112.496 10.2817 114.611 12.2718C116.561 14.1131 118.121 16.3744 119.136 18.8576C119.277 19.2126 119.432 19.5752 119.525 19.9443C119.354 19.9499 119.185 19.9459 119.015 19.9291C118.97 19.8281 118.925 19.7265 118.887 19.6224C118.414 18.3422 117.792 17.1224 117.052 15.9763C116.961 15.8438 116.877 15.6772 116.748 15.5797C116.558 15.5508 116.359 15.5706 116.167 15.567C113.967 15.568 111.767 15.567 109.566 15.5675C109.318 15.568 109.07 15.5599 108.822 15.5731C108.846 15.6975 108.876 15.8199 108.911 15.9418C109.26 17.189 109.534 18.4565 109.738 19.7351C109.753 19.8458 109.752 19.956 109.749 20.0667C109.596 20.0769 109.447 20.0759 109.294 20.0647C109.217 19.8504 109.2 19.6315 109.162 19.4091C108.994 18.4204 108.798 17.4434 108.531 16.476C108.446 16.1708 108.382 15.8702 108.259 15.5772C107.983 15.5553 107.712 15.569 107.434 15.567C103.321 15.567 99.2081 15.5675 95.0953 15.5665C94.9922 15.5599 94.9795 15.662 94.9506 15.7361C94.624 16.8899 94.3381 18.0533 94.1431 19.237C94.0939 19.5066 94.0644 19.7752 93.9943 20.0403C93.8374 20.0469 93.681 20.0474 93.5241 20.0363C93.5292 19.6559 93.6191 19.3091 93.68 18.9358C93.8613 17.9639 94.0705 16.9863 94.3381 16.0347C94.3838 15.8818 94.4265 15.729 94.4595 15.5731C94.1299 15.5574 93.7988 15.5706 93.4688 15.567C91.1587 15.5695 88.8436 15.5614 86.5346 15.5706C86.3772 15.7427 86.2664 15.9377 86.14 16.1322C85.7698 16.7091 85.4397 17.3068 85.1325 17.9187C84.7313 18.7271 84.4119 19.5655 84.1159 20.4166C84.1062 20.311 84.0976 20.2054 84.0884 20.0997C83.9706 20.0708 83.8528 20.0429 83.7345 20.0159C83.7904 19.7798 83.8787 19.5569 83.964 19.3304C85.0269 16.5263 86.7677 13.9862 88.9964 11.9808C90.1487 10.9439 91.4197 10.0461 92.7918 9.32446C95.2365 8.01431 97.9609 7.28864 100.727 7.13833ZM95.1643 15.0516C95.2573 15.0582 95.3502 15.0638 95.4431 15.0648C99.4061 15.0638 103.369 15.0648 107.332 15.0643C107.585 15.0633 107.838 15.0709 108.091 15.0582C108.031 14.7418 107.897 14.4275 107.787 14.1238C107.527 13.4205 107.219 12.7375 106.893 12.0621C106.346 11.0307 105.718 10.0273 104.894 9.19243C104.26 8.5597 103.51 8.01989 102.638 7.77614C101.992 7.58622 101.298 7.58673 100.651 7.7736C99.8616 7.99196 99.1943 8.43935 98.5977 8.9888C97.8679 9.66622 97.2682 10.5092 96.7685 11.3669C96.0992 12.5283 95.5848 13.781 95.1643 15.0516ZM98.9313 7.8381C97.3449 8.04985 95.7636 8.53685 94.2899 9.15689C93.8669 9.35544 93.4444 9.55704 93.029 9.77235C90.7225 11.0043 88.6816 12.7177 87.085 14.7895C87.0246 14.8759 86.9688 14.9647 86.9124 15.0536C87.017 15.0592 87.1216 15.0643 87.2267 15.0653C89.4088 15.0643 91.5914 15.0653 93.7734 15.0648C94.0609 15.0627 94.3417 15.0754 94.6281 15.0541C94.6875 14.8962 94.7418 14.7383 94.7916 14.5773C95.1877 13.3931 95.6859 12.2469 96.2988 11.1582C96.9051 10.0989 97.6252 9.13403 98.5606 8.34185C98.7739 8.16767 99.0034 8.01481 99.2111 7.83454C99.1177 7.83353 99.0247 7.83403 98.9313 7.8381ZM104.049 7.82946C104.348 8.06864 104.66 8.27431 104.942 8.53583C105.913 9.42146 106.644 10.4995 107.249 11.6594C107.647 12.4109 107.985 13.1899 108.276 13.9887C108.416 14.3401 108.52 14.7032 108.655 15.0556C108.958 15.0754 109.262 15.0617 109.566 15.0648C111.648 15.0663 113.73 15.0622 115.813 15.0653C116 15.0668 116.188 15.0658 116.376 15.0536C116.249 14.8368 116.1 14.6402 115.935 14.4513C114.349 12.4958 112.357 10.8616 110.121 9.70228C108.648 8.93142 107.062 8.36978 105.436 8.02345C104.984 7.94118 104.507 7.82032 104.049 7.82946Z" fill="black" stroke="#1CC75D" stroke-width="17.7778"/>
<path d="M102.638 7.77611C103.51 8.01986 104.26 8.55967 104.893 9.1924C105.718 10.0272 106.346 11.0307 106.893 12.0621C107.219 12.7374 107.527 13.4205 107.787 14.1238C107.897 14.4274 108.031 14.7418 108.091 15.0581C107.838 15.0708 107.585 15.0632 107.332 15.0642C103.369 15.0647 99.4061 15.0637 95.4431 15.0647C95.3502 15.0637 95.2572 15.0581 95.1643 15.0515C95.5848 13.781 96.0992 12.5282 96.7685 11.3669C97.2682 10.5092 97.8679 9.66619 98.5976 8.98877C99.1943 8.43932 99.8616 7.99193 100.651 7.77358C101.298 7.5867 101.992 7.58619 102.638 7.77611Z" fill="black" stroke="black" stroke-width="17.7778"/>
<path d="M99.2111 7.83456C99.0034 8.01483 98.7738 8.16768 98.5606 8.34186C97.6252 9.13405 96.9051 10.0989 96.2988 11.1582C95.6858 12.2469 95.1877 13.3931 94.7916 14.5773C94.7418 14.7383 94.6875 14.8962 94.6281 15.0541C94.3416 15.0755 94.0608 15.0628 93.7734 15.0648C91.5913 15.0653 89.4088 15.0643 87.2267 15.0653C87.1216 15.0643 87.017 15.0592 86.9124 15.0536C86.9687 14.9648 87.0246 14.8759 87.085 14.7896C88.6816 12.7177 90.7225 11.0043 93.029 9.77237C93.4443 9.55706 93.8668 9.35546 94.2899 9.1569C95.7635 8.53686 97.3449 8.04987 98.9313 7.83811C99.0247 7.83405 99.1176 7.83354 99.2111 7.83456Z" fill="black" stroke="black" stroke-width="17.7778"/>
<path d="M104.049 7.82947C104.507 7.82033 104.984 7.94119 105.436 8.02345C107.062 8.36978 108.648 8.93142 110.121 9.70228C112.357 10.8616 114.35 12.4958 115.935 14.4513C116.1 14.6403 116.249 14.8368 116.376 15.0536C116.188 15.0658 116 15.0668 115.813 15.0653C113.731 15.0622 111.648 15.0663 109.566 15.0648C109.262 15.0617 108.958 15.0754 108.655 15.0556C108.52 14.7032 108.416 14.3401 108.276 13.9887C107.985 13.1899 107.647 12.411 107.249 11.6594C106.644 10.4995 105.913 9.42146 104.942 8.53584C104.66 8.27431 104.348 8.06865 104.049 7.82947Z" fill="black" stroke="black" stroke-width="17.7778"/>
<path d="M78.0287 22.2011C79.384 22.2092 80.7419 22.1904 82.0967 22.2102C82.0353 22.5382 81.8753 22.8587 81.7596 23.175C81.5382 23.7743 81.2736 24.3618 81.0806 24.9707C81.3513 25.0047 81.6189 24.9915 81.8906 24.9925C82.6193 24.9925 83.348 24.991 84.0767 24.994C84.1874 24.9935 84.2971 24.9834 84.4073 24.9707C84.516 24.7447 84.5947 24.5091 84.683 24.275C84.9466 23.5889 85.201 22.8978 85.4798 22.2178C85.7865 22.1833 86.1008 22.2072 86.4101 22.2016C87.1378 22.2061 87.8665 22.1909 88.5937 22.2087C88.5663 22.3107 88.5368 22.4118 88.5003 22.5108C88.192 23.3325 87.8543 24.1419 87.5567 24.9676C87.0312 26.3072 86.5269 27.6555 86.0034 28.9956C85.9185 29.2145 85.852 29.4354 85.7378 29.6415C85.5895 29.6486 85.4412 29.6517 85.2929 29.6497C84.4114 29.642 83.5288 29.6588 82.6477 29.642C82.728 29.3089 82.8762 28.9859 82.9941 28.6635C83.1647 28.1983 83.3404 27.7362 83.5212 27.2751C83.5801 27.1299 83.6308 26.9836 83.6679 26.8313C83.4135 26.8161 83.1606 26.8242 82.9062 26.8237C81.2644 26.8237 79.6222 26.8232 77.9804 26.8237C77.728 26.8232 77.4782 26.8328 77.2263 26.811C77.3451 26.4088 77.5249 26.0254 77.6671 25.6308C77.9408 24.9366 78.2074 24.2394 78.4781 23.5442C78.5121 23.4244 78.5781 23.3233 78.4903 23.2091C78.2475 22.8653 77.9403 22.5682 77.7011 22.2198C77.8012 22.1879 77.9241 22.2077 78.0287 22.2011Z" fill="black" stroke="#1CC75D" stroke-width="17.7778"/>
<path d="M89.391 22.2015C92.7304 22.202 96.0702 22.202 99.4101 22.2015C99.6305 22.201 99.8504 22.1965 100.07 22.2066C99.9865 22.4895 99.8626 22.7535 99.761 23.0318C99.3817 24.0439 98.9704 25.0433 98.5976 26.0574C98.495 26.3082 98.4128 26.5728 98.2833 26.8084C97.9674 26.8399 97.6455 26.8186 97.3281 26.8236C95.4878 26.8277 93.6439 26.816 91.8041 26.8292C91.6553 27.14 91.5334 27.4823 91.4385 27.8139C91.7091 27.8464 91.9778 27.8337 92.25 27.8347C93.875 27.8352 95.5 27.8342 97.125 27.8352C97.3763 27.8357 97.6262 27.8286 97.8775 27.8428C97.7668 28.2003 97.613 28.5446 97.4809 28.8945C97.3758 29.1576 97.3073 29.4074 97.1686 29.6445C94.0933 29.6547 91.0079 29.644 87.9315 29.6496C87.8198 29.6496 87.7086 29.6466 87.5979 29.6425C87.7309 29.2251 87.9067 28.8209 88.06 28.4106C88.4129 27.5072 88.7496 26.5982 89.1031 25.6953C89.195 25.4632 89.2681 25.2276 89.3758 25.0021C89.6403 24.9813 89.9029 24.994 90.1679 24.9925C91.9631 24.9925 93.7587 24.9904 95.5538 24.9935C95.6513 24.9925 95.7488 24.9843 95.8458 24.9762C96.0098 24.704 96.1073 24.3872 96.2048 24.0855C94.1426 24.0733 92.0758 24.084 90.0131 24.0804C89.9288 24.0784 89.845 24.0718 89.7612 24.0652C89.8145 23.8083 89.9719 23.5747 90.0039 23.3177C89.9628 23.2192 89.8846 23.1324 89.8175 23.0501C89.5885 22.784 89.3676 22.5169 89.1721 22.2249C89.228 22.1893 89.3265 22.2107 89.391 22.2015Z" fill="black" stroke="#1CC75D" stroke-width="17.7778"/>
<path d="M100.598 22.2147C100.634 22.2056 100.671 22.201 100.708 22.201C104.05 22.2026 107.393 22.2015 110.734 22.202C110.982 22.2026 111.23 22.1954 111.477 22.2076C111.228 22.9033 110.94 23.5858 110.69 24.282C110.412 24.9991 110.131 25.7151 109.859 26.4352C109.585 27.1786 109.285 27.9114 109.006 28.6538C108.876 28.9793 108.771 29.317 108.621 29.6334C108.36 29.676 108.103 29.6659 107.84 29.6603C107.35 29.639 106.858 29.6517 106.367 29.6481C105.656 29.6527 104.944 29.6364 104.234 29.6623C103.828 29.6603 103.422 29.6354 103.016 29.6532C102.541 29.6816 102.069 29.6344 101.594 29.6491C100.733 29.6847 99.8769 29.6471 99.0151 29.643C99.1776 29.1652 99.3828 28.7015 99.5534 28.2257C99.658 27.9261 99.7814 27.6341 99.8901 27.3355C100.387 26.0853 100.849 24.8213 101.347 23.5706C101.379 23.4563 101.467 23.3319 101.372 23.2258C101.153 22.9211 100.888 22.6474 100.659 22.3488C100.637 22.3127 100.587 22.2604 100.598 22.2147ZM102.861 27.8164C103.133 27.8459 103.403 27.8337 103.676 27.8352C104.405 27.8362 105.133 27.8322 105.862 27.8372C105.972 27.8372 106.08 27.8266 106.189 27.8134C106.388 27.3553 106.547 26.88 106.734 26.4174C106.952 25.873 107.152 25.3226 107.363 24.7756C107.451 24.5456 107.55 24.3217 107.623 24.086C106.663 24.0708 105.702 24.087 104.742 24.0789C104.597 24.0794 104.447 24.0713 104.303 24.0931C104.165 24.3232 104.097 24.5984 103.993 24.8462C103.694 25.5993 103.41 26.358 103.121 27.1146C103.031 27.3497 102.927 27.5732 102.861 27.8164Z" fill="black" stroke="#1CC75D" stroke-width="17.7778"/>
<path d="M112.3 22.201C116.856 22.2036 121.413 22.201 125.969 22.202C126.256 22.2036 126.541 22.1949 126.828 22.2086C126.766 22.4372 126.677 22.6545 126.593 22.8754C125.755 25.0483 124.92 27.2238 124.086 29.3983C124.053 29.481 124.014 29.5613 123.974 29.641C123.826 29.6486 123.679 29.6517 123.531 29.6496C122.648 29.6415 121.764 29.6598 120.881 29.6415C120.962 29.3251 121.094 29.0321 121.21 28.7188C121.715 27.4229 122.202 26.1208 122.709 24.8259C122.808 24.5603 122.92 24.3191 122.976 24.0403C122.306 24.0302 121.628 24.0286 120.959 24.0413C120.896 24.1658 120.841 24.2912 120.794 24.4227C120.557 25.0529 120.307 25.678 120.073 26.3092C119.692 27.3111 119.295 28.308 118.924 29.314C118.883 29.4242 118.834 29.5318 118.785 29.639C118.641 29.6481 118.497 29.6517 118.352 29.6501C117.457 29.6415 116.562 29.6577 115.667 29.6425C115.741 29.3937 115.842 29.1581 115.936 28.9163C116.475 27.5117 117.016 26.1071 117.552 24.701C117.638 24.4816 117.732 24.2683 117.791 24.0393C117.12 24.0297 116.444 24.0292 115.773 24.0388C115.602 24.3445 115.511 24.6944 115.378 25.0189C114.865 26.3499 114.359 27.6834 113.845 29.0143C113.76 29.2251 113.699 29.4592 113.58 29.6506C112.548 29.643 111.515 29.6562 110.484 29.644C110.56 29.3744 110.673 29.1235 110.77 28.8615C111.041 28.1165 111.341 27.3833 111.626 26.6434C111.998 25.6232 112.406 24.6172 112.789 23.6006C112.824 23.5061 112.852 23.4096 112.88 23.3131C112.638 22.9211 112.289 22.6017 112.03 22.2198C112.112 22.1904 112.214 22.2071 112.3 22.201Z" fill="black" stroke="#1CC75D" stroke-width="17.7778"/>
<path d="M104.303 24.0932C104.447 24.0713 104.597 24.0795 104.742 24.079C105.702 24.0871 106.663 24.0708 107.623 24.0861C107.55 24.3217 107.451 24.5456 107.362 24.7757C107.152 25.3226 106.952 25.873 106.734 26.4174C106.546 26.88 106.387 27.3554 106.189 27.8134C106.08 27.8266 105.972 27.8373 105.862 27.8373C105.133 27.8322 104.405 27.8363 103.676 27.8352C103.403 27.8337 103.133 27.8459 102.861 27.8165C102.927 27.5732 103.031 27.3498 103.121 27.1147C103.41 26.358 103.694 25.5993 103.993 24.8463C104.097 24.5984 104.165 24.3232 104.303 24.0932Z" fill="black" stroke="black" stroke-width="17.7778"/>
<path d="M83.6669 31.6372C83.8045 31.5996 83.9706 31.6306 84.1118 31.6428C84.1549 31.7403 84.1966 31.8383 84.2306 31.9394C84.7272 33.4201 85.424 34.8273 86.2801 36.1329C86.3578 36.2497 86.4396 36.3634 86.5239 36.4756C86.5417 36.3446 86.5604 36.2136 86.5828 36.0831C86.8474 36.0709 87.1109 36.079 87.375 36.078C89.457 36.079 91.539 36.078 93.6211 36.0785C93.8577 36.0785 94.0938 36.0846 94.33 36.0704C94.3117 35.944 94.2899 35.8185 94.2574 35.6951C93.9466 34.5449 93.7165 33.3694 93.5226 32.1943C93.489 32.0125 93.4774 31.8322 93.4799 31.6479C93.6434 31.621 93.7892 31.6164 93.9527 31.6489C94.0019 31.8774 94.0314 32.1085 94.0639 32.34C94.2685 33.6024 94.5301 34.843 94.8921 36.0704C95.2136 36.0862 95.534 36.077 95.8554 36.0785C99.7656 36.0785 103.676 36.078 107.586 36.0785C107.853 36.077 108.116 36.0887 108.382 36.0689C108.497 35.7566 108.565 35.4235 108.651 35.1015C108.866 34.2743 109.02 33.4364 109.171 32.5955C109.228 32.2791 109.25 31.9612 109.328 31.6484C109.496 31.6179 109.636 31.6194 109.805 31.6489C109.803 31.817 109.793 31.9835 109.761 32.1491C109.601 33.1673 109.404 34.1742 109.154 35.1746C109.079 35.4737 108.993 35.7683 108.929 36.0699C109.124 36.0816 109.32 36.0811 109.515 36.079C111.853 36.0765 114.194 36.0801 116.53 36.0765C116.61 36.078 116.69 36.0856 116.77 36.0938C116.803 36.174 116.839 36.2522 116.874 36.3314C117.409 35.5464 117.882 34.7156 118.284 33.8548C118.549 33.279 118.81 32.6889 119.009 32.0866C119.048 31.9658 119.096 31.85 119.153 31.7362C119.324 31.7144 119.495 31.7048 119.668 31.7032C119.487 32.3177 119.251 32.9189 119.003 33.509C118.142 35.4951 116.947 37.3313 115.467 38.9111C115.078 39.3539 114.643 39.7419 114.211 40.1405C112.961 41.2572 111.563 42.1967 110.067 42.9513C109.248 43.3448 108.409 43.7059 107.544 43.9862C105.83 44.5351 104.055 44.8647 102.254 44.916C101.652 44.917 101.044 44.9373 100.444 44.8865C99.1247 44.8104 97.81 44.5768 96.5374 44.2223C94.0959 43.5464 91.795 42.3546 89.8211 40.7682C86.9433 38.4648 84.7638 35.3092 83.6436 31.7956C83.6319 31.7439 83.5989 31.6646 83.6669 31.6372ZM99.2466 44.2193C99.0151 44.0344 98.7703 43.8664 98.5397 43.6795C97.6008 42.8837 96.8965 41.9164 96.2861 40.8555C95.6224 39.6815 95.1054 38.4455 94.6915 37.1632C94.6306 36.9713 94.5778 36.7783 94.4935 36.594C92.0215 36.5787 89.5443 36.597 87.0713 36.5858C86.955 36.5904 86.823 36.5701 86.7108 36.6021C86.6188 36.6605 86.6904 36.724 86.7295 36.789C87.574 37.9458 88.5465 39.0071 89.6302 39.9445C91.2222 41.3247 93.0533 42.4201 95.016 43.1854C96.0982 43.5881 97.2296 43.9314 98.3696 44.1218C98.6611 44.1756 98.949 44.2274 99.2466 44.2193ZM95.0653 36.595C95.1445 36.9804 95.2836 37.342 95.4172 37.7132C95.8829 38.9842 96.4369 40.1979 97.1768 41.3349C97.6201 41.9971 98.135 42.6486 98.7358 43.1752C99.1405 43.5185 99.5894 43.8526 100.078 44.0629C100.704 44.3229 101.361 44.4661 102.04 44.3798C103.037 44.263 103.928 43.7516 104.651 43.0737C105.48 42.3124 106.082 41.4151 106.641 40.4473C107.246 39.3158 107.748 38.1316 108.135 36.9088C108.165 36.8062 108.182 36.7016 108.199 36.596C107.893 36.5777 107.588 36.5904 107.281 36.5879C103.456 36.5874 99.63 36.5879 95.8047 36.5879C95.5579 36.5879 95.3116 36.5823 95.0653 36.595ZM103.936 44.265C105.656 44.074 107.357 43.5865 108.947 42.9071C109.471 42.6781 109.98 42.4145 110.489 42.153C111.733 41.4624 112.9 40.6367 113.956 39.683C114.705 38.9908 115.416 38.2591 116.048 37.4578C116.264 37.181 116.493 36.9022 116.666 36.5996C116.332 36.5772 115.995 36.5924 115.66 36.5894C113.544 36.5889 111.429 36.5904 109.312 36.5869C109.142 36.5879 108.969 36.5787 108.799 36.5965C108.669 36.8098 108.629 37.0784 108.54 37.311C108.292 38.0128 108.047 38.7263 107.73 39.3996C107.539 39.7703 107.391 40.1573 107.18 40.5178C106.54 41.6838 105.73 42.8751 104.688 43.7191C104.45 43.9187 104.189 44.0847 103.936 44.265Z" fill="black" stroke="#1CC75D" stroke-width="17.7778"/>
<path d="M86.7107 36.6021C86.823 36.5701 86.955 36.5904 87.0713 36.5859C89.5443 36.597 92.0214 36.5787 94.4935 36.594C94.5778 36.7783 94.6306 36.9713 94.6915 37.1632C95.1054 38.4455 95.6223 39.6815 96.286 40.8555C96.8964 41.9164 97.6008 42.8838 98.5397 43.6795C98.7703 43.8664 99.015 44.0345 99.2466 44.2193C98.949 44.2274 98.6611 44.1756 98.3696 44.1218C97.2296 43.9314 96.0982 43.5881 95.016 43.1854C93.0533 42.4201 91.2221 41.3248 89.6301 39.9445C88.5465 39.0071 87.574 37.9458 86.7295 36.789C86.6904 36.724 86.6188 36.6605 86.7107 36.6021Z" fill="black" stroke="black" stroke-width="17.7778"/>
<path d="M95.0653 36.595C95.3116 36.5823 95.5579 36.5879 95.8047 36.5879C99.63 36.5879 103.456 36.5874 107.281 36.5879C107.588 36.5904 107.893 36.5777 108.199 36.596C108.182 36.7016 108.165 36.8062 108.135 36.9088C107.748 38.1316 107.246 39.3159 106.641 40.4473C106.082 41.4152 105.48 42.3125 104.651 43.0737C103.928 43.7516 103.037 44.263 102.04 44.3798C101.361 44.4661 100.704 44.3229 100.078 44.0629C99.5894 43.8527 99.1405 43.5185 98.7358 43.1752C98.135 42.6486 97.6201 41.9971 97.1768 41.3349C96.4369 40.1979 95.8829 38.9843 95.4172 37.7132C95.2837 37.342 95.1445 36.9804 95.0653 36.595Z" fill="black" stroke="black" stroke-width="17.7778"/>
<path d="M108.799 36.5965C108.969 36.5788 109.142 36.5879 109.313 36.5869C111.429 36.5904 113.544 36.5889 115.66 36.5894C115.995 36.5925 116.332 36.5772 116.666 36.5996C116.493 36.9022 116.264 37.181 116.048 37.4578C115.416 38.2591 114.705 38.9909 113.956 39.683C112.9 40.6367 111.733 41.4624 110.489 42.153C109.98 42.4145 109.471 42.6781 108.947 42.9071C107.357 43.5866 105.656 44.0741 103.936 44.265C104.189 44.0847 104.45 43.9187 104.688 43.7191C105.73 42.8751 106.54 41.6838 107.18 40.5179C107.391 40.1573 107.539 39.7704 107.73 39.3997C108.047 38.7263 108.292 38.0128 108.54 37.311C108.629 37.0784 108.669 36.8098 108.799 36.5965Z" fill="black" stroke="black" stroke-width="17.7778"/>
<path d="M76 1C76 0.447716 76.4477 0 77 0H127C127.552 0 128 0.447715 128 1V51C128 51.5523 127.552 52 127 52H77C76.4477 52 76 51.5523 76 51V1ZM83.7912 19.811C83.7562 19.9228 83.8276 20.037 83.9416 20.0642C83.9767 20.0726 84.0119 20.081 84.047 20.0896C84.0718 20.0956 84.0899 20.1168 84.0921 20.1422V20.1422C84.0975 20.2061 84.1857 20.2171 84.2072 20.1568C84.4779 19.3949 84.7722 18.6447 85.1325 17.9187C85.4397 17.3068 85.7698 16.7091 86.14 16.1322C86.1857 16.0619 86.2294 15.9915 86.2739 15.9222C86.4249 15.6871 86.6935 15.5699 86.9728 15.569C89.1365 15.5624 91.3048 15.5694 93.4688 15.567C93.6397 15.5688 93.811 15.5662 93.9822 15.5654C94.2325 15.5642 94.4098 15.7949 94.3381 16.0347V16.0347C94.0705 16.9863 93.8613 17.9639 93.68 18.9358C93.6334 19.2213 93.5699 19.4913 93.5403 19.7726C93.5248 19.9201 93.6398 20.0452 93.7881 20.045V20.045C93.9108 20.0449 94.0164 19.9596 94.0405 19.8393C94.0805 19.6398 94.1063 19.4387 94.1431 19.237C94.3381 18.0532 94.624 16.8898 94.9505 15.7361C94.9795 15.662 94.9922 15.5599 95.0953 15.5665C99.208 15.5675 103.321 15.567 107.434 15.567C107.506 15.5675 107.578 15.567 107.65 15.5663C108.024 15.5626 108.35 15.7951 108.446 16.1569C108.474 16.2626 108.501 16.369 108.531 16.476C108.798 17.4434 108.994 18.4204 109.162 19.4091C109.189 19.569 109.206 19.727 109.242 19.8828C109.267 19.9951 109.368 20.0714 109.484 20.0733V20.0733C109.634 20.0758 109.757 19.9514 109.745 19.8014C109.743 19.7793 109.741 19.7572 109.738 19.7351C109.534 18.4564 109.26 17.1889 108.911 15.9418V15.9418C108.855 15.749 109.001 15.5649 109.201 15.5656C109.323 15.5659 109.445 15.5677 109.566 15.5675C111.767 15.567 113.967 15.568 116.167 15.567C116.276 15.569 116.386 15.5636 116.496 15.5637C116.662 15.5638 116.823 15.6305 116.916 15.7677C116.964 15.8372 117.007 15.9109 117.052 15.9763C117.792 17.1224 118.414 18.3422 118.887 19.6224C118.907 19.6756 118.928 19.7281 118.95 19.7802C118.989 19.8728 119.077 19.936 119.178 19.9413V19.9413C119.356 19.9508 119.483 19.7804 119.426 19.6111C119.339 19.3565 119.234 19.1052 119.136 18.8576C118.121 16.3744 116.561 14.1131 114.611 12.2718C112.496 10.2817 109.931 8.78211 107.152 7.93965C105.763 7.52832 104.321 7.24852 102.874 7.1632C102.162 7.10633 101.44 7.1307 100.727 7.13832C97.9609 7.28863 95.2364 8.0143 92.7918 9.32445C91.4197 10.0461 90.1487 10.9439 88.9964 11.9808C86.7677 13.9862 85.0269 16.5263 83.964 19.3304C83.9037 19.4904 83.842 19.6486 83.7912 19.811ZM78.0287 22.2011C77.8649 22.2114 77.796 22.3553 77.8992 22.4829C78.0958 22.7258 78.3107 22.9547 78.4903 23.2091C78.5782 23.3233 78.5121 23.4244 78.4781 23.5442C78.2075 24.2394 77.9409 24.9366 77.6671 25.6308C77.6101 25.7891 77.547 25.9456 77.4842 26.1022C77.3392 26.4641 77.5906 26.8229 77.9805 26.8237V26.8237C79.6222 26.8232 81.2645 26.8237 82.9062 26.8237C83.0044 26.8239 83.1024 26.8228 83.2003 26.8222C83.444 26.8209 83.6128 27.0493 83.5212 27.2751V27.2751C83.3404 27.7362 83.1647 28.1983 82.9941 28.6635V28.6635C82.8111 29.1645 83.1532 29.6502 83.6865 29.6498C84.222 29.6494 84.7577 29.645 85.293 29.6496V29.6496C85.5696 29.6534 85.8196 29.4935 85.9151 29.2339C85.9442 29.1547 85.9726 29.075 86.0034 28.9956C86.527 27.6555 87.0312 26.3072 87.5568 24.9676C87.8544 24.1419 88.1921 23.3325 88.5003 22.5108V22.5108C88.5561 22.3596 88.4386 22.2049 88.2774 22.2029C87.6553 22.1949 87.0324 22.2055 86.4102 22.2016C86.2978 22.2036 86.1847 22.2017 86.0715 22.2002C85.7063 22.1952 85.393 22.4277 85.2598 22.7678C85.0637 23.2687 84.8759 23.7732 84.6831 24.275C84.6338 24.4054 84.5876 24.5363 84.5375 24.6658C84.463 24.8583 84.2832 24.9931 84.0768 24.994V24.994C83.348 24.991 82.6193 24.9925 81.8906 24.9925V24.9925C81.4687 24.9909 81.2015 24.6008 81.355 24.2078C81.4895 23.8632 81.6318 23.5211 81.7596 23.175V23.175C81.9434 22.6728 81.608 22.2033 81.0732 22.2015C80.0585 22.1981 79.0429 22.2071 78.0287 22.2011V22.2011ZM89.391 22.2016C89.2702 22.2187 89.2278 22.3086 89.2996 22.4073C89.4616 22.63 89.6371 22.8404 89.8176 23.0501C89.8539 23.0947 89.8935 23.1406 89.9287 23.189C89.9863 23.2682 90.0002 23.3697 89.9732 23.4639C89.9381 23.5858 89.8837 23.7042 89.8367 23.8247C89.7879 23.9495 89.8792 24.0772 90.0131 24.0805V24.0805C91.8423 24.0836 93.6748 24.0756 95.5044 24.0822C95.8512 24.0835 96.1099 24.4294 95.9664 24.7452V24.7452C95.8983 24.895 95.7488 24.9889 95.5843 24.993C95.5741 24.9932 95.564 24.9934 95.5538 24.9935C93.7587 24.9905 91.9631 24.9925 90.168 24.9925C90.096 24.9929 90.0242 24.9923 89.9526 24.9916C89.5955 24.9879 89.2868 25.2033 89.1629 25.5383C89.1435 25.5907 89.1238 25.6431 89.1031 25.6953C88.7496 26.5982 88.413 27.5072 88.06 28.4106C87.9456 28.7168 87.8187 29.0195 87.7064 29.327C87.6489 29.4845 87.7639 29.6496 87.9316 29.6496V29.6496C90.8173 29.6444 93.7112 29.6535 96.5971 29.6462C96.9513 29.6453 97.2748 29.4538 97.3958 29.121C97.4228 29.0466 97.4504 28.9711 97.481 28.8945C97.5246 28.7789 97.5707 28.6638 97.6167 28.5487C97.7588 28.1936 97.5075 27.836 97.125 27.8352V27.8352C95.5 27.8342 93.875 27.8352 92.25 27.8347C92.2079 27.8346 92.1658 27.8347 92.1238 27.835C91.7639 27.8374 91.5259 27.4974 91.6588 27.1629V27.1629C91.7413 26.9551 91.946 26.8282 92.1695 26.827C93.888 26.8175 95.6096 26.8275 97.3281 26.8237C97.4707 26.8214 97.6141 26.8244 97.7576 26.8256C98.087 26.8284 98.3769 26.6345 98.4936 26.3265C98.5277 26.2363 98.5614 26.146 98.5977 26.0574C98.9704 25.0433 99.3817 24.0439 99.7611 23.0318C99.7864 22.9623 99.8132 22.8936 99.8404 22.8253C99.9647 22.5133 99.7459 22.2008 99.4102 22.2016V22.2016C96.0703 22.2021 92.7304 22.2021 89.391 22.2016V22.2016ZM99.5099 28.3449C99.2722 28.9853 99.7212 29.6548 100.404 29.6621C100.8 29.6664 101.196 29.6655 101.594 29.6491C102.069 29.6344 102.541 29.6816 103.016 29.6532C103.422 29.6354 103.828 29.6603 104.234 29.6623C104.944 29.6364 105.656 29.6527 106.367 29.6481C106.858 29.6517 107.35 29.639 107.84 29.6603C107.926 29.6622 108.012 29.6645 108.098 29.6653C108.426 29.6683 108.706 29.4562 108.821 29.1483C108.882 28.9832 108.941 28.817 109.006 28.6538C109.285 27.9114 109.585 27.1786 109.859 26.4352C110.131 25.7151 110.412 24.9991 110.69 24.2821C110.856 23.8191 111.039 23.3621 111.216 22.9033C111.35 22.5585 111.104 22.2028 110.734 22.2021V22.2021C107.392 22.2016 104.05 22.2026 100.708 22.2011V22.2011C100.64 22.2011 100.597 22.2598 100.636 22.3155C100.645 22.3275 100.653 22.3388 100.659 22.3488C100.888 22.6474 101.152 22.9211 101.372 23.2258C101.467 23.332 101.379 23.4564 101.346 23.5706C100.849 24.8214 100.387 26.0853 99.89 27.3355C99.7814 27.6341 99.658 27.9261 99.5534 28.2257C99.5391 28.2655 99.5246 28.3052 99.5099 28.3449ZM112.3 22.2011C112.162 22.2108 112.106 22.3305 112.192 22.4386C112.36 22.6508 112.545 22.8507 112.709 23.0654C112.825 23.2181 112.855 23.4203 112.789 23.6006V23.6006C112.406 24.6172 111.998 25.6232 111.626 26.6434C111.341 27.3833 111.041 28.1166 110.77 28.8615V28.8615C110.624 29.2555 110.897 29.6485 111.317 29.6493C111.885 29.6503 112.453 29.6474 113.02 29.6483C113.368 29.6488 113.68 29.4635 113.799 29.1364C113.813 29.0952 113.829 29.0544 113.845 29.0144C114.359 27.6834 114.865 26.3499 115.378 25.0189C115.439 24.8715 115.49 24.7188 115.545 24.5675C115.666 24.2317 115.993 24.0351 116.35 24.033C116.596 24.0316 116.841 24.0315 117.087 24.0326C117.445 24.0343 117.682 24.3671 117.552 24.701V24.701C117.016 26.1071 116.475 27.5118 115.936 28.9164V28.9164C115.795 29.279 116.053 29.6485 116.442 29.6492C117.078 29.6505 117.716 29.644 118.352 29.6502C118.379 29.6504 118.405 29.6505 118.431 29.6505C118.649 29.65 118.848 29.5182 118.924 29.314V29.314C119.295 28.308 119.692 27.3112 120.073 26.3093C120.307 25.678 120.557 25.0529 120.794 24.4227V24.4227C120.881 24.1818 121.119 24.038 121.375 24.0353C121.631 24.0326 121.888 24.0318 122.145 24.0326C122.577 24.0339 122.86 24.4212 122.709 24.8259V24.8259C122.202 26.1209 121.715 27.4229 121.21 28.7188V28.7188C121.036 29.1885 121.36 29.6501 121.861 29.65C122.418 29.6499 122.975 29.6445 123.531 29.6496C123.59 29.6505 123.648 29.6505 123.707 29.6497C123.872 29.6476 124.024 29.5514 124.086 29.3983V29.3983C124.92 27.2238 125.755 25.0484 126.593 22.8754V22.8754C126.722 22.5361 126.484 22.2008 126.121 22.2021C126.07 22.2023 126.019 22.2023 125.969 22.2021C121.413 22.2011 116.856 22.2036 112.3 22.2011V22.2011ZM119.558 32.056C119.615 31.8813 119.482 31.7042 119.299 31.7205V31.7205C119.208 31.7286 119.127 31.7852 119.091 31.8694C119.06 31.9404 119.033 32.0125 119.009 32.0866C118.81 32.6889 118.549 33.279 118.284 33.8548C117.909 34.6569 117.473 35.4329 116.983 36.1702C116.936 36.2408 116.829 36.2317 116.795 36.1539V36.1539C116.78 36.1171 116.745 36.0911 116.705 36.0874C116.647 36.082 116.589 36.0776 116.53 36.0765C114.194 36.0801 111.853 36.0765 109.515 36.0791V36.0791C109.206 36.0823 108.99 35.7992 109.069 35.5007C109.098 35.3922 109.126 35.2837 109.154 35.1746C109.404 34.1743 109.601 33.1673 109.761 32.1491C109.776 32.0731 109.786 31.997 109.793 31.9205C109.806 31.7642 109.692 31.6229 109.535 31.6265V31.6265C109.409 31.6294 109.308 31.7269 109.285 31.8508C109.239 32.0979 109.216 32.3471 109.171 32.5955C109.02 33.4364 108.866 34.2743 108.651 35.1015C108.62 35.217 108.592 35.334 108.562 35.4509C108.467 35.8314 108.131 36.0816 107.738 36.0788C107.688 36.0785 107.637 36.0783 107.586 36.0786C103.676 36.078 99.7656 36.0786 95.8555 36.0786C95.771 36.0782 95.6865 36.0785 95.6021 36.0789C95.1769 36.0811 94.8097 35.7976 94.7009 35.3865C94.4351 34.3824 94.2306 33.3685 94.0639 32.34C94.0411 32.1776 94.0198 32.0154 93.9921 31.8542C93.9706 31.7291 93.8712 31.6285 93.7443 31.6263V31.6263C93.5901 31.6235 93.4761 31.7604 93.4872 31.9142C93.4939 32.0076 93.5053 32.1008 93.5226 32.1943C93.7166 33.3694 93.9466 34.545 94.2574 35.6952V35.6952C94.3098 35.8942 94.1536 36.0799 93.9477 36.0799C93.8389 36.0798 93.7301 36.0786 93.6211 36.0786C91.5391 36.078 89.457 36.0791 87.375 36.078C87.1437 36.0789 86.9128 36.0728 86.6813 36.0795C86.6238 36.0811 86.5758 36.1236 86.5668 36.1804V36.1804C86.5496 36.2886 86.4113 36.324 86.3489 36.234C86.3257 36.2005 86.3027 36.1668 86.2802 36.1329C85.424 34.8273 84.7273 33.4202 84.2306 31.9394V31.9394C84.1677 31.7526 83.9903 31.6131 83.7933 31.6197C83.7496 31.6211 83.7071 31.6263 83.667 31.6372C83.5989 31.6646 83.6319 31.7439 83.6436 31.7957C84.7638 35.3092 86.9434 38.4648 89.8211 40.7682C91.795 42.3546 94.0959 43.5464 96.5375 44.2223C97.81 44.5768 99.1248 44.8104 100.444 44.8866C101.044 44.9373 101.652 44.917 102.254 44.916C104.055 44.8647 105.83 44.5352 107.544 43.9862C108.409 43.7059 109.249 43.3448 110.067 42.9513C111.563 42.1967 112.961 41.2572 114.211 40.1405C114.643 39.7419 115.078 39.3539 115.467 38.9111C116.947 37.3313 118.142 35.4951 119.003 33.509C119.204 33.0323 119.396 32.5483 119.558 32.056Z" fill="black"/>
<path d="M100.727 7.13833C101.44 7.13071 102.162 7.10634 102.874 7.16321C104.321 7.24853 105.763 7.52833 107.152 7.93966C109.931 8.78212 112.496 10.2817 114.611 12.2718C116.561 14.1131 118.121 16.3744 119.136 18.8576C119.277 19.2126 119.432 19.5752 119.525 19.9443C119.354 19.9499 119.185 19.9459 119.015 19.9291C118.97 19.8281 118.925 19.7265 118.887 19.6224C118.414 18.3422 117.792 17.1224 117.052 15.9763C116.961 15.8438 116.877 15.6772 116.748 15.5797C116.558 15.5508 116.359 15.5706 116.167 15.567C113.967 15.568 111.767 15.567 109.566 15.5675C109.318 15.568 109.07 15.5599 108.822 15.5731C108.846 15.6975 108.876 15.8199 108.911 15.9418C109.26 17.189 109.534 18.4565 109.738 19.7351C109.753 19.8458 109.752 19.956 109.749 20.0667C109.596 20.0769 109.447 20.0759 109.294 20.0647C109.217 19.8504 109.2 19.6315 109.162 19.4091C108.994 18.4204 108.798 17.4434 108.531 16.476C108.446 16.1708 108.382 15.8702 108.259 15.5772C107.983 15.5553 107.712 15.569 107.434 15.567C103.321 15.567 99.2081 15.5675 95.0953 15.5665C94.9922 15.5599 94.9795 15.662 94.9506 15.7361C94.624 16.8899 94.3381 18.0533 94.1431 19.237C94.0939 19.5066 94.0644 19.7752 93.9943 20.0403C93.8374 20.0469 93.681 20.0474 93.5241 20.0363C93.5292 19.6559 93.6191 19.3091 93.68 18.9358C93.8613 17.9639 94.0705 16.9863 94.3381 16.0347C94.3838 15.8818 94.4265 15.729 94.4595 15.5731C94.1299 15.5574 93.7988 15.5706 93.4688 15.567C91.1587 15.5695 88.8436 15.5614 86.5346 15.5706C86.3772 15.7427 86.2664 15.9377 86.14 16.1322C85.7698 16.7091 85.4397 17.3068 85.1325 17.9187C84.7313 18.7271 84.4119 19.5655 84.1159 20.4166C84.1062 20.311 84.0976 20.2054 84.0884 20.0997C83.9706 20.0708 83.8528 20.0429 83.7345 20.0159C83.7904 19.7798 83.8787 19.5569 83.964 19.3304C85.0269 16.5263 86.7677 13.9862 88.9964 11.9808C90.1487 10.9439 91.4197 10.0461 92.7918 9.32446C95.2365 8.01431 97.9609 7.28864 100.727 7.13833ZM95.1643 15.0516C95.2573 15.0582 95.3502 15.0638 95.4431 15.0648C99.4061 15.0638 103.369 15.0648 107.332 15.0643C107.585 15.0633 107.838 15.0709 108.091 15.0582C108.031 14.7418 107.897 14.4275 107.787 14.1238C107.527 13.4205 107.219 12.7375 106.893 12.0621C106.346 11.0307 105.718 10.0273 104.894 9.19243C104.26 8.5597 103.51 8.01989 102.638 7.77614C101.992 7.58622 101.298 7.58673 100.651 7.7736C99.8616 7.99196 99.1943 8.43935 98.5977 8.9888C97.8679 9.66622 97.2682 10.5092 96.7685 11.3669C96.0992 12.5283 95.5848 13.781 95.1643 15.0516ZM98.9313 7.8381C97.3449 8.04985 95.7636 8.53685 94.2899 9.15689C93.8669 9.35544 93.4444 9.55704 93.029 9.77235C90.7225 11.0043 88.6816 12.7177 87.085 14.7895C87.0246 14.8759 86.9688 14.9647 86.9124 15.0536C87.017 15.0592 87.1216 15.0643 87.2267 15.0653C89.4088 15.0643 91.5914 15.0653 93.7734 15.0648C94.0609 15.0627 94.3417 15.0754 94.6281 15.0541C94.6875 14.8962 94.7418 14.7383 94.7916 14.5773C95.1877 13.3931 95.6859 12.2469 96.2988 11.1582C96.9051 10.0989 97.6252 9.13403 98.5606 8.34185C98.7739 8.16767 99.0034 8.01481 99.2111 7.83454C99.1177 7.83353 99.0247 7.83403 98.9313 7.8381ZM104.049 7.82946C104.348 8.06864 104.66 8.27431 104.942 8.53583C105.913 9.42146 106.644 10.4995 107.249 11.6594C107.647 12.4109 107.985 13.1899 108.276 13.9887C108.416 14.3401 108.52 14.7032 108.655 15.0556C108.958 15.0754 109.262 15.0617 109.566 15.0648C111.648 15.0663 113.73 15.0622 115.813 15.0653C116 15.0668 116.188 15.0658 116.376 15.0536C116.249 14.8368 116.1 14.6402 115.935 14.4513C114.349 12.4958 112.357 10.8616 110.121 9.70228C108.648 8.93142 107.062 8.36978 105.436 8.02345C104.984 7.94118 104.507 7.82032 104.049 7.82946Z" fill="#1CC75D"/>
<path d="M102.638 7.77611C103.51 8.01986 104.26 8.55967 104.893 9.1924C105.718 10.0272 106.346 11.0307 106.893 12.0621C107.219 12.7374 107.527 13.4205 107.787 14.1238C107.897 14.4274 108.031 14.7418 108.091 15.0581C107.838 15.0708 107.585 15.0632 107.332 15.0642C103.369 15.0647 99.4061 15.0637 95.4431 15.0647C95.3502 15.0637 95.2572 15.0581 95.1643 15.0515C95.5848 13.781 96.0992 12.5282 96.7685 11.3669C97.2682 10.5092 97.8679 9.66619 98.5976 8.98877C99.1943 8.43932 99.8616 7.99193 100.651 7.77358C101.298 7.5867 101.992 7.58619 102.638 7.77611Z" fill="black"/>
<path d="M99.2111 7.83456C99.0034 8.01483 98.7738 8.16768 98.5606 8.34186C97.6252 9.13405 96.9051 10.0989 96.2988 11.1582C95.6858 12.2469 95.1877 13.3931 94.7916 14.5773C94.7418 14.7383 94.6875 14.8962 94.6281 15.0541C94.3416 15.0755 94.0608 15.0628 93.7734 15.0648C91.5913 15.0653 89.4088 15.0643 87.2267 15.0653C87.1216 15.0643 87.017 15.0592 86.9124 15.0536C86.9687 14.9648 87.0246 14.8759 87.085 14.7896C88.6816 12.7177 90.7225 11.0043 93.029 9.77237C93.4443 9.55706 93.8668 9.35546 94.2899 9.1569C95.7635 8.53686 97.3449 8.04987 98.9313 7.83811C99.0247 7.83405 99.1176 7.83354 99.2111 7.83456Z" fill="black"/>
<path d="M104.049 7.82947C104.507 7.82033 104.984 7.94119 105.436 8.02345C107.062 8.36978 108.648 8.93142 110.121 9.70228C112.357 10.8616 114.35 12.4958 115.935 14.4513C116.1 14.6403 116.249 14.8368 116.376 15.0536C116.188 15.0658 116 15.0668 115.813 15.0653C113.731 15.0622 111.648 15.0663 109.566 15.0648C109.262 15.0617 108.958 15.0754 108.655 15.0556C108.52 14.7032 108.416 14.3401 108.276 13.9887C107.985 13.1899 107.647 12.411 107.249 11.6594C106.644 10.4995 105.913 9.42146 104.942 8.53584C104.66 8.27431 104.348 8.06865 104.049 7.82947Z" fill="black"/>
<path d="M78.0287 22.2011C79.384 22.2092 80.7419 22.1904 82.0967 22.2102C82.0353 22.5382 81.8753 22.8587 81.7596 23.175C81.5382 23.7743 81.2736 24.3618 81.0806 24.9707C81.3513 25.0047 81.6189 24.9915 81.8906 24.9925C82.6193 24.9925 83.348 24.991 84.0767 24.994C84.1874 24.9935 84.2971 24.9834 84.4073 24.9707C84.516 24.7447 84.5947 24.5091 84.683 24.275C84.9466 23.5889 85.201 22.8978 85.4798 22.2178C85.7865 22.1833 86.1008 22.2072 86.4101 22.2016C87.1378 22.2061 87.8665 22.1909 88.5937 22.2087C88.5663 22.3107 88.5368 22.4118 88.5003 22.5108C88.192 23.3325 87.8543 24.1419 87.5567 24.9676C87.0312 26.3072 86.5269 27.6555 86.0034 28.9956C85.9185 29.2145 85.852 29.4354 85.7378 29.6415C85.5895 29.6486 85.4412 29.6517 85.2929 29.6497C84.4114 29.642 83.5288 29.6588 82.6477 29.642C82.728 29.3089 82.8762 28.9859 82.9941 28.6635C83.1647 28.1983 83.3404 27.7362 83.5212 27.2751C83.5801 27.1299 83.6308 26.9836 83.6679 26.8313C83.4135 26.8161 83.1606 26.8242 82.9062 26.8237C81.2644 26.8237 79.6222 26.8232 77.9804 26.8237C77.728 26.8232 77.4782 26.8328 77.2263 26.811C77.3451 26.4088 77.5249 26.0254 77.6671 25.6308C77.9408 24.9366 78.2074 24.2394 78.4781 23.5442C78.5121 23.4244 78.5781 23.3233 78.4903 23.2091C78.2475 22.8653 77.9403 22.5682 77.7011 22.2198C77.8012 22.1879 77.9241 22.2077 78.0287 22.2011Z" fill="#1CC75D"/>
<path d="M89.391 22.2015C92.7304 22.202 96.0702 22.202 99.4101 22.2015C99.6305 22.201 99.8504 22.1965 100.07 22.2066C99.9865 22.4895 99.8626 22.7535 99.761 23.0318C99.3817 24.0439 98.9704 25.0433 98.5976 26.0574C98.495 26.3082 98.4128 26.5728 98.2833 26.8084C97.9674 26.8399 97.6455 26.8186 97.3281 26.8236C95.4878 26.8277 93.6439 26.816 91.8041 26.8292C91.6553 27.14 91.5334 27.4823 91.4385 27.8139C91.7091 27.8464 91.9778 27.8337 92.25 27.8347C93.875 27.8352 95.5 27.8342 97.125 27.8352C97.3763 27.8357 97.6262 27.8286 97.8775 27.8428C97.7668 28.2003 97.613 28.5446 97.4809 28.8945C97.3758 29.1576 97.3073 29.4074 97.1686 29.6445C94.0933 29.6547 91.0079 29.644 87.9315 29.6496C87.8198 29.6496 87.7086 29.6466 87.5979 29.6425C87.7309 29.2251 87.9067 28.8209 88.06 28.4106C88.4129 27.5072 88.7496 26.5982 89.1031 25.6953C89.195 25.4632 89.2681 25.2276 89.3758 25.0021C89.6403 24.9813 89.9029 24.994 90.1679 24.9925C91.9631 24.9925 93.7587 24.9904 95.5538 24.9935C95.6513 24.9925 95.7488 24.9843 95.8458 24.9762C96.0098 24.704 96.1073 24.3872 96.2048 24.0855C94.1426 24.0733 92.0758 24.084 90.0131 24.0804C89.9288 24.0784 89.845 24.0718 89.7612 24.0652C89.8145 23.8083 89.9719 23.5747 90.0039 23.3177C89.9628 23.2192 89.8846 23.1324 89.8175 23.0501C89.5885 22.784 89.3676 22.5169 89.1721 22.2249C89.228 22.1893 89.3265 22.2107 89.391 22.2015Z" fill="#1CC75D"/>
<path d="M100.598 22.2147C100.634 22.2056 100.671 22.201 100.708 22.201C104.05 22.2026 107.393 22.2015 110.734 22.202C110.982 22.2026 111.23 22.1954 111.477 22.2076C111.228 22.9033 110.94 23.5858 110.69 24.282C110.412 24.9991 110.131 25.7151 109.859 26.4352C109.585 27.1786 109.285 27.9114 109.006 28.6538C108.876 28.9793 108.771 29.317 108.621 29.6334C108.36 29.676 108.103 29.6659 107.84 29.6603C107.35 29.639 106.858 29.6517 106.367 29.6481C105.656 29.6527 104.944 29.6364 104.234 29.6623C103.828 29.6603 103.422 29.6354 103.016 29.6532C102.541 29.6816 102.069 29.6344 101.594 29.6491C100.733 29.6847 99.8769 29.6471 99.0151 29.643C99.1776 29.1652 99.3828 28.7015 99.5534 28.2257C99.658 27.9261 99.7814 27.6341 99.8901 27.3355C100.387 26.0853 100.849 24.8213 101.347 23.5706C101.379 23.4563 101.467 23.3319 101.372 23.2258C101.153 22.9211 100.888 22.6474 100.659 22.3488C100.637 22.3127 100.587 22.2604 100.598 22.2147ZM102.861 27.8164C103.133 27.8459 103.403 27.8337 103.676 27.8352C104.405 27.8362 105.133 27.8322 105.862 27.8372C105.972 27.8372 106.08 27.8266 106.189 27.8134C106.388 27.3553 106.547 26.88 106.734 26.4174C106.952 25.873 107.152 25.3226 107.363 24.7756C107.451 24.5456 107.55 24.3217 107.623 24.086C106.663 24.0708 105.702 24.087 104.742 24.0789C104.597 24.0794 104.447 24.0713 104.303 24.0931C104.165 24.3232 104.097 24.5984 103.993 24.8462C103.694 25.5993 103.41 26.358 103.121 27.1146C103.031 27.3497 102.927 27.5732 102.861 27.8164Z" fill="#1CC75D"/>
<path d="M112.3 22.201C116.856 22.2036 121.413 22.201 125.969 22.202C126.256 22.2036 126.541 22.1949 126.828 22.2086C126.766 22.4372 126.677 22.6545 126.593 22.8754C125.755 25.0483 124.92 27.2238 124.086 29.3983C124.053 29.481 124.014 29.5613 123.974 29.641C123.826 29.6486 123.679 29.6517 123.531 29.6496C122.648 29.6415 121.764 29.6598 120.881 29.6415C120.962 29.3251 121.094 29.0321 121.21 28.7188C121.715 27.4229 122.202 26.1208 122.709 24.8259C122.808 24.5603 122.92 24.3191 122.976 24.0403C122.306 24.0302 121.628 24.0286 120.959 24.0413C120.896 24.1658 120.841 24.2912 120.794 24.4227C120.557 25.0529 120.307 25.678 120.073 26.3092C119.692 27.3111 119.295 28.308 118.924 29.314C118.883 29.4242 118.834 29.5318 118.785 29.639C118.641 29.6481 118.497 29.6517 118.352 29.6501C117.457 29.6415 116.562 29.6577 115.667 29.6425C115.741 29.3937 115.842 29.1581 115.936 28.9163C116.475 27.5117 117.016 26.1071 117.552 24.701C117.638 24.4816 117.732 24.2683 117.791 24.0393C117.12 24.0297 116.444 24.0292 115.773 24.0388C115.602 24.3445 115.511 24.6944 115.378 25.0189C114.865 26.3499 114.359 27.6834 113.845 29.0143C113.76 29.2251 113.699 29.4592 113.58 29.6506C112.548 29.643 111.515 29.6562 110.484 29.644C110.56 29.3744 110.673 29.1235 110.77 28.8615C111.041 28.1165 111.341 27.3833 111.626 26.6434C111.998 25.6232 112.406 24.6172 112.789 23.6006C112.824 23.5061 112.852 23.4096 112.88 23.3131C112.638 22.9211 112.289 22.6017 112.03 22.2198C112.112 22.1904 112.214 22.2071 112.3 22.201Z" fill="#1CC75D"/>
<path d="M104.303 24.0932C104.447 24.0713 104.597 24.0795 104.742 24.079C105.702 24.0871 106.663 24.0708 107.623 24.0861C107.55 24.3217 107.451 24.5456 107.362 24.7757C107.152 25.3226 106.952 25.873 106.734 26.4174C106.546 26.88 106.387 27.3554 106.189 27.8134C106.08 27.8266 105.972 27.8373 105.862 27.8373C105.133 27.8322 104.405 27.8363 103.676 27.8352C103.403 27.8337 103.133 27.8459 102.861 27.8165C102.927 27.5732 103.031 27.3498 103.121 27.1147C103.41 26.358 103.694 25.5993 103.993 24.8463C104.097 24.5984 104.165 24.3232 104.303 24.0932Z" fill="black"/>
<path d="M83.6669 31.6372C83.8045 31.5996 83.9706 31.6306 84.1118 31.6428C84.1549 31.7403 84.1966 31.8383 84.2306 31.9394C84.7272 33.4201 85.424 34.8273 86.2801 36.1329C86.3578 36.2497 86.4396 36.3634 86.5239 36.4756C86.5417 36.3446 86.5604 36.2136 86.5828 36.0831C86.8474 36.0709 87.1109 36.079 87.375 36.078C89.457 36.079 91.539 36.078 93.6211 36.0785C93.8577 36.0785 94.0938 36.0846 94.33 36.0704C94.3117 35.944 94.2899 35.8185 94.2574 35.6951C93.9466 34.5449 93.7165 33.3694 93.5226 32.1943C93.489 32.0125 93.4774 31.8322 93.4799 31.6479C93.6434 31.621 93.7892 31.6164 93.9527 31.6489C94.0019 31.8774 94.0314 32.1085 94.0639 32.34C94.2685 33.6024 94.5301 34.843 94.8921 36.0704C95.2136 36.0862 95.534 36.077 95.8554 36.0785C99.7656 36.0785 103.676 36.078 107.586 36.0785C107.853 36.077 108.116 36.0887 108.382 36.0689C108.497 35.7566 108.565 35.4235 108.651 35.1015C108.866 34.2743 109.02 33.4364 109.171 32.5955C109.228 32.2791 109.25 31.9612 109.328 31.6484C109.496 31.6179 109.636 31.6194 109.805 31.6489C109.803 31.817 109.793 31.9835 109.761 32.1491C109.601 33.1673 109.404 34.1742 109.154 35.1746C109.079 35.4737 108.993 35.7683 108.929 36.0699C109.124 36.0816 109.32 36.0811 109.515 36.079C111.853 36.0765 114.194 36.0801 116.53 36.0765C116.61 36.078 116.69 36.0856 116.77 36.0938C116.803 36.174 116.839 36.2522 116.874 36.3314C117.409 35.5464 117.882 34.7156 118.284 33.8548C118.549 33.279 118.81 32.6889 119.009 32.0866C119.048 31.9658 119.096 31.85 119.153 31.7362C119.324 31.7144 119.495 31.7048 119.668 31.7032C119.487 32.3177 119.251 32.9189 119.003 33.509C118.142 35.4951 116.947 37.3313 115.467 38.9111C115.078 39.3539 114.643 39.7419 114.211 40.1405C112.961 41.2572 111.563 42.1967 110.067 42.9513C109.248 43.3448 108.409 43.7059 107.544 43.9862C105.83 44.5351 104.055 44.8647 102.254 44.916C101.652 44.917 101.044 44.9373 100.444 44.8865C99.1247 44.8104 97.81 44.5768 96.5374 44.2223C94.0959 43.5464 91.795 42.3546 89.8211 40.7682C86.9433 38.4648 84.7638 35.3092 83.6436 31.7956C83.6319 31.7439 83.5989 31.6646 83.6669 31.6372ZM99.2466 44.2193C99.0151 44.0344 98.7703 43.8664 98.5397 43.6795C97.6008 42.8837 96.8965 41.9164 96.2861 40.8555C95.6224 39.6815 95.1054 38.4455 94.6915 37.1632C94.6306 36.9713 94.5778 36.7783 94.4935 36.594C92.0215 36.5787 89.5443 36.597 87.0713 36.5858C86.955 36.5904 86.823 36.5701 86.7108 36.6021C86.6188 36.6605 86.6904 36.724 86.7295 36.789C87.574 37.9458 88.5465 39.0071 89.6302 39.9445C91.2222 41.3247 93.0533 42.4201 95.016 43.1854C96.0982 43.5881 97.2296 43.9314 98.3696 44.1218C98.6611 44.1756 98.949 44.2274 99.2466 44.2193ZM95.0653 36.595C95.1445 36.9804 95.2836 37.342 95.4172 37.7132C95.8829 38.9842 96.4369 40.1979 97.1768 41.3349C97.6201 41.9971 98.135 42.6486 98.7358 43.1752C99.1405 43.5185 99.5894 43.8526 100.078 44.0629C100.704 44.3229 101.361 44.4661 102.04 44.3798C103.037 44.263 103.928 43.7516 104.651 43.0737C105.48 42.3124 106.082 41.4151 106.641 40.4473C107.246 39.3158 107.748 38.1316 108.135 36.9088C108.165 36.8062 108.182 36.7016 108.199 36.596C107.893 36.5777 107.588 36.5904 107.281 36.5879C103.456 36.5874 99.63 36.5879 95.8047 36.5879C95.5579 36.5879 95.3116 36.5823 95.0653 36.595ZM103.936 44.265C105.656 44.074 107.357 43.5865 108.947 42.9071C109.471 42.6781 109.98 42.4145 110.489 42.153C111.733 41.4624 112.9 40.6367 113.956 39.683C114.705 38.9908 115.416 38.2591 116.048 37.4578C116.264 37.181 116.493 36.9022 116.666 36.5996C116.332 36.5772 115.995 36.5924 115.66 36.5894C113.544 36.5889 111.429 36.5904 109.312 36.5869C109.142 36.5879 108.969 36.5787 108.799 36.5965C108.669 36.8098 108.629 37.0784 108.54 37.311C108.292 38.0128 108.047 38.7263 107.73 39.3996C107.539 39.7703 107.391 40.1573 107.18 40.5178C106.54 41.6838 105.73 42.8751 104.688 43.7191C104.45 43.9187 104.189 44.0847 103.936 44.265Z" fill="#1CC75D"/>
<path d="M86.7107 36.6021C86.823 36.5701 86.955 36.5904 87.0713 36.5859C89.5443 36.597 92.0214 36.5787 94.4935 36.594C94.5778 36.7783 94.6306 36.9713 94.6915 37.1632C95.1054 38.4455 95.6223 39.6815 96.286 40.8555C96.8964 41.9164 97.6008 42.8838 98.5397 43.6795C98.7703 43.8664 99.015 44.0345 99.2466 44.2193C98.949 44.2274 98.6611 44.1756 98.3696 44.1218C97.2296 43.9314 96.0982 43.5881 95.016 43.1854C93.0533 42.4201 91.2221 41.3248 89.6301 39.9445C88.5465 39.0071 87.574 37.9458 86.7295 36.789C86.6904 36.724 86.6188 36.6605 86.7107 36.6021Z" fill="black"/>
<path d="M95.0653 36.595C95.3116 36.5823 95.5579 36.5879 95.8047 36.5879C99.63 36.5879 103.456 36.5874 107.281 36.5879C107.588 36.5904 107.893 36.5777 108.199 36.596C108.182 36.7016 108.165 36.8062 108.135 36.9088C107.748 38.1316 107.246 39.3159 106.641 40.4473C106.082 41.4152 105.48 42.3125 104.651 43.0737C103.928 43.7516 103.037 44.263 102.04 44.3798C101.361 44.4661 100.704 44.3229 100.078 44.0629C99.5894 43.8527 99.1405 43.5185 98.7358 43.1752C98.135 42.6486 97.6201 41.9971 97.1768 41.3349C96.4369 40.1979 95.8829 38.9843 95.4172 37.7132C95.2837 37.342 95.1445 36.9804 95.0653 36.595Z" fill="black"/>
<path d="M108.799 36.5965C108.969 36.5788 109.142 36.5879 109.313 36.5869C111.429 36.5904 113.544 36.5889 115.66 36.5894C115.995 36.5925 116.332 36.5772 116.666 36.5996C116.493 36.9022 116.264 37.181 116.048 37.4578C115.416 38.2591 114.705 38.9909 113.956 39.683C112.9 40.6367 111.733 41.4624 110.489 42.153C109.98 42.4145 109.471 42.6781 108.947 42.9071C107.357 43.5866 105.656 44.0741 103.936 44.265C104.189 44.0847 104.45 43.9187 104.688 43.7191C105.73 42.8751 106.54 41.6838 107.18 40.5179C107.391 40.1573 107.539 39.7704 107.73 39.3997C108.047 38.7263 108.292 38.0128 108.54 37.311C108.629 37.0784 108.669 36.8098 108.799 36.5965Z" fill="black"/>
</g>
</g>
<defs>
<clipPath id="clip0_170_3">
<rect width="128" height="128" fill="white"/>
</clipPath>
<clipPath id="clip1_170_3">
<rect x="76" width="52" height="52" rx="26" fill="white"/>
</clipPath>
</defs>
</svg>
