<svg width="128" height="128" viewBox="0 0 128 128" fill="none" xmlns="http://www.w3.org/2000/svg">
<g clip-path="url(#clip0_170_3)">
<path d="M64 128C99.346 128 128 99.346 128 64C128 28.654 99.346 0 64 0C28.654 0 0 28.654 0 64C0 99.346 28.654 128 64 128Z" fill="#2F63F9"/>
<path d="M91.3 25.24C93.433 26.817 95.374 28.558 97.28 30.4L98.009 31.09C102.995 35.914 106.696 42.384 108.8 48.96V49.92H107.52L107.19 49.05C105.47 44.621 103.532 40.704 100.8 36.8C95.283 36.337 95.283 36.337 88.98 36.44L82.471 36.437L77.44 36.48L78.72 41.6C79.312 44.371 79.535 47.092 79.68 49.92H78.4L78.073 47.874L77.64 45.18L77.213 42.514C76.879 40.4998 76.528 38.4884 76.16 36.48H53.12C51.837 43.184 51.837 43.184 50.88 49.92H49.6C49.681 45.457 50.66 41.165 51.52 36.8C47.7266 36.716 43.9333 36.6494 40.14 36.6L33.739 36.487L28.48 36.8C25.534 41.008 23.441 45.075 21.76 49.92H20.48C22.445 39.947 29.976 30.612 38.265 25.014C54.663 14.624 74.975 13.989 91.3 25.24Z" fill="#E6C040"/>
<path d="M21.76 80H23.04L23.521 80.985C24.736 83.447 25.987 85.857 27.409 88.206C27.84 88.96 27.84 88.96 28.16 89.92L51.52 89.6L49.92 81.28V80H51.2C51.86 83.302 52.49 86.611 53.12 89.92H76.16C76.6476 87.0144 77.1186 84.106 77.573 81.195L77.76 80H79.36C79.13 82.034 78.783 84.03 78.4 86.04L78.06 87.837C77.76 89.28 77.76 89.28 77.44 89.92C81.273 89.987 85.107 90.02 88.94 90.04L95.409 90.107L100.8 89.6C103.144 85.996 103.144 85.996 105.14 82.28L105.781 80.963L106.24 80H107.52C106.308 86.062 101.76 91.322 97.6 95.68L96.821 96.521C89.409 104.299 78.081 109.114 67.419 109.516C59.616 109.596 52.177 108.792 45.12 105.28L43.916 104.695C37.633 101.522 32.089 97.152 27.84 91.52L27.255 90.745C21.76 83.171 21.76 83.171 21.76 80Z" fill="#E4BF42"/>
<path d="M113.081 56.4C114.979 57.667 116.406 59.67 117.005 61.875C117.527 65.707 117.182 68.707 115.04 71.92C113.062 73.757 110.579 75.102 107.84 75.2L106.964 75.247C103.586 75.359 100.995 74.66 98.24 72.64C95.746 70.193 95.306 68.034 95.2 64.66C95.256 61.852 95.661 60.014 97.535 57.916C101.778 53.869 108.048 53.756 113.081 56.4Z" fill="#EFC537"/>
<path d="M54.72 55.04C60.8 55.04 60.8 55.04 62.413 56.353L63.56 58.12L64.803 59.969L65.92 61.76L66.877 63.181C68.8 66.053 68.8 66.053 68.8 66.88H69.44L69.281 65.731C69.082 63.594 69.09 61.487 69.101 59.341L69.109 56.899L69.12 55.04H74.88V74.88C68.8 74.88 68.8 74.88 67.456 73.954L66.66 72.7L65.764 71.371L64.96 70.08C64.4986 69.45 64.032 68.8233 63.56 68.2C62.49 66.719 61.496 65.204 60.48 63.68V74.88H54.72V55.04Z" fill="#ECC33A"/>
<path d="M35.52 55.04H53.12V60.16H40.96V62.4H52.48V67.52H40.96V69.76H53.12V74.88H35.52V55.04Z" fill="#EDC439"/>
<path d="M29.76 91.2H52.16C52.6767 92.5711 53.1847 93.9455 53.684 95.323C55.364 99.895 57.121 103.951 60.48 107.52V107.84C55.494 108.011 50.577 106.371 46.08 104.32L44.947 103.812C39.222 101.108 33.672 96.847 29.76 91.84V91.2Z" fill="#3264F6"/>
<path d="M13.12 55.04H18.56V62.4H27.84V55.04H33.28V74.88H27.84V67.52H18.56V74.88H13.12V55.04Z" fill="#F0C536"/>
<path d="M82.051 91.169L88.34 91.18L94.631 91.189L99.52 91.2C95.63 98.978 85.281 103.868 77.44 106.56C74.586 107.42 71.77 107.711 68.8 107.84L69.64 106.76C72.83 102.48 74.824 97.711 76.427 92.643C77.363 89.824 77.57 91.197 82.051 91.169Z" fill="#3264F6"/>
<path d="M60.48 18.56L59.66 19.62C56.06 24.462 54.174 29.492 52.16 35.2H29.76C33.49 27.738 43.302 22.865 50.74 20.2C53.874 19.214 57.19 18.56 60.48 18.56ZM68.8 18.56C79.543 18.6 89.712 24.73 97.12 32.04C99.52 34.461 99.52 34.461 99.52 35.2H77.12C76.16 32.64 76.16 32.64 75.725 31.427C74.199 27.217 72.486 23.475 69.702 19.945C69.12 19.2 69.12 19.2 68.8 18.56Z" fill="#3164F7"/>
<path d="M65.5999 18.24C70.2479 20.347 72.4319 25.511 74.1879 29.974C75.5199 33.643 75.5199 33.643 75.5199 35.2H53.4399C55.1139 29.063 57.3889 22.47 62.7199 18.56C63.7529 18.044 64.4499 18.112 65.5999 18.24Z" fill="#3164F7"/>
<path d="M53.4399 91.2H75.5199C74.7259 96.76 72.0259 103.184 67.6829 106.927C66.2059 108.017 65.1729 108.402 63.3599 108.16C57.5119 104.505 55.2499 97.533 53.4399 91.2Z" fill="#3264F6"/>
<path d="M76.8 55.04H82.24V69.76H93.76V74.88H76.8V55.04Z" fill="#F0C536"/>
<path d="M105.84 60.08L107.195 60.055C108.542 60.165 109.284 60.369 110.4 61.12C111.787 62.831 111.552 64.786 111.36 66.88C110.973 68.062 110.703 68.565 109.732 69.317C108.486 69.909 107.475 69.91 106.1 69.92L104.681 69.95C103.127 69.726 102.523 69.271 101.44 68.16C100.935 67.15 101.027 66.16 101 65.04L100.953 63.685C101.153 62.145 101.624 61.553 102.72 60.48C103.729 59.975 104.721 60.092 105.84 60.08Z" fill="#3264F6"/>
<g clip-path="url(#clip1_170_3)">
<path d="M0 0H52V52H0V0ZM7.73449 20.0159C7.85281 20.0429 7.97062 20.0708 8.08844 20.0997C8.09758 20.2054 8.10621 20.311 8.11586 20.4166C8.41191 19.5655 8.73133 18.7271 9.1325 17.9187C9.43973 17.3068 9.7698 16.7091 10.14 16.1322C10.2664 15.9377 10.3771 15.7427 10.5346 15.5705C12.8436 15.5614 15.1587 15.5695 17.4688 15.567C17.7988 15.5705 18.1299 15.5573 18.4595 15.5731C18.4265 15.729 18.3838 15.8818 18.3381 16.0347C18.0705 16.9863 17.8613 17.9639 17.68 18.9358C17.6191 19.3091 17.5292 19.6559 17.5241 20.0362C17.681 20.0474 17.8374 20.0469 17.9943 20.0403C18.0644 19.7752 18.0939 19.5066 18.1431 19.237C18.3381 18.0532 18.624 16.8898 18.9505 15.7361C18.9795 15.662 18.9922 15.5599 19.0953 15.5665C23.208 15.5675 27.3208 15.567 31.4336 15.567C31.7119 15.569 31.983 15.5553 32.2593 15.5771C32.3822 15.8702 32.4457 16.1708 32.531 16.476C32.7981 17.4434 32.9941 18.4204 33.1617 19.4091C33.2003 19.6315 33.217 19.8504 33.2942 20.0647C33.4466 20.0759 33.5964 20.0769 33.7487 20.0667C33.7518 19.956 33.7528 19.8458 33.7375 19.7351C33.5339 18.4564 33.2602 17.1889 32.9108 15.9418C32.8758 15.8199 32.8458 15.6975 32.822 15.5731C33.0703 15.5599 33.3181 15.568 33.5664 15.5675C35.7668 15.567 37.9671 15.568 40.1675 15.567C40.3594 15.5705 40.5585 15.5507 40.7484 15.5797C40.8774 15.6772 40.9612 15.8437 41.0516 15.9763C41.7925 17.1224 42.414 18.3422 42.8873 19.6224C42.9254 19.7265 42.9701 19.828 43.0153 19.9291C43.1854 19.9459 43.3545 19.9499 43.5251 19.9443C43.4317 19.5752 43.2768 19.2126 43.1361 18.8576C42.121 16.3744 40.5605 14.1131 38.611 12.2718C36.4965 10.2817 33.931 8.78211 31.1518 7.93965C29.7629 7.52832 28.3207 7.24852 26.8739 7.1632C26.162 7.10633 25.4404 7.1307 24.7269 7.13832C21.9609 7.28863 19.2364 8.0143 16.7918 9.32445C15.4197 10.0461 14.1487 10.9439 12.9964 11.9808C10.7677 13.9862 9.02688 16.5263 7.96402 19.3304C7.87871 19.5569 7.79035 19.7798 7.73449 20.0159ZM1.70117 22.2198C1.94035 22.5682 2.24758 22.8653 2.49031 23.2091C2.57816 23.3233 2.51215 23.4244 2.47812 23.5442C2.20746 24.2394 1.94086 24.9366 1.66715 25.6308C1.52496 26.0254 1.3452 26.4088 1.22637 26.811C1.47824 26.8328 1.72809 26.8232 1.98047 26.8237C3.62223 26.8232 5.26449 26.8237 6.90625 26.8237C7.16066 26.8242 7.41355 26.8161 7.66797 26.8313C7.6309 26.9836 7.58012 27.1299 7.52121 27.2751C7.34043 27.7362 7.16473 28.1983 6.9941 28.6635C6.87629 28.9859 6.72801 29.3089 6.64777 29.642C7.52883 29.6588 8.41141 29.642 9.29297 29.6496C9.44125 29.6517 9.58953 29.6486 9.73781 29.6415C9.85207 29.4354 9.91859 29.2145 10.0034 28.9956C10.527 27.6555 11.0312 26.3072 11.5568 24.9676C11.8544 24.1419 12.1921 23.3325 12.5003 22.5108C12.5369 22.4118 12.5663 22.3107 12.5938 22.2087C11.8666 22.1909 11.1379 22.2061 10.4102 22.2016C10.1009 22.2071 9.78656 22.1833 9.47984 22.2178C9.20105 22.8978 8.94664 23.5889 8.68309 24.275C8.59473 24.5091 8.51602 24.7447 8.40734 24.9707C8.29715 24.9834 8.18746 24.9935 8.07676 24.994C7.34805 24.991 6.61934 24.9925 5.89062 24.9925C5.61895 24.9915 5.35133 25.0047 5.08066 24.9707C5.27363 24.3618 5.5382 23.7743 5.75961 23.175C5.87539 22.8587 6.03535 22.5382 6.0968 22.2102C4.74195 22.1904 3.38406 22.2092 2.02871 22.2011C1.9241 22.2077 1.80121 22.1879 1.70117 22.2198ZM13.1721 22.2249C13.3677 22.5169 13.5886 22.784 13.8176 23.0501C13.8846 23.1324 13.9628 23.2192 14.0039 23.3177C13.972 23.5747 13.8145 23.8083 13.7612 24.0652C13.845 24.0718 13.9288 24.0784 14.0131 24.0805C16.0758 24.084 18.1426 24.0734 20.2048 24.0855C20.1073 24.3872 20.0098 24.7041 19.8458 24.9762C19.7488 24.9844 19.6513 24.9925 19.5538 24.9935C17.7587 24.9905 15.9631 24.9925 14.168 24.9925C13.9029 24.994 13.6404 24.9813 13.3758 25.0021C13.2681 25.2276 13.195 25.4632 13.1031 25.6953C12.7496 26.5982 12.413 27.5072 12.06 28.4106C11.9067 28.8209 11.731 29.2251 11.5979 29.6425C11.7086 29.6466 11.8198 29.6496 11.9316 29.6496C15.0079 29.6441 18.0934 29.6547 21.1687 29.6446C21.3073 29.4074 21.3759 29.1576 21.481 28.8945C21.613 28.5446 21.7669 28.2003 21.8776 27.8428C21.6262 27.8286 21.3764 27.8357 21.125 27.8352C19.5 27.8342 17.875 27.8352 16.25 27.8347C15.9778 27.8337 15.7092 27.8464 15.4385 27.8139C15.5335 27.4823 15.6554 27.14 15.8041 26.8293C17.6439 26.8161 19.4878 26.8277 21.3281 26.8237C21.6455 26.8186 21.9675 26.8399 22.2833 26.8084C22.4128 26.5728 22.4951 26.3082 22.5977 26.0574C22.9704 25.0433 23.3817 24.0439 23.7611 23.0318C23.8626 22.7536 23.9865 22.4895 24.0703 22.2066C23.8504 22.1965 23.6305 22.2011 23.4102 22.2016C20.0703 22.2021 16.7304 22.2021 13.391 22.2016C13.3265 22.2107 13.228 22.1894 13.1721 22.2249ZM23.0151 29.643C23.8768 29.6471 24.7325 29.6847 25.5938 29.6491C26.0691 29.6344 26.5408 29.6816 27.0156 29.6532C27.4224 29.6354 27.8276 29.6603 28.2344 29.6623C28.9443 29.6364 29.6562 29.6527 30.3672 29.6481C30.8577 29.6517 31.3498 29.639 31.8398 29.6603C32.1029 29.6659 32.3598 29.6761 32.6209 29.6334C32.7707 29.317 32.8763 28.9793 33.0063 28.6538C33.2846 27.9114 33.5852 27.1786 33.8594 26.4352C34.1311 25.7151 34.4124 24.9991 34.6902 24.2821C34.9395 23.5859 35.2275 22.9034 35.4773 22.2077C35.2295 22.1955 34.9822 22.2026 34.7344 22.2021C31.3925 22.2016 28.05 22.2026 24.7081 22.2011C24.6705 22.2011 24.6335 22.2056 24.5984 22.2148C24.5873 22.2605 24.637 22.3128 24.6594 22.3488C24.8884 22.6474 25.1525 22.9211 25.3723 23.2258C25.4668 23.332 25.3789 23.4564 25.3464 23.5706C24.8488 24.8214 24.3867 26.0853 23.89 27.3355C23.7814 27.6341 23.658 27.9261 23.5534 28.2257C23.3827 28.7016 23.1776 29.1652 23.0151 29.643ZM36.0298 22.2198C36.2893 22.6017 36.6382 22.9211 36.8804 23.3132C36.852 23.4096 36.8235 23.5061 36.789 23.6006C36.4061 24.6172 35.9983 25.6232 35.6261 26.6434C35.3412 27.3833 35.0411 28.1166 34.7704 28.8615C34.6729 29.1236 34.5597 29.3744 34.4835 29.6441C35.5154 29.6562 36.5483 29.643 37.5802 29.6507C37.6995 29.4592 37.7599 29.2251 37.8447 29.0144C38.3586 27.6834 38.8649 26.3499 39.3783 25.0189C39.5109 24.6944 39.6023 24.3445 39.7734 24.0388C40.4442 24.0292 41.1201 24.0297 41.7909 24.0393C41.7315 24.2684 41.6376 24.4816 41.5523 24.701C41.0155 26.1071 40.4752 27.5118 39.9359 28.9164C39.842 29.1581 39.7414 29.3937 39.6673 29.6425C40.5615 29.6578 41.4573 29.6415 42.3521 29.6502C42.4968 29.6517 42.6405 29.6481 42.7847 29.639C42.8345 29.5318 42.8827 29.4242 42.9239 29.314C43.2951 28.308 43.6917 27.3112 44.0725 26.3093C44.3066 25.678 44.557 25.0529 44.7941 24.4227C44.8414 24.2912 44.8957 24.1658 44.9592 24.0414C45.6285 24.0287 46.3059 24.0302 46.9757 24.0404C46.9198 24.3191 46.8081 24.5604 46.7086 24.8259C46.2023 26.1209 45.7148 27.4229 45.21 28.7188C45.0938 29.0321 44.9617 29.3252 44.881 29.6415C45.7641 29.6598 46.6482 29.6415 47.5312 29.6496C47.679 29.6517 47.8263 29.6486 47.9741 29.641C48.0137 29.5613 48.0528 29.4811 48.0863 29.3983C48.9196 27.2238 49.7555 25.0484 50.5928 22.8754C50.6766 22.6545 50.7655 22.4372 50.828 22.2087C50.5411 22.195 50.2557 22.2036 49.9688 22.2021C45.4127 22.2011 40.8561 22.2036 36.3 22.2011C36.2136 22.2071 36.1116 22.1904 36.0298 22.2198ZM43.6678 31.7032C43.4952 31.7048 43.324 31.7144 43.1529 31.7363C43.0965 31.85 43.0483 31.9658 43.0087 32.0866C42.8096 32.6889 42.5486 33.279 42.284 33.8548C41.8818 34.7156 41.4091 35.5464 40.8743 36.3314C40.8393 36.2522 40.8027 36.174 40.7702 36.0938C40.69 36.0857 40.6103 36.078 40.53 36.0765C38.1936 36.0801 35.8526 36.0765 33.5151 36.0791C33.3196 36.0811 33.1241 36.0816 32.9291 36.0699C32.9926 35.7683 33.0789 35.4737 33.1536 35.1746C33.4044 34.1743 33.6009 33.1673 33.7614 32.1491C33.7929 31.9836 33.803 31.817 33.8046 31.6489C33.6365 31.6195 33.4963 31.6179 33.3282 31.6484C33.25 31.9612 33.2282 32.2791 33.1708 32.5955C33.02 33.4364 32.8661 34.2743 32.6508 35.1015C32.565 35.4235 32.497 35.7566 32.3822 36.0689C32.1161 36.0887 31.8525 36.077 31.5859 36.0786C27.6758 36.078 23.7656 36.0786 19.8555 36.0786C19.534 36.077 19.2136 36.0862 18.8921 36.0704C18.5301 34.843 18.2686 33.6025 18.0639 32.34C18.0314 32.1085 18.002 31.8774 17.9527 31.6489C17.7892 31.6164 17.6434 31.621 17.4799 31.6479C17.4774 31.8322 17.4891 32.0125 17.5226 32.1943C17.7166 33.3694 17.9466 34.545 18.2574 35.6952C18.2899 35.8186 18.3117 35.944 18.33 36.0704C18.0939 36.0846 17.8577 36.0786 17.6211 36.0786C15.5391 36.078 13.457 36.0791 11.375 36.078C11.1109 36.0791 10.8474 36.0709 10.5828 36.0831C10.5605 36.2136 10.5417 36.3446 10.5239 36.4757C10.4396 36.3634 10.3579 36.2497 10.2802 36.1329C9.42398 34.8273 8.72727 33.4202 8.23063 31.9394C8.1966 31.8383 8.15496 31.7403 8.1118 31.6428C7.97063 31.6306 7.80457 31.5996 7.66695 31.6372C7.59891 31.6646 7.63191 31.7439 7.64359 31.7957C8.76383 35.3092 10.9434 38.4648 13.8211 40.7682C15.795 42.3546 18.0959 43.5464 20.5375 44.2223C21.81 44.5768 23.1248 44.8104 24.4441 44.8866C25.0443 44.9373 25.6521 44.917 26.2539 44.916C28.0551 44.8647 29.8299 44.5352 31.5443 43.9862C32.4086 43.7059 33.2485 43.3448 34.0671 42.9513C35.5631 42.1967 36.9606 41.2572 38.2109 40.1405C38.643 39.7419 39.0777 39.3539 39.4667 38.9111C40.947 37.3313 42.1423 35.4951 43.0031 33.509C43.2514 32.9189 43.487 32.3177 43.6678 31.7032Z" fill="black" stroke="black" stroke-width="17.7778"/>
<path d="M24.7269 7.13833C25.4404 7.13071 26.162 7.10634 26.874 7.16321C28.3207 7.24853 29.7629 7.52833 31.1518 7.93966C33.931 8.78212 36.4965 10.2817 38.611 12.2718C40.5605 14.1131 42.121 16.3744 43.1361 18.8576C43.2768 19.2126 43.4317 19.5752 43.5251 19.9443C43.3545 19.9499 43.1854 19.9459 43.0153 19.9291C42.9701 19.8281 42.9254 19.7265 42.8873 19.6224C42.414 18.3422 41.7925 17.1224 41.0516 15.9763C40.9612 15.8438 40.8774 15.6772 40.7484 15.5797C40.5585 15.5508 40.3594 15.5706 40.1675 15.567C37.9671 15.568 35.7668 15.567 33.5664 15.5675C33.3181 15.568 33.0703 15.5599 32.822 15.5731C32.8458 15.6975 32.8758 15.8199 32.9108 15.9418C33.2602 17.189 33.5339 18.4565 33.7375 19.7351C33.7528 19.8458 33.7518 19.956 33.7487 20.0667C33.5964 20.0769 33.4466 20.0759 33.2942 20.0647C33.217 19.8504 33.2003 19.6315 33.1617 19.4091C32.9941 18.4204 32.7981 17.4434 32.531 16.476C32.4457 16.1708 32.3822 15.8702 32.2593 15.5772C31.9831 15.5553 31.7119 15.569 31.4336 15.567C27.3208 15.567 23.2081 15.5675 19.0953 15.5665C18.9922 15.5599 18.9795 15.662 18.9506 15.7361C18.624 16.8899 18.3381 18.0533 18.1431 19.237C18.0939 19.5066 18.0644 19.7752 17.9943 20.0403C17.8374 20.0469 17.681 20.0474 17.5241 20.0363C17.5292 19.6559 17.6191 19.3091 17.68 18.9358C17.8613 17.9639 18.0705 16.9863 18.3381 16.0347C18.3838 15.8818 18.4265 15.729 18.4595 15.5731C18.1299 15.5574 17.7988 15.5706 17.4688 15.567C15.1587 15.5695 12.8436 15.5614 10.5346 15.5706C10.3772 15.7427 10.2664 15.9377 10.14 16.1322C9.76981 16.7091 9.43973 17.3068 9.1325 17.9187C8.73133 18.7271 8.41192 19.5655 8.11586 20.4166C8.10622 20.311 8.09758 20.2054 8.08844 20.0997C7.97063 20.0708 7.85282 20.0429 7.7345 20.0159C7.79036 19.7798 7.87872 19.5569 7.96403 19.3304C9.02688 16.5263 10.7677 13.9862 12.9964 11.9808C14.1487 10.9439 15.4197 10.0461 16.7918 9.32446C19.2365 8.01431 21.9609 7.28864 24.7269 7.13833ZM19.1643 15.0516C19.2573 15.0582 19.3502 15.0638 19.4431 15.0648C23.4061 15.0638 27.3691 15.0648 31.332 15.0643C31.5854 15.0633 31.8378 15.0709 32.0912 15.0582C32.0313 14.7418 31.8972 14.4275 31.787 14.1238C31.527 13.4205 31.2188 12.7375 30.8933 12.0621C30.3459 11.0307 29.7177 10.0273 28.8935 9.19243C28.2603 8.5597 27.5097 8.01989 26.6378 7.77614C25.9919 7.58622 25.2977 7.58673 24.6513 7.7736C23.8616 7.99196 23.1943 8.43935 22.5977 8.9888C21.8679 9.66622 21.2682 10.5092 20.7685 11.3669C20.0992 12.5283 19.5848 13.781 19.1643 15.0516ZM22.9313 7.8381C21.3449 8.04985 19.7636 8.53685 18.2899 9.15689C17.8669 9.35544 17.4444 9.55704 17.029 9.77235C14.7225 11.0043 12.6816 12.7177 11.085 14.7895C11.0246 14.8759 10.9688 14.9647 10.9124 15.0536C11.017 15.0592 11.1216 15.0643 11.2267 15.0653C13.4088 15.0643 15.5914 15.0653 17.7734 15.0648C18.0609 15.0627 18.3417 15.0754 18.6281 15.0541C18.6875 14.8962 18.7418 14.7383 18.7916 14.5773C19.1877 13.3931 19.6859 12.2469 20.2988 11.1582C20.9051 10.0989 21.6252 9.13403 22.5606 8.34185C22.7739 8.16767 23.0034 8.01481 23.2111 7.83454C23.1177 7.83353 23.0247 7.83403 22.9313 7.8381ZM28.049 7.82946C28.3476 8.06864 28.6604 8.27431 28.9418 8.53583C29.9127 9.42146 30.6439 10.4995 31.2488 11.6594C31.6474 12.4109 31.9846 13.1899 32.2761 13.9887C32.4162 14.3401 32.5198 14.7032 32.6554 15.0556C32.958 15.0754 33.2622 15.0617 33.5664 15.0648C35.6484 15.0663 37.7305 15.0622 39.813 15.0653C40.0004 15.0668 40.1883 15.0658 40.3757 15.0536C40.2487 14.8368 40.1004 14.6402 39.9354 14.4513C38.3495 12.4958 36.3573 10.8616 34.1214 9.70228C32.6478 8.93142 31.0624 8.36978 29.4364 8.02345C28.9839 7.94118 28.5066 7.82032 28.049 7.82946Z" fill="black" stroke="#1CC75D" stroke-width="17.7778"/>
<path d="M26.6378 7.77611C27.5097 8.01986 28.2602 8.55967 28.8935 9.1924C29.7177 10.0272 30.3458 11.0307 30.8932 12.0621C31.2188 12.7374 31.527 13.4205 31.787 14.1238C31.8972 14.4274 32.0313 14.7418 32.0912 15.0581C31.8378 15.0708 31.5854 15.0632 31.332 15.0642C27.369 15.0647 23.4061 15.0637 19.4431 15.0647C19.3502 15.0637 19.2572 15.0581 19.1643 15.0515C19.5848 13.781 20.0992 12.5282 20.7685 11.3669C21.2682 10.5092 21.8679 9.66619 22.5976 8.98877C23.1943 8.43932 23.8616 7.99193 24.6512 7.77358C25.2977 7.5867 25.9918 7.58619 26.6378 7.77611Z" fill="black" stroke="black" stroke-width="17.7778"/>
<path d="M23.2111 7.83456C23.0034 8.01483 22.7738 8.16768 22.5606 8.34186C21.6252 9.13405 20.9051 10.0989 20.2988 11.1582C19.6858 12.2469 19.1877 13.3931 18.7916 14.5773C18.7418 14.7383 18.6875 14.8962 18.6281 15.0541C18.3416 15.0755 18.0608 15.0628 17.7734 15.0648C15.5913 15.0653 13.4088 15.0643 11.2267 15.0653C11.1216 15.0643 11.017 15.0592 10.9124 15.0536C10.9687 14.9648 11.0246 14.8759 11.085 14.7896C12.6816 12.7177 14.7225 11.0043 17.029 9.77237C17.4443 9.55706 17.8668 9.35546 18.2899 9.1569C19.7635 8.53686 21.3449 8.04987 22.9313 7.83811C23.0247 7.83405 23.1176 7.83354 23.2111 7.83456Z" fill="black" stroke="black" stroke-width="17.7778"/>
<path d="M28.0491 7.82947C28.5066 7.82033 28.984 7.94119 29.4364 8.02345C31.0624 8.36978 32.6478 8.93142 34.1215 9.70228C36.3574 10.8616 38.3495 12.4958 39.9354 14.4513C40.1005 14.6403 40.2488 14.8368 40.3757 15.0536C40.1883 15.0658 40.0004 15.0668 39.8131 15.0653C37.7305 15.0622 35.6485 15.0663 33.5665 15.0648C33.2623 15.0617 32.9581 15.0754 32.6554 15.0556C32.5199 14.7032 32.4163 14.3401 32.2761 13.9887C31.9846 13.1899 31.6474 12.411 31.2488 11.6594C30.644 10.4995 29.9127 9.42146 28.9418 8.53584C28.6605 8.27431 28.3477 8.06865 28.0491 7.82947Z" fill="black" stroke="black" stroke-width="17.7778"/>
<path d="M2.02866 22.2011C3.38401 22.2092 4.7419 22.1904 6.09675 22.2102C6.0353 22.5382 5.87534 22.8587 5.75956 23.175C5.53815 23.7743 5.27358 24.3618 5.08062 24.9707C5.35128 25.0047 5.6189 24.9915 5.89058 24.9925C6.61929 24.9925 7.348 24.991 8.07671 24.994C8.18741 24.9935 8.2971 24.9834 8.4073 24.9707C8.51597 24.7447 8.59468 24.5091 8.68304 24.275C8.94659 23.5889 9.20101 22.8978 9.47979 22.2178C9.78651 22.1833 10.1009 22.2072 10.4101 22.2016C11.1378 22.2061 11.8665 22.1909 12.5937 22.2087C12.5663 22.3107 12.5368 22.4118 12.5003 22.5108C12.192 23.3325 11.8543 24.1419 11.5567 24.9676C11.0312 26.3072 10.5269 27.6555 10.0034 28.9956C9.91855 29.2145 9.85202 29.4354 9.73776 29.6415C9.58948 29.6486 9.4412 29.6517 9.29292 29.6497C8.41136 29.642 7.52878 29.6588 6.64772 29.642C6.72796 29.3089 6.87624 28.9859 6.99405 28.6635C7.16468 28.1983 7.34038 27.7362 7.52116 27.2751C7.58007 27.1299 7.63085 26.9836 7.66792 26.8313C7.41351 26.8161 7.16061 26.8242 6.9062 26.8237C5.26444 26.8237 3.62218 26.8232 1.98042 26.8237C1.72804 26.8232 1.47819 26.8328 1.22632 26.811C1.34515 26.4088 1.52491 26.0254 1.6671 25.6308C1.94081 24.9366 2.20741 24.2394 2.47808 23.5442C2.5121 23.4244 2.57812 23.3233 2.49026 23.2091C2.24753 22.8653 1.9403 22.5682 1.70112 22.2198C1.80116 22.1879 1.92405 22.2077 2.02866 22.2011Z" fill="black" stroke="#1CC75D" stroke-width="17.7778"/>
<path d="M13.391 22.2015C16.7304 22.202 20.0702 22.202 23.4101 22.2015C23.6305 22.201 23.8504 22.1965 24.0703 22.2066C23.9865 22.4895 23.8626 22.7535 23.761 23.0318C23.3817 24.0439 22.9704 25.0433 22.5976 26.0574C22.495 26.3082 22.4128 26.5728 22.2833 26.8084C21.9674 26.8399 21.6455 26.8186 21.3281 26.8236C19.4878 26.8277 17.6439 26.816 15.8041 26.8292C15.6553 27.14 15.5334 27.4823 15.4385 27.8139C15.7091 27.8464 15.9778 27.8337 16.25 27.8347C17.875 27.8352 19.5 27.8342 21.125 27.8352C21.3763 27.8357 21.6262 27.8286 21.8775 27.8428C21.7668 28.2003 21.613 28.5446 21.4809 28.8945C21.3758 29.1576 21.3073 29.4074 21.1686 29.6445C18.0933 29.6547 15.0079 29.644 11.9315 29.6496C11.8198 29.6496 11.7086 29.6466 11.5979 29.6425C11.7309 29.2251 11.9067 28.8209 12.06 28.4106C12.4129 27.5072 12.7496 26.5982 13.1031 25.6953C13.195 25.4632 13.2681 25.2276 13.3758 25.0021C13.6403 24.9813 13.9029 24.994 14.1679 24.9925C15.9631 24.9925 17.7587 24.9904 19.5538 24.9935C19.6513 24.9925 19.7488 24.9843 19.8458 24.9762C20.0098 24.704 20.1073 24.3872 20.2048 24.0855C18.1426 24.0733 16.0758 24.084 14.0131 24.0804C13.9288 24.0784 13.845 24.0718 13.7612 24.0652C13.8145 23.8083 13.9719 23.5747 14.0039 23.3177C13.9628 23.2192 13.8846 23.1324 13.8175 23.0501C13.5885 22.784 13.3676 22.5169 13.1721 22.2249C13.228 22.1893 13.3265 22.2107 13.391 22.2015Z" fill="black" stroke="#1CC75D" stroke-width="17.7778"/>
<path d="M24.5985 22.2147C24.6335 22.2056 24.6706 22.201 24.7082 22.201C28.0501 22.2026 31.3925 22.2015 34.7344 22.202C34.9822 22.2026 35.2296 22.1954 35.4774 22.2076C35.2275 22.9033 34.9396 23.5858 34.6903 24.282C34.4125 24.9991 34.1312 25.7151 33.8595 26.4352C33.5853 27.1786 33.2846 27.9114 33.0063 28.6538C32.8763 28.9793 32.7707 29.317 32.6209 29.6334C32.3599 29.676 32.1029 29.6659 31.8399 29.6603C31.3499 29.639 30.8578 29.6517 30.3672 29.6481C29.6563 29.6527 28.9444 29.6364 28.2344 29.6623C27.8277 29.6603 27.4224 29.6354 27.0157 29.6532C26.5409 29.6816 26.0691 29.6344 25.5938 29.6491C24.7326 29.6847 23.8769 29.6471 23.0151 29.643C23.1776 29.1652 23.3828 28.7015 23.5534 28.2257C23.658 27.9261 23.7814 27.6341 23.8901 27.3355C24.3867 26.0853 24.8488 24.8213 25.3465 23.5706C25.379 23.4563 25.4669 23.3319 25.3724 23.2258C25.1525 22.9211 24.8885 22.6474 24.6594 22.3488C24.6371 22.3127 24.5873 22.2604 24.5985 22.2147ZM26.8608 27.8164C27.133 27.8459 27.4031 27.8337 27.6758 27.8352C28.4051 27.8362 29.1333 27.8322 29.8625 27.8372C29.9717 27.8372 30.0803 27.8266 30.189 27.8134C30.3876 27.3553 30.5465 26.88 30.7344 26.4174C30.9517 25.873 31.1523 25.3226 31.3626 24.7756C31.4509 24.5456 31.5499 24.3217 31.6231 24.086C30.6633 24.0708 29.702 24.087 28.7422 24.0789C28.597 24.0794 28.4472 24.0713 28.3035 24.0931C28.1649 24.3232 28.0968 24.5984 27.9927 24.8462C27.6941 25.5993 27.4103 26.358 27.1208 27.1146C27.0309 27.3497 26.9273 27.5732 26.8608 27.8164Z" fill="black" stroke="#1CC75D" stroke-width="17.7778"/>
<path d="M36.3 22.201C40.8561 22.2036 45.4127 22.201 49.9688 22.202C50.2557 22.2036 50.5411 22.1949 50.828 22.2086C50.7655 22.4372 50.6766 22.6545 50.5929 22.8754C49.7555 25.0483 48.9196 27.2238 48.0863 29.3983C48.0528 29.481 48.0137 29.5613 47.9741 29.641C47.8263 29.6486 47.679 29.6517 47.5313 29.6496C46.6482 29.6415 45.7641 29.6598 44.881 29.6415C44.9617 29.3251 45.0938 29.0321 45.21 28.7188C45.7148 27.4229 46.2023 26.1208 46.7086 24.8259C46.8081 24.5603 46.9198 24.3191 46.9757 24.0403C46.3059 24.0302 45.6285 24.0286 44.9592 24.0413C44.8957 24.1658 44.8414 24.2912 44.7941 24.4227C44.557 25.0529 44.3066 25.678 44.0725 26.3092C43.6917 27.3111 43.2951 28.308 42.9239 29.314C42.8827 29.4242 42.8345 29.5318 42.7847 29.639C42.6405 29.6481 42.4968 29.6517 42.3521 29.6501C41.4573 29.6415 40.5615 29.6577 39.6673 29.6425C39.7414 29.3937 39.842 29.1581 39.9359 28.9163C40.4752 27.5117 41.0155 26.1071 41.5523 24.701C41.6376 24.4816 41.7315 24.2683 41.7909 24.0393C41.1201 24.0297 40.4442 24.0292 39.7734 24.0388C39.6023 24.3445 39.5109 24.6944 39.3783 25.0189C38.8649 26.3499 38.3586 27.6834 37.8447 29.0143C37.7599 29.2251 37.6995 29.4592 37.5802 29.6506C36.5483 29.643 35.5154 29.6562 34.4835 29.644C34.5597 29.3744 34.6729 29.1235 34.7704 28.8615C35.0411 28.1165 35.3412 27.3833 35.6261 26.6434C35.9983 25.6232 36.4061 24.6172 36.789 23.6006C36.8235 23.5061 36.852 23.4096 36.8804 23.3131C36.6382 22.9211 36.2893 22.6017 36.0298 22.2198C36.1116 22.1904 36.2136 22.2071 36.3 22.201Z" fill="black" stroke="#1CC75D" stroke-width="17.7778"/>
<path d="M28.3034 24.0932C28.4471 24.0713 28.5969 24.0795 28.7422 24.079C29.7019 24.0871 30.6632 24.0708 31.623 24.0861C31.5499 24.3217 31.4508 24.5456 31.3625 24.7757C31.1522 25.3226 30.9517 25.873 30.7343 26.4174C30.5464 26.88 30.3875 27.3554 30.1889 27.8134C30.0802 27.8266 29.9716 27.8373 29.8624 27.8373C29.1332 27.8322 28.405 27.8363 27.6758 27.8352C27.4031 27.8337 27.1329 27.8459 26.8607 27.8165C26.9272 27.5732 27.0308 27.3498 27.1207 27.1147C27.4102 26.358 27.694 25.5993 27.9926 24.8463C28.0967 24.5984 28.1648 24.3232 28.3034 24.0932Z" fill="black" stroke="black" stroke-width="17.7778"/>
<path d="M7.66693 31.6372C7.80454 31.5996 7.9706 31.6306 8.11177 31.6428C8.15494 31.7403 8.19658 31.8383 8.2306 31.9394C8.72724 33.4201 9.42396 34.8273 10.2801 36.1329C10.3578 36.2497 10.4396 36.3634 10.5239 36.4756C10.5417 36.3446 10.5604 36.2136 10.5828 36.0831C10.8474 36.0709 11.1109 36.079 11.375 36.078C13.457 36.079 15.539 36.078 17.6211 36.0785C17.8577 36.0785 18.0938 36.0846 18.33 36.0704C18.3117 35.944 18.2899 35.8185 18.2574 35.6951C17.9466 34.5449 17.7165 33.3694 17.5226 32.1943C17.489 32.0125 17.4774 31.8322 17.4799 31.6479C17.6434 31.621 17.7892 31.6164 17.9527 31.6489C18.0019 31.8774 18.0314 32.1085 18.0639 32.34C18.2685 33.6024 18.5301 34.843 18.8921 36.0704C19.2136 36.0862 19.534 36.077 19.8554 36.0785C23.7656 36.0785 27.6758 36.078 31.5859 36.0785C31.8525 36.077 32.1161 36.0887 32.3822 36.0689C32.4969 35.7566 32.565 35.4235 32.6508 35.1015C32.8661 34.2743 33.02 33.4364 33.1708 32.5955C33.2282 32.2791 33.25 31.9612 33.3282 31.6484C33.4963 31.6179 33.6365 31.6194 33.8045 31.6489C33.803 31.817 33.7929 31.9835 33.7614 32.1491C33.6009 33.1673 33.4044 34.1742 33.1535 35.1746C33.0789 35.4737 32.9926 35.7683 32.9291 36.0699C33.1241 36.0816 33.3196 36.0811 33.5151 36.079C35.8526 36.0765 38.1936 36.0801 40.53 36.0765C40.6102 36.078 40.69 36.0856 40.7702 36.0938C40.8027 36.174 40.8393 36.2522 40.8743 36.3314C41.409 35.5464 41.8818 34.7156 42.284 33.8548C42.5486 33.279 42.8096 32.6889 43.0086 32.0866C43.0483 31.9658 43.0965 31.85 43.1529 31.7362C43.324 31.7144 43.4951 31.7048 43.6678 31.7032C43.487 32.3177 43.2514 32.9189 43.0031 33.509C42.1423 35.4951 40.9469 37.3313 39.4667 38.9111C39.0777 39.3539 38.643 39.7419 38.2108 40.1405C36.9606 41.2572 35.5631 42.1967 34.0671 42.9513C33.2485 43.3448 32.4086 43.7059 31.5443 43.9862C29.8299 44.5351 28.0551 44.8647 26.2539 44.916C25.6521 44.917 25.0443 44.9373 24.444 44.8865C23.1247 44.8104 21.81 44.5768 20.5374 44.2223C18.0959 43.5464 15.795 42.3546 13.8211 40.7682C10.9433 38.4648 8.7638 35.3092 7.64357 31.7956C7.63189 31.7439 7.59888 31.6646 7.66693 31.6372ZM23.2466 44.2193C23.0151 44.0344 22.7703 43.8664 22.5397 43.6795C21.6008 42.8837 20.8965 41.9164 20.2861 40.8555C19.6224 39.6815 19.1054 38.4455 18.6915 37.1632C18.6306 36.9713 18.5778 36.7783 18.4935 36.594C16.0215 36.5787 13.5443 36.597 11.0713 36.5858C10.955 36.5904 10.823 36.5701 10.7108 36.6021C10.6188 36.6605 10.6904 36.724 10.7295 36.789C11.574 37.9458 12.5465 39.0071 13.6302 39.9445C15.2222 41.3247 17.0533 42.4201 19.016 43.1854C20.0982 43.5881 21.2296 43.9314 22.3696 44.1218C22.6611 44.1756 22.949 44.2274 23.2466 44.2193ZM19.0653 36.595C19.1445 36.9804 19.2836 37.342 19.4172 37.7132C19.8829 38.9842 20.4369 40.1979 21.1768 41.3349C21.6201 41.9971 22.135 42.6486 22.7358 43.1752C23.1405 43.5185 23.5894 43.8526 24.0784 44.0629C24.704 44.3229 25.3611 44.4661 26.0401 44.3798C27.0374 44.263 27.9276 43.7516 28.6513 43.0737C29.48 42.3124 30.0823 41.4151 30.6409 40.4473C31.2457 39.3158 31.7479 38.1316 32.1354 36.9088C32.1653 36.8062 32.1821 36.7016 32.1988 36.596C31.8931 36.5777 31.5885 36.5904 31.2812 36.5879C27.4559 36.5874 23.63 36.5879 19.8047 36.5879C19.5579 36.5879 19.3116 36.5823 19.0653 36.595ZM27.9358 44.265C29.6562 44.074 31.3574 43.5865 32.9474 42.9071C33.4709 42.6781 33.9802 42.4145 34.4886 42.153C35.7327 41.4624 36.9002 40.6367 37.9564 39.683C38.7054 38.9908 39.4159 38.2591 40.0476 37.4578C40.2639 37.181 40.4929 36.9022 40.6656 36.5996C40.332 36.5772 39.9948 36.5924 39.6601 36.5894C37.5441 36.5889 35.4285 36.5904 33.3125 36.5869C33.1418 36.5879 32.9687 36.5787 32.7986 36.5965C32.6691 36.8098 32.629 37.0784 32.5401 37.311C32.2923 38.0128 32.047 38.7263 31.7296 39.3996C31.5392 39.7703 31.3914 40.1573 31.1802 40.5178C30.5398 41.6838 29.7299 42.8751 28.6883 43.7191C28.4497 43.9187 28.1892 44.0847 27.9358 44.265Z" fill="black" stroke="#1CC75D" stroke-width="17.7778"/>
<path d="M10.7107 36.6021C10.823 36.5701 10.955 36.5904 11.0713 36.5859C13.5443 36.597 16.0214 36.5787 18.4935 36.594C18.5778 36.7783 18.6306 36.9713 18.6915 37.1632C19.1054 38.4455 19.6223 39.6815 20.286 40.8555C20.8964 41.9164 21.6008 42.8837 22.5397 43.6795C22.7703 43.8664 23.015 44.0345 23.2466 44.2193C22.949 44.2274 22.6611 44.1756 22.3696 44.1218C21.2296 43.9314 20.0982 43.5881 19.016 43.1854C17.0533 42.4201 15.2221 41.3248 13.6301 39.9445C12.5465 39.0071 11.574 37.9458 10.7295 36.789C10.6904 36.724 10.6188 36.6605 10.7107 36.6021Z" fill="black" stroke="black" stroke-width="17.7778"/>
<path d="M19.0653 36.595C19.3116 36.5823 19.5579 36.5879 19.8047 36.5879C23.63 36.5879 27.4559 36.5874 31.2812 36.5879C31.5885 36.5904 31.8932 36.5777 32.1989 36.596C32.1821 36.7016 32.1653 36.8062 32.1354 36.9088C31.7479 38.1316 31.2457 39.3159 30.6409 40.4473C30.0823 41.4152 29.48 42.3125 28.6513 43.0737C27.9277 43.7516 27.0375 44.263 26.0401 44.3798C25.3612 44.4661 24.7041 44.3229 24.0784 44.0629C23.5894 43.8527 23.1405 43.5185 22.7358 43.1752C22.135 42.6486 21.6201 41.9971 21.1768 41.3349C20.4369 40.1979 19.8829 38.9843 19.4172 37.7132C19.2837 37.342 19.1445 36.9804 19.0653 36.595Z" fill="black" stroke="black" stroke-width="17.7778"/>
<path d="M32.7986 36.5965C32.9687 36.5788 33.1419 36.5879 33.3125 36.5869C35.4286 36.5904 37.5441 36.5889 39.6602 36.5894C39.9948 36.5925 40.332 36.5772 40.6656 36.5996C40.493 36.9022 40.264 37.181 40.0476 37.4578C39.4159 38.2591 38.7055 38.9909 37.9565 39.683C36.9002 40.6367 35.7327 41.4624 34.4886 42.153C33.9803 42.4145 33.4709 42.6781 32.9474 42.9071C31.3574 43.5866 29.6563 44.0741 27.9358 44.265C28.1892 44.0847 28.4497 43.9187 28.6884 43.7191C29.7299 42.8751 30.5399 41.6838 31.1802 40.5179C31.3915 40.1573 31.5392 39.7704 31.7297 39.3997C32.047 38.7263 32.2923 38.0128 32.5401 37.311C32.629 37.0784 32.6691 36.8098 32.7986 36.5965Z" fill="black" stroke="black" stroke-width="17.7778"/>
<path d="M0 1C0 0.447716 0.447715 0 1 0H51C51.5523 0 52 0.447715 52 1V51C52 51.5523 51.5523 52 51 52H1C0.447716 52 0 51.5523 0 51V1ZM7.79117 19.811C7.75621 19.9228 7.82764 20.037 7.9416 20.0642C7.97675 20.0726 8.01187 20.081 8.04699 20.0896C8.07178 20.0956 8.08992 20.1168 8.09209 20.1422C8.09755 20.2061 8.18572 20.2171 8.20717 20.1568C8.47787 19.3949 8.77221 18.6447 9.1325 17.9187C9.43973 17.3068 9.7698 16.7091 10.14 16.1322C10.1857 16.0619 10.2294 15.9915 10.2739 15.9222C10.4249 15.6871 10.6935 15.5699 10.9728 15.569C13.1365 15.5624 15.3048 15.5694 17.4688 15.567C17.6397 15.5688 17.811 15.5662 17.9822 15.5654C18.2325 15.5642 18.4098 15.7949 18.3381 16.0347C18.0705 16.9863 17.8613 17.9639 17.68 18.9358C17.6334 19.2213 17.5699 19.4913 17.5403 19.7726C17.5248 19.9201 17.6398 20.0452 17.7881 20.045C17.9108 20.0449 18.0164 19.9596 18.0405 19.8393C18.0805 19.6398 18.1063 19.4387 18.1431 19.237C18.3381 18.0532 18.624 16.8898 18.9505 15.7361C18.9795 15.662 18.9922 15.5599 19.0953 15.5665C23.208 15.5675 27.3208 15.567 31.4336 15.567C31.5062 15.5675 31.5783 15.567 31.6501 15.5663C32.0244 15.5626 32.3499 15.7951 32.4458 16.1569C32.4739 16.2626 32.5011 16.369 32.531 16.476C32.7981 17.4434 32.9941 18.4204 33.1617 19.4091C33.1894 19.569 33.2059 19.727 33.2416 19.8828C33.2674 19.9951 33.3684 20.0714 33.4836 20.0733C33.634 20.0758 33.7575 19.9514 33.7448 19.8014C33.743 19.7793 33.7406 19.7572 33.7375 19.7351C33.5339 18.4564 33.2602 17.1889 32.9108 15.9418C32.8554 15.749 33.0006 15.5649 33.2012 15.5656C33.3229 15.5659 33.4446 15.5677 33.5664 15.5675C35.7668 15.567 37.9671 15.568 40.1675 15.567C40.2757 15.569 40.3861 15.5636 40.4959 15.5637C40.6621 15.5638 40.8226 15.6305 40.9164 15.7677C40.964 15.8372 41.007 15.9109 41.0516 15.9763C41.7925 17.1224 42.414 18.3422 42.8873 19.6224C42.9068 19.6756 42.9279 19.7281 42.95 19.7802C42.9892 19.8728 43.0772 19.936 43.1776 19.9413C43.3561 19.9508 43.4829 19.7804 43.4255 19.6111C43.3393 19.3565 43.2342 19.1052 43.1361 18.8576C42.121 16.3744 40.5605 14.1131 38.611 12.2718C36.4965 10.2817 33.931 8.78211 31.1518 7.93965C29.7629 7.52832 28.3207 7.24852 26.8739 7.1632C26.162 7.10633 25.4404 7.1307 24.7269 7.13832C21.9609 7.28863 19.2364 8.0143 16.7918 9.32445C15.4197 10.0461 14.1487 10.9439 12.9964 11.9808C10.7677 13.9862 9.02688 16.5263 7.96402 19.3304C7.90375 19.4904 7.84195 19.6486 7.79117 19.811ZM2.02871 22.2011C1.86494 22.2114 1.796 22.3553 1.89921 22.4829C2.09575 22.7258 2.31069 22.9547 2.49031 23.2091C2.57816 23.3233 2.51215 23.4244 2.47812 23.5442C2.20746 24.2394 1.94086 24.9366 1.66715 25.6308C1.61011 25.7891 1.54702 25.9456 1.48424 26.1022C1.33921 26.4641 1.59064 26.8229 1.98047 26.8237C3.62223 26.8232 5.26449 26.8237 6.90625 26.8237C7.00442 26.8239 7.10236 26.8228 7.20026 26.8222C7.44396 26.8209 7.61281 27.0493 7.52121 27.2751C7.34043 27.7362 7.16473 28.1983 6.9941 28.6635C6.81106 29.1645 7.15316 29.6502 7.68653 29.6498C8.22201 29.6494 8.75767 29.645 9.29297 29.6496C9.56957 29.6534 9.81964 29.4935 9.91513 29.2339C9.94425 29.1547 9.97262 29.075 10.0034 28.9956C10.527 27.6555 11.0312 26.3072 11.5568 24.9676C11.8544 24.1419 12.1921 23.3325 12.5003 22.5108C12.5561 22.3596 12.4386 22.2049 12.2774 22.2029C11.6553 22.1949 11.0324 22.2055 10.4102 22.2016C10.2978 22.2036 10.1847 22.2017 10.0715 22.2002C9.7063 22.1952 9.393 22.4277 9.25983 22.7678C9.06373 23.2687 8.87585 23.7732 8.68309 24.275C8.63385 24.4054 8.58761 24.5363 8.53751 24.6658C8.46302 24.8583 8.28316 24.9931 8.07676 24.994C7.34805 24.991 6.61934 24.9925 5.89062 24.9925C5.46872 24.9909 5.20153 24.6008 5.35498 24.2078C5.48952 23.8632 5.63176 23.5211 5.75961 23.175C5.94341 22.6728 5.608 22.2033 5.07319 22.2015C4.0585 22.1981 3.0429 22.2071 2.02871 22.2011ZM13.391 22.2016C13.2702 22.2187 13.2278 22.3086 13.2996 22.4073C13.4616 22.63 13.6371 22.8404 13.8176 23.0501C13.8539 23.0947 13.8935 23.1406 13.9287 23.189C13.9863 23.2682 14.0002 23.3697 13.9732 23.4639C13.9381 23.5858 13.8837 23.7042 13.8367 23.8247C13.7879 23.9495 13.8792 24.0772 14.0131 24.0805C15.8423 24.0836 17.6748 24.0756 19.5044 24.0822C19.8512 24.0835 20.1099 24.4294 19.9664 24.7452C19.8983 24.895 19.7488 24.9889 19.5843 24.993C19.5741 24.9932 19.564 24.9934 19.5538 24.9935C17.7587 24.9905 15.9631 24.9925 14.168 24.9925C14.096 24.9929 14.0242 24.9923 13.9526 24.9916C13.5955 24.9879 13.2868 25.2033 13.1629 25.5383C13.1435 25.5907 13.1238 25.6431 13.1031 25.6953C12.7496 26.5982 12.413 27.5072 12.06 28.4106C11.9456 28.7168 11.8187 29.0195 11.7064 29.327C11.6489 29.4845 11.7639 29.6496 11.9316 29.6496C14.8173 29.6444 17.7112 29.6535 20.5971 29.6462C20.9513 29.6453 21.2748 29.4538 21.3958 29.121C21.4228 29.0466 21.4504 28.9711 21.481 28.8945C21.5246 28.7789 21.5707 28.6638 21.6167 28.5487C21.7588 28.1936 21.5075 27.836 21.125 27.8352C19.5 27.8342 17.875 27.8352 16.25 27.8347C16.2079 27.8346 16.1658 27.8347 16.1238 27.835C15.7639 27.8374 15.5259 27.4974 15.6588 27.1629C15.7413 26.9551 15.946 26.8282 16.1695 26.827C17.888 26.8175 19.6096 26.8275 21.3281 26.8237C21.4707 26.8214 21.6141 26.8244 21.7576 26.8256C22.087 26.8284 22.3769 26.6345 22.4936 26.3265C22.5277 26.2363 22.5614 26.146 22.5977 26.0574C22.9704 25.0433 23.3817 24.0439 23.7611 23.0318C23.7864 22.9623 23.8132 22.8936 23.8404 22.8253C23.9647 22.5133 23.7459 22.2008 23.4102 22.2016C20.0703 22.2021 16.7304 22.2021 13.391 22.2016ZM23.5099 28.3449C23.2722 28.9853 23.7212 29.6548 24.4043 29.6621C24.8004 29.6664 25.1965 29.6655 25.5938 29.6491C26.0691 29.6344 26.5408 29.6816 27.0156 29.6532C27.4224 29.6354 27.8276 29.6603 28.2344 29.6623C28.9443 29.6364 29.6562 29.6527 30.3672 29.6481C30.8577 29.6517 31.3498 29.639 31.8398 29.6603C31.9263 29.6621 32.0122 29.6645 32.0977 29.6653C32.4263 29.6683 32.7057 29.4562 32.8205 29.1483C32.8821 28.9832 32.9411 28.817 33.0063 28.6538C33.2846 27.9114 33.5852 27.1786 33.8594 26.4352C34.1311 25.7151 34.4124 24.9991 34.6902 24.2821C34.856 23.8191 35.0389 23.3621 35.2163 22.9033C35.3496 22.5585 35.1041 22.2028 34.7344 22.2021C31.3925 22.2016 28.05 22.2026 24.7081 22.2011C24.6398 22.2011 24.5968 22.2598 24.6363 22.3155C24.6448 22.3275 24.6532 22.3388 24.6594 22.3488C24.8884 22.6474 25.1525 22.9211 25.3723 23.2258C25.4668 23.332 25.3789 23.4564 25.3464 23.5706C24.8488 24.8214 24.3867 26.0853 23.89 27.3355C23.7814 27.6341 23.658 27.9261 23.5534 28.2257C23.5391 28.2655 23.5246 28.3052 23.5099 28.3449ZM36.3 22.2011C36.1624 22.2108 36.1059 22.3305 36.1915 22.4386C36.3595 22.6508 36.545 22.8507 36.7085 23.0654C36.8249 23.2181 36.8549 23.4203 36.789 23.6006C36.4061 24.6172 35.9983 25.6232 35.6261 26.6434C35.3412 27.3833 35.0411 28.1166 34.7704 28.8615C34.6238 29.2555 34.8969 29.6485 35.3173 29.6493C35.8849 29.6503 36.4527 29.6474 37.0203 29.6483C37.3681 29.6488 37.6802 29.4635 37.7985 29.1364C37.8134 29.0952 37.8286 29.0544 37.8447 29.0144C38.3586 27.6834 38.8649 26.3499 39.3783 25.0189C39.4385 24.8715 39.4903 24.7188 39.5448 24.5675C39.6658 24.2317 39.9931 24.0351 40.35 24.033C40.5955 24.0316 40.8414 24.0315 41.0871 24.0326C41.4454 24.0343 41.6821 24.3671 41.5523 24.701C41.0155 26.1071 40.4752 27.5118 39.9359 28.9164C39.795 29.279 40.0527 29.6485 40.4418 29.6492C41.0784 29.6505 41.7155 29.644 42.3521 29.6502C42.3785 29.6504 42.4049 29.6505 42.4313 29.6505C42.6493 29.65 42.8477 29.5182 42.9239 29.314C43.2951 28.308 43.6917 27.3112 44.0725 26.3093C44.3066 25.678 44.557 25.0529 44.7941 24.4227C44.8806 24.1818 45.119 24.038 45.375 24.0353C45.6312 24.0326 45.8881 24.0318 46.1448 24.0326C46.5771 24.0339 46.8603 24.4212 46.7086 24.8259C46.2023 26.1209 45.7148 27.4229 45.21 28.7188C45.0357 29.1885 45.3601 29.6501 45.8611 29.65C46.4179 29.6499 46.9748 29.6445 47.5312 29.6496C47.5898 29.6505 47.6483 29.6505 47.7067 29.6497C47.872 29.6476 48.0243 29.5514 48.0863 29.3983C48.9196 27.2238 49.7555 25.0484 50.5928 22.8754C50.7216 22.5361 50.4837 22.2008 50.1208 22.2021C50.0701 22.2023 50.0195 22.2023 49.9688 22.2021C45.4127 22.2011 40.8561 22.2036 36.3 22.2011ZM43.5578 32.056C43.6152 31.8813 43.482 31.7042 43.2989 31.7205C43.2076 31.7286 43.1275 31.7852 43.0911 31.8694C43.0605 31.9404 43.033 32.0125 43.0087 32.0866C42.8096 32.6889 42.5486 33.279 42.284 33.8548C41.9093 34.6569 41.4732 35.4329 40.9829 36.1702C40.9359 36.2407 40.8289 36.2317 40.7954 36.1539C40.7795 36.1171 40.7453 36.0911 40.7054 36.0874C40.647 36.082 40.5886 36.0776 40.53 36.0765C38.1936 36.0801 35.8526 36.0765 33.5151 36.0791C33.2064 36.0823 32.99 35.7992 33.0689 35.5007C33.0975 35.3922 33.1263 35.2837 33.1536 35.1746C33.4044 34.1743 33.6009 33.1673 33.7614 32.1491C33.7759 32.0731 33.7858 31.997 33.7925 31.9205C33.8062 31.7642 33.692 31.6229 33.5351 31.6265C33.409 31.6294 33.3076 31.7269 33.2847 31.8508C33.239 32.0979 33.2159 32.3471 33.1708 32.5955C33.02 33.4364 32.8661 34.2743 32.6508 35.1015C32.62 35.217 32.5915 35.334 32.5623 35.4509C32.4673 35.8314 32.1306 36.0816 31.7384 36.0788C31.6877 36.0785 31.6369 36.0783 31.5859 36.0786C27.6758 36.078 23.7656 36.0786 19.8555 36.0786C19.771 36.0782 19.6865 36.0785 19.6021 36.0789C19.1769 36.0811 18.8097 35.7976 18.7009 35.3865C18.4351 34.3824 18.2306 33.3685 18.0639 32.34C18.0411 32.1776 18.0198 32.0154 17.9921 31.8542C17.9706 31.7291 17.8712 31.6285 17.7443 31.6263C17.5901 31.6235 17.4761 31.7604 17.4872 31.9142C17.4939 32.0076 17.5053 32.1008 17.5226 32.1943C17.7166 33.3694 17.9466 34.545 18.2574 35.6952C18.3098 35.8942 18.1536 36.0799 17.9477 36.0799C17.8389 36.0798 17.7301 36.0786 17.6211 36.0786C15.5391 36.078 13.457 36.0791 11.375 36.078C11.1437 36.0789 10.9128 36.0728 10.6813 36.0795C10.6238 36.0811 10.5758 36.1236 10.5668 36.1804C10.5496 36.2886 10.4113 36.324 10.3489 36.234C10.3257 36.2005 10.3027 36.1668 10.2802 36.1329C9.42398 34.8273 8.72727 33.4202 8.23063 31.9394C8.16772 31.7526 7.9903 31.6131 7.79328 31.6197C7.74964 31.6211 7.70709 31.6263 7.66695 31.6372C7.59891 31.6646 7.63191 31.7439 7.64359 31.7957C8.76383 35.3092 10.9434 38.4648 13.8211 40.7682C15.795 42.3546 18.0959 43.5464 20.5375 44.2223C21.81 44.5768 23.1248 44.8104 24.4441 44.8866C25.0443 44.9373 25.6521 44.917 26.2539 44.916C28.0551 44.8647 29.8299 44.5352 31.5443 43.9862C32.4086 43.7059 33.2485 43.3448 34.0671 42.9513C35.5631 42.1967 36.9606 41.2572 38.2109 40.1405C38.643 39.7419 39.0777 39.3539 39.4667 38.9111C40.947 37.3313 42.1423 35.4951 43.0031 33.509C43.2037 33.0323 43.396 32.5483 43.5578 32.056Z" fill="black"/>
<path d="M24.7269 7.13833C25.4404 7.13071 26.162 7.10634 26.874 7.16321C28.3207 7.24853 29.7629 7.52833 31.1518 7.93966C33.931 8.78212 36.4965 10.2817 38.611 12.2718C40.5605 14.1131 42.121 16.3744 43.1361 18.8576C43.2768 19.2126 43.4317 19.5752 43.5251 19.9443C43.3545 19.9499 43.1854 19.9459 43.0153 19.9291C42.9701 19.8281 42.9254 19.7265 42.8873 19.6224C42.414 18.3422 41.7925 17.1224 41.0516 15.9763C40.9612 15.8438 40.8774 15.6772 40.7484 15.5797C40.5585 15.5508 40.3594 15.5706 40.1675 15.567C37.9671 15.568 35.7668 15.567 33.5664 15.5675C33.3181 15.568 33.0703 15.5599 32.822 15.5731C32.8458 15.6975 32.8758 15.8199 32.9108 15.9418C33.2602 17.189 33.5339 18.4565 33.7375 19.7351C33.7528 19.8458 33.7518 19.956 33.7487 20.0667C33.5964 20.0769 33.4466 20.0759 33.2942 20.0647C33.217 19.8504 33.2003 19.6315 33.1617 19.4091C32.9941 18.4204 32.7981 17.4434 32.531 16.476C32.4457 16.1708 32.3822 15.8702 32.2593 15.5772C31.9831 15.5553 31.7119 15.569 31.4336 15.567C27.3208 15.567 23.2081 15.5675 19.0953 15.5665C18.9922 15.5599 18.9795 15.662 18.9506 15.7361C18.624 16.8899 18.3381 18.0533 18.1431 19.237C18.0939 19.5066 18.0644 19.7752 17.9943 20.0403C17.8374 20.0469 17.681 20.0474 17.5241 20.0363C17.5292 19.6559 17.6191 19.3091 17.68 18.9358C17.8613 17.9639 18.0705 16.9863 18.3381 16.0347C18.3838 15.8818 18.4265 15.729 18.4595 15.5731C18.1299 15.5574 17.7988 15.5706 17.4688 15.567C15.1587 15.5695 12.8436 15.5614 10.5346 15.5706C10.3772 15.7427 10.2664 15.9377 10.14 16.1322C9.76981 16.7091 9.43973 17.3068 9.1325 17.9187C8.73133 18.7271 8.41192 19.5655 8.11586 20.4166C8.10622 20.311 8.09758 20.2054 8.08844 20.0997C7.97063 20.0708 7.85282 20.0429 7.7345 20.0159C7.79036 19.7798 7.87872 19.5569 7.96403 19.3304C9.02688 16.5263 10.7677 13.9862 12.9964 11.9808C14.1487 10.9439 15.4197 10.0461 16.7918 9.32446C19.2365 8.01431 21.9609 7.28864 24.7269 7.13833ZM19.1643 15.0516C19.2573 15.0582 19.3502 15.0638 19.4431 15.0648C23.4061 15.0638 27.3691 15.0648 31.332 15.0643C31.5854 15.0633 31.8378 15.0709 32.0912 15.0582C32.0313 14.7418 31.8972 14.4275 31.787 14.1238C31.527 13.4205 31.2188 12.7375 30.8933 12.0621C30.3459 11.0307 29.7177 10.0273 28.8935 9.19243C28.2603 8.5597 27.5097 8.01989 26.6378 7.77614C25.9919 7.58622 25.2977 7.58673 24.6513 7.7736C23.8616 7.99196 23.1943 8.43935 22.5977 8.9888C21.8679 9.66622 21.2682 10.5092 20.7685 11.3669C20.0992 12.5283 19.5848 13.781 19.1643 15.0516ZM22.9313 7.8381C21.3449 8.04985 19.7636 8.53685 18.2899 9.15689C17.8669 9.35544 17.4444 9.55704 17.029 9.77235C14.7225 11.0043 12.6816 12.7177 11.085 14.7895C11.0246 14.8759 10.9688 14.9647 10.9124 15.0536C11.017 15.0592 11.1216 15.0643 11.2267 15.0653C13.4088 15.0643 15.5914 15.0653 17.7734 15.0648C18.0609 15.0627 18.3417 15.0754 18.6281 15.0541C18.6875 14.8962 18.7418 14.7383 18.7916 14.5773C19.1877 13.3931 19.6859 12.2469 20.2988 11.1582C20.9051 10.0989 21.6252 9.13403 22.5606 8.34185C22.7739 8.16767 23.0034 8.01481 23.2111 7.83454C23.1177 7.83353 23.0247 7.83403 22.9313 7.8381ZM28.049 7.82946C28.3476 8.06864 28.6604 8.27431 28.9418 8.53583C29.9127 9.42146 30.6439 10.4995 31.2488 11.6594C31.6474 12.4109 31.9846 13.1899 32.2761 13.9887C32.4162 14.3401 32.5198 14.7032 32.6554 15.0556C32.958 15.0754 33.2622 15.0617 33.5664 15.0648C35.6484 15.0663 37.7305 15.0622 39.813 15.0653C40.0004 15.0668 40.1883 15.0658 40.3757 15.0536C40.2487 14.8368 40.1004 14.6402 39.9354 14.4513C38.3495 12.4958 36.3573 10.8616 34.1214 9.70228C32.6478 8.93142 31.0624 8.36978 29.4364 8.02345C28.9839 7.94118 28.5066 7.82032 28.049 7.82946Z" fill="#1CC75D"/>
<path d="M26.6378 7.77611C27.5097 8.01986 28.2602 8.55967 28.8935 9.1924C29.7177 10.0272 30.3458 11.0307 30.8932 12.0621C31.2188 12.7374 31.527 13.4205 31.787 14.1238C31.8972 14.4274 32.0313 14.7418 32.0912 15.0581C31.8378 15.0708 31.5854 15.0632 31.332 15.0642C27.369 15.0647 23.4061 15.0637 19.4431 15.0647C19.3502 15.0637 19.2572 15.0581 19.1643 15.0515C19.5848 13.781 20.0992 12.5282 20.7685 11.3669C21.2682 10.5092 21.8679 9.66619 22.5976 8.98877C23.1943 8.43932 23.8616 7.99193 24.6512 7.77358C25.2977 7.5867 25.9918 7.58619 26.6378 7.77611Z" fill="black"/>
<path d="M23.2111 7.83456C23.0034 8.01483 22.7738 8.16768 22.5606 8.34186C21.6252 9.13405 20.9051 10.0989 20.2988 11.1582C19.6858 12.2469 19.1877 13.3931 18.7916 14.5773C18.7418 14.7383 18.6875 14.8962 18.6281 15.0541C18.3416 15.0755 18.0608 15.0628 17.7734 15.0648C15.5913 15.0653 13.4088 15.0643 11.2267 15.0653C11.1216 15.0643 11.017 15.0592 10.9124 15.0536C10.9687 14.9648 11.0246 14.8759 11.085 14.7896C12.6816 12.7177 14.7225 11.0043 17.029 9.77237C17.4443 9.55706 17.8668 9.35546 18.2899 9.1569C19.7635 8.53686 21.3449 8.04987 22.9313 7.83811C23.0247 7.83405 23.1176 7.83354 23.2111 7.83456Z" fill="black"/>
<path d="M28.0491 7.82947C28.5066 7.82033 28.984 7.94119 29.4364 8.02345C31.0624 8.36978 32.6478 8.93142 34.1215 9.70228C36.3574 10.8616 38.3495 12.4958 39.9354 14.4513C40.1005 14.6403 40.2488 14.8368 40.3757 15.0536C40.1883 15.0658 40.0004 15.0668 39.8131 15.0653C37.7305 15.0622 35.6485 15.0663 33.5665 15.0648C33.2623 15.0617 32.9581 15.0754 32.6554 15.0556C32.5199 14.7032 32.4163 14.3401 32.2761 13.9887C31.9846 13.1899 31.6474 12.411 31.2488 11.6594C30.644 10.4995 29.9127 9.42146 28.9418 8.53584C28.6605 8.27431 28.3477 8.06865 28.0491 7.82947Z" fill="black"/>
<path d="M2.02866 22.2011C3.38401 22.2092 4.7419 22.1904 6.09675 22.2102C6.0353 22.5382 5.87534 22.8587 5.75956 23.175C5.53815 23.7743 5.27358 24.3618 5.08062 24.9707C5.35128 25.0047 5.6189 24.9915 5.89058 24.9925C6.61929 24.9925 7.348 24.991 8.07671 24.994C8.18741 24.9935 8.2971 24.9834 8.4073 24.9707C8.51597 24.7447 8.59468 24.5091 8.68304 24.275C8.94659 23.5889 9.20101 22.8978 9.47979 22.2178C9.78651 22.1833 10.1009 22.2072 10.4101 22.2016C11.1378 22.2061 11.8665 22.1909 12.5937 22.2087C12.5663 22.3107 12.5368 22.4118 12.5003 22.5108C12.192 23.3325 11.8543 24.1419 11.5567 24.9676C11.0312 26.3072 10.5269 27.6555 10.0034 28.9956C9.91855 29.2145 9.85202 29.4354 9.73776 29.6415C9.58948 29.6486 9.4412 29.6517 9.29292 29.6497C8.41136 29.642 7.52878 29.6588 6.64772 29.642C6.72796 29.3089 6.87624 28.9859 6.99405 28.6635C7.16468 28.1983 7.34038 27.7362 7.52116 27.2751C7.58007 27.1299 7.63085 26.9836 7.66792 26.8313C7.41351 26.8161 7.16061 26.8242 6.9062 26.8237C5.26444 26.8237 3.62218 26.8232 1.98042 26.8237C1.72804 26.8232 1.47819 26.8328 1.22632 26.811C1.34515 26.4088 1.52491 26.0254 1.6671 25.6308C1.94081 24.9366 2.20741 24.2394 2.47808 23.5442C2.5121 23.4244 2.57812 23.3233 2.49026 23.2091C2.24753 22.8653 1.9403 22.5682 1.70112 22.2198C1.80116 22.1879 1.92405 22.2077 2.02866 22.2011Z" fill="#1CC75D"/>
<path d="M13.391 22.2015C16.7304 22.202 20.0702 22.202 23.4101 22.2015C23.6305 22.201 23.8504 22.1965 24.0703 22.2066C23.9865 22.4895 23.8626 22.7535 23.761 23.0318C23.3817 24.0439 22.9704 25.0433 22.5976 26.0574C22.495 26.3082 22.4128 26.5728 22.2833 26.8084C21.9674 26.8399 21.6455 26.8186 21.3281 26.8236C19.4878 26.8277 17.6439 26.816 15.8041 26.8292C15.6553 27.14 15.5334 27.4823 15.4385 27.8139C15.7091 27.8464 15.9778 27.8337 16.25 27.8347C17.875 27.8352 19.5 27.8342 21.125 27.8352C21.3763 27.8357 21.6262 27.8286 21.8775 27.8428C21.7668 28.2003 21.613 28.5446 21.4809 28.8945C21.3758 29.1576 21.3073 29.4074 21.1686 29.6445C18.0933 29.6547 15.0079 29.644 11.9315 29.6496C11.8198 29.6496 11.7086 29.6466 11.5979 29.6425C11.7309 29.2251 11.9067 28.8209 12.06 28.4106C12.4129 27.5072 12.7496 26.5982 13.1031 25.6953C13.195 25.4632 13.2681 25.2276 13.3758 25.0021C13.6403 24.9813 13.9029 24.994 14.1679 24.9925C15.9631 24.9925 17.7587 24.9904 19.5538 24.9935C19.6513 24.9925 19.7488 24.9843 19.8458 24.9762C20.0098 24.704 20.1073 24.3872 20.2048 24.0855C18.1426 24.0733 16.0758 24.084 14.0131 24.0804C13.9288 24.0784 13.845 24.0718 13.7612 24.0652C13.8145 23.8083 13.9719 23.5747 14.0039 23.3177C13.9628 23.2192 13.8846 23.1324 13.8175 23.0501C13.5885 22.784 13.3676 22.5169 13.1721 22.2249C13.228 22.1893 13.3265 22.2107 13.391 22.2015Z" fill="#1CC75D"/>
<path d="M24.5985 22.2147C24.6335 22.2056 24.6706 22.201 24.7082 22.201C28.0501 22.2026 31.3925 22.2015 34.7344 22.202C34.9822 22.2026 35.2296 22.1954 35.4774 22.2076C35.2275 22.9033 34.9396 23.5858 34.6903 24.282C34.4125 24.9991 34.1312 25.7151 33.8595 26.4352C33.5853 27.1786 33.2846 27.9114 33.0063 28.6538C32.8763 28.9793 32.7707 29.317 32.6209 29.6334C32.3599 29.676 32.1029 29.6659 31.8399 29.6603C31.3499 29.639 30.8578 29.6517 30.3672 29.6481C29.6563 29.6527 28.9444 29.6364 28.2344 29.6623C27.8277 29.6603 27.4224 29.6354 27.0157 29.6532C26.5409 29.6816 26.0691 29.6344 25.5938 29.6491C24.7326 29.6847 23.8769 29.6471 23.0151 29.643C23.1776 29.1652 23.3828 28.7015 23.5534 28.2257C23.658 27.9261 23.7814 27.6341 23.8901 27.3355C24.3867 26.0853 24.8488 24.8213 25.3465 23.5706C25.379 23.4563 25.4669 23.3319 25.3724 23.2258C25.1525 22.9211 24.8885 22.6474 24.6594 22.3488C24.6371 22.3127 24.5873 22.2604 24.5985 22.2147ZM26.8608 27.8164C27.133 27.8459 27.4031 27.8337 27.6758 27.8352C28.4051 27.8362 29.1333 27.8322 29.8625 27.8372C29.9717 27.8372 30.0803 27.8266 30.189 27.8134C30.3876 27.3553 30.5465 26.88 30.7344 26.4174C30.9517 25.873 31.1523 25.3226 31.3626 24.7756C31.4509 24.5456 31.5499 24.3217 31.6231 24.086C30.6633 24.0708 29.702 24.087 28.7422 24.0789C28.597 24.0794 28.4472 24.0713 28.3035 24.0931C28.1649 24.3232 28.0968 24.5984 27.9927 24.8462C27.6941 25.5993 27.4103 26.358 27.1208 27.1146C27.0309 27.3497 26.9273 27.5732 26.8608 27.8164Z" fill="#1CC75D"/>
<path d="M36.3 22.201C40.8561 22.2036 45.4127 22.201 49.9688 22.202C50.2557 22.2036 50.5411 22.1949 50.828 22.2086C50.7655 22.4372 50.6766 22.6545 50.5929 22.8754C49.7555 25.0483 48.9196 27.2238 48.0863 29.3983C48.0528 29.481 48.0137 29.5613 47.9741 29.641C47.8263 29.6486 47.679 29.6517 47.5313 29.6496C46.6482 29.6415 45.7641 29.6598 44.881 29.6415C44.9617 29.3251 45.0938 29.0321 45.21 28.7188C45.7148 27.4229 46.2023 26.1208 46.7086 24.8259C46.8081 24.5603 46.9198 24.3191 46.9757 24.0403C46.3059 24.0302 45.6285 24.0286 44.9592 24.0413C44.8957 24.1658 44.8414 24.2912 44.7941 24.4227C44.557 25.0529 44.3066 25.678 44.0725 26.3092C43.6917 27.3111 43.2951 28.308 42.9239 29.314C42.8827 29.4242 42.8345 29.5318 42.7847 29.639C42.6405 29.6481 42.4968 29.6517 42.3521 29.6501C41.4573 29.6415 40.5615 29.6577 39.6673 29.6425C39.7414 29.3937 39.842 29.1581 39.9359 28.9163C40.4752 27.5117 41.0155 26.1071 41.5523 24.701C41.6376 24.4816 41.7315 24.2683 41.7909 24.0393C41.1201 24.0297 40.4442 24.0292 39.7734 24.0388C39.6023 24.3445 39.5109 24.6944 39.3783 25.0189C38.8649 26.3499 38.3586 27.6834 37.8447 29.0143C37.7599 29.2251 37.6995 29.4592 37.5802 29.6506C36.5483 29.643 35.5154 29.6562 34.4835 29.644C34.5597 29.3744 34.6729 29.1235 34.7704 28.8615C35.0411 28.1165 35.3412 27.3833 35.6261 26.6434C35.9983 25.6232 36.4061 24.6172 36.789 23.6006C36.8235 23.5061 36.852 23.4096 36.8804 23.3131C36.6382 22.9211 36.2893 22.6017 36.0298 22.2198C36.1116 22.1904 36.2136 22.2071 36.3 22.201Z" fill="#1CC75D"/>
<path d="M28.3034 24.0932C28.4471 24.0713 28.5969 24.0795 28.7422 24.079C29.7019 24.0871 30.6632 24.0708 31.623 24.0861C31.5499 24.3217 31.4508 24.5456 31.3625 24.7757C31.1522 25.3226 30.9517 25.873 30.7343 26.4174C30.5464 26.88 30.3875 27.3554 30.1889 27.8134C30.0802 27.8266 29.9716 27.8373 29.8624 27.8373C29.1332 27.8322 28.405 27.8363 27.6758 27.8352C27.4031 27.8337 27.1329 27.8459 26.8607 27.8165C26.9272 27.5732 27.0308 27.3498 27.1207 27.1147C27.4102 26.358 27.694 25.5993 27.9926 24.8463C28.0967 24.5984 28.1648 24.3232 28.3034 24.0932Z" fill="black"/>
<path d="M7.66693 31.6372C7.80454 31.5996 7.9706 31.6306 8.11177 31.6428C8.15494 31.7403 8.19658 31.8383 8.2306 31.9394C8.72724 33.4201 9.42396 34.8273 10.2801 36.1329C10.3578 36.2497 10.4396 36.3634 10.5239 36.4756C10.5417 36.3446 10.5604 36.2136 10.5828 36.0831C10.8474 36.0709 11.1109 36.079 11.375 36.078C13.457 36.079 15.539 36.078 17.6211 36.0785C17.8577 36.0785 18.0938 36.0846 18.33 36.0704C18.3117 35.944 18.2899 35.8185 18.2574 35.6951C17.9466 34.5449 17.7165 33.3694 17.5226 32.1943C17.489 32.0125 17.4774 31.8322 17.4799 31.6479C17.6434 31.621 17.7892 31.6164 17.9527 31.6489C18.0019 31.8774 18.0314 32.1085 18.0639 32.34C18.2685 33.6024 18.5301 34.843 18.8921 36.0704C19.2136 36.0862 19.534 36.077 19.8554 36.0785C23.7656 36.0785 27.6758 36.078 31.5859 36.0785C31.8525 36.077 32.1161 36.0887 32.3822 36.0689C32.4969 35.7566 32.565 35.4235 32.6508 35.1015C32.8661 34.2743 33.02 33.4364 33.1708 32.5955C33.2282 32.2791 33.25 31.9612 33.3282 31.6484C33.4963 31.6179 33.6365 31.6194 33.8045 31.6489C33.803 31.817 33.7929 31.9835 33.7614 32.1491C33.6009 33.1673 33.4044 34.1742 33.1535 35.1746C33.0789 35.4737 32.9926 35.7683 32.9291 36.0699C33.1241 36.0816 33.3196 36.0811 33.5151 36.079C35.8526 36.0765 38.1936 36.0801 40.53 36.0765C40.6102 36.078 40.69 36.0856 40.7702 36.0938C40.8027 36.174 40.8393 36.2522 40.8743 36.3314C41.409 35.5464 41.8818 34.7156 42.284 33.8548C42.5486 33.279 42.8096 32.6889 43.0086 32.0866C43.0483 31.9658 43.0965 31.85 43.1529 31.7362C43.324 31.7144 43.4951 31.7048 43.6678 31.7032C43.487 32.3177 43.2514 32.9189 43.0031 33.509C42.1423 35.4951 40.9469 37.3313 39.4667 38.9111C39.0777 39.3539 38.643 39.7419 38.2108 40.1405C36.9606 41.2572 35.5631 42.1967 34.0671 42.9513C33.2485 43.3448 32.4086 43.7059 31.5443 43.9862C29.8299 44.5351 28.0551 44.8647 26.2539 44.916C25.6521 44.917 25.0443 44.9373 24.444 44.8865C23.1247 44.8104 21.81 44.5768 20.5374 44.2223C18.0959 43.5464 15.795 42.3546 13.8211 40.7682C10.9433 38.4648 8.7638 35.3092 7.64357 31.7956C7.63189 31.7439 7.59888 31.6646 7.66693 31.6372ZM23.2466 44.2193C23.0151 44.0344 22.7703 43.8664 22.5397 43.6795C21.6008 42.8837 20.8965 41.9164 20.2861 40.8555C19.6224 39.6815 19.1054 38.4455 18.6915 37.1632C18.6306 36.9713 18.5778 36.7783 18.4935 36.594C16.0215 36.5787 13.5443 36.597 11.0713 36.5858C10.955 36.5904 10.823 36.5701 10.7108 36.6021C10.6188 36.6605 10.6904 36.724 10.7295 36.789C11.574 37.9458 12.5465 39.0071 13.6302 39.9445C15.2222 41.3247 17.0533 42.4201 19.016 43.1854C20.0982 43.5881 21.2296 43.9314 22.3696 44.1218C22.6611 44.1756 22.949 44.2274 23.2466 44.2193ZM19.0653 36.595C19.1445 36.9804 19.2836 37.342 19.4172 37.7132C19.8829 38.9842 20.4369 40.1979 21.1768 41.3349C21.6201 41.9971 22.135 42.6486 22.7358 43.1752C23.1405 43.5185 23.5894 43.8526 24.0784 44.0629C24.704 44.3229 25.3611 44.4661 26.0401 44.3798C27.0374 44.263 27.9276 43.7516 28.6513 43.0737C29.48 42.3124 30.0823 41.4151 30.6409 40.4473C31.2457 39.3158 31.7479 38.1316 32.1354 36.9088C32.1653 36.8062 32.1821 36.7016 32.1988 36.596C31.8931 36.5777 31.5885 36.5904 31.2812 36.5879C27.4559 36.5874 23.63 36.5879 19.8047 36.5879C19.5579 36.5879 19.3116 36.5823 19.0653 36.595ZM27.9358 44.265C29.6562 44.074 31.3574 43.5865 32.9474 42.9071C33.4709 42.6781 33.9802 42.4145 34.4886 42.153C35.7327 41.4624 36.9002 40.6367 37.9564 39.683C38.7054 38.9908 39.4159 38.2591 40.0476 37.4578C40.2639 37.181 40.4929 36.9022 40.6656 36.5996C40.332 36.5772 39.9948 36.5924 39.6601 36.5894C37.5441 36.5889 35.4285 36.5904 33.3125 36.5869C33.1418 36.5879 32.9687 36.5787 32.7986 36.5965C32.6691 36.8098 32.629 37.0784 32.5401 37.311C32.2923 38.0128 32.047 38.7263 31.7296 39.3996C31.5392 39.7703 31.3914 40.1573 31.1802 40.5178C30.5398 41.6838 29.7299 42.8751 28.6883 43.7191C28.4497 43.9187 28.1892 44.0847 27.9358 44.265Z" fill="#1CC75D"/>
<path d="M10.7107 36.6021C10.823 36.5701 10.955 36.5904 11.0713 36.5859C13.5443 36.597 16.0214 36.5787 18.4935 36.594C18.5778 36.7783 18.6306 36.9713 18.6915 37.1632C19.1054 38.4455 19.6223 39.6815 20.286 40.8555C20.8964 41.9164 21.6008 42.8837 22.5397 43.6795C22.7703 43.8664 23.015 44.0345 23.2466 44.2193C22.949 44.2274 22.6611 44.1756 22.3696 44.1218C21.2296 43.9314 20.0982 43.5881 19.016 43.1854C17.0533 42.4201 15.2221 41.3248 13.6301 39.9445C12.5465 39.0071 11.574 37.9458 10.7295 36.789C10.6904 36.724 10.6188 36.6605 10.7107 36.6021Z" fill="black"/>
<path d="M19.0653 36.595C19.3116 36.5823 19.5579 36.5879 19.8047 36.5879C23.63 36.5879 27.4559 36.5874 31.2812 36.5879C31.5885 36.5904 31.8932 36.5777 32.1989 36.596C32.1821 36.7016 32.1653 36.8062 32.1354 36.9088C31.7479 38.1316 31.2457 39.3159 30.6409 40.4473C30.0823 41.4152 29.48 42.3125 28.6513 43.0737C27.9277 43.7516 27.0375 44.263 26.0401 44.3798C25.3612 44.4661 24.7041 44.3229 24.0784 44.0629C23.5894 43.8527 23.1405 43.5185 22.7358 43.1752C22.135 42.6486 21.6201 41.9971 21.1768 41.3349C20.4369 40.1979 19.8829 38.9843 19.4172 37.7132C19.2837 37.342 19.1445 36.9804 19.0653 36.595Z" fill="black"/>
<path d="M32.7986 36.5965C32.9687 36.5788 33.1419 36.5879 33.3125 36.5869C35.4286 36.5904 37.5441 36.5889 39.6602 36.5894C39.9948 36.5925 40.332 36.5772 40.6656 36.5996C40.493 36.9022 40.264 37.181 40.0476 37.4578C39.4159 38.2591 38.7055 38.9909 37.9565 39.683C36.9002 40.6367 35.7327 41.4624 34.4886 42.153C33.9803 42.4145 33.4709 42.6781 32.9474 42.9071C31.3574 43.5866 29.6563 44.0741 27.9358 44.265C28.1892 44.0847 28.4497 43.9187 28.6884 43.7191C29.7299 42.8751 30.5399 41.6838 31.1802 40.5179C31.3915 40.1573 31.5392 39.7704 31.7297 39.3997C32.047 38.7263 32.2923 38.0128 32.5401 37.311C32.629 37.0784 32.6691 36.8098 32.7986 36.5965Z" fill="black"/>
</g>
</g>
<defs>
<clipPath id="clip0_170_3">
<rect width="128" height="128" fill="white"/>
</clipPath>
<clipPath id="clip1_170_3">
<rect width="52" height="52" rx="26" fill="white"/>
</clipPath>
</defs>
</svg>
