<svg width="128" height="128" viewBox="0 0 128 128" fill="none" xmlns="http://www.w3.org/2000/svg">
<g clip-path="url(#clip0_175_432)">
<path d="M64 128C99.346 128 128 99.346 128 64C128 28.654 99.346 0 64 0C28.654 0 0 28.654 0 64C0 99.346 28.654 128 64 128Z" fill="#2F63F9"/>
<path d="M91.3 25.24C93.433 26.817 95.374 28.558 97.28 30.4L98.009 31.09C102.995 35.914 106.696 42.384 108.8 48.96V49.92H107.52L107.19 49.05C105.47 44.621 103.532 40.704 100.8 36.8C95.283 36.337 95.283 36.337 88.98 36.44L82.471 36.437L77.44 36.48L78.72 41.6C79.312 44.371 79.535 47.092 79.68 49.92H78.4L78.073 47.874L77.64 45.18L77.213 42.514C76.879 40.4998 76.528 38.4884 76.16 36.48H53.12C51.837 43.184 51.837 43.184 50.88 49.92H49.6C49.681 45.457 50.66 41.165 51.52 36.8C47.7266 36.716 43.9333 36.6494 40.14 36.6L33.739 36.487L28.48 36.8C25.534 41.008 23.441 45.075 21.76 49.92H20.48C22.445 39.947 29.976 30.612 38.265 25.014C54.663 14.624 74.975 13.989 91.3 25.24Z" fill="#E6C040"/>
<path d="M21.76 80H23.04L23.521 80.985C24.736 83.447 25.987 85.857 27.409 88.206C27.84 88.96 27.84 88.96 28.16 89.92L51.52 89.6L49.92 81.28V80H51.2C51.86 83.302 52.49 86.611 53.12 89.92H76.16C76.6476 87.0144 77.1186 84.106 77.573 81.195L77.76 80H79.36C79.13 82.034 78.783 84.03 78.4 86.04L78.06 87.837C77.76 89.28 77.76 89.28 77.44 89.92C81.273 89.987 85.107 90.02 88.94 90.04L95.409 90.107L100.8 89.6C103.144 85.996 103.144 85.996 105.14 82.28L105.781 80.963L106.24 80H107.52C106.308 86.062 101.76 91.322 97.6 95.68L96.821 96.521C89.409 104.299 78.081 109.114 67.419 109.516C59.616 109.596 52.177 108.792 45.12 105.28L43.916 104.695C37.633 101.522 32.089 97.152 27.84 91.52L27.255 90.745C21.76 83.171 21.76 83.171 21.76 80Z" fill="#E4BF42"/>
<path d="M113.081 56.4C114.979 57.667 116.406 59.67 117.005 61.875C117.527 65.707 117.182 68.707 115.04 71.92C113.062 73.757 110.579 75.102 107.84 75.2L106.964 75.247C103.586 75.359 100.995 74.66 98.24 72.64C95.746 70.193 95.306 68.034 95.2 64.66C95.256 61.852 95.661 60.014 97.535 57.916C101.778 53.869 108.048 53.756 113.081 56.4Z" fill="#EFC537"/>
<path d="M54.72 55.04C60.8 55.04 60.8 55.04 62.413 56.353L63.56 58.12L64.803 59.969L65.92 61.76L66.877 63.181C68.8 66.053 68.8 66.053 68.8 66.88H69.44L69.281 65.731C69.082 63.594 69.09 61.487 69.101 59.341L69.109 56.899L69.12 55.04H74.88V74.88C68.8 74.88 68.8 74.88 67.456 73.954L66.66 72.7L65.764 71.371L64.96 70.08C64.4986 69.45 64.032 68.8233 63.56 68.2C62.49 66.719 61.496 65.204 60.48 63.68V74.88H54.72V55.04Z" fill="#ECC33A"/>
<path d="M35.52 55.04H53.12V60.16H40.96V62.4H52.48V67.52H40.96V69.76H53.12V74.88H35.52V55.04Z" fill="#EDC439"/>
<path d="M29.76 91.2H52.16C52.6767 92.5711 53.1847 93.9455 53.684 95.323C55.364 99.895 57.121 103.951 60.48 107.52V107.84C55.494 108.011 50.577 106.371 46.08 104.32L44.947 103.812C39.222 101.108 33.672 96.847 29.76 91.84V91.2Z" fill="#3264F6"/>
<path d="M13.1201 55.04H18.5601V62.4H27.8401V55.04H33.2801V74.88H27.8401V67.52H18.5601V74.88H13.1201V55.04Z" fill="#F0C536"/>
<path d="M82.051 91.169L88.34 91.18L94.631 91.189L99.52 91.2C95.63 98.978 85.281 103.868 77.44 106.56C74.586 107.42 71.77 107.711 68.8 107.84L69.64 106.76C72.83 102.48 74.824 97.711 76.427 92.643C77.363 89.824 77.57 91.197 82.051 91.169Z" fill="#3264F6"/>
<path d="M60.48 18.56L59.66 19.62C56.06 24.462 54.174 29.492 52.16 35.2H29.76C33.49 27.738 43.302 22.865 50.74 20.2C53.874 19.214 57.19 18.56 60.48 18.56ZM68.8 18.56C79.543 18.6 89.712 24.73 97.12 32.04C99.52 34.461 99.52 34.461 99.52 35.2H77.12C76.16 32.64 76.16 32.64 75.725 31.427C74.199 27.217 72.486 23.475 69.702 19.945C69.12 19.2 69.12 19.2 68.8 18.56Z" fill="#3164F7"/>
<path d="M65.5999 18.24C70.2479 20.347 72.4319 25.511 74.1879 29.974C75.5199 33.643 75.5199 33.643 75.5199 35.2H53.4399C55.1139 29.063 57.3889 22.47 62.7199 18.56C63.7529 18.044 64.4499 18.112 65.5999 18.24Z" fill="#3164F7"/>
<path d="M53.4399 91.2H75.5199C74.7259 96.76 72.0259 103.184 67.6829 106.927C66.2059 108.017 65.1729 108.402 63.3599 108.16C57.5119 104.505 55.2499 97.533 53.4399 91.2Z" fill="#3264F6"/>
<path d="M76.8 55.04H82.24V69.76H93.76V74.88H76.8V55.04Z" fill="#F0C536"/>
<path d="M105.84 60.08L107.195 60.055C108.542 60.165 109.284 60.369 110.4 61.12C111.787 62.831 111.552 64.786 111.36 66.88C110.973 68.062 110.703 68.565 109.732 69.317C108.486 69.909 107.475 69.91 106.1 69.92L104.681 69.95C103.127 69.726 102.523 69.271 101.44 68.16C100.935 67.15 101.027 66.16 101 65.04L100.953 63.685C101.153 62.145 101.624 61.553 102.72 60.48C103.729 59.975 104.721 60.092 105.84 60.08Z" fill="#3264F6"/>
<g clip-path="url(#clip1_175_432)">
<path d="M76 0H128V52H76V0ZM83.732 20.0713C83.8548 20.0738 83.9777 20.0748 84.1006 20.0774C84.1032 20.1896 84.1062 20.3023 84.1087 20.4146C84.4795 19.3944 84.8766 18.3407 85.4057 17.39C85.7343 16.7588 86.1141 16.1596 86.5077 15.5675C88.9802 15.5604 91.4532 15.5685 93.9258 15.5639C94.0995 15.5645 94.2838 15.5548 94.4549 15.5827C94.4245 15.7798 94.3574 15.959 94.3051 16.1505C94.1299 16.8167 93.9649 17.488 93.8318 18.1639C93.7282 18.7794 93.5566 19.4177 93.5256 20.0418C93.683 20.0413 93.841 20.0408 93.9989 20.0398C94.1802 19.0181 94.3447 18.0045 94.6134 16.9995C94.723 16.5186 94.8729 16.0489 94.9927 15.5711C95.2126 15.565 95.4325 15.5634 95.6523 15.5645C99.8555 15.566 104.059 15.5624 108.262 15.566C108.675 16.8167 108.943 18.1513 109.172 19.4467C109.202 19.6579 109.233 19.8682 109.29 20.0743C109.429 20.0728 109.568 20.0738 109.707 20.0743C109.73 20.0489 109.754 20.0241 109.778 19.9992C109.636 19.1202 109.483 18.2447 109.276 17.3784C109.143 16.77 108.965 16.1723 108.817 15.5675C111.467 15.5604 114.116 15.569 116.766 15.5634C117.71 16.9056 118.456 18.3909 119.002 19.9367C119.183 19.9697 119.365 19.9839 119.549 19.9784C118.974 18.2523 118.142 16.6136 117.086 15.1318C115.074 12.2586 112.24 9.98309 109.011 8.61555C106.91 7.7218 104.635 7.2277 102.355 7.13324C101.848 7.12867 101.34 7.12867 100.832 7.13527C98.7855 7.23836 96.7589 7.64512 94.8454 8.38398C92.6755 9.22441 90.6651 10.463 88.9452 12.0306C86.7189 14.0425 84.9934 16.5923 83.9391 19.4015C83.8523 19.6198 83.7721 19.8382 83.732 20.0713ZM78.2242 22.2132C78.4878 22.5905 78.8285 22.9186 79.0773 23.3035C79.0499 23.5066 78.9443 23.7037 78.8752 23.8961C78.1409 25.8111 77.4056 27.7255 76.6703 29.6395C79.6629 29.6502 82.6559 29.643 85.6484 29.6456C85.8622 29.6466 86.0755 29.6436 86.2893 29.639C86.6453 28.7127 86.9946 27.7845 87.3547 26.8597C87.5984 26.2417 87.8173 25.6151 88.0722 25.0016C86.2832 24.9869 84.4927 24.9991 82.7031 24.995C82.3299 24.9895 81.9663 25.0159 81.5946 24.9681C81.7114 24.6766 81.8282 24.3852 81.9373 24.0906C82.3116 24.0754 82.6838 24.0845 83.0586 24.0825C84.548 24.082 86.0379 24.0825 87.5273 24.0825C87.8376 24.0795 88.1413 24.1023 88.45 24.052C88.6603 23.4325 88.9101 22.8246 89.1402 22.2117C85.9288 22.2011 82.7158 22.2102 79.5039 22.2071C79.0773 22.2092 78.6508 22.2021 78.2242 22.2132ZM89.6434 22.2122C89.907 22.5931 90.232 22.9308 90.5128 23.301C90.0568 24.4659 89.6129 25.6334 89.1564 26.7973C89.3915 26.8323 89.6266 26.8313 89.8633 26.8262C91.7788 26.8282 93.6937 26.8247 95.6092 26.8272C95.5305 27.1634 95.3695 27.4671 95.3014 27.8058C95.0805 27.8464 94.8602 27.8464 94.6367 27.8398C92.9274 27.8388 91.2176 27.8398 89.5078 27.8393C89.2549 27.8373 89.0025 27.8357 88.7496 27.8535C88.5633 28.4604 88.2982 29.0433 88.0829 29.641C91.2877 29.6405 94.4925 29.6461 97.6973 29.6385C97.9796 28.9021 98.2635 28.1668 98.5489 27.4315C98.8957 26.487 99.2756 25.5546 99.629 24.6127C99.8464 24.0322 100.07 23.4538 100.297 22.877C100.387 22.6586 100.47 22.4382 100.533 22.2097C97.4332 22.2021 94.3336 22.2087 91.2344 22.2061C90.7042 22.2082 90.1736 22.2005 89.6434 22.2122ZM101.092 22.2148C101.347 22.5413 101.614 22.8587 101.872 23.1832C101.963 23.2862 101.937 23.3848 101.898 23.5036C101.19 25.3322 100.478 27.2055 99.7712 29.0393C99.691 29.2363 99.6204 29.4348 99.561 29.639C102.388 29.6451 105.216 29.6395 108.043 29.6415C108.417 29.639 108.791 29.6486 109.164 29.6339C109.791 27.9769 110.436 26.324 111.064 24.667C111.379 23.8489 111.702 23.0329 112.004 22.2102C108.517 22.2036 105.03 22.2092 101.543 22.2071C101.393 22.2077 101.242 22.2077 101.092 22.2148ZM112.55 22.2132C112.81 22.557 113.091 22.8846 113.364 23.2172C113.45 23.3127 113.374 23.4462 113.342 23.5488C113.198 23.8921 113.079 24.245 112.94 24.5898C112.613 25.4125 112.314 26.2453 111.986 27.0669C111.662 27.9261 111.328 28.7803 111.002 29.6385C112.047 29.6446 113.092 29.643 114.137 29.6395C114.61 28.3842 115.096 27.135 115.574 25.8817C115.801 25.2698 116.057 24.667 116.27 24.0505C116.947 24.0226 117.628 24.0444 118.307 24.0388C118.224 24.41 118.057 24.764 117.923 25.1205C117.413 26.4464 116.905 27.7748 116.396 29.1012C116.324 29.2784 116.262 29.4572 116.212 29.6415C117.249 29.64 118.287 29.6476 119.324 29.637C119.764 28.473 120.224 27.2995 120.66 26.1396C120.945 25.4439 121.187 24.731 121.477 24.0373C122.162 24.0404 122.847 24.0332 123.532 24.0409C122.828 25.9091 122.098 27.7728 121.393 29.641C122.106 29.6425 122.819 29.6405 123.531 29.642C123.87 29.6395 124.204 29.6512 124.543 29.6293C124.717 29.0707 124.957 28.5314 125.157 27.9815C125.859 26.1767 126.542 24.3613 127.245 22.5575C127.286 22.4433 127.315 22.326 127.344 22.2082C122.789 22.2061 118.234 22.2082 113.68 22.2071C113.303 22.2092 112.926 22.2026 112.55 22.2132ZM119.673 31.7038C119.478 31.7007 119.297 31.7164 119.108 31.7647C118.967 32.2893 118.746 32.7961 118.538 33.2973C118.152 34.1941 117.694 35.0614 117.167 35.8841C117.068 36.0527 116.973 36.2162 116.821 36.3431C116.812 36.2553 116.804 36.1674 116.799 36.0791C114.173 36.0755 111.546 36.0816 108.921 36.0755C109.226 34.9532 109.482 33.8203 109.674 32.6732C109.731 32.3339 109.799 31.9998 109.805 31.6545C109.646 31.654 109.488 31.6525 109.329 31.6514C109.232 32.0805 109.204 32.5193 109.108 32.9489C108.968 33.6827 108.832 34.4307 108.639 35.1533C108.553 35.4656 108.494 35.7769 108.381 36.0811C103.883 36.0735 99.3838 36.0821 94.885 36.0765C94.723 35.4996 94.5829 34.9162 94.4422 34.3337C94.2477 33.445 94.0908 32.5498 93.9532 31.6509C93.7953 31.652 93.6368 31.6525 93.4784 31.653C93.4743 32.0318 93.5607 32.3908 93.6201 32.762C93.8191 33.8797 94.0487 34.9847 94.3615 36.0765C91.7645 36.0786 89.1676 36.0796 86.5706 36.0765C86.5513 36.2192 86.5447 36.3624 86.5315 36.5056C85.9892 35.7216 85.5108 34.8964 85.0878 34.0422C84.7151 33.2668 84.4013 32.4675 84.1245 31.653C83.9589 31.6525 83.7909 31.6454 83.6253 31.6591C83.6471 31.8216 83.7061 31.9846 83.7599 32.1395C84.5526 34.4896 85.8429 36.6757 87.4801 38.5364C87.9118 39.0036 88.3312 39.4738 88.8096 39.8953C90.5316 41.4903 92.5496 42.7619 94.7352 43.6196C96.5552 44.332 98.4905 44.7591 100.441 44.8886C101.11 44.9368 101.786 44.913 102.457 44.9114C103.764 44.8459 105.069 44.6596 106.336 44.3325C109.233 43.6069 111.951 42.1429 114.185 40.1659C114.631 39.7445 115.091 39.3484 115.493 38.8812C117.4 36.8387 118.834 34.3693 119.673 31.7038Z" fill="black" stroke="black" stroke-width="17.7778"/>
<path d="M100.832 7.13524C101.34 7.12864 101.848 7.12864 102.355 7.13321C104.635 7.22767 106.91 7.72177 109.011 8.61552C112.24 9.98306 115.074 12.2586 117.086 15.1318C118.142 16.6136 118.974 18.2523 119.549 19.9783C119.365 19.9839 119.183 19.9697 119.002 19.9367C118.456 18.3909 117.71 16.9056 116.766 15.5634C114.116 15.569 111.467 15.5604 108.817 15.5675C108.965 16.1723 109.143 16.77 109.276 17.3783C109.483 18.2447 109.636 19.1201 109.778 19.9992C109.754 20.024 109.73 20.0489 109.707 20.0743C109.568 20.0738 109.429 20.0728 109.29 20.0743C109.233 19.8681 109.202 19.6579 109.172 19.4467C108.943 18.1512 108.675 16.8167 108.262 15.5659C104.059 15.5624 99.8555 15.5659 95.6523 15.5644C95.4324 15.5634 95.2126 15.5649 94.9927 15.571C94.8728 16.0489 94.723 16.5186 94.6133 16.9995C94.3447 18.0045 94.1802 19.0181 93.9989 20.0398C93.841 20.0408 93.683 20.0413 93.5256 20.0418C93.5566 19.4177 93.7282 18.7794 93.8318 18.1639C93.9649 17.488 94.1299 16.8167 94.3051 16.1504C94.3574 15.959 94.4244 15.7797 94.4549 15.5827C94.2838 15.5548 94.0994 15.5644 93.9258 15.5639C91.4532 15.5685 88.9802 15.5604 86.5076 15.5675C86.1141 16.1596 85.7342 16.7588 85.4057 17.39C84.8765 18.3406 84.4794 19.3943 84.1087 20.4145C84.1062 20.3023 84.1031 20.1896 84.1006 20.0774C83.9777 20.0748 83.8548 20.0738 83.7319 20.0713C83.7721 19.8382 83.8523 19.6198 83.9391 19.4015C84.9933 16.5922 86.7189 14.0425 88.9451 12.0306C90.6651 10.4629 92.6755 9.22439 94.8454 8.38396C96.7588 7.64509 98.7855 7.23833 100.832 7.13524ZM95.1892 15.0597C99.4904 15.0647 103.792 15.0642 108.093 15.0602C108.049 14.8332 107.974 14.6168 107.888 14.4025C107.336 12.8659 106.608 11.3064 105.605 10.0095C104.989 9.22286 104.29 8.52614 103.39 8.07013C102.974 7.8538 102.514 7.72075 102.052 7.64661C101.662 7.62681 101.24 7.6131 100.861 7.7172C100.107 7.88122 99.4183 8.28036 98.8368 8.77954C98.005 9.47474 97.3352 10.4071 96.7837 11.3338C96.2211 12.3134 95.7666 13.3468 95.3867 14.4092C95.3029 14.6214 95.2293 14.8342 95.1892 15.0597ZM98.849 7.84466C98.2523 7.94673 97.6602 8.04474 97.0747 8.20368C96.2749 8.41696 95.4832 8.67036 94.7169 8.98419C91.8077 10.1633 89.2229 12.1042 87.2678 14.5584C87.1353 14.7118 87.0139 14.8621 86.9454 15.0566C89.0685 15.0718 91.1932 15.0586 93.3164 15.0632C93.7572 15.0602 94.1985 15.0703 94.6387 15.0546C94.9155 14.1644 95.2461 13.2813 95.6467 12.4393C96.0606 11.5136 96.5765 10.6315 97.1783 9.81446C97.5617 9.3031 98.001 8.83642 98.4778 8.41087C98.721 8.19099 99.0115 8.04017 99.236 7.80302C99.1065 7.81114 98.9775 7.82689 98.849 7.84466ZM104.017 7.83196C104.091 7.88325 104.166 7.93505 104.241 7.98634C104.974 8.484 105.61 9.15837 106.137 9.86677C107.27 11.4034 108.065 13.2483 108.646 15.0586C110.696 15.0688 112.747 15.0602 114.797 15.0627C115.324 15.0612 115.852 15.0683 116.38 15.0551C116.037 14.5112 115.584 14.0318 115.157 13.5545C114.718 13.0472 114.223 12.6018 113.715 12.1504C112.779 11.3283 111.754 10.6204 110.677 9.99524C108.997 9.06341 107.189 8.37431 105.304 7.99497C104.87 7.92337 104.46 7.81267 104.017 7.83196Z" fill="black" stroke="#F3C733" stroke-width="17.7778"/>
<path d="M102.052 7.64663C102.514 7.72077 102.974 7.85382 103.39 8.07015C104.29 8.52617 104.989 9.22288 105.605 10.0095C106.608 11.3064 107.336 12.8659 107.888 14.4026C107.974 14.6169 108.049 14.8332 108.093 15.0602C103.792 15.0643 99.4904 15.0648 95.1892 15.0597C95.2293 14.8342 95.303 14.6214 95.3867 14.4092C95.7666 13.3468 96.2211 12.3134 96.7837 11.3339C97.3352 10.4071 98.005 9.47476 98.8368 8.77956C99.4183 8.28038 100.107 7.88124 100.861 7.71722C101.24 7.61312 101.662 7.62683 102.052 7.64663Z" fill="black" stroke="black" stroke-width="17.7778"/>
<path d="M99.2359 7.80304C99.0114 8.04019 98.721 8.19101 98.4777 8.41089C98.0009 8.83644 97.5616 9.30312 97.1782 9.81448C96.5765 10.6316 96.0605 11.5136 95.6467 12.4394C95.246 13.2813 94.9154 14.1644 94.6387 15.0546C94.1984 15.0703 93.7571 15.0602 93.3163 15.0632C91.1932 15.0587 89.0685 15.0719 86.9453 15.0566C87.0139 14.8621 87.1352 14.7118 87.2678 14.5585C89.2229 12.1042 91.8076 10.1634 94.7169 8.98421C95.4832 8.67038 96.2748 8.41698 97.0746 8.2037C97.6602 8.04476 98.2523 7.94675 98.8489 7.84468C98.9774 7.82691 99.1064 7.81116 99.2359 7.80304Z" fill="black" stroke="black" stroke-width="17.7778"/>
<path d="M104.017 7.832C104.46 7.8127 104.87 7.9234 105.304 7.995C107.189 8.37434 108.997 9.06344 110.677 9.99528C111.754 10.6204 112.779 11.3283 113.715 12.1504C114.223 12.6019 114.718 13.0472 115.157 13.5545C115.585 14.0319 116.038 14.5113 116.38 15.0551C115.852 15.0683 115.325 15.0612 114.797 15.0627C112.747 15.0602 110.696 15.0688 108.646 15.0587C108.065 13.2483 107.27 11.4034 106.137 9.8668C105.61 9.1584 104.974 8.48403 104.242 7.98637C104.166 7.93508 104.091 7.88328 104.017 7.832Z" fill="black" stroke="black" stroke-width="17.7778"/>
<path d="M78.2243 22.2132C78.6509 22.202 79.0774 22.2092 79.504 22.2071C82.7159 22.2102 85.9288 22.201 89.1403 22.2117C88.9102 22.8246 88.6604 23.4325 88.4501 24.052C88.1414 24.1023 87.8377 24.0794 87.5274 24.0825C86.038 24.0825 84.5481 24.082 83.0587 24.0825C82.6839 24.0845 82.3117 24.0754 81.9374 24.0906C81.8283 24.3851 81.7115 24.6766 81.5947 24.9681C81.9664 25.0158 82.33 24.9894 82.7032 24.995C84.4928 24.9991 86.2833 24.9869 88.0723 25.0016C87.8174 25.6151 87.5985 26.2417 87.3548 26.8597C86.9947 27.7844 86.6454 28.7127 86.2894 29.639C86.0756 29.6435 85.8623 29.6466 85.6485 29.6456C82.656 29.643 79.6629 29.6501 76.6704 29.6395C77.4057 27.7255 78.141 25.8111 78.8753 23.8961C78.9444 23.7037 79.05 23.5066 79.0774 23.3035C78.8286 22.9186 78.4879 22.5905 78.2243 22.2132ZM80.5135 27.8301C81.4631 27.8545 82.4138 27.8301 83.3634 27.8428C83.5371 27.8469 83.7036 27.8347 83.8747 27.8058C83.9667 27.4706 84.0982 27.1578 84.2175 26.8318C83.2222 26.8165 82.2259 26.8333 81.2306 26.8242C81.1153 26.8242 80.9954 26.8211 80.8817 26.8389C80.7324 27.1532 80.6166 27.497 80.5135 27.8301Z" fill="black" stroke="#F3C733" stroke-width="17.7778"/>
<path d="M89.6435 22.2123C90.1737 22.2006 90.7043 22.2082 91.2345 22.2062C94.3337 22.2087 97.4334 22.2021 100.533 22.2097C100.47 22.4382 100.387 22.6586 100.297 22.877C100.07 23.4539 99.8465 24.0323 99.6291 24.6127C99.2757 25.5547 98.8959 26.487 98.549 27.4315C98.2636 28.1669 97.9798 28.9022 97.6974 29.6385C94.4926 29.6461 91.2878 29.6405 88.083 29.641C88.2983 29.0433 88.5634 28.4604 88.7498 27.8535C89.0027 27.8358 89.255 27.8373 89.5079 27.8393C91.2177 27.8398 92.9275 27.8388 94.6368 27.8398C94.8603 27.8464 95.0807 27.8464 95.3016 27.8058C95.3696 27.4671 95.5306 27.1634 95.6093 26.8273C93.6938 26.8247 91.7789 26.8283 89.8634 26.8262C89.6268 26.8313 89.3916 26.8323 89.1565 26.7973C89.613 25.6334 90.0569 24.4659 90.5129 23.301C90.2321 22.9308 89.9071 22.5931 89.6435 22.2123ZM93.0103 24.9676C93.2642 25.0012 93.5181 24.9991 93.7736 24.9946C94.417 24.9961 95.0598 24.9935 95.7032 24.9951C95.9257 25.0017 96.1461 24.9981 96.3664 24.9636C96.4711 24.6685 96.5868 24.3781 96.7067 24.0886C95.7124 24.0739 94.7171 24.0891 93.7228 24.0805C93.6019 24.0815 93.4755 24.0754 93.3561 24.0978C93.22 24.3765 93.1307 24.6812 93.0103 24.9676Z" fill="black" stroke="#F3C733" stroke-width="17.7778"/>
<path d="M101.543 22.2071C105.03 22.2092 108.517 22.2036 112.004 22.2102C111.702 23.0328 111.379 23.8489 111.064 24.667C110.436 26.324 109.791 27.9769 109.164 29.6339C108.791 29.6486 108.417 29.639 108.043 29.6415C105.216 29.6395 102.388 29.6451 99.561 29.639C99.6204 29.4348 99.691 29.2363 99.7713 29.0392C100.478 27.2055 101.19 25.3322 101.898 23.5036C101.937 23.3848 101.963 23.2862 101.872 23.1832C101.614 22.8587 101.347 22.5413 101.092 22.2148C101.242 22.2076 101.393 22.2076 101.543 22.2071ZM104.817 24.0906C104.329 25.3271 103.86 26.5764 103.377 27.8154C103.628 27.8469 103.88 27.8428 104.133 27.8393C104.759 27.8413 105.386 27.8383 106.012 27.8398C106.252 27.8449 106.492 27.8444 106.731 27.8169C107.144 26.7348 107.553 25.6526 107.978 24.5751C108.044 24.4156 108.095 24.2516 108.144 24.0866C107.197 24.0764 106.248 24.0871 105.301 24.0815C105.14 24.081 104.977 24.0789 104.817 24.0906Z" fill="black" stroke="#F3C733" stroke-width="17.7778"/>
<path d="M112.55 22.2133C112.926 22.2026 113.303 22.2092 113.68 22.2072C118.234 22.2082 122.789 22.2061 127.344 22.2082C127.315 22.326 127.286 22.4433 127.245 22.5576C126.542 24.3613 125.859 26.1767 125.157 27.9815C124.957 28.5315 124.717 29.0708 124.543 29.6293C124.204 29.6512 123.87 29.6395 123.531 29.642C122.819 29.6405 122.106 29.6426 121.393 29.641C122.098 27.7728 122.828 25.9091 123.532 24.0409C122.847 24.0333 122.162 24.0404 121.477 24.0373C121.187 24.731 120.945 25.444 120.66 26.1397C120.224 27.2995 119.764 28.4731 119.323 29.637C118.287 29.6476 117.249 29.64 116.212 29.6415C116.262 29.4572 116.324 29.2785 116.396 29.1012C116.905 27.7748 117.413 26.4464 117.923 25.1205C118.056 24.764 118.224 24.4101 118.307 24.0388C117.628 24.0444 116.947 24.0226 116.269 24.0505C116.057 24.667 115.801 25.2698 115.574 25.8817C115.096 27.135 114.61 28.3842 114.137 29.6395C113.092 29.6431 112.047 29.6446 111.002 29.6385C111.328 28.7803 111.662 27.9261 111.986 27.0669C112.314 26.2453 112.613 25.4125 112.94 24.5898C113.079 24.245 113.198 23.8921 113.342 23.5488C113.374 23.4462 113.45 23.3127 113.364 23.2172C113.091 22.8846 112.81 22.557 112.55 22.2133Z" fill="black" stroke="#F3C733" stroke-width="17.7778"/>
<path d="M93.3561 24.0978C93.4754 24.0754 93.6019 24.0815 93.7227 24.0805C94.717 24.0891 95.7123 24.0739 96.7066 24.0886C96.5868 24.3781 96.471 24.6685 96.3664 24.9636C96.146 24.9981 95.9256 25.0017 95.7032 24.9951C95.0598 24.9935 94.4169 24.9961 93.7735 24.9946C93.5181 24.9991 93.2642 25.0012 93.0103 24.9676C93.1306 24.6812 93.22 24.3765 93.3561 24.0978Z" fill="black" stroke="black" stroke-width="17.7778"/>
<path d="M105.301 24.0815C106.248 24.0871 107.196 24.0764 108.144 24.0866C108.095 24.2516 108.044 24.4157 107.978 24.5751C107.553 25.6527 107.144 26.7348 106.731 27.817C106.492 27.8444 106.252 27.8449 106.012 27.8398C105.386 27.8383 104.759 27.8414 104.133 27.8393C103.88 27.8429 103.628 27.8469 103.377 27.8155C103.86 26.5764 104.329 25.3272 104.817 24.0907C104.977 24.079 105.14 24.081 105.301 24.0815Z" fill="black" stroke="black" stroke-width="17.7778"/>
<path d="M80.8816 26.8389C80.9953 26.8211 81.1152 26.8242 81.2305 26.8242C82.2258 26.8333 83.2221 26.8166 84.2174 26.8318C84.0981 27.1578 83.9666 27.4706 83.8746 27.8058C83.7035 27.8347 83.5369 27.8469 83.3633 27.8428C82.4137 27.8301 81.463 27.8545 80.5134 27.8301C80.6165 27.497 80.7323 27.1532 80.8816 26.8389Z" fill="black" stroke="black" stroke-width="17.7778"/>
<path d="M83.6252 31.6591C83.7908 31.6453 83.9589 31.6524 84.1244 31.653C84.4012 32.4675 84.715 33.2668 85.0877 34.0422C85.5108 34.8964 85.9891 35.7216 86.5315 36.5056C86.5447 36.3624 86.5513 36.2192 86.5706 36.0765C89.1675 36.0796 91.7645 36.0785 94.3614 36.0765C94.0486 34.9847 93.8191 33.8797 93.62 32.762C93.5606 32.3908 93.4743 32.0318 93.4783 31.653C93.6368 31.6524 93.7952 31.6519 93.9531 31.6509C94.0908 32.5498 94.2477 33.445 94.4422 34.3337C94.5828 34.9162 94.723 35.4996 94.885 36.0765C99.3837 36.0821 103.883 36.0735 108.381 36.0811C108.494 35.7769 108.553 35.4656 108.639 35.1533C108.832 34.4307 108.968 33.6827 109.108 32.9489C109.204 32.5193 109.232 32.0805 109.329 31.6514C109.488 31.6524 109.646 31.654 109.805 31.6545C109.799 31.9998 109.731 32.3339 109.673 32.6732C109.482 33.8203 109.226 34.9532 108.921 36.0755C111.546 36.0816 114.173 36.0755 116.799 36.079C116.804 36.1674 116.812 36.2553 116.821 36.3431C116.973 36.2162 117.068 36.0526 117.167 35.8841C117.694 35.0614 118.152 34.1941 118.538 33.2973C118.746 32.796 118.966 32.2892 119.108 31.7647C119.297 31.7164 119.478 31.7007 119.673 31.7037C118.834 34.3692 117.4 36.8387 115.493 38.8812C115.091 39.3483 114.631 39.7444 114.185 40.1659C111.951 42.1428 109.233 43.6069 106.336 44.3325C105.069 44.6596 103.764 44.8459 102.457 44.9114C101.786 44.913 101.11 44.9368 100.44 44.8886C98.4904 44.7591 96.5552 44.332 94.7352 43.6196C92.5495 42.7619 90.5315 41.4903 88.8095 39.8953C88.3311 39.4738 87.9117 39.0035 87.48 38.5364C85.8429 36.6757 84.5525 34.4896 83.7598 32.1394C83.706 31.9846 83.6471 31.8216 83.6252 31.6591ZM86.6112 36.593C86.8209 36.9378 87.0809 37.2546 87.3333 37.569C88.5084 39.0264 89.9084 40.3107 91.4699 41.344C93.4052 42.638 95.5893 43.5474 97.8663 44.0278C98.3579 44.1223 98.8545 44.2239 99.3547 44.2604C98.4945 43.7409 97.7952 43.0371 97.1945 42.2378C95.9448 40.5854 95.113 38.5541 94.5072 36.5853C92.1468 36.5833 89.786 36.5853 87.4257 36.5843C87.154 36.5828 86.8829 36.5808 86.6112 36.593ZM95.0531 36.5899C95.1236 36.9017 95.2349 37.1988 95.342 37.4994C95.9676 39.2849 96.8421 41.115 98.0984 42.546C98.8027 43.3215 99.7041 44.0324 100.738 44.2894C101.789 44.5768 102.893 44.3142 103.796 43.7364C104.551 43.2514 105.176 42.6131 105.706 41.8935C106.184 41.2785 106.556 40.6047 106.92 39.9186C107.447 38.8436 107.894 37.7396 108.231 36.5899C107.966 36.5833 107.7 36.5833 107.434 36.5843C103.659 36.5843 99.8839 36.5843 96.1093 36.5843C95.7569 36.5853 95.405 36.5813 95.0531 36.5899ZM108.756 36.599C108.494 37.5268 108.146 38.4333 107.766 39.3189C107.119 40.7596 106.293 42.1748 105.167 43.2966C104.82 43.6521 104.417 43.9212 104.022 44.2178C104.339 44.2233 104.64 44.1848 104.949 44.1182C108.313 43.5134 111.484 41.9367 114.01 39.6353C114.292 39.3555 114.595 39.1051 114.859 38.8085C115.074 38.5678 115.309 38.3495 115.515 38.1012C115.92 37.6177 116.338 37.1282 116.675 36.593C116.574 36.5899 116.472 36.5874 116.371 36.5858C114.103 36.5853 111.835 36.5833 109.566 36.5848C109.297 36.5858 109.024 36.5742 108.756 36.599Z" fill="black" stroke="#F3C733" stroke-width="17.7778"/>
<path d="M87.4259 36.5843C89.7862 36.5854 92.147 36.5833 94.5073 36.5854C95.1131 38.5542 95.9449 40.5854 97.1946 42.2378C97.7954 43.0371 98.4946 43.741 99.3549 44.2604C98.8547 44.2239 98.358 44.1223 97.8665 44.0279C95.5895 43.5475 93.4054 42.638 91.4701 41.3441C89.9086 40.3107 88.5085 39.0264 87.3334 37.569C87.0811 37.2547 86.8211 36.9378 86.6113 36.593C86.883 36.5808 87.1542 36.5828 87.4259 36.5843Z" fill="black" stroke="black" stroke-width="17.7778"/>
<path d="M108.231 36.5899C107.894 37.7396 107.447 38.8436 106.92 39.9186C106.556 40.6047 106.184 41.2785 105.707 41.8935C105.176 42.6131 104.551 43.2514 103.796 43.7364C102.893 44.3142 101.789 44.5768 100.738 44.2894C99.7043 44.0324 98.8029 43.3215 98.0986 42.546C96.8422 41.115 95.9678 39.2849 95.3422 37.4994C95.235 37.1988 95.1238 36.9017 95.0532 36.5899C95.4051 36.5813 95.7571 36.5853 96.1095 36.5843C99.884 36.5843 103.659 36.5843 107.434 36.5843C107.7 36.5833 107.966 36.5833 108.231 36.5899Z" fill="black" stroke="black" stroke-width="17.7778"/>
<path d="M109.567 36.5848C111.835 36.5833 114.103 36.5854 116.371 36.5859C116.472 36.5874 116.574 36.5899 116.675 36.593C116.338 37.1282 115.92 37.6177 115.515 38.1012C115.309 38.3495 115.074 38.5679 114.859 38.8086C114.595 39.1051 114.292 39.3555 114.01 39.6353C111.484 41.9367 108.313 43.5134 104.949 44.1182C104.64 44.1848 104.34 44.2234 104.022 44.2178C104.417 43.9212 104.82 43.6521 105.167 43.2966C106.293 42.1748 107.119 40.7596 107.766 39.3189C108.147 38.4333 108.494 37.5268 108.757 36.5991C109.024 36.5742 109.297 36.5859 109.567 36.5848Z" fill="black" stroke="black" stroke-width="17.7778"/>
<path d="M76 0H128V52H76V0ZM83.732 20.0713C83.8548 20.0738 83.9777 20.0748 84.1006 20.0774C84.1032 20.1896 84.1062 20.3023 84.1087 20.4146C84.4795 19.3944 84.8766 18.3407 85.4057 17.39C85.7343 16.7588 86.1141 16.1596 86.5077 15.5675C88.9802 15.5604 91.4532 15.5685 93.9258 15.5639C94.0995 15.5645 94.2838 15.5548 94.4549 15.5827C94.4245 15.7798 94.3574 15.959 94.3051 16.1505C94.1299 16.8167 93.9649 17.488 93.8318 18.1639C93.7282 18.7794 93.5566 19.4177 93.5256 20.0418C93.683 20.0413 93.841 20.0408 93.9989 20.0398C94.1802 19.0181 94.3447 18.0045 94.6134 16.9995C94.723 16.5186 94.8729 16.0489 94.9927 15.5711C95.2126 15.565 95.4325 15.5634 95.6523 15.5645C99.8555 15.566 104.059 15.5624 108.262 15.566C108.675 16.8167 108.943 18.1513 109.172 19.4467C109.202 19.6579 109.233 19.8682 109.29 20.0743C109.429 20.0728 109.568 20.0738 109.707 20.0743C109.73 20.0489 109.754 20.0241 109.778 19.9992C109.636 19.1202 109.483 18.2447 109.276 17.3784C109.143 16.77 108.965 16.1723 108.817 15.5675C111.467 15.5604 114.116 15.569 116.766 15.5634C117.71 16.9056 118.456 18.3909 119.002 19.9367C119.183 19.9697 119.365 19.9839 119.549 19.9784C118.974 18.2523 118.142 16.6136 117.086 15.1318C115.074 12.2586 112.24 9.98309 109.011 8.61555C106.91 7.7218 104.635 7.2277 102.355 7.13324C101.848 7.12867 101.34 7.12867 100.832 7.13527C98.7855 7.23836 96.7589 7.64512 94.8454 8.38398C92.6755 9.22441 90.6651 10.463 88.9452 12.0306C86.7189 14.0425 84.9934 16.5923 83.9391 19.4015C83.8523 19.6198 83.7721 19.8382 83.732 20.0713ZM78.2242 22.2132C78.4878 22.5905 78.8285 22.9186 79.0773 23.3035C79.0499 23.5066 78.9443 23.7037 78.8752 23.8961C78.1409 25.8111 77.4056 27.7255 76.6703 29.6395C79.6629 29.6502 82.6559 29.643 85.6484 29.6456C85.8622 29.6466 86.0755 29.6436 86.2893 29.639C86.6453 28.7127 86.9946 27.7845 87.3547 26.8597C87.5984 26.2417 87.8173 25.6151 88.0722 25.0016C86.2832 24.9869 84.4927 24.9991 82.7031 24.995C82.3299 24.9895 81.9663 25.0159 81.5946 24.9681C81.7114 24.6766 81.8282 24.3852 81.9373 24.0906C82.3116 24.0754 82.6838 24.0845 83.0586 24.0825C84.548 24.082 86.0379 24.0825 87.5273 24.0825C87.8376 24.0795 88.1413 24.1023 88.45 24.052C88.6603 23.4325 88.9101 22.8246 89.1402 22.2117C85.9288 22.2011 82.7158 22.2102 79.5039 22.2071C79.0773 22.2092 78.6508 22.2021 78.2242 22.2132ZM89.6434 22.2122C89.907 22.5931 90.232 22.9308 90.5128 23.301C90.0568 24.4659 89.6129 25.6334 89.1564 26.7973C89.3915 26.8323 89.6266 26.8313 89.8633 26.8262C91.7788 26.8282 93.6937 26.8247 95.6092 26.8272C95.5305 27.1634 95.3695 27.4671 95.3014 27.8058C95.0805 27.8464 94.8602 27.8464 94.6367 27.8398C92.9274 27.8388 91.2176 27.8398 89.5078 27.8393C89.2549 27.8373 89.0025 27.8357 88.7496 27.8535C88.5633 28.4604 88.2982 29.0433 88.0829 29.641C91.2877 29.6405 94.4925 29.6461 97.6973 29.6385C97.9796 28.9021 98.2635 28.1668 98.5489 27.4315C98.8957 26.487 99.2756 25.5546 99.629 24.6127C99.8464 24.0322 100.07 23.4538 100.297 22.877C100.387 22.6586 100.47 22.4382 100.533 22.2097C97.4332 22.2021 94.3336 22.2087 91.2344 22.2061C90.7042 22.2082 90.1736 22.2005 89.6434 22.2122ZM101.092 22.2148C101.347 22.5413 101.614 22.8587 101.872 23.1832C101.963 23.2862 101.937 23.3848 101.898 23.5036C101.19 25.3322 100.478 27.2055 99.7712 29.0393C99.691 29.2363 99.6204 29.4348 99.561 29.639C102.388 29.6451 105.216 29.6395 108.043 29.6415C108.417 29.639 108.791 29.6486 109.164 29.6339C109.791 27.9769 110.436 26.324 111.064 24.667C111.379 23.8489 111.702 23.0329 112.004 22.2102C108.517 22.2036 105.03 22.2092 101.543 22.2071C101.393 22.2077 101.242 22.2077 101.092 22.2148ZM112.55 22.2132C112.81 22.557 113.091 22.8846 113.364 23.2172C113.45 23.3127 113.374 23.4462 113.342 23.5488C113.198 23.8921 113.079 24.245 112.94 24.5898C112.613 25.4125 112.314 26.2453 111.986 27.0669C111.662 27.9261 111.328 28.7803 111.002 29.6385C112.047 29.6446 113.092 29.643 114.137 29.6395C114.61 28.3842 115.096 27.135 115.574 25.8817C115.801 25.2698 116.057 24.667 116.27 24.0505C116.947 24.0226 117.628 24.0444 118.307 24.0388C118.224 24.41 118.057 24.764 117.923 25.1205C117.413 26.4464 116.905 27.7748 116.396 29.1012C116.324 29.2784 116.262 29.4572 116.212 29.6415C117.249 29.64 118.287 29.6476 119.324 29.637C119.764 28.473 120.224 27.2995 120.66 26.1396C120.945 25.4439 121.187 24.731 121.477 24.0373C122.162 24.0404 122.847 24.0332 123.532 24.0409C122.828 25.9091 122.098 27.7728 121.393 29.641C122.106 29.6425 122.819 29.6405 123.531 29.642C123.87 29.6395 124.204 29.6512 124.543 29.6293C124.717 29.0707 124.957 28.5314 125.157 27.9815C125.859 26.1767 126.542 24.3613 127.245 22.5575C127.286 22.4433 127.315 22.326 127.344 22.2082C122.789 22.2061 118.234 22.2082 113.68 22.2071C113.303 22.2092 112.926 22.2026 112.55 22.2132ZM119.673 31.7038C119.478 31.7007 119.297 31.7164 119.108 31.7647C118.967 32.2893 118.746 32.7961 118.538 33.2973C118.152 34.1941 117.694 35.0614 117.167 35.8841C117.068 36.0527 116.973 36.2162 116.821 36.3431C116.812 36.2553 116.804 36.1674 116.799 36.0791C114.173 36.0755 111.546 36.0816 108.921 36.0755C109.226 34.9532 109.482 33.8203 109.674 32.6732C109.731 32.3339 109.799 31.9998 109.805 31.6545C109.646 31.654 109.488 31.6525 109.329 31.6514C109.232 32.0805 109.204 32.5193 109.108 32.9489C108.968 33.6827 108.832 34.4307 108.639 35.1533C108.553 35.4656 108.494 35.7769 108.381 36.0811C103.883 36.0735 99.3838 36.0821 94.885 36.0765C94.723 35.4996 94.5829 34.9162 94.4422 34.3337C94.2477 33.445 94.0908 32.5498 93.9532 31.6509C93.7953 31.652 93.6368 31.6525 93.4784 31.653C93.4743 32.0318 93.5607 32.3908 93.6201 32.762C93.8191 33.8797 94.0487 34.9847 94.3615 36.0765C91.7645 36.0786 89.1676 36.0796 86.5706 36.0765C86.5513 36.2192 86.5447 36.3624 86.5315 36.5056C85.9892 35.7216 85.5108 34.8964 85.0878 34.0422C84.7151 33.2668 84.4013 32.4675 84.1245 31.653C83.9589 31.6525 83.7909 31.6454 83.6253 31.6591C83.6471 31.8216 83.7061 31.9846 83.7599 32.1395C84.5526 34.4896 85.8429 36.6757 87.4801 38.5364C87.9118 39.0036 88.3312 39.4738 88.8096 39.8953C90.5316 41.4903 92.5496 42.7619 94.7352 43.6196C96.5552 44.332 98.4905 44.7591 100.441 44.8886C101.11 44.9368 101.786 44.913 102.457 44.9114C103.764 44.8459 105.069 44.6596 106.336 44.3325C109.233 43.6069 111.951 42.1429 114.185 40.1659C114.631 39.7445 115.091 39.3484 115.493 38.8812C117.4 36.8387 118.834 34.3693 119.673 31.7038Z" fill="black"/>
<path d="M100.832 7.13524C101.34 7.12864 101.848 7.12864 102.355 7.13321C104.635 7.22767 106.91 7.72177 109.011 8.61552C112.24 9.98306 115.074 12.2586 117.086 15.1318C118.142 16.6136 118.974 18.2523 119.549 19.9783C119.365 19.9839 119.183 19.9697 119.002 19.9367C118.456 18.3909 117.71 16.9056 116.766 15.5634C114.116 15.569 111.467 15.5604 108.817 15.5675C108.965 16.1723 109.143 16.77 109.276 17.3783C109.483 18.2447 109.636 19.1201 109.778 19.9992C109.754 20.024 109.73 20.0489 109.707 20.0743C109.568 20.0738 109.429 20.0728 109.29 20.0743C109.233 19.8681 109.202 19.6579 109.172 19.4467C108.943 18.1512 108.675 16.8167 108.262 15.5659C104.059 15.5624 99.8555 15.5659 95.6523 15.5644C95.4324 15.5634 95.2126 15.5649 94.9927 15.571C94.8728 16.0489 94.723 16.5186 94.6133 16.9995C94.3447 18.0045 94.1802 19.0181 93.9989 20.0398C93.841 20.0408 93.683 20.0413 93.5256 20.0418C93.5566 19.4177 93.7282 18.7794 93.8318 18.1639C93.9649 17.488 94.1299 16.8167 94.3051 16.1504C94.3574 15.959 94.4244 15.7797 94.4549 15.5827C94.2838 15.5548 94.0994 15.5644 93.9258 15.5639C91.4532 15.5685 88.9802 15.5604 86.5076 15.5675C86.1141 16.1596 85.7342 16.7588 85.4057 17.39C84.8765 18.3406 84.4794 19.3943 84.1087 20.4145C84.1062 20.3023 84.1031 20.1896 84.1006 20.0774C83.9777 20.0748 83.8548 20.0738 83.7319 20.0713C83.7721 19.8382 83.8523 19.6198 83.9391 19.4015C84.9933 16.5922 86.7189 14.0425 88.9451 12.0306C90.6651 10.4629 92.6755 9.22439 94.8454 8.38396C96.7588 7.64509 98.7855 7.23833 100.832 7.13524ZM95.1892 15.0597C99.4904 15.0647 103.792 15.0642 108.093 15.0602C108.049 14.8332 107.974 14.6168 107.888 14.4025C107.336 12.8659 106.608 11.3064 105.605 10.0095C104.989 9.22286 104.29 8.52614 103.39 8.07013C102.974 7.8538 102.514 7.72075 102.052 7.64661C101.662 7.62681 101.24 7.6131 100.861 7.7172C100.107 7.88122 99.4183 8.28036 98.8368 8.77954C98.005 9.47474 97.3352 10.4071 96.7837 11.3338C96.2211 12.3134 95.7666 13.3468 95.3867 14.4092C95.3029 14.6214 95.2293 14.8342 95.1892 15.0597ZM98.849 7.84466C98.2523 7.94673 97.6602 8.04474 97.0747 8.20368C96.2749 8.41696 95.4832 8.67036 94.7169 8.98419C91.8077 10.1633 89.2229 12.1042 87.2678 14.5584C87.1353 14.7118 87.0139 14.8621 86.9454 15.0566C89.0685 15.0718 91.1932 15.0586 93.3164 15.0632C93.7572 15.0602 94.1985 15.0703 94.6387 15.0546C94.9155 14.1644 95.2461 13.2813 95.6467 12.4393C96.0606 11.5136 96.5765 10.6315 97.1783 9.81446C97.5617 9.3031 98.001 8.83642 98.4778 8.41087C98.721 8.19099 99.0115 8.04017 99.236 7.80302C99.1065 7.81114 98.9775 7.82689 98.849 7.84466ZM104.017 7.83196C104.091 7.88325 104.166 7.93505 104.241 7.98634C104.974 8.484 105.61 9.15837 106.137 9.86677C107.27 11.4034 108.065 13.2483 108.646 15.0586C110.696 15.0688 112.747 15.0602 114.797 15.0627C115.324 15.0612 115.852 15.0683 116.38 15.0551C116.037 14.5112 115.584 14.0318 115.157 13.5545C114.718 13.0472 114.223 12.6018 113.715 12.1504C112.779 11.3283 111.754 10.6204 110.677 9.99524C108.997 9.06341 107.189 8.37431 105.304 7.99497C104.87 7.92337 104.46 7.81267 104.017 7.83196Z" fill="#F3C733"/>
<path d="M102.052 7.64663C102.514 7.72077 102.974 7.85382 103.39 8.07015C104.29 8.52617 104.989 9.22288 105.605 10.0095C106.608 11.3064 107.336 12.8659 107.888 14.4026C107.974 14.6169 108.049 14.8332 108.093 15.0602C103.792 15.0643 99.4904 15.0648 95.1892 15.0597C95.2293 14.8342 95.303 14.6214 95.3867 14.4092C95.7666 13.3468 96.2211 12.3134 96.7837 11.3339C97.3352 10.4071 98.005 9.47476 98.8368 8.77956C99.4183 8.28038 100.107 7.88124 100.861 7.71722C101.24 7.61312 101.662 7.62683 102.052 7.64663Z" fill="black"/>
<path d="M99.2359 7.80304C99.0114 8.04019 98.721 8.19101 98.4777 8.41089C98.0009 8.83644 97.5616 9.30312 97.1782 9.81448C96.5765 10.6316 96.0605 11.5136 95.6467 12.4394C95.246 13.2813 94.9154 14.1644 94.6387 15.0546C94.1984 15.0703 93.7571 15.0602 93.3163 15.0632C91.1932 15.0587 89.0685 15.0719 86.9453 15.0566C87.0139 14.8621 87.1352 14.7118 87.2678 14.5585C89.2229 12.1042 91.8076 10.1634 94.7169 8.98421C95.4832 8.67038 96.2748 8.41698 97.0746 8.2037C97.6602 8.04476 98.2523 7.94675 98.8489 7.84468C98.9774 7.82691 99.1064 7.81116 99.2359 7.80304Z" fill="black"/>
<path d="M104.017 7.832C104.46 7.8127 104.87 7.9234 105.304 7.995C107.189 8.37434 108.997 9.06344 110.677 9.99528C111.754 10.6204 112.779 11.3283 113.715 12.1504C114.223 12.6019 114.718 13.0472 115.157 13.5545C115.585 14.0319 116.038 14.5113 116.38 15.0551C115.852 15.0683 115.325 15.0612 114.797 15.0627C112.747 15.0602 110.696 15.0688 108.646 15.0587C108.065 13.2483 107.27 11.4034 106.137 9.8668C105.61 9.1584 104.974 8.48403 104.242 7.98637C104.166 7.93508 104.091 7.88328 104.017 7.832Z" fill="black"/>
<path d="M78.2243 22.2132C78.6509 22.202 79.0774 22.2092 79.504 22.2071C82.7159 22.2102 85.9288 22.201 89.1403 22.2117C88.9102 22.8246 88.6604 23.4325 88.4501 24.052C88.1414 24.1023 87.8377 24.0794 87.5274 24.0825C86.038 24.0825 84.5481 24.082 83.0587 24.0825C82.6839 24.0845 82.3117 24.0754 81.9374 24.0906C81.8283 24.3851 81.7115 24.6766 81.5947 24.9681C81.9664 25.0158 82.33 24.9894 82.7032 24.995C84.4928 24.9991 86.2833 24.9869 88.0723 25.0016C87.8174 25.6151 87.5985 26.2417 87.3548 26.8597C86.9947 27.7844 86.6454 28.7127 86.2894 29.639C86.0756 29.6435 85.8623 29.6466 85.6485 29.6456C82.656 29.643 79.6629 29.6501 76.6704 29.6395C77.4057 27.7255 78.141 25.8111 78.8753 23.8961C78.9444 23.7037 79.05 23.5066 79.0774 23.3035C78.8286 22.9186 78.4879 22.5905 78.2243 22.2132ZM80.5135 27.8301C81.4631 27.8545 82.4138 27.8301 83.3634 27.8428C83.5371 27.8469 83.7036 27.8347 83.8747 27.8058C83.9667 27.4706 84.0982 27.1578 84.2175 26.8318C83.2222 26.8165 82.2259 26.8333 81.2306 26.8242C81.1153 26.8242 80.9954 26.8211 80.8817 26.8389C80.7324 27.1532 80.6166 27.497 80.5135 27.8301Z" fill="#F3C733"/>
<path d="M89.6435 22.2123C90.1737 22.2006 90.7043 22.2082 91.2345 22.2062C94.3337 22.2087 97.4334 22.2021 100.533 22.2097C100.47 22.4382 100.387 22.6586 100.297 22.877C100.07 23.4539 99.8465 24.0323 99.6291 24.6127C99.2757 25.5547 98.8959 26.487 98.549 27.4315C98.2636 28.1669 97.9798 28.9022 97.6974 29.6385C94.4926 29.6461 91.2878 29.6405 88.083 29.641C88.2983 29.0433 88.5634 28.4604 88.7498 27.8535C89.0027 27.8358 89.255 27.8373 89.5079 27.8393C91.2177 27.8398 92.9275 27.8388 94.6368 27.8398C94.8603 27.8464 95.0807 27.8464 95.3016 27.8058C95.3696 27.4671 95.5306 27.1634 95.6093 26.8273C93.6938 26.8247 91.7789 26.8283 89.8634 26.8262C89.6268 26.8313 89.3916 26.8323 89.1565 26.7973C89.613 25.6334 90.0569 24.4659 90.5129 23.301C90.2321 22.9308 89.9071 22.5931 89.6435 22.2123ZM93.0103 24.9676C93.2642 25.0012 93.5181 24.9991 93.7736 24.9946C94.417 24.9961 95.0598 24.9935 95.7032 24.9951C95.9257 25.0017 96.1461 24.9981 96.3664 24.9636C96.4711 24.6685 96.5868 24.3781 96.7067 24.0886C95.7124 24.0739 94.7171 24.0891 93.7228 24.0805C93.6019 24.0815 93.4755 24.0754 93.3561 24.0978C93.22 24.3765 93.1307 24.6812 93.0103 24.9676Z" fill="#F3C733"/>
<path d="M101.543 22.2071C105.03 22.2092 108.517 22.2036 112.004 22.2102C111.702 23.0328 111.379 23.8489 111.064 24.667C110.436 26.324 109.791 27.9769 109.164 29.6339C108.791 29.6486 108.417 29.639 108.043 29.6415C105.216 29.6395 102.388 29.6451 99.561 29.639C99.6204 29.4348 99.691 29.2363 99.7713 29.0392C100.478 27.2055 101.19 25.3322 101.898 23.5036C101.937 23.3848 101.963 23.2862 101.872 23.1832C101.614 22.8587 101.347 22.5413 101.092 22.2148C101.242 22.2076 101.393 22.2076 101.543 22.2071ZM104.817 24.0906C104.329 25.3271 103.86 26.5764 103.377 27.8154C103.628 27.8469 103.88 27.8428 104.133 27.8393C104.759 27.8413 105.386 27.8383 106.012 27.8398C106.252 27.8449 106.492 27.8444 106.731 27.8169C107.144 26.7348 107.553 25.6526 107.978 24.5751C108.044 24.4156 108.095 24.2516 108.144 24.0866C107.197 24.0764 106.248 24.0871 105.301 24.0815C105.14 24.081 104.977 24.0789 104.817 24.0906Z" fill="#F3C733"/>
<path d="M112.55 22.2133C112.926 22.2026 113.303 22.2092 113.68 22.2072C118.234 22.2082 122.789 22.2061 127.344 22.2082C127.315 22.326 127.286 22.4433 127.245 22.5576C126.542 24.3613 125.859 26.1767 125.157 27.9815C124.957 28.5315 124.717 29.0708 124.543 29.6293C124.204 29.6512 123.87 29.6395 123.531 29.642C122.819 29.6405 122.106 29.6426 121.393 29.641C122.098 27.7728 122.828 25.9091 123.532 24.0409C122.847 24.0333 122.162 24.0404 121.477 24.0373C121.187 24.731 120.945 25.444 120.66 26.1397C120.224 27.2995 119.764 28.4731 119.323 29.637C118.287 29.6476 117.249 29.64 116.212 29.6415C116.262 29.4572 116.324 29.2785 116.396 29.1012C116.905 27.7748 117.413 26.4464 117.923 25.1205C118.056 24.764 118.224 24.4101 118.307 24.0388C117.628 24.0444 116.947 24.0226 116.269 24.0505C116.057 24.667 115.801 25.2698 115.574 25.8817C115.096 27.135 114.61 28.3842 114.137 29.6395C113.092 29.6431 112.047 29.6446 111.002 29.6385C111.328 28.7803 111.662 27.9261 111.986 27.0669C112.314 26.2453 112.613 25.4125 112.94 24.5898C113.079 24.245 113.198 23.8921 113.342 23.5488C113.374 23.4462 113.45 23.3127 113.364 23.2172C113.091 22.8846 112.81 22.557 112.55 22.2133Z" fill="#F3C733"/>
<path d="M93.3561 24.0978C93.4754 24.0754 93.6019 24.0815 93.7227 24.0805C94.717 24.0891 95.7123 24.0739 96.7066 24.0886C96.5868 24.3781 96.471 24.6685 96.3664 24.9636C96.146 24.9981 95.9256 25.0017 95.7032 24.9951C95.0598 24.9935 94.4169 24.9961 93.7735 24.9946C93.5181 24.9991 93.2642 25.0012 93.0103 24.9676C93.1306 24.6812 93.22 24.3765 93.3561 24.0978Z" fill="black"/>
<path d="M105.301 24.0815C106.248 24.0871 107.196 24.0764 108.144 24.0866C108.095 24.2516 108.044 24.4157 107.978 24.5751C107.553 25.6527 107.144 26.7348 106.731 27.817C106.492 27.8444 106.252 27.8449 106.012 27.8398C105.386 27.8383 104.759 27.8414 104.133 27.8393C103.88 27.8429 103.628 27.8469 103.377 27.8155C103.86 26.5764 104.329 25.3272 104.817 24.0907C104.977 24.079 105.14 24.081 105.301 24.0815Z" fill="black"/>
<path d="M80.8816 26.8389C80.9953 26.8211 81.1152 26.8242 81.2305 26.8242C82.2258 26.8333 83.2221 26.8166 84.2174 26.8318C84.0981 27.1578 83.9666 27.4706 83.8746 27.8058C83.7035 27.8347 83.5369 27.8469 83.3633 27.8428C82.4137 27.8301 81.463 27.8545 80.5134 27.8301C80.6165 27.497 80.7323 27.1532 80.8816 26.8389Z" fill="black"/>
<path d="M83.6252 31.6591C83.7908 31.6453 83.9589 31.6524 84.1244 31.653C84.4012 32.4675 84.715 33.2668 85.0877 34.0422C85.5108 34.8964 85.9891 35.7216 86.5315 36.5056C86.5447 36.3624 86.5513 36.2192 86.5706 36.0765C89.1675 36.0796 91.7645 36.0785 94.3614 36.0765C94.0486 34.9847 93.8191 33.8797 93.62 32.762C93.5606 32.3908 93.4743 32.0318 93.4783 31.653C93.6368 31.6524 93.7952 31.6519 93.9531 31.6509C94.0908 32.5498 94.2477 33.445 94.4422 34.3337C94.5828 34.9162 94.723 35.4996 94.885 36.0765C99.3837 36.0821 103.883 36.0735 108.381 36.0811C108.494 35.7769 108.553 35.4656 108.639 35.1533C108.832 34.4307 108.968 33.6827 109.108 32.9489C109.204 32.5193 109.232 32.0805 109.329 31.6514C109.488 31.6524 109.646 31.654 109.805 31.6545C109.799 31.9998 109.731 32.3339 109.673 32.6732C109.482 33.8203 109.226 34.9532 108.921 36.0755C111.546 36.0816 114.173 36.0755 116.799 36.079C116.804 36.1674 116.812 36.2553 116.821 36.3431C116.973 36.2162 117.068 36.0526 117.167 35.8841C117.694 35.0614 118.152 34.1941 118.538 33.2973C118.746 32.796 118.966 32.2892 119.108 31.7647C119.297 31.7164 119.478 31.7007 119.673 31.7037C118.834 34.3692 117.4 36.8387 115.493 38.8812C115.091 39.3483 114.631 39.7444 114.185 40.1659C111.951 42.1428 109.233 43.6069 106.336 44.3325C105.069 44.6596 103.764 44.8459 102.457 44.9114C101.786 44.913 101.11 44.9368 100.44 44.8886C98.4904 44.7591 96.5552 44.332 94.7352 43.6196C92.5495 42.7619 90.5315 41.4903 88.8095 39.8953C88.3311 39.4738 87.9117 39.0035 87.48 38.5364C85.8429 36.6757 84.5525 34.4896 83.7598 32.1394C83.706 31.9846 83.6471 31.8216 83.6252 31.6591ZM86.6112 36.593C86.8209 36.9378 87.0809 37.2546 87.3333 37.569C88.5084 39.0264 89.9084 40.3107 91.4699 41.344C93.4052 42.638 95.5893 43.5474 97.8663 44.0278C98.3579 44.1223 98.8545 44.2239 99.3547 44.2604C98.4945 43.7409 97.7952 43.0371 97.1945 42.2378C95.9448 40.5854 95.113 38.5541 94.5072 36.5853C92.1468 36.5833 89.786 36.5853 87.4257 36.5843C87.154 36.5828 86.8829 36.5808 86.6112 36.593ZM95.0531 36.5899C95.1236 36.9017 95.2349 37.1988 95.342 37.4994C95.9676 39.2849 96.8421 41.115 98.0984 42.546C98.8027 43.3215 99.7041 44.0324 100.738 44.2894C101.789 44.5768 102.893 44.3142 103.796 43.7364C104.551 43.2514 105.176 42.6131 105.706 41.8935C106.184 41.2785 106.556 40.6047 106.92 39.9186C107.447 38.8436 107.894 37.7396 108.231 36.5899C107.966 36.5833 107.7 36.5833 107.434 36.5843C103.659 36.5843 99.8839 36.5843 96.1093 36.5843C95.7569 36.5853 95.405 36.5813 95.0531 36.5899ZM108.756 36.599C108.494 37.5268 108.146 38.4333 107.766 39.3189C107.119 40.7596 106.293 42.1748 105.167 43.2966C104.82 43.6521 104.417 43.9212 104.022 44.2178C104.339 44.2233 104.64 44.1848 104.949 44.1182C108.313 43.5134 111.484 41.9367 114.01 39.6353C114.292 39.3555 114.595 39.1051 114.859 38.8085C115.074 38.5678 115.309 38.3495 115.515 38.1012C115.92 37.6177 116.338 37.1282 116.675 36.593C116.574 36.5899 116.472 36.5874 116.371 36.5858C114.103 36.5853 111.835 36.5833 109.566 36.5848C109.297 36.5858 109.024 36.5742 108.756 36.599Z" fill="#F3C733"/>
<path d="M87.4259 36.5843C89.7862 36.5854 92.147 36.5833 94.5073 36.5854C95.1131 38.5542 95.9449 40.5854 97.1946 42.2378C97.7954 43.0371 98.4946 43.741 99.3549 44.2604C98.8547 44.2239 98.358 44.1223 97.8665 44.0279C95.5895 43.5475 93.4054 42.638 91.4701 41.3441C89.9086 40.3107 88.5085 39.0264 87.3334 37.569C87.0811 37.2547 86.8211 36.9378 86.6113 36.593C86.883 36.5808 87.1542 36.5828 87.4259 36.5843Z" fill="black"/>
<path d="M108.231 36.5899C107.894 37.7396 107.447 38.8436 106.92 39.9186C106.556 40.6047 106.184 41.2785 105.707 41.8935C105.176 42.6131 104.551 43.2514 103.796 43.7364C102.893 44.3142 101.789 44.5768 100.738 44.2894C99.7043 44.0324 98.8029 43.3215 98.0986 42.546C96.8422 41.115 95.9678 39.2849 95.3422 37.4994C95.235 37.1988 95.1238 36.9017 95.0532 36.5899C95.4051 36.5813 95.7571 36.5853 96.1095 36.5843C99.884 36.5843 103.659 36.5843 107.434 36.5843C107.7 36.5833 107.966 36.5833 108.231 36.5899Z" fill="black"/>
<path d="M109.567 36.5848C111.835 36.5833 114.103 36.5854 116.371 36.5859C116.472 36.5874 116.574 36.5899 116.675 36.593C116.338 37.1282 115.92 37.6177 115.515 38.1012C115.309 38.3495 115.074 38.5679 114.859 38.8086C114.595 39.1051 114.292 39.3555 114.01 39.6353C111.484 41.9367 108.313 43.5134 104.949 44.1182C104.64 44.1848 104.34 44.2234 104.022 44.2178C104.417 43.9212 104.82 43.6521 105.167 43.2966C106.293 42.1748 107.119 40.7596 107.766 39.3189C108.147 38.4333 108.494 37.5268 108.757 36.5991C109.024 36.5742 109.297 36.5859 109.567 36.5848Z" fill="black"/>
</g>
</g>
<defs>
<clipPath id="clip0_175_432">
<rect width="128" height="128" fill="white"/>
</clipPath>
<clipPath id="clip1_175_432">
<rect x="76" width="52" height="52" rx="26" fill="white"/>
</clipPath>
</defs>
</svg>
