<svg xmlns="http://www.w3.org/2000/svg" viewBox="0 0 128 128"><path fill="#964dfe" d="M86.642 54.095h37.919c.814.006 1.624-.026 2.439.022-.168.77-.533 1.515-.807 2.26-2.091 5.42-4.139 10.86-6.232 16.28-.287.722-.479 1.443-.852 2.125q-.588.039-1.177.034c-2.472-.026-4.948.016-7.422-.02q.165-.544.378-1.07c.692-1.721 1.323-3.464 1.995-5.193.743-1.924 1.491-3.849 2.215-5.784.421-1.168.943-2.303 1.319-3.49q-2.81-.034-5.62.005a5.4 5.4 0 0 0-.429.917c-1.091 2.993-2.293 5.944-3.403 8.932-.613 1.636-1.278 3.253-1.872 4.899q-.155.387-.338.759c-.384.032-.773.053-1.156.043-2.482-.027-4.965.021-7.444-.019.24-.837.607-1.63.908-2.453 1.044-2.788 2.144-5.552 3.188-8.34.586-1.584 1.252-3.145 1.811-4.738a172 172 0 0 0-5.598 0c-.298.508-.477 1.056-.684 1.604-1.625 4.287-3.284 8.558-4.911 12.845q-.197.542-.45 1.06c-.92.084-1.854.02-2.78.035-1.937-.01-3.876.024-5.812-.016.277-.972.7-1.903 1.042-2.857 1.808-4.704 3.595-9.418 5.406-14.127q.111-.3.149-.615c-.07-.211-.218-.401-.354-.58-.653-.826-1.374-1.617-1.982-2.478.176-.048.373-.032.554-.04m-31.5-.002c8.76.008 17.519 0 26.278.002 1.078.014 2.162-.03 3.244.019-.187.794-.522 1.494-.807 2.253-1.11 2.873-2.184 5.76-3.305 8.63-1.119 3.023-2.325 6.014-3.43 9.039-.096.26-.222.502-.344.748-.754.054-1.505.02-2.256.022H52.205c-.631.005-1.268.016-1.899-.019q.133-.569.346-1.112c.631-1.64 1.279-3.274 1.891-4.92.72-2.002 1.542-3.964 2.274-5.96a158 158 0 0 1 1.82-4.72c.103-.278.234-.577.26-.88a2.7 2.7 0 0 0-.354-.563c-.652-.823-1.393-1.612-1.97-2.486.164-.08.388-.035.57-.053m5.742 15.55c2.653.042 5.305-.009 7.96.02.4.009.794-.007 1.19-.023.395-.642.55-1.318.834-2.013a648 648 0 0 0 2.365-6.18c.274-.732.591-1.443.826-2.19-2.73-.027-5.462.01-8.192-.017-.328.003-.674-.01-.996.059-.32.53-.482 1.157-.716 1.727-.826 2.119-1.622 4.249-2.44 6.374-.285.75-.61 1.47-.83 2.242M22.873 54.11c.67-.037 1.345-.01 2.016-.016H50.72c.76.006 1.518-.021 2.277.019-.202.78-.521 1.489-.806 2.245-2.112 5.482-4.187 10.985-6.302 16.464-.253.66-.45 1.325-.772 1.95q-.781.066-1.566.038c-8.32-.016-16.66.013-24.975-.016q.117-.374.256-.746c1.267-3.185 2.436-6.409 3.69-9.603.832-2.191 1.647-4.393 2.525-6.572.088-.312.31-.625.062-.916-.7-.973-1.58-1.836-2.237-2.847m6.343 15.529c1.891.045 3.787 0 5.68.016 1.16-.017 2.323.042 3.482-.022.37-.684.575-1.403.862-2.122.927-2.344 1.771-4.715 2.717-7.05q.24-.583.386-1.192c-2.615-.054-5.236.002-7.85-.027-.427.002-.87-.027-1.287.048-.299.452-.448 1.016-.645 1.518-.764 2.031-1.571 4.05-2.325 6.086-.33.916-.748 1.81-1.02 2.745M7.966 54.09c3.83.019 7.663-.01 11.492.016-.183.625-.439 1.224-.673 1.833-1.327 3.502-2.685 6.992-4.016 10.496-.395 1.069-.866 2.117-1.21 3.207.621.024 1.242.005 1.86.048-.211.845-.587 1.652-.89 2.475-.357.866-.61 1.785-1.039 2.62q-.588.04-1.18.029c-3.768-.027-7.542.019-11.31-.019.336-1.088.794-2.138 1.188-3.207.24-.628.447-1.262.732-1.871.64-.088 1.273-.045 1.918-.085.12-.246.245-.492.34-.749.863-2.368 1.793-4.71 2.696-7.061.463-1.21.9-2.432 1.395-3.63.12-.32.272-.657.31-1-.086-.237-.265-.45-.416-.649-.645-.79-1.34-1.563-1.92-2.4.213-.083.492-.032.724-.053M62.52 14.032c1.9-.021 3.822-.085 5.715.064 3.854.23 7.697.978 11.394 2.077a50.45 50.45 0 0 1 19.86 11.577 50.8 50.8 0 0 1 12.051 17.6c.373.948.786 1.916 1.036 2.902a10 10 0 0 1-1.358-.04q-.184-.406-.341-.82a49.8 49.8 0 0 0-4.889-9.743c-.24-.355-.464-.801-.807-1.06-.506-.078-1.036-.027-1.545-.033H86.059c-.663 0-1.323-.021-1.984.016q.096.495.237.984a91 91 0 0 1 2.203 10.137c.04.297.034.59.026.888a9 9 0 0 1-1.209-.006c-.205-.574-.25-1.157-.354-1.753a78 78 0 0 0-1.678-7.839c-.229-.815-.397-1.617-.724-2.4-.735-.059-1.457-.021-2.197-.027l-32.856-.002c-.274-.02-.309.254-.386.454a86 86 0 0 0-2.15 9.354c-.133.722-.212 1.438-.396 2.146q-.626.032-1.252-.01c.013-1.016.253-1.943.416-2.94.482-2.598 1.038-5.212 1.752-7.754q.186-.61.322-1.232c-.879-.042-1.758-.008-2.636-.016-6.152.006-12.317-.016-18.467.008-.418.46-.713.981-1.05 1.502a54 54 0 0 0-2.684 4.774C19.924 45 18.61 48.9 18.61 48.9h-1.6c.146-.634.645-1.681.87-2.285a50.64 50.64 0 0 1 23.51-26.743c6.508-3.501 13.763-5.439 21.13-5.84M47.707 35.178q.372.03.743.035h31.657c.676-.003 1.347.016 2.024-.016-.16-.845-.52-1.687-.812-2.5a64 64 0 0 0-2.379-5.507c-1.459-2.756-3.132-5.437-5.326-7.671-1.686-1.69-3.686-3.132-6.008-3.782a9.45 9.45 0 0 0-5.29-.008c-2.103.585-3.88 1.777-5.467 3.248-1.944 1.809-3.542 4.062-4.873 6.355-1.78 3.103-3.148 6.45-4.27 9.846m10.03-19.275c-4.225.566-8.435 1.868-12.358 3.525a91 91 0 0 0-3.358 1.644A49.45 49.45 0 0 0 26.194 34.48q-.24.346-.461.705.418.024.836.03h17.433c.767-.006 1.513.026 2.277-.027q.234-.633.434-1.278a52.7 52.7 0 0 1 4.014-9.135c1.616-2.833 3.531-5.41 6.024-7.526.567-.468 1.177-.877 1.73-1.355a13 13 0 0 0-.745.008m13.63-.024c.796.641 1.626 1.19 2.377 1.89 2.584 2.365 4.53 5.246 6.142 8.346a49 49 0 0 1 2.735 6.225c.373.938.65 1.908 1.012 2.851.807.054 1.616.017 2.423.025 5.545.002 11.09-.008 16.635 0q.75.012 1.499-.03-.511-.86-1.172-1.609a49.3 49.3 0 0 0-15.484-12.692 49 49 0 0 0-12.474-4.488c-1.204-.219-2.477-.542-3.694-.518M17.09 79.502c.365-.102.807-.02 1.182.013q.18.39.32.794a48.7 48.7 0 0 0 5.457 11.206c.703-.032 2.21-.144 2.913-.147h16.634c.629 0 1.26.019 1.886-.018a8 8 0 0 0-.192-1.005 97 97 0 0 1-1.957-9.355 8 8 0 0 1-.115-1.462c.437-.07.826-.08 1.26.003.133.612.213 1.23.296 1.85.546 3.372 1.243 6.686 2.207 9.969.855.04 1.71.016 2.565.02h31.236c.709-.004 1.412.028 2.12-.026.306-.834.487-1.724.717-2.584.572-2.21.982-4.45 1.384-6.698.152-.844.21-1.694.419-2.531.42-.08.852-.08 1.267 0q0 .673-.114 1.336a94 94 0 0 1-1.62 8.088c-.197.799-.426 1.587-.596 2.392.52.032 1.039.03 1.56.027 6.224-.008 13.73.066 19.95.056 1.425-2.098 2.331-3.702 3.401-6.003a45 45 0 0 0 1.928-4.725q.16-.481.387-.936a11 11 0 0 1 1.368-.088c-.479 1.641-1.107 3.247-1.768 4.824a50.5 50.5 0 0 1-9.417 14.438c-1.039 1.184-2.194 2.218-3.345 3.287a51 51 0 0 1-11.033 7.51 53 53 0 0 1-6.72 2.764 50.7 50.7 0 0 1-14.088 2.486c-1.6.002-3.22.058-4.82-.081a49.3 49.3 0 0 1-10.4-1.772 50 50 0 0 1-17.886-9.231 50.6 50.6 0 0 1-16.45-23.98c-.03-.135-.117-.347.064-.421m41.487 33.622c-.618-.492-1.27-.941-1.883-1.444-2.5-2.124-4.376-4.709-6-7.544a53.6 53.6 0 0 1-4.248-9.868c-.162-.51-.3-1.029-.527-1.52-6.584-.04-13.18.007-19.764-.022-.311.01-.66-.043-.958.043-.245.157-.056.326.047.5a50.7 50.7 0 0 0 7.724 8.432 49.2 49.2 0 0 0 14.34 8.659c2.883 1.08 5.897 1.997 8.933 2.504.775.145 1.542.281 2.336.26M47.443 92.75c.21 1.029.58 1.996.938 2.988 1.238 3.397 2.716 6.642 4.684 9.678 1.183 1.772 2.551 3.512 4.152 4.917 1.076.92 2.272 1.813 3.574 2.374 1.667.695 3.417 1.077 5.225.847 2.655-.313 5.025-1.678 6.95-3.49 2.209-2.034 3.815-4.432 5.3-7.019a56 56 0 0 0 3.982-9.456c.08-.275.123-.553.168-.836-.815-.048-1.625-.016-2.442-.022H49.41c-.658 0-1.31-.016-1.968.019m23.62 20.499c4.58-.513 9.108-1.817 13.342-3.629 1.396-.615 2.751-1.318 4.104-2.018a50 50 0 0 0 9.236-6.601 52 52 0 0 0 5.566-5.945c.578-.74 1.188-1.486 1.646-2.293-.887-.061-1.784-.021-2.677-.026q-8.45 0-16.903-.008c-.453.002-.913-.022-1.369.026-.346.57-.452 1.286-.687 1.909-.66 1.876-1.313 3.781-2.157 5.58-.506.989-.903 2.026-1.465 2.988-1.704 3.117-3.861 6.302-6.634 8.558-.636.532-1.331.976-2.005 1.457"/></svg>
