<?xml version="1.0" encoding="utf-8"?>
<svg xmlns="http://www.w3.org/2000/svg" viewBox="0 0 192 128">
  <circle cx="64" cy="64" r="64" fill="#381D8F"/>
  <circle cx="64" cy="64" r="46" fill="#FEFEFE"/>
  <path fill="#371C8A" d="M 103.594 54.183 C 104.728 55.885 104.726 59.491 104.867 61.483 L 104.894 61.833 C 105.023 63.753 105 65.687 104.836 67.603 L 104.817 67.848 C 104.762 68.515 104.68 69.178 104.588 69.841 L 104.554 70.086 C 104.495 70.514 104.423 70.94 104.339 71.363 L 104.284 71.655 C 104.165 72.286 104.028 72.914 103.873 73.538 L 103.776 73.95 C 103.704 74.25 103.622 74.548 103.531 74.843 L 103.471 75.054 C 103.003 76.696 103.003 76.696 102.755 77.297 L 102.661 77.567 C 101.961 79.565 101.08 81.495 100.029 83.332 L 99.829 83.686 C 99.573 84.142 99.306 84.591 99.027 85.033 L 98.919 85.205 C 98.508 85.855 98.078 86.492 97.629 87.115 L 97.53 87.252 C 97.3 87.573 97.063 87.89 96.82 88.202 L 96.714 88.341 C 96.497 88.621 96.276 88.898 96.049 89.171 L 95.809 89.464 C 95.563 89.763 95.31 90.055 95.049 90.34 C 94.992 90.403 94.935 90.467 94.879 90.532 C 94.546 90.913 94.207 91.292 93.843 91.644 C 93.786 91.703 93.731 91.763 93.678 91.826 C 93.545 91.975 93.407 92.119 93.265 92.258 L 93.114 92.41 C 92.985 92.533 92.854 92.653 92.72 92.769 C 92.651 92.836 92.584 92.903 92.518 92.971 C 92.396 93.097 92.268 93.217 92.136 93.331 C 92.041 93.415 91.947 93.501 91.856 93.588 C 91.701 93.733 91.541 93.872 91.375 94.004 C 91.283 94.081 91.193 94.161 91.105 94.244 C 90.965 94.373 90.821 94.498 90.672 94.617 C 90.553 94.714 90.435 94.811 90.318 94.909 C 90.085 95.1 89.85 95.287 89.613 95.472 L 89.483 95.574 C 88.978 95.97 88.461 96.347 87.935 96.714 L 87.786 96.82 C 87.427 97.073 87.062 97.318 86.692 97.553 L 86.565 97.637 C 85.958 98.034 85.338 98.41 84.705 98.765 L 84.58 98.835 C 82.049 100.272 79.392 101.404 76.626 102.307 L 76.439 102.369 C 76.073 102.488 75.703 102.591 75.33 102.69 C 75.16 102.735 74.991 102.783 74.823 102.833 C 73.744 103.14 72.648 103.382 71.541 103.557 C 71.413 103.582 71.285 103.61 71.159 103.643 C 69.439 103.919 67.683 104.171 65.939 104.171 L 65.939 92.023 C 66.089 91.959 66.231 91.905 66.386 91.854 C 67.103 91.6 67.771 91.227 68.362 90.749 L 68.578 90.581 L 68.798 90.408 C 69.2 90.09 69.604 89.774 70.009 89.46 C 70.174 89.33 70.34 89.201 70.506 89.072 C 70.745 88.886 70.983 88.699 71.221 88.512 C 71.623 88.195 72.027 87.879 72.432 87.565 C 72.598 87.434 72.764 87.305 72.929 87.177 C 73.168 86.991 73.407 86.804 73.644 86.617 C 74.047 86.299 74.451 85.984 74.856 85.67 C 75.021 85.54 75.186 85.411 75.353 85.282 C 75.592 85.095 75.83 84.909 76.067 84.722 C 76.47 84.405 76.874 84.089 77.279 83.775 C 77.444 83.645 77.609 83.515 77.776 83.386 L 77.919 83.275 L 78.173 83.078 C 78.742 82.636 79.297 82.162 79.733 81.585 L 79.833 81.455 C 81.203 79.654 81.725 77.371 81.453 75.138 C 81.376 74.618 81.289 74.092 81.1 73.6 L 81.1 73.507 C 81.329 73.527 81.558 73.552 81.786 73.582 C 82.495 73.668 83.194 73.702 83.908 73.701 L 84.371 73.701 C 85.391 73.683 86.464 73.621 87.461 73.376 C 87.576 73.349 87.692 73.324 87.809 73.299 C 90.437 72.715 92.908 71.566 95.049 69.934 L 95.149 69.86 C 95.358 69.7 95.562 69.535 95.761 69.364 C 95.848 69.291 95.936 69.219 96.025 69.148 C 96.208 68.998 96.379 68.837 96.551 68.675 C 96.65 68.582 96.749 68.491 96.85 68.4 C 97.169 68.111 97.47 67.804 97.753 67.48 L 97.951 67.268 C 98.094 67.116 98.23 66.959 98.361 66.796 C 98.418 66.725 98.476 66.655 98.535 66.586 C 98.805 66.261 99.059 65.926 99.306 65.585 L 99.411 65.441 C 99.636 65.134 99.849 64.82 100.052 64.497 L 100.152 64.339 C 100.343 64.035 100.525 63.725 100.698 63.409 C 100.757 63.304 100.817 63.199 100.879 63.095 C 101.008 62.875 101.121 62.646 101.232 62.415 L 101.338 62.198 C 101.615 61.615 101.866 61.027 102.102 60.428 L 102.169 60.261 C 102.829 58.599 103.239 56.813 103.473 55.043 L 103.504 54.808 C 103.522 54.663 103.537 54.518 103.549 54.373 C 103.562 54.213 103.562 54.213 103.594 54.183 M 24.246 55.053 L 24.308 55.053 L 24.335 55.235 C 24.981 59.458 26.621 63.528 29.415 66.795 C 29.487 66.879 29.558 66.965 29.627 67.052 C 31.32 69.118 33.556 70.73 35.927 71.922 L 36.097 72.008 C 39.285 73.569 42.996 74.066 46.487 73.51 C 46.674 73.481 46.861 73.459 47.05 73.445 L 47.007 73.58 C 46.808 74.224 46.677 74.886 46.615 75.557 L 46.597 75.723 C 46.431 77.884 47.111 80.108 48.51 81.771 C 48.631 81.909 48.756 82.044 48.883 82.175 L 48.988 82.285 C 49.194 82.495 49.405 82.686 49.64 82.865 C 49.763 82.96 49.884 83.056 50.003 83.155 C 50.182 83.302 50.363 83.444 50.546 83.583 C 50.877 83.838 51.207 84.095 51.536 84.354 C 51.665 84.457 51.796 84.559 51.928 84.66 L 52.746 85.301 C 52.997 85.498 53.248 85.695 53.5 85.891 C 53.653 86.01 53.806 86.129 53.959 86.249 C 54.088 86.352 54.219 86.454 54.351 86.555 L 55.169 87.196 C 55.42 87.393 55.672 87.59 55.924 87.786 L 56.382 88.145 L 56.774 88.451 C 57.047 88.664 57.32 88.877 57.593 89.091 C 57.844 89.289 58.095 89.486 58.347 89.681 L 58.805 90.04 C 58.983 90.18 59.162 90.319 59.341 90.457 C 59.461 90.55 59.58 90.645 59.698 90.74 C 60.446 91.326 61.248 91.723 62.148 92.023 L 62.148 104.171 C 59.028 104.171 55.793 103.554 52.798 102.711 L 52.632 102.665 C 49.61 101.811 46.65 100.618 43.912 99.075 L 43.742 98.982 C 43.265 98.712 42.793 98.433 42.327 98.144 L 42.173 98.05 C 41.331 97.537 40.512 96.988 39.718 96.404 L 39.438 96.204 C 39.201 96.031 38.967 95.855 38.738 95.674 C 38.602 95.568 38.465 95.463 38.328 95.359 C 38.125 95.204 37.927 95.042 37.735 94.874 C 37.646 94.798 37.556 94.723 37.465 94.649 C 37.177 94.412 36.895 94.169 36.618 93.919 L 36.425 93.748 C 36.09 93.461 35.765 93.162 35.452 92.852 C 35.342 92.739 35.342 92.739 35.234 92.65 C 35.027 92.465 34.833 92.268 34.636 92.072 L 34.397 91.833 C 34.249 91.684 34.107 91.53 33.97 91.371 L 33.83 91.231 C 33.728 91.13 33.63 91.025 33.537 90.916 C 33.451 90.82 33.364 90.725 33.275 90.631 C 33.13 90.475 32.991 90.314 32.857 90.148 C 32.785 90.062 32.711 89.977 32.634 89.895 C 32.511 89.76 32.392 89.622 32.278 89.48 C 32.183 89.362 32.087 89.245 31.99 89.13 C 31.81 88.91 31.634 88.687 31.462 88.46 L 31.143 88.049 C 30.93 87.773 30.723 87.493 30.522 87.208 L 30.31 86.917 C 30.18 86.737 30.054 86.556 29.933 86.374 C 29.854 86.254 29.775 86.135 29.695 86.016 C 27.876 83.269 26.401 80.31 25.302 77.204 L 25.178 76.862 C 25.063 76.551 24.959 76.236 24.868 75.917 C 24.83 75.787 24.79 75.657 24.747 75.528 C 24.642 75.189 24.547 74.846 24.463 74.501 L 24.403 74.276 L 24.373 74.164 L 24.293 73.866 C 24.065 73.022 23.881 72.167 23.743 71.304 C 23.718 71.154 23.69 71.004 23.659 70.854 C 23.477 69.904 23.372 68.94 23.283 67.977 L 23.257 67.704 C 23.073 65.75 23.051 63.783 23.19 61.825 L 23.215 61.478 C 23.373 59.473 23.654 57.471 24.138 55.518 C 24.176 55.363 24.212 55.208 24.246 55.052"/>
  <path fill="#371C8B" d="M 63.982 72.318 L 69.884 72.316 C 75.486 72.328 75.486 72.328 76.518 73.311 C 77.061 73.881 77.428 74.597 77.573 75.371 L 77.599 75.479 C 77.839 76.543 77.564 77.634 77.004 78.548 C 76.86 78.757 76.696 78.952 76.516 79.13 L 76.414 79.24 C 76.244 79.406 76.051 79.545 75.864 79.69 L 75.584 79.907 L 75.441 80.018 L 74.87 80.466 C 74.467 80.784 74.063 81.1 73.658 81.414 L 73.018 81.914 C 72.899 82.005 72.781 82.097 72.664 82.19 L 72.167 82.579 C 71.928 82.764 71.69 82.951 71.452 83.138 C 71.049 83.455 70.646 83.771 70.241 84.085 L 69.744 84.474 C 69.504 84.659 69.266 84.846 69.029 85.033 C 68.626 85.351 68.222 85.667 67.817 85.981 C 67.652 86.111 67.486 86.24 67.32 86.369 C 67.044 86.582 66.77 86.797 66.498 87.013 L 66.171 87.27 L 66.057 87.359 C 65.262 87.963 64.365 88.189 63.37 88.056 C 63.245 88.028 63.123 87.993 63.002 87.953 L 62.882 87.913 C 62.491 87.768 62.131 87.549 61.822 87.27 L 61.572 87.08 C 61.393 86.944 61.216 86.805 61.042 86.662 C 60.839 86.497 60.633 86.338 60.423 86.183 C 60.254 86.054 60.088 85.921 59.926 85.785 C 59.803 85.687 59.679 85.592 59.553 85.499 C 59.339 85.339 59.13 85.174 58.925 85.004 C 58.789 84.894 58.651 84.786 58.512 84.681 C 58.18 84.426 57.85 84.169 57.522 83.91 C 57.392 83.807 57.261 83.705 57.13 83.604 L 56.311 82.963 C 56.06 82.766 55.809 82.569 55.557 82.373 L 55.099 82.015 L 54.707 81.709 L 54.105 81.238 L 53.713 80.932 C 53.439 80.719 53.166 80.506 52.894 80.291 C 52.689 80.13 52.484 79.969 52.278 79.81 C 52.069 79.65 51.864 79.485 51.662 79.317 L 51.583 79.251 C 51.141 78.868 50.83 78.394 50.606 77.856 L 50.559 77.752 C 50.141 76.73 50.265 75.499 50.679 74.501 C 50.783 74.269 50.891 74.054 51.041 73.848 L 51.101 73.761 C 51.361 73.394 51.681 73.058 52.066 72.823 L 52.154 72.768 C 54.42 71.378 61.788 72.319 63.982 72.318"/>
  <path fill="#381E90" d="M 28.409 47.099 C 28.559 47.148 28.666 47.233 28.789 47.329 C 29.007 47.494 29.229 47.655 29.455 47.812 C 29.687 47.977 29.919 48.143 30.149 48.311 L 30.429 48.513 L 32.106 49.724 L 32.246 49.824 L 32.53 50.03 C 32.74 50.183 32.951 50.334 33.163 50.485 C 33.423 50.672 33.681 50.858 33.939 51.045 L 34.219 51.247 L 34.778 51.651 L 34.918 51.751 L 35.202 51.957 L 35.834 52.412 C 36.094 52.597 36.353 52.784 36.611 52.971 L 36.891 53.173 L 37.314 53.479 L 37.947 53.934 C 38.207 54.119 38.466 54.306 38.724 54.494 L 39.004 54.695 L 39.427 55.001 C 39.637 55.154 39.848 55.305 40.06 55.456 C 40.32 55.642 40.578 55.829 40.836 56.016 L 41.116 56.218 L 42.172 56.978 L 42.949 57.538 L 43.229 57.74 L 44.285 58.501 C 44.545 58.686 44.803 58.873 45.061 59.061 L 45.341 59.262 L 45.765 59.568 C 45.975 59.721 46.186 59.872 46.398 60.023 C 46.658 60.208 46.916 60.395 47.174 60.583 L 47.454 60.785 L 47.877 61.091 L 48.51 61.546 C 48.77 61.731 49.029 61.918 49.287 62.105 L 49.567 62.307 L 50.623 63.068 C 50.883 63.253 51.141 63.44 51.399 63.628 L 51.679 63.829 L 52.239 64.233 L 52.378 64.333 L 52.662 64.539 C 52.876 64.694 53.09 64.849 53.306 65.002 C 53.501 65.142 53.694 65.284 53.885 65.429 C 53.575 65.743 53.243 66.034 52.891 66.299 L 52.745 66.411 C 52.062 66.93 51.345 67.381 50.592 67.791 L 50.474 67.857 C 49.752 68.254 48.979 68.554 48.199 68.816 L 48.04 68.869 C 45.957 69.544 43.744 69.717 41.582 69.375 L 41.389 69.345 C 41.224 69.316 41.061 69.285 40.899 69.251 L 40.72 69.215 C 40.38 69.146 40.044 69.059 39.713 68.955 C 39.615 68.925 39.517 68.896 39.419 68.869 C 36.781 68.127 34.234 66.383 32.448 64.311 L 32.312 64.161 C 32.166 63.998 32.025 63.83 31.889 63.658 L 31.789 63.534 C 30.924 62.436 30.132 61.219 29.581 59.931 C 29.528 59.811 29.474 59.691 29.417 59.573 C 29.317 59.357 29.226 59.137 29.145 58.913 C 29.111 58.827 29.074 58.743 29.035 58.66 C 28.934 58.419 28.86 58.169 28.782 57.918 L 28.685 57.608 L 28.595 57.32 L 28.528 57.107 C 27.671 54.243 27.601 51.108 28.161 48.187 L 28.204 47.957 C 28.256 47.667 28.325 47.381 28.409 47.099 M 99.275 47.068 L 99.497 48.061 C 99.599 48.513 99.655 48.97 99.71 49.429 L 99.745 49.702 C 100.072 52.544 99.715 55.359 98.84 58.066 L 98.8 58.193 L 98.76 58.313 L 98.727 58.414 C 98.665 58.579 98.599 58.742 98.529 58.904 L 98.455 59.086 C 97.733 60.823 96.792 62.437 95.578 63.876 L 95.483 63.989 C 94.989 64.583 94.45 65.138 93.869 65.647 L 93.762 65.742 C 93.476 65.993 93.179 66.226 92.875 66.454 L 92.753 66.548 C 90.253 68.462 87.106 69.5 83.968 69.505 L 83.558 69.506 C 80.43 69.451 77.345 68.279 74.887 66.361 L 74.777 66.277 C 74.542 66.094 74.313 65.904 74.091 65.707 C 73.994 65.623 73.897 65.541 73.799 65.46 C 73.881 65.296 73.983 65.246 74.135 65.146 C 74.313 65.026 74.489 64.907 74.658 64.775 C 74.848 64.625 75.047 64.485 75.246 64.345 C 75.479 64.18 75.711 64.014 75.943 63.845 L 76.223 63.643 L 76.647 63.337 C 76.891 63.159 77.137 62.982 77.384 62.807 L 78.056 62.322 L 78.475 62.02 L 78.759 61.814 L 79.497 61.284 C 79.721 61.124 79.944 60.963 80.168 60.8 L 80.588 60.498 L 80.872 60.292 C 81.117 60.114 81.363 59.937 81.61 59.762 L 82.281 59.278 L 82.561 59.076 L 82.701 58.975 L 83.259 58.571 L 83.544 58.366 C 83.788 58.188 84.034 58.011 84.281 57.836 L 84.953 57.352 L 85.372 57.049 L 85.656 56.843 L 86.394 56.313 C 86.618 56.153 86.842 55.992 87.065 55.829 L 87.485 55.527 L 87.769 55.321 C 88.013 55.144 88.259 54.967 88.507 54.791 C 88.731 54.63 88.954 54.469 89.178 54.307 L 89.597 54.004 L 89.881 53.799 C 90.127 53.621 90.373 53.444 90.619 53.269 L 91.291 52.785 L 91.71 52.482 L 91.994 52.276 C 92.239 52.099 92.485 51.922 92.732 51.746 C 92.956 51.586 93.179 51.425 93.403 51.262 L 93.823 50.96 L 94.107 50.754 C 94.351 50.577 94.597 50.4 94.845 50.224 C 95.069 50.064 95.292 49.903 95.515 49.74 L 95.935 49.437 L 96.219 49.232 C 96.465 49.054 96.711 48.877 96.957 48.702 C 97.181 48.541 97.405 48.38 97.628 48.218 L 97.908 48.015 L 98.048 47.915 L 98.331 47.71 L 98.473 47.608 L 98.611 47.508 C 98.783 47.383 98.955 47.256 99.125 47.128 C 99.213 47.068 99.213 47.068 99.275 47.068"/>
  <path fill="#391E92" d="M 66.729 40.109 L 66.867 40.167 C 67.438 40.412 67.976 40.727 68.469 41.103 L 68.579 41.186 C 68.793 41.35 68.997 41.524 69.193 41.709 C 69.265 41.775 69.337 41.84 69.411 41.903 C 69.61 42.078 69.788 42.269 69.96 42.47 L 70.037 42.557 C 70.98 43.644 71.615 44.959 71.948 46.353 L 71.984 46.493 C 72.88 50.092 73.004 58.532 70.954 62.167 C 70.331 63.165 69.571 64.071 68.624 64.777 L 68.504 64.867 C 67.523 65.583 66.425 66.033 65.238 66.268 L 65.065 66.302 C 63.052 66.634 61.022 66.022 59.387 64.853 C 59.214 64.724 59.043 64.591 58.875 64.454 C 58.792 64.386 58.707 64.319 58.62 64.254 C 58.439 64.106 58.272 63.941 58.123 63.76 C 58.048 63.675 57.972 63.592 57.894 63.509 L 57.719 63.316 L 57.649 63.238 C 57.415 62.969 57.245 62.66 57.067 62.353 L 56.987 62.221 C 56.655 61.68 56.37 61.111 56.135 60.521 L 56.087 60.402 C 54.799 57.027 55.478 52.642 55.482 49.181 C 55.599 49.297 55.684 49.411 55.777 49.546 C 56.135 50.056 56.515 50.538 56.935 50.999 L 57.081 51.161 C 57.418 51.537 57.788 51.883 58.185 52.194 L 58.312 52.296 C 58.651 52.564 59.005 52.81 59.375 53.033 C 59.61 53.176 59.758 53.298 59.863 53.561 C 59.919 54.618 59.904 55.679 59.91 56.737 C 59.942 58.256 60.209 59.524 61.261 60.645 L 61.358 60.751 C 62.106 61.482 63.098 61.781 64.121 61.774 C 65.16 61.714 66.151 61.165 66.866 60.425 C 68.066 59.067 67.917 57.38 67.916 55.647 L 67.915 54.46 C 67.91 52.937 67.887 51.414 67.847 49.891 L 67.832 49.305 C 67.822 48.367 67.822 48.367 67.692 47.441 L 67.665 47.315 C 67.41 46.212 66.71 45.278 65.755 44.68 C 64.869 44.165 63.91 44.07 62.91 44.276 C 62.53 44.341 62.53 44.341 62.383 44.243 C 61.856 43.483 61.905 42.118 61.908 41.272 L 61.908 40.831 C 61.918 40.061 61.918 40.061 62.1 39.829 C 63.158 39.036 65.566 39.597 66.729 40.109"/>
  <path fill="#3A1F96" d="M 68.778 27.03 L 68.858 27.092 C 69.019 27.219 69.175 27.352 69.326 27.491 C 69.389 27.548 69.454 27.605 69.519 27.661 C 69.808 27.913 70.062 28.189 70.299 28.489 L 70.367 28.569 C 73.48 32.26 72.482 38.245 72.475 42.594 L 72.413 42.594 C 72.372 42.538 72.372 42.538 72.323 42.456 C 71.706 41.461 70.906 40.442 69.983 39.712 C 69.891 39.637 69.8 39.561 69.711 39.482 C 69.309 39.151 68.88 38.856 68.427 38.599 C 68.264 38.503 68.137 38.357 68.063 38.183 C 68.053 37.687 68.047 37.191 68.046 36.695 C 68.108 33.811 68.108 33.811 66.882 31.317 L 66.817 31.238 C 66.157 30.493 65.234 30.031 64.242 29.95 C 63.144 29.872 62.2 30.313 61.375 30.997 C 60.51 31.755 60.133 32.785 59.985 33.895 C 59.96 35.955 59.991 38.014 60.032 40.073 C 60.048 40.971 60.059 41.87 60.065 42.769 C 60.104 44.123 60.35 45.373 61.321 46.353 L 61.391 46.428 C 62.037 47.101 62.917 47.5 63.849 47.542 C 64.249 47.55 64.621 47.512 65.012 47.437 C 65.369 47.377 65.369 47.377 65.494 47.454 C 66.157 48.462 66.003 50.525 65.95 51.666 C 65.857 51.884 65.857 51.884 65.733 51.976 C 64.203 52.516 62.291 52.132 60.867 51.456 C 60.131 51.093 59.447 50.631 58.836 50.082 L 58.757 50.014 C 58.388 49.697 58.05 49.345 57.748 48.964 L 57.667 48.862 C 56.635 47.578 56.035 46.042 55.76 44.427 L 55.739 44.304 C 55.375 41.894 55.033 36.771 55.605 34.485 L 55.63 34.035 C 55.692 33.028 55.866 32.053 56.195 31.099 L 56.235 30.978 C 56.6 29.936 57.179 28.982 57.935 28.178 L 58.044 28.052 C 58.275 27.787 58.53 27.559 58.804 27.34 L 58.884 27.273 C 61.817 24.806 65.761 24.676 68.778 27.029"/>
  <circle cx="128" cy="64" r="64" fill="#78350F" style=""/>
  <circle cx="130" cy="64" r="58" fill="#fff"/>
  <path fill="#78350F" d="M 111.502 41.136 C 110.437 40.464 109.254 39.999 108.016 39.766 C 106.803 39.534 105.556 39.548 104.348 39.808 C 103.167 40.063 102.048 40.553 101.06 41.25 C 100.08 41.949 99.258 42.847 98.646 43.884 C 98.029 44.935 97.632 46.099 97.478 47.308 C 97.318 48.54 97.404 49.791 97.73 50.99 C 98.268 53.002 100.754 53.386 102.462 52.162 L 106.814 49.05 L 111.178 45.93 C 112.884 44.704 113.282 42.256 111.502 41.136 M 157.516 43.884 C 156.275 41.783 154.205 40.302 151.814 39.808 C 150.607 39.549 149.359 39.535 148.146 39.768 C 146.908 40 145.725 40.464 144.658 41.136 C 142.878 42.256 143.278 44.704 144.984 45.928 L 149.348 49.05 L 153.7 52.162 C 155.408 53.386 157.894 53.002 158.432 50.99 C 158.759 49.791 158.845 48.54 158.684 47.308 C 158.531 46.099 158.133 44.935 157.516 43.884 M 131.612 77.598 C 129.513 76.893 127.241 76.893 125.142 77.598 C 123.982 77.992 122.97 78.604 123.034 79.526 C 123.15 80.938 125.394 83.354 127.016 83.852 C 128.008 84.152 128.63 84.132 129.736 83.852 C 131.358 83.436 133.614 80.938 133.72 79.526 C 133.794 78.604 132.77 77.994 131.612 77.598 M 120.494 73.054 C 119.918 72.289 119.194 71.648 118.366 71.166 C 117.549 70.69 116.641 70.391 115.7 70.286 C 114.758 70.181 113.804 70.269 112.896 70.544 C 111.99 70.824 111.136 71.28 110.388 71.904 C 109.638 72.529 109.016 73.293 108.554 74.154 C 107.784 75.594 109.008 77.11 110.652 77.296 L 114.804 77.764 L 118.988 78.24 C 120.632 78.428 122.18 77.234 121.758 75.658 C 121.508 74.717 121.079 73.833 120.494 73.054 M 146.23 71.756 C 145.49 71.144 144.637 70.682 143.72 70.396 C 142.814 70.121 141.86 70.033 140.918 70.138 C 139.978 70.243 139.07 70.544 138.252 71.02 C 137.424 71.501 136.7 72.143 136.122 72.908 C 135.536 73.686 135.107 74.57 134.858 75.512 C 134.438 77.088 135.986 78.282 137.618 78.094 L 141.804 77.618 L 145.964 77.15 C 147.61 76.964 148.832 75.45 148.064 74.008 C 147.599 73.149 146.977 72.385 146.23 71.756"/>
  <path fill="#78350F" d="M 166.018 61.8 C 169.571 57.923 171.516 52.839 171.456 47.58 C 171.422 44.533 170.713 41.532 169.38 38.792 C 165.648 31.074 156.206 25.048 146.542 27.06 C 146.149 27.147 145.759 27.247 145.374 27.362 C 143.946 27.797 142.615 28.503 141.454 29.442 C 138.872 31.502 134.128 32.882 128.702 32.882 L 128.086 32.882 C 122.662 32.882 117.918 31.498 115.336 29.438 C 114.175 28.499 112.843 27.794 111.414 27.36 C 111.029 27.245 110.639 27.144 110.246 27.058 C 100.584 25.046 91.142 31.072 87.41 38.79 C 86.077 41.529 85.368 44.53 85.334 47.576 C 85.277 52.835 87.221 57.92 90.774 61.798 C 91.068 62.125 91.199 62.568 91.13 63.002 C 88.802 76.102 92.238 86.882 99.31 94.556 C 106.738 102.616 117.634 106.632 128.204 106.85 L 128.586 106.85 C 139.154 106.632 150.052 102.618 157.48 94.558 C 164.552 86.882 167.988 76.104 165.66 63.002 C 165.59 62.567 165.721 62.124 166.016 61.798 L 166.018 61.8 Z M 159.832 59.528 C 159.308 59.95 159.074 60.637 159.232 61.292 C 164.722 84.164 150.612 97.516 134.402 100.378 L 134.392 100.378 C 132.828 100.657 131.247 100.837 129.66 100.918 C 129.566 100.918 129.46 100.928 129.366 100.928 C 129.07 100.948 128.766 100.948 128.47 100.96 L 128.396 100.96 L 128.376 100.958 L 128.322 100.958 C 128.026 100.948 127.722 100.948 127.426 100.928 C 127.332 100.928 127.226 100.916 127.13 100.916 C 125.544 100.835 123.964 100.655 122.4 100.376 L 122.388 100.376 C 106.18 97.516 92.068 84.164 97.56 61.29 C 97.717 60.636 97.484 59.95 96.96 59.528 C 93.339 56.647 91.25 52.255 91.3 47.628 C 91.327 45.442 91.834 43.29 92.786 41.322 C 95.546 35.606 102.492 31.446 109.016 32.806 C 109.78 32.962 111.828 33.626 113.824 34.562 C 114.548 34.902 115.228 35.326 115.864 35.806 C 118.48 37.782 123.114 39.096 128.396 39.102 C 133.68 39.098 138.316 37.782 140.93 35.808 C 141.566 35.328 142.244 34.904 142.97 34.564 C 144.964 33.628 147.012 32.964 147.778 32.806 C 154.3 31.446 161.246 35.606 164.008 41.324 C 164.959 43.292 165.466 45.445 165.492 47.63 C 165.541 52.257 163.453 56.647 159.832 59.528"/>
</svg>