<svg width="128" height="128" viewBox="0 0 128 128" fill="none" xmlns="http://www.w3.org/2000/svg">
<g clip-path="url(#clip0_175_181)">
<path d="M64 128C99.346 128 128 99.346 128 64C128 28.654 99.346 0 64 0C28.654 0 0 28.654 0 64C0 99.346 28.654 128 64 128Z" fill="#2F63F9"/>
<path d="M91.3 25.24C93.433 26.817 95.374 28.558 97.28 30.4L98.009 31.09C102.995 35.914 106.696 42.384 108.8 48.96V49.92H107.52L107.19 49.05C105.47 44.621 103.532 40.704 100.8 36.8C95.283 36.337 95.283 36.337 88.98 36.44L82.471 36.437L77.44 36.48L78.72 41.6C79.312 44.371 79.535 47.092 79.68 49.92H78.4L78.073 47.874L77.64 45.18L77.213 42.514C76.879 40.4998 76.528 38.4884 76.16 36.48H53.12C51.837 43.184 51.837 43.184 50.88 49.92H49.6C49.681 45.457 50.66 41.165 51.52 36.8C47.7266 36.716 43.9333 36.6494 40.14 36.6L33.739 36.487L28.48 36.8C25.534 41.008 23.441 45.075 21.76 49.92H20.48C22.445 39.947 29.976 30.612 38.265 25.014C54.663 14.624 74.975 13.989 91.3 25.24Z" fill="#E6C040"/>
<path d="M21.76 80H23.04L23.521 80.985C24.736 83.447 25.987 85.857 27.409 88.206C27.84 88.96 27.84 88.96 28.16 89.92L51.52 89.6L49.92 81.28V80H51.2C51.86 83.302 52.49 86.611 53.12 89.92H76.16C76.6476 87.0144 77.1186 84.106 77.573 81.195L77.76 80H79.36C79.13 82.034 78.783 84.03 78.4 86.04L78.06 87.837C77.76 89.28 77.76 89.28 77.44 89.92C81.273 89.987 85.107 90.02 88.94 90.04L95.409 90.107L100.8 89.6C103.144 85.996 103.144 85.996 105.14 82.28L105.781 80.963L106.24 80H107.52C106.308 86.062 101.76 91.322 97.6 95.68L96.821 96.521C89.409 104.299 78.081 109.114 67.419 109.516C59.616 109.596 52.177 108.792 45.12 105.28L43.916 104.695C37.633 101.522 32.089 97.152 27.84 91.52L27.255 90.745C21.76 83.171 21.76 83.171 21.76 80Z" fill="#E4BF42"/>
<path d="M113.081 56.4C114.979 57.667 116.406 59.67 117.005 61.875C117.527 65.707 117.182 68.707 115.04 71.92C113.062 73.757 110.579 75.102 107.84 75.2L106.964 75.247C103.586 75.359 100.995 74.66 98.24 72.64C95.746 70.193 95.306 68.034 95.2 64.66C95.256 61.852 95.661 60.014 97.535 57.916C101.778 53.869 108.048 53.756 113.081 56.4Z" fill="#EFC537"/>
<path d="M54.72 55.04C60.8 55.04 60.8 55.04 62.413 56.353L63.56 58.12L64.803 59.969L65.92 61.76L66.877 63.181C68.8 66.053 68.8 66.053 68.8 66.88H69.44L69.281 65.731C69.082 63.594 69.09 61.487 69.101 59.341L69.109 56.899L69.12 55.04H74.88V74.88C68.8 74.88 68.8 74.88 67.456 73.954L66.66 72.7L65.764 71.371L64.96 70.08C64.4986 69.45 64.032 68.8233 63.56 68.2C62.49 66.719 61.496 65.204 60.48 63.68V74.88H54.72V55.04Z" fill="#ECC33A"/>
<path d="M35.52 55.04H53.12V60.16H40.96V62.4H52.48V67.52H40.96V69.76H53.12V74.88H35.52V55.04Z" fill="#EDC439"/>
<path d="M29.76 91.2H52.16C52.6767 92.5711 53.1847 93.9455 53.684 95.323C55.364 99.895 57.121 103.951 60.48 107.52V107.84C55.494 108.011 50.577 106.371 46.08 104.32L44.947 103.812C39.222 101.108 33.672 96.847 29.76 91.84V91.2Z" fill="#3264F6"/>
<path d="M13.12 55.04H18.56V62.4H27.84V55.04H33.28V74.88H27.84V67.52H18.56V74.88H13.12V55.04Z" fill="#F0C536"/>
<path d="M82.051 91.169L88.34 91.18L94.631 91.189L99.52 91.2C95.63 98.978 85.281 103.868 77.44 106.56C74.586 107.42 71.77 107.711 68.8 107.84L69.64 106.76C72.83 102.48 74.824 97.711 76.427 92.643C77.363 89.824 77.57 91.197 82.051 91.169Z" fill="#3264F6"/>
<path d="M60.48 18.56L59.66 19.62C56.06 24.462 54.174 29.492 52.16 35.2H29.76C33.49 27.738 43.302 22.865 50.74 20.2C53.874 19.214 57.19 18.56 60.48 18.56ZM68.8 18.56C79.543 18.6 89.712 24.73 97.12 32.04C99.52 34.461 99.52 34.461 99.52 35.2H77.12C76.16 32.64 76.16 32.64 75.725 31.427C74.199 27.217 72.486 23.475 69.702 19.945C69.12 19.2 69.12 19.2 68.8 18.56Z" fill="#3164F7"/>
<path d="M65.5999 18.24C70.2479 20.347 72.4319 25.511 74.1879 29.974C75.5199 33.643 75.5199 33.643 75.5199 35.2H53.4399C55.1139 29.063 57.3889 22.47 62.7199 18.56C63.7529 18.044 64.4499 18.112 65.5999 18.24Z" fill="#3164F7"/>
<path d="M53.4399 91.2H75.5199C74.7259 96.76 72.0259 103.184 67.6829 106.927C66.2059 108.017 65.1729 108.402 63.3599 108.16C57.5119 104.505 55.2499 97.533 53.4399 91.2Z" fill="#3264F6"/>
<path d="M76.8 55.04H82.24V69.76H93.76V74.88H76.8V55.04Z" fill="#F0C536"/>
<path d="M105.84 60.08L107.195 60.055C108.542 60.165 109.284 60.369 110.4 61.12C111.787 62.831 111.552 64.786 111.36 66.88C110.973 68.062 110.703 68.565 109.732 69.317C108.486 69.909 107.475 69.91 106.1 69.92L104.681 69.95C103.127 69.726 102.523 69.271 101.44 68.16C100.935 67.15 101.027 66.16 101 65.04L100.953 63.685C101.153 62.145 101.624 61.553 102.72 60.48C103.729 59.975 104.721 60.092 105.84 60.08Z" fill="#3264F6"/>
<g clip-path="url(#clip1_175_181)">
<path d="M76 0H128V52H76V0ZM83.7264 20.0271C83.8452 20.0454 83.9635 20.0637 84.0823 20.0814C84.091 20.2079 84.0986 20.3348 84.1062 20.4613C84.4536 19.4223 84.8562 18.4158 85.3752 17.4495C85.7221 16.802 86.0912 16.1571 86.529 15.5665C89.1742 15.5705 91.8209 15.5639 94.4656 15.5695C94.0385 17.0396 93.7257 18.5357 93.4921 20.0484C93.6683 20.0713 93.8298 20.0672 94.0055 20.0423C94.0725 19.7275 94.1157 19.4091 94.1695 19.0917C94.3676 17.9014 94.6712 16.738 94.9947 15.5771C95.2816 15.5614 95.568 15.5665 95.8555 15.5675C99.7148 15.5675 103.574 15.5675 107.434 15.5675C107.711 15.5665 107.988 15.5639 108.265 15.5721C108.742 17.0386 109.008 18.5311 109.274 20.0454C109.437 20.0464 109.6 20.0464 109.763 20.0439C109.746 19.6772 109.667 19.3258 109.606 18.9648C109.402 17.8196 109.124 16.6918 108.816 15.5711C111.3 15.5609 113.785 15.5716 116.269 15.5655C116.427 15.567 116.592 15.5538 116.748 15.5807C116.813 15.6244 116.864 15.6985 116.909 15.7615C117.737 17.0021 118.419 18.3336 118.928 19.7356C118.957 19.7976 118.981 19.888 119.04 19.9276C119.19 19.9834 119.375 19.9748 119.534 19.9779C119.233 18.8957 118.689 17.8278 118.169 16.835C117.948 16.4369 117.7 16.053 117.461 15.6645C116.582 14.3528 115.57 13.1396 114.399 12.0768C112.252 10.11 109.651 8.64703 106.849 7.84977C103.654 6.93824 100.225 6.88289 97.0052 7.69996C94.0263 8.4434 91.244 9.94398 88.9695 12.0042C87.1937 13.6094 85.7231 15.5589 84.6684 17.7079C84.3078 18.458 83.9661 19.2293 83.7264 20.0271ZM85.2848 24.0815C85.1762 24.3841 85.0619 24.6848 84.9294 24.9783C84.5257 25.0021 84.124 24.9854 83.7188 24.9895C81.9622 24.9945 80.2042 24.9813 78.4477 24.9955C78.3552 25.1966 78.275 25.4023 78.1988 25.61C78.049 26.0137 77.8738 26.4073 77.7342 26.8145C78.0709 26.8293 78.4055 26.8211 78.7422 26.8221C80.5647 26.8242 82.3878 26.8196 84.2103 26.8242C84.0976 27.1573 83.9798 27.4889 83.8528 27.817C83.5542 27.8398 83.2561 27.8337 82.957 27.8322C81.3828 27.8327 79.8086 27.8322 78.2344 27.8327C77.9393 27.8317 77.6448 27.8251 77.3498 27.8434C77.1279 28.4482 76.8745 29.0413 76.6622 29.6491C76.9664 29.6669 77.27 29.6608 77.5742 29.6603C80.1981 29.6608 82.8214 29.6603 85.4453 29.6608C85.7287 29.6634 86.0115 29.6654 86.2949 29.6466C86.3512 29.5136 86.4066 29.38 86.4569 29.2444C86.887 28.0754 87.3562 26.9217 87.7894 25.7537C88.1139 24.9239 88.4333 24.0921 88.7476 23.2583C88.8812 22.9044 89.0305 22.5616 89.1493 22.2031C85.5565 22.1945 81.9186 22.2 78.3217 22.2C78.2146 22.2005 78.2501 22.2625 78.2923 22.3224C78.6533 22.7942 79.0261 23.2583 79.379 23.7377C79.4587 23.8413 79.5354 23.9576 79.6344 24.0429C79.6994 24.0764 79.7842 24.0749 79.8553 24.0795C81.6646 24.0795 83.4755 24.0744 85.2848 24.0815ZM89.6358 22.2183C89.9268 22.6322 90.2553 23.0212 90.5564 23.4284C90.7062 23.6163 90.8403 23.8195 91.0018 23.9972C91.0673 24.0835 91.1846 24.0698 91.2811 24.0789C93.0879 24.0805 94.8952 24.0749 96.702 24.0815C96.5908 24.3831 96.4735 24.6807 96.348 24.9768C95.9971 25.0011 95.6483 24.9884 95.2969 24.99C93.7227 24.99 92.1484 24.9905 90.5742 24.9905C90.3437 24.9935 90.108 24.9742 89.879 25.0001C89.7744 25.123 89.7282 25.3018 89.6678 25.4495C89.5037 25.9076 89.3021 26.3519 89.1518 26.814C89.6084 26.8328 90.0664 26.8181 90.5234 26.8221C92.219 26.8262 93.9156 26.815 95.6112 26.8277C95.5396 27.0837 95.4482 27.331 95.3558 27.5793C95.3233 27.6595 95.2888 27.7509 95.2319 27.817C95.0201 27.8479 94.7992 27.8307 94.5859 27.8332C92.9102 27.8312 91.2344 27.8332 89.5586 27.8322C89.2935 27.8307 89.0284 27.8281 88.7634 27.8398C88.6308 28.1557 88.5201 28.4796 88.3962 28.7991C88.288 29.0824 88.1682 29.3602 88.0763 29.6496C88.3845 29.6679 88.6918 29.6608 89 29.6608C91.6239 29.6613 94.2472 29.6608 96.8711 29.6613C97.1509 29.6639 97.4297 29.6679 97.709 29.6415C98.5215 27.5351 99.3269 25.4333 100.136 23.3254C100.28 22.9506 100.438 22.5834 100.563 22.2016C97.1159 22.1945 93.6663 22.2021 90.2188 22.1975C90.0258 22.197 89.8267 22.1894 89.6358 22.2183ZM101.084 22.2005C101.303 22.5007 101.546 22.782 101.783 23.0694C101.841 23.1436 101.91 23.2233 101.942 23.3127C101.905 23.5427 101.786 23.7626 101.71 23.9825C101.304 25.0626 100.876 26.1341 100.473 27.2152C100.285 27.7174 100.082 28.2136 99.8926 28.7153C99.7763 29.0266 99.6437 29.3282 99.5544 29.6491C99.8448 29.6664 100.135 29.6618 100.426 29.6608C103.05 29.6608 105.673 29.6608 108.297 29.6608C108.581 29.6629 108.864 29.6664 109.147 29.6471C109.46 28.8839 109.745 28.1084 110.042 27.3386C110.644 25.7735 111.244 24.2074 111.846 22.6418C111.902 22.4966 111.954 22.3498 112.003 22.2021C108.364 22.196 104.723 22.199 101.084 22.2005ZM110.998 29.6491C111.638 29.674 112.279 29.6547 112.918 29.6608C113.322 29.6578 113.723 29.6715 114.127 29.6496C114.411 28.9732 114.648 28.277 114.919 27.5945C115.383 26.4123 115.819 25.217 116.291 24.0378C116.965 24.0246 117.643 24.0287 118.318 24.0358C118.266 24.2155 118.207 24.3918 118.137 24.5654C117.549 26.0635 116.989 27.5717 116.402 29.0707C116.327 29.2602 116.26 29.4521 116.202 29.6481C116.833 29.675 117.466 29.6547 118.098 29.6608C118.503 29.6568 118.904 29.6725 119.308 29.6496C119.55 29.0855 119.754 28.5045 119.981 27.9343C120.346 26.9506 120.736 25.9766 121.105 24.9945C121.228 24.6756 121.342 24.3537 121.475 24.0383C122.159 24.0226 122.845 24.0302 123.53 24.0348C123.384 24.4659 123.203 24.8848 123.047 25.3124C122.627 26.4291 122.186 27.5377 121.768 28.6554C121.642 28.9885 121.503 29.3099 121.394 29.6486C122.123 29.6766 122.853 29.6527 123.582 29.6608C123.896 29.6608 124.21 29.6705 124.524 29.6441C125.225 27.8032 125.938 25.9655 126.641 24.1246C126.877 23.4802 127.145 22.8475 127.377 22.2016C122.626 22.1945 117.872 22.2026 113.122 22.1975C112.946 22.2021 112.756 22.1787 112.585 22.2138C112.573 22.2584 112.629 22.3092 112.651 22.3438C112.827 22.5616 113.001 22.781 113.182 22.9943C113.261 23.0933 113.356 23.1959 113.405 23.3137C113.366 23.5518 113.24 23.7798 113.16 24.0073C112.441 25.8873 111.712 27.7682 110.998 29.6491ZM119.671 31.6956C119.49 31.7053 119.31 31.7215 119.132 31.7495C118.727 32.92 118.246 34.0514 117.625 35.1244C117.369 35.5575 117.119 36.0024 116.817 36.4056C116.809 36.2995 116.801 36.1933 116.793 36.0872C116.449 36.0714 116.106 36.0801 115.762 36.0791C113.494 36.078 111.225 36.0801 108.957 36.078C108.98 35.8125 109.054 35.5606 109.123 35.3041C109.429 34.0961 109.662 32.8712 109.839 31.6372C109.666 31.6276 109.495 31.6286 109.322 31.6408C109.088 33.1368 108.824 34.6115 108.388 36.0648C108.017 36.0928 107.652 36.075 107.281 36.0786C103.439 36.0791 99.5965 36.0786 95.7539 36.0786C95.467 36.0801 95.1801 36.0836 94.8937 36.0699C94.4636 34.615 94.1741 33.1414 93.9578 31.6413C93.7887 31.6286 93.6231 31.6286 93.4545 31.6398C93.5007 32.1318 93.5932 32.6112 93.6795 33.1023C93.8075 33.7792 93.9451 34.4551 94.105 35.1254C94.1807 35.4448 94.2848 35.7515 94.3341 36.077C92.0992 36.0811 89.8638 36.0775 87.6289 36.0791C87.2719 36.0806 86.9164 36.0704 86.5595 36.0872C86.5518 36.2268 86.5457 36.3665 86.5381 36.5056C85.7617 35.3981 85.1076 34.1905 84.6018 32.9362C84.42 32.5096 84.2794 32.0689 84.1169 31.6347C83.9808 31.6291 83.8427 31.6189 83.7066 31.6271C83.6253 31.6423 83.6116 31.6834 83.6324 31.7581C84.7633 35.3448 87.0058 38.5602 89.9623 40.8814C91.1963 41.8504 92.5506 42.6755 93.9877 43.3062C96.184 44.2894 98.5814 44.8282 100.984 44.9155C101.576 44.9216 102.171 44.9318 102.762 44.8952C105.457 44.7342 108.115 43.9954 110.499 42.7263C112.197 41.8214 113.744 40.6671 115.099 39.3016C117.184 37.1795 118.799 34.5439 119.671 31.6956Z" fill="black" stroke="black" stroke-width="17.7778"/>
<path d="M106.849 7.84974C109.651 8.647 112.252 10.11 114.399 12.0768C115.57 13.1396 116.582 14.3528 117.461 15.6645C117.7 16.0529 117.948 16.4368 118.169 16.835C118.689 17.8277 119.233 18.8957 119.534 19.9778C119.375 19.9748 119.19 19.9834 119.04 19.9275C118.981 19.8879 118.957 19.7975 118.928 19.7356C118.419 18.3335 117.737 17.002 116.909 15.7615C116.864 15.6985 116.813 15.6243 116.748 15.5807C116.592 15.5538 116.427 15.567 116.269 15.5654C113.785 15.5715 111.3 15.5609 108.816 15.571C109.124 16.6918 109.402 17.8196 109.606 18.9647C109.667 19.3258 109.746 19.6772 109.763 20.0438C109.6 20.0464 109.437 20.0464 109.274 20.0454C109.008 18.5311 108.742 17.0386 108.265 15.572C107.988 15.5639 107.711 15.5665 107.434 15.5675C103.574 15.5675 99.7148 15.5675 95.8554 15.5675C95.568 15.5665 95.2816 15.5614 94.9947 15.5771C94.6712 16.738 94.3675 17.9014 94.1695 19.0917C94.1157 19.4091 94.0725 19.7275 94.0055 20.0423C93.8298 20.0672 93.6683 20.0713 93.4921 20.0484C93.7257 18.5356 94.0385 17.0396 94.4655 15.5695C91.8209 15.5639 89.1741 15.5705 86.5289 15.5665C86.0912 16.157 85.722 16.802 85.3752 17.4494C84.8562 18.4158 84.4535 19.4223 84.1062 20.4613C84.0985 20.3348 84.0909 20.2079 84.0823 20.0814C83.9635 20.0636 83.8451 20.0454 83.7263 20.0271C83.966 19.2293 84.3078 18.4579 84.6683 17.7079C85.723 15.5588 87.1937 13.6093 88.9695 12.0041C91.244 9.94395 94.0263 8.44337 97.0051 7.69993C100.225 6.88286 103.654 6.93821 106.849 7.84974ZM95.1617 15.0612C99.2496 15.0683 103.345 15.0612 107.434 15.0647C107.654 15.0663 107.874 15.0663 108.095 15.0602C108.014 14.6966 107.875 14.3675 107.744 14.0095C107.117 12.3845 106.329 10.792 105.163 9.48083C104.574 8.81661 103.831 8.21993 102.998 7.89544C102.198 7.58161 101.298 7.55063 100.482 7.82536C99.4208 8.16509 98.5067 8.97911 97.8161 9.83173C96.5978 11.3389 95.7696 13.2331 95.1617 15.0612ZM86.922 15.0495C87.2267 15.0724 87.5273 15.0627 87.832 15.0632C89.7957 15.0632 91.7589 15.0637 93.7226 15.0632C94.0253 15.0642 94.3274 15.0708 94.6301 15.052C94.8027 14.5615 94.9459 14.0781 95.1425 13.5972C95.566 12.5414 96.0611 11.4821 96.6837 10.5279C97.2026 9.71645 97.8207 8.96083 98.5605 8.3413C98.7982 8.1397 99.0587 7.97466 99.308 7.78981C99.1562 7.80149 99.0054 7.81774 98.8551 7.8411C96.5562 8.19606 94.3203 8.98876 92.318 10.1735C90.4355 11.282 88.7557 12.7298 87.377 14.4239C87.2104 14.6229 87.0459 14.8195 86.922 15.0495ZM108.653 15.0551C108.941 15.0693 109.228 15.0642 109.516 15.0632C111.496 15.0632 113.477 15.0632 115.457 15.0632C115.761 15.0627 116.062 15.0729 116.365 15.05C116.314 14.9611 116.263 14.8733 116.204 14.7895C114.409 12.4718 112.066 10.5858 109.406 9.35032C107.78 8.58962 106.037 8.07419 104.26 7.81571C104.167 7.80352 104.074 7.7954 103.981 7.78931C104.201 7.97212 104.449 8.11583 104.669 8.29966C105.598 9.06442 106.321 10.0359 106.927 11.0688C107.577 12.1951 108.087 13.391 108.501 14.6219C108.55 14.7672 108.602 14.9109 108.653 15.0551Z" fill="black" stroke="#4678FF" stroke-width="17.7778"/>
<path d="M102.998 7.89549C103.831 8.21999 104.574 8.81667 105.163 9.48088C106.329 10.7921 107.117 12.3846 107.744 14.0096C107.875 14.3676 108.014 14.6966 108.095 15.0602C107.874 15.0663 107.654 15.0663 107.434 15.0648C103.345 15.0612 99.2496 15.0683 95.1617 15.0612C95.7696 13.2331 96.5978 11.339 97.8161 9.83178C98.5067 8.97917 99.4208 8.16514 100.482 7.82542C101.298 7.55069 102.198 7.58167 102.998 7.89549Z" fill="black" stroke="black" stroke-width="17.7778"/>
<path d="M99.3081 7.78986C99.0587 7.9747 98.7982 8.13974 98.5606 8.34134C97.8207 8.96087 97.2027 9.7165 96.6837 10.528C96.0611 11.4822 95.566 12.5415 95.1425 13.5972C94.9459 14.0781 94.8027 14.5615 94.6301 15.0521C94.3274 15.0709 94.0253 15.0643 93.7226 15.0633C91.7589 15.0638 89.7957 15.0633 87.832 15.0633C87.5273 15.0627 87.2267 15.0724 86.922 15.0495C87.0459 14.8195 87.2104 14.623 87.377 14.4239C88.7557 12.7299 90.4356 11.2821 92.318 10.1735C94.3203 8.9888 96.5562 8.19611 98.8551 7.84115C99.0054 7.81779 99.1562 7.80154 99.3081 7.78986Z" fill="black" stroke="black" stroke-width="17.7778"/>
<path d="M103.981 7.78931C104.074 7.7954 104.167 7.80353 104.26 7.81571C106.037 8.07419 107.78 8.58962 109.406 9.35032C112.066 10.5858 114.409 12.4718 116.205 14.7895C116.263 14.8733 116.314 14.9611 116.365 15.05C116.062 15.0729 115.761 15.0627 115.457 15.0632C113.477 15.0632 111.496 15.0632 109.516 15.0632C109.228 15.0642 108.941 15.0693 108.653 15.0551C108.602 14.9109 108.55 14.7672 108.502 14.6219C108.087 13.391 107.577 12.1951 106.927 11.0688C106.321 10.0359 105.598 9.06442 104.669 8.29966C104.449 8.11583 104.201 7.97212 103.981 7.78931Z" fill="black" stroke="black" stroke-width="17.7778"/>
<path d="M78.3218 22.2C81.9186 22.2 85.5566 22.1944 89.1493 22.2031C89.0305 22.5616 88.8812 22.9044 88.7477 23.2583C88.4333 24.0921 88.1139 24.9239 87.7894 25.7537C87.3563 26.9217 86.887 28.0754 86.4569 29.2444C86.4066 29.38 86.3513 29.5135 86.2949 29.6466C86.0116 29.6654 85.7287 29.6633 85.4454 29.6608C82.8215 29.6603 80.1981 29.6608 77.5743 29.6603C77.2701 29.6608 76.9664 29.6669 76.6622 29.6491C76.8745 29.0413 77.1279 28.4481 77.3498 27.8433C77.6448 27.8251 77.9394 27.8317 78.2344 27.8327C79.8086 27.8322 81.3829 27.8327 82.9571 27.8322C83.2562 27.8337 83.5543 27.8398 83.8529 27.8169C83.9798 27.4889 84.0976 27.1573 84.2104 26.8242C82.3878 26.8196 80.5648 26.8242 78.7422 26.8221C78.4056 26.8211 78.0709 26.8292 77.7342 26.8145C77.8739 26.4072 78.0491 26.0137 78.1989 25.61C78.275 25.4023 78.3553 25.1966 78.4477 24.9955C80.2042 24.9813 81.9623 24.9945 83.7188 24.9894C84.124 24.9854 84.5257 25.0021 84.9294 24.9783C85.062 24.6847 85.1762 24.3841 85.2849 24.0815C83.4756 24.0744 81.6647 24.0794 79.8554 24.0794C79.7843 24.0749 79.6995 24.0764 79.6345 24.0429C79.5354 23.9576 79.4588 23.8413 79.379 23.7377C79.0261 23.2583 78.6534 22.7942 78.2923 22.3224C78.2502 22.2625 78.2146 22.2005 78.3218 22.2Z" fill="black" stroke="#4678FF" stroke-width="17.7778"/>
<path d="M90.2188 22.1975C93.6663 22.2021 97.1159 22.1945 100.563 22.2016C100.438 22.5834 100.28 22.9506 100.136 23.3254C99.3269 25.4333 98.5215 27.5351 97.709 29.6415C97.4297 29.6679 97.1509 29.6639 96.8711 29.6613C94.2472 29.6608 91.6239 29.6613 89 29.6608C88.6918 29.6608 88.3845 29.6679 88.0763 29.6497C88.1682 29.3602 88.2881 29.0824 88.3962 28.7991C88.5201 28.4797 88.6308 28.1557 88.7634 27.8398C89.0284 27.8281 89.2935 27.8307 89.5586 27.8322C91.2344 27.8332 92.9102 27.8312 94.5859 27.8332C94.7992 27.8307 95.0201 27.8479 95.2319 27.817C95.2888 27.7509 95.3233 27.6595 95.3558 27.5793C95.4482 27.331 95.5396 27.0837 95.6112 26.8277C93.9156 26.815 92.219 26.8262 90.5234 26.8222C90.0664 26.8181 89.6084 26.8328 89.1518 26.814C89.3022 26.3519 89.5038 25.9076 89.6678 25.4495C89.7282 25.3018 89.7744 25.123 89.879 25.0001C90.1081 24.9742 90.3437 24.9935 90.5742 24.9905C92.1484 24.9905 93.7227 24.99 95.2969 24.99C95.6483 24.9884 95.9972 25.0011 96.3481 24.9768C96.4735 24.6807 96.5908 24.3831 96.702 24.0815C94.8952 24.0749 93.0879 24.0805 91.2811 24.0789C91.1846 24.0698 91.0673 24.0835 91.0018 23.9972C90.8403 23.8195 90.7063 23.6163 90.5565 23.4284C90.2553 23.0212 89.9268 22.6322 89.6358 22.2183C89.8267 22.1894 90.0258 22.197 90.2188 22.1975Z" fill="black" stroke="#4678FF" stroke-width="17.7778"/>
<path d="M101.084 22.2005C104.723 22.199 108.364 22.196 112.003 22.2021C111.954 22.3498 111.902 22.4966 111.846 22.6418C111.244 24.2074 110.644 25.7735 110.042 27.3386C109.745 28.1084 109.46 28.8839 109.147 29.6471C108.864 29.6664 108.581 29.6629 108.297 29.6608C105.673 29.6608 103.05 29.6608 100.426 29.6608C100.135 29.6618 99.8448 29.6664 99.5543 29.6491C99.6437 29.3282 99.7762 29.0266 99.8925 28.7153C100.082 28.2136 100.285 27.7174 100.472 27.2152C100.876 26.1341 101.304 25.0626 101.709 23.9825C101.786 23.7626 101.904 23.5427 101.942 23.3127C101.91 23.2233 101.841 23.1436 101.783 23.0694C101.545 22.782 101.303 22.5007 101.084 22.2005ZM103.383 27.822C103.988 27.8444 104.594 27.8261 105.199 27.8322C105.704 27.8271 106.21 27.8439 106.715 27.8225C106.819 27.5966 106.905 27.365 106.989 27.1319C107.3 26.3108 107.619 25.4927 107.936 24.6746C108.014 24.4806 108.086 24.2846 108.145 24.0845C107.181 24.0683 106.215 24.0861 105.25 24.0759C105.11 24.0774 104.962 24.0683 104.824 24.0977C104.777 24.1739 104.742 24.2607 104.709 24.344C104.336 25.3368 103.954 26.327 103.569 27.3152C103.503 27.4828 103.441 27.6514 103.383 27.822Z" fill="black" stroke="#4678FF" stroke-width="17.7778"/>
<path d="M112.585 22.2137C112.756 22.1787 112.946 22.202 113.122 22.1975C117.872 22.2026 122.626 22.1944 127.377 22.2015C127.145 22.8475 126.877 23.4802 126.641 24.1246C125.938 25.9654 125.225 27.8032 124.523 29.644C124.21 29.6704 123.896 29.6608 123.582 29.6608C122.853 29.6527 122.123 29.6765 121.394 29.6486C121.503 29.3099 121.642 28.9884 121.768 28.6553C122.186 27.5376 122.627 26.4291 123.047 25.3124C123.203 24.8848 123.384 24.4659 123.53 24.0347C122.845 24.0302 122.159 24.0226 121.475 24.0383C121.342 24.3536 121.228 24.6756 121.105 24.9945C120.736 25.9766 120.346 26.9506 119.981 27.9342C119.754 28.5045 119.55 29.0854 119.308 29.6496C118.904 29.6725 118.503 29.6567 118.098 29.6608C117.466 29.6547 116.833 29.675 116.202 29.6481C116.26 29.4521 116.327 29.2601 116.402 29.0707C116.989 27.5717 117.549 26.0634 118.137 24.5654C118.207 24.3917 118.266 24.2155 118.318 24.0358C117.643 24.0286 116.965 24.0246 116.291 24.0378C115.819 25.2169 115.383 26.4123 114.919 27.5945C114.648 28.277 114.411 28.9732 114.127 29.6496C113.723 29.6715 113.322 29.6577 112.918 29.6608C112.279 29.6547 111.638 29.674 110.998 29.6491C111.712 27.7682 112.441 25.8872 113.16 24.0073C113.24 23.7798 113.366 23.5518 113.405 23.3136C113.356 23.1958 113.261 23.0933 113.182 22.9942C113.001 22.7809 112.827 22.5616 112.651 22.3437C112.629 22.3092 112.573 22.2584 112.585 22.2137Z" fill="black" stroke="#4678FF" stroke-width="17.7778"/>
<path d="M104.824 24.0977C104.962 24.0683 105.11 24.0774 105.25 24.0759C106.215 24.086 107.181 24.0683 108.146 24.0845C108.086 24.2846 108.014 24.4806 107.936 24.6746C107.619 25.4927 107.301 26.3108 106.989 27.1319C106.905 27.365 106.819 27.5966 106.715 27.8225C106.21 27.8439 105.705 27.8271 105.199 27.8322C104.594 27.8261 103.988 27.8444 103.383 27.822C103.441 27.6514 103.503 27.4828 103.569 27.3152C103.954 26.327 104.336 25.3368 104.709 24.344C104.742 24.2607 104.777 24.1739 104.824 24.0977Z" fill="black" stroke="black" stroke-width="17.7778"/>
<path d="M83.7066 31.6271C83.8427 31.6189 83.9808 31.6291 84.1169 31.6347C84.2794 32.0689 84.4201 32.5096 84.6019 32.9362C85.1076 34.1905 85.7617 35.3981 86.5381 36.5056C86.5458 36.3665 86.5519 36.2268 86.5595 36.0872C86.9165 36.0704 87.2719 36.0806 87.6289 36.079C89.8638 36.0775 92.0992 36.0811 94.3341 36.077C94.2848 35.7515 94.1807 35.4448 94.1051 35.1254C93.9451 34.4551 93.8075 33.7792 93.6795 33.1023C93.5932 32.6112 93.5008 32.1318 93.4546 31.6398C93.6231 31.6286 93.7887 31.6286 93.9578 31.6413C94.1741 33.1414 94.4636 34.615 94.8937 36.0699C95.1801 36.0836 95.467 36.0801 95.7539 36.0785C99.5965 36.0785 103.439 36.079 107.281 36.0785C107.652 36.075 108.017 36.0928 108.388 36.0648C108.824 34.6115 109.088 33.1368 109.322 31.6408C109.495 31.6286 109.666 31.6276 109.839 31.6372C109.662 32.8712 109.429 34.096 109.123 35.3041C109.054 35.5606 108.98 35.8124 108.957 36.078C111.225 36.0801 113.494 36.078 115.762 36.079C116.106 36.0801 116.449 36.0714 116.793 36.0872C116.801 36.1933 116.809 36.2994 116.817 36.4056C117.119 36.0024 117.369 35.5575 117.625 35.1244C118.246 34.0514 118.727 32.9199 119.132 31.7494C119.31 31.7215 119.49 31.7053 119.671 31.6956C118.799 34.5439 117.184 37.1795 115.099 39.3016C113.744 40.6671 112.197 41.8214 110.499 42.7263C108.115 43.9953 105.457 44.7342 102.762 44.8952C102.171 44.9317 101.576 44.9216 100.984 44.9155C98.5814 44.8282 96.184 44.2894 93.9878 43.3062C92.5506 42.6755 91.1963 41.8503 89.9623 40.8814C87.0058 38.5602 84.7633 35.3448 83.6324 31.7581C83.6116 31.6834 83.6253 31.6423 83.7066 31.6271ZM86.6306 36.6026C86.8322 36.9682 87.1191 37.2983 87.3786 37.6253C89.3565 40.0593 91.9601 41.9732 94.8764 43.1275C96.3232 43.6907 97.8116 44.0939 99.3569 44.2655C98.4027 43.6825 97.641 42.8782 96.996 41.9732C96.0358 40.6118 95.3289 39.0447 94.7926 37.4725C94.6896 37.179 94.6144 36.8799 94.4935 36.5924C92.1546 36.5889 89.8156 36.593 87.4766 36.5904C87.1937 36.5899 86.9129 36.5848 86.6306 36.6026ZM95.0694 36.5996C95.1694 37.0673 95.3497 37.5217 95.5142 37.9701C96.117 39.5677 96.9229 41.1963 98.0543 42.4882C98.7744 43.3032 99.693 44.0375 100.771 44.2934C101.557 44.4971 102.382 44.4016 103.126 44.0883C104.013 43.7176 104.78 43.0198 105.393 42.2916C106.465 40.9926 107.221 39.422 107.809 37.8518C107.953 37.44 108.12 37.0256 108.216 36.6006C107.887 36.5823 107.56 36.5914 107.23 36.5914C103.473 36.5909 99.7149 36.5914 95.9571 36.5909C95.661 36.5909 95.3655 36.5853 95.0694 36.5996ZM103.934 44.267C108.137 43.7704 112.111 41.7325 115.008 38.6516C115.5 38.1423 115.951 37.5908 116.38 37.0282C116.484 36.8936 116.575 36.7509 116.659 36.6031C116.545 36.5965 116.433 36.5914 116.319 36.5899C114.035 36.5924 111.75 36.5914 109.465 36.5904C109.249 36.594 109.026 36.5732 108.812 36.6062C108.747 36.6397 108.728 36.7443 108.7 36.8078C108.258 38.2332 107.701 39.6155 106.959 40.9129C106.358 41.9417 105.662 42.903 104.744 43.6739C104.488 43.8938 104.207 44.0715 103.934 44.267Z" fill="black" stroke="#4678FF" stroke-width="17.7778"/>
<path d="M86.6305 36.6026C86.9128 36.5849 87.1937 36.5899 87.4765 36.5904C89.8155 36.593 92.1545 36.5889 94.4935 36.5925C94.6143 36.8799 94.6895 37.179 94.7926 37.4725C95.3288 39.0447 96.0357 40.6118 96.996 41.9733C97.6409 42.8782 98.4026 43.6826 99.3568 44.2655C97.8115 44.0939 96.3231 43.6907 94.8764 43.1275C91.96 41.9733 89.3564 40.0593 87.3785 37.6254C87.119 37.2983 86.8321 36.9683 86.6305 36.6026Z" fill="black" stroke="black" stroke-width="17.7778"/>
<path d="M95.0693 36.5996C95.3654 36.5854 95.6609 36.5909 95.957 36.5909C99.7148 36.5915 103.473 36.5909 107.23 36.5915C107.559 36.5915 107.887 36.5823 108.216 36.6006C108.12 37.0256 107.953 37.44 107.809 37.8518C107.221 39.422 106.465 40.9927 105.393 42.2917C104.78 43.0199 104.013 43.7176 103.126 44.0883C102.382 44.4016 101.557 44.4971 100.771 44.2934C99.693 44.0375 98.7743 43.3032 98.0543 42.4882C96.9229 41.1963 96.117 39.5677 95.5142 37.9702C95.3496 37.5218 95.1694 37.0673 95.0693 36.5996Z" fill="black" stroke="black" stroke-width="17.7778"/>
<path d="M108.812 36.6062C109.026 36.5732 109.249 36.594 109.465 36.5904C111.749 36.5915 114.035 36.5925 116.319 36.5899C116.433 36.5915 116.545 36.5965 116.658 36.6031C116.575 36.7509 116.484 36.8936 116.38 37.0282C115.951 37.5908 115.5 38.1423 115.008 38.6517C112.111 41.7325 108.137 43.7704 103.934 44.267C104.207 44.0715 104.488 43.8938 104.744 43.6739C105.662 42.9031 106.358 41.9418 106.959 40.9129C107.701 39.6155 108.258 38.2332 108.7 36.8078C108.728 36.7443 108.747 36.6397 108.812 36.6062Z" fill="black" stroke="black" stroke-width="17.7778"/>
<path d="M76 0H128V52H76V0ZM83.7264 20.0271C83.8452 20.0454 83.9635 20.0637 84.0823 20.0814C84.091 20.2079 84.0986 20.3348 84.1062 20.4613C84.4536 19.4223 84.8562 18.4158 85.3752 17.4495C85.7221 16.802 86.0912 16.1571 86.529 15.5665C89.1742 15.5705 91.8209 15.5639 94.4656 15.5695C94.0385 17.0396 93.7257 18.5357 93.4921 20.0484C93.6683 20.0713 93.8298 20.0672 94.0055 20.0423C94.0725 19.7275 94.1157 19.4091 94.1695 19.0917C94.3676 17.9014 94.6712 16.738 94.9947 15.5771C95.2816 15.5614 95.568 15.5665 95.8555 15.5675C99.7148 15.5675 103.574 15.5675 107.434 15.5675C107.711 15.5665 107.988 15.5639 108.265 15.5721C108.742 17.0386 109.008 18.5311 109.274 20.0454C109.437 20.0464 109.6 20.0464 109.763 20.0439C109.746 19.6772 109.667 19.3258 109.606 18.9648C109.402 17.8196 109.124 16.6918 108.816 15.5711C111.3 15.5609 113.785 15.5716 116.269 15.5655C116.427 15.567 116.592 15.5538 116.748 15.5807C116.813 15.6244 116.864 15.6985 116.909 15.7615C117.737 17.0021 118.419 18.3336 118.928 19.7356C118.957 19.7976 118.981 19.888 119.04 19.9276C119.19 19.9834 119.375 19.9748 119.534 19.9779C119.233 18.8957 118.689 17.8278 118.169 16.835C117.948 16.4369 117.7 16.053 117.461 15.6645C116.582 14.3528 115.57 13.1396 114.399 12.0768C112.252 10.11 109.651 8.64703 106.849 7.84977C103.654 6.93824 100.225 6.88289 97.0052 7.69996C94.0263 8.4434 91.244 9.94398 88.9695 12.0042C87.1937 13.6094 85.7231 15.5589 84.6684 17.7079C84.3078 18.458 83.9661 19.2293 83.7264 20.0271ZM85.2848 24.0815C85.1762 24.3841 85.0619 24.6848 84.9294 24.9783C84.5257 25.0021 84.124 24.9854 83.7188 24.9895C81.9622 24.9945 80.2042 24.9813 78.4477 24.9955C78.3552 25.1966 78.275 25.4023 78.1988 25.61C78.049 26.0137 77.8738 26.4073 77.7342 26.8145C78.0709 26.8293 78.4055 26.8211 78.7422 26.8221C80.5647 26.8242 82.3878 26.8196 84.2103 26.8242C84.0976 27.1573 83.9798 27.4889 83.8528 27.817C83.5542 27.8398 83.2561 27.8337 82.957 27.8322C81.3828 27.8327 79.8086 27.8322 78.2344 27.8327C77.9393 27.8317 77.6448 27.8251 77.3498 27.8434C77.1279 28.4482 76.8745 29.0413 76.6622 29.6491C76.9664 29.6669 77.27 29.6608 77.5742 29.6603C80.1981 29.6608 82.8214 29.6603 85.4453 29.6608C85.7287 29.6634 86.0115 29.6654 86.2949 29.6466C86.3512 29.5136 86.4066 29.38 86.4569 29.2444C86.887 28.0754 87.3562 26.9217 87.7894 25.7537C88.1139 24.9239 88.4333 24.0921 88.7476 23.2583C88.8812 22.9044 89.0305 22.5616 89.1493 22.2031C85.5565 22.1945 81.9186 22.2 78.3217 22.2C78.2146 22.2005 78.2501 22.2625 78.2923 22.3224C78.6533 22.7942 79.0261 23.2583 79.379 23.7377C79.4587 23.8413 79.5354 23.9576 79.6344 24.0429C79.6994 24.0764 79.7842 24.0749 79.8553 24.0795C81.6646 24.0795 83.4755 24.0744 85.2848 24.0815ZM89.6358 22.2183C89.9268 22.6322 90.2553 23.0212 90.5564 23.4284C90.7062 23.6163 90.8403 23.8195 91.0018 23.9972C91.0673 24.0835 91.1846 24.0698 91.2811 24.0789C93.0879 24.0805 94.8952 24.0749 96.702 24.0815C96.5908 24.3831 96.4735 24.6807 96.348 24.9768C95.9971 25.0011 95.6483 24.9884 95.2969 24.99C93.7227 24.99 92.1484 24.9905 90.5742 24.9905C90.3437 24.9935 90.108 24.9742 89.879 25.0001C89.7744 25.123 89.7282 25.3018 89.6678 25.4495C89.5037 25.9076 89.3021 26.3519 89.1518 26.814C89.6084 26.8328 90.0664 26.8181 90.5234 26.8221C92.219 26.8262 93.9156 26.815 95.6112 26.8277C95.5396 27.0837 95.4482 27.331 95.3558 27.5793C95.3233 27.6595 95.2888 27.7509 95.2319 27.817C95.0201 27.8479 94.7992 27.8307 94.5859 27.8332C92.9102 27.8312 91.2344 27.8332 89.5586 27.8322C89.2935 27.8307 89.0284 27.8281 88.7634 27.8398C88.6308 28.1557 88.5201 28.4796 88.3962 28.7991C88.288 29.0824 88.1682 29.3602 88.0763 29.6496C88.3845 29.6679 88.6918 29.6608 89 29.6608C91.6239 29.6613 94.2472 29.6608 96.8711 29.6613C97.1509 29.6639 97.4297 29.6679 97.709 29.6415C98.5215 27.5351 99.3269 25.4333 100.136 23.3254C100.28 22.9506 100.438 22.5834 100.563 22.2016C97.1159 22.1945 93.6663 22.2021 90.2188 22.1975C90.0258 22.197 89.8267 22.1894 89.6358 22.2183ZM101.084 22.2005C101.303 22.5007 101.546 22.782 101.783 23.0694C101.841 23.1436 101.91 23.2233 101.942 23.3127C101.905 23.5427 101.786 23.7626 101.71 23.9825C101.304 25.0626 100.876 26.1341 100.473 27.2152C100.285 27.7174 100.082 28.2136 99.8926 28.7153C99.7763 29.0266 99.6437 29.3282 99.5544 29.6491C99.8448 29.6664 100.135 29.6618 100.426 29.6608C103.05 29.6608 105.673 29.6608 108.297 29.6608C108.581 29.6629 108.864 29.6664 109.147 29.6471C109.46 28.8839 109.745 28.1084 110.042 27.3386C110.644 25.7735 111.244 24.2074 111.846 22.6418C111.902 22.4966 111.954 22.3498 112.003 22.2021C108.364 22.196 104.723 22.199 101.084 22.2005ZM110.998 29.6491C111.638 29.674 112.279 29.6547 112.918 29.6608C113.322 29.6578 113.723 29.6715 114.127 29.6496C114.411 28.9732 114.648 28.277 114.919 27.5945C115.383 26.4123 115.819 25.217 116.291 24.0378C116.965 24.0246 117.643 24.0287 118.318 24.0358C118.266 24.2155 118.207 24.3918 118.137 24.5654C117.549 26.0635 116.989 27.5717 116.402 29.0707C116.327 29.2602 116.26 29.4521 116.202 29.6481C116.833 29.675 117.466 29.6547 118.098 29.6608C118.503 29.6568 118.904 29.6725 119.308 29.6496C119.55 29.0855 119.754 28.5045 119.981 27.9343C120.346 26.9506 120.736 25.9766 121.105 24.9945C121.228 24.6756 121.342 24.3537 121.475 24.0383C122.159 24.0226 122.845 24.0302 123.53 24.0348C123.384 24.4659 123.203 24.8848 123.047 25.3124C122.627 26.4291 122.186 27.5377 121.768 28.6554C121.642 28.9885 121.503 29.3099 121.394 29.6486C122.123 29.6766 122.853 29.6527 123.582 29.6608C123.896 29.6608 124.21 29.6705 124.524 29.6441C125.225 27.8032 125.938 25.9655 126.641 24.1246C126.877 23.4802 127.145 22.8475 127.377 22.2016C122.626 22.1945 117.872 22.2026 113.122 22.1975C112.946 22.2021 112.756 22.1787 112.585 22.2138C112.573 22.2584 112.629 22.3092 112.651 22.3438C112.827 22.5616 113.001 22.781 113.182 22.9943C113.261 23.0933 113.356 23.1959 113.405 23.3137C113.366 23.5518 113.24 23.7798 113.16 24.0073C112.441 25.8873 111.712 27.7682 110.998 29.6491ZM119.671 31.6956C119.49 31.7053 119.31 31.7215 119.132 31.7495C118.727 32.92 118.246 34.0514 117.625 35.1244C117.369 35.5575 117.119 36.0024 116.817 36.4056C116.809 36.2995 116.801 36.1933 116.793 36.0872C116.449 36.0714 116.106 36.0801 115.762 36.0791C113.494 36.078 111.225 36.0801 108.957 36.078C108.98 35.8125 109.054 35.5606 109.123 35.3041C109.429 34.0961 109.662 32.8712 109.839 31.6372C109.666 31.6276 109.495 31.6286 109.322 31.6408C109.088 33.1368 108.824 34.6115 108.388 36.0648C108.017 36.0928 107.652 36.075 107.281 36.0786C103.439 36.0791 99.5965 36.0786 95.7539 36.0786C95.467 36.0801 95.1801 36.0836 94.8937 36.0699C94.4636 34.615 94.1741 33.1414 93.9578 31.6413C93.7887 31.6286 93.6231 31.6286 93.4545 31.6398C93.5007 32.1318 93.5932 32.6112 93.6795 33.1023C93.8075 33.7792 93.9451 34.4551 94.105 35.1254C94.1807 35.4448 94.2848 35.7515 94.3341 36.077C92.0992 36.0811 89.8638 36.0775 87.6289 36.0791C87.2719 36.0806 86.9164 36.0704 86.5595 36.0872C86.5518 36.2268 86.5457 36.3665 86.5381 36.5056C85.7617 35.3981 85.1076 34.1905 84.6018 32.9362C84.42 32.5096 84.2794 32.0689 84.1169 31.6347C83.9808 31.6291 83.8427 31.6189 83.7066 31.6271C83.6253 31.6423 83.6116 31.6834 83.6324 31.7581C84.7633 35.3448 87.0058 38.5602 89.9623 40.8814C91.1963 41.8504 92.5506 42.6755 93.9877 43.3062C96.184 44.2894 98.5814 44.8282 100.984 44.9155C101.576 44.9216 102.171 44.9318 102.762 44.8952C105.457 44.7342 108.115 43.9954 110.499 42.7263C112.197 41.8214 113.744 40.6671 115.099 39.3016C117.184 37.1795 118.799 34.5439 119.671 31.6956Z" fill="black"/>
<path d="M106.849 7.84974C109.651 8.647 112.252 10.11 114.399 12.0768C115.57 13.1396 116.582 14.3528 117.461 15.6645C117.7 16.0529 117.948 16.4368 118.169 16.835C118.689 17.8277 119.233 18.8957 119.534 19.9778C119.375 19.9748 119.19 19.9834 119.04 19.9275C118.981 19.8879 118.957 19.7975 118.928 19.7356C118.419 18.3335 117.737 17.002 116.909 15.7615C116.864 15.6985 116.813 15.6243 116.748 15.5807C116.592 15.5538 116.427 15.567 116.269 15.5654C113.785 15.5715 111.3 15.5609 108.816 15.571C109.124 16.6918 109.402 17.8196 109.606 18.9647C109.667 19.3258 109.746 19.6772 109.763 20.0438C109.6 20.0464 109.437 20.0464 109.274 20.0454C109.008 18.5311 108.742 17.0386 108.265 15.572C107.988 15.5639 107.711 15.5665 107.434 15.5675C103.574 15.5675 99.7148 15.5675 95.8554 15.5675C95.568 15.5665 95.2816 15.5614 94.9947 15.5771C94.6712 16.738 94.3675 17.9014 94.1695 19.0917C94.1157 19.4091 94.0725 19.7275 94.0055 20.0423C93.8298 20.0672 93.6683 20.0713 93.4921 20.0484C93.7257 18.5356 94.0385 17.0396 94.4655 15.5695C91.8209 15.5639 89.1741 15.5705 86.5289 15.5665C86.0912 16.157 85.722 16.802 85.3752 17.4494C84.8562 18.4158 84.4535 19.4223 84.1062 20.4613C84.0985 20.3348 84.0909 20.2079 84.0823 20.0814C83.9635 20.0636 83.8451 20.0454 83.7263 20.0271C83.966 19.2293 84.3078 18.4579 84.6683 17.7079C85.723 15.5588 87.1937 13.6093 88.9695 12.0041C91.244 9.94395 94.0263 8.44337 97.0051 7.69993C100.225 6.88286 103.654 6.93821 106.849 7.84974ZM95.1617 15.0612C99.2496 15.0683 103.345 15.0612 107.434 15.0647C107.654 15.0663 107.874 15.0663 108.095 15.0602C108.014 14.6966 107.875 14.3675 107.744 14.0095C107.117 12.3845 106.329 10.792 105.163 9.48083C104.574 8.81661 103.831 8.21993 102.998 7.89544C102.198 7.58161 101.298 7.55063 100.482 7.82536C99.4208 8.16509 98.5067 8.97911 97.8161 9.83173C96.5978 11.3389 95.7696 13.2331 95.1617 15.0612ZM86.922 15.0495C87.2267 15.0724 87.5273 15.0627 87.832 15.0632C89.7957 15.0632 91.7589 15.0637 93.7226 15.0632C94.0253 15.0642 94.3274 15.0708 94.6301 15.052C94.8027 14.5615 94.9459 14.0781 95.1425 13.5972C95.566 12.5414 96.0611 11.4821 96.6837 10.5279C97.2026 9.71645 97.8207 8.96083 98.5605 8.3413C98.7982 8.1397 99.0587 7.97466 99.308 7.78981C99.1562 7.80149 99.0054 7.81774 98.8551 7.8411C96.5562 8.19606 94.3203 8.98876 92.318 10.1735C90.4355 11.282 88.7557 12.7298 87.377 14.4239C87.2104 14.6229 87.0459 14.8195 86.922 15.0495ZM108.653 15.0551C108.941 15.0693 109.228 15.0642 109.516 15.0632C111.496 15.0632 113.477 15.0632 115.457 15.0632C115.761 15.0627 116.062 15.0729 116.365 15.05C116.314 14.9611 116.263 14.8733 116.204 14.7895C114.409 12.4718 112.066 10.5858 109.406 9.35032C107.78 8.58962 106.037 8.07419 104.26 7.81571C104.167 7.80352 104.074 7.7954 103.981 7.78931C104.201 7.97212 104.449 8.11583 104.669 8.29966C105.598 9.06442 106.321 10.0359 106.927 11.0688C107.577 12.1951 108.087 13.391 108.501 14.6219C108.55 14.7672 108.602 14.9109 108.653 15.0551Z" fill="#4678FF"/>
<path d="M102.998 7.89549C103.831 8.21999 104.574 8.81667 105.163 9.48088C106.329 10.7921 107.117 12.3846 107.744 14.0096C107.875 14.3676 108.014 14.6966 108.095 15.0602C107.874 15.0663 107.654 15.0663 107.434 15.0648C103.345 15.0612 99.2496 15.0683 95.1617 15.0612C95.7696 13.2331 96.5978 11.339 97.8161 9.83178C98.5067 8.97917 99.4208 8.16514 100.482 7.82542C101.298 7.55069 102.198 7.58167 102.998 7.89549Z" fill="black"/>
<path d="M99.3081 7.78986C99.0587 7.9747 98.7982 8.13974 98.5606 8.34134C97.8207 8.96087 97.2027 9.7165 96.6837 10.528C96.0611 11.4822 95.566 12.5415 95.1425 13.5972C94.9459 14.0781 94.8027 14.5615 94.6301 15.0521C94.3274 15.0709 94.0253 15.0643 93.7226 15.0633C91.7589 15.0638 89.7957 15.0633 87.832 15.0633C87.5273 15.0627 87.2267 15.0724 86.922 15.0495C87.0459 14.8195 87.2104 14.623 87.377 14.4239C88.7557 12.7299 90.4356 11.2821 92.318 10.1735C94.3203 8.9888 96.5562 8.19611 98.8551 7.84115C99.0054 7.81779 99.1562 7.80154 99.3081 7.78986Z" fill="black"/>
<path d="M103.981 7.78931C104.074 7.7954 104.167 7.80353 104.26 7.81571C106.037 8.07419 107.78 8.58962 109.406 9.35032C112.066 10.5858 114.409 12.4718 116.205 14.7895C116.263 14.8733 116.314 14.9611 116.365 15.05C116.062 15.0729 115.761 15.0627 115.457 15.0632C113.477 15.0632 111.496 15.0632 109.516 15.0632C109.228 15.0642 108.941 15.0693 108.653 15.0551C108.602 14.9109 108.55 14.7672 108.502 14.6219C108.087 13.391 107.577 12.1951 106.927 11.0688C106.321 10.0359 105.598 9.06442 104.669 8.29966C104.449 8.11583 104.201 7.97212 103.981 7.78931Z" fill="black"/>
<path d="M78.3218 22.2C81.9186 22.2 85.5566 22.1944 89.1493 22.2031C89.0305 22.5616 88.8812 22.9044 88.7477 23.2583C88.4333 24.0921 88.1139 24.9239 87.7894 25.7537C87.3563 26.9217 86.887 28.0754 86.4569 29.2444C86.4066 29.38 86.3513 29.5135 86.2949 29.6466C86.0116 29.6654 85.7287 29.6633 85.4454 29.6608C82.8215 29.6603 80.1981 29.6608 77.5743 29.6603C77.2701 29.6608 76.9664 29.6669 76.6622 29.6491C76.8745 29.0413 77.1279 28.4481 77.3498 27.8433C77.6448 27.8251 77.9394 27.8317 78.2344 27.8327C79.8086 27.8322 81.3829 27.8327 82.9571 27.8322C83.2562 27.8337 83.5543 27.8398 83.8529 27.8169C83.9798 27.4889 84.0976 27.1573 84.2104 26.8242C82.3878 26.8196 80.5648 26.8242 78.7422 26.8221C78.4056 26.8211 78.0709 26.8292 77.7342 26.8145C77.8739 26.4072 78.0491 26.0137 78.1989 25.61C78.275 25.4023 78.3553 25.1966 78.4477 24.9955C80.2042 24.9813 81.9623 24.9945 83.7188 24.9894C84.124 24.9854 84.5257 25.0021 84.9294 24.9783C85.062 24.6847 85.1762 24.3841 85.2849 24.0815C83.4756 24.0744 81.6647 24.0794 79.8554 24.0794C79.7843 24.0749 79.6995 24.0764 79.6345 24.0429C79.5354 23.9576 79.4588 23.8413 79.379 23.7377C79.0261 23.2583 78.6534 22.7942 78.2923 22.3224C78.2502 22.2625 78.2146 22.2005 78.3218 22.2Z" fill="#4678FF"/>
<path d="M90.2188 22.1975C93.6663 22.2021 97.1159 22.1945 100.563 22.2016C100.438 22.5834 100.28 22.9506 100.136 23.3254C99.3269 25.4333 98.5215 27.5351 97.709 29.6415C97.4297 29.6679 97.1509 29.6639 96.8711 29.6613C94.2472 29.6608 91.6239 29.6613 89 29.6608C88.6918 29.6608 88.3845 29.6679 88.0763 29.6497C88.1682 29.3602 88.2881 29.0824 88.3962 28.7991C88.5201 28.4797 88.6308 28.1557 88.7634 27.8398C89.0284 27.8281 89.2935 27.8307 89.5586 27.8322C91.2344 27.8332 92.9102 27.8312 94.5859 27.8332C94.7992 27.8307 95.0201 27.8479 95.2319 27.817C95.2888 27.7509 95.3233 27.6595 95.3558 27.5793C95.4482 27.331 95.5396 27.0837 95.6112 26.8277C93.9156 26.815 92.219 26.8262 90.5234 26.8222C90.0664 26.8181 89.6084 26.8328 89.1518 26.814C89.3022 26.3519 89.5038 25.9076 89.6678 25.4495C89.7282 25.3018 89.7744 25.123 89.879 25.0001C90.1081 24.9742 90.3437 24.9935 90.5742 24.9905C92.1484 24.9905 93.7227 24.99 95.2969 24.99C95.6483 24.9884 95.9972 25.0011 96.3481 24.9768C96.4735 24.6807 96.5908 24.3831 96.702 24.0815C94.8952 24.0749 93.0879 24.0805 91.2811 24.0789C91.1846 24.0698 91.0673 24.0835 91.0018 23.9972C90.8403 23.8195 90.7063 23.6163 90.5565 23.4284C90.2553 23.0212 89.9268 22.6322 89.6358 22.2183C89.8267 22.1894 90.0258 22.197 90.2188 22.1975Z" fill="#4678FF"/>
<path d="M101.084 22.2005C104.723 22.199 108.364 22.196 112.003 22.2021C111.954 22.3498 111.902 22.4966 111.846 22.6418C111.244 24.2074 110.644 25.7735 110.042 27.3386C109.745 28.1084 109.46 28.8839 109.147 29.6471C108.864 29.6664 108.581 29.6629 108.297 29.6608C105.673 29.6608 103.05 29.6608 100.426 29.6608C100.135 29.6618 99.8448 29.6664 99.5543 29.6491C99.6437 29.3282 99.7762 29.0266 99.8925 28.7153C100.082 28.2136 100.285 27.7174 100.472 27.2152C100.876 26.1341 101.304 25.0626 101.709 23.9825C101.786 23.7626 101.904 23.5427 101.942 23.3127C101.91 23.2233 101.841 23.1436 101.783 23.0694C101.545 22.782 101.303 22.5007 101.084 22.2005ZM103.383 27.822C103.988 27.8444 104.594 27.8261 105.199 27.8322C105.704 27.8271 106.21 27.8439 106.715 27.8225C106.819 27.5966 106.905 27.365 106.989 27.1319C107.3 26.3108 107.619 25.4927 107.936 24.6746C108.014 24.4806 108.086 24.2846 108.145 24.0845C107.181 24.0683 106.215 24.0861 105.25 24.0759C105.11 24.0774 104.962 24.0683 104.824 24.0977C104.777 24.1739 104.742 24.2607 104.709 24.344C104.336 25.3368 103.954 26.327 103.569 27.3152C103.503 27.4828 103.441 27.6514 103.383 27.822Z" fill="#4678FF"/>
<path d="M112.585 22.2137C112.756 22.1787 112.946 22.202 113.122 22.1975C117.872 22.2026 122.626 22.1944 127.377 22.2015C127.145 22.8475 126.877 23.4802 126.641 24.1246C125.938 25.9654 125.225 27.8032 124.523 29.644C124.21 29.6704 123.896 29.6608 123.582 29.6608C122.853 29.6527 122.123 29.6765 121.394 29.6486C121.503 29.3099 121.642 28.9884 121.768 28.6553C122.186 27.5376 122.627 26.4291 123.047 25.3124C123.203 24.8848 123.384 24.4659 123.53 24.0347C122.845 24.0302 122.159 24.0226 121.475 24.0383C121.342 24.3536 121.228 24.6756 121.105 24.9945C120.736 25.9766 120.346 26.9506 119.981 27.9342C119.754 28.5045 119.55 29.0854 119.308 29.6496C118.904 29.6725 118.503 29.6567 118.098 29.6608C117.466 29.6547 116.833 29.675 116.202 29.6481C116.26 29.4521 116.327 29.2601 116.402 29.0707C116.989 27.5717 117.549 26.0634 118.137 24.5654C118.207 24.3917 118.266 24.2155 118.318 24.0358C117.643 24.0286 116.965 24.0246 116.291 24.0378C115.819 25.2169 115.383 26.4123 114.919 27.5945C114.648 28.277 114.411 28.9732 114.127 29.6496C113.723 29.6715 113.322 29.6577 112.918 29.6608C112.279 29.6547 111.638 29.674 110.998 29.6491C111.712 27.7682 112.441 25.8872 113.16 24.0073C113.24 23.7798 113.366 23.5518 113.405 23.3136C113.356 23.1958 113.261 23.0933 113.182 22.9942C113.001 22.7809 112.827 22.5616 112.651 22.3437C112.629 22.3092 112.573 22.2584 112.585 22.2137Z" fill="#4678FF"/>
<path d="M104.824 24.0977C104.962 24.0683 105.11 24.0774 105.25 24.0759C106.215 24.086 107.181 24.0683 108.146 24.0845C108.086 24.2846 108.014 24.4806 107.936 24.6746C107.619 25.4927 107.301 26.3108 106.989 27.1319C106.905 27.365 106.819 27.5966 106.715 27.8225C106.21 27.8439 105.705 27.8271 105.199 27.8322C104.594 27.8261 103.988 27.8444 103.383 27.822C103.441 27.6514 103.503 27.4828 103.569 27.3152C103.954 26.327 104.336 25.3368 104.709 24.344C104.742 24.2607 104.777 24.1739 104.824 24.0977Z" fill="black"/>
<path d="M83.7066 31.6271C83.8427 31.6189 83.9808 31.6291 84.1169 31.6347C84.2794 32.0689 84.4201 32.5096 84.6019 32.9362C85.1076 34.1905 85.7617 35.3981 86.5381 36.5056C86.5458 36.3665 86.5519 36.2268 86.5595 36.0872C86.9165 36.0704 87.2719 36.0806 87.6289 36.079C89.8638 36.0775 92.0992 36.0811 94.3341 36.077C94.2848 35.7515 94.1807 35.4448 94.1051 35.1254C93.9451 34.4551 93.8075 33.7792 93.6795 33.1023C93.5932 32.6112 93.5008 32.1318 93.4546 31.6398C93.6231 31.6286 93.7887 31.6286 93.9578 31.6413C94.1741 33.1414 94.4636 34.615 94.8937 36.0699C95.1801 36.0836 95.467 36.0801 95.7539 36.0785C99.5965 36.0785 103.439 36.079 107.281 36.0785C107.652 36.075 108.017 36.0928 108.388 36.0648C108.824 34.6115 109.088 33.1368 109.322 31.6408C109.495 31.6286 109.666 31.6276 109.839 31.6372C109.662 32.8712 109.429 34.096 109.123 35.3041C109.054 35.5606 108.98 35.8124 108.957 36.078C111.225 36.0801 113.494 36.078 115.762 36.079C116.106 36.0801 116.449 36.0714 116.793 36.0872C116.801 36.1933 116.809 36.2994 116.817 36.4056C117.119 36.0024 117.369 35.5575 117.625 35.1244C118.246 34.0514 118.727 32.9199 119.132 31.7494C119.31 31.7215 119.49 31.7053 119.671 31.6956C118.799 34.5439 117.184 37.1795 115.099 39.3016C113.744 40.6671 112.197 41.8214 110.499 42.7263C108.115 43.9953 105.457 44.7342 102.762 44.8952C102.171 44.9317 101.576 44.9216 100.984 44.9155C98.5814 44.8282 96.184 44.2894 93.9878 43.3062C92.5506 42.6755 91.1963 41.8503 89.9623 40.8814C87.0058 38.5602 84.7633 35.3448 83.6324 31.7581C83.6116 31.6834 83.6253 31.6423 83.7066 31.6271ZM86.6306 36.6026C86.8322 36.9682 87.1191 37.2983 87.3786 37.6253C89.3565 40.0593 91.9601 41.9732 94.8764 43.1275C96.3232 43.6907 97.8116 44.0939 99.3569 44.2655C98.4027 43.6825 97.641 42.8782 96.996 41.9732C96.0358 40.6118 95.3289 39.0447 94.7926 37.4725C94.6896 37.179 94.6144 36.8799 94.4935 36.5924C92.1546 36.5889 89.8156 36.593 87.4766 36.5904C87.1937 36.5899 86.9129 36.5848 86.6306 36.6026ZM95.0694 36.5996C95.1694 37.0673 95.3497 37.5217 95.5142 37.9701C96.117 39.5677 96.9229 41.1963 98.0543 42.4882C98.7744 43.3032 99.693 44.0375 100.771 44.2934C101.557 44.4971 102.382 44.4016 103.126 44.0883C104.013 43.7176 104.78 43.0198 105.393 42.2916C106.465 40.9926 107.221 39.422 107.809 37.8518C107.953 37.44 108.12 37.0256 108.216 36.6006C107.887 36.5823 107.56 36.5914 107.23 36.5914C103.473 36.5909 99.7149 36.5914 95.9571 36.5909C95.661 36.5909 95.3655 36.5853 95.0694 36.5996ZM103.934 44.267C108.137 43.7704 112.111 41.7325 115.008 38.6516C115.5 38.1423 115.951 37.5908 116.38 37.0282C116.484 36.8936 116.575 36.7509 116.659 36.6031C116.545 36.5965 116.433 36.5914 116.319 36.5899C114.035 36.5924 111.75 36.5914 109.465 36.5904C109.249 36.594 109.026 36.5732 108.812 36.6062C108.747 36.6397 108.728 36.7443 108.7 36.8078C108.258 38.2332 107.701 39.6155 106.959 40.9129C106.358 41.9417 105.662 42.903 104.744 43.6739C104.488 43.8938 104.207 44.0715 103.934 44.267Z" fill="#4678FF"/>
<path d="M86.6305 36.6026C86.9128 36.5849 87.1937 36.5899 87.4765 36.5904C89.8155 36.593 92.1545 36.5889 94.4935 36.5925C94.6143 36.8799 94.6895 37.179 94.7926 37.4725C95.3288 39.0447 96.0357 40.6118 96.996 41.9733C97.6409 42.8782 98.4026 43.6826 99.3568 44.2655C97.8115 44.0939 96.3231 43.6907 94.8764 43.1275C91.96 41.9733 89.3564 40.0593 87.3785 37.6254C87.119 37.2983 86.8321 36.9683 86.6305 36.6026Z" fill="black"/>
<path d="M95.0693 36.5996C95.3654 36.5854 95.6609 36.5909 95.957 36.5909C99.7148 36.5915 103.473 36.5909 107.23 36.5915C107.559 36.5915 107.887 36.5823 108.216 36.6006C108.12 37.0256 107.953 37.44 107.809 37.8518C107.221 39.422 106.465 40.9927 105.393 42.2917C104.78 43.0199 104.013 43.7176 103.126 44.0883C102.382 44.4016 101.557 44.4971 100.771 44.2934C99.693 44.0375 98.7743 43.3032 98.0543 42.4882C96.9229 41.1963 96.117 39.5677 95.5142 37.9702C95.3496 37.5218 95.1694 37.0673 95.0693 36.5996Z" fill="black"/>
<path d="M108.812 36.6062C109.026 36.5732 109.249 36.594 109.465 36.5904C111.749 36.5915 114.035 36.5925 116.319 36.5899C116.433 36.5915 116.545 36.5965 116.658 36.6031C116.575 36.7509 116.484 36.8936 116.38 37.0282C115.951 37.5908 115.5 38.1423 115.008 38.6517C112.111 41.7325 108.137 43.7704 103.934 44.267C104.207 44.0715 104.488 43.8938 104.744 43.6739C105.662 42.9031 106.358 41.9418 106.959 40.9129C107.701 39.6155 108.258 38.2332 108.7 36.8078C108.728 36.7443 108.747 36.6397 108.812 36.6062Z" fill="black"/>
</g>
</g>
<defs>
<clipPath id="clip0_175_181">
<rect width="128" height="128" fill="white"/>
</clipPath>
<clipPath id="clip1_175_181">
<rect x="76" width="52" height="52" rx="26" fill="white"/>
</clipPath>
</defs>
</svg>
