<svg xmlns="http://www.w3.org/2000/svg" fill="none" viewBox="0 0 128 128"><g clip-path="url(#a)"><path fill="#2F63F9" d="M64 128c35.346 0 64-28.654 64-64S99.346 0 64 0 0 28.654 0 64s28.654 64 64 64"/><path fill="#E6C040" d="M91.3 25.24c2.133 1.577 4.074 3.318 5.98 5.16l.729.69c4.986 4.824 8.687 11.294 10.791 17.87v.96h-1.28l-.33-.87c-1.72-4.429-3.658-8.346-6.39-12.25-5.517-.463-5.517-.463-11.82-.36l-6.509-.003-5.031.043 1.28 5.12c.592 2.771.815 5.492.96 8.32H78.4l-.327-2.046-.433-2.694-.427-2.666a363 363 0 0 0-1.053-6.034H53.12c-1.283 6.704-1.283 6.704-2.24 13.44H49.6c.081-4.463 1.06-8.755 1.92-13.12q-5.69-.126-11.38-.2l-6.401-.113-5.259.313c-2.946 4.208-5.039 8.275-6.72 13.12h-1.28c1.965-9.973 9.496-19.308 17.785-24.906 16.398-10.39 36.71-11.025 53.035.226"/><path fill="#E4BF42" d="M21.76 80h1.28l.481.985c1.215 2.462 2.466 4.872 3.888 7.221.431.754.431.754.751 1.714l23.36-.32-1.6-8.32V80h1.28c.66 3.302 1.29 6.611 1.92 9.92h23.04q.732-4.359 1.413-8.725L77.76 80h1.6c-.23 2.034-.577 4.03-.96 6.04l-.34 1.797c-.3 1.443-.3 1.443-.62 2.083 3.833.067 7.667.1 11.5.12l6.469.067 5.391-.507c2.344-3.604 2.344-3.604 4.34-7.32l.641-1.317.459-.963h1.28c-1.212 6.062-5.76 11.322-9.92 15.68l-.779.841c-7.412 7.778-18.74 12.593-29.402 12.995-7.803.08-15.242-.724-22.299-4.236l-1.204-.585c-6.283-3.173-11.827-7.543-16.076-13.175l-.585-.775C21.76 83.171 21.76 83.171 21.76 80"/><path fill="#EFC537" d="M113.081 56.4c1.898 1.267 3.325 3.27 3.924 5.475.522 3.832.177 6.832-1.965 10.045-1.978 1.837-4.461 3.182-7.2 3.28l-.876.047c-3.378.112-5.969-.587-8.724-2.607-2.494-2.447-2.934-4.606-3.04-7.98.056-2.808.461-4.646 2.335-6.744 4.243-4.047 10.513-4.16 15.546-1.516"/><path fill="#ECC33A" d="M54.72 55.04c6.08 0 6.08 0 7.693 1.313l1.147 1.767 1.243 1.849 1.117 1.791.957 1.421C68.8 66.053 68.8 66.053 68.8 66.88h.64l-.159-1.149c-.199-2.137-.191-4.244-.18-6.39l.008-2.442.011-1.859h5.76v19.84c-6.08 0-6.08 0-7.424-.926L66.66 72.7l-.896-1.329-.804-1.291a147 147 0 0 0-1.4-1.88c-1.07-1.481-2.064-2.996-3.08-4.52v11.2h-5.76z"/><path fill="#EDC439" d="M35.52 55.04h17.6v5.12H40.96v2.24h11.52v5.12H40.96v2.24h12.16v5.12h-17.6z"/><path fill="#3264F6" d="M29.76 91.2h22.4a347 347 0 0 1 1.524 4.123c1.68 4.572 3.437 8.628 6.796 12.197v.32c-4.986.171-9.903-1.469-14.4-3.52l-1.133-.508c-5.725-2.704-11.275-6.965-15.187-11.972z"/><path fill="#F0C536" d="M13.12 55.04h5.44v7.36h9.28v-7.36h5.44v19.84h-5.44v-7.36h-9.28v7.36h-5.44z"/><path fill="#3264F6" d="m82.051 91.169 6.289.011 6.291.009 4.889.011c-3.89 7.778-14.239 12.668-22.08 15.36-2.854.86-5.67 1.151-8.64 1.28l.84-1.08c3.19-4.28 5.184-9.049 6.787-14.117.936-2.819 1.143-1.446 5.624-1.474"/><path fill="#3164F7" d="m60.48 18.56-.82 1.06c-3.6 4.842-5.486 9.872-7.5 15.58h-22.4c3.73-7.462 13.542-12.335 20.98-15 3.134-.986 6.45-1.64 9.74-1.64m8.32 0c10.743.04 20.912 6.17 28.32 13.48 2.4 2.421 2.4 2.421 2.4 3.16h-22.4c-.96-2.56-.96-2.56-1.395-3.773-1.526-4.21-3.239-7.952-6.023-11.482-.582-.745-.582-.745-.902-1.385"/><path fill="#3164F7" d="M65.6 18.24c4.648 2.107 6.832 7.271 8.588 11.734 1.332 3.669 1.332 3.669 1.332 5.226H53.44c1.674-6.137 3.949-12.73 9.28-16.64 1.033-.516 1.73-.448 2.88-.32"/><path fill="#3264F6" d="M53.44 91.2h22.08c-.794 5.56-3.494 11.984-7.837 15.727-1.477 1.09-2.51 1.475-4.323 1.233-5.848-3.655-8.11-10.627-9.92-16.96"/><path fill="#F0C536" d="M76.8 55.04h5.44v14.72h11.52v5.12H76.8z"/><path fill="#3264F6" d="m105.84 60.08 1.355-.025c1.347.11 2.089.314 3.205 1.065 1.387 1.711 1.152 3.666.96 5.76-.387 1.182-.657 1.685-1.628 2.437-1.246.592-2.257.593-3.632.603l-1.419.03c-1.554-.224-2.158-.679-3.241-1.79-.505-1.01-.413-2-.44-3.12l-.047-1.355c.2-1.54.671-2.132 1.767-3.205 1.009-.505 2.001-.388 3.12-.4"/><g clip-path="url(#b)"><path fill="#000" stroke="#000" stroke-width="17.778" d="M76 0h52v52H76zm7.726 20.027.356.054.024.38c.348-1.039.75-2.045 1.27-3.011.346-.648.715-1.293 1.153-1.883 2.645.003 5.292-.003 7.937.002a35 35 0 0 0-.974 4.48c.176.022.338.018.513-.007.068-.315.11-.633.165-.95.198-1.19.501-2.354.825-3.515.287-.016.573-.01.86-.01h11.579c.277 0 .554-.003.831.005.477 1.467.743 2.96 1.009 4.473q.244.002.489-.001c-.017-.367-.096-.718-.157-1.08a38 38 0 0 0-.79-3.393c2.484-.01 4.969 0 7.453-.005.158.001.323-.012.479.015.065.043.116.117.161.18a18.6 18.6 0 0 1 2.019 3.975c.029.062.053.152.112.192.15.055.335.047.494.05-.301-1.082-.845-2.15-1.365-3.143-.221-.398-.469-.782-.708-1.17-.879-1.312-1.891-2.525-3.062-3.588a18.9 18.9 0 0 0-7.55-4.227 19 19 0 0 0-9.844-.15 18.8 18.8 0 0 0-8.035 4.304 19 19 0 0 0-4.302 5.704c-.36.75-.702 1.521-.942 2.32Zm1.559 4.054c-.109.303-.223.604-.356.897-.403.024-.805.007-1.21.011-1.757.005-3.515-.008-5.271.006a8 8 0 0 0-.25.615c-.149.404-.324.797-.464 1.204.337.015.672.007 1.008.008 1.823.002 3.646-.002 5.468.002q-.167.5-.357.993c-.299.023-.597.017-.896.015h-4.723c-.295 0-.59-.007-.884.011-.222.605-.475 1.198-.688 1.806.304.018.608.012.912.011h7.871c.284.003.567.005.85-.013q.085-.2.162-.403c.43-1.169.9-2.322 1.332-3.49q.487-1.245.959-2.496c.133-.354.282-.696.401-1.055-3.593-.008-7.23-.003-10.827-.003-.107 0-.072.063-.03.122.361.472.734.936 1.087 1.416.08.103.156.22.255.305.065.033.15.032.221.037 1.81 0 3.62-.006 5.43.002Zm4.35-1.863c.292.414.62.803.921 1.21.15.188.284.392.446.57.065.085.183.072.28.08 1.806.003 3.613-.003 5.42.003q-.166.453-.354.896c-.35.024-.7.011-1.051.013h-4.723c-.23.004-.466-.016-.695.01-.105.123-.15.302-.211.45-.164.458-.366.902-.516 1.364.456.019.914.004 1.371.008 1.696.004 3.393-.007 5.088.006a10 10 0 0 1-.255.751c-.033.08-.067.172-.124.238-.212.03-.433.014-.646.016q-2.514-.002-5.027 0c-.266-.002-.53-.005-.796.007-.132.316-.243.64-.367.96-.108.282-.228.56-.32.85.309.018.616.01.924.01l7.871.001c.28.003.559.007.838-.02.813-2.106 1.618-4.208 2.427-6.316.144-.374.302-.742.427-1.123-3.447-.008-6.897 0-10.344-.005-.193 0-.392-.008-.583.021Zm11.449-.017c.219.3.462.581.699.868.058.075.127.154.159.244-.037.23-.156.45-.232.67-.406 1.08-.834 2.151-1.237 3.232-.188.502-.391.999-.58 1.5-.117.312-.25.613-.339.934.29.017.581.013.872.012h7.871c.284.002.567.005.85-.014.313-.763.598-1.539.895-2.308l1.804-4.697q.084-.218.157-.44c-3.639-.006-7.28-.003-10.919-.002Zm9.914 7.448c.64.025 1.281.006 1.92.012.404-.003.805.01 1.209-.011.284-.677.521-1.373.792-2.055.464-1.183.9-2.378 1.372-3.557.674-.013 1.352-.01 2.027-.002q-.077.27-.181.53c-.588 1.498-1.148 3.006-1.735 4.505q-.113.284-.2.577c.631.027 1.264.007 1.896.013.405-.004.806.011 1.21-.011.242-.564.446-1.145.673-1.716.365-.983.755-1.957 1.124-2.94.123-.318.237-.64.37-.956.684-.015 1.37-.008 2.055-.003-.146.43-.327.85-.483 1.277-.42 1.117-.861 2.226-1.279 3.343-.126.333-.265.655-.374.994.729.028 1.459.004 2.188.012.314 0 .628.01.942-.017.701-1.84 1.414-3.678 2.117-5.52.236-.644.504-1.276.736-1.922-4.751-.008-9.505 0-14.255-.005-.176.005-.366-.018-.537.017-.012.044.044.095.066.13.176.218.35.437.531.65.079.1.174.202.223.32-.039.238-.165.466-.245.693-.719 1.88-1.448 3.761-2.162 5.642Zm8.673 2.047q-.272.013-.539.053c-.405 1.171-.886 2.302-1.507 3.375-.256.433-.506.878-.808 1.282l-.024-.319c-.344-.016-.687-.007-1.031-.008l-6.805-.001c.023-.266.097-.517.166-.774.306-1.208.539-2.433.716-3.667a4 4 0 0 0-.517.004c-.234 1.496-.498 2.97-.934 4.424-.371.028-.736.01-1.107.014H95.754c-.287.001-.574.005-.86-.01-.43-1.454-.72-2.928-.936-4.428a3.5 3.5 0 0 0-.504-.001c.047.492.14.971.226 1.462.127.677.265 1.353.425 2.023.076.32.18.627.23.952-2.236.004-4.471 0-6.706.002-.357.002-.713-.009-1.07.008l-.02.419a18 18 0 0 1-1.937-3.57c-.182-.426-.323-.867-.485-1.301-.136-.006-.274-.016-.41-.008-.082.015-.095.056-.075.131a18.9 18.9 0 0 0 6.33 9.123 18.86 18.86 0 0 0 11.022 4.034c.592.007 1.187.017 1.778-.02 2.695-.16 5.353-.9 7.737-2.169a19.2 19.2 0 0 0 4.6-3.424c2.085-2.123 3.7-4.758 4.572-7.606Z"/><path fill="#000" stroke="#4678FF" stroke-width="17.778" d="M106.849 7.85a18.9 18.9 0 0 1 7.55 4.227c1.171 1.063 2.183 2.276 3.062 3.588.239.388.487.772.708 1.17.52.993 1.064 2.06 1.365 3.143-.159-.003-.344.005-.494-.05-.059-.04-.083-.13-.112-.192a18.6 18.6 0 0 0-2.019-3.975c-.045-.062-.096-.137-.161-.18-.156-.027-.321-.014-.479-.016-2.484.007-4.969-.004-7.453.006.308 1.12.586 2.249.79 3.394.061.36.14.712.157 1.079q-.244.003-.489.001c-.266-1.514-.532-3.006-1.009-4.473-.277-.008-.554-.005-.831-.004H95.855c-.287-.002-.573-.007-.86.01-.324 1.16-.627 2.323-.826 3.514-.053.317-.096.636-.163.95a2 2 0 0 1-.514.006c.234-1.512.546-3.008.974-4.478-2.645-.006-5.292 0-7.937-.004-.438.591-.807 1.236-1.154 1.883-.519.967-.921 1.973-1.269 3.012l-.024-.38-.356-.054c.24-.798.582-1.57.942-2.32a19 19 0 0 1 4.301-5.703A18.8 18.8 0 0 1 97.006 7.7a19 19 0 0 1 9.844.15Zm-11.687 7.21c4.088.007 8.183 0 12.272.004q.33.003.661-.005c-.081-.363-.22-.693-.351-1.05-.627-1.626-1.415-3.218-2.581-4.53-.589-.663-1.332-1.26-2.165-1.585-.8-.313-1.7-.344-2.516-.07-1.061.34-1.975 1.154-2.666 2.007-1.218 1.507-2.046 3.401-2.654 5.23Zm-8.24-.011c.305.022.605.013.91.013h5.89c.303.001.605.008.908-.011.173-.49.316-.974.513-1.455.423-1.056.918-2.115 1.54-3.07.52-.81 1.138-1.566 1.877-2.186.238-.201.499-.366.748-.551a6 6 0 0 0-.453.051 18.4 18.4 0 0 0-11.478 6.583 4 4 0 0 0-.455.626Zm21.731.005c.288.014.575.01.863.008h5.941c.304 0 .605.01.908-.013a3 3 0 0 0-.161-.26 18.5 18.5 0 0 0-6.798-5.44 18.4 18.4 0 0 0-5.146-1.534 4 4 0 0 0-.279-.027c.22.183.468.327.688.51.929.765 1.652 1.737 2.258 2.77.65 1.126 1.16 2.322 1.574 3.553q.075.217.152.433Z"/><path fill="#000" stroke="#000" stroke-width="17.778" d="M102.998 7.895c.833.325 1.576.922 2.165 1.586 1.166 1.311 1.954 2.904 2.581 4.529.131.358.27.687.351 1.05q-.331.008-.661.005c-4.089-.004-8.184.003-12.272-.004.608-1.828 1.436-3.722 2.654-5.23.69-.852 1.605-1.666 2.666-2.006a3.7 3.7 0 0 1 2.516.07Z"/><path fill="#000" stroke="#000" stroke-width="17.778" d="M99.308 7.79c-.25.185-.51.35-.747.551-.74.62-1.358 1.376-1.877 2.187-.623.954-1.118 2.013-1.541 3.07-.197.48-.34.963-.513 1.454-.303.019-.605.012-.907.011h-5.891c-.305 0-.605.01-.91-.014.124-.23.288-.426.455-.625A18.4 18.4 0 0 1 98.855 7.84q.225-.034.453-.051Zm4.673 0q.14.008.279.026c1.777.258 3.52.774 5.146 1.534a18.5 18.5 0 0 1 6.799 5.44q.085.125.16.26c-.303.023-.604.013-.908.013h-5.941c-.288.001-.575.006-.863-.008q-.078-.216-.151-.433c-.415-1.231-.925-2.427-1.575-3.553-.606-1.033-1.329-2.005-2.258-2.77-.22-.183-.468-.327-.688-.51Z"/><path fill="#000" stroke="#4678FF" stroke-width="17.778" d="M78.322 22.2c3.597 0 7.235-.006 10.827.003-.118.359-.268.701-.401 1.055q-.472 1.251-.959 2.496c-.433 1.168-.902 2.321-1.332 3.49q-.076.204-.162.403c-.283.018-.566.016-.85.014h-7.87c-.305 0-.609.006-.913-.012.212-.608.466-1.2.688-1.806.295-.018.59-.011.884-.01h4.723c.3 0 .597.007.896-.016q.19-.493.357-.993c-1.822-.004-3.645 0-5.468-.002-.336 0-.671.007-1.008-.008.14-.407.315-.8.465-1.204.076-.208.156-.413.249-.614 1.756-.015 3.514-.002 5.27-.007.406-.004.808.013 1.211-.01.133-.294.247-.595.356-.898-1.81-.007-3.62-.002-5.43-.002-.07-.004-.156-.003-.22-.036-.1-.085-.176-.202-.256-.305-.353-.48-.726-.944-1.087-1.416-.042-.06-.077-.121.03-.122Zm11.897-.002c3.447.004 6.897-.003 10.344.004-.125.381-.283.749-.427 1.123-.81 2.108-1.614 4.21-2.427 6.317-.28.026-.558.022-.838.02L89 29.66c-.308 0-.615.007-.924-.011.092-.29.212-.568.32-.85.124-.32.235-.644.367-.96.265-.012.53-.01.796-.008l5.027.001c.213-.002.434.015.646-.016.057-.066.091-.157.124-.238.092-.248.184-.495.255-.751-1.695-.013-3.392-.002-5.088-.006-.457-.004-.915.01-1.371-.008.15-.462.352-.906.516-1.364.06-.148.106-.327.211-.45.23-.026.465-.006.695-.01h4.723c.351-.002.7.011 1.051-.013q.188-.444.354-.896c-1.807-.006-3.614 0-5.42-.002-.097-.01-.215.005-.28-.082-.162-.177-.296-.38-.445-.569-.302-.407-.63-.796-.921-1.21.19-.029.39-.021.583-.02Zm10.865.002c3.639-.001 7.28-.004 10.919.002a10 10 0 0 1-.157.44l-1.804 4.697c-.297.77-.582 1.545-.895 2.308-.283.02-.566.016-.85.014h-7.871c-.291 0-.581.005-.872-.012.09-.32.222-.622.338-.934.19-.501.393-.998.58-1.5.404-1.08.832-2.152 1.237-3.232.077-.22.195-.44.233-.67-.032-.09-.101-.17-.159-.244-.238-.287-.48-.568-.699-.868Zm2.299 5.622c.605.022 1.211.004 1.816.01.505-.005 1.011.012 1.516-.01.104-.225.19-.457.274-.69.311-.821.63-1.64.947-2.457q.119-.29.209-.59c-.964-.017-1.93.001-2.895-.01-.14.002-.288-.007-.426.023a1.6 1.6 0 0 0-.115.246q-.561 1.49-1.14 2.971-.099.251-.186.507Zm9.202-5.608c.171-.035.361-.012.537-.016 4.75.005 9.504-.004 14.255.003-.232.646-.5 1.28-.736 1.924-.703 1.84-1.416 3.678-2.118 5.519-.313.026-.627.017-.941.017-.729-.008-1.459.015-2.188-.012.109-.34.248-.66.374-.994.418-1.117.859-2.226 1.279-3.343.156-.427.337-.846.483-1.277-.685-.005-1.371-.012-2.055.003-.133.316-.247.638-.37.956-.369.983-.759 1.957-1.124 2.94-.227.57-.431 1.151-.673 1.716-.404.023-.805.007-1.21.01-.632-.005-1.265.015-1.896-.012q.087-.294.2-.577c.587-1.5 1.147-3.008 1.735-4.506q.104-.26.181-.53a67 67 0 0 0-2.027.003c-.472 1.179-.908 2.374-1.372 3.557-.271.682-.508 1.378-.792 2.055-.404.022-.805.008-1.209.01-.639-.005-1.28.014-1.92-.01.714-1.882 1.443-3.763 2.162-5.643.08-.227.206-.455.245-.693-.049-.118-.144-.22-.223-.32-.181-.213-.355-.432-.531-.65-.022-.035-.078-.086-.066-.13Z"/><path fill="#000" stroke="#000" stroke-width="17.778" d="M104.824 24.098c.138-.03.286-.02.426-.022.965.01 1.931-.008 2.896.008q-.092.3-.21.59-.477 1.228-.947 2.458c-.084.233-.17.465-.274.69-.505.022-1.01.005-1.516.01-.605-.006-1.211.012-1.816-.01q.087-.256.186-.507.579-1.482 1.14-2.971c.033-.083.068-.17.115-.246Z"/><path fill="#000" stroke="#4678FF" stroke-width="17.778" d="M83.707 31.627c.136-.008.274.002.41.008.162.434.303.875.485 1.301a18 18 0 0 0 1.936 3.57l.022-.419c.356-.017.712-.006 1.069-.008 2.235-.002 4.47.002 6.705-.002-.05-.325-.153-.632-.229-.952a44 44 0 0 1-.425-2.023c-.087-.49-.18-.97-.225-1.462q.25-.017.503.001c.216 1.5.506 2.974.936 4.429.286.014.573.01.86.008h11.527c.371-.003.736.015 1.107-.013.436-1.453.7-2.928.934-4.424q.258-.018.517-.004a35 35 0 0 1-.716 3.667c-.069.257-.143.508-.166.774l6.805.001c.344.001.687-.008 1.031.008l.024.319c.302-.404.552-.849.808-1.282.621-1.073 1.102-2.204 1.507-3.375q.267-.04.539-.053c-.872 2.848-2.487 5.483-4.572 7.606a19.2 19.2 0 0 1-4.6 3.424 18.9 18.9 0 0 1-7.737 2.17c-.591.036-1.186.026-1.778.02a18.86 18.86 0 0 1-11.022-4.035 18.9 18.9 0 0 1-6.33-9.123c-.02-.075-.007-.116.075-.13Zm2.924 4.976c.201.365.488.695.748 1.022a18.5 18.5 0 0 0 7.497 5.502c1.447.564 2.936.967 4.48 1.139-.953-.584-1.715-1.388-2.36-2.293-.96-1.361-1.667-2.928-2.203-4.5-.103-.294-.179-.593-.3-.88-2.338-.004-4.677 0-7.016-.003-.283 0-.564-.005-.846.013Zm8.438-.003c.1.467.28.922.445 1.37.603 1.598 1.409 3.226 2.54 4.518.72.815 1.639 1.55 2.717 1.805.786.204 1.611.109 2.355-.205.887-.37 1.654-1.068 2.267-1.796 1.072-1.3 1.828-2.87 2.416-4.44.144-.412.311-.826.407-1.251-.329-.019-.656-.01-.986-.01H95.957c-.296 0-.591-.006-.888.009Zm8.865 7.667c4.203-.497 8.177-2.535 11.074-5.615.492-.51.943-1.061 1.372-1.624q.154-.202.279-.425a8 8 0 0 0-.34-.013q-3.426.002-6.854 0c-.216.004-.439-.017-.653.016-.065.034-.084.138-.112.202-.442 1.425-.999 2.807-1.741 4.105-.601 1.029-1.297 1.99-2.215 2.76-.256.22-.537.398-.81.594Z"/><path fill="#000" stroke="#000" stroke-width="17.778" d="M86.63 36.603c.283-.018.564-.013.847-.013 2.338.003 4.677-.001 7.016.002.121.288.197.587.3.88.536 1.573 1.243 3.14 2.203 4.501.645.905 1.407 1.71 2.36 2.293-1.544-.172-3.033-.575-4.48-1.139a18.5 18.5 0 0 1-7.498-5.502c-.259-.327-.546-.657-.748-1.022Z"/><path fill="#000" stroke="#000" stroke-width="17.778" d="M95.07 36.6c.295-.015.59-.01.887-.01 3.758.002 7.516 0 11.273.002.329 0 .657-.01.986.009-.096.425-.263.839-.407 1.25-.588 1.571-1.344 3.142-2.416 4.44-.613.729-1.38 1.427-2.267 1.797-.744.314-1.569.41-2.355.205-1.078-.255-1.997-.99-2.717-1.805-1.131-1.292-1.937-2.92-2.54-4.518-.164-.448-.345-.903-.445-1.37Z"/><path fill="#000" stroke="#000" stroke-width="17.778" d="M108.812 36.606c.214-.033.437-.012.653-.016q3.427.003 6.854 0 .17.003.339.013-.123.222-.278.425a18 18 0 0 1-1.372 1.624c-2.897 3.08-6.871 5.118-11.074 5.615.273-.196.554-.373.81-.593.918-.77 1.614-1.732 2.215-2.761.742-1.297 1.299-2.68 1.741-4.105.028-.064.047-.168.112-.202Z"/><path fill="#000" d="M76 0h52v52H76zm7.726 20.027.356.054.024.38c.348-1.039.75-2.045 1.27-3.011.346-.648.715-1.293 1.153-1.883 2.645.003 5.292-.003 7.937.002a35 35 0 0 0-.974 4.48c.176.022.338.018.513-.007.068-.315.11-.633.165-.95.198-1.19.501-2.354.825-3.515.287-.016.573-.01.86-.01h11.579c.277 0 .554-.003.831.005.477 1.467.743 2.96 1.009 4.473q.244.002.489-.001c-.017-.367-.096-.718-.157-1.08a38 38 0 0 0-.79-3.393c2.484-.01 4.969 0 7.453-.005.158.001.323-.012.479.015.065.043.116.117.161.18a18.6 18.6 0 0 1 2.019 3.975c.029.062.053.152.112.192.15.055.335.047.494.05-.301-1.082-.845-2.15-1.365-3.143-.221-.398-.469-.782-.708-1.17-.879-1.312-1.891-2.525-3.062-3.588a18.9 18.9 0 0 0-7.55-4.227 19 19 0 0 0-9.844-.15 18.8 18.8 0 0 0-8.035 4.304 19 19 0 0 0-4.302 5.704c-.36.75-.702 1.521-.942 2.32m1.559 4.054c-.109.303-.223.604-.356.897-.403.024-.805.007-1.21.011-1.757.005-3.515-.008-5.271.006a8 8 0 0 0-.25.615c-.149.404-.324.797-.464 1.204.337.015.672.007 1.008.008 1.823.002 3.646-.002 5.468.002q-.167.5-.357.993c-.299.023-.597.017-.896.015h-4.723c-.295 0-.59-.007-.884.011-.222.605-.475 1.198-.688 1.806.304.018.608.012.912.011h7.871c.284.003.567.005.85-.013q.085-.2.162-.403c.43-1.169.9-2.322 1.332-3.49q.487-1.245.959-2.496c.133-.354.282-.696.401-1.055-3.593-.008-7.23-.003-10.827-.003-.107 0-.072.063-.03.122.361.472.734.936 1.087 1.416.08.103.156.22.255.305.065.033.15.032.221.037 1.81 0 3.62-.006 5.43.002m4.35-1.863c.292.414.62.803.921 1.21.15.188.284.392.446.57.065.085.183.072.28.08 1.806.003 3.613-.003 5.42.003q-.166.453-.354.896c-.35.024-.7.011-1.051.013h-4.723c-.23.004-.466-.016-.695.01-.105.123-.15.302-.211.45-.164.458-.366.902-.516 1.364.456.019.914.004 1.371.008 1.696.004 3.393-.007 5.088.006a10 10 0 0 1-.255.751c-.033.08-.067.172-.124.238-.212.03-.433.014-.646.016q-2.514-.002-5.027 0c-.266-.002-.53-.005-.796.007-.132.316-.243.64-.367.96-.108.282-.228.56-.32.85.309.018.616.01.924.01l7.871.001c.28.003.559.007.838-.02.813-2.106 1.618-4.208 2.427-6.316.144-.374.302-.742.427-1.123-3.447-.008-6.897 0-10.344-.005-.193 0-.392-.008-.583.021m11.449-.017c.219.3.462.581.699.868.058.075.127.154.159.244-.037.23-.156.45-.232.67-.406 1.08-.834 2.151-1.237 3.232-.188.502-.391.999-.58 1.5-.117.312-.25.613-.339.934.29.017.581.013.872.012h7.871c.284.002.567.005.85-.014.313-.763.598-1.539.895-2.308l1.804-4.697q.084-.218.157-.44c-3.639-.006-7.28-.003-10.919-.002m9.914 7.448c.64.025 1.281.006 1.92.012.404-.003.805.01 1.209-.011.284-.677.521-1.373.792-2.055.464-1.183.9-2.378 1.372-3.557.674-.013 1.352-.01 2.027-.002q-.077.27-.181.53c-.588 1.498-1.148 3.006-1.735 4.505q-.113.284-.2.577c.631.027 1.264.007 1.896.013.405-.004.806.011 1.21-.011.242-.564.446-1.145.673-1.716.365-.983.755-1.957 1.124-2.94.123-.318.237-.64.37-.956.684-.015 1.37-.008 2.055-.003-.146.43-.327.85-.483 1.277-.42 1.117-.861 2.226-1.279 3.343-.126.333-.265.655-.374.994.729.028 1.459.004 2.188.012.314 0 .628.01.942-.017.701-1.84 1.414-3.678 2.117-5.52.236-.644.504-1.276.736-1.922-4.751-.008-9.505 0-14.255-.005-.176.005-.366-.018-.537.017-.012.044.044.095.066.13.176.218.35.437.531.65.079.1.174.202.223.32-.039.238-.165.466-.245.693-.719 1.88-1.448 3.761-2.162 5.642m8.673 2.047q-.272.013-.539.053c-.405 1.171-.886 2.302-1.507 3.375-.256.433-.506.878-.808 1.282l-.024-.319c-.344-.016-.687-.007-1.031-.008l-6.805-.001c.023-.266.097-.517.166-.774.306-1.208.539-2.433.716-3.667a4 4 0 0 0-.517.004c-.234 1.496-.498 2.97-.934 4.424-.371.028-.736.01-1.107.014H95.754c-.287.001-.574.005-.86-.01-.43-1.454-.72-2.928-.936-4.428a3.5 3.5 0 0 0-.504-.001c.047.492.14.971.226 1.462.127.677.265 1.353.425 2.023.076.32.18.627.23.952-2.236.004-4.471 0-6.706.002-.357.002-.713-.009-1.07.008l-.02.419a18 18 0 0 1-1.937-3.57c-.182-.426-.323-.867-.485-1.301-.136-.006-.274-.016-.41-.008-.082.015-.095.056-.075.131a18.9 18.9 0 0 0 6.33 9.123 18.86 18.86 0 0 0 11.022 4.034c.592.007 1.187.017 1.778-.02 2.695-.16 5.353-.9 7.737-2.169a19.2 19.2 0 0 0 4.6-3.424c2.085-2.123 3.7-4.758 4.572-7.606"/><path fill="#4678FF" d="M106.849 7.85a18.9 18.9 0 0 1 7.55 4.227c1.171 1.063 2.183 2.276 3.062 3.588.239.388.487.772.708 1.17.52.993 1.064 2.06 1.365 3.143-.159-.003-.344.005-.494-.05-.059-.04-.083-.13-.112-.192a18.6 18.6 0 0 0-2.019-3.975c-.045-.062-.096-.137-.161-.18-.156-.027-.321-.014-.479-.016-2.484.007-4.969-.004-7.453.006.308 1.12.586 2.249.79 3.394.061.36.14.712.157 1.079q-.244.003-.489.001c-.266-1.514-.532-3.006-1.009-4.473-.277-.008-.554-.005-.831-.004H95.855c-.287-.002-.573-.007-.86.01-.324 1.16-.627 2.323-.826 3.514-.053.317-.096.636-.163.95a2 2 0 0 1-.514.006c.234-1.512.546-3.008.974-4.478-2.645-.006-5.292 0-7.937-.004-.438.591-.807 1.236-1.154 1.883-.519.967-.921 1.973-1.269 3.012l-.024-.38-.356-.054c.24-.798.582-1.57.942-2.32a19 19 0 0 1 4.301-5.703A18.8 18.8 0 0 1 97.006 7.7a19 19 0 0 1 9.844.15m-11.688 7.21c4.088.007 8.183 0 12.272.004q.33.003.661-.005c-.081-.363-.22-.693-.351-1.05-.627-1.626-1.415-3.218-2.581-4.53-.589-.663-1.332-1.26-2.165-1.585-.8-.313-1.7-.344-2.516-.07-1.061.34-1.975 1.154-2.666 2.007-1.218 1.507-2.046 3.401-2.654 5.23m-8.24-.011c.305.022.605.013.91.013h5.89c.303.001.605.008.908-.011.173-.49.316-.974.513-1.455.423-1.056.918-2.115 1.54-3.07.52-.81 1.138-1.566 1.877-2.186.238-.201.499-.366.748-.551a6 6 0 0 0-.453.051 18.4 18.4 0 0 0-11.478 6.583 4 4 0 0 0-.455.626m21.731.005c.288.014.575.01.863.008h5.941c.304 0 .605.01.908-.013a3 3 0 0 0-.161-.26 18.5 18.5 0 0 0-6.798-5.44 18.4 18.4 0 0 0-5.146-1.534 4 4 0 0 0-.279-.027c.22.183.468.327.688.51.929.765 1.652 1.737 2.258 2.77.65 1.126 1.16 2.322 1.574 3.553q.075.217.152.433"/><path fill="#000" d="M102.998 7.895c.833.325 1.576.922 2.165 1.586 1.166 1.311 1.954 2.904 2.581 4.529.131.358.27.687.351 1.05q-.331.008-.661.005c-4.089-.004-8.184.003-12.272-.004.608-1.828 1.436-3.722 2.654-5.23.69-.852 1.605-1.666 2.666-2.006a3.7 3.7 0 0 1 2.516.07"/><path fill="#000" d="M99.308 7.79c-.25.185-.51.35-.747.551-.74.62-1.358 1.376-1.877 2.187-.623.954-1.118 2.013-1.541 3.07-.197.48-.34.963-.513 1.454-.303.019-.605.012-.907.011h-5.891c-.305 0-.605.01-.91-.014.124-.23.288-.426.455-.625A18.4 18.4 0 0 1 98.855 7.84q.225-.034.453-.051m4.673.001q.14.008.279.026c1.777.258 3.52.774 5.146 1.534a18.5 18.5 0 0 1 6.799 5.44q.085.125.16.26c-.303.023-.604.013-.908.013h-5.941c-.288.001-.575.006-.863-.008q-.078-.216-.151-.433c-.415-1.231-.925-2.427-1.575-3.553-.606-1.033-1.329-2.005-2.258-2.77-.22-.183-.468-.327-.688-.51"/><path fill="#4678FF" d="M78.322 22.2c3.597 0 7.235-.006 10.827.003-.118.359-.268.701-.401 1.055q-.472 1.251-.959 2.496c-.433 1.168-.902 2.321-1.332 3.49q-.076.204-.162.403c-.283.018-.566.016-.85.014h-7.87c-.305 0-.609.006-.913-.012.212-.608.466-1.2.688-1.806.295-.018.59-.011.884-.01h4.723c.3 0 .597.007.896-.016q.19-.493.357-.993c-1.822-.004-3.645 0-5.468-.002-.336 0-.671.007-1.008-.008.14-.407.315-.8.465-1.204.076-.208.156-.413.249-.614 1.756-.015 3.514-.002 5.27-.007.406-.004.808.013 1.211-.01.133-.294.247-.595.356-.898-1.81-.007-3.62-.002-5.43-.002-.07-.004-.156-.003-.22-.036-.1-.085-.176-.202-.256-.305-.353-.48-.726-.944-1.087-1.416-.042-.06-.077-.121.03-.122m11.897-.002c3.447.004 6.897-.003 10.344.004-.125.381-.283.749-.427 1.123-.81 2.108-1.614 4.21-2.427 6.317-.28.026-.558.022-.838.02L89 29.66c-.308 0-.615.007-.924-.011.092-.29.212-.568.32-.85.124-.32.235-.644.367-.96.265-.012.53-.01.796-.008l5.027.001c.213-.002.434.015.646-.016.057-.066.091-.157.124-.238.092-.248.184-.495.255-.751-1.695-.013-3.392-.002-5.088-.006-.457-.004-.915.01-1.371-.008.15-.462.352-.906.516-1.364.06-.148.106-.327.211-.45.23-.026.465-.006.695-.01h4.723c.351-.002.7.011 1.051-.013q.188-.444.354-.896c-1.807-.006-3.614 0-5.42-.002-.097-.01-.215.005-.28-.082-.162-.177-.296-.38-.445-.569-.302-.407-.63-.796-.921-1.21.19-.029.39-.021.583-.02m10.865.003c3.639-.001 7.28-.004 10.919.002a10 10 0 0 1-.157.44l-1.804 4.697c-.297.77-.582 1.545-.895 2.308-.283.02-.566.016-.85.014h-7.871c-.291 0-.581.005-.872-.012.09-.32.222-.622.338-.934.19-.501.393-.998.58-1.5.404-1.08.832-2.152 1.237-3.232.077-.22.195-.44.233-.67-.032-.09-.101-.17-.159-.244-.238-.287-.48-.568-.699-.868m2.299 5.622c.605.022 1.211.004 1.816.01.505-.005 1.011.012 1.516-.01.104-.225.19-.457.274-.69.311-.821.63-1.64.947-2.457q.119-.29.209-.59c-.964-.017-1.93.001-2.895-.01-.14.002-.288-.007-.426.023a1.6 1.6 0 0 0-.115.246q-.561 1.49-1.14 2.971-.099.251-.186.507m9.202-5.609c.171-.035.361-.012.537-.016 4.75.005 9.504-.004 14.255.003-.232.646-.5 1.28-.736 1.924-.703 1.84-1.416 3.678-2.118 5.519-.313.026-.627.017-.941.017-.729-.008-1.459.015-2.188-.012.109-.34.248-.66.374-.994.418-1.117.859-2.226 1.279-3.343.156-.427.337-.846.483-1.277-.685-.005-1.371-.012-2.055.003-.133.316-.247.638-.37.956-.369.983-.759 1.957-1.124 2.94-.227.57-.431 1.151-.673 1.716-.404.023-.805.007-1.21.01-.632-.005-1.265.015-1.896-.012q.087-.294.2-.577c.587-1.5 1.147-3.008 1.735-4.506q.104-.26.181-.53a67 67 0 0 0-2.027.003c-.472 1.179-.908 2.374-1.372 3.557-.271.682-.508 1.378-.792 2.055-.404.022-.805.008-1.209.01-.639-.005-1.28.014-1.92-.01.714-1.882 1.443-3.763 2.162-5.643.08-.227.206-.455.245-.693-.049-.118-.144-.22-.223-.32-.181-.213-.355-.432-.531-.65-.022-.035-.078-.086-.066-.13"/><path fill="#000" d="M104.824 24.098c.138-.03.286-.02.426-.022.965.01 1.931-.008 2.896.008q-.092.3-.21.59-.477 1.228-.947 2.458c-.084.233-.17.465-.274.69-.505.022-1.01.005-1.516.01-.605-.006-1.211.012-1.816-.01q.087-.256.186-.507.579-1.482 1.14-2.971c.033-.083.068-.17.115-.246"/><path fill="#4678FF" d="M83.707 31.627c.136-.008.274.002.41.008.162.434.303.875.485 1.301a18 18 0 0 0 1.936 3.57l.022-.419c.356-.017.712-.006 1.069-.008 2.235-.002 4.47.002 6.705-.002-.05-.325-.153-.632-.229-.952a44 44 0 0 1-.425-2.023c-.087-.49-.18-.97-.225-1.462q.25-.017.503.001c.216 1.5.506 2.974.936 4.429.286.014.573.01.86.008h11.527c.371-.003.736.015 1.107-.013.436-1.453.7-2.928.934-4.424q.258-.018.517-.004a35 35 0 0 1-.716 3.667c-.069.257-.143.508-.166.774l6.805.001c.344.001.687-.008 1.031.008l.024.319c.302-.404.552-.849.808-1.282.621-1.073 1.102-2.204 1.507-3.375q.267-.04.539-.053c-.872 2.848-2.487 5.483-4.572 7.606a19.2 19.2 0 0 1-4.6 3.424 18.9 18.9 0 0 1-7.737 2.17c-.591.036-1.186.026-1.778.02a18.86 18.86 0 0 1-11.022-4.035 18.9 18.9 0 0 1-6.33-9.123c-.02-.075-.007-.116.075-.13m2.924 4.976c.201.365.488.695.748 1.022a18.5 18.5 0 0 0 7.497 5.502c1.447.564 2.936.967 4.48 1.139-.953-.584-1.715-1.388-2.36-2.293-.96-1.361-1.667-2.928-2.203-4.5-.103-.294-.179-.593-.3-.88-2.338-.004-4.677 0-7.016-.003-.283 0-.564-.005-.846.013m8.438-.003c.1.467.28.922.445 1.37.603 1.598 1.409 3.226 2.54 4.518.72.815 1.639 1.55 2.717 1.805.786.204 1.611.109 2.355-.205.887-.37 1.654-1.068 2.267-1.796 1.072-1.3 1.828-2.87 2.416-4.44.144-.412.311-.826.407-1.251-.329-.019-.656-.01-.986-.01H95.957c-.296 0-.591-.006-.888.009m8.865 7.667c4.203-.497 8.177-2.535 11.074-5.615.492-.51.943-1.061 1.372-1.624q.154-.202.279-.425a8 8 0 0 0-.34-.013q-3.426.002-6.854 0c-.216.004-.439-.017-.653.016-.065.034-.084.138-.112.202-.442 1.425-.999 2.807-1.741 4.105-.601 1.029-1.297 1.99-2.215 2.76-.256.22-.537.398-.81.594"/><path fill="#000" d="M86.63 36.603c.283-.018.564-.013.847-.013 2.338.003 4.677-.001 7.016.002.121.288.197.587.3.88.536 1.573 1.243 3.14 2.203 4.501.645.905 1.407 1.71 2.36 2.293-1.544-.172-3.033-.575-4.48-1.139a18.5 18.5 0 0 1-7.498-5.502c-.259-.327-.546-.657-.748-1.022"/><path fill="#000" d="M95.07 36.6c.295-.015.59-.01.887-.01 3.758.002 7.516 0 11.273.002.329 0 .657-.01.986.009-.096.425-.263.839-.407 1.25-.588 1.571-1.344 3.142-2.416 4.44-.613.729-1.38 1.427-2.267 1.797-.744.314-1.569.41-2.355.205-1.078-.255-1.997-.99-2.717-1.805-1.131-1.292-1.937-2.92-2.54-4.518-.164-.448-.345-.903-.445-1.37"/><path fill="#000" d="M108.812 36.606c.214-.033.437-.012.653-.016q3.427.003 6.854 0 .17.003.339.013-.123.222-.278.425a18 18 0 0 1-1.372 1.624c-2.897 3.08-6.871 5.118-11.074 5.615.273-.196.554-.373.81-.593.918-.77 1.614-1.732 2.215-2.761.742-1.297 1.299-2.68 1.741-4.105.028-.064.047-.168.112-.202"/></g></g><defs><clipPath id="a"><path fill="#fff" d="M0 0h128v128H0z"/></clipPath><clipPath id="b"><rect width="52" height="52" x="76" fill="#fff" rx="26"/></clipPath></defs></svg>
