<svg xmlns="http://www.w3.org/2000/svg" fill="none" viewBox="0 0 128 128"><g clip-path="url(#a)"><path fill="#2F63F9" d="M64 128c35.346 0 64-28.654 64-64S99.346 0 64 0 0 28.654 0 64s28.654 64 64 64"/><path fill="#E6C040" d="M91.3 25.24c2.133 1.577 4.074 3.318 5.98 5.16l.729.69c4.986 4.824 8.687 11.294 10.791 17.87v.96h-1.28l-.33-.87c-1.72-4.429-3.658-8.346-6.39-12.25-5.517-.463-5.517-.463-11.82-.36l-6.509-.003-5.031.043 1.28 5.12c.592 2.771.815 5.492.96 8.32H78.4l-.327-2.046-.433-2.694-.427-2.666a363 363 0 0 0-1.053-6.034H53.12c-1.283 6.704-1.283 6.704-2.24 13.44H49.6c.081-4.463 1.06-8.755 1.92-13.12q-5.69-.126-11.38-.2l-6.401-.113-5.259.313c-2.946 4.208-5.039 8.275-6.72 13.12h-1.28c1.965-9.973 9.496-19.308 17.785-24.906 16.398-10.39 36.71-11.025 53.035.226"/><path fill="#E4BF42" d="M21.76 80h1.28l.481.985c1.215 2.462 2.466 4.872 3.888 7.221.431.754.431.754.751 1.714l23.36-.32-1.6-8.32V80h1.28c.66 3.302 1.29 6.611 1.92 9.92h23.04q.732-4.359 1.413-8.725L77.76 80h1.6c-.23 2.034-.577 4.03-.96 6.04l-.34 1.797c-.3 1.443-.3 1.443-.62 2.083 3.833.067 7.667.1 11.5.12l6.469.067 5.391-.507c2.344-3.604 2.344-3.604 4.34-7.32l.641-1.317.459-.963h1.28c-1.212 6.062-5.76 11.322-9.92 15.68l-.779.841c-7.412 7.778-18.74 12.593-29.402 12.995-7.803.08-15.242-.724-22.299-4.236l-1.204-.585c-6.283-3.173-11.827-7.543-16.076-13.175l-.585-.775C21.76 83.171 21.76 83.171 21.76 80"/><path fill="#EFC537" d="M113.081 56.4c1.898 1.267 3.325 3.27 3.924 5.475.522 3.832.177 6.832-1.965 10.045-1.978 1.837-4.461 3.182-7.2 3.28l-.876.047c-3.378.112-5.969-.587-8.724-2.607-2.494-2.447-2.934-4.606-3.04-7.98.056-2.808.461-4.646 2.335-6.744 4.243-4.047 10.513-4.16 15.546-1.516"/><path fill="#ECC33A" d="M54.72 55.04c6.08 0 6.08 0 7.693 1.313l1.147 1.767 1.243 1.849 1.117 1.791.957 1.421C68.8 66.053 68.8 66.053 68.8 66.88h.64l-.159-1.149c-.199-2.137-.191-4.244-.18-6.39l.008-2.442.011-1.859h5.76v19.84c-6.08 0-6.08 0-7.424-.926L66.66 72.7l-.896-1.329-.804-1.291a147 147 0 0 0-1.4-1.88c-1.07-1.481-2.064-2.996-3.08-4.52v11.2h-5.76z"/><path fill="#EDC439" d="M35.52 55.04h17.6v5.12H40.96v2.24h11.52v5.12H40.96v2.24h12.16v5.12h-17.6z"/><path fill="#3264F6" d="M29.76 91.2h22.4a347 347 0 0 1 1.524 4.123c1.68 4.572 3.437 8.628 6.796 12.197v.32c-4.986.171-9.903-1.469-14.4-3.52l-1.133-.508c-5.725-2.704-11.275-6.965-15.187-11.972z"/><path fill="#F0C536" d="M13.12 55.04h5.44v7.36h9.28v-7.36h5.44v19.84h-5.44v-7.36h-9.28v7.36h-5.44z"/><path fill="#3264F6" d="m82.051 91.169 6.289.011 6.291.009 4.889.011c-3.89 7.778-14.239 12.668-22.08 15.36-2.854.86-5.67 1.151-8.64 1.28l.84-1.08c3.19-4.28 5.184-9.049 6.787-14.117.936-2.819 1.143-1.446 5.624-1.474"/><path fill="#3164F7" d="m60.48 18.56-.82 1.06c-3.6 4.842-5.486 9.872-7.5 15.58h-22.4c3.73-7.462 13.542-12.335 20.98-15 3.134-.986 6.45-1.64 9.74-1.64m8.32 0c10.743.04 20.912 6.17 28.32 13.48 2.4 2.421 2.4 2.421 2.4 3.16h-22.4c-.96-2.56-.96-2.56-1.395-3.773-1.526-4.21-3.239-7.952-6.023-11.482-.582-.745-.582-.745-.902-1.385"/><path fill="#3164F7" d="M65.6 18.24c4.648 2.107 6.832 7.271 8.588 11.734 1.332 3.669 1.332 3.669 1.332 5.226H53.44c1.674-6.137 3.949-12.73 9.28-16.64 1.033-.516 1.73-.448 2.88-.32"/><path fill="#3264F6" d="M53.44 91.2h22.08c-.794 5.56-3.494 11.984-7.837 15.727-1.477 1.09-2.51 1.475-4.323 1.233-5.848-3.655-8.11-10.627-9.92-16.96"/><path fill="#F0C536" d="M76.8 55.04h5.44v14.72h11.52v5.12H76.8z"/><path fill="#3264F6" d="m105.84 60.08 1.355-.025c1.347.11 2.089.314 3.205 1.065 1.387 1.711 1.152 3.666.96 5.76-.387 1.182-.657 1.685-1.628 2.437-1.246.592-2.257.593-3.632.603l-1.419.03c-1.554-.224-2.158-.679-3.241-1.79-.505-1.01-.413-2-.44-3.12l-.047-1.355c.2-1.54.671-2.132 1.767-3.205 1.009-.505 2.001-.388 3.12-.4"/><g clip-path="url(#b)"><path fill="#000" stroke="#000" stroke-width="17.778" d="M76 0h52v52H76zm7.732 20.071.369.006.008.338c.37-1.02.768-2.074 1.297-3.025a20 20 0 0 1 1.102-1.822c2.472-.008 4.945 0 7.418-.004.174 0 .358-.01.529.019-.03.197-.098.376-.15.568-.175.666-.34 1.337-.473 2.013-.104.615-.275 1.254-.306 1.878l.473-.002c.181-1.022.346-2.035.614-3.04.11-.481.26-.951.38-1.429q.33-.009.66-.006c4.203.001 8.406-.003 12.609.001.413 1.25.681 2.585.91 3.88.03.212.061.422.118.628h.417l.071-.075a36 36 0 0 0-.502-2.62c-.133-.609-.311-1.207-.459-1.812 2.65-.007 5.299.002 7.949-.004a18 18 0 0 1 2.236 4.374q.271.05.547.041a18.4 18.4 0 0 0-2.463-4.846 18.9 18.9 0 0 0-8.075-6.516 19.1 19.1 0 0 0-6.656-1.483 69 69 0 0 0-1.523.002c-2.046.103-4.073.51-5.987 1.249-2.17.84-4.18 2.079-5.9 3.647a18.9 18.9 0 0 0-5.006 7.37 3.4 3.4 0 0 0-.207.67Zm-5.508 2.142c.264.377.605.706.853 1.09-.027.204-.133.4-.202.593L76.67 29.64c2.993.01 5.986.003 8.978.006q.321 0 .641-.007c.356-.926.706-1.854 1.066-2.78.243-.617.462-1.244.717-1.857-1.789-.015-3.58-.003-5.369-.007-.373-.006-.737.02-1.108-.027.116-.291.233-.583.342-.877.375-.016.747-.007 1.122-.009h4.468c.31-.003.614.02.923-.03.21-.62.46-1.227.69-1.84-3.211-.01-6.424-.002-9.636-.005-.427.002-.853-.005-1.28.006Zm11.42 0c.263.38.588.718.869 1.088-.456 1.165-.9 2.332-1.357 3.496.235.035.47.034.707.03 1.916.001 3.83-.002 5.746 0-.078.336-.24.64-.308.979-.22.04-.44.04-.664.034h-5.13a10 10 0 0 0-.757.014c-.187.606-.452 1.19-.667 1.787 3.205 0 6.41.005 9.614-.002q.424-1.105.852-2.207c.347-.945.727-1.877 1.08-2.82q.326-.87.668-1.735a6 6 0 0 0 .236-.667c-3.1-.008-6.2-.001-9.299-.004-.53.002-1.06-.005-1.59.006Zm11.448.002c.255.326.522.644.78.968.091.103.065.202.026.32-.708 1.83-1.42 3.703-2.127 5.536a6 6 0 0 0-.21.6c2.827.006 5.655 0 8.482.003.374-.003.748.007 1.121-.008.627-1.657 1.272-3.31 1.9-4.967.315-.818.638-1.634.94-2.457-3.487-.006-6.974 0-10.461-.003q-.226-.002-.451.008Zm11.458-.002c.26.344.541.672.814 1.004.086.096.01.23-.022.332-.144.343-.263.696-.402 1.04-.327.824-.626 1.656-.954 2.478-.324.86-.658 1.713-.984 2.572q1.567.008 3.135 0c.473-1.255.959-2.504 1.437-3.757.227-.612.483-1.215.696-1.832.677-.027 1.358-.006 2.037-.011-.083.371-.25.725-.384 1.081l-1.527 3.981a5 5 0 0 0-.184.54c1.037-.001 2.075.007 3.112-.004.44-1.164.9-2.338 1.336-3.497.285-.696.527-1.409.817-2.103.685.003 1.37-.004 2.055.004-.704 1.868-1.434 3.732-2.139 5.6l2.138.001c.339-.002.673.01 1.012-.013.174-.558.414-1.098.614-1.648.702-1.804 1.385-3.62 2.088-5.424a4 4 0 0 0 .099-.349q-6.833-.002-13.664 0c-.377.001-.754-.005-1.13.005Zm7.123 9.49a2 2 0 0 0-.565.062c-.141.524-.362 1.031-.57 1.532a18 18 0 0 1-1.371 2.587c-.099.169-.194.332-.346.46a6 6 0 0 1-.022-.265c-2.626-.004-5.253.003-7.878-.004a35 35 0 0 0 .753-3.402c.057-.34.125-.673.131-1.019q-.238 0-.476-.003c-.097.43-.125.868-.221 1.298-.14.734-.276 1.482-.469 2.204-.086.313-.145.624-.258.928-4.498-.008-8.997.001-13.496-.005-.162-.576-.302-1.16-.443-1.742a43 43 0 0 1-.489-2.683l-.475.002c-.004.379.083.738.142 1.109.2 1.118.429 2.223.742 3.315q-3.895.004-7.791 0c-.02.142-.026.285-.04.429a20 20 0 0 1-1.443-2.464 21 21 0 0 1-.963-2.389c-.166 0-.334-.008-.5.006.022.163.081.326.135.48.793 2.35 2.083 4.537 3.72 6.397.432.468.851.938 1.33 1.36a18.9 18.9 0 0 0 5.925 3.724c1.82.712 3.755 1.14 5.706 1.269.669.048 1.345.024 2.016.022a19.4 19.4 0 0 0 3.879-.578c2.897-.726 5.615-2.19 7.849-4.167.446-.421.906-.818 1.308-1.285a18.8 18.8 0 0 0 4.18-7.177Z"/><path fill="#000" stroke="#F3C733" stroke-width="17.778" d="M100.832 7.135a69 69 0 0 1 1.523-.002c2.28.095 4.555.589 6.656 1.483a18.9 18.9 0 0 1 8.075 6.516 18.4 18.4 0 0 1 2.463 4.846 2.6 2.6 0 0 1-.547-.041 18 18 0 0 0-2.236-4.374c-2.65.006-5.299-.003-7.949.005.148.604.326 1.202.459 1.81.207.867.36 1.742.502 2.621l-.071.075h-.417a5 5 0 0 1-.118-.627c-.229-1.296-.497-2.63-.91-3.881-4.203-.004-8.406 0-12.61-.002q-.33-.002-.66.007c-.12.478-.269.948-.379 1.429-.268 1.005-.433 2.018-.614 3.04l-.473.002c.03-.624.202-1.263.306-1.878.133-.676.298-1.347.473-2.014.052-.191.12-.37.15-.567-.171-.028-.356-.019-.53-.02-2.472.005-4.945-.003-7.417.005a20 20 0 0 0-1.102 1.822c-.53.95-.927 2.004-1.297 3.024l-.008-.337-.37-.006c.041-.233.121-.451.208-.67a18.9 18.9 0 0 1 5.006-7.37 18.9 18.9 0 0 1 5.9-3.647 19.3 19.3 0 0 1 5.987-1.249Zm-5.643 7.925q6.452.007 12.904 0a3.6 3.6 0 0 0-.205-.658c-.552-1.536-1.28-3.096-2.283-4.392-.616-.787-1.315-1.484-2.215-1.94a4.4 4.4 0 0 0-1.338-.423c-.39-.02-.812-.034-1.191.07-.754.164-1.443.563-2.024 1.063-.832.695-1.502 1.627-2.053 2.554a19 19 0 0 0-1.397 3.075 3.4 3.4 0 0 0-.198.65Zm3.66-7.215c-.597.102-1.189.2-1.774.359-.8.213-1.592.466-2.358.78a18.4 18.4 0 0 0-7.45 5.574c-.132.154-.253.304-.322.499 2.124.015 4.248.002 6.371.006.441-.003.882.007 1.323-.008a19.6 19.6 0 0 1 1.008-2.616c.414-.925.93-1.807 1.531-2.625a9.6 9.6 0 0 1 1.3-1.403c.243-.22.534-.37.758-.608q-.194.014-.387.042Zm5.168-.013.224.154c.733.498 1.369 1.172 1.896 1.88 1.133 1.537 1.928 3.382 2.509 5.193 2.05.01 4.101.001 6.151.004.527-.002 1.055.005 1.583-.008-.343-.544-.796-1.023-1.223-1.5-.439-.508-.934-.953-1.442-1.405a19 19 0 0 0-3.038-2.155 18.7 18.7 0 0 0-5.373-2c-.434-.072-.844-.182-1.287-.163Z"/><path fill="#000" stroke="#000" stroke-width="17.778" d="M102.052 7.647c.462.074.922.207 1.338.423.9.456 1.599 1.153 2.215 1.94 1.003 1.296 1.731 2.856 2.283 4.393a3.6 3.6 0 0 1 .205.657q-6.452.007-12.904 0c.04-.226.114-.439.198-.65.38-1.063.834-2.097 1.397-3.076.551-.927 1.221-1.86 2.053-2.554.581-.5 1.27-.899 2.024-1.063.379-.104.801-.09 1.191-.07Z"/><path fill="#000" stroke="#000" stroke-width="17.778" d="M99.236 7.803c-.225.237-.515.388-.758.608a9.6 9.6 0 0 0-1.3 1.403c-.602.818-1.117 1.7-1.531 2.625a19.5 19.5 0 0 0-1.008 2.616c-.44.015-.882.005-1.323.008-2.123-.004-4.248.009-6.37-.006.068-.195.19-.345.322-.498a18.4 18.4 0 0 1 7.449-5.575 19 19 0 0 1 2.358-.78c.585-.16 1.177-.257 1.774-.36q.192-.027.387-.041Zm4.781.029c.443-.02.853.091 1.287.163a18.7 18.7 0 0 1 5.373 2 19 19 0 0 1 3.038 2.155c.508.452 1.003.897 1.442 1.405.428.477.881.956 1.223 1.5-.528.013-1.055.006-1.583.008-2.05-.003-4.101.006-6.151-.004-.581-1.81-1.376-3.656-2.509-5.192-.527-.709-1.163-1.383-1.895-1.88z"/><path fill="#000" stroke="#F3C733" stroke-width="17.778" d="M78.224 22.213c.427-.011.853-.004 1.28-.006 3.212.003 6.425-.006 9.636.005-.23.613-.48 1.22-.69 1.84-.309.05-.612.027-.923.03H83.06c-.375.002-.747-.007-1.122.009q-.165.44-.342.877c.371.048.735.021 1.108.027 1.79.004 3.58-.008 5.37.007-.256.613-.474 1.24-.718 1.858-.36.924-.71 1.853-1.066 2.779a25 25 0 0 1-.64.007c-2.993-.003-5.986.004-8.979-.006q1.104-2.872 2.205-5.744c.07-.192.175-.39.202-.593-.248-.384-.59-.713-.853-1.09Zm2.29 5.617c.95.025 1.9 0 2.85.013.173.004.34-.008.51-.037.093-.335.224-.648.344-.974-.996-.015-1.992.001-2.987-.008-.116 0-.236-.003-.35.015a8 8 0 0 0-.368.991Zm9.13-5.618c.53-.011 1.06-.004 1.59-.006 3.1.003 6.2-.004 9.299.004a6 6 0 0 1-.236.667q-.34.865-.668 1.736c-.353.942-.733 1.874-1.08 2.819q-.428 1.102-.852 2.207c-3.204.007-6.41.002-9.614.002.215-.598.48-1.18.667-1.787.253-.018.505-.017.758-.015h5.129c.223.007.444.007.665-.033.068-.339.229-.643.307-.979-1.915-.002-3.83.001-5.746 0a4 4 0 0 1-.707-.03c.457-1.164.9-2.331 1.357-3.496-.28-.37-.606-.708-.87-1.089Zm3.366 2.756c.254.033.508.031.764.027.643.001 1.286-.002 1.93 0 .222.007.442.003.662-.031q.159-.442.34-.875c-.994-.015-1.989 0-2.983-.008-.121 0-.248-.006-.367.017-.136.279-.225.583-.346.87Zm8.533-2.761c3.487.002 6.974-.003 10.461.003-.302.823-.625 1.639-.94 2.457-.628 1.657-1.273 3.31-1.9 4.967-.373.015-.747.005-1.121.008-2.827-.002-5.655.003-8.482-.003q.09-.305.21-.6c.707-1.834 1.419-3.707 2.127-5.535.039-.12.065-.218-.026-.32-.258-.325-.525-.643-.78-.97q.225-.007.451-.007Zm3.274 1.884c-.488 1.236-.957 2.485-1.44 3.724.251.032.503.028.756.024h1.879c.24.006.48.005.719-.022.413-1.082.822-2.164 1.247-3.242a5 5 0 0 0 .166-.488c-.947-.01-1.896 0-2.843-.006-.161 0-.324-.002-.484.01Zm7.733-1.878c.376-.01.753-.004 1.13-.006l13.664.001a4 4 0 0 1-.099.35c-.703 1.803-1.386 3.619-2.088 5.424-.2.55-.44 1.089-.614 1.647-.339.022-.673.01-1.012.013l-2.138-.001c.705-1.868 1.435-3.732 2.139-5.6-.685-.008-1.37 0-2.055-.004-.29.694-.532 1.407-.817 2.103-.436 1.16-.896 2.333-1.337 3.497-1.036.01-2.074.003-3.111.005q.075-.276.184-.54l1.527-3.982c.133-.356.301-.71.384-1.081-.679.005-1.36-.016-2.038.011-.212.617-.468 1.22-.695 1.832-.478 1.253-.964 2.502-1.437 3.758q-1.568.007-3.135-.002c.326-.858.66-1.712.984-2.571.328-.822.627-1.654.954-2.477.139-.345.258-.698.402-1.041.032-.103.108-.236.022-.332-.273-.332-.554-.66-.814-1.004Z"/><path fill="#000" stroke="#000" stroke-width="17.778" d="M93.356 24.098c.12-.023.246-.017.367-.017.994.008 1.99-.007 2.984.008-.12.29-.236.58-.34.875a3.6 3.6 0 0 1-.664.031c-.643-.002-1.286.001-1.93 0a5 5 0 0 1-.763-.027c.12-.287.21-.591.346-.87Zm11.945-.016c.947.005 1.895-.006 2.843.005-.049.165-.1.329-.166.488-.425 1.078-.834 2.16-1.247 3.242a5 5 0 0 1-.719.023c-.626-.002-1.253.001-1.879 0-.253.003-.505.007-.756-.024.483-1.24.952-2.489 1.44-3.725.16-.012.323-.01.484-.01Zm-24.419 2.757c.113-.018.233-.015.349-.015.995.01 1.991-.007 2.986.008-.119.326-.25.639-.342.974a2.7 2.7 0 0 1-.512.037c-.95-.013-1.9.012-2.85-.013.103-.333.22-.677.369-.991Z"/><path fill="#000" stroke="#F3C733" stroke-width="17.778" d="M83.625 31.66c.166-.015.334-.008.5-.007.276.815.59 1.614.963 2.39.423.853.901 1.679 1.444 2.463.013-.144.02-.287.039-.43q3.896.005 7.79 0a33 33 0 0 1-.741-3.314c-.06-.371-.146-.73-.142-1.109l.475-.002c.138.899.295 1.794.49 2.683.14.582.28 1.166.442 1.742 4.499.006 8.998-.002 13.496.005.113-.304.172-.615.258-.928.193-.722.329-1.47.469-2.204.096-.43.124-.868.221-1.298l.476.003c-.006.346-.074.68-.132 1.02a35 35 0 0 1-.752 3.401c2.625.007 5.252 0 7.878.004q.008.132.022.264c.152-.127.247-.29.346-.459.527-.823.985-1.69 1.371-2.587.208-.501.428-1.008.57-1.532.189-.049.37-.064.565-.061a18.8 18.8 0 0 1-4.18 7.177c-.402.467-.862.863-1.308 1.285-2.234 1.977-4.952 3.44-7.849 4.167a19.4 19.4 0 0 1-3.879.578c-.671.002-1.347.026-2.017-.022a19.2 19.2 0 0 1-5.705-1.27 18.9 18.9 0 0 1-5.925-3.724c-.479-.421-.898-.892-1.33-1.359-1.637-1.86-2.928-4.046-3.72-6.397-.054-.154-.113-.317-.135-.48Zm2.986 4.933c.21.345.47.662.722.976a18.3 18.3 0 0 0 4.137 3.775 18.3 18.3 0 0 0 6.396 2.684c.492.094.989.196 1.489.232-.86-.52-1.56-1.223-2.16-2.022-1.25-1.653-2.082-3.684-2.688-5.653q-3.54-.002-7.081 0c-.272-.002-.543-.004-.815.008Zm8.442-.003c.07.312.182.609.289.91.626 1.785 1.5 3.615 2.756 5.046.705.776 1.606 1.486 2.64 1.743 1.051.288 2.155.025 3.058-.553.755-.485 1.38-1.123 1.91-1.842.478-.615.85-1.29 1.214-1.975a21 21 0 0 0 1.311-3.33 28 28 0 0 0-.797-.005H96.109c-.352.001-.704-.003-1.056.006Zm13.703.009c-.262.928-.61 1.834-.99 2.72-.647 1.44-1.473 2.856-2.599 3.978-.347.355-.75.624-1.145.92.317.006.618-.032.927-.099a18.36 18.36 0 0 0 9.061-4.483c.282-.28.585-.53.849-.826.215-.241.45-.46.656-.708.405-.483.823-.973 1.16-1.508l-.304-.007q-3.402-.002-6.805-.001c-.269 0-.542-.01-.81.014Z"/><path fill="#000" stroke="#000" stroke-width="17.778" d="m87.426 36.584 7.081.001c.606 1.97 1.438 4 2.688 5.653.6.8 1.3 1.503 2.16 2.022-.5-.036-.997-.138-1.489-.232a18.3 18.3 0 0 1-6.396-2.684 18.3 18.3 0 0 1-4.137-3.775c-.252-.314-.512-.631-.722-.976.272-.012.543-.01.815-.009Z"/><path fill="#000" stroke="#000" stroke-width="17.778" d="M108.231 36.59a21 21 0 0 1-1.311 3.329c-.364.686-.736 1.36-1.213 1.975-.531.72-1.156 1.357-1.911 1.842-.903.578-2.007.84-3.058.553-1.034-.257-1.935-.968-2.64-1.743-1.256-1.431-2.13-3.261-2.756-5.047-.107-.3-.218-.597-.289-.91.352-.008.704-.004 1.056-.005h11.325q.4-.002.797.006Z"/><path fill="#000" stroke="#000" stroke-width="17.778" d="M109.567 36.585q3.402-.002 6.804 0l.304.008c-.337.535-.755 1.025-1.16 1.508-.206.248-.441.467-.656.708-.264.296-.567.547-.849.826a18.36 18.36 0 0 1-9.061 4.483 4 4 0 0 1-.927.1c.395-.297.798-.566 1.145-.921 1.126-1.122 1.952-2.537 2.599-3.978.381-.886.728-1.792.991-2.72.267-.025.54-.013.81-.014Z"/><path fill="#000" d="M76 0h52v52H76zm7.732 20.071.369.006.008.338c.37-1.02.768-2.074 1.297-3.025a20 20 0 0 1 1.102-1.822c2.472-.008 4.945 0 7.418-.004.174 0 .358-.01.529.019-.03.197-.098.376-.15.568-.175.666-.34 1.337-.473 2.013-.104.615-.275 1.254-.306 1.878l.473-.002c.181-1.022.346-2.035.614-3.04.11-.481.26-.951.38-1.429q.33-.009.66-.006c4.203.001 8.406-.003 12.609.001.413 1.25.681 2.585.91 3.88.03.212.061.422.118.628h.417l.071-.075a36 36 0 0 0-.502-2.62c-.133-.609-.311-1.207-.459-1.812 2.65-.007 5.299.002 7.949-.004a18 18 0 0 1 2.236 4.374q.271.05.547.041a18.4 18.4 0 0 0-2.463-4.846 18.9 18.9 0 0 0-8.075-6.516 19.1 19.1 0 0 0-6.656-1.483 69 69 0 0 0-1.523.002c-2.046.103-4.073.51-5.987 1.249-2.17.84-4.18 2.079-5.9 3.647a18.9 18.9 0 0 0-5.006 7.37 3.4 3.4 0 0 0-.207.67m-5.508 2.142c.264.377.605.706.853 1.09-.027.204-.133.4-.202.593L76.67 29.64c2.993.01 5.986.003 8.978.006q.321 0 .641-.007c.356-.926.706-1.854 1.066-2.78.243-.617.462-1.244.717-1.857-1.789-.015-3.58-.003-5.369-.007-.373-.006-.737.02-1.108-.027.116-.291.233-.583.342-.877.375-.016.747-.007 1.122-.009h4.468c.31-.003.614.02.923-.03.21-.62.46-1.227.69-1.84-3.211-.01-6.424-.002-9.636-.005-.427.002-.853-.005-1.28.006m11.42 0c.263.38.588.718.869 1.088-.456 1.165-.9 2.332-1.357 3.496.235.035.47.034.707.03 1.916.001 3.83-.002 5.746 0-.078.336-.24.64-.308.979-.22.04-.44.04-.664.034h-5.13a10 10 0 0 0-.757.014c-.187.606-.452 1.19-.667 1.787 3.205 0 6.41.005 9.614-.002q.424-1.105.852-2.207c.347-.945.727-1.877 1.08-2.82q.326-.87.668-1.735a6 6 0 0 0 .236-.667c-3.1-.008-6.2-.001-9.299-.004-.53.002-1.06-.005-1.59.006m11.448.002c.255.326.522.644.78.968.091.103.065.202.026.32-.708 1.83-1.42 3.703-2.127 5.536a6 6 0 0 0-.21.6c2.827.006 5.655 0 8.482.003.374-.003.748.007 1.121-.008.627-1.657 1.272-3.31 1.9-4.967.315-.818.638-1.634.94-2.457-3.487-.006-6.974 0-10.461-.003q-.225-.002-.451.008m11.458-.002c.26.344.541.672.814 1.004.086.096.01.23-.022.332-.144.343-.263.696-.402 1.04-.327.824-.626 1.656-.954 2.478-.324.86-.658 1.713-.984 2.572q1.567.008 3.135 0c.473-1.255.959-2.504 1.437-3.757.227-.612.483-1.215.696-1.832.677-.027 1.358-.006 2.037-.011-.083.371-.25.725-.384 1.081l-1.527 3.981a5 5 0 0 0-.184.54c1.037-.001 2.075.007 3.112-.004.44-1.164.9-2.338 1.336-3.497.285-.696.527-1.409.817-2.103.685.003 1.37-.004 2.055.004-.704 1.868-1.434 3.732-2.139 5.6l2.138.001c.339-.002.673.01 1.012-.013.174-.558.414-1.098.614-1.648.702-1.804 1.385-3.62 2.088-5.424a4 4 0 0 0 .099-.349q-6.833-.002-13.664 0c-.377.001-.754-.005-1.13.005m7.123 9.49a2 2 0 0 0-.565.062c-.141.524-.362 1.031-.57 1.532a18 18 0 0 1-1.371 2.587c-.099.169-.194.332-.346.46a6 6 0 0 1-.022-.265c-2.626-.004-5.253.003-7.878-.004a35 35 0 0 0 .753-3.402c.057-.34.125-.673.131-1.019q-.238 0-.476-.003c-.097.43-.125.868-.221 1.298-.14.734-.276 1.482-.469 2.204-.086.313-.145.624-.258.928-4.498-.008-8.997.001-13.496-.005-.162-.576-.302-1.16-.443-1.742a43 43 0 0 1-.489-2.683l-.475.002c-.004.379.083.738.142 1.109.2 1.118.429 2.223.742 3.315q-3.895.004-7.791 0c-.02.142-.026.285-.04.429a20 20 0 0 1-1.443-2.464 21 21 0 0 1-.963-2.389c-.166 0-.334-.008-.5.006.022.163.081.326.135.48.793 2.35 2.083 4.537 3.72 6.397.432.468.851.938 1.33 1.36a18.9 18.9 0 0 0 5.925 3.724c1.82.712 3.755 1.14 5.706 1.269.669.048 1.345.024 2.016.022a19.4 19.4 0 0 0 3.879-.578c2.897-.726 5.615-2.19 7.849-4.167.446-.421.906-.818 1.308-1.285a18.8 18.8 0 0 0 4.18-7.177"/><path fill="#F3C733" d="M100.832 7.135a69 69 0 0 1 1.523-.002c2.28.095 4.555.589 6.656 1.483a18.9 18.9 0 0 1 8.075 6.516 18.4 18.4 0 0 1 2.463 4.846 2.6 2.6 0 0 1-.547-.041 18 18 0 0 0-2.236-4.374c-2.65.006-5.299-.003-7.949.005.148.604.326 1.202.459 1.81.207.867.36 1.742.502 2.621l-.071.075h-.417a5 5 0 0 1-.118-.627c-.229-1.296-.497-2.63-.91-3.881-4.203-.004-8.406 0-12.61-.002q-.33-.002-.66.007c-.12.478-.269.948-.379 1.429-.268 1.005-.433 2.018-.614 3.04l-.473.002c.03-.624.202-1.263.306-1.878.133-.676.298-1.347.473-2.014.052-.191.12-.37.15-.567-.171-.028-.356-.019-.53-.02-2.472.005-4.945-.003-7.417.005a20 20 0 0 0-1.102 1.822c-.53.95-.927 2.004-1.297 3.024l-.008-.337-.37-.006c.041-.233.121-.451.208-.67a18.9 18.9 0 0 1 5.006-7.37 18.9 18.9 0 0 1 5.9-3.647 19.3 19.3 0 0 1 5.987-1.249m-5.643 7.925q6.452.007 12.904 0a3.6 3.6 0 0 0-.205-.658c-.552-1.536-1.28-3.096-2.283-4.392-.616-.787-1.315-1.484-2.215-1.94a4.4 4.4 0 0 0-1.338-.423c-.39-.02-.812-.034-1.191.07-.754.164-1.443.563-2.024 1.063-.832.695-1.502 1.627-2.053 2.554a19 19 0 0 0-1.397 3.075 3.4 3.4 0 0 0-.198.65m3.66-7.215c-.597.102-1.189.2-1.774.359-.8.213-1.592.466-2.358.78a18.4 18.4 0 0 0-7.45 5.574c-.132.154-.253.304-.322.499 2.124.015 4.248.002 6.371.006.441-.003.882.007 1.323-.008a19.6 19.6 0 0 1 1.008-2.616c.414-.925.93-1.807 1.531-2.625a9.6 9.6 0 0 1 1.3-1.403c.243-.22.534-.37.758-.608q-.194.014-.387.042m5.168-.013.224.154c.733.498 1.369 1.172 1.896 1.88 1.133 1.537 1.928 3.382 2.509 5.193 2.05.01 4.101.001 6.151.004.527-.002 1.055.005 1.583-.008-.343-.544-.796-1.023-1.223-1.5-.439-.508-.934-.953-1.442-1.405a19 19 0 0 0-3.038-2.155 18.7 18.7 0 0 0-5.373-2c-.434-.072-.844-.182-1.287-.163"/><path fill="#000" d="M102.052 7.647c.462.074.922.207 1.338.423.9.456 1.599 1.153 2.215 1.94 1.003 1.296 1.731 2.856 2.283 4.393a3.6 3.6 0 0 1 .205.657q-6.452.007-12.904 0c.04-.226.114-.439.198-.65.38-1.063.834-2.097 1.397-3.076.551-.927 1.221-1.86 2.053-2.554.581-.5 1.27-.899 2.024-1.063.379-.104.801-.09 1.191-.07"/><path fill="#000" d="M99.236 7.803c-.225.237-.515.388-.758.608a9.6 9.6 0 0 0-1.3 1.403c-.602.818-1.117 1.7-1.531 2.625a19.5 19.5 0 0 0-1.008 2.616c-.44.015-.882.005-1.323.008-2.123-.004-4.248.009-6.37-.006.068-.195.19-.345.322-.498a18.4 18.4 0 0 1 7.449-5.575 19 19 0 0 1 2.358-.78c.585-.16 1.177-.257 1.774-.36q.192-.027.387-.041m4.781.029c.443-.02.853.091 1.287.163a18.7 18.7 0 0 1 5.373 2 19 19 0 0 1 3.038 2.155c.508.452 1.003.897 1.442 1.405.428.477.881.956 1.223 1.5-.528.013-1.055.006-1.583.008-2.05-.003-4.101.006-6.151-.004-.581-1.81-1.376-3.656-2.509-5.192-.527-.709-1.163-1.383-1.895-1.88z"/><path fill="#F3C733" d="M78.224 22.213c.427-.011.853-.004 1.28-.006 3.212.003 6.425-.006 9.636.005-.23.613-.48 1.22-.69 1.84-.309.05-.612.027-.923.03H83.06c-.375.002-.747-.007-1.122.009q-.165.44-.342.877c.371.048.735.021 1.108.027 1.79.004 3.58-.008 5.37.007-.256.613-.474 1.24-.718 1.858-.36.924-.71 1.853-1.066 2.779a25 25 0 0 1-.64.007c-2.993-.003-5.986.004-8.979-.006q1.104-2.872 2.205-5.744c.07-.192.175-.39.202-.593-.248-.384-.59-.713-.853-1.09m2.29 5.617c.95.025 1.9 0 2.85.013.173.004.34-.008.51-.037.093-.335.224-.648.344-.974-.996-.015-1.992.001-2.987-.008-.116 0-.236-.003-.35.015a8 8 0 0 0-.368.991m9.13-5.618c.53-.011 1.06-.004 1.59-.006 3.1.003 6.2-.004 9.299.004a6 6 0 0 1-.236.667q-.34.865-.668 1.736c-.353.942-.733 1.874-1.08 2.819q-.428 1.102-.852 2.207c-3.204.007-6.41.002-9.614.002.215-.598.48-1.18.667-1.787.253-.018.505-.017.758-.015h5.129c.223.007.444.007.665-.033.068-.339.229-.643.307-.979-1.915-.002-3.83.001-5.746 0a4 4 0 0 1-.707-.03c.457-1.164.9-2.331 1.357-3.496-.28-.37-.606-.708-.87-1.089m3.366 2.756c.254.033.508.031.764.027.643.001 1.286-.002 1.93 0 .222.007.442.003.662-.031q.159-.442.34-.875c-.994-.015-1.989 0-2.983-.008-.121 0-.248-.006-.367.017-.136.279-.225.583-.346.87m8.534-2.761c3.487.002 6.974-.003 10.461.003-.302.823-.625 1.639-.94 2.457-.628 1.657-1.273 3.31-1.9 4.967-.373.015-.747.005-1.121.008-2.827-.002-5.655.003-8.482-.003q.09-.305.21-.6c.707-1.834 1.419-3.707 2.127-5.535.039-.12.065-.218-.026-.32-.258-.325-.525-.643-.78-.97q.225-.007.451-.007m3.274 1.884c-.488 1.236-.957 2.485-1.44 3.724.251.032.503.028.756.024h1.879c.24.006.48.005.719-.022.413-1.082.822-2.164 1.247-3.242a5 5 0 0 0 .166-.488c-.947-.01-1.896 0-2.843-.006-.161 0-.324-.002-.484.01m7.733-1.878c.376-.01.753-.004 1.13-.006l13.664.001a4 4 0 0 1-.099.35c-.703 1.803-1.386 3.619-2.088 5.424-.2.55-.44 1.089-.614 1.647-.339.022-.673.01-1.012.013l-2.138-.001c.705-1.868 1.435-3.732 2.139-5.6-.685-.008-1.37 0-2.055-.004-.29.694-.532 1.407-.817 2.103-.436 1.16-.896 2.333-1.337 3.497-1.036.01-2.074.003-3.111.005q.075-.276.184-.54l1.527-3.982c.133-.356.301-.71.384-1.081-.679.005-1.36-.016-2.038.011-.212.617-.468 1.22-.695 1.832-.478 1.253-.964 2.502-1.437 3.758q-1.568.007-3.135-.002c.326-.858.66-1.712.984-2.571.328-.822.627-1.654.954-2.477.139-.345.258-.698.402-1.041.032-.103.108-.236.022-.332-.273-.332-.554-.66-.814-1.004"/><path fill="#000" d="M93.356 24.098c.12-.023.246-.017.367-.017.994.008 1.99-.007 2.984.008-.12.29-.236.58-.34.875a3.6 3.6 0 0 1-.664.031c-.643-.002-1.286.001-1.93 0a5 5 0 0 1-.763-.027c.12-.287.21-.591.346-.87m11.945-.016c.947.005 1.895-.006 2.843.005-.049.165-.1.329-.166.488-.425 1.078-.834 2.16-1.247 3.242a5 5 0 0 1-.719.023c-.626-.002-1.253.001-1.879 0-.253.003-.505.007-.756-.024.483-1.24.952-2.489 1.44-3.725.16-.012.323-.01.484-.01m-24.419 2.758c.113-.018.233-.015.349-.015.995.01 1.991-.007 2.986.008-.119.326-.25.639-.342.974a2.7 2.7 0 0 1-.512.037c-.95-.013-1.9.012-2.85-.013.103-.333.22-.677.369-.991"/><path fill="#F3C733" d="M83.625 31.66c.166-.015.334-.008.5-.007.276.815.59 1.614.963 2.39.423.853.901 1.679 1.444 2.463.013-.144.02-.287.039-.43q3.896.005 7.79 0a33 33 0 0 1-.741-3.314c-.06-.371-.146-.73-.142-1.109l.475-.002c.138.899.295 1.794.49 2.683.14.582.28 1.166.442 1.742 4.499.006 8.998-.002 13.496.005.113-.304.172-.615.258-.928.193-.722.329-1.47.469-2.204.096-.43.124-.868.221-1.298l.476.003c-.006.346-.074.68-.132 1.02a35 35 0 0 1-.752 3.401c2.625.007 5.252 0 7.878.004q.008.132.022.264c.152-.127.247-.29.346-.459.527-.823.985-1.69 1.371-2.587.208-.501.428-1.008.57-1.532.189-.049.37-.064.565-.061a18.8 18.8 0 0 1-4.18 7.177c-.402.467-.862.863-1.308 1.285-2.234 1.977-4.952 3.44-7.849 4.167a19.4 19.4 0 0 1-3.879.578c-.671.002-1.347.026-2.017-.022a19.2 19.2 0 0 1-5.705-1.27 18.9 18.9 0 0 1-5.925-3.724c-.479-.421-.898-.892-1.33-1.359-1.637-1.86-2.928-4.046-3.72-6.397-.054-.154-.113-.317-.135-.48m2.986 4.933c.21.345.47.662.722.976a18.3 18.3 0 0 0 4.137 3.775 18.3 18.3 0 0 0 6.396 2.684c.492.094.989.196 1.489.232-.86-.52-1.56-1.223-2.16-2.022-1.25-1.653-2.082-3.684-2.688-5.653q-3.54-.002-7.081 0c-.272-.002-.543-.004-.815.008m8.442-.003c.07.312.182.609.289.91.626 1.785 1.5 3.615 2.756 5.046.705.776 1.606 1.486 2.64 1.743 1.051.288 2.155.025 3.058-.553.755-.485 1.38-1.123 1.91-1.842.478-.615.85-1.29 1.214-1.975a21 21 0 0 0 1.311-3.33 28 28 0 0 0-.797-.005H96.109c-.352.001-.704-.003-1.056.006m13.703.009c-.262.928-.61 1.834-.99 2.72-.647 1.44-1.473 2.856-2.599 3.978-.347.355-.75.624-1.145.92.317.006.618-.032.927-.099a18.36 18.36 0 0 0 9.061-4.483c.282-.28.585-.53.849-.826.215-.241.45-.46.656-.708.405-.483.823-.973 1.16-1.508l-.304-.007q-3.402-.002-6.805-.001c-.269 0-.542-.01-.81.014"/><path fill="#000" d="m87.426 36.584 7.081.001c.606 1.97 1.438 4 2.688 5.653.6.8 1.3 1.503 2.16 2.022-.5-.036-.997-.138-1.489-.232a18.3 18.3 0 0 1-6.396-2.684 18.3 18.3 0 0 1-4.137-3.775c-.252-.314-.512-.631-.722-.976.272-.012.543-.01.815-.009"/><path fill="#000" d="M108.231 36.59a21 21 0 0 1-1.311 3.329c-.364.686-.736 1.36-1.213 1.975-.531.72-1.156 1.357-1.911 1.842-.903.578-2.007.84-3.058.553-1.034-.257-1.935-.968-2.64-1.743-1.256-1.431-2.13-3.261-2.756-5.047-.107-.3-.218-.597-.289-.91.352-.008.704-.004 1.056-.005h11.325q.4-.002.797.006"/><path fill="#000" d="M109.567 36.585q3.402-.002 6.804 0l.304.008c-.337.535-.755 1.025-1.16 1.508-.206.248-.441.467-.656.708-.264.296-.567.547-.849.826a18.36 18.36 0 0 1-9.061 4.483 4 4 0 0 1-.927.1c.395-.297.798-.566 1.145-.921 1.126-1.122 1.952-2.537 2.599-3.978.381-.886.728-1.792.991-2.72.267-.025.54-.013.81-.014"/></g></g><defs><clipPath id="a"><path fill="#fff" d="M0 0h128v128H0z"/></clipPath><clipPath id="b"><rect width="52" height="52" x="76" fill="#fff" rx="26"/></clipPath></defs></svg>
