<svg width="128" height="128" viewBox="0 0 128 128" fill="none" xmlns="http://www.w3.org/2000/svg">
<g clip-path="url(#clip0_175_430)">
<path d="M64 128C99.346 128 128 99.346 128 64C128 28.654 99.346 0 64 0C28.654 0 0 28.654 0 64C0 99.346 28.654 128 64 128Z" fill="#2F63F9"/>
<path d="M91.3 25.24C93.433 26.817 95.374 28.558 97.28 30.4L98.009 31.09C102.995 35.914 106.696 42.384 108.8 48.96V49.92H107.52L107.19 49.05C105.47 44.621 103.532 40.704 100.8 36.8C95.283 36.337 95.283 36.337 88.98 36.44L82.471 36.437L77.44 36.48L78.72 41.6C79.312 44.371 79.535 47.092 79.68 49.92H78.4L78.073 47.874L77.64 45.18L77.213 42.514C76.879 40.4998 76.528 38.4884 76.16 36.48H53.12C51.837 43.184 51.837 43.184 50.88 49.92H49.6C49.681 45.457 50.66 41.165 51.52 36.8C47.7266 36.716 43.9333 36.6494 40.14 36.6L33.739 36.487L28.48 36.8C25.534 41.008 23.441 45.075 21.76 49.92H20.48C22.445 39.947 29.976 30.612 38.265 25.014C54.663 14.624 74.975 13.989 91.3 25.24Z" fill="#E6C040"/>
<path d="M21.76 80H23.04L23.521 80.985C24.736 83.447 25.987 85.857 27.409 88.206C27.84 88.96 27.84 88.96 28.16 89.92L51.52 89.6L49.92 81.28V80H51.2C51.86 83.302 52.49 86.611 53.12 89.92H76.16C76.6476 87.0144 77.1186 84.106 77.573 81.195L77.76 80H79.36C79.13 82.034 78.783 84.03 78.4 86.04L78.06 87.837C77.76 89.28 77.76 89.28 77.44 89.92C81.273 89.987 85.107 90.02 88.94 90.04L95.409 90.107L100.8 89.6C103.144 85.996 103.144 85.996 105.14 82.28L105.781 80.963L106.24 80H107.52C106.308 86.062 101.76 91.322 97.6 95.68L96.821 96.521C89.409 104.299 78.081 109.114 67.419 109.516C59.616 109.596 52.177 108.792 45.12 105.28L43.916 104.695C37.633 101.522 32.089 97.152 27.84 91.52L27.255 90.745C21.76 83.171 21.76 83.171 21.76 80Z" fill="#E4BF42"/>
<path d="M113.081 56.4C114.979 57.667 116.406 59.67 117.005 61.875C117.527 65.707 117.182 68.707 115.04 71.92C113.062 73.757 110.579 75.102 107.84 75.2L106.964 75.247C103.586 75.359 100.995 74.66 98.24 72.64C95.746 70.193 95.306 68.034 95.2 64.66C95.256 61.852 95.661 60.014 97.535 57.916C101.778 53.869 108.048 53.756 113.081 56.4Z" fill="#EFC537"/>
<path d="M54.72 55.04C60.8 55.04 60.8 55.04 62.413 56.353L63.56 58.12L64.803 59.969L65.92 61.76L66.877 63.181C68.8 66.053 68.8 66.053 68.8 66.88H69.44L69.281 65.731C69.082 63.594 69.09 61.487 69.101 59.341L69.109 56.899L69.12 55.04H74.88V74.88C68.8 74.88 68.8 74.88 67.456 73.954L66.66 72.7L65.764 71.371L64.96 70.08C64.4986 69.45 64.032 68.8233 63.56 68.2C62.49 66.719 61.496 65.204 60.48 63.68V74.88H54.72V55.04Z" fill="#ECC33A"/>
<path d="M35.52 55.04H53.12V60.16H40.96V62.4H52.48V67.52H40.96V69.76H53.12V74.88H35.52V55.04Z" fill="#EDC439"/>
<path d="M29.76 91.2H52.16C52.6767 92.5711 53.1847 93.9455 53.684 95.323C55.364 99.895 57.121 103.951 60.48 107.52V107.84C55.494 108.011 50.577 106.371 46.08 104.32L44.947 103.812C39.222 101.108 33.672 96.847 29.76 91.84V91.2Z" fill="#3264F6"/>
<path d="M13.12 55.04H18.56V62.4H27.84V55.04H33.28V74.88H27.84V67.52H18.56V74.88H13.12V55.04Z" fill="#F0C536"/>
<path d="M82.051 91.169L88.34 91.18L94.631 91.189L99.52 91.2C95.63 98.978 85.281 103.868 77.44 106.56C74.586 107.42 71.77 107.711 68.8 107.84L69.64 106.76C72.83 102.48 74.824 97.711 76.427 92.643C77.363 89.824 77.57 91.197 82.051 91.169Z" fill="#3264F6"/>
<path d="M60.48 18.56L59.66 19.62C56.06 24.462 54.174 29.492 52.16 35.2H29.76C33.49 27.738 43.302 22.865 50.74 20.2C53.874 19.214 57.19 18.56 60.48 18.56ZM68.8 18.56C79.543 18.6 89.712 24.73 97.12 32.04C99.52 34.461 99.52 34.461 99.52 35.2H77.12C76.16 32.64 76.16 32.64 75.725 31.427C74.199 27.217 72.486 23.475 69.702 19.945C69.12 19.2 69.12 19.2 68.8 18.56Z" fill="#3164F7"/>
<path d="M65.5999 18.24C70.2479 20.347 72.4319 25.511 74.1879 29.974C75.5199 33.643 75.5199 33.643 75.5199 35.2H53.4399C55.1139 29.063 57.3889 22.47 62.7199 18.56C63.7529 18.044 64.4499 18.112 65.5999 18.24Z" fill="#3164F7"/>
<path d="M53.4399 91.2H75.5199C74.7259 96.76 72.0259 103.184 67.6829 106.927C66.2059 108.017 65.1729 108.402 63.3599 108.16C57.5119 104.505 55.2499 97.533 53.4399 91.2Z" fill="#3264F6"/>
<path d="M76.8 55.04H82.24V69.76H93.76V74.88H76.8V55.04Z" fill="#F0C536"/>
<path d="M105.84 60.08L107.195 60.055C108.542 60.165 109.284 60.369 110.4 61.12C111.787 62.831 111.552 64.786 111.36 66.88C110.973 68.062 110.703 68.565 109.732 69.317C108.486 69.909 107.475 69.91 106.1 69.92L104.681 69.95C103.127 69.726 102.523 69.271 101.44 68.16C100.935 67.15 101.027 66.16 101 65.04L100.953 63.685C101.153 62.145 101.624 61.553 102.72 60.48C103.729 59.975 104.721 60.092 105.84 60.08Z" fill="#3264F6"/>
<g clip-path="url(#clip1_175_430)">
<path d="M0 0H52V52H0V0ZM7.44402 19.7813C7.55016 19.8057 7.66594 19.8179 7.76699 19.8605C7.81879 19.9189 7.84418 20.0032 7.87871 20.0728C8.38246 18.5717 9.0548 17.1321 9.90488 15.7955C10.0395 15.5959 10.1547 15.3598 10.3299 15.1938C10.5305 15.1394 10.7616 15.1724 10.9688 15.1663C13.2031 15.1684 15.4375 15.1673 17.6719 15.1673C17.9649 15.1684 18.2559 15.1562 18.5484 15.179C18.4971 15.4725 18.3986 15.7498 18.3239 16.0377C18.0329 17.1417 17.81 18.2741 17.618 19.3995C17.5942 19.5345 17.584 19.6711 17.5764 19.8077C17.7455 19.8296 17.9034 19.8306 18.073 19.8133C18.1573 19.5401 18.1771 19.2623 18.2249 18.982C18.4275 17.7841 18.7129 16.6065 19.0389 15.4365C19.0643 15.3568 19.0927 15.2775 19.1202 15.1978C19.3964 15.1404 19.6635 15.1714 19.957 15.1668C24.1693 15.1653 28.3943 15.1704 32.6051 15.1648C32.698 15.1673 32.7884 15.1826 32.8793 15.1983C32.9575 15.4065 33.0134 15.6198 33.0688 15.8346C33.3907 17.0219 33.669 18.2376 33.8467 19.4553C33.8655 19.5777 33.897 19.696 33.9285 19.8154C34.0971 19.8301 34.2565 19.8291 34.4246 19.8103C34.4175 19.7011 34.4109 19.5945 34.3952 19.4863C34.2093 18.3544 33.9808 17.2301 33.6974 16.1185C33.6182 15.8021 33.5085 15.5 33.4516 15.179C33.7787 15.1541 34.1011 15.1704 34.4297 15.1673C36.7661 15.1658 39.1046 15.1704 41.4411 15.1648C41.5386 15.1739 41.6675 15.1541 41.7325 15.2435C41.8976 15.4375 42.022 15.6691 42.1611 15.8823C42.8137 16.9208 43.3626 18.0202 43.8034 19.1643C43.8689 19.3319 43.9187 19.5168 44.0126 19.6711C44.1726 19.7427 44.3808 19.7275 44.5529 19.7265C44.4996 19.5071 44.4219 19.2964 44.3402 19.0866C43.2128 16.085 41.3222 13.3722 38.9086 11.2623C37.0571 9.6398 34.8954 8.36418 32.5736 7.54355C30.2052 6.69449 27.6585 6.32633 25.1464 6.43094C23.6981 6.49746 22.2559 6.72191 20.8548 7.09617C17.9959 7.87617 15.3217 9.30973 13.097 11.2684C10.5615 13.4855 8.61199 16.3597 7.50598 19.5421C7.48262 19.6209 7.46332 19.7016 7.44402 19.7813ZM4.69777 22.0705C4.91613 22.3839 5.17715 22.6728 5.41887 22.9689C5.47625 23.043 5.54277 23.1227 5.57527 23.2116C5.56156 23.3396 5.50469 23.466 5.45898 23.5854C5.27363 24.0343 5.10961 24.4903 4.93543 24.9432C4.59672 25.8233 4.24734 26.6993 3.92336 27.5849C3.8868 27.6819 3.84059 27.7733 3.79437 27.8657C3.55316 27.8804 3.315 27.8647 3.07531 27.8977C2.96816 28.1252 2.88996 28.3629 2.80059 28.5975C2.6523 28.9971 2.48016 29.3902 2.35422 29.7974C3.76949 29.8111 5.18629 29.7949 6.60156 29.805C6.74883 29.8086 6.89609 29.802 7.04336 29.7929C7.20535 29.4821 7.2998 29.1373 7.43437 28.8133C7.54762 28.5061 7.6893 28.2034 7.76852 27.888C7.53594 27.8713 7.30285 27.8784 7.06977 27.8693C7.19926 27.462 7.37598 27.07 7.52477 26.6693C8.02394 25.3591 8.5343 24.053 9.03246 22.7429C9.12031 22.5144 9.21629 22.2909 9.28535 22.0563C7.84773 22.0467 6.40809 22.0573 4.96996 22.0513C4.88363 22.0589 4.77902 22.0396 4.69777 22.0705ZM8.95477 29.7979C12.0768 29.8091 15.2085 29.7974 18.332 29.8035C18.5286 29.8071 18.7241 29.8081 18.9201 29.7903C19.0414 29.5557 19.1151 29.3064 19.21 29.0606C20.0043 27.009 20.7838 24.9509 21.5764 22.8988C21.6836 22.617 21.8034 22.3519 21.8796 22.0599C21.5937 22.0441 21.3093 22.0543 21.0234 22.0533C17.7902 22.0528 14.5575 22.0533 11.3242 22.0528C11.0723 22.0543 10.8189 22.0446 10.5676 22.0589C10.8139 22.4367 11.1445 22.7591 11.4075 23.1237C11.5004 23.2329 11.4171 23.3497 11.3841 23.467C11.0541 24.2816 10.7484 25.1047 10.4366 25.9259C9.96582 27.1202 9.52605 28.3263 9.05074 29.5186C9.0157 29.6105 8.98523 29.7045 8.95477 29.7979ZM22.4697 22.0716C22.6875 22.3986 22.9653 22.6941 23.2106 23.0014C23.2598 23.0659 23.3147 23.1364 23.3431 23.2131C23.333 23.3254 23.2842 23.4376 23.2451 23.5422C23.0105 24.1282 22.7779 24.7147 22.5626 25.3079C22.2869 26.0548 21.9781 26.7886 21.7085 27.5377C21.4774 28.1536 21.2352 28.765 20.9975 29.3785C20.9432 29.5141 20.9026 29.6532 20.868 29.7949C21.1057 29.8081 21.3439 29.8035 21.582 29.8025C24.375 29.802 27.168 29.8025 29.9609 29.802C30.2438 29.801 30.5256 29.8142 30.8085 29.7929C30.8547 29.7014 30.9009 29.6105 30.9375 29.5141C31.3518 28.3811 31.8048 27.2629 32.2253 26.1315C32.6463 25.058 33.0495 23.9779 33.4659 22.9029C33.5735 22.6185 33.6995 22.3564 33.769 22.0594C33.3633 22.0416 32.9565 22.0573 32.5508 22.0528C29.2627 22.0518 25.9731 22.0543 22.685 22.0518C22.6175 22.0584 22.5321 22.0421 22.4697 22.0716ZM34.3043 22.068C34.5328 22.39 34.8029 22.686 35.0487 22.9948C35.099 23.0608 35.1553 23.1329 35.1818 23.2121C35.1772 23.2893 35.1503 23.3685 35.1254 23.4416C34.4454 25.2032 33.7741 26.9669 33.0957 28.728C32.9677 29.0845 32.8088 29.4328 32.7047 29.7969C33.4313 29.8116 34.1595 29.7984 34.8867 29.8025C35.2341 29.7969 35.585 29.8208 35.9303 29.7898C35.9927 29.6598 36.0511 29.5283 36.0989 29.3922C36.7098 27.789 37.3329 26.1904 37.9432 24.5873C38.0214 24.3821 38.088 24.1764 38.2007 23.9865C38.8995 23.9748 39.6028 23.9774 40.302 23.9865C40.0928 24.5832 39.8425 25.1662 39.6221 25.7593C39.2305 26.8023 38.8172 27.8368 38.4257 28.8798C38.3119 29.187 38.1748 29.4846 38.0844 29.7974C39.0152 29.8121 39.9476 29.7944 40.8789 29.805C41.0241 29.8086 41.1689 29.801 41.3136 29.7888C41.3583 29.6943 41.403 29.6024 41.44 29.5044C41.663 28.8889 41.9128 28.2836 42.1434 27.6712C42.5603 26.5535 43.0107 25.45 43.421 24.3293C43.4632 24.2089 43.519 24.0967 43.583 23.987C44.2848 23.9748 44.9907 23.9789 45.6925 23.985C45.5513 24.4283 45.3553 24.8534 45.1973 25.2911C44.9252 26.0142 44.6443 26.7338 44.365 27.4544C44.1132 28.1018 43.8765 28.7539 43.616 29.3978C43.5622 29.5288 43.5165 29.6623 43.4743 29.7974C44.4031 29.8116 45.3329 29.7954 46.2617 29.8055C46.409 29.8086 46.5563 29.8015 46.7035 29.7929C46.8437 29.5369 46.9148 29.2683 47.0229 28.9976C47.809 26.9699 48.5784 24.9351 49.3629 22.9069C49.4665 22.6276 49.6031 22.3488 49.6661 22.0609C49.3599 22.0426 49.0562 22.0548 48.75 22.0528C44.0045 22.0523 39.258 22.0538 34.512 22.0523C34.4444 22.0553 34.3698 22.0492 34.3043 22.068ZM44.685 31.8789C44.5052 31.8779 44.33 31.9003 44.1533 31.9292C44.0299 32.1491 43.9771 32.3822 43.8882 32.6158C43.3794 33.9762 42.7223 35.2777 41.9225 36.4899C41.8696 36.5666 41.8148 36.6417 41.7595 36.7159C41.7366 36.6239 41.7168 36.5315 41.6975 36.4386C41.407 36.4162 41.1191 36.432 40.8281 36.4295C38.7121 36.4289 36.5965 36.4295 34.4805 36.4295C34.1753 36.4279 33.8731 36.4411 33.5684 36.4178C33.6096 36.1359 33.701 35.8714 33.767 35.5956C34.0067 34.6196 34.2068 33.6345 34.3698 32.6427C34.4139 32.3659 34.4718 32.0998 34.4703 31.818C34.3083 31.8063 34.1479 31.8068 33.9859 31.8155C33.9026 32.0714 33.8879 32.3279 33.8447 32.5914C33.6868 33.5761 33.4836 34.5531 33.2353 35.5195C33.1566 35.817 33.0992 36.1131 32.9885 36.4015C32.6645 36.4584 32.3213 36.4208 31.9922 36.4289C27.9464 36.4295 23.9012 36.4289 19.8555 36.4295C19.5599 36.4259 19.2918 36.4533 19.0115 36.4015C18.9059 36.1273 18.8495 35.8434 18.7748 35.5601C18.5286 34.61 18.3275 33.6482 18.1695 32.6798C18.1198 32.3908 18.1101 32.0877 18.0146 31.816C17.8516 31.8063 17.6912 31.8058 17.5277 31.8175C17.5312 31.947 17.5373 32.076 17.5576 32.2039C17.7348 33.3272 17.9517 34.4505 18.2223 35.555C18.2914 35.8455 18.3874 36.1217 18.4316 36.4178C18.1269 36.4411 17.8247 36.4279 17.5195 36.4295C15.4207 36.4295 13.3214 36.4295 11.2227 36.4295C10.9429 36.4305 10.6641 36.4203 10.3848 36.435C10.3685 36.5666 10.3497 36.6981 10.334 36.8296C10.1999 36.6595 10.0786 36.4818 9.96328 36.2984C9.5032 35.5692 9.07867 34.8217 8.71965 34.0371C8.43477 33.4115 8.1575 32.7722 7.95285 32.1151C7.91984 32.015 7.87973 31.9206 7.84012 31.8221C7.68168 31.8129 7.49887 31.784 7.34449 31.8236C7.28457 31.8729 7.34906 31.977 7.35922 32.0394C7.68777 33.0002 8.05441 33.9412 8.52312 34.8436C9.90285 37.5807 11.9498 39.9816 14.4198 41.7955C16.35 43.2169 18.5433 44.2711 20.8548 44.9043C22.6281 45.3746 24.4695 45.6163 26.3047 45.5838C28.0597 45.5584 29.8152 45.2908 31.5027 44.8063C32.7514 44.4351 33.9645 43.9527 35.1173 43.3438C37.5807 42.0469 39.7658 40.2198 41.473 38.0199C42.7507 36.3817 43.7679 34.5373 44.4625 32.5787C44.5468 32.3482 44.6327 32.1196 44.685 31.8789Z" fill="black" stroke="black" stroke-width="17.7778"/>
<path d="M25.1463 6.43092C27.6585 6.32631 30.2051 6.69448 32.5736 7.54354C34.8953 8.36417 37.0571 9.63979 38.9085 11.2623C41.3222 13.3722 43.2128 16.0849 44.3401 19.0866C44.4219 19.2964 44.4996 19.5071 44.5529 19.7265C44.3807 19.7275 44.1725 19.7427 44.0126 19.6711C43.9186 19.5167 43.8689 19.3319 43.8033 19.1643C43.3626 18.0202 42.8136 16.9208 42.1611 15.8823C42.0219 15.669 41.8975 15.4375 41.7325 15.2435C41.6675 15.1541 41.5385 15.1739 41.441 15.1648C39.1046 15.1704 36.7661 15.1658 34.4296 15.1673C34.1011 15.1704 33.7786 15.1541 33.4516 15.179C33.5085 15.4999 33.6181 15.8021 33.6974 16.1185C33.9807 17.2301 34.2092 18.3544 34.3951 19.4863C34.4108 19.5944 34.4174 19.7011 34.4246 19.8103C34.2565 19.829 34.097 19.8301 33.9284 19.8153C33.8969 19.696 33.8655 19.5777 33.8467 19.4553C33.6689 18.2376 33.3906 17.0219 33.0687 15.8346C33.0133 15.6198 32.9575 15.4065 32.8793 15.1983C32.7884 15.1826 32.698 15.1673 32.6051 15.1648C28.3943 15.1704 24.1693 15.1653 19.957 15.1668C19.6635 15.1714 19.3964 15.1404 19.1201 15.1978C19.0927 15.2775 19.0642 15.3567 19.0389 15.4365C18.7128 16.6065 18.4274 17.7841 18.2248 18.982C18.1771 19.2623 18.1573 19.5401 18.073 19.8133C17.9034 19.8306 17.7455 19.8296 17.5764 19.8077C17.584 19.6711 17.5941 19.5345 17.618 19.3994C17.8099 18.2741 18.0329 17.1417 18.3239 16.0377C18.3985 15.7498 18.497 15.4725 18.5483 15.179C18.2558 15.1562 17.9648 15.1683 17.6718 15.1673C15.4374 15.1673 13.2031 15.1683 10.9687 15.1663C10.7615 15.1724 10.5305 15.1394 10.3299 15.1937C10.1547 15.3598 10.0394 15.5959 9.90483 15.7955C9.05475 17.1321 8.38241 18.5717 7.87866 20.0728C7.84413 20.0032 7.81874 19.9189 7.76694 19.8605C7.66588 19.8179 7.5501 19.8057 7.44397 19.7813C7.46327 19.7016 7.48256 19.6208 7.50592 19.5421C8.61194 16.3597 10.5614 13.4855 13.0969 11.2683C15.3217 9.30971 17.9958 7.87616 20.8548 7.09616C22.2558 6.7219 23.698 6.49745 25.1463 6.43092ZM19.3029 14.6306C19.3847 14.6356 19.4664 14.6402 19.5482 14.6428C23.6117 14.6428 27.6747 14.6428 31.7382 14.6428C32.0602 14.6407 32.3771 14.6549 32.6965 14.6306C32.6381 14.3812 32.5456 14.1451 32.4583 13.9054C31.8672 12.2718 31.0831 10.6229 29.9954 9.25842C29.286 8.37788 28.4141 7.59229 27.3431 7.18706C26.9165 7.02963 26.4544 6.94991 25.9999 6.93924C25.4155 6.95245 24.8264 7.08092 24.2998 7.33838C23.3126 7.8137 22.5336 8.57034 21.8704 9.42905C20.8436 10.7722 20.0992 12.3581 19.5274 13.942C19.4446 14.1695 19.3583 14.3944 19.3029 14.6306ZM10.7366 14.629C11.0362 14.6534 11.3292 14.6417 11.6289 14.6428C13.7109 14.6433 15.7929 14.6428 17.8749 14.6428C18.1629 14.6402 18.4376 14.661 18.7235 14.623C18.7723 14.5123 18.82 14.4015 18.8565 14.2858C19.1739 13.2778 19.5827 12.3124 20.0489 11.3648C20.7162 10.0537 21.5774 8.73639 22.6987 7.76901C22.9769 7.52018 23.2908 7.32417 23.5828 7.09413C22.3127 7.24901 21.0574 7.55624 19.8448 7.96045C16.5298 9.09084 13.5458 11.1551 11.3176 13.8572C11.1119 14.109 10.8991 14.3442 10.7366 14.629ZM28.4542 7.11088C28.6411 7.29116 28.8772 7.41913 29.0793 7.58467C30.031 8.34436 30.7917 9.3412 31.4092 10.3832C31.8281 11.0769 32.1749 11.8041 32.4954 12.547C32.7381 13.1163 32.9585 13.6957 33.1433 14.2863C33.1789 14.4015 33.2271 14.5128 33.2754 14.6235C33.543 14.6595 33.8055 14.6412 34.0742 14.6428C36.1902 14.6428 38.3058 14.6428 40.4218 14.6428C40.7108 14.6417 40.9967 14.6519 41.2851 14.6316C41.119 14.3553 40.9144 14.1299 40.7118 13.878C38.2545 10.8915 34.8765 8.67901 31.1471 7.64764C30.2651 7.39983 29.3627 7.20889 28.4527 7.09768L28.4542 7.11088Z" fill="black" stroke="#964DFE" stroke-width="17.7778"/>
<path d="M26 6.93927C26.4545 6.94993 26.9166 7.02966 27.3432 7.18708C28.4142 7.59232 29.2861 8.3779 29.9955 9.25845C31.0832 10.6229 31.8673 12.2718 32.4584 13.9054C32.5457 14.1451 32.6381 14.3813 32.6965 14.6306C32.3771 14.655 32.0602 14.6408 31.7383 14.6428C27.6748 14.6428 23.6118 14.6428 19.5483 14.6428C19.4665 14.6402 19.3847 14.6357 19.303 14.6306C19.3583 14.3945 19.4447 14.1695 19.5274 13.942C20.0992 12.3581 20.8437 10.7722 21.8705 9.42907C22.5337 8.57036 23.3127 7.81372 24.2999 7.33841C24.8265 7.08095 25.4155 6.95247 26 6.93927Z" fill="black" stroke="black" stroke-width="17.7778"/>
<path d="M23.5828 7.09412C23.2908 7.32416 22.977 7.52017 22.6987 7.769C21.5775 8.73638 20.7162 10.0536 20.049 11.3648C19.5828 12.3124 19.174 13.2777 18.8566 14.2858C18.8201 14.4015 18.7723 14.5122 18.7236 14.6229C18.4377 14.661 18.1629 14.6402 17.875 14.6427C15.793 14.6427 13.711 14.6433 11.6289 14.6427C11.3293 14.6417 11.0363 14.6534 10.7367 14.629C10.8992 14.3442 11.112 14.109 11.3176 13.8572C13.5459 11.1551 16.5298 9.09083 19.8448 7.96044C21.0575 7.55623 22.3128 7.249 23.5828 7.09412Z" fill="black" stroke="black" stroke-width="17.7778"/>
<path d="M28.4528 7.09772C29.3628 7.20893 30.2651 7.39987 31.1472 7.64768C34.8766 8.67905 38.2546 10.8916 40.7119 13.878C40.9145 14.1299 41.1191 14.3554 41.2852 14.6316C40.9967 14.6519 40.7108 14.6418 40.4219 14.6428C38.3058 14.6428 36.1903 14.6428 34.0742 14.6428C33.8056 14.6413 33.5431 14.6596 33.2755 14.6235C33.2272 14.5128 33.179 14.4016 33.1434 14.2863C32.9586 13.6957 32.7382 13.1163 32.4955 12.5471C32.175 11.8041 31.8282 11.0769 31.4092 10.3833C30.7917 9.34123 30.031 8.3444 29.0794 7.58471C28.8773 7.41916 28.6412 7.29119 28.4543 7.11092L28.4528 7.09772Z" fill="black" stroke="black" stroke-width="17.7778"/>
<path d="M4.96999 22.0513C6.40812 22.0574 7.84776 22.0467 9.28538 22.0563C9.21632 22.291 9.12034 22.5144 9.03249 22.7429C8.53433 24.0531 8.02397 25.3592 7.52479 26.6693C7.37601 27.07 7.19929 27.462 7.0698 27.8693C7.30288 27.8784 7.53597 27.8713 7.76854 27.8881C7.68933 28.2034 7.54765 28.5061 7.4344 28.8133C7.29983 29.1373 7.20538 29.4821 7.04339 29.7929C6.89612 29.802 6.74886 29.8086 6.60159 29.8051C5.18632 29.7949 3.76952 29.8112 2.35425 29.7974C2.48019 29.3902 2.65233 28.9971 2.80062 28.5975C2.88999 28.3629 2.96819 28.1252 3.07534 27.8977C3.31503 27.8647 3.55319 27.8804 3.7944 27.8657C3.84062 27.7733 3.88683 27.6819 3.92339 27.5849C4.24737 26.6993 4.59675 25.8233 4.93546 24.9433C5.10964 24.4903 5.27366 24.0343 5.45901 23.5854C5.50472 23.466 5.56159 23.3396 5.5753 23.2116C5.5428 23.1228 5.47628 23.043 5.4189 22.9689C5.17718 22.6728 4.91616 22.3839 4.6978 22.0706C4.77905 22.0396 4.88366 22.0589 4.96999 22.0513Z" fill="black" stroke="#964DFE" stroke-width="17.7778"/>
<path d="M10.5675 22.0589C10.8189 22.0446 11.0723 22.0543 11.3242 22.0528C14.5574 22.0533 17.7901 22.0528 21.0234 22.0533C21.3093 22.0543 21.5937 22.0441 21.8796 22.0599C21.8034 22.3519 21.6835 22.6169 21.5764 22.8988C20.7837 24.9508 20.0042 27.009 19.21 29.0606C19.115 29.3064 19.0414 29.5557 18.92 29.7903C18.724 29.8081 18.5285 29.8071 18.332 29.8035C15.2084 29.7974 12.0767 29.8091 8.95471 29.7979C8.98518 29.7045 9.01565 29.6105 9.05069 29.5186C9.526 28.3263 9.96577 27.1202 10.4365 25.9258C10.7483 25.1047 11.054 24.2816 11.3841 23.467C11.4171 23.3497 11.5004 23.2329 11.4074 23.1237C11.1444 22.7591 10.8138 22.4367 10.5675 22.0589ZM12.9497 27.8687C13.6601 27.886 14.3715 27.8687 15.082 27.8748C15.5177 27.8682 15.9544 27.8906 16.3896 27.8662C16.5277 27.6108 16.6049 27.3421 16.7136 27.073C17.0614 26.196 17.3778 25.3083 17.7333 24.4344C17.7937 24.2887 17.8409 24.1419 17.878 23.9891C16.8964 23.9677 15.9123 23.9901 14.9301 23.9789C14.7707 23.9799 14.6046 23.9692 14.4472 23.9967C14.335 24.1653 14.2796 24.377 14.2055 24.5649C13.9181 25.3251 13.6149 26.0792 13.3326 26.8414C13.2081 27.1847 13.0512 27.5183 12.9497 27.8687Z" fill="black" stroke="#964DFE" stroke-width="17.7778"/>
<path d="M22.685 22.0517C25.9731 22.0543 29.2627 22.0517 32.5508 22.0528C32.9565 22.0573 33.3633 22.0416 33.769 22.0594C33.6994 22.3564 33.5735 22.6185 33.4659 22.9028C33.0494 23.9779 32.6462 25.058 32.2253 26.1315C31.8048 27.2629 31.3518 28.3811 30.9375 29.514C30.9009 29.6105 30.8547 29.7014 30.8085 29.7928C30.5256 29.8142 30.2438 29.801 29.9609 29.802C27.168 29.8025 24.375 29.802 21.582 29.8025C21.3439 29.8035 21.1057 29.8081 20.868 29.7949C20.9026 29.6532 20.9432 29.514 20.9975 29.3785C21.2352 28.765 21.4774 28.1536 21.7085 27.5376C21.9781 26.7886 22.2869 26.0548 22.5626 25.3078C22.7779 24.7147 23.0105 24.1282 23.2451 23.5422C23.2842 23.4376 23.333 23.3253 23.3431 23.2131C23.3147 23.1364 23.2598 23.0658 23.2106 23.0013C22.9653 22.6941 22.6875 22.3986 22.4697 22.0715C22.5321 22.0421 22.6175 22.0583 22.685 22.0517ZM24.8391 27.8692C25.835 27.8855 26.8318 27.8667 27.8281 27.8774C27.9774 27.8804 28.1262 27.8748 28.2755 27.8687C28.4228 27.6285 28.4817 27.3756 28.5878 27.1151C28.8894 26.3468 29.1835 25.5755 29.4765 24.8036C29.5796 24.5294 29.6984 24.2638 29.7862 23.984C28.761 23.9743 27.7352 23.988 26.7099 23.9779C26.587 23.9789 26.457 23.9738 26.3367 23.9997C26.2168 24.1972 26.1549 24.4324 26.0675 24.6456C25.7568 25.4383 25.4587 26.2361 25.1514 27.0303C25.0443 27.3117 24.9224 27.5798 24.8391 27.8692Z" fill="black" stroke="#964DFE" stroke-width="17.7778"/>
<path d="M34.5119 22.0523C39.2579 22.0538 44.0044 22.0523 48.7499 22.0528C49.0562 22.0548 49.3598 22.0426 49.666 22.0609C49.6031 22.3488 49.4665 22.6276 49.3629 22.9069C48.5783 24.9351 47.809 26.9699 47.0229 28.9976C46.9147 29.2683 46.8436 29.5369 46.7035 29.7929C46.5562 29.8015 46.4089 29.8086 46.2617 29.8056C45.3329 29.7954 44.4031 29.8116 43.4743 29.7974C43.5164 29.6623 43.5621 29.5288 43.616 29.3978C43.8765 28.7539 44.1131 28.1018 44.365 27.4544C44.6443 26.7338 44.9251 26.0142 45.1973 25.2911C45.3552 24.8534 45.5512 24.4283 45.6924 23.985C44.9906 23.9789 44.2847 23.9748 43.5829 23.987C43.519 24.0967 43.4631 24.2089 43.421 24.3293C43.0106 25.45 42.5602 26.5535 42.1433 27.6712C41.9128 28.2836 41.6629 28.8889 41.44 29.5044C41.4029 29.6024 41.3582 29.6943 41.3135 29.7888C41.1688 29.801 41.0241 29.8086 40.8788 29.805C39.9475 29.7944 39.0152 29.8122 38.0844 29.7974C38.1747 29.4846 38.3119 29.187 38.4256 28.8798C38.8171 27.8368 39.2305 26.8023 39.622 25.7593C39.8424 25.1662 40.0928 24.5832 40.302 23.9865C39.6027 23.9774 38.8994 23.9748 38.2006 23.9865C38.0879 24.1764 38.0214 24.3821 37.9432 24.5873C37.3328 26.1904 36.7097 27.789 36.0988 29.3922C36.0511 29.5283 35.9927 29.6598 35.9302 29.7898C35.5849 29.8208 35.234 29.7969 34.8867 29.8025C34.1595 29.7984 33.4313 29.8116 32.7046 29.7969C32.8087 29.4328 32.9676 29.0845 33.0956 28.728C33.774 26.9669 34.4454 25.2032 35.1253 23.4416C35.1502 23.3685 35.1771 23.2893 35.1817 23.2121C35.1553 23.1329 35.0989 23.0608 35.0487 22.9948C34.8029 22.686 34.5327 22.39 34.3042 22.068C34.3697 22.0492 34.4444 22.0553 34.5119 22.0523Z" fill="black" stroke="#964DFE" stroke-width="17.7778"/>
<path d="M14.4472 23.9966C14.6047 23.9692 14.7707 23.9799 14.9302 23.9789C15.9123 23.99 16.8964 23.9677 17.878 23.989C17.841 24.1419 17.7937 24.2886 17.7333 24.4344C17.3778 25.3083 17.0615 26.196 16.7136 27.073C16.6049 27.3421 16.5278 27.6108 16.3896 27.8662C15.9544 27.8906 15.5177 27.8682 15.082 27.8748C14.3716 27.8687 13.6601 27.886 12.9497 27.8687C13.0513 27.5183 13.2082 27.1847 13.3326 26.8414C13.6149 26.0792 13.9181 25.3251 14.2055 24.5649C14.2797 24.377 14.335 24.1652 14.4472 23.9966Z" fill="black" stroke="black" stroke-width="17.7778"/>
<path d="M26.3366 23.9997C26.457 23.9738 26.587 23.9789 26.7099 23.9779C27.7352 23.9881 28.7609 23.9744 29.7862 23.984C29.6984 24.2638 29.5795 24.5294 29.4765 24.8036C29.1834 25.5755 28.8894 26.3469 28.5878 27.1152C28.4817 27.3757 28.4227 27.6286 28.2755 27.8688C28.1262 27.8749 27.9774 27.8804 27.8281 27.8774C26.8318 27.8667 25.8349 27.8855 24.8391 27.8693C24.9224 27.5798 25.0443 27.3117 25.1514 27.0304C25.4586 26.2361 25.7567 25.4384 26.0675 24.6457C26.1549 24.4324 26.2168 24.1973 26.3366 23.9997Z" fill="black" stroke="black" stroke-width="17.7778"/>
<path d="M7.34452 31.8236C7.49889 31.784 7.68171 31.8129 7.84014 31.8221C7.87975 31.9206 7.91987 32.015 7.95288 32.1151C8.15753 32.7722 8.43479 33.4115 8.71968 34.0371C9.0787 34.8217 9.50323 35.5692 9.96331 36.2984C10.0786 36.4818 10.1999 36.6595 10.334 36.8296C10.3498 36.6981 10.3685 36.5666 10.3848 36.435C10.6641 36.4203 10.9429 36.4305 11.2227 36.4295C13.3215 36.4295 15.4208 36.4295 17.5196 36.4295C17.8248 36.4279 18.1269 36.4411 18.4316 36.4178C18.3874 36.1217 18.2914 35.8455 18.2224 35.555C17.9517 34.4505 17.7349 33.3272 17.5576 32.2039C17.5373 32.076 17.5312 31.947 17.5277 31.8175C17.6912 31.8058 17.8517 31.8063 18.0147 31.816C18.1101 32.0877 18.1198 32.3908 18.1696 32.6798C18.3275 33.6482 18.5286 34.61 18.7749 35.5601C18.8495 35.8434 18.9059 36.1273 19.0115 36.4015C19.2918 36.4533 19.5599 36.4259 19.8555 36.4295C23.9012 36.4289 27.9465 36.4295 31.9922 36.4289C32.3213 36.4208 32.6646 36.4584 32.9885 36.4015C33.0992 36.1131 33.1566 35.817 33.2353 35.5195C33.4837 34.5531 33.6868 33.5761 33.8447 32.5914C33.8879 32.3278 33.9026 32.0714 33.9859 31.8155C34.1479 31.8068 34.3083 31.8063 34.4703 31.818C34.4719 32.0998 34.414 32.3659 34.3698 32.6427C34.2068 33.6344 34.0067 34.6196 33.767 35.5956C33.701 35.8714 33.6096 36.1359 33.5685 36.4178C33.8731 36.4411 34.1753 36.4279 34.4805 36.4295C36.5965 36.4295 38.7121 36.4289 40.8281 36.4295C41.1191 36.432 41.4071 36.4162 41.6975 36.4386C41.7168 36.5315 41.7366 36.6239 41.7595 36.7159C41.8148 36.6417 41.8697 36.5666 41.9225 36.4899C42.7223 35.2777 43.3794 33.9762 43.8882 32.6158C43.9771 32.3822 44.0299 32.1491 44.1533 31.9292C44.33 31.9003 44.5052 31.8779 44.685 31.8789C44.6327 32.1196 44.5469 32.3482 44.4626 32.5787C43.7679 34.5373 42.7507 36.3817 41.4731 38.0199C39.7658 40.2198 37.5807 42.0469 35.1173 43.3438C33.9646 43.9527 32.7514 44.4351 31.5027 44.8063C29.8152 45.2908 28.0597 45.5584 26.3047 45.5838C24.4695 45.6163 22.6282 45.3746 20.8549 44.9043C18.5433 44.2711 16.3501 43.2169 14.4199 41.7955C11.9499 39.9816 9.90288 37.5807 8.52315 34.8436C8.05444 33.9412 7.6878 33.0002 7.35925 32.0394C7.34909 31.9769 7.2846 31.8728 7.34452 31.8236ZM23.5712 44.885C23.3051 44.6738 23.0161 44.4961 22.7587 44.2721C21.7009 43.3728 20.9026 42.2114 20.2445 40.9982C19.7153 39.9923 19.2659 38.9446 18.9049 37.8666C18.7962 37.5639 18.7241 37.2531 18.5971 36.9591C18.3732 36.9368 18.1498 36.9434 17.9258 36.9454C15.4294 36.9494 12.9173 36.9413 10.4229 36.9489C10.5656 37.2034 10.757 37.4329 10.9327 37.6645C12.8391 40.1278 15.3619 42.121 18.2066 43.3905C19.6681 44.0558 21.2246 44.5138 22.8044 44.7916C23.0588 44.8368 23.3127 44.8759 23.5712 44.885ZM32.8032 36.951C32.5325 36.9378 32.2629 36.9464 31.9922 36.9459C27.9805 36.9459 23.9688 36.9459 19.9571 36.9459C19.7057 36.9484 19.4523 36.9332 19.2014 36.953C19.2141 37.2227 19.3396 37.4999 19.4249 37.7543C20.0276 39.4865 20.8244 41.2318 21.9639 42.6806C22.682 43.581 23.5691 44.397 24.664 44.8048C25.3058 45.0521 25.9944 45.0897 26.6703 44.9886C27.6403 44.8155 28.5401 44.2366 29.2404 43.5607C30.2712 42.5593 31.0289 41.3156 31.651 40.0298C32.0628 39.1747 32.3974 38.2743 32.7077 37.3786C32.757 37.2389 32.7854 37.0972 32.8032 36.951ZM33.4049 36.9606C33.2876 37.2115 33.2257 37.4903 33.1328 37.7518C32.6102 39.3159 31.9277 40.8601 31.0131 42.2358C30.4759 43.0366 29.8543 43.78 29.1012 44.3864C28.8692 44.5753 28.6158 44.7322 28.3786 44.914C29.1495 44.819 29.9137 44.6733 30.6658 44.4808C31.4748 44.2706 32.2746 44.0329 33.048 43.713C36.2228 42.4526 39.0371 40.3223 41.1181 37.6147C41.2847 37.3984 41.4523 37.1876 41.5863 36.9495C39.0676 36.9408 36.5432 36.95 34.024 36.9449C33.8137 36.9449 33.6142 36.9342 33.4049 36.9606Z" fill="black" stroke="#964DFE" stroke-width="17.7778"/>
<path d="M10.4229 36.949C12.9172 36.9413 15.4294 36.9495 17.9258 36.9454C18.1497 36.9434 18.3732 36.9368 18.5971 36.9591C18.7241 37.2531 18.7962 37.5639 18.9048 37.8666C19.2659 38.9447 19.7153 39.9923 20.2445 40.9982C20.9026 42.2114 21.7009 43.3728 22.7586 44.2721C23.0161 44.4961 23.305 44.6738 23.5711 44.885C23.3127 44.8759 23.0587 44.8368 22.8043 44.7916C21.2245 44.5138 19.6681 44.0558 18.2066 43.3906C15.3618 42.121 12.839 40.1279 10.9327 37.6645C10.757 37.4329 10.5655 37.2034 10.4229 36.949Z" fill="black" stroke="black" stroke-width="17.7778"/>
<path d="M19.2014 36.953C19.4523 36.9332 19.7057 36.9484 19.957 36.9459C23.9688 36.9459 27.9805 36.9459 31.9922 36.9459C32.2629 36.9464 32.5325 36.9378 32.8032 36.951C32.7854 37.0972 32.757 37.2389 32.7077 37.3786C32.3974 38.2743 32.0628 39.1747 31.6509 40.0299C31.0289 41.3156 30.2712 42.5593 29.2404 43.5607C28.5401 44.2366 27.6402 44.8155 26.6703 44.9886C25.9944 45.0897 25.3058 45.0521 24.664 44.8048C23.5691 44.397 22.682 43.581 21.9639 42.6806C20.8244 41.2318 20.0276 39.4865 19.4249 37.7543C19.3395 37.4999 19.2141 37.2227 19.2014 36.953Z" fill="black" stroke="black" stroke-width="17.7778"/>
<path d="M34.0239 36.9449C36.5431 36.95 39.0675 36.9408 41.5862 36.9494C41.4522 37.1876 41.2846 37.3984 41.118 37.6147C39.037 40.3223 36.2227 42.4526 33.0479 43.713C32.2745 44.0329 31.4747 44.2706 30.6657 44.4808C29.9137 44.6733 29.1494 44.819 28.3785 44.914C28.6157 44.7322 28.8691 44.5753 29.1012 44.3864C29.8542 43.78 30.4758 43.0366 31.0131 42.2358C31.9276 40.8601 32.6101 39.3159 33.1327 37.7518C33.2256 37.4903 33.2876 37.2115 33.4049 36.9606C33.6141 36.9342 33.8137 36.9449 34.0239 36.9449Z" fill="black" stroke="black" stroke-width="17.7778"/>
<path d="M0 0H52V52H0V0ZM7.44402 19.7813C7.55016 19.8057 7.66594 19.8179 7.76699 19.8605C7.81879 19.9189 7.84418 20.0032 7.87871 20.0728C8.38246 18.5717 9.0548 17.1321 9.90488 15.7955C10.0395 15.5959 10.1547 15.3598 10.3299 15.1938C10.5305 15.1394 10.7616 15.1724 10.9688 15.1663C13.2031 15.1684 15.4375 15.1673 17.6719 15.1673C17.9649 15.1684 18.2559 15.1562 18.5484 15.179C18.4971 15.4725 18.3986 15.7498 18.3239 16.0377C18.0329 17.1417 17.81 18.2741 17.618 19.3995C17.5942 19.5345 17.584 19.6711 17.5764 19.8077C17.7455 19.8296 17.9034 19.8306 18.073 19.8133C18.1573 19.5401 18.1771 19.2623 18.2249 18.982C18.4275 17.7841 18.7129 16.6065 19.0389 15.4365C19.0643 15.3568 19.0927 15.2775 19.1202 15.1978C19.3964 15.1404 19.6635 15.1714 19.957 15.1668C24.1693 15.1653 28.3943 15.1704 32.6051 15.1648C32.698 15.1673 32.7884 15.1826 32.8793 15.1983C32.9575 15.4065 33.0134 15.6198 33.0688 15.8346C33.3907 17.0219 33.669 18.2376 33.8467 19.4553C33.8655 19.5777 33.897 19.696 33.9285 19.8154C34.0971 19.8301 34.2565 19.8291 34.4246 19.8103C34.4175 19.7011 34.4109 19.5945 34.3952 19.4863C34.2093 18.3544 33.9808 17.2301 33.6974 16.1185C33.6182 15.8021 33.5085 15.5 33.4516 15.179C33.7787 15.1541 34.1011 15.1704 34.4297 15.1673C36.7661 15.1658 39.1046 15.1704 41.4411 15.1648C41.5386 15.1739 41.6675 15.1541 41.7325 15.2435C41.8976 15.4375 42.022 15.6691 42.1611 15.8823C42.8137 16.9208 43.3626 18.0202 43.8034 19.1643C43.8689 19.3319 43.9187 19.5168 44.0126 19.6711C44.1726 19.7427 44.3808 19.7275 44.5529 19.7265C44.4996 19.5071 44.4219 19.2964 44.3402 19.0866C43.2128 16.085 41.3222 13.3722 38.9086 11.2623C37.0571 9.6398 34.8954 8.36418 32.5736 7.54355C30.2052 6.69449 27.6585 6.32633 25.1464 6.43094C23.6981 6.49746 22.2559 6.72191 20.8548 7.09617C17.9959 7.87617 15.3217 9.30973 13.097 11.2684C10.5615 13.4855 8.61199 16.3597 7.50598 19.5421C7.48262 19.6209 7.46332 19.7016 7.44402 19.7813ZM4.69777 22.0705C4.91613 22.3839 5.17715 22.6728 5.41887 22.9689C5.47625 23.043 5.54277 23.1227 5.57527 23.2116C5.56156 23.3396 5.50469 23.466 5.45898 23.5854C5.27363 24.0343 5.10961 24.4903 4.93543 24.9432C4.59672 25.8233 4.24734 26.6993 3.92336 27.5849C3.8868 27.6819 3.84059 27.7733 3.79437 27.8657C3.55316 27.8804 3.315 27.8647 3.07531 27.8977C2.96816 28.1252 2.88996 28.3629 2.80059 28.5975C2.6523 28.9971 2.48016 29.3902 2.35422 29.7974C3.76949 29.8111 5.18629 29.7949 6.60156 29.805C6.74883 29.8086 6.89609 29.802 7.04336 29.7929C7.20535 29.4821 7.2998 29.1373 7.43437 28.8133C7.54762 28.5061 7.6893 28.2034 7.76852 27.888C7.53594 27.8713 7.30285 27.8784 7.06977 27.8693C7.19926 27.462 7.37598 27.07 7.52477 26.6693C8.02394 25.3591 8.5343 24.053 9.03246 22.7429C9.12031 22.5144 9.21629 22.2909 9.28535 22.0563C7.84773 22.0467 6.40809 22.0573 4.96996 22.0513C4.88363 22.0589 4.77902 22.0396 4.69777 22.0705ZM8.95477 29.7979C12.0768 29.8091 15.2085 29.7974 18.332 29.8035C18.5286 29.8071 18.7241 29.8081 18.9201 29.7903C19.0414 29.5557 19.1151 29.3064 19.21 29.0606C20.0043 27.009 20.7838 24.9509 21.5764 22.8988C21.6836 22.617 21.8034 22.3519 21.8796 22.0599C21.5937 22.0441 21.3093 22.0543 21.0234 22.0533C17.7902 22.0528 14.5575 22.0533 11.3242 22.0528C11.0723 22.0543 10.8189 22.0446 10.5676 22.0589C10.8139 22.4367 11.1445 22.7591 11.4075 23.1237C11.5004 23.2329 11.4171 23.3497 11.3841 23.467C11.0541 24.2816 10.7484 25.1047 10.4366 25.9259C9.96582 27.1202 9.52605 28.3263 9.05074 29.5186C9.0157 29.6105 8.98523 29.7045 8.95477 29.7979ZM22.4697 22.0716C22.6875 22.3986 22.9653 22.6941 23.2106 23.0014C23.2598 23.0659 23.3147 23.1364 23.3431 23.2131C23.333 23.3254 23.2842 23.4376 23.2451 23.5422C23.0105 24.1282 22.7779 24.7147 22.5626 25.3079C22.2869 26.0548 21.9781 26.7886 21.7085 27.5377C21.4774 28.1536 21.2352 28.765 20.9975 29.3785C20.9432 29.5141 20.9026 29.6532 20.868 29.7949C21.1057 29.8081 21.3439 29.8035 21.582 29.8025C24.375 29.802 27.168 29.8025 29.9609 29.802C30.2438 29.801 30.5256 29.8142 30.8085 29.7929C30.8547 29.7014 30.9009 29.6105 30.9375 29.5141C31.3518 28.3811 31.8048 27.2629 32.2253 26.1315C32.6463 25.058 33.0495 23.9779 33.4659 22.9029C33.5735 22.6185 33.6995 22.3564 33.769 22.0594C33.3633 22.0416 32.9565 22.0573 32.5508 22.0528C29.2627 22.0518 25.9731 22.0543 22.685 22.0518C22.6175 22.0584 22.5321 22.0421 22.4697 22.0716ZM34.3043 22.068C34.5328 22.39 34.8029 22.686 35.0487 22.9948C35.099 23.0608 35.1553 23.1329 35.1818 23.2121C35.1772 23.2893 35.1503 23.3685 35.1254 23.4416C34.4454 25.2032 33.7741 26.9669 33.0957 28.728C32.9677 29.0845 32.8088 29.4328 32.7047 29.7969C33.4313 29.8116 34.1595 29.7984 34.8867 29.8025C35.2341 29.7969 35.585 29.8208 35.9303 29.7898C35.9927 29.6598 36.0511 29.5283 36.0989 29.3922C36.7098 27.789 37.3329 26.1904 37.9432 24.5873C38.0214 24.3821 38.088 24.1764 38.2007 23.9865C38.8995 23.9748 39.6028 23.9774 40.302 23.9865C40.0928 24.5832 39.8425 25.1662 39.6221 25.7593C39.2305 26.8023 38.8172 27.8368 38.4257 28.8798C38.3119 29.187 38.1748 29.4846 38.0844 29.7974C39.0152 29.8121 39.9476 29.7944 40.8789 29.805C41.0241 29.8086 41.1689 29.801 41.3136 29.7888C41.3583 29.6943 41.403 29.6024 41.44 29.5044C41.663 28.8889 41.9128 28.2836 42.1434 27.6712C42.5603 26.5535 43.0107 25.45 43.421 24.3293C43.4632 24.2089 43.519 24.0967 43.583 23.987C44.2848 23.9748 44.9907 23.9789 45.6925 23.985C45.5513 24.4283 45.3553 24.8534 45.1973 25.2911C44.9252 26.0142 44.6443 26.7338 44.365 27.4544C44.1132 28.1018 43.8765 28.7539 43.616 29.3978C43.5622 29.5288 43.5165 29.6623 43.4743 29.7974C44.4031 29.8116 45.3329 29.7954 46.2617 29.8055C46.409 29.8086 46.5563 29.8015 46.7035 29.7929C46.8437 29.5369 46.9148 29.2683 47.0229 28.9976C47.809 26.9699 48.5784 24.9351 49.3629 22.9069C49.4665 22.6276 49.6031 22.3488 49.6661 22.0609C49.3599 22.0426 49.0562 22.0548 48.75 22.0528C44.0045 22.0523 39.258 22.0538 34.512 22.0523C34.4444 22.0553 34.3698 22.0492 34.3043 22.068ZM44.685 31.8789C44.5052 31.8779 44.33 31.9003 44.1533 31.9292C44.0299 32.1491 43.9771 32.3822 43.8882 32.6158C43.3794 33.9762 42.7223 35.2777 41.9225 36.4899C41.8696 36.5666 41.8148 36.6417 41.7595 36.7159C41.7366 36.6239 41.7168 36.5315 41.6975 36.4386C41.407 36.4162 41.1191 36.432 40.8281 36.4295C38.7121 36.4289 36.5965 36.4295 34.4805 36.4295C34.1753 36.4279 33.8731 36.4411 33.5684 36.4178C33.6096 36.1359 33.701 35.8714 33.767 35.5956C34.0067 34.6196 34.2068 33.6345 34.3698 32.6427C34.4139 32.3659 34.4718 32.0998 34.4703 31.818C34.3083 31.8063 34.1479 31.8068 33.9859 31.8155C33.9026 32.0714 33.8879 32.3279 33.8447 32.5914C33.6868 33.5761 33.4836 34.5531 33.2353 35.5195C33.1566 35.817 33.0992 36.1131 32.9885 36.4015C32.6645 36.4584 32.3213 36.4208 31.9922 36.4289C27.9464 36.4295 23.9012 36.4289 19.8555 36.4295C19.5599 36.4259 19.2918 36.4533 19.0115 36.4015C18.9059 36.1273 18.8495 35.8434 18.7748 35.5601C18.5286 34.61 18.3275 33.6482 18.1695 32.6798C18.1198 32.3908 18.1101 32.0877 18.0146 31.816C17.8516 31.8063 17.6912 31.8058 17.5277 31.8175C17.5312 31.947 17.5373 32.076 17.5576 32.2039C17.7348 33.3272 17.9517 34.4505 18.2223 35.555C18.2914 35.8455 18.3874 36.1217 18.4316 36.4178C18.1269 36.4411 17.8247 36.4279 17.5195 36.4295C15.4207 36.4295 13.3214 36.4295 11.2227 36.4295C10.9429 36.4305 10.6641 36.4203 10.3848 36.435C10.3685 36.5666 10.3497 36.6981 10.334 36.8296C10.1999 36.6595 10.0786 36.4818 9.96328 36.2984C9.5032 35.5692 9.07867 34.8217 8.71965 34.0371C8.43477 33.4115 8.1575 32.7722 7.95285 32.1151C7.91984 32.015 7.87973 31.9206 7.84012 31.8221C7.68168 31.8129 7.49887 31.784 7.34449 31.8236C7.28457 31.8729 7.34906 31.977 7.35922 32.0394C7.68777 33.0002 8.05441 33.9412 8.52312 34.8436C9.90285 37.5807 11.9498 39.9816 14.4198 41.7955C16.35 43.2169 18.5433 44.2711 20.8548 44.9043C22.6281 45.3746 24.4695 45.6163 26.3047 45.5838C28.0597 45.5584 29.8152 45.2908 31.5027 44.8063C32.7514 44.4351 33.9645 43.9527 35.1173 43.3438C37.5807 42.0469 39.7658 40.2198 41.473 38.0199C42.7507 36.3817 43.7679 34.5373 44.4625 32.5787C44.5468 32.3482 44.6327 32.1196 44.685 31.8789Z" fill="black"/>
<path d="M25.1463 6.43092C27.6585 6.32631 30.2051 6.69448 32.5736 7.54354C34.8953 8.36417 37.0571 9.63979 38.9085 11.2623C41.3222 13.3722 43.2128 16.0849 44.3401 19.0866C44.4219 19.2964 44.4996 19.5071 44.5529 19.7265C44.3807 19.7275 44.1725 19.7427 44.0126 19.6711C43.9186 19.5167 43.8689 19.3319 43.8033 19.1643C43.3626 18.0202 42.8136 16.9208 42.1611 15.8823C42.0219 15.669 41.8975 15.4375 41.7325 15.2435C41.6675 15.1541 41.5385 15.1739 41.441 15.1648C39.1046 15.1704 36.7661 15.1658 34.4296 15.1673C34.1011 15.1704 33.7786 15.1541 33.4516 15.179C33.5085 15.4999 33.6181 15.8021 33.6974 16.1185C33.9807 17.2301 34.2092 18.3544 34.3951 19.4863C34.4108 19.5944 34.4174 19.7011 34.4246 19.8103C34.2565 19.829 34.097 19.8301 33.9284 19.8153C33.8969 19.696 33.8655 19.5777 33.8467 19.4553C33.6689 18.2376 33.3906 17.0219 33.0687 15.8346C33.0133 15.6198 32.9575 15.4065 32.8793 15.1983C32.7884 15.1826 32.698 15.1673 32.6051 15.1648C28.3943 15.1704 24.1693 15.1653 19.957 15.1668C19.6635 15.1714 19.3964 15.1404 19.1201 15.1978C19.0927 15.2775 19.0642 15.3567 19.0389 15.4365C18.7128 16.6065 18.4274 17.7841 18.2248 18.982C18.1771 19.2623 18.1573 19.5401 18.073 19.8133C17.9034 19.8306 17.7455 19.8296 17.5764 19.8077C17.584 19.6711 17.5941 19.5345 17.618 19.3994C17.8099 18.2741 18.0329 17.1417 18.3239 16.0377C18.3985 15.7498 18.497 15.4725 18.5483 15.179C18.2558 15.1562 17.9648 15.1683 17.6718 15.1673C15.4374 15.1673 13.2031 15.1683 10.9687 15.1663C10.7615 15.1724 10.5305 15.1394 10.3299 15.1937C10.1547 15.3598 10.0394 15.5959 9.90483 15.7955C9.05475 17.1321 8.38241 18.5717 7.87866 20.0728C7.84413 20.0032 7.81874 19.9189 7.76694 19.8605C7.66588 19.8179 7.5501 19.8057 7.44397 19.7813C7.46327 19.7016 7.48256 19.6208 7.50592 19.5421C8.61194 16.3597 10.5614 13.4855 13.0969 11.2683C15.3217 9.30971 17.9958 7.87616 20.8548 7.09616C22.2558 6.7219 23.698 6.49745 25.1463 6.43092ZM19.3029 14.6306C19.3847 14.6356 19.4664 14.6402 19.5482 14.6428C23.6117 14.6428 27.6747 14.6428 31.7382 14.6428C32.0602 14.6407 32.3771 14.6549 32.6965 14.6306C32.6381 14.3812 32.5456 14.1451 32.4583 13.9054C31.8672 12.2718 31.0831 10.6229 29.9954 9.25842C29.286 8.37788 28.4141 7.59229 27.3431 7.18706C26.9165 7.02963 26.4544 6.94991 25.9999 6.93924C25.4155 6.95245 24.8264 7.08092 24.2998 7.33838C23.3126 7.8137 22.5336 8.57034 21.8704 9.42905C20.8436 10.7722 20.0992 12.3581 19.5274 13.942C19.4446 14.1695 19.3583 14.3944 19.3029 14.6306ZM10.7366 14.629C11.0362 14.6534 11.3292 14.6417 11.6289 14.6428C13.7109 14.6433 15.7929 14.6428 17.8749 14.6428C18.1629 14.6402 18.4376 14.661 18.7235 14.623C18.7723 14.5123 18.82 14.4015 18.8565 14.2858C19.1739 13.2778 19.5827 12.3124 20.0489 11.3648C20.7162 10.0537 21.5774 8.73639 22.6987 7.76901C22.9769 7.52018 23.2908 7.32417 23.5828 7.09413C22.3127 7.24901 21.0574 7.55624 19.8448 7.96045C16.5298 9.09084 13.5458 11.1551 11.3176 13.8572C11.1119 14.109 10.8991 14.3442 10.7366 14.629ZM28.4542 7.11088C28.6411 7.29116 28.8772 7.41913 29.0793 7.58467C30.031 8.34436 30.7917 9.3412 31.4092 10.3832C31.8281 11.0769 32.1749 11.8041 32.4954 12.547C32.7381 13.1163 32.9585 13.6957 33.1433 14.2863C33.1789 14.4015 33.2271 14.5128 33.2754 14.6235C33.543 14.6595 33.8055 14.6412 34.0742 14.6428C36.1902 14.6428 38.3058 14.6428 40.4218 14.6428C40.7108 14.6417 40.9967 14.6519 41.2851 14.6316C41.119 14.3553 40.9144 14.1299 40.7118 13.878C38.2545 10.8915 34.8765 8.67901 31.1471 7.64764C30.2651 7.39983 29.3627 7.20889 28.4527 7.09768L28.4542 7.11088Z" fill="#964DFE"/>
<path d="M26 6.93927C26.4545 6.94993 26.9166 7.02966 27.3432 7.18708C28.4142 7.59232 29.2861 8.3779 29.9955 9.25845C31.0832 10.6229 31.8673 12.2718 32.4584 13.9054C32.5457 14.1451 32.6381 14.3813 32.6965 14.6306C32.3771 14.655 32.0602 14.6408 31.7383 14.6428C27.6748 14.6428 23.6118 14.6428 19.5483 14.6428C19.4665 14.6402 19.3847 14.6357 19.303 14.6306C19.3583 14.3945 19.4447 14.1695 19.5274 13.942C20.0992 12.3581 20.8437 10.7722 21.8705 9.42907C22.5337 8.57036 23.3127 7.81372 24.2999 7.33841C24.8265 7.08095 25.4155 6.95247 26 6.93927Z" fill="black"/>
<path d="M23.5828 7.09412C23.2908 7.32416 22.977 7.52017 22.6987 7.769C21.5775 8.73638 20.7162 10.0536 20.049 11.3648C19.5828 12.3124 19.174 13.2777 18.8566 14.2858C18.8201 14.4015 18.7723 14.5122 18.7236 14.6229C18.4377 14.661 18.1629 14.6402 17.875 14.6427C15.793 14.6427 13.711 14.6433 11.6289 14.6427C11.3293 14.6417 11.0363 14.6534 10.7367 14.629C10.8992 14.3442 11.112 14.109 11.3176 13.8572C13.5459 11.1551 16.5298 9.09083 19.8448 7.96044C21.0575 7.55623 22.3128 7.249 23.5828 7.09412Z" fill="black"/>
<path d="M28.4528 7.09772C29.3628 7.20893 30.2651 7.39987 31.1472 7.64768C34.8766 8.67905 38.2546 10.8916 40.7119 13.878C40.9145 14.1299 41.1191 14.3554 41.2852 14.6316C40.9967 14.6519 40.7108 14.6418 40.4219 14.6428C38.3058 14.6428 36.1903 14.6428 34.0742 14.6428C33.8056 14.6413 33.5431 14.6596 33.2755 14.6235C33.2272 14.5128 33.179 14.4016 33.1434 14.2863C32.9586 13.6957 32.7382 13.1163 32.4955 12.5471C32.175 11.8041 31.8282 11.0769 31.4092 10.3833C30.7917 9.34123 30.031 8.3444 29.0794 7.58471C28.8773 7.41916 28.6412 7.29119 28.4543 7.11092L28.4528 7.09772Z" fill="black"/>
<path d="M4.96999 22.0513C6.40812 22.0574 7.84776 22.0467 9.28538 22.0563C9.21632 22.291 9.12034 22.5144 9.03249 22.7429C8.53433 24.0531 8.02397 25.3592 7.52479 26.6693C7.37601 27.07 7.19929 27.462 7.0698 27.8693C7.30288 27.8784 7.53597 27.8713 7.76854 27.8881C7.68933 28.2034 7.54765 28.5061 7.4344 28.8133C7.29983 29.1373 7.20538 29.4821 7.04339 29.7929C6.89612 29.802 6.74886 29.8086 6.60159 29.8051C5.18632 29.7949 3.76952 29.8112 2.35425 29.7974C2.48019 29.3902 2.65233 28.9971 2.80062 28.5975C2.88999 28.3629 2.96819 28.1252 3.07534 27.8977C3.31503 27.8647 3.55319 27.8804 3.7944 27.8657C3.84062 27.7733 3.88683 27.6819 3.92339 27.5849C4.24737 26.6993 4.59675 25.8233 4.93546 24.9433C5.10964 24.4903 5.27366 24.0343 5.45901 23.5854C5.50472 23.466 5.56159 23.3396 5.5753 23.2116C5.5428 23.1228 5.47628 23.043 5.4189 22.9689C5.17718 22.6728 4.91616 22.3839 4.6978 22.0706C4.77905 22.0396 4.88366 22.0589 4.96999 22.0513Z" fill="#964DFE"/>
<path d="M10.5675 22.0589C10.8189 22.0446 11.0723 22.0543 11.3242 22.0528C14.5574 22.0533 17.7901 22.0528 21.0234 22.0533C21.3093 22.0543 21.5937 22.0441 21.8796 22.0599C21.8034 22.3519 21.6835 22.6169 21.5764 22.8988C20.7837 24.9508 20.0042 27.009 19.21 29.0606C19.115 29.3064 19.0414 29.5557 18.92 29.7903C18.724 29.8081 18.5285 29.8071 18.332 29.8035C15.2084 29.7974 12.0767 29.8091 8.95471 29.7979C8.98518 29.7045 9.01565 29.6105 9.05069 29.5186C9.526 28.3263 9.96577 27.1202 10.4365 25.9258C10.7483 25.1047 11.054 24.2816 11.3841 23.467C11.4171 23.3497 11.5004 23.2329 11.4074 23.1237C11.1444 22.7591 10.8138 22.4367 10.5675 22.0589ZM12.9497 27.8687C13.6601 27.886 14.3715 27.8687 15.082 27.8748C15.5177 27.8682 15.9544 27.8906 16.3896 27.8662C16.5277 27.6108 16.6049 27.3421 16.7136 27.073C17.0614 26.196 17.3778 25.3083 17.7333 24.4344C17.7937 24.2887 17.8409 24.1419 17.878 23.9891C16.8964 23.9677 15.9123 23.9901 14.9301 23.9789C14.7707 23.9799 14.6046 23.9692 14.4472 23.9967C14.335 24.1653 14.2796 24.377 14.2055 24.5649C13.9181 25.3251 13.6149 26.0792 13.3326 26.8414C13.2081 27.1847 13.0512 27.5183 12.9497 27.8687Z" fill="#964DFE"/>
<path d="M22.685 22.0517C25.9731 22.0543 29.2627 22.0517 32.5508 22.0528C32.9565 22.0573 33.3633 22.0416 33.769 22.0594C33.6994 22.3564 33.5735 22.6185 33.4659 22.9028C33.0494 23.9779 32.6462 25.058 32.2253 26.1315C31.8048 27.2629 31.3518 28.3811 30.9375 29.514C30.9009 29.6105 30.8547 29.7014 30.8085 29.7928C30.5256 29.8142 30.2438 29.801 29.9609 29.802C27.168 29.8025 24.375 29.802 21.582 29.8025C21.3439 29.8035 21.1057 29.8081 20.868 29.7949C20.9026 29.6532 20.9432 29.514 20.9975 29.3785C21.2352 28.765 21.4774 28.1536 21.7085 27.5376C21.9781 26.7886 22.2869 26.0548 22.5626 25.3078C22.7779 24.7147 23.0105 24.1282 23.2451 23.5422C23.2842 23.4376 23.333 23.3253 23.3431 23.2131C23.3147 23.1364 23.2598 23.0658 23.2106 23.0013C22.9653 22.6941 22.6875 22.3986 22.4697 22.0715C22.5321 22.0421 22.6175 22.0583 22.685 22.0517ZM24.8391 27.8692C25.835 27.8855 26.8318 27.8667 27.8281 27.8774C27.9774 27.8804 28.1262 27.8748 28.2755 27.8687C28.4228 27.6285 28.4817 27.3756 28.5878 27.1151C28.8894 26.3468 29.1835 25.5755 29.4765 24.8036C29.5796 24.5294 29.6984 24.2638 29.7862 23.984C28.761 23.9743 27.7352 23.988 26.7099 23.9779C26.587 23.9789 26.457 23.9738 26.3367 23.9997C26.2168 24.1972 26.1549 24.4324 26.0675 24.6456C25.7568 25.4383 25.4587 26.2361 25.1514 27.0303C25.0443 27.3117 24.9224 27.5798 24.8391 27.8692Z" fill="#964DFE"/>
<path d="M34.5119 22.0523C39.2579 22.0538 44.0044 22.0523 48.7499 22.0528C49.0562 22.0548 49.3598 22.0426 49.666 22.0609C49.6031 22.3488 49.4665 22.6276 49.3629 22.9069C48.5783 24.9351 47.809 26.9699 47.0229 28.9976C46.9147 29.2683 46.8436 29.5369 46.7035 29.7929C46.5562 29.8015 46.4089 29.8086 46.2617 29.8056C45.3329 29.7954 44.4031 29.8116 43.4743 29.7974C43.5164 29.6623 43.5621 29.5288 43.616 29.3978C43.8765 28.7539 44.1131 28.1018 44.365 27.4544C44.6443 26.7338 44.9251 26.0142 45.1973 25.2911C45.3552 24.8534 45.5512 24.4283 45.6924 23.985C44.9906 23.9789 44.2847 23.9748 43.5829 23.987C43.519 24.0967 43.4631 24.2089 43.421 24.3293C43.0106 25.45 42.5602 26.5535 42.1433 27.6712C41.9128 28.2836 41.6629 28.8889 41.44 29.5044C41.4029 29.6024 41.3582 29.6943 41.3135 29.7888C41.1688 29.801 41.0241 29.8086 40.8788 29.805C39.9475 29.7944 39.0152 29.8122 38.0844 29.7974C38.1747 29.4846 38.3119 29.187 38.4256 28.8798C38.8171 27.8368 39.2305 26.8023 39.622 25.7593C39.8424 25.1662 40.0928 24.5832 40.302 23.9865C39.6027 23.9774 38.8994 23.9748 38.2006 23.9865C38.0879 24.1764 38.0214 24.3821 37.9432 24.5873C37.3328 26.1904 36.7097 27.789 36.0988 29.3922C36.0511 29.5283 35.9927 29.6598 35.9302 29.7898C35.5849 29.8208 35.234 29.7969 34.8867 29.8025C34.1595 29.7984 33.4313 29.8116 32.7046 29.7969C32.8087 29.4328 32.9676 29.0845 33.0956 28.728C33.774 26.9669 34.4454 25.2032 35.1253 23.4416C35.1502 23.3685 35.1771 23.2893 35.1817 23.2121C35.1553 23.1329 35.0989 23.0608 35.0487 22.9948C34.8029 22.686 34.5327 22.39 34.3042 22.068C34.3697 22.0492 34.4444 22.0553 34.5119 22.0523Z" fill="#964DFE"/>
<path d="M14.4472 23.9966C14.6047 23.9692 14.7707 23.9799 14.9302 23.9789C15.9123 23.99 16.8964 23.9677 17.878 23.989C17.841 24.1419 17.7937 24.2886 17.7333 24.4344C17.3778 25.3083 17.0615 26.196 16.7136 27.073C16.6049 27.3421 16.5278 27.6108 16.3896 27.8662C15.9544 27.8906 15.5177 27.8682 15.082 27.8748C14.3716 27.8687 13.6601 27.886 12.9497 27.8687C13.0513 27.5183 13.2082 27.1847 13.3326 26.8414C13.6149 26.0792 13.9181 25.3251 14.2055 24.5649C14.2797 24.377 14.335 24.1652 14.4472 23.9966Z" fill="black"/>
<path d="M26.3366 23.9997C26.457 23.9738 26.587 23.9789 26.7099 23.9779C27.7352 23.9881 28.7609 23.9744 29.7862 23.984C29.6984 24.2638 29.5795 24.5294 29.4765 24.8036C29.1834 25.5755 28.8894 26.3469 28.5878 27.1152C28.4817 27.3757 28.4227 27.6286 28.2755 27.8688C28.1262 27.8749 27.9774 27.8804 27.8281 27.8774C26.8318 27.8667 25.8349 27.8855 24.8391 27.8693C24.9224 27.5798 25.0443 27.3117 25.1514 27.0304C25.4586 26.2361 25.7567 25.4384 26.0675 24.6457C26.1549 24.4324 26.2168 24.1973 26.3366 23.9997Z" fill="black"/>
<path d="M7.34452 31.8236C7.49889 31.784 7.68171 31.8129 7.84014 31.8221C7.87975 31.9206 7.91987 32.015 7.95288 32.1151C8.15753 32.7722 8.43479 33.4115 8.71968 34.0371C9.0787 34.8217 9.50323 35.5692 9.96331 36.2984C10.0786 36.4818 10.1999 36.6595 10.334 36.8296C10.3498 36.6981 10.3685 36.5666 10.3848 36.435C10.6641 36.4203 10.9429 36.4305 11.2227 36.4295C13.3215 36.4295 15.4208 36.4295 17.5196 36.4295C17.8248 36.4279 18.1269 36.4411 18.4316 36.4178C18.3874 36.1217 18.2914 35.8455 18.2224 35.555C17.9517 34.4505 17.7349 33.3272 17.5576 32.2039C17.5373 32.076 17.5312 31.947 17.5277 31.8175C17.6912 31.8058 17.8517 31.8063 18.0147 31.816C18.1101 32.0877 18.1198 32.3908 18.1696 32.6798C18.3275 33.6482 18.5286 34.61 18.7749 35.5601C18.8495 35.8434 18.9059 36.1273 19.0115 36.4015C19.2918 36.4533 19.5599 36.4259 19.8555 36.4295C23.9012 36.4289 27.9465 36.4295 31.9922 36.4289C32.3213 36.4208 32.6646 36.4584 32.9885 36.4015C33.0992 36.1131 33.1566 35.817 33.2353 35.5195C33.4837 34.5531 33.6868 33.5761 33.8447 32.5914C33.8879 32.3278 33.9026 32.0714 33.9859 31.8155C34.1479 31.8068 34.3083 31.8063 34.4703 31.818C34.4719 32.0998 34.414 32.3659 34.3698 32.6427C34.2068 33.6344 34.0067 34.6196 33.767 35.5956C33.701 35.8714 33.6096 36.1359 33.5685 36.4178C33.8731 36.4411 34.1753 36.4279 34.4805 36.4295C36.5965 36.4295 38.7121 36.4289 40.8281 36.4295C41.1191 36.432 41.4071 36.4162 41.6975 36.4386C41.7168 36.5315 41.7366 36.6239 41.7595 36.7159C41.8148 36.6417 41.8697 36.5666 41.9225 36.4899C42.7223 35.2777 43.3794 33.9762 43.8882 32.6158C43.9771 32.3822 44.0299 32.1491 44.1533 31.9292C44.33 31.9003 44.5052 31.8779 44.685 31.8789C44.6327 32.1196 44.5469 32.3482 44.4626 32.5787C43.7679 34.5373 42.7507 36.3817 41.4731 38.0199C39.7658 40.2198 37.5807 42.0469 35.1173 43.3438C33.9646 43.9527 32.7514 44.4351 31.5027 44.8063C29.8152 45.2908 28.0597 45.5584 26.3047 45.5838C24.4695 45.6163 22.6282 45.3746 20.8549 44.9043C18.5433 44.2711 16.3501 43.2169 14.4199 41.7955C11.9499 39.9816 9.90288 37.5807 8.52315 34.8436C8.05444 33.9412 7.6878 33.0002 7.35925 32.0394C7.34909 31.9769 7.2846 31.8728 7.34452 31.8236ZM23.5712 44.885C23.3051 44.6738 23.0161 44.4961 22.7587 44.2721C21.7009 43.3728 20.9026 42.2114 20.2445 40.9982C19.7153 39.9923 19.2659 38.9446 18.9049 37.8666C18.7962 37.5639 18.7241 37.2531 18.5971 36.9591C18.3732 36.9368 18.1498 36.9434 17.9258 36.9454C15.4294 36.9494 12.9173 36.9413 10.4229 36.9489C10.5656 37.2034 10.757 37.4329 10.9327 37.6645C12.8391 40.1278 15.3619 42.121 18.2066 43.3905C19.6681 44.0558 21.2246 44.5138 22.8044 44.7916C23.0588 44.8368 23.3127 44.8759 23.5712 44.885ZM32.8032 36.951C32.5325 36.9378 32.2629 36.9464 31.9922 36.9459C27.9805 36.9459 23.9688 36.9459 19.9571 36.9459C19.7057 36.9484 19.4523 36.9332 19.2014 36.953C19.2141 37.2227 19.3396 37.4999 19.4249 37.7543C20.0276 39.4865 20.8244 41.2318 21.9639 42.6806C22.682 43.581 23.5691 44.397 24.664 44.8048C25.3058 45.0521 25.9944 45.0897 26.6703 44.9886C27.6403 44.8155 28.5401 44.2366 29.2404 43.5607C30.2712 42.5593 31.0289 41.3156 31.651 40.0298C32.0628 39.1747 32.3974 38.2743 32.7077 37.3786C32.757 37.2389 32.7854 37.0972 32.8032 36.951ZM33.4049 36.9606C33.2876 37.2115 33.2257 37.4903 33.1328 37.7518C32.6102 39.3159 31.9277 40.8601 31.0131 42.2358C30.4759 43.0366 29.8543 43.78 29.1012 44.3864C28.8692 44.5753 28.6158 44.7322 28.3786 44.914C29.1495 44.819 29.9137 44.6733 30.6658 44.4808C31.4748 44.2706 32.2746 44.0329 33.048 43.713C36.2228 42.4526 39.0371 40.3223 41.1181 37.6147C41.2847 37.3984 41.4523 37.1876 41.5863 36.9495C39.0676 36.9408 36.5432 36.95 34.024 36.9449C33.8137 36.9449 33.6142 36.9342 33.4049 36.9606Z" fill="#964DFE"/>
<path d="M10.4229 36.949C12.9172 36.9413 15.4294 36.9495 17.9258 36.9454C18.1497 36.9434 18.3732 36.9368 18.5971 36.9591C18.7241 37.2531 18.7962 37.5639 18.9048 37.8666C19.2659 38.9447 19.7153 39.9923 20.2445 40.9982C20.9026 42.2114 21.7009 43.3728 22.7586 44.2721C23.0161 44.4961 23.305 44.6738 23.5711 44.885C23.3127 44.8759 23.0587 44.8368 22.8043 44.7916C21.2245 44.5138 19.6681 44.0558 18.2066 43.3906C15.3618 42.121 12.839 40.1279 10.9327 37.6645C10.757 37.4329 10.5655 37.2034 10.4229 36.949Z" fill="black"/>
<path d="M19.2014 36.953C19.4523 36.9332 19.7057 36.9484 19.957 36.9459C23.9688 36.9459 27.9805 36.9459 31.9922 36.9459C32.2629 36.9464 32.5325 36.9378 32.8032 36.951C32.7854 37.0972 32.757 37.2389 32.7077 37.3786C32.3974 38.2743 32.0628 39.1747 31.6509 40.0299C31.0289 41.3156 30.2712 42.5593 29.2404 43.5607C28.5401 44.2366 27.6402 44.8155 26.6703 44.9886C25.9944 45.0897 25.3058 45.0521 24.664 44.8048C23.5691 44.397 22.682 43.581 21.9639 42.6806C20.8244 41.2318 20.0276 39.4865 19.4249 37.7543C19.3395 37.4999 19.2141 37.2227 19.2014 36.953Z" fill="black"/>
<path d="M34.0239 36.9449C36.5431 36.95 39.0675 36.9408 41.5862 36.9494C41.4522 37.1876 41.2846 37.3984 41.118 37.6147C39.037 40.3223 36.2227 42.4526 33.0479 43.713C32.2745 44.0329 31.4747 44.2706 30.6657 44.4808C29.9137 44.6733 29.1494 44.819 28.3785 44.914C28.6157 44.7322 28.8691 44.5753 29.1012 44.3864C29.8542 43.78 30.4758 43.0366 31.0131 42.2358C31.9276 40.8601 32.6101 39.3159 33.1327 37.7518C33.2256 37.4903 33.2876 37.2115 33.4049 36.9606C33.6141 36.9342 33.8137 36.9449 34.0239 36.9449Z" fill="black"/>
</g>
</g>
<defs>
<clipPath id="clip0_175_430">
<rect width="128" height="128" fill="white"/>
</clipPath>
<clipPath id="clip1_175_430">
<rect width="52" height="52" rx="26" fill="white"/>
</clipPath>
</defs>
</svg>
