<svg width="128" height="128" viewBox="0 0 128 128" fill="none" xmlns="http://www.w3.org/2000/svg">
<g clip-path="url(#clip0_175_431)">
<path d="M64 128C99.346 128 128 99.346 128 64C128 28.654 99.346 0 64 0C28.654 0 0 28.654 0 64C0 99.346 28.654 128 64 128Z" fill="#2F63F9"/>
<path d="M91.3 25.24C93.433 26.817 95.374 28.558 97.28 30.4L98.009 31.09C102.995 35.914 106.696 42.384 108.8 48.96V49.92H107.52L107.19 49.05C105.47 44.621 103.532 40.704 100.8 36.8C95.283 36.337 95.283 36.337 88.98 36.44L82.471 36.437L77.44 36.48L78.72 41.6C79.312 44.371 79.535 47.092 79.68 49.92H78.4L78.073 47.874L77.64 45.18L77.213 42.514C76.879 40.4998 76.528 38.4884 76.16 36.48H53.12C51.837 43.184 51.837 43.184 50.88 49.92H49.6C49.681 45.457 50.66 41.165 51.52 36.8C47.7266 36.716 43.9333 36.6494 40.14 36.6L33.739 36.487L28.48 36.8C25.534 41.008 23.441 45.075 21.76 49.92H20.48C22.445 39.947 29.976 30.612 38.265 25.014C54.663 14.624 74.975 13.989 91.3 25.24Z" fill="#E6C040"/>
<path d="M21.76 80H23.04L23.521 80.985C24.736 83.447 25.987 85.857 27.409 88.206C27.84 88.96 27.84 88.96 28.16 89.92L51.52 89.6L49.92 81.28V80H51.2C51.86 83.302 52.49 86.611 53.12 89.92H76.16C76.6476 87.0144 77.1186 84.106 77.573 81.195L77.76 80H79.36C79.13 82.034 78.783 84.03 78.4 86.04L78.06 87.837C77.76 89.28 77.76 89.28 77.44 89.92C81.273 89.987 85.107 90.02 88.94 90.04L95.409 90.107L100.8 89.6C103.144 85.996 103.144 85.996 105.14 82.28L105.781 80.963L106.24 80H107.52C106.308 86.062 101.76 91.322 97.6 95.68L96.821 96.521C89.409 104.299 78.081 109.114 67.419 109.516C59.616 109.596 52.177 108.792 45.12 105.28L43.916 104.695C37.633 101.522 32.089 97.152 27.84 91.52L27.255 90.745C21.76 83.171 21.76 83.171 21.76 80Z" fill="#E4BF42"/>
<path d="M113.081 56.4C114.979 57.667 116.406 59.67 117.005 61.875C117.527 65.707 117.182 68.707 115.04 71.92C113.062 73.757 110.579 75.102 107.84 75.2L106.964 75.247C103.586 75.359 100.995 74.66 98.24 72.64C95.746 70.193 95.306 68.034 95.2 64.66C95.256 61.852 95.661 60.014 97.535 57.916C101.778 53.869 108.048 53.756 113.081 56.4Z" fill="#EFC537"/>
<path d="M54.72 55.04C60.8 55.04 60.8 55.04 62.413 56.353L63.56 58.12L64.803 59.969L65.92 61.76L66.877 63.181C68.8 66.053 68.8 66.053 68.8 66.88H69.44L69.281 65.731C69.082 63.594 69.09 61.487 69.101 59.341L69.109 56.899L69.12 55.04H74.88V74.88C68.8 74.88 68.8 74.88 67.456 73.954L66.66 72.7L65.764 71.371L64.96 70.08C64.4986 69.45 64.032 68.8233 63.56 68.2C62.49 66.719 61.496 65.204 60.48 63.68V74.88H54.72V55.04Z" fill="#ECC33A"/>
<path d="M35.52 55.04H53.12V60.16H40.96V62.4H52.48V67.52H40.96V69.76H53.12V74.88H35.52V55.04Z" fill="#EDC439"/>
<path d="M29.76 91.2H52.16C52.6767 92.5711 53.1847 93.9455 53.684 95.323C55.364 99.895 57.121 103.951 60.48 107.52V107.84C55.494 108.011 50.577 106.371 46.08 104.32L44.947 103.812C39.222 101.108 33.672 96.847 29.76 91.84V91.2Z" fill="#3264F6"/>
<path d="M13.12 55.04H18.56V62.4H27.84V55.04H33.28V74.88H27.84V67.52H18.56V74.88H13.12V55.04Z" fill="#F0C536"/>
<path d="M82.051 91.169L88.34 91.18L94.631 91.189L99.52 91.2C95.63 98.978 85.281 103.868 77.44 106.56C74.586 107.42 71.77 107.711 68.8 107.84L69.64 106.76C72.83 102.48 74.824 97.711 76.427 92.643C77.363 89.824 77.57 91.197 82.051 91.169Z" fill="#3264F6"/>
<path d="M60.48 18.56L59.66 19.62C56.06 24.462 54.174 29.492 52.16 35.2H29.76C33.49 27.738 43.302 22.865 50.74 20.2C53.874 19.214 57.19 18.56 60.48 18.56ZM68.8 18.56C79.543 18.6 89.712 24.73 97.12 32.04C99.52 34.461 99.52 34.461 99.52 35.2H77.12C76.16 32.64 76.16 32.64 75.725 31.427C74.199 27.217 72.486 23.475 69.702 19.945C69.12 19.2 69.12 19.2 68.8 18.56Z" fill="#3164F7"/>
<path d="M65.5999 18.24C70.2479 20.347 72.4319 25.511 74.1879 29.974C75.5199 33.643 75.5199 33.643 75.5199 35.2H53.4399C55.1139 29.063 57.3889 22.47 62.7199 18.56C63.7529 18.044 64.4499 18.112 65.5999 18.24Z" fill="#3164F7"/>
<path d="M53.4399 91.2H75.5199C74.7259 96.76 72.0259 103.184 67.6829 106.927C66.2059 108.017 65.1729 108.402 63.3599 108.16C57.5119 104.505 55.2499 97.533 53.4399 91.2Z" fill="#3264F6"/>
<path d="M76.8 55.04H82.24V69.76H93.76V74.88H76.8V55.04Z" fill="#F0C536"/>
<path d="M105.84 60.08L107.195 60.055C108.542 60.165 109.284 60.369 110.4 61.12C111.787 62.831 111.552 64.786 111.36 66.88C110.973 68.062 110.703 68.565 109.732 69.317C108.486 69.909 107.475 69.91 106.1 69.92L104.681 69.95C103.127 69.726 102.523 69.271 101.44 68.16C100.935 67.15 101.027 66.16 101 65.04L100.953 63.685C101.153 62.145 101.624 61.553 102.72 60.48C103.729 59.975 104.721 60.092 105.84 60.08Z" fill="#3264F6"/>
<g clip-path="url(#clip1_175_431)">
<path d="M0 0H52V52H0V0ZM7.11776 19.9961C7.3112 19.9992 7.50464 20.0054 7.69808 20.0179C8.17024 18.6004 8.72456 17.1423 9.52952 15.8777C9.70528 15.6021 9.87584 15.2922 10.113 15.0644C10.2669 15.0186 10.4406 15.0134 10.6007 15.0072C13.339 15.003 16.0794 15.0311 18.8178 14.9885C18.5588 16.6535 18.0378 18.3061 17.9046 19.9888C18.0856 19.9982 18.2634 20.0158 18.4423 20.0418C18.6846 19.214 18.7169 18.3706 18.8885 17.5313C19.0653 16.6837 19.2057 15.8402 19.4854 15.0176C20.9342 14.9729 22.3714 15.0561 23.8181 14.9583C26.2454 14.9427 28.6738 14.9666 31.1002 14.9448C31.537 14.9396 31.9686 14.9833 32.4012 15.027C32.7423 15.9796 32.8806 16.9239 33.0938 17.9223C33.2311 18.5463 33.2238 19.1901 33.3694 19.8089C33.4308 20.1063 33.7688 19.9846 33.9851 20.0065C33.9435 19.1693 33.7449 18.3217 33.593 17.4949C33.4433 16.6722 33.255 15.859 33.0845 15.0415C33.4194 15.0186 33.7532 14.9937 34.0891 14.9937C36.4551 15.0249 38.8222 15.0041 41.1882 14.9999C41.3847 15.0062 41.5979 15.0041 41.7872 15.0623C42.0722 15.3067 42.2635 15.6801 42.4611 15.9952C43.0612 16.9832 43.5011 18.0357 43.8984 19.1183C44.0097 19.422 44.1397 19.7184 44.2801 20.0096C44.4538 20.0086 44.6274 20.0065 44.8011 20.0054C44.7148 19.6175 44.617 19.2348 44.4746 18.8635C43.8402 17.3087 43.1236 15.8038 42.1481 14.43C39.181 10.0578 34.3803 7.17704 29.1918 6.33152C27.534 5.99248 25.922 6.05696 24.2403 6.0944C21.8244 6.37312 19.4657 6.94408 17.2744 8.01944C15.6021 8.79008 14.1003 9.84568 12.7119 11.049C11.8092 11.8425 11.0084 12.7618 10.295 13.728C9.40784 14.8564 8.6684 16.12 8.06416 17.421C7.71576 18.2894 7.28728 19.1027 7.11776 19.9961ZM7.3268 23.9834C8.1796 23.997 9.03344 24.0022 9.88624 23.9907C10.4094 24.0417 10.6194 23.3137 11.127 23.2762C11.6085 23.2284 12.1004 23.2554 12.584 23.2502C13.5034 23.2596 14.4248 23.2388 15.3431 23.2856C15.1944 23.8285 15.003 24.4078 14.6775 24.8726C14.4654 25.1784 14.067 25.167 13.7342 25.193C12.0682 25.219 10.3979 25.1878 8.73184 25.194C8.12968 25.1982 7.42768 25.299 6.92016 25.6443C6.4116 26.0198 6.14328 26.7582 5.90096 27.3218C5.512 28.3317 5.07416 29.3207 4.6852 30.3306C6.11416 30.5011 7.51296 30.2744 8.944 30.3732C11.2986 30.3129 13.65 30.3597 16.0025 30.3378C16.2739 29.7409 16.5256 29.1356 16.7336 28.5126C15.9692 28.4357 15.2214 28.5449 14.456 28.5251C13.5543 28.5126 12.6526 28.5282 11.752 28.5064C10.8576 28.4513 9.9632 28.4877 9.06776 28.4554C9.21544 28.0738 9.34232 27.6016 9.62 27.2948C9.8176 27.0702 10.1202 27.0962 10.3927 27.0826C12.0942 27.0878 13.7956 27.093 15.497 27.0795C16.3072 27.0546 17.0924 26.9308 17.627 26.261C18.045 25.6745 18.2634 24.9298 18.5567 24.2736C18.7855 23.6902 19.163 22.9923 19.0819 22.3548C19.0466 21.9326 18.6992 21.6403 18.3102 21.5363C17.8755 21.4302 17.3961 21.4625 16.952 21.4562C14.8023 21.4781 12.6537 21.4448 10.504 21.4666C9.87896 21.4791 9.24768 21.4105 8.62472 21.4583C8.3876 21.4708 8.34392 21.6954 8.24824 21.8702C7.95184 22.5805 7.6024 23.2658 7.3268 23.9834ZM23.504 30.3524C24.9267 30.3285 26.3494 30.3514 27.7722 30.3399C28.236 30.3337 28.677 30.2754 29.0628 29.9988C29.4944 29.6889 29.7242 29.2521 29.9177 28.7716C30.5198 27.2314 31.1501 25.7036 31.7606 24.1675C31.9717 23.6132 32.2691 23.0412 32.3627 22.4546C32.4178 22.1239 32.215 21.787 31.9363 21.6206C31.6566 21.449 31.3144 21.4552 30.9982 21.449C28.3598 21.4666 25.7213 21.4573 23.0828 21.4594C22.6418 21.4625 22.2269 21.4999 21.8514 21.7516C21.3481 22.0802 21.1047 22.6356 20.8822 23.1702C20.15 24.9694 19.4376 26.7779 18.6815 28.5657C18.5338 28.9328 18.3851 29.3186 18.4309 29.7222C18.4652 30.0685 18.8146 30.3181 19.1464 30.3337C19.9035 30.3732 20.6648 30.3191 21.424 30.3638C22.1177 30.4065 22.8103 30.3909 23.504 30.3524ZM34.891 21.476C34.5821 21.9866 34.3949 22.5971 34.1734 23.1525C33.41 25.0598 32.631 26.963 31.8874 28.8777C31.6846 29.3634 31.4787 29.8449 31.3165 30.3462C32.3669 30.4106 33.4443 30.4127 34.4926 30.3285C35.1437 28.8662 35.6866 27.3562 36.2721 25.8679C36.3667 25.6225 36.4874 25.3895 36.6163 25.1618C37.0271 26.8892 36.7359 28.5844 37.1259 30.3462C37.908 30.3254 38.7088 30.3961 39.4836 30.3108C39.8382 30.1704 40.0899 29.7034 40.3458 29.4268C40.9854 28.6458 41.6603 27.8949 42.2885 27.1024C42.9198 26.3921 43.4387 25.6287 44.1522 25.0453C44.0211 25.479 43.8693 25.9012 43.6894 26.3172C43.2921 27.249 42.951 28.2027 42.5474 29.1314C42.3779 29.5277 42.2282 29.926 42.1013 30.3378C42.4892 30.3722 42.875 30.395 43.264 30.3649C43.9858 30.317 44.7034 30.3524 45.4262 30.3378C45.7818 29.5953 46.02 28.809 46.3549 28.0582C46.7761 26.988 47.2368 25.9345 47.6362 24.856C48.0688 23.7245 48.5451 22.6044 48.9382 21.4583C47.4583 21.4531 45.9878 21.4542 44.5058 21.4479C43.991 21.4053 43.6904 21.9367 43.3878 22.2695C42.8511 22.9445 42.2874 23.5955 41.7227 24.2455C41.1736 24.8716 40.7087 25.5372 40.1076 26.1196C39.9693 25.3729 39.9818 24.622 39.9152 23.869C39.8538 23.0537 39.9131 22.2633 39.7405 21.4573C38.5923 21.4666 37.4442 21.4583 36.296 21.4458C35.8249 21.4438 35.3621 21.4302 34.891 21.476ZM33.4381 31.8791C33.2561 32.579 33.2155 33.3143 33.072 34.0278C32.891 34.9783 32.7413 35.984 32.4085 36.8867C32.0757 36.9242 31.7429 36.9543 31.408 36.9533C28.2537 36.9439 25.0983 36.9678 21.944 36.9533C21.1182 36.946 20.306 36.9949 19.4834 36.8898C19.0143 35.2768 18.7429 33.6003 18.4933 31.9415C18.3061 31.9342 18.1189 31.9176 17.9327 31.8978C17.9338 32.5447 18.0773 33.1604 18.1969 33.7906C18.3726 34.8306 18.6399 35.853 18.8188 36.8919C18.019 36.9918 17.2338 36.9408 16.432 36.9512C14.5943 36.9585 12.7566 36.9439 10.919 36.9616C10.661 36.9554 10.374 36.971 10.1275 36.8888C9.958 36.8004 9.84464 36.5893 9.73648 36.4364C9.2508 35.645 8.80152 34.8514 8.4396 33.9945C8.15048 33.3154 7.9456 32.6092 7.66272 31.927C7.4724 31.9218 7.28624 31.9342 7.09696 31.9602C7.25296 32.6976 7.52232 33.3934 7.83328 34.0777C8.35536 35.3038 9.02616 36.4499 9.76144 37.5596C10.6038 38.7598 11.596 39.8902 12.6766 40.8824C13.6302 41.6967 14.5642 42.483 15.6624 43.0986C17.1922 44.0336 18.85 44.7242 20.566 45.2338C21.4219 45.4802 22.282 45.6227 23.1587 45.7694C24.4275 45.9784 25.7618 45.9472 27.0442 45.917C28.9286 45.8026 30.7923 45.4875 32.5738 44.849C34.3262 44.2666 35.9362 43.3857 37.4504 42.3363C38.0744 41.8954 38.6547 41.4014 39.2226 40.8918C40.1232 40.1294 40.9053 39.2205 41.6229 38.2876C42.3488 37.3651 42.9426 36.323 43.5053 35.2945C44.0544 34.2118 44.5671 33.0606 44.8167 31.8687C44.6264 31.8729 44.4371 31.8718 44.2468 31.8646C44.0378 32.3981 43.8766 32.9472 43.6717 33.4818C43.2318 34.5925 42.7055 35.725 42.0066 36.6995C41.835 36.9793 41.4742 36.9356 41.1902 36.9574C39.3172 36.9522 37.4421 36.9502 35.568 36.947C34.7329 36.9387 33.9186 36.9949 33.0855 36.8982C33.151 36.3303 33.3018 35.7864 33.436 35.2331C33.6128 34.4022 33.7418 33.5598 33.8832 32.7215C33.9362 32.4303 33.957 32.135 33.9227 31.8386C33.7605 31.8479 33.5993 31.8594 33.4381 31.8791Z" fill="black" stroke="black" stroke-width="17.7778"/>
<path d="M24.2404 6.0944C25.922 6.05696 27.534 5.99249 29.1918 6.33153C34.3804 7.17705 39.181 10.0578 42.1481 14.43C43.1236 15.8038 43.8402 17.3087 44.4746 18.8635C44.6171 19.2348 44.7148 19.6175 44.8012 20.0054C44.6275 20.0065 44.4538 20.0086 44.2801 20.0096C44.1397 19.7184 44.0097 19.422 43.8984 19.1183C43.5012 18.0357 43.0612 16.9832 42.4612 15.9952C42.2636 15.6801 42.0722 15.3067 41.7872 15.0623C41.598 15.0041 41.3848 15.0062 41.1882 14.9999C38.8222 15.0041 36.4552 15.0249 34.0892 14.9937C33.7532 14.9937 33.4194 15.0186 33.0845 15.0415C33.2551 15.859 33.4433 16.6722 33.5931 17.4949C33.7449 18.3217 33.9436 19.1693 33.9852 20.0065C33.7688 19.9846 33.4308 20.1063 33.3695 19.8089C33.2239 19.1901 33.2312 18.5463 33.0939 17.9223C32.8807 16.9239 32.7424 15.9796 32.4012 15.027C31.9686 14.9833 31.537 14.9396 31.1002 14.9448C28.6739 14.9666 26.2455 14.9427 23.8181 14.9583C22.3715 15.0561 20.9342 14.9729 19.4855 15.0176C19.2057 15.8402 19.0653 16.6837 18.8885 17.5313C18.7169 18.3706 18.6847 19.214 18.4424 20.0418C18.2635 20.0158 18.0856 19.9982 17.9047 19.9888C18.0378 18.3061 18.5588 16.6535 18.8178 14.9885C16.0795 15.0311 13.3391 15.003 10.6008 15.0072C10.4406 15.0134 10.2669 15.0186 10.113 15.0644C9.87588 15.2922 9.70532 15.6021 9.52956 15.8777C8.7246 17.1423 8.17028 18.6004 7.69812 20.0179C7.50468 20.0054 7.31124 19.9992 7.1178 19.9961C7.28732 19.1027 7.7158 18.2894 8.0642 17.421C8.66844 16.12 9.40788 14.8564 10.295 13.728C11.0084 12.7618 11.8092 11.8425 12.712 11.049C14.1004 9.84568 15.6021 8.79009 17.2744 8.01945C19.4657 6.94409 21.8244 6.37312 24.2404 6.0944ZM19.7465 14.3541C21.1994 14.4716 22.671 14.3811 24.128 14.4019C26 14.4113 27.872 14.3894 29.744 14.405C30.5646 14.404 31.3789 14.4362 32.1974 14.3582C31.9145 13.1695 31.4361 12.0203 30.887 10.9314C30.4585 10.0402 29.95 9.20504 29.2833 8.4708C28.8476 7.9924 28.364 7.4724 27.8055 7.13856C27.1898 6.77768 26.5107 6.552 25.79 6.5832C25.0204 6.58736 24.2653 6.99504 23.6652 7.4464C22.8551 8.1068 22.1905 8.90657 21.6539 9.80305C20.9581 10.8399 20.5244 11.959 20.0793 13.1186C19.9254 13.519 19.8235 13.9329 19.7465 14.3541ZM32.9036 14.3842C34.5884 14.4404 36.2752 14.378 37.96 14.3926C39.0687 14.378 40.196 14.4591 41.2984 14.3572C40.8138 13.5138 40.1648 12.8918 39.5055 12.1826C37.4348 10.1504 34.8972 8.59561 32.1402 7.68873C31.5547 7.49321 30.9889 7.28624 30.3795 7.17184C29.7784 7.0564 29.1772 6.94616 28.5761 6.83696C29.2053 7.56392 29.951 8.1952 30.4856 9.03552C31.278 10.2856 31.9353 11.6272 32.4168 13.0281C32.5656 13.4857 32.7153 13.9412 32.9036 14.3842ZM10.6101 14.3614C11.3392 14.4134 12.0609 14.3967 12.792 14.3978C14.8564 14.379 16.9219 14.4238 18.9852 14.3926C19.472 13.2517 19.7964 12.0307 20.3726 10.9106C20.9404 9.79785 21.6102 8.6216 22.5036 7.73656C22.7802 7.45264 23.0589 7.1708 23.322 6.87336C22.5129 6.90976 21.7579 7.09281 20.9664 7.27793C19.2692 7.73865 17.6228 8.46665 16.094 9.33401C14.4217 10.3022 12.9272 11.5544 11.6428 12.9958C11.231 13.4014 10.9055 13.8663 10.6101 14.3614Z" fill="black" stroke="#868685" stroke-width="17.7778"/>
<path d="M25.7899 6.58319C26.5106 6.55199 27.1897 6.77767 27.8054 7.13855C28.3639 7.47239 28.8475 7.99239 29.2833 8.47079C29.9499 9.20503 30.4585 10.0402 30.8869 10.9314C31.4361 12.0203 31.9145 13.1695 32.1973 14.3582C31.3789 14.4362 30.5645 14.404 29.744 14.405C27.872 14.3894 26 14.4113 24.128 14.4019C22.6709 14.3811 21.1993 14.4716 19.7465 14.3541C19.8234 13.9329 19.9253 13.519 20.0793 13.1186C20.5244 11.959 20.9581 10.8399 21.6538 9.80303C22.1905 8.90655 22.855 8.10679 23.6652 7.44639C24.2653 6.99503 25.0203 6.58735 25.7899 6.58319Z" fill="black" stroke="black" stroke-width="17.7778"/>
<path d="M28.576 6.83698C29.1772 6.94618 29.7783 7.05642 30.3794 7.17186C30.9888 7.28626 31.5546 7.49322 32.1401 7.68874C34.8972 8.59562 37.4348 10.1504 39.5054 12.1826C40.1648 12.8919 40.8137 13.5138 41.2984 14.3572C40.196 14.4591 39.0686 14.378 37.96 14.3926C36.2752 14.378 34.5883 14.4404 32.9035 14.3843C32.7153 13.9412 32.5655 13.4857 32.4168 13.0281C31.9353 11.6272 31.278 10.2856 30.4855 9.03554C29.9509 8.19522 29.2052 7.56394 28.576 6.83698Z" fill="black" stroke="black" stroke-width="17.7778"/>
<path d="M23.322 6.87335C23.0589 7.17079 22.7802 7.45263 22.5035 7.73655C21.6102 8.62159 20.9404 9.79783 20.3726 10.9106C19.7964 12.0307 19.4719 13.2517 18.9852 14.3926C16.9219 14.4238 14.8564 14.379 12.792 14.3978C12.0609 14.3967 11.3391 14.4134 10.6101 14.3614C10.9055 13.8663 11.231 13.4014 11.6428 12.9958C12.9272 11.5544 14.4217 10.3022 16.094 9.33399C17.6228 8.46663 19.2691 7.73863 20.9664 7.27791C21.7579 7.09279 22.5129 6.90975 23.322 6.87335Z" fill="black" stroke="black" stroke-width="17.7778"/>
<path d="M8.6247 21.4583C9.24766 21.4105 9.87894 21.4791 10.504 21.4667C12.6537 21.4448 14.8023 21.4781 16.952 21.4563C17.3961 21.4625 17.8755 21.4303 18.3102 21.5363C18.6992 21.6403 19.0465 21.9326 19.0819 22.3548C19.163 22.9923 18.7855 23.6902 18.5567 24.2736C18.2634 24.9299 18.045 25.6745 17.6269 26.2611C17.0924 26.9308 16.3072 27.0546 15.497 27.0795C13.7956 27.0931 12.0941 27.0879 10.3927 27.0827C10.1202 27.0962 9.81758 27.0702 9.61998 27.2948C9.3423 27.6016 9.21542 28.0738 9.06774 28.4555C9.96318 28.4877 10.8576 28.4513 11.752 28.5064C12.6526 28.5283 13.5543 28.5127 14.456 28.5251C15.2214 28.5449 15.9692 28.4357 16.7336 28.5127C16.5256 29.1356 16.2739 29.7409 16.0025 30.3379C13.65 30.3597 11.2985 30.3129 8.94398 30.3732C7.51294 30.2744 6.11414 30.5011 4.68518 30.3306C5.07414 29.3207 5.51198 28.3317 5.90094 27.3219C6.14326 26.7582 6.41158 26.0198 6.92014 25.6443C7.42766 25.2991 8.12966 25.1982 8.73182 25.194C10.3979 25.1878 12.0681 25.219 13.7342 25.193C14.067 25.167 14.4653 25.1784 14.6775 24.8727C15.003 24.4078 15.1944 23.8285 15.3431 23.2856C14.4248 23.2388 13.5033 23.2596 12.584 23.2503C12.1004 23.2555 11.6085 23.2284 11.1269 23.2763C10.6194 23.3137 10.4093 24.0417 9.88622 23.9907C9.03342 24.0022 8.17958 23.997 7.32678 23.9835C7.60238 23.2659 7.95182 22.5805 8.24822 21.8702C8.3439 21.6955 8.38758 21.4708 8.6247 21.4583Z" fill="black" stroke="#868685" stroke-width="17.7778"/>
<path d="M23.0828 21.4594C25.7213 21.4573 28.3598 21.4667 30.9983 21.449C31.3144 21.4552 31.6566 21.449 31.9364 21.6206C32.2151 21.787 32.4179 22.1239 32.3628 22.4547C32.2692 23.0412 31.9717 23.6132 31.7606 24.1675C31.1501 25.7036 30.5199 27.2314 29.9177 28.7716C29.7243 29.2521 29.4944 29.6889 29.0628 29.9988C28.677 30.2755 28.236 30.3337 27.7722 30.3399C26.3495 30.3514 24.9268 30.3285 23.504 30.3524C22.8104 30.3909 22.1177 30.4065 21.424 30.3639C20.6648 30.3191 19.9036 30.3732 19.1464 30.3337C18.8147 30.3181 18.4652 30.0685 18.4309 29.7222C18.3852 29.3187 18.5339 28.9328 18.6816 28.5657C19.4376 26.7779 20.15 24.9694 20.8822 23.1702C21.1048 22.6356 21.3481 22.0803 21.8515 21.7516C22.2269 21.4999 22.6419 21.4625 23.0828 21.4594ZM22.6336 28.4492C23.3054 28.4731 23.9772 28.4659 24.648 28.5002C25.1306 28.5137 25.6818 28.5688 26.1456 28.4201C26.4348 28.2943 26.6022 27.9365 26.728 27.6671C27.2116 26.5387 27.6412 25.3854 28.0956 24.2466C28.2184 23.9491 28.2589 23.6392 28.2849 23.322C27.4446 23.2149 26.6428 23.2752 25.7931 23.2575C25.4551 23.2659 25.037 23.2232 24.7281 23.374C24.4546 23.5009 24.3225 23.841 24.204 24.0989C23.7599 25.1815 23.3376 26.2715 22.8748 27.3447C22.7126 27.7129 22.6419 28.0478 22.6336 28.4492Z" fill="black" stroke="#868685" stroke-width="17.7778"/>
<path d="M36.296 21.4458C37.4442 21.4583 38.5924 21.4666 39.7405 21.4573C39.9132 22.2633 39.8539 23.0537 39.9152 23.869C39.9818 24.622 39.9693 25.3729 40.1076 26.1196C40.7088 25.5372 41.1736 24.8716 41.7228 24.2455C42.2875 23.5955 42.8512 22.9445 43.3878 22.2695C43.6905 21.9367 43.991 21.4053 44.5058 21.4479C45.9878 21.4542 47.4584 21.4531 48.9383 21.4583C48.5452 22.6044 48.0689 23.7245 47.6362 24.856C47.2369 25.9345 46.7761 26.988 46.3549 28.0582C46.0201 28.809 45.7819 29.5953 45.4262 30.3378C44.7034 30.3524 43.9858 30.317 43.264 30.3649C42.8751 30.395 42.4893 30.3722 42.1013 30.3378C42.2282 29.926 42.378 29.5277 42.5475 29.1314C42.951 28.2027 43.2921 27.249 43.6894 26.3172C43.8693 25.9012 44.0212 25.479 44.1522 25.0453C43.4388 25.6287 42.9198 26.3921 42.2885 27.1024C41.6604 27.8949 40.9854 28.6458 40.3458 29.4268C40.09 29.7034 39.8383 30.1704 39.4836 30.3108C38.7088 30.3961 37.9081 30.3254 37.126 30.3462C36.736 28.5844 37.0272 26.8892 36.6164 25.1618C36.4874 25.3895 36.3668 25.6225 36.2721 25.8679C35.6866 27.3562 35.1437 28.8662 34.4927 30.3285C33.4444 30.4127 32.3669 30.4106 31.3165 30.3462C31.4788 29.8449 31.6847 29.3634 31.8875 28.8777C32.6311 26.963 33.41 25.0598 34.1734 23.1525C34.3949 22.5971 34.5821 21.9866 34.891 21.476C35.3621 21.4302 35.8249 21.4438 36.296 21.4458Z" fill="black" stroke="#868685" stroke-width="17.7778"/>
<path d="M25.7931 23.2575C26.6427 23.2752 27.4446 23.2149 28.2849 23.322C28.2589 23.6392 28.2183 23.9491 28.0956 24.2466C27.6411 25.3854 27.2116 26.5387 26.728 27.6671C26.6022 27.9365 26.4347 28.2943 26.1456 28.4201C25.6818 28.5688 25.1306 28.5137 24.648 28.5002C23.9772 28.4659 23.3054 28.4731 22.6335 28.4492C22.6419 28.0478 22.7126 27.7129 22.8748 27.3447C23.3376 26.2715 23.7599 25.1815 24.2039 24.0989C24.3225 23.841 24.4546 23.5009 24.7281 23.374C25.037 23.2232 25.4551 23.2659 25.7931 23.2575Z" fill="black" stroke="black" stroke-width="17.7778"/>
<path d="M33.9227 31.8386C33.957 32.135 33.9362 32.4303 33.8832 32.7215C33.7417 33.5598 33.6128 34.4022 33.436 35.2331C33.3018 35.7864 33.151 36.3303 33.0855 36.8982C33.9185 36.9949 34.7328 36.9387 35.568 36.947C37.442 36.9502 39.3172 36.9522 41.1902 36.9574C41.4741 36.9356 41.835 36.9793 42.0066 36.6995C42.7055 35.725 43.2317 34.5925 43.6716 33.4818C43.8765 32.9472 44.0377 32.3981 44.2468 31.8646C44.4371 31.8718 44.6264 31.8729 44.8167 31.8687C44.5671 33.0606 44.0544 34.2118 43.5052 35.2945C42.9426 36.323 42.3488 37.3651 41.6228 38.2876C40.9052 39.2205 40.1232 40.1294 39.2225 40.8918C38.6547 41.4014 38.0744 41.8954 37.4504 42.3363C35.9361 43.3857 34.3262 44.2666 32.5738 44.849C30.7923 45.4875 28.9286 45.8026 27.0441 45.917C25.7618 45.9472 24.4275 45.9784 23.1587 45.7694C22.282 45.6227 21.4219 45.4802 20.566 45.2338C18.85 44.7242 17.1922 44.0336 15.6624 43.0986C14.5641 42.483 13.6302 41.6967 12.6765 40.8824C11.596 39.8902 10.6038 38.7598 9.7614 37.5596C9.02612 36.4499 8.35532 35.3038 7.83324 34.0777C7.52228 33.3934 7.25292 32.6976 7.09692 31.9602C7.2862 31.9342 7.47236 31.9218 7.66268 31.927C7.94556 32.6092 8.15044 33.3154 8.43956 33.9945C8.80148 34.8514 9.25076 35.645 9.73644 36.4364C9.8446 36.5893 9.95796 36.8004 10.1275 36.8888C10.374 36.971 10.661 36.9554 10.9189 36.9616C12.7566 36.9439 14.5943 36.9585 16.432 36.9512C17.2338 36.9408 18.019 36.9918 18.8188 36.8919C18.6399 35.853 18.3726 34.8306 18.1968 33.7906C18.0772 33.1604 17.9337 32.5447 17.9327 31.8978C18.1188 31.9176 18.306 31.9342 18.4932 31.9415C18.7428 33.6003 19.0143 35.2768 19.4833 36.8898C20.306 36.9949 21.1182 36.946 21.944 36.9533C25.0983 36.9678 28.2536 36.9439 31.408 36.9533C31.7428 36.9543 32.0756 36.9242 32.4084 36.8867C32.7412 35.984 32.891 34.9783 33.072 34.0278C33.2155 33.3143 33.256 32.579 33.438 31.8791C33.5992 31.8594 33.7604 31.8479 33.9227 31.8386ZM10.5497 37.518C11.052 38.4519 11.7821 39.155 12.5268 39.8902C13.3608 40.7274 14.2854 41.4856 15.2755 42.1314C16.2229 42.719 17.1308 43.2952 18.1688 43.7143C19.7974 44.4049 21.6278 45.0902 23.4104 45.137C22.8529 44.5723 22.2788 44.0461 21.8025 43.4065C21.1182 42.4954 20.542 41.4887 20.0834 40.4466C19.656 39.4815 19.3908 38.4644 18.9852 37.493C17.0268 37.4244 15.0633 37.4691 13.104 37.4577C12.2543 37.4722 11.3848 37.4109 10.5497 37.518ZM19.6664 37.5201C20.0844 38.9584 20.6398 40.352 21.3553 41.6686C22.076 42.9062 22.9143 44.0326 24.1342 44.8188C24.8674 45.2743 25.7348 45.5291 26.5907 45.2889C27.639 45.0507 28.47 44.4184 29.1761 43.6322C30.1839 42.5038 30.914 41.0821 31.4756 39.6864C31.7636 38.9542 32.0746 38.272 32.19 37.4847C30.1288 37.4171 28.0623 37.4826 26 37.4462C24.9267 37.4067 23.8503 37.4182 22.776 37.4327C21.7328 37.493 20.7064 37.3994 19.6664 37.5201ZM32.9243 37.5034C32.6591 38.0619 32.5145 38.6755 32.2847 39.2517C31.7075 40.7337 31.072 42.145 30.1142 43.4262C29.6608 44.0315 29.07 44.5505 28.5584 45.1235C29.1553 45.0954 29.746 45.0226 30.3264 44.8843C33.9684 44.0253 37.3235 42.0909 39.9214 39.4025C40.4612 38.8086 40.9843 38.2086 41.4065 37.5232C40.9156 37.4702 40.4289 37.4494 39.936 37.4546C38.3406 37.4681 36.7463 37.4629 35.152 37.4566C34.4146 37.465 33.6575 37.4275 32.9243 37.5034Z" fill="black" stroke="#868685" stroke-width="17.7778"/>
<path d="M13.104 37.4577C15.0634 37.4691 17.0269 37.4244 18.9852 37.493C19.3908 38.4644 19.656 39.4815 20.0835 40.4466C20.5421 41.4887 21.1183 42.4954 21.8026 43.4065C22.2789 44.0461 22.853 44.5723 23.4104 45.137C21.6279 45.0902 19.7975 44.4049 18.1688 43.7143C17.1309 43.2952 16.223 42.719 15.2756 42.1314C14.2855 41.4856 13.3609 40.7274 12.5268 39.8902C11.7822 39.155 11.0521 38.4519 10.5498 37.518C11.3849 37.4109 12.2544 37.4722 13.104 37.4577Z" fill="black" stroke="black" stroke-width="17.7778"/>
<path d="M22.776 37.4327C23.8503 37.4182 24.9267 37.4067 26 37.4462C28.0623 37.4826 30.1288 37.4171 32.1901 37.4847C32.0746 38.272 31.7637 38.9542 31.4756 39.6864C30.914 41.0821 30.1839 42.5038 29.1761 43.6322C28.47 44.4184 27.639 45.0507 26.5907 45.2889C25.7348 45.5291 24.8674 45.2743 24.1342 44.8188C22.9143 44.0326 22.0761 42.9062 21.3553 41.6686C20.6398 40.352 20.0845 38.9584 19.6664 37.5201C20.7064 37.3994 21.7329 37.493 22.776 37.4327Z" fill="black" stroke="black" stroke-width="17.7778"/>
<path d="M35.1519 37.4566C36.7463 37.4629 38.3406 37.4681 39.9359 37.4546C40.4289 37.4494 40.9156 37.4702 41.4065 37.5232C40.9843 38.2086 40.4611 38.8086 39.9214 39.4025C37.3235 42.0909 33.9684 44.0253 30.3263 44.8843C29.746 45.0226 29.1553 45.0954 28.5583 45.1235C29.07 44.5505 29.6607 44.0315 30.1142 43.4262C31.072 42.145 31.7075 40.7337 32.2847 39.2517C32.5145 38.6755 32.6591 38.0619 32.9243 37.5034C33.6575 37.4275 34.4146 37.465 35.1519 37.4566Z" fill="black" stroke="black" stroke-width="17.7778"/>
<path d="M0 0H52V52H0V0ZM7.11776 19.9961C7.3112 19.9992 7.50464 20.0054 7.69808 20.0179C8.17024 18.6004 8.72456 17.1423 9.52952 15.8777C9.70528 15.6021 9.87584 15.2922 10.113 15.0644C10.2669 15.0186 10.4406 15.0134 10.6007 15.0072C13.339 15.003 16.0794 15.0311 18.8178 14.9885C18.5588 16.6535 18.0378 18.3061 17.9046 19.9888C18.0856 19.9982 18.2634 20.0158 18.4423 20.0418C18.6846 19.214 18.7169 18.3706 18.8885 17.5313C19.0653 16.6837 19.2057 15.8402 19.4854 15.0176C20.9342 14.9729 22.3714 15.0561 23.8181 14.9583C26.2454 14.9427 28.6738 14.9666 31.1002 14.9448C31.537 14.9396 31.9686 14.9833 32.4012 15.027C32.7423 15.9796 32.8806 16.9239 33.0938 17.9223C33.2311 18.5463 33.2238 19.1901 33.3694 19.8089C33.4308 20.1063 33.7688 19.9846 33.9851 20.0065C33.9435 19.1693 33.7449 18.3217 33.593 17.4949C33.4433 16.6722 33.255 15.859 33.0845 15.0415C33.4194 15.0186 33.7532 14.9937 34.0891 14.9937C36.4551 15.0249 38.8222 15.0041 41.1882 14.9999C41.3847 15.0062 41.5979 15.0041 41.7872 15.0623C42.0722 15.3067 42.2635 15.6801 42.4611 15.9952C43.0612 16.9832 43.5011 18.0357 43.8984 19.1183C44.0097 19.422 44.1397 19.7184 44.2801 20.0096C44.4538 20.0086 44.6274 20.0065 44.8011 20.0054C44.7148 19.6175 44.617 19.2348 44.4746 18.8635C43.8402 17.3087 43.1236 15.8038 42.1481 14.43C39.181 10.0578 34.3803 7.17704 29.1918 6.33152C27.534 5.99248 25.922 6.05696 24.2403 6.0944C21.8244 6.37312 19.4657 6.94408 17.2744 8.01944C15.6021 8.79008 14.1003 9.84568 12.7119 11.049C11.8092 11.8425 11.0084 12.7618 10.295 13.728C9.40784 14.8564 8.6684 16.12 8.06416 17.421C7.71576 18.2894 7.28728 19.1027 7.11776 19.9961ZM7.3268 23.9834C8.1796 23.997 9.03344 24.0022 9.88624 23.9907C10.4094 24.0417 10.6194 23.3137 11.127 23.2762C11.6085 23.2284 12.1004 23.2554 12.584 23.2502C13.5034 23.2596 14.4248 23.2388 15.3431 23.2856C15.1944 23.8285 15.003 24.4078 14.6775 24.8726C14.4654 25.1784 14.067 25.167 13.7342 25.193C12.0682 25.219 10.3979 25.1878 8.73184 25.194C8.12968 25.1982 7.42768 25.299 6.92016 25.6443C6.4116 26.0198 6.14328 26.7582 5.90096 27.3218C5.512 28.3317 5.07416 29.3207 4.6852 30.3306C6.11416 30.5011 7.51296 30.2744 8.944 30.3732C11.2986 30.3129 13.65 30.3597 16.0025 30.3378C16.2739 29.7409 16.5256 29.1356 16.7336 28.5126C15.9692 28.4357 15.2214 28.5449 14.456 28.5251C13.5543 28.5126 12.6526 28.5282 11.752 28.5064C10.8576 28.4513 9.9632 28.4877 9.06776 28.4554C9.21544 28.0738 9.34232 27.6016 9.62 27.2948C9.8176 27.0702 10.1202 27.0962 10.3927 27.0826C12.0942 27.0878 13.7956 27.093 15.497 27.0795C16.3072 27.0546 17.0924 26.9308 17.627 26.261C18.045 25.6745 18.2634 24.9298 18.5567 24.2736C18.7855 23.6902 19.163 22.9923 19.0819 22.3548C19.0466 21.9326 18.6992 21.6403 18.3102 21.5363C17.8755 21.4302 17.3961 21.4625 16.952 21.4562C14.8023 21.4781 12.6537 21.4448 10.504 21.4666C9.87896 21.4791 9.24768 21.4105 8.62472 21.4583C8.3876 21.4708 8.34392 21.6954 8.24824 21.8702C7.95184 22.5805 7.6024 23.2658 7.3268 23.9834ZM23.504 30.3524C24.9267 30.3285 26.3494 30.3514 27.7722 30.3399C28.236 30.3337 28.677 30.2754 29.0628 29.9988C29.4944 29.6889 29.7242 29.2521 29.9177 28.7716C30.5198 27.2314 31.1501 25.7036 31.7606 24.1675C31.9717 23.6132 32.2691 23.0412 32.3627 22.4546C32.4178 22.1239 32.215 21.787 31.9363 21.6206C31.6566 21.449 31.3144 21.4552 30.9982 21.449C28.3598 21.4666 25.7213 21.4573 23.0828 21.4594C22.6418 21.4625 22.2269 21.4999 21.8514 21.7516C21.3481 22.0802 21.1047 22.6356 20.8822 23.1702C20.15 24.9694 19.4376 26.7779 18.6815 28.5657C18.5338 28.9328 18.3851 29.3186 18.4309 29.7222C18.4652 30.0685 18.8146 30.3181 19.1464 30.3337C19.9035 30.3732 20.6648 30.3191 21.424 30.3638C22.1177 30.4065 22.8103 30.3909 23.504 30.3524ZM34.891 21.476C34.5821 21.9866 34.3949 22.5971 34.1734 23.1525C33.41 25.0598 32.631 26.963 31.8874 28.8777C31.6846 29.3634 31.4787 29.8449 31.3165 30.3462C32.3669 30.4106 33.4443 30.4127 34.4926 30.3285C35.1437 28.8662 35.6866 27.3562 36.2721 25.8679C36.3667 25.6225 36.4874 25.3895 36.6163 25.1618C37.0271 26.8892 36.7359 28.5844 37.1259 30.3462C37.908 30.3254 38.7088 30.3961 39.4836 30.3108C39.8382 30.1704 40.0899 29.7034 40.3458 29.4268C40.9854 28.6458 41.6603 27.8949 42.2885 27.1024C42.9198 26.3921 43.4387 25.6287 44.1522 25.0453C44.0211 25.479 43.8693 25.9012 43.6894 26.3172C43.2921 27.249 42.951 28.2027 42.5474 29.1314C42.3779 29.5277 42.2282 29.926 42.1013 30.3378C42.4892 30.3722 42.875 30.395 43.264 30.3649C43.9858 30.317 44.7034 30.3524 45.4262 30.3378C45.7818 29.5953 46.02 28.809 46.3549 28.0582C46.7761 26.988 47.2368 25.9345 47.6362 24.856C48.0688 23.7245 48.5451 22.6044 48.9382 21.4583C47.4583 21.4531 45.9878 21.4542 44.5058 21.4479C43.991 21.4053 43.6904 21.9367 43.3878 22.2695C42.8511 22.9445 42.2874 23.5955 41.7227 24.2455C41.1736 24.8716 40.7087 25.5372 40.1076 26.1196C39.9693 25.3729 39.9818 24.622 39.9152 23.869C39.8538 23.0537 39.9131 22.2633 39.7405 21.4573C38.5923 21.4666 37.4442 21.4583 36.296 21.4458C35.8249 21.4438 35.3621 21.4302 34.891 21.476ZM33.4381 31.8791C33.2561 32.579 33.2155 33.3143 33.072 34.0278C32.891 34.9783 32.7413 35.984 32.4085 36.8867C32.0757 36.9242 31.7429 36.9543 31.408 36.9533C28.2537 36.9439 25.0983 36.9678 21.944 36.9533C21.1182 36.946 20.306 36.9949 19.4834 36.8898C19.0143 35.2768 18.7429 33.6003 18.4933 31.9415C18.3061 31.9342 18.1189 31.9176 17.9327 31.8978C17.9338 32.5447 18.0773 33.1604 18.1969 33.7906C18.3726 34.8306 18.6399 35.853 18.8188 36.8919C18.019 36.9918 17.2338 36.9408 16.432 36.9512C14.5943 36.9585 12.7566 36.9439 10.919 36.9616C10.661 36.9554 10.374 36.971 10.1275 36.8888C9.958 36.8004 9.84464 36.5893 9.73648 36.4364C9.2508 35.645 8.80152 34.8514 8.4396 33.9945C8.15048 33.3154 7.9456 32.6092 7.66272 31.927C7.4724 31.9218 7.28624 31.9342 7.09696 31.9602C7.25296 32.6976 7.52232 33.3934 7.83328 34.0777C8.35536 35.3038 9.02616 36.4499 9.76144 37.5596C10.6038 38.7598 11.596 39.8902 12.6766 40.8824C13.6302 41.6967 14.5642 42.483 15.6624 43.0986C17.1922 44.0336 18.85 44.7242 20.566 45.2338C21.4219 45.4802 22.282 45.6227 23.1587 45.7694C24.4275 45.9784 25.7618 45.9472 27.0442 45.917C28.9286 45.8026 30.7923 45.4875 32.5738 44.849C34.3262 44.2666 35.9362 43.3857 37.4504 42.3363C38.0744 41.8954 38.6547 41.4014 39.2226 40.8918C40.1232 40.1294 40.9053 39.2205 41.6229 38.2876C42.3488 37.3651 42.9426 36.323 43.5053 35.2945C44.0544 34.2118 44.5671 33.0606 44.8167 31.8687C44.6264 31.8729 44.4371 31.8718 44.2468 31.8646C44.0378 32.3981 43.8766 32.9472 43.6717 33.4818C43.2318 34.5925 42.7055 35.725 42.0066 36.6995C41.835 36.9793 41.4742 36.9356 41.1902 36.9574C39.3172 36.9522 37.4421 36.9502 35.568 36.947C34.7329 36.9387 33.9186 36.9949 33.0855 36.8982C33.151 36.3303 33.3018 35.7864 33.436 35.2331C33.6128 34.4022 33.7418 33.5598 33.8832 32.7215C33.9362 32.4303 33.957 32.135 33.9227 31.8386C33.7605 31.8479 33.5993 31.8594 33.4381 31.8791Z" fill="black"/>
<path d="M24.2404 6.0944C25.922 6.05696 27.534 5.99249 29.1918 6.33153C34.3804 7.17705 39.181 10.0578 42.1481 14.43C43.1236 15.8038 43.8402 17.3087 44.4746 18.8635C44.6171 19.2348 44.7148 19.6175 44.8012 20.0054C44.6275 20.0065 44.4538 20.0086 44.2801 20.0096C44.1397 19.7184 44.0097 19.422 43.8984 19.1183C43.5012 18.0357 43.0612 16.9832 42.4612 15.9952C42.2636 15.6801 42.0722 15.3067 41.7872 15.0623C41.598 15.0041 41.3848 15.0062 41.1882 14.9999C38.8222 15.0041 36.4552 15.0249 34.0892 14.9937C33.7532 14.9937 33.4194 15.0186 33.0845 15.0415C33.2551 15.859 33.4433 16.6722 33.5931 17.4949C33.7449 18.3217 33.9436 19.1693 33.9852 20.0065C33.7688 19.9846 33.4308 20.1063 33.3695 19.8089C33.2239 19.1901 33.2312 18.5463 33.0939 17.9223C32.8807 16.9239 32.7424 15.9796 32.4012 15.027C31.9686 14.9833 31.537 14.9396 31.1002 14.9448C28.6739 14.9666 26.2455 14.9427 23.8181 14.9583C22.3715 15.0561 20.9342 14.9729 19.4855 15.0176C19.2057 15.8402 19.0653 16.6837 18.8885 17.5313C18.7169 18.3706 18.6847 19.214 18.4424 20.0418C18.2635 20.0158 18.0856 19.9982 17.9047 19.9888C18.0378 18.3061 18.5588 16.6535 18.8178 14.9885C16.0795 15.0311 13.3391 15.003 10.6008 15.0072C10.4406 15.0134 10.2669 15.0186 10.113 15.0644C9.87588 15.2922 9.70532 15.6021 9.52956 15.8777C8.7246 17.1423 8.17028 18.6004 7.69812 20.0179C7.50468 20.0054 7.31124 19.9992 7.1178 19.9961C7.28732 19.1027 7.7158 18.2894 8.0642 17.421C8.66844 16.12 9.40788 14.8564 10.295 13.728C11.0084 12.7618 11.8092 11.8425 12.712 11.049C14.1004 9.84568 15.6021 8.79009 17.2744 8.01945C19.4657 6.94409 21.8244 6.37312 24.2404 6.0944ZM19.7465 14.3541C21.1994 14.4716 22.671 14.3811 24.128 14.4019C26 14.4113 27.872 14.3894 29.744 14.405C30.5646 14.404 31.3789 14.4362 32.1974 14.3582C31.9145 13.1695 31.4361 12.0203 30.887 10.9314C30.4585 10.0402 29.95 9.20504 29.2833 8.4708C28.8476 7.9924 28.364 7.4724 27.8055 7.13856C27.1898 6.77768 26.5107 6.552 25.79 6.5832C25.0204 6.58736 24.2653 6.99504 23.6652 7.4464C22.8551 8.1068 22.1905 8.90657 21.6539 9.80305C20.9581 10.8399 20.5244 11.959 20.0793 13.1186C19.9254 13.519 19.8235 13.9329 19.7465 14.3541ZM32.9036 14.3842C34.5884 14.4404 36.2752 14.378 37.96 14.3926C39.0687 14.378 40.196 14.4591 41.2984 14.3572C40.8138 13.5138 40.1648 12.8918 39.5055 12.1826C37.4348 10.1504 34.8972 8.59561 32.1402 7.68873C31.5547 7.49321 30.9889 7.28624 30.3795 7.17184C29.7784 7.0564 29.1772 6.94616 28.5761 6.83696C29.2053 7.56392 29.951 8.1952 30.4856 9.03552C31.278 10.2856 31.9353 11.6272 32.4168 13.0281C32.5656 13.4857 32.7153 13.9412 32.9036 14.3842ZM10.6101 14.3614C11.3392 14.4134 12.0609 14.3967 12.792 14.3978C14.8564 14.379 16.9219 14.4238 18.9852 14.3926C19.472 13.2517 19.7964 12.0307 20.3726 10.9106C20.9404 9.79785 21.6102 8.6216 22.5036 7.73656C22.7802 7.45264 23.0589 7.1708 23.322 6.87336C22.5129 6.90976 21.7579 7.09281 20.9664 7.27793C19.2692 7.73865 17.6228 8.46665 16.094 9.33401C14.4217 10.3022 12.9272 11.5544 11.6428 12.9958C11.231 13.4014 10.9055 13.8663 10.6101 14.3614Z" fill="#868685"/>
<path d="M25.7899 6.58319C26.5106 6.55199 27.1897 6.77767 27.8054 7.13855C28.3639 7.47239 28.8475 7.99239 29.2833 8.47079C29.9499 9.20503 30.4585 10.0402 30.8869 10.9314C31.4361 12.0203 31.9145 13.1695 32.1973 14.3582C31.3789 14.4362 30.5645 14.404 29.744 14.405C27.872 14.3894 26 14.4113 24.128 14.4019C22.6709 14.3811 21.1993 14.4716 19.7465 14.3541C19.8234 13.9329 19.9253 13.519 20.0793 13.1186C20.5244 11.959 20.9581 10.8399 21.6538 9.80303C22.1905 8.90655 22.855 8.10679 23.6652 7.44639C24.2653 6.99503 25.0203 6.58735 25.7899 6.58319Z" fill="black"/>
<path d="M28.576 6.83698C29.1772 6.94618 29.7783 7.05642 30.3794 7.17186C30.9888 7.28626 31.5546 7.49322 32.1401 7.68874C34.8972 8.59562 37.4348 10.1504 39.5054 12.1826C40.1648 12.8919 40.8137 13.5138 41.2984 14.3572C40.196 14.4591 39.0686 14.378 37.96 14.3926C36.2752 14.378 34.5883 14.4404 32.9035 14.3843C32.7153 13.9412 32.5655 13.4857 32.4168 13.0281C31.9353 11.6272 31.278 10.2856 30.4855 9.03554C29.9509 8.19522 29.2052 7.56394 28.576 6.83698Z" fill="black"/>
<path d="M23.322 6.87335C23.0589 7.17079 22.7802 7.45263 22.5035 7.73655C21.6102 8.62159 20.9404 9.79783 20.3726 10.9106C19.7964 12.0307 19.4719 13.2517 18.9852 14.3926C16.9219 14.4238 14.8564 14.379 12.792 14.3978C12.0609 14.3967 11.3391 14.4134 10.6101 14.3614C10.9055 13.8663 11.231 13.4014 11.6428 12.9958C12.9272 11.5544 14.4217 10.3022 16.094 9.33399C17.6228 8.46663 19.2691 7.73863 20.9664 7.27791C21.7579 7.09279 22.5129 6.90975 23.322 6.87335Z" fill="black"/>
<path d="M8.6247 21.4583C9.24766 21.4105 9.87894 21.4791 10.504 21.4667C12.6537 21.4448 14.8023 21.4781 16.952 21.4563C17.3961 21.4625 17.8755 21.4303 18.3102 21.5363C18.6992 21.6403 19.0465 21.9326 19.0819 22.3548C19.163 22.9923 18.7855 23.6902 18.5567 24.2736C18.2634 24.9299 18.045 25.6745 17.6269 26.2611C17.0924 26.9308 16.3072 27.0546 15.497 27.0795C13.7956 27.0931 12.0941 27.0879 10.3927 27.0827C10.1202 27.0962 9.81758 27.0702 9.61998 27.2948C9.3423 27.6016 9.21542 28.0738 9.06774 28.4555C9.96318 28.4877 10.8576 28.4513 11.752 28.5064C12.6526 28.5283 13.5543 28.5127 14.456 28.5251C15.2214 28.5449 15.9692 28.4357 16.7336 28.5127C16.5256 29.1356 16.2739 29.7409 16.0025 30.3379C13.65 30.3597 11.2985 30.3129 8.94398 30.3732C7.51294 30.2744 6.11414 30.5011 4.68518 30.3306C5.07414 29.3207 5.51198 28.3317 5.90094 27.3219C6.14326 26.7582 6.41158 26.0198 6.92014 25.6443C7.42766 25.2991 8.12966 25.1982 8.73182 25.194C10.3979 25.1878 12.0681 25.219 13.7342 25.193C14.067 25.167 14.4653 25.1784 14.6775 24.8727C15.003 24.4078 15.1944 23.8285 15.3431 23.2856C14.4248 23.2388 13.5033 23.2596 12.584 23.2503C12.1004 23.2555 11.6085 23.2284 11.1269 23.2763C10.6194 23.3137 10.4093 24.0417 9.88622 23.9907C9.03342 24.0022 8.17958 23.997 7.32678 23.9835C7.60238 23.2659 7.95182 22.5805 8.24822 21.8702C8.3439 21.6955 8.38758 21.4708 8.6247 21.4583Z" fill="#868685"/>
<path d="M23.0828 21.4594C25.7213 21.4573 28.3598 21.4667 30.9983 21.449C31.3144 21.4552 31.6566 21.449 31.9364 21.6206C32.2151 21.787 32.4179 22.1239 32.3628 22.4547C32.2692 23.0412 31.9717 23.6132 31.7606 24.1675C31.1501 25.7036 30.5199 27.2314 29.9177 28.7716C29.7243 29.2521 29.4944 29.6889 29.0628 29.9988C28.677 30.2755 28.236 30.3337 27.7722 30.3399C26.3495 30.3514 24.9268 30.3285 23.504 30.3524C22.8104 30.3909 22.1177 30.4065 21.424 30.3639C20.6648 30.3191 19.9036 30.3732 19.1464 30.3337C18.8147 30.3181 18.4652 30.0685 18.4309 29.7222C18.3852 29.3187 18.5339 28.9328 18.6816 28.5657C19.4376 26.7779 20.15 24.9694 20.8822 23.1702C21.1048 22.6356 21.3481 22.0803 21.8515 21.7516C22.2269 21.4999 22.6419 21.4625 23.0828 21.4594ZM22.6336 28.4492C23.3054 28.4731 23.9772 28.4659 24.648 28.5002C25.1306 28.5137 25.6818 28.5688 26.1456 28.4201C26.4348 28.2943 26.6022 27.9365 26.728 27.6671C27.2116 26.5387 27.6412 25.3854 28.0956 24.2466C28.2184 23.9491 28.2589 23.6392 28.2849 23.322C27.4446 23.2149 26.6428 23.2752 25.7931 23.2575C25.4551 23.2659 25.037 23.2232 24.7281 23.374C24.4546 23.5009 24.3225 23.841 24.204 24.0989C23.7599 25.1815 23.3376 26.2715 22.8748 27.3447C22.7126 27.7129 22.6419 28.0478 22.6336 28.4492Z" fill="#868685"/>
<path d="M36.296 21.4458C37.4442 21.4583 38.5924 21.4666 39.7405 21.4573C39.9132 22.2633 39.8539 23.0537 39.9152 23.869C39.9818 24.622 39.9693 25.3729 40.1076 26.1196C40.7088 25.5372 41.1736 24.8716 41.7228 24.2455C42.2875 23.5955 42.8512 22.9445 43.3878 22.2695C43.6905 21.9367 43.991 21.4053 44.5058 21.4479C45.9878 21.4542 47.4584 21.4531 48.9383 21.4583C48.5452 22.6044 48.0689 23.7245 47.6362 24.856C47.2369 25.9345 46.7761 26.988 46.3549 28.0582C46.0201 28.809 45.7819 29.5953 45.4262 30.3378C44.7034 30.3524 43.9858 30.317 43.264 30.3649C42.8751 30.395 42.4893 30.3722 42.1013 30.3378C42.2282 29.926 42.378 29.5277 42.5475 29.1314C42.951 28.2027 43.2921 27.249 43.6894 26.3172C43.8693 25.9012 44.0212 25.479 44.1522 25.0453C43.4388 25.6287 42.9198 26.3921 42.2885 27.1024C41.6604 27.8949 40.9854 28.6458 40.3458 29.4268C40.09 29.7034 39.8383 30.1704 39.4836 30.3108C38.7088 30.3961 37.9081 30.3254 37.126 30.3462C36.736 28.5844 37.0272 26.8892 36.6164 25.1618C36.4874 25.3895 36.3668 25.6225 36.2721 25.8679C35.6866 27.3562 35.1437 28.8662 34.4927 30.3285C33.4444 30.4127 32.3669 30.4106 31.3165 30.3462C31.4788 29.8449 31.6847 29.3634 31.8875 28.8777C32.6311 26.963 33.41 25.0598 34.1734 23.1525C34.3949 22.5971 34.5821 21.9866 34.891 21.476C35.3621 21.4302 35.8249 21.4438 36.296 21.4458Z" fill="#868685"/>
<path d="M25.7931 23.2575C26.6427 23.2752 27.4446 23.2149 28.2849 23.322C28.2589 23.6392 28.2183 23.9491 28.0956 24.2466C27.6411 25.3854 27.2116 26.5387 26.728 27.6671C26.6022 27.9365 26.4347 28.2943 26.1456 28.4201C25.6818 28.5688 25.1306 28.5137 24.648 28.5002C23.9772 28.4659 23.3054 28.4731 22.6335 28.4492C22.6419 28.0478 22.7126 27.7129 22.8748 27.3447C23.3376 26.2715 23.7599 25.1815 24.2039 24.0989C24.3225 23.841 24.4546 23.5009 24.7281 23.374C25.037 23.2232 25.4551 23.2659 25.7931 23.2575Z" fill="black"/>
<path d="M33.9227 31.8386C33.957 32.135 33.9362 32.4303 33.8832 32.7215C33.7417 33.5598 33.6128 34.4022 33.436 35.2331C33.3018 35.7864 33.151 36.3303 33.0855 36.8982C33.9185 36.9949 34.7328 36.9387 35.568 36.947C37.442 36.9502 39.3172 36.9522 41.1902 36.9574C41.4741 36.9356 41.835 36.9793 42.0066 36.6995C42.7055 35.725 43.2317 34.5925 43.6716 33.4818C43.8765 32.9472 44.0377 32.3981 44.2468 31.8646C44.4371 31.8718 44.6264 31.8729 44.8167 31.8687C44.5671 33.0606 44.0544 34.2118 43.5052 35.2945C42.9426 36.323 42.3488 37.3651 41.6228 38.2876C40.9052 39.2205 40.1232 40.1294 39.2225 40.8918C38.6547 41.4014 38.0744 41.8954 37.4504 42.3363C35.9361 43.3857 34.3262 44.2666 32.5738 44.849C30.7923 45.4875 28.9286 45.8026 27.0441 45.917C25.7618 45.9472 24.4275 45.9784 23.1587 45.7694C22.282 45.6227 21.4219 45.4802 20.566 45.2338C18.85 44.7242 17.1922 44.0336 15.6624 43.0986C14.5641 42.483 13.6302 41.6967 12.6765 40.8824C11.596 39.8902 10.6038 38.7598 9.7614 37.5596C9.02612 36.4499 8.35532 35.3038 7.83324 34.0777C7.52228 33.3934 7.25292 32.6976 7.09692 31.9602C7.2862 31.9342 7.47236 31.9218 7.66268 31.927C7.94556 32.6092 8.15044 33.3154 8.43956 33.9945C8.80148 34.8514 9.25076 35.645 9.73644 36.4364C9.8446 36.5893 9.95796 36.8004 10.1275 36.8888C10.374 36.971 10.661 36.9554 10.9189 36.9616C12.7566 36.9439 14.5943 36.9585 16.432 36.9512C17.2338 36.9408 18.019 36.9918 18.8188 36.8919C18.6399 35.853 18.3726 34.8306 18.1968 33.7906C18.0772 33.1604 17.9337 32.5447 17.9327 31.8978C18.1188 31.9176 18.306 31.9342 18.4932 31.9415C18.7428 33.6003 19.0143 35.2768 19.4833 36.8898C20.306 36.9949 21.1182 36.946 21.944 36.9533C25.0983 36.9678 28.2536 36.9439 31.408 36.9533C31.7428 36.9543 32.0756 36.9242 32.4084 36.8867C32.7412 35.984 32.891 34.9783 33.072 34.0278C33.2155 33.3143 33.256 32.579 33.438 31.8791C33.5992 31.8594 33.7604 31.8479 33.9227 31.8386ZM10.5497 37.518C11.052 38.4519 11.7821 39.155 12.5268 39.8902C13.3608 40.7274 14.2854 41.4856 15.2755 42.1314C16.2229 42.719 17.1308 43.2952 18.1688 43.7143C19.7974 44.4049 21.6278 45.0902 23.4104 45.137C22.8529 44.5723 22.2788 44.0461 21.8025 43.4065C21.1182 42.4954 20.542 41.4887 20.0834 40.4466C19.656 39.4815 19.3908 38.4644 18.9852 37.493C17.0268 37.4244 15.0633 37.4691 13.104 37.4577C12.2543 37.4722 11.3848 37.4109 10.5497 37.518ZM19.6664 37.5201C20.0844 38.9584 20.6398 40.352 21.3553 41.6686C22.076 42.9062 22.9143 44.0326 24.1342 44.8188C24.8674 45.2743 25.7348 45.5291 26.5907 45.2889C27.639 45.0507 28.47 44.4184 29.1761 43.6322C30.1839 42.5038 30.914 41.0821 31.4756 39.6864C31.7636 38.9542 32.0746 38.272 32.19 37.4847C30.1288 37.4171 28.0623 37.4826 26 37.4462C24.9267 37.4067 23.8503 37.4182 22.776 37.4327C21.7328 37.493 20.7064 37.3994 19.6664 37.5201ZM32.9243 37.5034C32.6591 38.0619 32.5145 38.6755 32.2847 39.2517C31.7075 40.7337 31.072 42.145 30.1142 43.4262C29.6608 44.0315 29.07 44.5505 28.5584 45.1235C29.1553 45.0954 29.746 45.0226 30.3264 44.8843C33.9684 44.0253 37.3235 42.0909 39.9214 39.4025C40.4612 38.8086 40.9843 38.2086 41.4065 37.5232C40.9156 37.4702 40.4289 37.4494 39.936 37.4546C38.3406 37.4681 36.7463 37.4629 35.152 37.4566C34.4146 37.465 33.6575 37.4275 32.9243 37.5034Z" fill="#868685"/>
<path d="M13.104 37.4577C15.0634 37.4691 17.0269 37.4244 18.9852 37.493C19.3908 38.4644 19.656 39.4815 20.0835 40.4466C20.5421 41.4887 21.1183 42.4954 21.8026 43.4065C22.2789 44.0461 22.853 44.5723 23.4104 45.137C21.6279 45.0902 19.7975 44.4049 18.1688 43.7143C17.1309 43.2952 16.223 42.719 15.2756 42.1314C14.2855 41.4856 13.3609 40.7274 12.5268 39.8902C11.7822 39.155 11.0521 38.4519 10.5498 37.518C11.3849 37.4109 12.2544 37.4722 13.104 37.4577Z" fill="black"/>
<path d="M22.776 37.4327C23.8503 37.4182 24.9267 37.4067 26 37.4462C28.0623 37.4826 30.1288 37.4171 32.1901 37.4847C32.0746 38.272 31.7637 38.9542 31.4756 39.6864C30.914 41.0821 30.1839 42.5038 29.1761 43.6322C28.47 44.4184 27.639 45.0507 26.5907 45.2889C25.7348 45.5291 24.8674 45.2743 24.1342 44.8188C22.9143 44.0326 22.0761 42.9062 21.3553 41.6686C20.6398 40.352 20.0845 38.9584 19.6664 37.5201C20.7064 37.3994 21.7329 37.493 22.776 37.4327Z" fill="black"/>
<path d="M35.1519 37.4566C36.7463 37.4629 38.3406 37.4681 39.9359 37.4546C40.4289 37.4494 40.9156 37.4702 41.4065 37.5232C40.9843 38.2086 40.4611 38.8086 39.9214 39.4025C37.3235 42.0909 33.9684 44.0253 30.3263 44.8843C29.746 45.0226 29.1553 45.0954 28.5583 45.1235C29.07 44.5505 29.6607 44.0315 30.1142 43.4262C31.072 42.145 31.7075 40.7337 32.2847 39.2517C32.5145 38.6755 32.6591 38.0619 32.9243 37.5034C33.6575 37.4275 34.4146 37.465 35.1519 37.4566Z" fill="black"/>
</g>
</g>
<defs>
<clipPath id="clip0_175_431">
<rect width="128" height="128" fill="white"/>
</clipPath>
<clipPath id="clip1_175_431">
<rect width="52" height="52" rx="26" fill="white"/>
</clipPath>
</defs>
</svg>
