<svg width="128" height="128" viewBox="0 0 128 128" fill="none" xmlns="http://www.w3.org/2000/svg">
<g clip-path="url(#clip0_175_433)">
<path d="M64 128C99.346 128 128 99.346 128 64C128 28.654 99.346 0 64 0C28.654 0 0 28.654 0 64C0 99.346 28.654 128 64 128Z" fill="#2F63F9"/>
<path d="M91.3 25.24C93.433 26.817 95.374 28.558 97.28 30.4L98.009 31.09C102.995 35.914 106.696 42.384 108.8 48.96V49.92H107.52L107.19 49.05C105.47 44.621 103.532 40.704 100.8 36.8C95.283 36.337 95.283 36.337 88.98 36.44L82.471 36.437L77.44 36.48L78.72 41.6C79.312 44.371 79.535 47.092 79.68 49.92H78.4L78.073 47.874L77.64 45.18L77.213 42.514C76.879 40.4998 76.528 38.4884 76.16 36.48H53.12C51.837 43.184 51.837 43.184 50.88 49.92H49.6C49.681 45.457 50.66 41.165 51.52 36.8C47.7266 36.716 43.9333 36.6494 40.14 36.6L33.739 36.487L28.48 36.8C25.534 41.008 23.441 45.075 21.76 49.92H20.48C22.445 39.947 29.976 30.612 38.265 25.014C54.663 14.624 74.975 13.989 91.3 25.24Z" fill="#E6C040"/>
<path d="M21.76 80H23.04L23.521 80.985C24.736 83.447 25.987 85.857 27.409 88.206C27.84 88.96 27.84 88.96 28.16 89.92L51.52 89.6L49.92 81.28V80H51.2C51.86 83.302 52.49 86.611 53.12 89.92H76.16C76.6476 87.0144 77.1186 84.106 77.573 81.195L77.76 80H79.36C79.13 82.034 78.783 84.03 78.4 86.04L78.06 87.837C77.76 89.28 77.76 89.28 77.44 89.92C81.273 89.987 85.107 90.02 88.94 90.04L95.409 90.107L100.8 89.6C103.144 85.996 103.144 85.996 105.14 82.28L105.781 80.963L106.24 80H107.52C106.308 86.062 101.76 91.322 97.6 95.68L96.821 96.521C89.409 104.299 78.081 109.114 67.419 109.516C59.616 109.596 52.177 108.792 45.12 105.28L43.916 104.695C37.633 101.522 32.089 97.152 27.84 91.52L27.255 90.745C21.76 83.171 21.76 83.171 21.76 80Z" fill="#E4BF42"/>
<path d="M113.081 56.4C114.979 57.667 116.406 59.67 117.005 61.875C117.527 65.707 117.182 68.707 115.04 71.92C113.062 73.757 110.579 75.102 107.84 75.2L106.964 75.247C103.586 75.359 100.995 74.66 98.24 72.64C95.746 70.193 95.306 68.034 95.2 64.66C95.256 61.852 95.661 60.014 97.535 57.916C101.778 53.869 108.048 53.756 113.081 56.4Z" fill="#EFC537"/>
<path d="M54.72 55.04C60.8 55.04 60.8 55.04 62.413 56.353L63.56 58.12L64.803 59.969L65.92 61.76L66.877 63.181C68.8 66.053 68.8 66.053 68.8 66.88H69.44L69.281 65.731C69.082 63.594 69.09 61.487 69.101 59.341L69.109 56.899L69.12 55.04H74.88V74.88C68.8 74.88 68.8 74.88 67.456 73.954L66.66 72.7L65.764 71.371L64.96 70.08C64.4986 69.45 64.032 68.8233 63.56 68.2C62.49 66.719 61.496 65.204 60.48 63.68V74.88H54.72V55.04Z" fill="#ECC33A"/>
<path d="M35.52 55.04H53.12V60.16H40.96V62.4H52.48V67.52H40.96V69.76H53.12V74.88H35.52V55.04Z" fill="#EDC439"/>
<path d="M29.76 91.2H52.16C52.6767 92.5711 53.1847 93.9455 53.684 95.323C55.364 99.895 57.121 103.951 60.48 107.52V107.84C55.494 108.011 50.577 106.371 46.08 104.32L44.947 103.812C39.222 101.108 33.672 96.847 29.76 91.84V91.2Z" fill="#3264F6"/>
<path d="M13.1201 55.04H18.5601V62.4H27.8401V55.04H33.2801V74.88H27.8401V67.52H18.5601V74.88H13.1201V55.04Z" fill="#F0C536"/>
<path d="M82.051 91.169L88.34 91.18L94.631 91.189L99.52 91.2C95.63 98.978 85.281 103.868 77.44 106.56C74.586 107.42 71.77 107.711 68.8 107.84L69.64 106.76C72.83 102.48 74.824 97.711 76.427 92.643C77.363 89.824 77.57 91.197 82.051 91.169Z" fill="#3264F6"/>
<path d="M60.48 18.56L59.66 19.62C56.06 24.462 54.174 29.492 52.16 35.2H29.76C33.49 27.738 43.302 22.865 50.74 20.2C53.874 19.214 57.19 18.56 60.48 18.56ZM68.8 18.56C79.543 18.6 89.712 24.73 97.12 32.04C99.52 34.461 99.52 34.461 99.52 35.2H77.12C76.16 32.64 76.16 32.64 75.725 31.427C74.199 27.217 72.486 23.475 69.702 19.945C69.12 19.2 69.12 19.2 68.8 18.56Z" fill="#3164F7"/>
<path d="M65.5999 18.24C70.2479 20.347 72.4319 25.511 74.1879 29.974C75.5199 33.643 75.5199 33.643 75.5199 35.2H53.4399C55.1139 29.063 57.3889 22.47 62.7199 18.56C63.7529 18.044 64.4499 18.112 65.5999 18.24Z" fill="#3164F7"/>
<path d="M53.4399 91.2H75.5199C74.7259 96.76 72.0259 103.184 67.6829 106.927C66.2059 108.017 65.1729 108.402 63.3599 108.16C57.5119 104.505 55.2499 97.533 53.4399 91.2Z" fill="#3264F6"/>
<path d="M76.8 55.04H82.24V69.76H93.76V74.88H76.8V55.04Z" fill="#F0C536"/>
<path d="M105.84 60.08L107.195 60.055C108.542 60.165 109.284 60.369 110.4 61.12C111.787 62.831 111.552 64.786 111.36 66.88C110.973 68.062 110.703 68.565 109.732 69.317C108.486 69.909 107.475 69.91 106.1 69.92L104.681 69.95C103.127 69.726 102.523 69.271 101.44 68.16C100.935 67.15 101.027 66.16 101 65.04L100.953 63.685C101.153 62.145 101.624 61.553 102.72 60.48C103.729 59.975 104.721 60.092 105.84 60.08Z" fill="#3264F6"/>
<g clip-path="url(#clip1_175_433)">
<path d="M76 0H128V52H76V0ZM84.2139 19.5899C83.3755 19.6087 82.535 19.5777 81.6966 19.6051C82.113 20.182 82.5614 20.7355 82.9799 21.3109C83.0743 21.4119 82.9921 21.5323 82.9641 21.645C82.3192 23.4091 81.689 25.1768 81.0532 26.9445C80.8389 27.5245 80.6439 28.114 80.4144 28.6879C80.0544 28.7168 79.6959 28.6797 79.3363 28.7117C79.1124 29.4105 78.8453 30.0955 78.6041 30.7887C78.505 31.0868 78.3766 31.3716 78.2897 31.6738C79.8787 31.6875 81.4691 31.6753 83.0586 31.6799C83.375 31.686 83.6771 31.658 83.9904 31.7032C84.2321 32.5421 84.5709 33.3399 84.9299 34.1336C86.0801 36.5762 87.7609 38.7689 89.8191 40.5158C91.567 42.0073 93.5967 43.1712 95.7656 43.9288C97.4815 44.523 99.271 44.8764 101.085 44.9617C101.895 44.9698 102.719 44.9922 103.524 44.912C105.862 44.7058 108.173 44.0659 110.271 43.0097C112.733 41.7894 114.901 40.0182 116.611 37.8701C118.057 36.0628 119.156 33.9828 119.86 31.7789C120.219 30.7496 120.6 29.7284 120.959 28.6995C121.57 27.0415 122.149 25.3723 122.761 23.7148C123.242 22.3412 123.746 20.9757 124.23 19.6031C122.703 19.5777 121.172 19.6112 119.644 19.5863C118.828 17.2875 117.563 15.1511 115.938 13.3311C114.163 11.3318 111.962 9.71648 109.517 8.6323C107.789 7.86297 105.944 7.3648 104.066 7.14391C103.7 7.11242 103.334 7.07078 102.967 7.04387C102.356 7.02406 101.745 7.0266 101.134 7.03625C99.5742 7.11395 98.0238 7.36887 96.5293 7.8259C92.4567 9.03703 88.8695 11.6944 86.4696 15.1938C85.9074 15.9966 85.422 16.8472 84.9944 17.7282C84.7029 18.3361 84.4556 18.9612 84.2139 19.5899Z" fill="black" stroke="black" stroke-width="17.7778"/>
<path d="M101.134 7.03625C101.745 7.0266 102.357 7.02406 102.967 7.04387C103.334 7.07078 103.7 7.11242 104.066 7.14391C105.944 7.3648 107.789 7.86297 109.517 8.63231C111.962 9.71648 114.163 11.3318 115.938 13.3311C117.564 15.1511 118.828 17.2875 119.645 19.5863C121.172 19.6112 122.703 19.5777 124.23 19.6031C123.746 20.9757 123.242 22.3412 122.761 23.7148C122.15 25.3723 121.57 27.0415 120.959 28.6995C120.6 29.7284 120.219 30.7496 119.86 31.7789C119.157 33.9828 118.057 36.0628 116.611 37.8701C114.901 40.0182 112.733 41.7894 110.271 43.0097C108.174 44.0659 105.862 44.7058 103.525 44.912C102.719 44.9922 101.895 44.9698 101.085 44.9617C99.2711 44.8764 97.4816 44.523 95.7657 43.9288C93.5968 43.1712 91.5671 42.0073 89.8192 40.5158C87.761 38.7689 86.0801 36.5762 84.93 34.1336C84.5709 33.3399 84.2322 32.5421 83.9905 31.7032C83.6772 31.658 83.375 31.686 83.0587 31.6799C81.4692 31.6753 79.8787 31.6875 78.2898 31.6738C78.3766 31.3716 78.5051 31.0868 78.6041 30.7887C78.8453 30.0955 79.1125 29.4105 79.3364 28.7117C79.6959 28.6797 80.0544 28.7168 80.4145 28.6879C80.644 28.114 80.839 27.5245 81.0533 26.9445C81.6891 25.1768 82.3193 23.4091 82.9642 21.645C82.9921 21.5323 83.0744 21.4119 82.98 21.3109C82.5615 20.7355 82.1131 20.182 81.6967 19.6051C82.5351 19.5777 83.3755 19.6087 84.2139 19.5899C84.4557 18.9612 84.703 18.3361 84.9944 17.7282C85.422 16.8472 85.9075 15.9966 86.4696 15.1938C88.8696 11.6944 92.4567 9.03703 96.5294 7.8259C98.0239 7.36887 99.5742 7.11395 101.134 7.03625ZM95.496 14.9937C95.7514 15.0069 96.0064 15.0023 96.2618 15.0018C100.054 15.0018 103.845 15.0018 107.637 15.0018C107.875 15.0033 108.113 15.0059 108.351 14.9921C108.272 14.6367 108.136 14.2919 108.009 13.9511C107.774 13.3245 107.517 12.7065 107.21 12.1118C106.671 11.0007 105.973 9.91504 105.098 9.03856C104.37 8.31949 103.527 7.76547 102.502 7.59027C101.664 7.44656 100.82 7.63395 100.079 8.03309C99.2609 8.48809 98.5845 9.14316 98.0163 9.88102C97.2932 10.8007 96.7259 11.8742 96.2547 12.9416C95.9754 13.6124 95.6885 14.2924 95.496 14.9937ZM87.2628 14.9916C87.5035 15.0069 87.7437 15.0028 87.9844 15.0018C89.9989 15.0013 92.0129 15.0018 94.0274 15.0013C94.3321 15.0008 94.6368 15.0069 94.9415 14.9957C95.4919 13.3103 96.1607 11.7046 97.1403 10.2192C97.6446 9.46207 98.2489 8.75367 98.9522 8.17477C99.1604 7.99551 99.3965 7.86094 99.6123 7.69285C99.3209 7.70148 99.0294 7.77715 98.7399 7.82082C97.4389 8.03969 96.1932 8.43172 94.9699 8.91973C92.1287 10.1075 89.5957 12.0093 87.6798 14.4219C87.5315 14.6057 87.3812 14.7855 87.2628 14.9916ZM108.911 14.9942C109.147 15.0043 109.382 15.0043 109.617 15.0018C111.716 15.0018 113.815 15.0018 115.914 15.0018C116.142 15.0033 116.368 15.0074 116.595 14.9891C116.555 14.9175 116.516 14.8469 116.47 14.7794C115.069 12.9411 113.319 11.3562 111.339 10.1608C109.262 8.90703 106.919 8.05441 104.513 7.72992C104.469 7.73703 104.321 7.68879 104.355 7.78121C104.703 8.01074 105.034 8.25754 105.33 8.55207C106.429 9.58598 107.233 10.95 107.876 12.3023C108.221 13.0955 108.558 13.9014 108.816 14.7276C108.846 14.817 108.879 14.9053 108.911 14.9942ZM84.7796 19.5899C85.8989 19.6016 87.0186 19.5909 88.1373 19.5945C88.2389 19.596 88.3394 19.6026 88.4405 19.6097C88.2678 20.1779 88.0342 20.7274 87.8412 21.289C87.5503 22.1112 87.2557 22.9318 86.9546 23.7499C86.5326 24.9615 86.0807 26.1625 85.6531 27.3721C85.5083 27.8144 85.3189 28.2435 85.1915 28.6909C85.5414 28.7087 85.8902 28.6939 86.2406 28.7C85.8836 29.6913 85.5383 30.6866 85.1762 31.6763C84.9604 31.6773 84.7441 31.6799 84.5283 31.689C84.6039 32.0039 84.7202 32.2913 84.834 32.595C85.3001 33.8487 85.9253 35.0467 86.6509 36.1695C86.7256 36.2863 86.8073 36.398 86.8901 36.5092C86.8998 36.3746 86.9074 36.24 86.9191 36.1055C87.207 36.0791 87.4929 36.0928 87.7813 36.0907C90.0792 36.0897 92.378 36.0923 94.6759 36.0897C94.4316 35.1594 94.1955 34.2352 94.0386 33.2846C93.9319 32.757 93.8644 32.2237 93.774 31.6936C93.4516 31.6672 93.1321 31.6829 92.8087 31.6794C91.1999 31.6763 89.5907 31.6845 87.9824 31.6758C88.1358 31.1817 88.3404 30.7054 88.5014 30.2138C89.0859 28.6025 89.6572 26.9867 90.2483 25.3779C90.5768 24.4243 90.9379 23.4823 91.272 22.5306C91.4005 22.165 91.5493 21.8039 91.6564 21.4322C91.237 20.8203 90.7393 20.2627 90.3204 19.6503C91.5031 19.6305 92.6868 19.6523 93.8695 19.6396C93.968 19.1846 94.0188 18.721 94.1188 18.2655C94.2585 17.6033 94.3956 16.9416 94.5733 16.2881C94.6424 16.0286 94.7262 15.7742 94.782 15.5111C92.179 15.5045 89.5698 15.5132 86.9663 15.5066C86.8485 15.4989 86.8119 15.5954 86.7505 15.6746C86.2152 16.5059 85.7226 17.3438 85.3123 18.2447C85.1255 18.687 84.9132 19.1278 84.7796 19.5899ZM94.3941 19.6386C98.2148 19.6493 102.038 19.6402 105.859 19.6432C106.203 19.6473 106.549 19.6305 106.891 19.6564C106.811 19.9413 106.699 20.2135 106.598 20.4907C106.266 21.4261 105.928 22.3595 105.593 23.2939C105.543 23.4173 105.516 23.5336 105.395 23.6077C104.508 24.1851 103.627 24.7442 102.74 25.319C102.567 25.4312 102.389 25.5206 102.239 25.6659C103.056 25.6933 103.876 25.6588 104.694 25.6831C104.536 26.2245 104.317 26.7485 104.137 27.2832C103.596 28.7432 103.08 30.2118 102.54 31.6723C102.174 31.688 101.808 31.6763 101.441 31.6794C99.0629 31.6824 96.6823 31.6738 94.3037 31.6834C94.3108 31.9622 94.3737 32.2283 94.4154 32.5025C94.5896 33.6146 94.8465 34.6963 95.1182 35.7871C95.1456 35.8876 95.1791 35.9882 95.2116 36.0872C99.2498 36.0953 103.293 36.0882 107.332 36.0907C107.768 36.0882 108.205 36.0963 108.641 36.0877C108.819 35.5479 108.932 34.9852 109.066 34.4332C109.262 33.5268 109.442 32.6132 109.561 31.6931C109.192 31.6657 108.819 31.6845 108.449 31.6794C107.402 31.6753 106.353 31.6875 105.305 31.6738C105.367 31.4742 105.442 31.2802 105.515 31.0847C105.851 30.1803 106.171 29.2698 106.495 28.3613C106.9 27.2695 107.274 26.1671 107.68 25.0753C108.004 24.1668 108.324 23.2568 108.66 22.3519C108.769 22.0304 108.903 21.7176 108.998 21.3916C108.558 20.7873 108.08 20.2104 107.645 19.6021C108.248 19.5818 108.851 19.6056 109.454 19.5904C109.335 18.8256 109.18 18.0629 109.009 17.3078C108.861 16.7009 108.726 16.1032 108.529 15.5121C104.272 15.503 100.011 15.5127 95.754 15.5076C95.6128 15.5086 95.4676 15.5005 95.3269 15.5193C95.2888 15.603 95.2629 15.696 95.238 15.7843C94.878 17.0488 94.5977 18.3402 94.3941 19.6386ZM109.962 19.5772C110.118 19.5929 110.272 19.6026 110.43 19.596C111.496 19.5929 112.563 19.5965 113.629 19.5945C113.828 19.5894 114.025 19.5934 114.223 19.6097C115.196 21.2652 116.191 22.9364 117.169 24.5923C117.267 24.7696 117.366 24.9443 117.49 25.1042C117.666 24.6462 117.822 24.181 117.999 23.723C118.348 22.7053 118.731 21.7004 119.09 20.6857C119.175 20.4491 119.269 20.217 119.331 19.9723C119.121 19.7859 119.102 19.5523 119.001 19.3065C118.48 17.972 117.808 16.7004 117.003 15.5147C116.776 15.5061 116.548 15.5061 116.32 15.5091C113.95 15.5081 111.579 15.5096 109.209 15.5081C109.165 15.5086 109.12 15.5106 109.075 15.5142C109.114 15.7463 109.201 15.9697 109.256 16.1987C109.548 17.3098 109.808 18.4377 109.962 19.5772ZM95.4518 24.1663C96.1968 24.1729 96.9412 24.1643 97.6857 24.1704C97.7873 24.1663 97.9035 24.1775 97.9929 24.1231C98.7699 23.6382 99.5311 23.1253 100.311 22.6454C100.026 22.6185 99.7459 22.6312 99.461 22.6296C98.4286 22.6286 97.3957 22.6322 96.3633 22.6281C96.244 22.6322 96.1094 22.6109 95.9942 22.6398C95.9424 22.7139 95.921 22.8114 95.8901 22.8957C95.755 23.3228 95.5808 23.7372 95.4518 24.1663ZM109.178 36.0882C111.491 36.0938 113.805 36.0892 116.117 36.0907C116.416 36.0923 116.714 36.0801 117.013 36.1034C117.025 36.205 117.039 36.3066 117.054 36.4076C118.028 34.9741 118.793 33.3963 119.336 31.751C119.471 31.7357 119.606 31.7251 119.741 31.7104C119.329 31.6834 118.917 31.6743 118.504 31.6794C117.445 31.6733 116.384 31.6911 115.326 31.6707C114.73 30.6886 114.146 29.6974 113.558 28.7102C113.047 27.8748 112.559 27.0243 112.046 26.1904C111.97 26.3423 111.913 26.5002 111.858 26.6602C111.484 27.7388 111.08 28.8062 110.707 29.8853C110.583 30.2468 110.442 30.6028 110.316 30.9639C110.221 31.2406 110.105 31.4803 110.061 31.7693C109.874 33.2252 109.561 34.6719 109.178 36.0882ZM93.8172 28.6863C94.1076 28.7087 94.3966 28.698 94.6876 28.699C95.7707 28.6995 96.8544 28.6985 97.9376 28.699C98.2412 28.697 98.5434 28.7092 98.8466 28.6873C99.0421 28.1856 99.2355 27.6773 99.4041 27.1659C99.101 27.1456 98.7998 27.1568 98.4962 27.1548C97.2774 27.1537 96.0587 27.1568 94.8404 27.1537C94.6825 27.1563 94.5063 27.1385 94.3544 27.1852C94.2605 27.3686 94.2046 27.5727 94.132 27.7652C94.0274 28.0744 93.8994 28.372 93.8172 28.6863ZM99.5773 44.2884C99.4194 44.1457 99.2406 44.0365 99.0715 43.909C98.29 43.3022 97.6491 42.5339 97.1027 41.7138C96.2603 40.4254 95.6489 39.0401 95.1416 37.5913C95.0263 37.2704 94.9466 36.9388 94.8267 36.6189C94.5601 36.5848 94.2955 36.6006 94.0274 36.5986C91.9114 36.5986 89.7958 36.5991 87.6798 36.5986C87.4462 36.6006 87.2085 36.5879 86.9764 36.6123C87.0719 36.8047 87.2171 36.9784 87.3456 37.15C88.6101 38.8355 90.1675 40.2975 91.9256 41.4578C93.9253 42.7766 96.1917 43.7008 98.5475 44.1406C98.8907 44.201 99.2279 44.2701 99.5773 44.2884ZM95.4026 36.6311C95.4198 36.8494 95.4955 37.0464 95.5691 37.2501C95.92 38.2891 96.3283 39.3143 96.8539 40.2782C97.2322 41.0221 97.6953 41.7244 98.2245 42.3698C98.8252 43.0889 99.5885 43.775 100.462 44.1375C101.21 44.4615 102.059 44.5418 102.848 44.3219C103.552 44.1411 104.174 43.7684 104.721 43.2966C105.208 42.8919 105.627 42.3952 106.006 41.8905C106.824 40.7636 107.431 39.5332 107.932 38.2378C108.124 37.7091 108.329 37.1805 108.475 36.6371C108.195 36.6153 107.917 36.6255 107.637 36.625C103.862 36.6245 100.087 36.625 96.3126 36.6245C96.0089 36.6255 95.7062 36.6189 95.4026 36.6311ZM104.19 44.3122C104.54 44.298 104.873 44.2157 105.217 44.1584C105.992 44.0258 106.757 43.8278 107.506 43.5866C108.403 43.2859 109.282 42.9538 110.118 42.5064C112.144 41.5101 113.963 40.0816 115.481 38.4145C115.891 37.959 116.275 37.4771 116.645 36.988C116.729 36.8779 116.802 36.7595 116.869 36.6382C116.583 36.6143 116.302 36.6265 116.016 36.6245C113.747 36.6245 111.476 36.6255 109.208 36.6239C109.155 36.625 109.102 36.6285 109.05 36.6346C108.98 36.7499 108.94 36.8911 108.898 37.0195C108.589 38.0209 108.197 38.9832 107.757 39.9329C107.137 41.1998 106.358 42.4694 105.326 43.4434C104.979 43.7755 104.603 44.0664 104.19 44.3122Z" fill="black" stroke="#D51A35" stroke-width="17.7778"/>
<path d="M102.502 7.59026C103.526 7.76545 104.369 8.31948 105.098 9.03854C105.973 9.91502 106.671 11.0007 107.21 12.1118C107.517 12.7065 107.774 13.3245 108.008 13.9511C108.136 14.2919 108.271 14.6367 108.351 14.9921C108.113 15.0058 107.875 15.0033 107.637 15.0018C103.845 15.0018 100.053 15.0018 96.2616 15.0018C96.0062 15.0023 95.7513 15.0069 95.4958 14.9937C95.6883 14.2924 95.9752 13.6124 96.2545 12.9416C96.7258 11.8742 97.293 10.8006 98.0161 9.881C98.5844 9.14315 99.2608 8.48807 100.079 8.03307C100.82 7.63393 101.664 7.44655 102.502 7.59026Z" fill="black" stroke="black" stroke-width="17.7778"/>
<path d="M99.6122 7.69287C99.3964 7.86096 99.1602 7.99553 98.952 8.17478C98.2487 8.75369 97.6444 9.46209 97.1402 10.2192C96.1606 11.7046 95.4918 13.3103 94.9413 14.9957C94.6366 15.0069 94.332 15.0008 94.0273 15.0013C92.0128 15.0018 89.9988 15.0013 87.9843 15.0018C87.7436 15.0028 87.5034 15.0069 87.2627 14.9917C87.381 14.7855 87.5313 14.6057 87.6796 14.4219C89.5956 12.0093 92.1286 10.1075 94.9698 8.91975C96.1931 8.43174 97.4387 8.03971 98.7398 7.82084C99.0292 7.77717 99.3207 7.7015 99.6122 7.69287Z" fill="black" stroke="black" stroke-width="17.7778"/>
<path d="M104.513 7.72993C106.919 8.05442 109.262 8.90704 111.339 10.1608C113.319 11.3562 115.068 12.9411 116.47 14.7794C116.516 14.8469 116.555 14.9175 116.595 14.9891C116.368 15.0074 116.141 15.0033 115.914 15.0018C113.815 15.0018 111.716 15.0018 109.617 15.0018C109.381 15.0043 109.146 15.0043 108.911 14.9942C108.879 14.9053 108.846 14.817 108.816 14.7276C108.558 13.9014 108.221 13.0955 107.876 12.3023C107.233 10.95 106.429 9.58598 105.33 8.55208C105.034 8.25755 104.703 8.01075 104.355 7.78122C104.321 7.6888 104.468 7.73704 104.513 7.72993Z" fill="black" stroke="black" stroke-width="17.7778"/>
<path d="M86.9663 15.5066C89.5699 15.5132 92.179 15.5046 94.7821 15.5112C94.7262 15.7742 94.6424 16.0286 94.5734 16.2881C94.3956 16.9417 94.2585 17.6033 94.1189 18.2655C94.0188 18.721 93.968 19.1847 93.8695 19.6397C92.6868 19.6524 91.5031 19.6305 90.3204 19.6503C90.7394 20.2628 91.237 20.8203 91.6565 21.4323C91.5493 21.804 91.4005 22.165 91.2721 22.5307C90.9379 23.4823 90.5769 24.4243 90.2483 25.378C89.6572 26.9867 89.0859 28.6026 88.5014 30.2139C88.3405 30.7054 88.1358 31.1817 87.9825 31.6758C89.5907 31.6845 91.2 31.6764 92.8087 31.6794C93.1322 31.683 93.4516 31.6672 93.7741 31.6936C93.8645 32.2238 93.932 32.757 94.0386 33.2846C94.1955 34.2352 94.4317 35.1594 94.6759 36.0898C92.3781 36.0923 90.0792 36.0898 87.7814 36.0908C87.4929 36.0928 87.207 36.0791 86.9191 36.1055C86.9074 36.2401 86.8998 36.3746 86.8902 36.5092C86.8074 36.398 86.7256 36.2863 86.651 36.1695C85.9253 35.0467 85.3002 33.8488 84.834 32.595C84.7203 32.2913 84.604 32.0039 84.5283 31.6891C84.7441 31.6799 84.9605 31.6774 85.1763 31.6764C85.5384 30.6866 85.8837 29.6913 86.2407 28.7001C85.8903 28.694 85.5414 28.7087 85.1915 28.6909C85.319 28.2435 85.5084 27.8144 85.6531 27.3721C86.0807 26.1625 86.5327 24.9616 86.9546 23.7499C87.2558 22.9318 87.5503 22.1112 87.8413 21.2891C88.0343 20.7274 88.2679 20.178 88.4405 19.6097C88.3395 19.6026 88.2389 19.596 88.1373 19.5945C87.0186 19.5909 85.8989 19.6016 84.7797 19.5899C84.9132 19.1278 85.1255 18.687 85.3124 18.2447C85.7227 17.3439 86.2153 16.506 86.7505 15.6747C86.812 15.5955 86.8485 15.499 86.9663 15.5066Z" fill="black" stroke="black" stroke-width="17.7778"/>
<path d="M95.327 15.5192C95.4676 15.5004 95.6129 15.5086 95.754 15.5076C100.012 15.5126 104.272 15.503 108.529 15.5121C108.726 16.1032 108.861 16.7009 109.009 17.3077C109.18 18.0629 109.335 18.8256 109.454 19.5904C108.852 19.6056 108.248 19.5817 107.645 19.602C108.08 20.2104 108.558 20.7873 108.998 21.3916C108.903 21.7176 108.769 22.0304 108.66 22.3518C108.324 23.2568 108.004 24.1668 107.68 25.0752C107.274 26.167 106.901 27.2695 106.495 28.3613C106.171 29.2698 105.851 30.1803 105.515 31.0847C105.442 31.2802 105.367 31.4742 105.305 31.6738C106.353 31.6875 107.402 31.6753 108.449 31.6793C108.82 31.6844 109.192 31.6656 109.561 31.6931C109.442 32.6132 109.262 33.5268 109.066 34.4332C108.932 34.9852 108.819 35.5479 108.641 36.0877C108.205 36.0963 107.768 36.0882 107.332 36.0907C103.293 36.0882 99.2498 36.0953 95.2117 36.0872C95.1792 35.9881 95.1457 35.8876 95.1182 35.787C94.8466 34.6963 94.5896 33.6146 94.4154 32.5025C94.3738 32.2283 94.3108 31.9622 94.3037 31.6834C96.6823 31.6738 99.0629 31.6824 101.442 31.6793C101.808 31.6763 102.174 31.688 102.54 31.6722C103.08 30.2118 103.596 28.7432 104.138 27.2832C104.317 26.7485 104.536 26.2244 104.694 25.6831C103.876 25.6587 103.056 25.6933 102.239 25.6658C102.389 25.5206 102.567 25.4312 102.741 25.319C103.627 24.7442 104.508 24.185 105.395 23.6077C105.516 23.5335 105.543 23.4172 105.593 23.2938C105.928 22.3595 106.266 21.4261 106.598 20.4907C106.699 20.2134 106.811 19.9413 106.891 19.6564C106.549 19.6305 106.203 19.6472 105.859 19.6432C102.038 19.6401 98.2149 19.6493 94.3941 19.6386C94.5977 18.3401 94.878 17.0488 95.2381 15.7843C95.263 15.6959 95.2889 15.603 95.327 15.5192Z" fill="black" stroke="black" stroke-width="17.7778"/>
<path d="M109.075 15.5142C109.12 15.5106 109.165 15.5086 109.209 15.5081C111.579 15.5096 113.95 15.5081 116.32 15.5091C116.548 15.5061 116.776 15.5061 117.003 15.5147C117.808 16.7004 118.48 17.972 119.001 19.3065C119.102 19.5523 119.121 19.7859 119.331 19.9723C119.269 20.217 119.175 20.4491 119.09 20.6858C118.731 21.7004 118.348 22.7053 117.999 23.723C117.823 24.181 117.666 24.6462 117.49 25.1042C117.366 24.9443 117.267 24.7696 117.169 24.5924C116.191 22.9364 115.196 21.2652 114.223 19.6097C114.025 19.5934 113.828 19.5894 113.629 19.5945C112.563 19.5965 111.496 19.5929 110.43 19.596C110.272 19.6026 110.118 19.5929 109.962 19.5772C109.808 18.4377 109.548 17.3098 109.256 16.1987C109.201 15.9697 109.114 15.7463 109.075 15.5142Z" fill="black" stroke="black" stroke-width="17.7778"/>
<path d="M95.994 22.6398C96.1093 22.6109 96.2438 22.6322 96.3632 22.6281C97.3956 22.6322 98.4285 22.6286 99.4608 22.6296C99.7457 22.6312 100.026 22.6185 100.31 22.6454C99.5309 23.1253 98.7697 23.6382 97.9928 24.1231C97.9034 24.1775 97.7871 24.1663 97.6855 24.1703C96.9411 24.1643 96.1966 24.1729 95.4517 24.1663C95.5806 23.7372 95.7548 23.3228 95.8899 22.8957C95.9209 22.8114 95.9422 22.7139 95.994 22.6398Z" fill="black" stroke="black" stroke-width="17.7778"/>
<path d="M112.046 26.1904C112.559 27.0243 113.047 27.8748 113.558 28.7102C114.146 29.6974 114.73 30.6886 115.326 31.6707C116.384 31.6911 117.445 31.6733 118.504 31.6794C118.917 31.6743 119.329 31.6834 119.741 31.7104C119.606 31.7251 119.471 31.7357 119.336 31.751C118.793 33.3963 118.028 34.9741 117.054 36.4076C117.039 36.3066 117.025 36.205 117.013 36.1034C116.714 36.0801 116.416 36.0923 116.117 36.0907C113.805 36.0892 111.491 36.0938 109.178 36.0882C109.561 34.6719 109.874 33.2252 110.061 31.7693C110.105 31.4803 110.221 31.2406 110.316 30.9639C110.442 30.6028 110.583 30.2468 110.707 29.8853C111.08 28.8062 111.484 27.7387 111.858 26.6602C111.913 26.5002 111.97 26.3423 112.046 26.1904Z" fill="black" stroke="black" stroke-width="17.7778"/>
<path d="M94.3544 27.1852C94.5062 27.1385 94.6825 27.1563 94.8404 27.1537C96.0586 27.1568 97.2774 27.1537 98.4961 27.1548C98.7998 27.1568 99.1009 27.1456 99.4041 27.1659C99.2355 27.6773 99.042 28.1856 98.8465 28.6873C98.5434 28.7092 98.2412 28.697 97.9375 28.699C96.8544 28.6985 95.7707 28.6995 94.6875 28.699C94.3966 28.698 94.1076 28.7087 93.8171 28.6863C93.8994 28.372 94.0274 28.0744 94.132 27.7651C94.2046 27.5727 94.2605 27.3685 94.3544 27.1852Z" fill="black" stroke="black" stroke-width="17.7778"/>
<path d="M86.9763 36.6123C87.2084 36.5879 87.446 36.6006 87.6796 36.5986C89.7957 36.5991 91.9112 36.5986 94.0273 36.5986C94.2954 36.6006 94.56 36.5848 94.8266 36.6189C94.9464 36.9388 95.0262 37.2704 95.1414 37.5913C95.6487 39.0401 96.2601 40.4254 97.1026 41.7137C97.649 42.5339 98.2899 43.3022 99.0714 43.909C99.2405 44.0365 99.4192 44.1457 99.5772 44.2884C99.2278 44.2701 98.8906 44.201 98.5473 44.1406C96.1916 43.7008 93.9252 42.7766 91.9255 41.4578C90.1674 40.2975 88.61 38.8355 87.3455 37.15C87.217 36.9784 87.0718 36.8047 86.9763 36.6123Z" fill="black" stroke="black" stroke-width="17.7778"/>
<path d="M95.4026 36.6311C95.7063 36.6189 96.0089 36.6255 96.3126 36.6245C100.087 36.625 103.862 36.6245 107.637 36.625C107.917 36.6255 108.195 36.6153 108.475 36.6372C108.329 37.1805 108.124 37.7092 107.932 38.2378C107.431 39.5332 106.824 40.7636 106.006 41.8905C105.627 42.3952 105.208 42.8919 104.721 43.2966C104.174 43.7684 103.552 44.1411 102.848 44.3219C102.059 44.5418 101.21 44.4615 100.462 44.1375C99.5885 43.775 98.8252 43.0889 98.2245 42.3699C97.6954 41.7244 97.2322 41.0221 96.8539 40.2782C96.3283 39.3143 95.92 38.2891 95.5692 37.2501C95.4955 37.0465 95.4199 36.8494 95.4026 36.6311Z" fill="black" stroke="black" stroke-width="17.7778"/>
<path d="M109.049 36.6346C109.102 36.6285 109.155 36.625 109.208 36.6239C111.476 36.6255 113.747 36.6245 116.016 36.6245C116.302 36.6265 116.583 36.6143 116.869 36.6382C116.802 36.7595 116.729 36.8779 116.645 36.988C116.275 37.4771 115.891 37.959 115.481 38.4145C113.963 40.0816 112.144 41.5101 110.118 42.5064C109.282 42.9538 108.403 43.2859 107.506 43.5866C106.757 43.8278 105.992 44.0258 105.217 44.1584C104.873 44.2157 104.54 44.298 104.19 44.3122C104.603 44.0664 104.979 43.7755 105.326 43.4434C106.358 42.4694 107.137 41.1998 107.757 39.9329C108.197 38.9832 108.589 38.0209 108.898 37.0195C108.94 36.8911 108.98 36.7499 109.049 36.6346Z" fill="black" stroke="black" stroke-width="17.7778"/>
<path d="M76 0H128V52H76V0ZM84.2139 19.5899C83.3755 19.6087 82.535 19.5777 81.6966 19.6051C82.113 20.182 82.5614 20.7355 82.9799 21.3109C83.0743 21.4119 82.9921 21.5323 82.9641 21.645C82.3192 23.4091 81.689 25.1768 81.0532 26.9445C80.8389 27.5245 80.6439 28.114 80.4144 28.6879C80.0544 28.7168 79.6959 28.6797 79.3363 28.7117C79.1124 29.4105 78.8453 30.0955 78.6041 30.7887C78.505 31.0868 78.3766 31.3716 78.2897 31.6738C79.8787 31.6875 81.4691 31.6753 83.0586 31.6799C83.375 31.686 83.6771 31.658 83.9904 31.7032C84.2321 32.5421 84.5709 33.3399 84.9299 34.1336C86.0801 36.5762 87.7609 38.7689 89.8191 40.5158C91.567 42.0073 93.5967 43.1712 95.7656 43.9288C97.4815 44.523 99.271 44.8764 101.085 44.9617C101.895 44.9698 102.719 44.9922 103.524 44.912C105.862 44.7058 108.173 44.0659 110.271 43.0097C112.733 41.7894 114.901 40.0182 116.611 37.8701C118.057 36.0628 119.156 33.9828 119.86 31.7789C120.219 30.7496 120.6 29.7284 120.959 28.6995C121.57 27.0415 122.149 25.3723 122.761 23.7148C123.242 22.3412 123.746 20.9757 124.23 19.6031C122.703 19.5777 121.172 19.6112 119.644 19.5863C118.828 17.2875 117.563 15.1511 115.938 13.3311C114.163 11.3318 111.962 9.71648 109.517 8.6323C107.789 7.86297 105.944 7.3648 104.066 7.14391C103.7 7.11242 103.334 7.07078 102.967 7.04387C102.356 7.02406 101.745 7.0266 101.134 7.03625C99.5742 7.11395 98.0238 7.36887 96.5293 7.8259C92.4567 9.03703 88.8695 11.6944 86.4696 15.1938C85.9074 15.9966 85.422 16.8472 84.9944 17.7282C84.7029 18.3361 84.4556 18.9612 84.2139 19.5899Z" fill="black"/>
<path d="M101.134 7.03625C101.745 7.0266 102.357 7.02406 102.967 7.04387C103.334 7.07078 103.7 7.11242 104.066 7.14391C105.944 7.3648 107.789 7.86297 109.517 8.63231C111.962 9.71648 114.163 11.3318 115.938 13.3311C117.564 15.1511 118.828 17.2875 119.645 19.5863C121.172 19.6112 122.703 19.5777 124.23 19.6031C123.746 20.9757 123.242 22.3412 122.761 23.7148C122.15 25.3723 121.57 27.0415 120.959 28.6995C120.6 29.7284 120.219 30.7496 119.86 31.7789C119.157 33.9828 118.057 36.0628 116.611 37.8701C114.901 40.0182 112.733 41.7894 110.271 43.0097C108.174 44.0659 105.862 44.7058 103.525 44.912C102.719 44.9922 101.895 44.9698 101.085 44.9617C99.2711 44.8764 97.4816 44.523 95.7657 43.9288C93.5968 43.1712 91.5671 42.0073 89.8192 40.5158C87.761 38.7689 86.0801 36.5762 84.93 34.1336C84.5709 33.3399 84.2322 32.5421 83.9905 31.7032C83.6772 31.658 83.375 31.686 83.0587 31.6799C81.4692 31.6753 79.8787 31.6875 78.2898 31.6738C78.3766 31.3716 78.5051 31.0868 78.6041 30.7887C78.8453 30.0955 79.1125 29.4105 79.3364 28.7117C79.6959 28.6797 80.0544 28.7168 80.4145 28.6879C80.644 28.114 80.839 27.5245 81.0533 26.9445C81.6891 25.1768 82.3193 23.4091 82.9642 21.645C82.9921 21.5323 83.0744 21.4119 82.98 21.3109C82.5615 20.7355 82.1131 20.182 81.6967 19.6051C82.5351 19.5777 83.3755 19.6087 84.2139 19.5899C84.4557 18.9612 84.703 18.3361 84.9944 17.7282C85.422 16.8472 85.9075 15.9966 86.4696 15.1938C88.8696 11.6944 92.4567 9.03703 96.5294 7.8259C98.0239 7.36887 99.5742 7.11395 101.134 7.03625ZM95.496 14.9937C95.7514 15.0069 96.0064 15.0023 96.2618 15.0018C100.054 15.0018 103.845 15.0018 107.637 15.0018C107.875 15.0033 108.113 15.0059 108.351 14.9921C108.272 14.6367 108.136 14.2919 108.009 13.9511C107.774 13.3245 107.517 12.7065 107.21 12.1118C106.671 11.0007 105.973 9.91504 105.098 9.03856C104.37 8.31949 103.527 7.76547 102.502 7.59027C101.664 7.44656 100.82 7.63395 100.079 8.03309C99.2609 8.48809 98.5845 9.14316 98.0163 9.88102C97.2932 10.8007 96.7259 11.8742 96.2547 12.9416C95.9754 13.6124 95.6885 14.2924 95.496 14.9937ZM87.2628 14.9916C87.5035 15.0069 87.7437 15.0028 87.9844 15.0018C89.9989 15.0013 92.0129 15.0018 94.0274 15.0013C94.3321 15.0008 94.6368 15.0069 94.9415 14.9957C95.4919 13.3103 96.1607 11.7046 97.1403 10.2192C97.6446 9.46207 98.2489 8.75367 98.9522 8.17477C99.1604 7.99551 99.3965 7.86094 99.6123 7.69285C99.3209 7.70148 99.0294 7.77715 98.7399 7.82082C97.4389 8.03969 96.1932 8.43172 94.9699 8.91973C92.1287 10.1075 89.5957 12.0093 87.6798 14.4219C87.5315 14.6057 87.3812 14.7855 87.2628 14.9916ZM108.911 14.9942C109.147 15.0043 109.382 15.0043 109.617 15.0018C111.716 15.0018 113.815 15.0018 115.914 15.0018C116.142 15.0033 116.368 15.0074 116.595 14.9891C116.555 14.9175 116.516 14.8469 116.47 14.7794C115.069 12.9411 113.319 11.3562 111.339 10.1608C109.262 8.90703 106.919 8.05441 104.513 7.72992C104.469 7.73703 104.321 7.68879 104.355 7.78121C104.703 8.01074 105.034 8.25754 105.33 8.55207C106.429 9.58598 107.233 10.95 107.876 12.3023C108.221 13.0955 108.558 13.9014 108.816 14.7276C108.846 14.817 108.879 14.9053 108.911 14.9942ZM84.7796 19.5899C85.8989 19.6016 87.0186 19.5909 88.1373 19.5945C88.2389 19.596 88.3394 19.6026 88.4405 19.6097C88.2678 20.1779 88.0342 20.7274 87.8412 21.289C87.5503 22.1112 87.2557 22.9318 86.9546 23.7499C86.5326 24.9615 86.0807 26.1625 85.6531 27.3721C85.5083 27.8144 85.3189 28.2435 85.1915 28.6909C85.5414 28.7087 85.8902 28.6939 86.2406 28.7C85.8836 29.6913 85.5383 30.6866 85.1762 31.6763C84.9604 31.6773 84.7441 31.6799 84.5283 31.689C84.6039 32.0039 84.7202 32.2913 84.834 32.595C85.3001 33.8487 85.9253 35.0467 86.6509 36.1695C86.7256 36.2863 86.8073 36.398 86.8901 36.5092C86.8998 36.3746 86.9074 36.24 86.9191 36.1055C87.207 36.0791 87.4929 36.0928 87.7813 36.0907C90.0792 36.0897 92.378 36.0923 94.6759 36.0897C94.4316 35.1594 94.1955 34.2352 94.0386 33.2846C93.9319 32.757 93.8644 32.2237 93.774 31.6936C93.4516 31.6672 93.1321 31.6829 92.8087 31.6794C91.1999 31.6763 89.5907 31.6845 87.9824 31.6758C88.1358 31.1817 88.3404 30.7054 88.5014 30.2138C89.0859 28.6025 89.6572 26.9867 90.2483 25.3779C90.5768 24.4243 90.9379 23.4823 91.272 22.5306C91.4005 22.165 91.5493 21.8039 91.6564 21.4322C91.237 20.8203 90.7393 20.2627 90.3204 19.6503C91.5031 19.6305 92.6868 19.6523 93.8695 19.6396C93.968 19.1846 94.0188 18.721 94.1188 18.2655C94.2585 17.6033 94.3956 16.9416 94.5733 16.2881C94.6424 16.0286 94.7262 15.7742 94.782 15.5111C92.179 15.5045 89.5698 15.5132 86.9663 15.5066C86.8485 15.4989 86.8119 15.5954 86.7505 15.6746C86.2152 16.5059 85.7226 17.3438 85.3123 18.2447C85.1255 18.687 84.9132 19.1278 84.7796 19.5899ZM94.3941 19.6386C98.2148 19.6493 102.038 19.6402 105.859 19.6432C106.203 19.6473 106.549 19.6305 106.891 19.6564C106.811 19.9413 106.699 20.2135 106.598 20.4907C106.266 21.4261 105.928 22.3595 105.593 23.2939C105.543 23.4173 105.516 23.5336 105.395 23.6077C104.508 24.1851 103.627 24.7442 102.74 25.319C102.567 25.4312 102.389 25.5206 102.239 25.6659C103.056 25.6933 103.876 25.6588 104.694 25.6831C104.536 26.2245 104.317 26.7485 104.137 27.2832C103.596 28.7432 103.08 30.2118 102.54 31.6723C102.174 31.688 101.808 31.6763 101.441 31.6794C99.0629 31.6824 96.6823 31.6738 94.3037 31.6834C94.3108 31.9622 94.3737 32.2283 94.4154 32.5025C94.5896 33.6146 94.8465 34.6963 95.1182 35.7871C95.1456 35.8876 95.1791 35.9882 95.2116 36.0872C99.2498 36.0953 103.293 36.0882 107.332 36.0907C107.768 36.0882 108.205 36.0963 108.641 36.0877C108.819 35.5479 108.932 34.9852 109.066 34.4332C109.262 33.5268 109.442 32.6132 109.561 31.6931C109.192 31.6657 108.819 31.6845 108.449 31.6794C107.402 31.6753 106.353 31.6875 105.305 31.6738C105.367 31.4742 105.442 31.2802 105.515 31.0847C105.851 30.1803 106.171 29.2698 106.495 28.3613C106.9 27.2695 107.274 26.1671 107.68 25.0753C108.004 24.1668 108.324 23.2568 108.66 22.3519C108.769 22.0304 108.903 21.7176 108.998 21.3916C108.558 20.7873 108.08 20.2104 107.645 19.6021C108.248 19.5818 108.851 19.6056 109.454 19.5904C109.335 18.8256 109.18 18.0629 109.009 17.3078C108.861 16.7009 108.726 16.1032 108.529 15.5121C104.272 15.503 100.011 15.5127 95.754 15.5076C95.6128 15.5086 95.4676 15.5005 95.3269 15.5193C95.2888 15.603 95.2629 15.696 95.238 15.7843C94.878 17.0488 94.5977 18.3402 94.3941 19.6386ZM109.962 19.5772C110.118 19.5929 110.272 19.6026 110.43 19.596C111.496 19.5929 112.563 19.5965 113.629 19.5945C113.828 19.5894 114.025 19.5934 114.223 19.6097C115.196 21.2652 116.191 22.9364 117.169 24.5923C117.267 24.7696 117.366 24.9443 117.49 25.1042C117.666 24.6462 117.822 24.181 117.999 23.723C118.348 22.7053 118.731 21.7004 119.09 20.6857C119.175 20.4491 119.269 20.217 119.331 19.9723C119.121 19.7859 119.102 19.5523 119.001 19.3065C118.48 17.972 117.808 16.7004 117.003 15.5147C116.776 15.5061 116.548 15.5061 116.32 15.5091C113.95 15.5081 111.579 15.5096 109.209 15.5081C109.165 15.5086 109.12 15.5106 109.075 15.5142C109.114 15.7463 109.201 15.9697 109.256 16.1987C109.548 17.3098 109.808 18.4377 109.962 19.5772ZM95.4518 24.1663C96.1968 24.1729 96.9412 24.1643 97.6857 24.1704C97.7873 24.1663 97.9035 24.1775 97.9929 24.1231C98.7699 23.6382 99.5311 23.1253 100.311 22.6454C100.026 22.6185 99.7459 22.6312 99.461 22.6296C98.4286 22.6286 97.3957 22.6322 96.3633 22.6281C96.244 22.6322 96.1094 22.6109 95.9942 22.6398C95.9424 22.7139 95.921 22.8114 95.8901 22.8957C95.755 23.3228 95.5808 23.7372 95.4518 24.1663ZM109.178 36.0882C111.491 36.0938 113.805 36.0892 116.117 36.0907C116.416 36.0923 116.714 36.0801 117.013 36.1034C117.025 36.205 117.039 36.3066 117.054 36.4076C118.028 34.9741 118.793 33.3963 119.336 31.751C119.471 31.7357 119.606 31.7251 119.741 31.7104C119.329 31.6834 118.917 31.6743 118.504 31.6794C117.445 31.6733 116.384 31.6911 115.326 31.6707C114.73 30.6886 114.146 29.6974 113.558 28.7102C113.047 27.8748 112.559 27.0243 112.046 26.1904C111.97 26.3423 111.913 26.5002 111.858 26.6602C111.484 27.7388 111.08 28.8062 110.707 29.8853C110.583 30.2468 110.442 30.6028 110.316 30.9639C110.221 31.2406 110.105 31.4803 110.061 31.7693C109.874 33.2252 109.561 34.6719 109.178 36.0882ZM93.8172 28.6863C94.1076 28.7087 94.3966 28.698 94.6876 28.699C95.7707 28.6995 96.8544 28.6985 97.9376 28.699C98.2412 28.697 98.5434 28.7092 98.8466 28.6873C99.0421 28.1856 99.2355 27.6773 99.4041 27.1659C99.101 27.1456 98.7998 27.1568 98.4962 27.1548C97.2774 27.1537 96.0587 27.1568 94.8404 27.1537C94.6825 27.1563 94.5063 27.1385 94.3544 27.1852C94.2605 27.3686 94.2046 27.5727 94.132 27.7652C94.0274 28.0744 93.8994 28.372 93.8172 28.6863ZM99.5773 44.2884C99.4194 44.1457 99.2406 44.0365 99.0715 43.909C98.29 43.3022 97.6491 42.5339 97.1027 41.7138C96.2603 40.4254 95.6489 39.0401 95.1416 37.5913C95.0263 37.2704 94.9466 36.9388 94.8267 36.6189C94.5601 36.5848 94.2955 36.6006 94.0274 36.5986C91.9114 36.5986 89.7958 36.5991 87.6798 36.5986C87.4462 36.6006 87.2085 36.5879 86.9764 36.6123C87.0719 36.8047 87.2171 36.9784 87.3456 37.15C88.6101 38.8355 90.1675 40.2975 91.9256 41.4578C93.9253 42.7766 96.1917 43.7008 98.5475 44.1406C98.8907 44.201 99.2279 44.2701 99.5773 44.2884ZM95.4026 36.6311C95.4198 36.8494 95.4955 37.0464 95.5691 37.2501C95.92 38.2891 96.3283 39.3143 96.8539 40.2782C97.2322 41.0221 97.6953 41.7244 98.2245 42.3698C98.8252 43.0889 99.5885 43.775 100.462 44.1375C101.21 44.4615 102.059 44.5418 102.848 44.3219C103.552 44.1411 104.174 43.7684 104.721 43.2966C105.208 42.8919 105.627 42.3952 106.006 41.8905C106.824 40.7636 107.431 39.5332 107.932 38.2378C108.124 37.7091 108.329 37.1805 108.475 36.6371C108.195 36.6153 107.917 36.6255 107.637 36.625C103.862 36.6245 100.087 36.625 96.3126 36.6245C96.0089 36.6255 95.7062 36.6189 95.4026 36.6311ZM104.19 44.3122C104.54 44.298 104.873 44.2157 105.217 44.1584C105.992 44.0258 106.757 43.8278 107.506 43.5866C108.403 43.2859 109.282 42.9538 110.118 42.5064C112.144 41.5101 113.963 40.0816 115.481 38.4145C115.891 37.959 116.275 37.4771 116.645 36.988C116.729 36.8779 116.802 36.7595 116.869 36.6382C116.583 36.6143 116.302 36.6265 116.016 36.6245C113.747 36.6245 111.476 36.6255 109.208 36.6239C109.155 36.625 109.102 36.6285 109.05 36.6346C108.98 36.7499 108.94 36.8911 108.898 37.0195C108.589 38.0209 108.197 38.9832 107.757 39.9329C107.137 41.1998 106.358 42.4694 105.326 43.4434C104.979 43.7755 104.603 44.0664 104.19 44.3122Z" fill="#D51A35"/>
<path d="M102.502 7.59026C103.526 7.76545 104.369 8.31948 105.098 9.03854C105.973 9.91502 106.671 11.0007 107.21 12.1118C107.517 12.7065 107.774 13.3245 108.008 13.9511C108.136 14.2919 108.271 14.6367 108.351 14.9921C108.113 15.0058 107.875 15.0033 107.637 15.0018C103.845 15.0018 100.053 15.0018 96.2616 15.0018C96.0062 15.0023 95.7513 15.0069 95.4958 14.9937C95.6883 14.2924 95.9752 13.6124 96.2545 12.9416C96.7258 11.8742 97.293 10.8006 98.0161 9.881C98.5844 9.14315 99.2608 8.48807 100.079 8.03307C100.82 7.63393 101.664 7.44655 102.502 7.59026Z" fill="black"/>
<path d="M99.6122 7.69287C99.3964 7.86096 99.1602 7.99553 98.952 8.17478C98.2487 8.75369 97.6444 9.46209 97.1402 10.2192C96.1606 11.7046 95.4918 13.3103 94.9413 14.9957C94.6366 15.0069 94.332 15.0008 94.0273 15.0013C92.0128 15.0018 89.9988 15.0013 87.9843 15.0018C87.7436 15.0028 87.5034 15.0069 87.2627 14.9917C87.381 14.7855 87.5313 14.6057 87.6796 14.4219C89.5956 12.0093 92.1286 10.1075 94.9698 8.91975C96.1931 8.43174 97.4387 8.03971 98.7398 7.82084C99.0292 7.77717 99.3207 7.7015 99.6122 7.69287Z" fill="black"/>
<path d="M104.513 7.72993C106.919 8.05442 109.262 8.90704 111.339 10.1608C113.319 11.3562 115.068 12.9411 116.47 14.7794C116.516 14.8469 116.555 14.9175 116.595 14.9891C116.368 15.0074 116.141 15.0033 115.914 15.0018C113.815 15.0018 111.716 15.0018 109.617 15.0018C109.381 15.0043 109.146 15.0043 108.911 14.9942C108.879 14.9053 108.846 14.817 108.816 14.7276C108.558 13.9014 108.221 13.0955 107.876 12.3023C107.233 10.95 106.429 9.58598 105.33 8.55208C105.034 8.25755 104.703 8.01075 104.355 7.78122C104.321 7.6888 104.468 7.73704 104.513 7.72993Z" fill="black"/>
<path d="M86.9663 15.5066C89.5699 15.5132 92.179 15.5046 94.7821 15.5112C94.7262 15.7742 94.6424 16.0286 94.5734 16.2881C94.3956 16.9417 94.2585 17.6033 94.1189 18.2655C94.0188 18.721 93.968 19.1847 93.8695 19.6397C92.6868 19.6524 91.5031 19.6305 90.3204 19.6503C90.7394 20.2628 91.237 20.8203 91.6565 21.4323C91.5493 21.804 91.4005 22.165 91.2721 22.5307C90.9379 23.4823 90.5769 24.4243 90.2483 25.378C89.6572 26.9867 89.0859 28.6026 88.5014 30.2139C88.3405 30.7054 88.1358 31.1817 87.9825 31.6758C89.5907 31.6845 91.2 31.6764 92.8087 31.6794C93.1322 31.683 93.4516 31.6672 93.7741 31.6936C93.8645 32.2238 93.932 32.757 94.0386 33.2846C94.1955 34.2352 94.4317 35.1594 94.6759 36.0898C92.3781 36.0923 90.0792 36.0898 87.7814 36.0908C87.4929 36.0928 87.207 36.0791 86.9191 36.1055C86.9074 36.2401 86.8998 36.3746 86.8902 36.5092C86.8074 36.398 86.7256 36.2863 86.651 36.1695C85.9253 35.0467 85.3002 33.8488 84.834 32.595C84.7203 32.2913 84.604 32.0039 84.5283 31.6891C84.7441 31.6799 84.9605 31.6774 85.1763 31.6764C85.5384 30.6866 85.8837 29.6913 86.2407 28.7001C85.8903 28.694 85.5414 28.7087 85.1915 28.6909C85.319 28.2435 85.5084 27.8144 85.6531 27.3721C86.0807 26.1625 86.5327 24.9616 86.9546 23.7499C87.2558 22.9318 87.5503 22.1112 87.8413 21.2891C88.0343 20.7274 88.2679 20.178 88.4405 19.6097C88.3395 19.6026 88.2389 19.596 88.1373 19.5945C87.0186 19.5909 85.8989 19.6016 84.7797 19.5899C84.9132 19.1278 85.1255 18.687 85.3124 18.2447C85.7227 17.3439 86.2153 16.506 86.7505 15.6747C86.812 15.5955 86.8485 15.499 86.9663 15.5066Z" fill="black"/>
<path d="M95.327 15.5192C95.4676 15.5004 95.6129 15.5086 95.754 15.5076C100.012 15.5126 104.272 15.503 108.529 15.5121C108.726 16.1032 108.861 16.7009 109.009 17.3077C109.18 18.0629 109.335 18.8256 109.454 19.5904C108.852 19.6056 108.248 19.5817 107.645 19.602C108.08 20.2104 108.558 20.7873 108.998 21.3916C108.903 21.7176 108.769 22.0304 108.66 22.3518C108.324 23.2568 108.004 24.1668 107.68 25.0752C107.274 26.167 106.901 27.2695 106.495 28.3613C106.171 29.2698 105.851 30.1803 105.515 31.0847C105.442 31.2802 105.367 31.4742 105.305 31.6738C106.353 31.6875 107.402 31.6753 108.449 31.6793C108.82 31.6844 109.192 31.6656 109.561 31.6931C109.442 32.6132 109.262 33.5268 109.066 34.4332C108.932 34.9852 108.819 35.5479 108.641 36.0877C108.205 36.0963 107.768 36.0882 107.332 36.0907C103.293 36.0882 99.2498 36.0953 95.2117 36.0872C95.1792 35.9881 95.1457 35.8876 95.1182 35.787C94.8466 34.6963 94.5896 33.6146 94.4154 32.5025C94.3738 32.2283 94.3108 31.9622 94.3037 31.6834C96.6823 31.6738 99.0629 31.6824 101.442 31.6793C101.808 31.6763 102.174 31.688 102.54 31.6722C103.08 30.2118 103.596 28.7432 104.138 27.2832C104.317 26.7485 104.536 26.2244 104.694 25.6831C103.876 25.6587 103.056 25.6933 102.239 25.6658C102.389 25.5206 102.567 25.4312 102.741 25.319C103.627 24.7442 104.508 24.185 105.395 23.6077C105.516 23.5335 105.543 23.4172 105.593 23.2938C105.928 22.3595 106.266 21.4261 106.598 20.4907C106.699 20.2134 106.811 19.9413 106.891 19.6564C106.549 19.6305 106.203 19.6472 105.859 19.6432C102.038 19.6401 98.2149 19.6493 94.3941 19.6386C94.5977 18.3401 94.878 17.0488 95.2381 15.7843C95.263 15.6959 95.2889 15.603 95.327 15.5192Z" fill="black"/>
<path d="M109.075 15.5142C109.12 15.5106 109.165 15.5086 109.209 15.5081C111.579 15.5096 113.95 15.5081 116.32 15.5091C116.548 15.5061 116.776 15.5061 117.003 15.5147C117.808 16.7004 118.48 17.972 119.001 19.3065C119.102 19.5523 119.121 19.7859 119.331 19.9723C119.269 20.217 119.175 20.4491 119.09 20.6858C118.731 21.7004 118.348 22.7053 117.999 23.723C117.823 24.181 117.666 24.6462 117.49 25.1042C117.366 24.9443 117.267 24.7696 117.169 24.5924C116.191 22.9364 115.196 21.2652 114.223 19.6097C114.025 19.5934 113.828 19.5894 113.629 19.5945C112.563 19.5965 111.496 19.5929 110.43 19.596C110.272 19.6026 110.118 19.5929 109.962 19.5772C109.808 18.4377 109.548 17.3098 109.256 16.1987C109.201 15.9697 109.114 15.7463 109.075 15.5142Z" fill="black"/>
<path d="M95.994 22.6398C96.1093 22.6109 96.2438 22.6322 96.3632 22.6281C97.3956 22.6322 98.4285 22.6286 99.4608 22.6296C99.7457 22.6312 100.026 22.6185 100.31 22.6454C99.5309 23.1253 98.7697 23.6382 97.9928 24.1231C97.9034 24.1775 97.7871 24.1663 97.6855 24.1703C96.9411 24.1643 96.1966 24.1729 95.4517 24.1663C95.5806 23.7372 95.7548 23.3228 95.8899 22.8957C95.9209 22.8114 95.9422 22.7139 95.994 22.6398Z" fill="black"/>
<path d="M112.046 26.1904C112.559 27.0243 113.047 27.8748 113.558 28.7102C114.146 29.6974 114.73 30.6886 115.326 31.6707C116.384 31.6911 117.445 31.6733 118.504 31.6794C118.917 31.6743 119.329 31.6834 119.741 31.7104C119.606 31.7251 119.471 31.7357 119.336 31.751C118.793 33.3963 118.028 34.9741 117.054 36.4076C117.039 36.3066 117.025 36.205 117.013 36.1034C116.714 36.0801 116.416 36.0923 116.117 36.0907C113.805 36.0892 111.491 36.0938 109.178 36.0882C109.561 34.6719 109.874 33.2252 110.061 31.7693C110.105 31.4803 110.221 31.2406 110.316 30.9639C110.442 30.6028 110.583 30.2468 110.707 29.8853C111.08 28.8062 111.484 27.7387 111.858 26.6602C111.913 26.5002 111.97 26.3423 112.046 26.1904Z" fill="black"/>
<path d="M94.3544 27.1852C94.5062 27.1385 94.6825 27.1563 94.8404 27.1537C96.0586 27.1568 97.2774 27.1537 98.4961 27.1548C98.7998 27.1568 99.1009 27.1456 99.4041 27.1659C99.2355 27.6773 99.042 28.1856 98.8465 28.6873C98.5434 28.7092 98.2412 28.697 97.9375 28.699C96.8544 28.6985 95.7707 28.6995 94.6875 28.699C94.3966 28.698 94.1076 28.7087 93.8171 28.6863C93.8994 28.372 94.0274 28.0744 94.132 27.7651C94.2046 27.5727 94.2605 27.3685 94.3544 27.1852Z" fill="black"/>
<path d="M86.9763 36.6123C87.2084 36.5879 87.446 36.6006 87.6796 36.5986C89.7957 36.5991 91.9112 36.5986 94.0273 36.5986C94.2954 36.6006 94.56 36.5848 94.8266 36.6189C94.9464 36.9388 95.0262 37.2704 95.1414 37.5913C95.6487 39.0401 96.2601 40.4254 97.1026 41.7137C97.649 42.5339 98.2899 43.3022 99.0714 43.909C99.2405 44.0365 99.4192 44.1457 99.5772 44.2884C99.2278 44.2701 98.8906 44.201 98.5473 44.1406C96.1916 43.7008 93.9252 42.7766 91.9255 41.4578C90.1674 40.2975 88.61 38.8355 87.3455 37.15C87.217 36.9784 87.0718 36.8047 86.9763 36.6123Z" fill="black"/>
<path d="M95.4026 36.6311C95.7063 36.6189 96.0089 36.6255 96.3126 36.6245C100.087 36.625 103.862 36.6245 107.637 36.625C107.917 36.6255 108.195 36.6153 108.475 36.6372C108.329 37.1805 108.124 37.7092 107.932 38.2378C107.431 39.5332 106.824 40.7636 106.006 41.8905C105.627 42.3952 105.208 42.8919 104.721 43.2966C104.174 43.7684 103.552 44.1411 102.848 44.3219C102.059 44.5418 101.21 44.4615 100.462 44.1375C99.5885 43.775 98.8252 43.0889 98.2245 42.3699C97.6954 41.7244 97.2322 41.0221 96.8539 40.2782C96.3283 39.3143 95.92 38.2891 95.5692 37.2501C95.4955 37.0465 95.4199 36.8494 95.4026 36.6311Z" fill="black"/>
<path d="M109.049 36.6346C109.102 36.6285 109.155 36.625 109.208 36.6239C111.476 36.6255 113.747 36.6245 116.016 36.6245C116.302 36.6265 116.583 36.6143 116.869 36.6382C116.802 36.7595 116.729 36.8779 116.645 36.988C116.275 37.4771 115.891 37.959 115.481 38.4145C113.963 40.0816 112.144 41.5101 110.118 42.5064C109.282 42.9538 108.403 43.2859 107.506 43.5866C106.757 43.8278 105.992 44.0258 105.217 44.1584C104.873 44.2157 104.54 44.298 104.19 44.3122C104.603 44.0664 104.979 43.7755 105.326 43.4434C106.358 42.4694 107.137 41.1998 107.757 39.9329C108.197 38.9832 108.589 38.0209 108.898 37.0195C108.94 36.8911 108.98 36.7499 109.049 36.6346Z" fill="black"/>
</g>
</g>
<defs>
<clipPath id="clip0_175_433">
<rect width="128" height="128" fill="white"/>
</clipPath>
<clipPath id="clip1_175_433">
<rect x="76" width="52" height="52" rx="26" fill="white"/>
</clipPath>
</defs>
</svg>
