<svg xmlns="http://www.w3.org/2000/svg" viewBox="0 0 128 128"><path fill="url(#_beraeth)" d="M58.593 120.025a58.63 58.63 0 0 0 41.431-17.138 58.464 58.464 0 0 0 0-82.749A58.63 58.63 0 0 0 58.593 3 58.63 58.63 0 0 0 17.16 20.138 58.47 58.47 0 0 0 0 61.513a58.47 58.47 0 0 0 17.161 41.374 58.63 58.63 0 0 0 41.432 17.138"/><path fill="#fff" d="m34.278 64.73 24.316 14.378 24.274-14.377-24.274 34.23z"/><path fill="#f5ebe4" d="m34.278 64.73 24.316 14.378v19.853z"/><path fill="#fff" d="M58.594 73.759 34.278 59.38l24.316-38.24L82.91 59.38z"/><path fill="#f5ebe4" d="M58.594 73.759 34.278 59.38l24.316-38.24z"/><path fill="url(#_beraeth-b)" d="M100.233 70.515h-.17c-15.054 0-27.259 12.197-27.259 27.242S85.01 125 100.063 125h.17c15.055 0 27.259-12.197 27.259-27.243s-12.204-27.242-27.259-27.242"/><path fill="#fff" d="M110.775 95.564a3 3 0 0 1-.093-.4 6 6 0 0 0-.135-.588c.591-.894 3.414-5.553.202-8.544-3.566-3.32-7.731 1.031-7.731 1.031l.013.02c-1.873-.569-3.903-.635-5.878-.02-.024-.025-4.176-4.34-7.73-1.03-3.556 3.31.283 8.666.303 8.694q-.06.19-.095.385c-.385 2.292-3.004 3-3.004 6.991 0 3.993 2.74 7.276 8.332 7.276h2.294c.01.015.955 1.353 2.895 1.352 1.801-.002 2.99-1.34 3-1.352h2.19c5.591 0 8.331-3.206 8.331-7.276 0-3.717-2.271-4.586-2.894-6.539"/><defs><linearGradient id="_beraeth" x1="117.185" x2=".16" y1="3" y2="120.185" gradientUnits="userSpaceOnUse"><stop offset=".265" stop-color="#dfbf0e"/><stop offset=".82" stop-color="#d98e1f"/></linearGradient><linearGradient id="_beraeth-b" x1="100.148" x2="100.148" y1="70.515" y2="125" gradientUnits="userSpaceOnUse"><stop stop-color="#714800"/><stop offset="1" stop-color="#ba7600"/></linearGradient></defs></svg>
