<svg xmlns="http://www.w3.org/2000/svg" viewBox="0 0 192 128"><path fill="url(#_beraeth)" d="M58.593 120.025a58.63 58.63 0 0 0 41.431-17.138 58.464 58.464 0 0 0 0-82.749A58.63 58.63 0 0 0 58.593 3 58.63 58.63 0 0 0 17.16 20.138 58.47 58.47 0 0 0 0 61.513a58.47 58.47 0 0 0 17.161 41.374 58.63 58.63 0 0 0 41.432 17.138"/><path fill="#fff" d="m34.278 64.73 24.316 14.378 24.274-14.377-24.274 34.23z"/><path fill="#f5ebe4" d="m34.278 64.73 24.316 14.378v19.853z"/><path fill="#fff" d="M58.594 73.759 34.278 59.38l24.316-38.24L82.91 59.38z"/><path fill="#f5ebe4" d="M58.594 73.759 34.278 59.38l24.316-38.24z"/><path fill="url(#_beraeth-b)" d="M100.233 70.515h-.17c-15.054 0-27.259 12.197-27.259 27.242S85.01 125 100.063 125h.17c15.055 0 27.259-12.197 27.259-27.243s-12.204-27.242-27.259-27.242"/><path fill="#fff" d="M110.775 95.564a3 3 0 0 1-.093-.4 6 6 0 0 0-.135-.588c.591-.894 3.414-5.553.202-8.544-3.566-3.32-7.731 1.031-7.731 1.031l.013.02c-1.873-.569-3.903-.635-5.878-.02-.024-.025-4.176-4.34-7.73-1.03-3.556 3.31.283 8.666.303 8.694q-.06.19-.095.385c-.385 2.292-3.004 3-3.004 6.991 0 3.993 2.74 7.276 8.332 7.276h2.294c.01.015.955 1.353 2.895 1.352 1.801-.002 2.99-1.34 3-1.352h2.19c5.591 0 8.331-3.206 8.331-7.276 0-3.717-2.271-4.586-2.894-6.539"/><defs><linearGradient id="_beraeth" x1="117.185" x2=".16" y1="3" y2="120.185" gradientUnits="userSpaceOnUse"><stop offset=".265" stop-color="#dfbf0e"/><stop offset=".82" stop-color="#d98e1f"/></linearGradient><linearGradient id="_beraeth-b" x1="100.148" x2="100.148" y1="70.515" y2="125" gradientUnits="userSpaceOnUse"><stop stop-color="#714800"/><stop offset="1" stop-color="#ba7600"/></linearGradient></defs><circle cx="64" cy="64" r="64" fill="#fff" transform="translate(64)"/><path d="M124.928 4.762c-1.434 2.918-31.283 61.85-35.891 70.86l-4.557 8.756 9.114 8.345c4.966 4.608 14.336 13.21 20.736 19.149 6.45 5.888 11.827 10.803 12.032 10.854.256.103 29.9-24.985 40.55-34.304l1.741-1.536-6.963-13.619C157.9 65.792 148.48 47.207 140.8 32c-7.68-15.206-14.234-27.904-14.54-28.262-.41-.41-.769-.205-1.332 1.024m10.291 26.982c4.762 9.42 8.653 17.46 8.653 17.766 0 .359-1.434 1.332-3.174 2.15-1.792.769-5.684 2.612-8.653 4.097-3.021 1.433-5.683 2.611-5.99 2.611-.666 0-16.999-7.987-17.665-8.653-.256-.256 2.253-5.785 6.196-13.67 9.676-19.2 11.008-21.76 11.52-21.555.256.05 4.352 7.833 9.113 17.254m-20.992 26.47 8.243 3.943-.256 1.843c-.614 3.994-3.584 20.224-3.737 20.429-.103.102-3.533-1.997-7.578-4.71l-7.373-4.916-5.273 2.765c-2.919 1.536-5.53 2.816-5.735 2.816-.204 0 2.56-5.888 6.144-13.056s6.759-13.056 6.964-13.056c.204 0 4.096 1.792 8.601 3.942m39.424 9.984c3.687 7.322 6.605 13.415 6.503 13.466-.103.102-1.946-.82-4.199-2.1-2.201-1.228-4.25-2.252-4.557-2.252-.358 0-6.604 1.485-13.926 3.277-7.322 1.843-13.363 3.225-13.517 3.123-.102-.102.563-4.557 1.434-9.83 1.382-8.192 1.792-9.78 2.765-10.548 1.638-1.28 17.92-9.01 18.432-8.704.204.103 3.379 6.247 7.065 13.568"/></svg>
