<svg xmlns="http://www.w3.org/2000/svg" viewBox="0 0 128 128"><path fill="#14234c" d="M64 128c35.346 0 64-28.654 64-64S99.346 0 64 0 0 28.654 0 64s28.654 64 64 64"/><path fill="url(#_br)" d="M35.116 71.156 29 80.133l.4 3.318 7.961 6.153s8.625 6.707 13.283 7.367c1.544.216 16.146-10.965 25.837-15.963 7.866-4.057 12.454-5.597 12.454-5.597L99 77.355l-19.196-18.01S65.967 67.74 62.65 71.152c-3.32 3.408-12.038 9.55-12.038 9.55L41.2 77.894l-6.085-6.743z"/><path fill="url(#_br-b)" d="m41.893 54.867-5.775 8.458 5.606 6.48 8.612 2.626L64.45 60.666l8.301-4.706 5.81-2.556-8.853-7.129s-11.07.682-15.08 5.592c0 0-7.745 7.365-8.994 6.41l-3.734-3.41z"/><path fill="url(#_br-c)" d="M55.816 31 42.762 48.327s2.397 3.54 3.734 2.797c1.504-.829 7.033-6.49 9.505-7.642 4.948-2.309 2.757-1.616 8.449-3.07l4.046.697z"/><defs><linearGradient id="_br" x1="99" x2="48.471" y1="106.557" y2="24.429" gradientUnits="userSpaceOnUse"><stop offset=".333" stop-color="#3fb0ff"/><stop offset=".719" stop-color="#9236ea"/><stop offset="1" stop-color="#f29a6b"/></linearGradient><linearGradient id="_br-b" x1="99" x2="48.471" y1="106.557" y2="24.429" gradientUnits="userSpaceOnUse"><stop offset=".333" stop-color="#3fb0ff"/><stop offset=".719" stop-color="#9236ea"/><stop offset="1" stop-color="#f29a6b"/></linearGradient><linearGradient id="_br-c" x1="99" x2="48.471" y1="106.557" y2="24.429" gradientUnits="userSpaceOnUse"><stop offset=".333" stop-color="#3fb0ff"/><stop offset=".719" stop-color="#9236ea"/><stop offset="1" stop-color="#f29a6b"/></linearGradient></defs></svg>
