<svg xmlns="http://www.w3.org/2000/svg" viewBox="0 0 192 128"><path d="M78.613 2.945a64.05 64.05 0 0 1 23.634 11.13 63.5 63.5 0 0 1 14.476 15.254 62.65 62.65 0 0 1 9.519 22.9 62.3 62.3 0 0 1 .413 21.734 62.1 62.1 0 0 1-9.186 24.017 62.7 62.7 0 0 1-17.716 18.017 63.5 63.5 0 0 1-24.165 9.773 64.2 64.2 0 0 1-21.24.246 64.1 64.1 0 0 1-25.385-9.799 63.6 63.6 0 0 1-17.319-16.914A62.7 62.7 0 0 1 1.89 76.806 61.6 61.6 0 0 1 .51 62.844c.057-5.55.897-11.098 2.437-16.43a62.3 62.3 0 0 1 12.594-23.248 63 63 0 0 1 17.304-14.06 63.6 63.6 0 0 1 25.505-7.7 64.2 64.2 0 0 1 20.263 1.539"/><path fill="#c07700" d="M63.437 2.229c.012.59.015 1.18.036 1.77.04 1.286-.025 2.574.065 3.856q-.415.027-.831.032c.072-.344.114-.67.03-1.017-.15-.714-.268-1.589-.695-2.193-.545-.761-1.542-1.146-2.445-1.229-1.13-.098-2.299.045-3.41.251-.685.142-1.51.361-2.021.866-.537.539-.636 1.335-.705 2.057-.078.746-.012 1.483.065 2.225q-.338.066-.68.125c-.463-1.85-1.031-3.672-1.467-5.53a63 63 0 0 1 12.058-1.213m1.056.002c4.046.06 8.074.499 12.037 1.321-.425 1.824-.99 3.612-1.44 5.429l-.679-.129c.131-1.138.17-2.3-.137-3.417a2 2 0 0 0-1.091-1.282c-.934-.452-2.069-.575-3.091-.69-1.26-.1-2.559-.115-3.63.651-.594.41-.888 1.031-1.041 1.717-.142.718-.384 1.324-.193 2.055q-.322-.008-.646-.027c-.03-.495-.053-.991-.05-1.487.011-1.38-.036-2.76-.038-4.14"/><path fill="#fca200" d="M59.597 3.448c.903.083 1.9.468 2.445 1.229.427.604.545 1.479.695 2.193.084.348.042.673-.03 1.017a54 54 0 0 0-9.18.96c-.078-.742-.144-1.48-.066-2.225.07-.722.168-1.518.705-2.057.511-.505 1.336-.724 2.02-.866 1.112-.206 2.28-.35 3.411-.25m10.495.015c1.022.115 2.157.238 3.091.69q.828.401 1.09 1.282c.308 1.117.27 2.279.138 3.417a54 54 0 0 0-9.183-.966c-.191-.73.051-1.337.193-2.055.153-.686.447-1.307 1.04-1.717 1.072-.766 2.372-.75 3.631-.65"/><path fill="#c07700" d="M50.35 3.657c.435 1.862 1.004 3.686 1.468 5.538q-.44.1-.882.204a10.7 10.7 0 0 0-1.017-2.22c-.308-.482-.675-.946-1.246-1.12-.716-.22-1.56-.03-2.278.114-1.238.279-2.475.614-3.656 1.082-.727.31-1.52.729-2.035 1.343-.416.505-.439 1.155-.34 1.774.149.813.415 1.616.826 2.335l-.75.338c-.862-1.758-1.898-3.423-2.693-5.22A62.4 62.4 0 0 1 50.35 3.657m27.208.122a62.7 62.7 0 0 1 12.55 4.258c-.808 1.71-1.777 3.329-2.618 5.018l-.744-.338a7.6 7.6 0 0 0 .828-2.345c.093-.58.08-1.213-.287-1.704-.426-.56-1.115-.96-1.741-1.26-1.245-.555-2.59-.906-3.913-1.215-.791-.161-1.77-.398-2.54-.07-.644.274-1.077 1.02-1.39 1.614q-.421.804-.704 1.667-.441-.104-.882-.203c.457-1.813 1.01-3.601 1.441-5.422"/><path fill="#ffc100" d="M58.833 4.677c.603.026 1.254.133 1.795.416.373.192.675.537.8.939.127.396-.175.89-.603.905-.533.03-1.07-.037-1.605-.017-.91.025-1.814.158-2.696.386-.42.098-.874.242-1.306.229a.754.754 0 0 1-.556-1.106c.275-.406.74-.702 1.138-.98.877-.606 1.983-.8 3.033-.772m11.718.12c.998.18 1.92.78 2.624 1.492a.755.755 0 0 1-.338 1.222c-.391.082-.848-.075-1.233-.158a12.4 12.4 0 0 0-2.886-.433c-.536-.02-1.072.048-1.606.017-.427-.015-.73-.509-.602-.905.16-.511.566-.875 1.06-1.06.929-.357 2.012-.368 2.98-.176"/><path fill="#ffd879" d="M59.229 5.239c.386.097.84.208 1.153.467.326.336.07.906-.405.856-1.01-.05-1.95-.126-2.946.139-.321.088-.617.242-.935.334-.26.034-.533-.14-.566-.408-.066-.354.24-.636.491-.832.917-.679 2.118-.776 3.208-.556m12.687.556c.251.196.557.478.491.832-.032.268-.306.442-.566.408-.318-.092-.613-.246-.934-.334-.997-.265-1.937-.19-2.946-.14-.429.048-.699-.429-.465-.78.199-.26.613-.367.913-.466 1.142-.321 2.529-.252 3.507.48"/><path fill="#fca200" d="M48.673 6.06c.57.173.938.637 1.246 1.119a10.7 10.7 0 0 1 1.017 2.22 55.5 55.5 0 0 0-9.746 3.309 7.4 7.4 0 0 1-.826-2.336c-.099-.62-.076-1.269.34-1.774.515-.614 1.308-1.033 2.035-1.343 1.18-.468 2.418-.803 3.656-1.082.718-.145 1.562-.335 2.277-.113m32.96.133c1.323.309 2.668.66 3.913 1.216.626.3 1.315.698 1.741 1.26.366.49.38 1.122.286 1.703a7.6 7.6 0 0 1-.827 2.345A55.6 55.6 0 0 0 77 9.404q.283-.863.704-1.667c.313-.594.746-1.34 1.39-1.614.77-.328 1.749-.091 2.54.07"/><path fill="#ffc100" d="M46.494 7.418c.698-.063 1.612-.064 2.215.348.43.313.478.923.04 1.253-.45.26-1.029.315-1.523.473-1.171.337-2.344.76-3.426 1.325-.329.158-.701.38-1.07.404-.484.004-.87-.49-.73-.96.142-.412.493-.77.78-1.09.921-1.034 2.367-1.582 3.713-1.753m36.164.257c.924.284 1.776.718 2.44 1.433.308.339.686.715.839 1.153.14.471-.245.964-.73.96-.368-.025-.74-.246-1.07-.404-1.082-.565-2.253-.988-3.425-1.325-.507-.17-1.16-.209-1.593-.528-.43-.417-.237-1.047.266-1.296.973-.458 2.273-.297 3.273.007"/><path fill="#ffd879" d="M47.36 7.95a.482.482 0 0 1 .284.844c-.278.207-.69.234-1.014.355-.886.295-1.7.69-2.541 1.085-.267.104-.548.283-.825.107-.285-.162-.31-.548-.091-.78 1.024-1.153 2.68-1.669 4.186-1.611m33.218 0c1.513-.064 3.261.485 4.246 1.69.283.421-.152.921-.611.737-.976-.39-1.896-.908-2.905-1.228-.324-.12-.736-.148-1.015-.355a.482.482 0 0 1 .285-.844"/><path fill="#c07700" d="M36.785 8.265c.812 1.791 1.842 3.468 2.702 5.232l-.84.42c-.367-.787-.83-1.642-1.475-2.235-.47-.414-1.058-.669-1.693-.57-.783.114-1.557.508-2.249.877a41 41 0 0 0-3.81 2.44c-.825.606-1.787 1.33-2.198 2.3-.288.652-.191 1.362.213 1.938.445.646 1.1.898 1.718 1.35q-.661.526-1.308 1.07c-.83-.863-1.705-1.68-2.549-2.53-.602-.59-1.155-1.226-1.774-1.8a62 62 0 0 1 12.815-8.275zm54.276.23c.408.164.797.383 1.193.577a62.6 62.6 0 0 1 11.938 7.89c-1.332 1.419-2.748 2.748-4.109 4.136q-.649-.542-1.31-1.072c.647-.478 1.333-.728 1.779-1.435a1.94 1.94 0 0 0 .127-1.948c-.443-.95-1.406-1.662-2.233-2.265a40 40 0 0 0-3.82-2.433c-.7-.367-1.499-.77-2.294-.847-.675-.063-1.301.291-1.755.766-.555.597-.952 1.33-1.29 2.064q-.421-.211-.841-.418c.456-.999 1.01-1.903 1.52-2.88.381-.704.72-1.43 1.095-2.135"/><path fill="#eba500" d="M81.433 11.772a54.8 54.8 0 0 1 14.394 7.346c9.657 6.873 16.971 16.922 20.467 28.254-.188-.201-.37-.391-.475-.65a74 74 0 0 0-5.573-10.54c-1.379-2.174-2.89-4.341-4.615-6.255a41 41 0 0 0-7.477-6.518c-3.534-2.417-7.518-4.312-11.503-5.861-4.334-1.686-8.829-2.93-13.438-3.581-2.188-.302-4.407-.622-6.617-.675-1.186-.031-2.296-.255-3.487-.126-1.42.156-2.845.123-4.263.282-2.797.307-5.624.678-8.372 1.291-4.208.923-8.338 2.358-12.281 4.088-3.904 1.715-7.593 3.773-10.934 6.436-2.838 2.275-5.399 4.887-7.506 7.857-3.104 4.353-5.685 9.042-7.794 13.95-.132.334-.327.627-.53.919 2.447-8.265 6.94-15.937 12.902-22.16a54.8 54.8 0 0 1 17.138-12.094 54.8 54.8 0 0 1 39.964-1.963"/><path fill="#fca200" d="M35.479 11.112c.635-.099 1.223.156 1.693.57.646.593 1.108 1.448 1.475 2.235a56 56 0 0 0-9.494 6.1c-.618-.452-1.273-.704-1.718-1.35-.404-.576-.5-1.286-.213-1.938.41-.97 1.373-1.694 2.199-2.3a41 41 0 0 1 3.81-2.44c.691-.369 1.465-.763 2.248-.877m56.853-.014c.795.076 1.594.48 2.294.847a40 40 0 0 1 3.82 2.433c.827.603 1.79 1.314 2.233 2.265a1.94 1.94 0 0 1-.127 1.948c-.446.707-1.132.957-1.78 1.435a56 56 0 0 0-9.486-6.098c.339-.734.736-1.467 1.291-2.064.454-.475 1.08-.83 1.755-.766"/><path fill="#ffc100" d="M35.811 12.923a.764.764 0 0 1 .479 1.003c-.105.31-.494.47-.761.618-.741.361-1.46.765-2.143 1.226-.948.645-1.836 1.422-2.696 2.18-.282.24-.63.54-1.005.603-.523.062-.986-.383-.903-.914.146-.938.685-1.832 1.383-2.466a9.8 9.8 0 0 1 3.546-2.08c.645-.2 1.442-.37 2.1-.17m57.632-.025c1.087.2 2.133.705 3.064 1.291.896.598 1.818 1.34 2.286 2.335.185.4.384.872.366 1.321-.04.475-.54.807-.994.69-.342-.094-.653-.359-.919-.585-.857-.758-1.746-1.535-2.695-2.18a17 17 0 0 0-2.059-1.185c-.237-.123-.504-.246-.7-.43a.762.762 0 0 1 .17-1.156c.42-.233 1.023-.173 1.481-.101"/><path fill="#ffc300" d="M63.11 13.166c1.19-.129 2.3.095 3.486.126 2.21.053 4.43.373 6.617.675 4.609.65 9.104 1.895 13.438 3.58 3.985 1.55 7.969 3.445 11.503 5.861a41 41 0 0 1 7.477 6.519c1.725 1.914 3.236 4.081 4.615 6.255a74 74 0 0 1 5.573 10.54c.105.259.287.449.475.65a53.4 53.4 0 0 1 2.468 14.157c-.094.268-.192.532-.231.815-.433 3.572-1.134 7.082-2.027 10.565-.688 2.65-1.417 5.253-2.436 7.8-1.99 5.11-5.02 9.92-8.355 14.256-2.199 2.881-4.813 5.365-7.69 7.559-2.157 1.663-4.545 3.104-6.905 4.46-2.951 1.665-6.03 3.22-9.202 4.419-1.64.63-3.364 1.112-5.062 1.563-2.17.552-4.288 1.144-6.512 1.455-2.192.349-4.403.54-6.623.539a44.8 44.8 0 0 1-10.642-1.484c-2.445-.623-4.98-1.255-7.328-2.177-3.9-1.511-7.635-3.498-11.21-5.657-4.346-2.6-8.45-5.896-11.65-9.838a68 68 0 0 1-6.693-10.05c-1.79-3.356-3.161-6.916-4.156-10.585-1.125-4.01-2.016-8.07-2.557-12.202-.045-.373-.071-.736-.183-1.097l-.144-.341c.154-4.546.94-9.19 2.272-13.54.204-.292.399-.585.531-.918 2.11-4.91 4.69-9.598 7.794-13.951 2.107-2.97 4.668-5.582 7.506-7.857 3.341-2.663 7.03-4.72 10.934-6.436 3.943-1.73 8.073-3.165 12.281-4.088 2.748-.613 5.575-.984 8.372-1.29 1.418-.16 2.844-.127 4.263-.283"/><path fill="#ffd879" d="M34.11 13.49c.207-.043.394-.09.58.043.237.164.285.536.058.73-.314.275-.727.437-1.073.67-.789.524-1.526 1.138-2.234 1.766-.357.308-.666.726-1.076.96-.37.121-.703-.168-.672-.544.084-.453.404-.88.678-1.24a7.46 7.46 0 0 1 3.739-2.384m59.597-.025c1.482.354 2.8 1.203 3.805 2.342.282.353.57.75.709 1.185.096.29-.078.638-.39.688-.306.048-.495-.181-.7-.363a19.3 19.3 0 0 0-2.868-2.383c-.372-.267-.936-.441-1.193-.825-.13-.417.22-.758.637-.644"/><path fill="#ffcd1a" d="M62.844 15.366c1.76-.097 3.581.093 5.358.18 1.635.083 3.236.293 4.839.63 1.669.343 3.404.62 5.045 1.067 1.228.331 2.478.85 3.49 1.633.515.42 1.041.952 1.299 1.575.297.759.015 1.598-.59 2.114-1.15.988-2.858 1.295-4.304.894-1.412-.38-2.771-.995-4.166-1.445-1.325-.432-2.696-.743-4.05-1.08-1.159-.268-2.36-.537-3.547-.584-.749-.034-1.5-.096-2.25-.102a49 49 0 0 0-3.199.18c-1.82.258-3.62.757-5.4 1.214-1.821.466-3.516 1.277-5.316 1.792-1.455.426-3.147.154-4.333-.811-.562-.453-.887-1.16-.742-1.883.129-.635.651-1.207 1.113-1.636.899-.792 2.05-1.328 3.182-1.69 1.848-.57 3.825-.862 5.719-1.257 2.605-.576 5.204-.632 7.852-.79"/><path fill="#ffda6a" d="M63.969 16.37c1.691-.084 3.333.136 5.006.334 2.25.279 4.522.881 6.723 1.433 1.026.259 2.11.508 3.095.896.54.219 1.134.543 1.447 1.055.306.487.286 1.147-.083 1.596-.41.518-1.06.699-1.695.718-.911.017-1.8-.332-2.643-.644-2.031-.79-4.01-1.533-6.158-1.956-1.44-.273-2.846-.539-4.32-.53-1.291-.089-2.575-.005-3.868.039-1.005.09-2.006.267-2.998.45-2.053.39-3.965 1.068-5.906 1.825-.792.295-1.626.648-2.464.774-.714.11-1.585.025-2.143-.48a1.39 1.39 0 0 1-.39-1.539c.243-.636.886-1.017 1.481-1.27 1.2-.488 2.54-.756 3.792-1.087 2.082-.519 4.085-1.034 6.215-1.292 1.64-.191 3.253-.406 4.909-.321"/><path fill="#c07700" d="M22.748 17.413c1.373 1.517 2.872 2.9 4.3 4.359-.305.277-.615.55-.917.828-.497-.7-1.112-1.454-1.87-1.88a1.86 1.86 0 0 0-1.638-.104c-.845.33-1.598 1.014-2.26 1.62-1.047.963-1.97 2.023-2.915 3.082-.78.887-1.54 1.754-2.03 2.846-.158.377-.285.748-.125 1.152.206.59.692.9 1.241 1.13.691.3 1.442.235 2.14.534a63 63 0 0 0-1.264 1.817 30 30 0 0 1-3.152-1.954c-.72-.508-1.45-.983-2.25-1.355.845-1.188 1.682-2.378 2.587-3.52a62 62 0 0 1 7.902-8.334zm82.249.232a62.5 62.5 0 0 1 10.656 11.97c-1.19.605-2.196 1.429-3.323 2.132-.593.381-1.208.72-1.824 1.063a48 48 0 0 0-1.255-1.81c.694-.331 1.452-.244 2.152-.553.55-.23 1.036-.542 1.242-1.13.159-.405.032-.775-.125-1.152-.45-1.006-1.136-1.827-1.855-2.645-1.271-1.432-2.529-2.891-4.026-4.097-.517-.406-1.147-.837-1.811-.932-.564-.087-1.086.143-1.528.472-.6.462-1.07 1.036-1.503 1.65-.305-.277-.615-.55-.92-.828 1.275-1.303 2.609-2.543 3.854-3.874z"/><path fill="#fca200" d="M24.26 20.72c.759.426 1.374 1.18 1.871 1.88a56 56 0 0 0-7.458 8.38c-.697-.299-1.448-.234-2.139-.534-.55-.23-1.035-.54-1.241-1.13-.16-.404-.033-.775.124-1.152.49-1.092 1.251-1.96 2.03-2.846.947-1.059 1.869-2.12 2.916-3.083.662-.605 1.415-1.289 2.26-1.619a1.86 1.86 0 0 1 1.638.104m80.568-.23c.664.095 1.294.526 1.811.932 1.497 1.206 2.755 2.665 4.026 4.097.719.818 1.405 1.639 1.855 2.645.157.377.284.747.125 1.152-.206.588-.692.9-1.242 1.13-.7.309-1.458.221-2.152.553a56 56 0 0 0-7.454-8.386c.433-.615.903-1.189 1.503-1.65.442-.33.964-.56 1.528-.473"/><path fill="#ffc100" d="M23.72 22.023c.44.11.737.655.496 1.063-.308.492-.811.874-1.205 1.298-1.333 1.355-2.516 2.842-3.598 4.4-.235.31-.487.732-.918.75a.775.775 0 0 1-.842-.802c.026-.59.266-1.188.472-1.738.42-1.002.967-1.991 1.7-2.8.643-.722 1.526-1.265 2.344-1.775.477-.285.976-.548 1.55-.396m80.724-.041c.809-.056 1.648.67 2.312 1.072 1.561.992 2.502 2.517 3.159 4.208.172.493.39 1.053.365 1.58a.77.77 0 0 1-.837.692c-.431-.018-.683-.44-.918-.75-1.066-1.535-2.228-3-3.536-4.337-.411-.449-.941-.845-1.267-1.36-.281-.514.17-1.095.722-1.105"/><path fill="#ffd879" d="M23.059 23.497c-.173.314-.509.545-.749.811a24 24 0 0 0-2.606 3.396c-.174.294-.73.455-.974.166-.195-.213-.085-.52-.007-.76.339-.912.733-1.893 1.377-2.633.577-.684 1.412-1.16 2.212-1.538.402-.195.838.101.747.558m82.477-.59c.578.24 1.159.583 1.662.958.93.726 1.42 1.708 1.841 2.783.112.32.33.722.261 1.067-.173.474-.844.343-1.067-.01a24 24 0 0 0-2.606-3.397c-.24-.266-.576-.496-.749-.81a.5.5 0 0 1 .658-.592"/><path fill="#c07700" d="M11.45 30.375c1.231.567 2.192 1.35 3.323 2.08.667.442 1.362.837 2.064 1.222-.259.413-.519.824-.766 1.242-.352-.553-.888-.857-1.427-1.212-.606-.372-1.405-.748-2.129-.56-.68.174-1.218.815-1.624 1.354-.996 1.384-1.788 2.936-2.535 4.465-.572 1.204-1.176 2.494-1.432 3.808-.099.582-.185 1.324.209 1.82.39.483 1.098.721 1.69.818.786.137 1.533-.115 2.32.008a57 57 0 0 0-.658 2.018c-1.32-.477-2.681-.777-4.022-1.178a30 30 0 0 1-2.139-.77c1.67-5.325 4.06-10.45 7.127-15.115m104.785.12a61.5 61.5 0 0 1 7.201 15.065c-1.949.831-4.022 1.175-6.005 1.888a60 60 0 0 0-.658-2.014c.765-.152 1.486.106 2.251-.009.621-.087 1.372-.326 1.78-.83.394-.497.308-1.239.209-1.82-.255-1.315-.859-2.605-1.432-3.809-.746-1.53-1.539-3.081-2.534-4.465-.407-.539-.945-1.18-1.625-1.355-.694-.18-1.463.163-2.051.514-.569.365-1.142.7-1.525 1.267a69 69 0 0 0-.761-1.239c.544-.306 1.093-.605 1.622-.939 1.215-.745 2.261-1.616 3.528-2.254"/><path d="M38.23 31.432c2.39-.117 4.785.138 7.02 1.03a12.8 12.8 0 0 1 4.864 3.384c2.75 2.964 4.428 6.732 5.394 10.623.65 2.577 1.01 5.22.974 7.88-.022 1.125-.05 2.25-.153 3.372-.225 2.63-.459 5.282-1.132 7.842-.414 1.627-.98 3.206-1.642 4.748-.836 2.246-1.951 4.591-3.824 6.16-1.343 1.119-2.87 2.043-4.443 2.8-3.37 1.687-7.318 2.3-11.056 2.08-2.366-.192-4.845-.694-6.968-1.791-2.616-1.32-4.789-3.54-6.076-6.17-.848-1.698-1.249-3.458-1.637-5.302-.521-2.679-.495-5.523-.392-8.242.09-2.58.322-5.145.794-7.684.492-2.87 1.354-5.66 2.487-8.34a26.6 26.6 0 0 1 3.234-5.654c2.107-2.83 5.175-5.082 8.592-6.023a19.7 19.7 0 0 1 3.964-.713m48.724.048c2.817-.273 5.67.184 8.301 1.204 1.579.625 3.042 1.567 4.345 2.649 1.732 1.448 3.069 3.232 4.218 5.162 1.351 2.235 2.322 4.758 3.11 7.24 1.23 4.047 1.754 8.393 1.867 12.61.107 3.089.07 6.115-.716 9.122-.528 2.438-1.48 4.733-3.1 6.65a13.8 13.8 0 0 1-6.432 4.322c-2.735.859-5.612 1.128-8.465.859-2.091-.196-4.196-.637-6.14-1.446a26 26 0 0 1-3.089-1.533c-1.37-.836-2.806-1.79-3.828-3.043-1.21-1.498-1.973-3.175-2.643-4.965-.648-1.513-1.207-3.061-1.618-4.657-.723-2.705-.958-5.583-1.191-8.37-.12-1.844-.18-3.714-.03-5.557.202-2.481.723-4.94 1.469-7.312 1.168-3.626 3-6.96 5.81-9.572 2.248-2.02 5.137-3.122 8.132-3.363"/><path fill="#fca200" d="M12.515 33.146c.723-.187 1.523.189 2.13.561.538.355 1.074.659 1.426 1.212a55.7 55.7 0 0 0-4.928 10.501c-.787-.123-1.534.129-2.32-.008-.592-.097-1.3-.335-1.69-.818-.394-.496-.308-1.238-.209-1.82.256-1.314.86-2.604 1.432-3.808.747-1.53 1.54-3.081 2.535-4.465.406-.539.944-1.18 1.624-1.355m102.907 0c.68.175 1.218.816 1.625 1.355.995 1.384 1.788 2.936 2.534 4.465.573 1.204 1.177 2.494 1.432 3.808.099.582.185 1.324-.209 1.82-.408.505-1.159.744-1.78.831-.765.115-1.486-.143-2.251.01a55.5 55.5 0 0 0-4.927-10.508c.383-.566.956-.902 1.525-1.267.588-.351 1.357-.694 2.051-.514"/><path fill="#fff" d="M37.55 34.347a9.6 9.6 0 0 1 5.21.72c2.098.915 3.839 2.496 5.147 4.358 1.956 2.792 2.978 6.169 3.198 9.552.233 3.736-.501 7.615-2.34 10.896-1.238 2.212-3.006 4.166-5.259 5.37-1.833.99-3.963 1.393-6.026 1.078-2.007-.293-3.871-1.252-5.39-2.582-2.062-1.798-3.525-4.255-4.402-6.83-1.226-3.639-1.382-7.637-.502-11.37.684-2.91 2.08-5.772 4.189-7.917 1.673-1.7 3.79-2.935 6.174-3.275m53.772.171c2.034.487 3.877 1.653 5.322 3.147 2.125 2.173 3.521 5.092 4.188 8.036.861 3.784.658 7.84-.642 11.5-.939 2.614-2.49 5.086-4.664 6.844-1.73 1.4-3.828 2.295-6.07 2.374-1.835.075-3.657-.409-5.245-1.32-2.056-1.171-3.688-2.97-4.87-5.002-1.821-3.137-2.626-6.887-2.492-10.495.11-3.618 1.19-7.339 3.31-10.299 1.325-1.85 3.084-3.408 5.195-4.294a9.58 9.58 0 0 1 5.968-.49"/><path fill="#ffc100" d="M13.62 34.844c.412.074.654.496.65.891-.032.276-.22.546-.37.776-1.181 1.668-2.018 3.678-2.817 5.557-.193.467-.308.997-.57 1.43-.286.42-.898.443-1.235.073-.361-.39-.394-1.088-.419-1.591-.07-1.636.486-3.239 1.475-4.535a12.4 12.4 0 0 1 2.1-2.146c.331-.25.75-.531 1.187-.455m100.822-.014c.518-.007 1.025.433 1.404.749 1.093.967 2.165 2.163 2.716 3.532a6.86 6.86 0 0 1 .455 3.58c-.069.402-.188.835-.571 1.048a.79.79 0 0 1-1.068-.316c-.278-.545-.415-1.154-.667-1.712-.683-1.556-1.323-3.086-2.222-4.523-.234-.382-.526-.74-.727-1.14-.274-.488.1-1.216.68-1.218"/><path fill="#ffd879" d="M12.819 36.98c-.059.37-.363.71-.531 1.045-.646 1.155-1.091 2.358-1.512 3.607-.096.236-.185.582-.432.701-.289.155-.65-.016-.742-.325-.272-.924.05-1.905.408-2.76.417-1.01 1.23-1.88 2.02-2.615.299-.27.774-.05.789.346m102.762-.465c.214-.023.386.167.531.297.704.726 1.367 1.406 1.776 2.349.377.87.728 1.904.448 2.847-.092.309-.453.48-.742.325-.247-.119-.336-.465-.433-.7-.421-1.25-.864-2.453-1.511-3.608-.166-.303-.382-.595-.511-.916a.475.475 0 0 1 .442-.594"/><path fill="#c07700" d="M4.014 46.505c.627.237 1.257.477 1.894.684 1.43.449 2.87.735 4.276 1.267-.125.45-.249.901-.364 1.353-.612-.53-1.337-.798-2.091-1.068-.627-.203-1.406-.387-2.054-.205-.554.155-.846.682-1.073 1.169-.367.853-.589 1.779-.81 2.68-.461 1.904-.647 3.781-.877 5.722-.149 1.239-.35 2.522-.204 3.77.056.399.144.886.487 1.143.437.322.994.324 1.51.27a8.7 8.7 0 0 0 2.404-.707c.31-.14.632-.242.959-.332-.022.63-.019 1.263-.021 1.894-1.017.008-2.035-.005-3.052.015-1.155.02-2.296.144-3.451.087a60.8 60.8 0 0 1 2.357-17.356zm119.739.069a61 61 0 0 1 2.616 17.67c-.728.038-1.454.007-2.18-.037-1.451-.083-2.879-.05-4.329-.062.009-.815-.019-1.63-.034-2.444q.03.263.068.522c1.283.479 2.378 1.064 3.798 1.094.462.005 1.031-.134 1.282-.561.212-.374.26-.859.289-1.281.079-1.347-.189-2.779-.329-4.13-.273-2.463-.618-4.838-1.42-7.196-.18-.49-.429-1.067-.841-1.404-.441-.344-1.068-.314-1.589-.229-.764.137-1.506.436-2.202.774-.311.173-.638.3-.757.668a52 52 0 0 0-.392-1.495c1.289-.488 2.612-.771 3.929-1.162.702-.202 1.401-.478 2.091-.727"/><path fill="#fca200" d="M5.675 48.536c.648-.182 1.427.002 2.054.205.754.27 1.479.537 2.091 1.068a55.7 55.7 0 0 0-1.749 12.442c-.327.09-.65.192-.96.332a8.7 8.7 0 0 1-2.403.707c-.516.054-1.073.052-1.51-.27-.343-.257-.43-.744-.487-1.143-.146-1.248.055-2.531.204-3.77.23-1.94.416-3.818.877-5.723.221-.9.443-1.826.81-2.68.227-.486.52-1.013 1.073-1.168m115.409-.02c.521-.085 1.148-.115 1.589.229.412.337.661.915.841 1.404.802 2.358 1.147 4.733 1.42 7.197.14 1.35.408 2.782.329 4.129-.029.422-.077.907-.289 1.28-.251.428-.82.567-1.282.562-1.42-.03-2.515-.615-3.798-1.094q-.038-.26-.068-.522c-.154-3.956-.706-7.91-1.701-11.743.119-.368.446-.495.757-.668.696-.338 1.438-.637 2.202-.774"/><path fill="#ffc100" d="M7.621 50.434a.77.77 0 0 1 .776.786c-.031.54-.214 1.078-.317 1.61-.45 2.23-.75 4.485-.781 6.762-.023.476.02.996-.107 1.456-.215.536-.969.578-1.349.202-.252-.264-.376-.678-.486-1.02-.282-.98-.563-1.988-.62-3.008a12.4 12.4 0 0 1 .417-3.974c.262-.951.863-1.64 1.543-2.323.262-.242.548-.486.924-.49m112.695 0c.35.006.611.209.86.431.737.718 1.379 1.463 1.637 2.486.483 1.887.583 3.909.063 5.8-.184.647-.316 1.382-.668 1.962-.309.522-1.227.526-1.462-.065-.135-.5-.084-1.062-.11-1.578-.038-2.238-.338-4.45-.778-6.64-.104-.532-.287-1.07-.318-1.61a.77.77 0 0 1 .776-.786"/><path fill="#ffd879" d="M6.995 52.228c.285.005.458.243.475.51-.004.3-.121.6-.175.895-.34 1.839-.486 3.72-.488 5.59-.009.228-.025.435-.233.577-.325.206-.704-.007-.788-.363-.312-1.115-.405-2.309-.386-3.464-.005-1.077.26-2.218.826-3.141.18-.245.417-.639.77-.604m114.317.125c.309.285.538.664.701 1.047.255.63.456 1.267.495 1.95.088 1.331.002 2.697-.328 3.994-.069.267-.191.49-.489.533-.337.035-.557-.231-.554-.551-.01-1.901-.145-3.822-.495-5.693-.055-.364-.288-.829-.096-1.171.153-.273.543-.307.766-.109"/><path fill="#eba500" d="m9.156 61.529.144.34c.112.362.138.725.183 1.098.54 4.132 1.432 8.192 2.557 12.203.995 3.668 2.365 7.228 4.156 10.584a68 68 0 0 0 6.693 10.05c3.2 3.942 7.304 7.238 11.65 9.838 3.575 2.159 7.31 4.146 11.21 5.657 2.349.922 4.883 1.554 7.328 2.177a44.8 44.8 0 0 0 10.642 1.484c2.22.001 4.431-.19 6.623-.539 2.224-.311 4.341-.903 6.512-1.455 1.698-.451 3.422-.933 5.062-1.563 3.172-1.199 6.251-2.754 9.202-4.419 2.36-1.356 4.748-2.797 6.904-4.46 2.878-2.194 5.492-4.678 7.691-7.56 3.335-4.336 6.365-9.146 8.355-14.256 1.019-2.546 1.748-5.149 2.436-7.799.893-3.483 1.594-6.993 2.027-10.565.039-.283.137-.547.231-.815.378 8.453-1.299 17.014-4.769 24.729a54.83 54.83 0 0 1-26.692 27.155 54.9 54.9 0 0 1-22.832 5.216 54.8 54.8 0 0 1-17.398-2.664 54.7 54.7 0 0 1-20.589-12.136 54.3 54.3 0 0 1-7.386-8.483A54.96 54.96 0 0 1 9.652 71.56c-.465-3.313-.671-6.688-.496-10.031"/><path fill="#c07700" d="M4.998 65.202c1.024-.009 2.049-.022 3.073-.004.01.496.025.99.058 1.486-1.132-.668-2.43-.742-3.702-.529-.581.12-1.135.418-1.375.989-.285.7-.24 1.579-.207 2.322.164 2.494.692 4.981 1.224 7.419.173.66.355 1.637 1.009 1.991.71.343 1.659.213 2.36-.1.888-.384 1.471-1.019 2.255-1.551.143.592.303 1.18.463 1.767-.968.34-1.945.66-2.936.929-1.084.296-2.187.453-3.262.786a61 61 0 0 1-2.395-15.414c1.15.044 2.286-.055 3.435-.091m114.851-.013c.781.004 1.562-.005 2.341.007 1.396-.013 2.777.152 4.173.098a61.2 61.2 0 0 1-2.261 15.453c-1.143-.371-2.316-.526-3.472-.85a40 40 0 0 1-2.871-.918c.17-.615.336-1.227.478-1.848.48.489 1.053.906 1.615 1.294.827.537 1.859.838 2.826.533.503-.178.745-.621.915-1.096.25-.742.397-1.524.562-2.29.443-2.208.879-4.344.959-6.606.01-.616.003-1.343-.269-1.909-.259-.518-.788-.788-1.334-.902a6.7 6.7 0 0 0-2.279-.012c-.526.086-.967.318-1.447.536.024-.496.051-.992.064-1.49"/><path fill="#cec9ff" d="M23.99 65.964c.637-.149 1.353-.005 1.967.181 1.496.474 2.78 1.245 4.16 1.94 2.922 1.466 6.21 2.008 9.459 1.848 2.24-.028 4.391-.754 6.46-1.55.907-.419 1.904-1.028 2.943-1.01a1.565 1.565 0 0 1 1.51 1.22c.233 1.007-.134 2.059-.54 2.973-.905 1.954-2.267 3.826-4.025 5.095a13.4 13.4 0 0 1-5.315 2.27c-1.764.333-3.583.434-5.376.386a13.6 13.6 0 0 1-4.468-.899c-2.198-.85-4.127-2.3-5.611-4.126-.622-.77-1.122-1.671-1.562-2.556a10.1 10.1 0 0 1-.995-3.267c-.052-.44-.062-.926.078-1.35.196-.588.717-1.024 1.316-1.155m78.269.08c.79-.192 1.663-.26 2.345.269.522.4.708 1.014.689 1.653-.089 1.899-.832 3.564-1.792 5.172-.596 1.008-1.363 1.864-2.219 2.657a13.23 13.23 0 0 1-6.733 3.325c-2.018.337-4.13.231-6.155-.005-2.547-.303-4.983-1.236-6.984-2.857-1.515-1.255-2.701-2.944-3.52-4.723-.397-.906-.755-1.947-.524-2.941.155-.642.683-1.143 1.348-1.208.947-.101 1.925.442 2.765.812 1.293.536 2.615 1.053 3.973 1.398 1.154.244 2.326.346 3.505.354 3.08.082 6.264-.55 9.005-1.98 1.358-.694 2.815-1.542 4.297-1.926"/><path fill="#fca200" d="M4.427 66.155c1.271-.213 2.57-.139 3.702.529.178 3.55.707 7.09 1.564 10.54-.784.533-1.367 1.168-2.255 1.551-.701.314-1.65.444-2.36.101-.654-.354-.836-1.331-1.009-1.991-.532-2.438-1.06-4.925-1.224-7.419-.034-.743-.078-1.622.207-2.322.24-.572.794-.869 1.375-.989m116.805-.012a6.7 6.7 0 0 1 2.279.012c.546.114 1.075.384 1.334.902.272.566.279 1.293.269 1.91-.08 2.26-.516 4.397-.959 6.605-.165.766-.312 1.548-.562 2.29-.17.475-.412.918-.915 1.096-.967.305-1.999.004-2.826-.532-.562-.39-1.135-.806-1.615-1.295a55 55 0 0 0 1.548-10.452c.48-.218.921-.45 1.447-.536"/><path fill="#ffc100" d="M6.378 67.457c.32.202.401.547.446.898.076.741.074 1.49.139 2.232.142 1.796.497 3.562.99 5.293.088.344.214.728.185 1.085-.12.42-.544.848-1.018.763-.302-.046-.482-.25-.654-.482-1.355-2.011-1.932-4.34-2.03-6.74-.03-.963.217-2.022.805-2.8.269-.349.747-.479 1.137-.249m115.446-.101c.42-.076.759.154.98.492.514.795.722 1.72.695 2.66-.094 2.401-.672 4.728-2.027 6.738-.173.231-.353.437-.654.482-.475.084-.898-.342-1.019-.763-.029-.356.097-.74.186-1.083.49-1.733.848-3.497.99-5.295.075-.802.052-1.62.167-2.418.063-.388.272-.736.682-.813"/><path fill="#ffd879" d="M6.326 69.128c.063.607-.028 1.226.027 1.839.158 1.571.516 3.14.976 4.65.076.325.022.648-.326.772-.401.086-.587-.25-.774-.533-.48-.836-.763-1.802-1.03-2.724-.269-1.018-.555-2.155-.258-3.197.109-.369.253-.839.556-1.095.3-.226.74-.084.829.287m116.239-.164c.535.764.652 1.846.49 2.747-.178 1.065-.495 2.11-.867 3.122-.201.493-.424 1.064-.804 1.444-.289.273-.774.067-.799-.323-.022-.462.234-.936.33-1.387.285-1.183.563-2.387.669-3.6.055-.613-.036-1.232.028-1.84.114-.452.684-.528.953-.163"/><path fill="#c07700" d="M10.467 80.011c.147.532.322 1.056.494 1.58-1.196.102-2.304.15-3.42.664-.442.216-.798.56-.852 1.073-.086.842.235 1.77.5 2.563.583 1.63 1.218 3.378 2.156 4.838.299.45.716 1.009 1.269 1.141.59.118 1.255-.092 1.745-.427.805-.546 1.312-1.26 1.955-1.962.265.521.544 1.034.826 1.544-1.889.981-3.668 2.094-5.69 2.802-2.15-3.847-3.905-7.898-5.19-12.112.995-.311 2.01-.462 3.018-.723 1.082-.273 2.129-.64 3.19-.981m106.997-.019q1.424.511 2.881.917c1.149.32 2.321.48 3.46.845a60.8 60.8 0 0 1-5.126 12.171c-.802-.36-1.628-.64-2.41-1.047-1.186-.58-2.31-1.274-3.495-1.857a59 59 0 0 0 .829-1.545c.754.779 1.367 1.708 2.378 2.195.542.242 1.28.377 1.789-.01.538-.396.917-1.061 1.241-1.635.744-1.36 1.289-2.862 1.803-4.323.24-.737.517-1.595.435-2.375-.06-.552-.46-.898-.937-1.114-1.079-.462-2.214-.558-3.37-.601a58 58 0 0 0 .522-1.62"/><path fill="#fca200" d="M10.96 81.591a55.6 55.6 0 0 0 3.354 7.89c-.643.703-1.15 1.416-1.955 1.962-.49.335-1.155.545-1.745.427-.553-.132-.97-.69-1.269-1.14-.938-1.461-1.573-3.209-2.156-4.84-.265-.792-.586-1.72-.5-2.562.054-.512.41-.857.852-1.073 1.116-.515 2.224-.562 3.42-.664m105.982.022c1.156.043 2.291.14 3.37.6.477.217.877.563.937 1.115.082.78-.195 1.638-.435 2.375-.514 1.46-1.059 2.962-1.803 4.323-.324.574-.703 1.24-1.241 1.636-.509.386-1.247.25-1.789.01-1.011-.488-1.624-1.417-2.378-2.196a55.4 55.4 0 0 0 3.339-7.863"/><path fill="#ffcd1a" d="M19.867 82.617c.583-.041 1.08.222 1.541.549.92.667 1.673 1.608 2.4 2.475.941 1.12 1.864 2.316 2.96 3.284.64.58 1.37 1.039 2.014 1.61.911.8 1.55 1.957 1.688 3.166.093.753-.087 1.657-.77 2.094-.732.397-1.695.382-2.436.011-.687-.336-1.307-.869-1.865-1.387-.919-.871-1.798-1.797-2.579-2.794-1.003-1.264-1.844-2.692-2.671-4.078-.565-.934-.93-1.947-1.27-2.98-.117-.377-.192-.795-.076-1.183.145-.45.601-.746 1.063-.767m87.753.026c.62-.124 1.295.108 1.515.741.203.681-.186 1.472-.401 2.114-.483 1.447-1.29 2.62-2.079 3.916a23 23 0 0 1-3.173 4.073c-.731.745-1.517 1.538-2.402 2.096-.531.335-1.121.543-1.756.5-.541-.032-1.148-.179-1.475-.65-.461-.634-.463-1.404-.318-2.146a5.15 5.15 0 0 1 1.432-2.57c.657-.64 1.448-1.116 2.14-1.733 1.653-1.447 2.958-3.432 4.49-5.006.549-.539 1.255-1.172 2.027-1.335"/><path fill="#ffc100" d="M10.311 83.142c.274.427.366.98.55 1.453.507 1.397 1.26 2.731 1.945 4.048.176.336.24.69.035 1.032-.287.492-.915.606-1.394.326-.888-.51-1.594-1.408-2.067-2.304-.483-.898-.835-1.825-.76-2.865.047-.552.15-1.188.468-1.654.285-.41.92-.437 1.223-.036m108.417-.096c.274.25.397.684.48 1.034.204.877.144 1.75-.177 2.589-.489 1.253-1.246 2.485-2.385 3.242-.358.233-.765.336-1.162.131a.95.95 0 0 1-.393-1.312c.683-1.34 1.474-2.717 1.986-4.136.17-.453.271-.956.502-1.38.229-.404.812-.477 1.149-.168"/><path fill="#ffd879" d="M10.111 84.226c.143.296.176.645.289.955.341.983 1.028 1.924 1.548 2.823.137.26.284.503.142.798-.156.327-.574.343-.85.162-.656-.44-1.141-1.19-1.494-1.884-.43-.842-.568-1.792-.47-2.727.12-.359.61-.426.835-.127m108.549.127c.198 1.598-.45 3.134-1.547 4.275-.246.229-.54.51-.908.442-.382-.063-.51-.502-.341-.82.502-.981 1.29-1.957 1.674-3.07.112-.309.146-.658.289-.954.224-.3.716-.232.833.127"/><path fill="#ffda6a" d="M20.91 84.64c.532.01.988.3 1.312.708.592.746 1.08 1.57 1.713 2.29a17 17 0 0 0 2.395 2.226c.788.608 1.64 1.218 2.172 2.079.371.597.614 1.395.433 2.092-.114.445-.48.79-.942.839-.496.047-.921-.213-1.295-.506-.838-.69-1.5-1.48-2.186-2.31-1.358-1.623-2.619-3.353-3.702-5.173-.243-.408-.569-.87-.642-1.347-.055-.454.277-.88.742-.898m86.118 0c.465.019.798.444.742.9-.074.474-.4.937-.643 1.345a39 39 0 0 1-3.588 5.034c-.724.877-1.473 1.792-2.371 2.505-.39.295-.84.536-1.346.43-.447-.1-.759-.472-.841-.915-.161-.826.204-1.722.712-2.365.727-.93 1.851-1.595 2.744-2.383a19 19 0 0 0 1.566-1.553c.634-.72 1.121-1.544 1.713-2.29.323-.408.781-.698 1.312-.708"/><path d="M85.9 90.35c.208.927.458 1.919.904 2.762.416.776 1.014 1.38 1.655 1.972.281.225.284.653-.023.857-.207.139-.41.084-.615-.018-.615-.574-1.212-1.151-1.672-1.864-.215.1-.413.204-.57.387-.568.614-1.145 1.244-1.493 2.012-.508 1.103-.443 2.523-1.061 3.557-.517.859-1.389 1.286-2.32 1.549-1.046.292-2.42.616-3.135 1.497-.563.641-.25 1.718-.365 2.517-.054.959-.547 1.774-1.307 2.344-1.568 1.1-3.93 1.295-5.522.137-1.182-.986-1.55-2.378-1.818-3.831-.126-.652-.118-1.462-.454-2.039-.347-.6-1.02-.98-1.643-1.235-.237-.091-.49-.219-.744-.24-5.566.141-11.045-.948-16.251-2.88a94 94 0 0 1-6.41-2.832q-.6-.288-1.17-.63c-.491.765-1.105 1.485-1.83 2.035-.185.147-.363.111-.576.07-.278-.232-.39-.587-.09-.857.713-.601 1.34-1.276 1.771-2.11.404-.791.68-1.654.855-2.524.052-.235.101-.444.346-.548.343-.158.763.134.717.514-.116.844-.405 1.688-.712 2.481.576.368 1.19.649 1.805.941 1.86.885 3.745 1.72 5.66 2.475 4.625 1.716 9.444 2.756 14.387 2.829 2.47.03 4.92-.298 7.345-.745a33 33 0 0 0 4.583-1.17c3.297-1.11 6.494-2.89 9.495-4.637-.306-.74-.537-1.51-.706-2.292-.044-.252-.117-.488.076-.7.269-.298.8-.187.889.217"/><path fill="#c07700" d="M15.677 91.954c.261.46.536.913.816 1.362a5.7 5.7 0 0 0-3.108.906c-.544.377-.971.911-.944 1.607.034.714.399 1.444.74 2.062.591 1.033 1.348 1.983 2.083 2.917.77.955 1.567 1.942 2.476 2.768.274.23.632.522 1 .551.49-.032.957-.429 1.284-.768.823-.872 1.142-1.88 1.784-2.859q.694.795 1.414 1.566a31 31 0 0 0-2.293 2.072c-.709.754-1.605 1.302-2.394 1.985A61.7 61.7 0 0 1 9.99 94.755c.713-.305 1.437-.567 2.126-.928 1.21-.579 2.342-1.314 3.56-1.873m96.58-.003c1.162.529 2.246 1.236 3.397 1.792.806.433 1.663.737 2.5 1.1a61 61 0 0 1-8.545 11.454c-.736-.648-1.561-1.19-2.287-1.848a33 33 0 0 0-2.618-2.393c.472-.518.948-1.033 1.407-1.564.664.963.971 1.998 1.803 2.867.327.339.794.736 1.284.768.394-.033.776-.358 1.065-.61.987-.919 1.849-2.005 2.689-3.059.847-1.095 1.779-2.285 2.294-3.575.224-.581.386-1.227.085-1.814-.382-.746-1.203-1.144-1.954-1.422-.628-.246-1.285-.311-1.955-.333.288-.447.539-.92.835-1.363"/><path fill="#fca200" d="M16.493 93.316a55 55 0 0 0 5.315 7.184c-.642.979-.96 1.987-1.784 2.859-.327.339-.795.736-1.284.768-.368-.029-.726-.321-1-.551-.91-.826-1.706-1.813-2.476-2.768-.735-.934-1.492-1.884-2.083-2.917-.341-.618-.706-1.349-.74-2.062-.027-.696.4-1.23.944-1.607a5.7 5.7 0 0 1 3.108-.906m94.929-.002c.67.022 1.327.087 1.955.333.751.278 1.572.676 1.954 1.422.301.587.139 1.233-.085 1.814-.515 1.29-1.447 2.48-2.294 3.575-.84 1.054-1.702 2.14-2.689 3.059-.289.252-.671.577-1.065.61-.49-.032-.957-.429-1.284-.768-.832-.869-1.139-1.904-1.803-2.867a56 56 0 0 0 5.311-7.178"/><path fill="#eba500" d="M86.15 94.06c.459.712 1.056 1.289 1.67 1.863-.41.068-.854.115-1.241.275-.466.246-.835.71-1.082 1.167-.372.694-.606 1.456-.966 2.16a6.56 6.56 0 0 1-2.866 2.879c-.728.385-1.52.622-2.238 1.015-.424.232-.797.529-1.045.952-.444.749-.414 1.653-.846 2.4-.224.382-.529.73-.887.989-.203.158-.505.131-.751.162.76-.57 1.253-1.385 1.307-2.344.115-.799-.198-1.876.365-2.517.714-.881 2.089-1.205 3.134-1.497.932-.263 1.805-.69 2.32-1.549.619-1.034.554-2.454 1.062-3.557.348-.768.925-1.398 1.492-2.012.158-.183.356-.287.571-.387m-44.264.312q.57.342 1.17.63a94 94 0 0 0 6.41 2.832c5.206 1.932 10.685 3.021 16.25 2.88.256.021.508.149.745.24.624.255 1.296.635 1.643 1.235.336.577.328 1.387.454 2.039.267 1.453.636 2.845 1.818 3.831-.982-.165-1.82-.686-2.542-1.353-.74-.712-1.04-1.623-1.645-2.478-.457-.648-.972-1.221-1.724-1.525-.991-.396-2.113-.546-3.165-.697-1.236-.167-2.475-.323-3.704-.528-1.69-.285-3.379-.758-5.02-1.249-1.4-.419-2.728-.989-4.07-1.554-1.412-.577-2.755-1.286-4.188-1.815-.84-.318-1.687-.52-2.593-.397-.551.06-1.07.3-1.618.349-.236.029-.454-.2-.627-.335.213.041.39.077.576-.07.725-.55 1.339-1.27 1.83-2.035"/><path fill="#ffc100" d="M16.253 95.189c.359.446.593.988.921 1.458.489.733 1.1 1.401 1.698 2.049.332.363.736.708 1 1.124.248.407.2 1.016-.23 1.283-.348.218-.852.136-1.231.048-1.374-.366-2.635-1.296-3.306-2.562-.443-.832-.508-1.793-.433-2.717.046-.357.12-.713.444-.92.385-.24.862-.1 1.137.237m96.641-.185c.285.223.349.623.382.963.054.87-.006 1.748-.401 2.54-.635 1.258-1.828 2.176-3.163 2.592-.404.117-.943.229-1.338.046-.495-.238-.574-.886-.31-1.325.266-.416.669-.76 1.001-1.124.598-.648 1.21-1.316 1.698-2.05.347-.49.584-1.076.981-1.521.296-.319.799-.404 1.15-.121"/><path fill="#4395b4" d="M83.323 95.637c-.457.803-.606 1.67-.783 2.561-.149.657-.271 1.31-.83 1.752-.693.565-1.791.687-2.625.992-1.05.364-2.143.93-2.656 1.972-.474.964-.088 2.046-.346 3.032-.168.633-.665 1.098-1.232 1.389a4.3 4.3 0 0 1-2.39.432c-.75-.086-1.454-.413-1.91-1.03-.569-.768-.805-1.832-.972-2.756.693.026 1.318.328 2.011.364a4.38 4.38 0 0 0 3.38-1.135c.71-.629.994-1.444 1.628-2.126a5 5 0 0 1 1.43-1.067c.525-.274 1.038-.48 1.444-.931.451-.488.624-1.236.779-1.866a54 54 0 0 0 3.072-1.583"/><path fill="#ffd879" d="M16.166 96.149c.393.528.693 1.12 1.124 1.626.521.652 1.166 1.163 1.757 1.742.338.397-.065.941-.544.799-.738-.256-1.416-.74-2.002-1.25-.75-.657-1.34-1.7-1.228-2.72.078-.43.64-.528.893-.197m96.499.197c.087.746-.235 1.552-.686 2.137-.612.764-1.467 1.365-2.355 1.766-.334.171-.727.092-.847-.292-.066-.362.197-.528.425-.747a12 12 0 0 0 1.445-1.435c.431-.506.733-1.096 1.124-1.626.254-.33.816-.233.894.197"/><path fill="#92d4ef" d="M80.25 97.22c-.154.63-.327 1.378-.778 1.866-.406.451-.92.657-1.444.931a5 5 0 0 0-1.43 1.067c-.634.682-.919 1.497-1.627 2.126a4.38 4.38 0 0 1-3.381 1.135c-.693-.036-1.318-.338-2.011-.364-.108-.622-.133-1.325-.368-1.907-.256-.649-.727-1.165-1.305-1.543a49 49 0 0 0 5.336-.872 32.2 32.2 0 0 0 7.009-2.439"/><path fill="#c6efff" d="M72.392 100.885c.539-.06 1.12-.07 1.467.421.334.509.075 1.087-.306 1.481-.654.71-1.752.841-2.596.423-.611-.296-.85-1.335-.24-1.752.487-.326 1.102-.486 1.675-.573"/><path fill="#c07700" d="M23.95 102.834c.67.66 1.333 1.327 2.025 1.964-1.078.282-2.132.78-2.848 1.661-.41.518-.44 1.192-.187 1.791.467 1.085 1.21 1.998 2.13 2.736 1.233 1.02 2.54 2.05 3.968 2.782.455.222 1.071.487 1.577.338.64-.215.977-.905 1.148-1.512.291-.907.221-1.839.602-2.698.63.43 1.264.854 1.914 1.249a38 38 0 0 1-1.181 1.916c-.689 1.082-1.5 2.076-2.2 3.151a62.8 62.8 0 0 1-11.634-9.328c.785-.675 1.643-1.204 2.343-1.942q1.11-1.124 2.343-2.108m80.023-.013q1.207.963 2.295 2.057c.777.828 1.75 1.419 2.609 2.176a61.7 61.7 0 0 1-11.717 9.367c-.696-1.141-1.553-2.162-2.271-3.286a40 40 0 0 1-1.238-2.003c.65-.392 1.283-.819 1.911-1.246.405.879.32 1.878.641 2.806.181.603.568 1.311 1.242 1.444.567.081 1.208-.237 1.702-.495 1.409-.773 2.697-1.795 3.923-2.827.742-.611 1.328-1.375 1.774-2.223.239-.478.406-.989.266-1.525-.128-.536-.578-.953-1.001-1.279-.645-.496-1.387-.785-2.165-.996.695-.637 1.356-1.309 2.029-1.97"/><path fill="#fca200" d="M25.975 104.798a56 56 0 0 0 6.39 5.098c-.38.859-.31 1.791-.602 2.698-.17.607-.508 1.297-1.148 1.512-.506.149-1.122-.116-1.577-.338-1.428-.732-2.735-1.762-3.968-2.782-.92-.738-1.663-1.651-2.13-2.736-.252-.599-.222-1.273.187-1.791.716-.881 1.77-1.379 2.848-1.661m75.969-.007c.778.211 1.52.5 2.165.996.423.326.873.743 1.001 1.279.14.536-.027 1.047-.266 1.525-.446.848-1.032 1.612-1.774 2.223-1.226 1.032-2.514 2.054-3.923 2.827-.494.258-1.135.576-1.702.495-.674-.133-1.06-.841-1.242-1.444-.32-.928-.236-1.927-.64-2.806a56 56 0 0 0 6.381-5.095"/><path fill="#ffc100" d="M25.78 106.518c.526.111.927.724 1.328 1.058.713.646 1.474 1.192 2.266 1.731.324.23.709.485.925.825a.855.855 0 0 1-.085 1.043c-.342.364-.837.39-1.304.336-1.222-.171-2.36-.913-3.131-1.858-.498-.603-.981-1.405-1-2.204-.01-.537.441-1.038 1-.931m77.374 1.036c-.08.934-.714 1.836-1.351 2.495-.821.829-2.034 1.505-3.223 1.481-.512-.014-1.023-.304-1.078-.853-.035-.532.385-.872.767-1.16.881-.619 1.763-1.211 2.561-1.941.401-.334.802-.948 1.327-1.058.608-.111 1.06.463.997 1.036"/><path fill="#ffd879" d="M26.192 107.495c.275.167.507.411.757.613a30 30 0 0 0 2.064 1.56c.23.18.494.31.46.649-.035.392-.39.515-.74.452-1.27-.255-2.423-.985-3.065-2.129-.125-.24-.282-.55-.24-.824a.516.516 0 0 1 .764-.321m75.647-.043a.508.508 0 0 1 .659.624c-.431 1.424-1.877 2.424-3.294 2.693-.349.063-.705-.06-.74-.452-.033-.339.23-.469.46-.649a30 30 0 0 0 2.064-1.56c.275-.216.532-.51.851-.656"/><path fill="#c07700" d="M35.175 111.713c.689.381 1.358.795 2.054 1.163-.868.515-1.849 1.29-2.156 2.291-.355.999.101 2.263 1.044 2.764 1.124.643 2.362 1.174 3.541 1.71 1.488.693 3.022 1.268 4.577 1.796.864.288 1.896.58 2.81.417.795-.15 1.233-1.04 1.233-1.786.053-.955-.431-1.784-.297-2.719q1.29.382 2.598.706c-.453 1.949-1.17 3.85-1.767 5.761a63 63 0 0 1-17.012-7.054c.454-.706.959-1.375 1.45-2.054.685-.969 1.31-1.986 1.925-2.995m57.581-.022c.482.825.998 1.63 1.525 2.427.642.965 1.376 1.85 1.979 2.845-5.302 3.161-11.1 5.509-17.092 6.979-.613-1.954-1.342-3.898-1.812-5.891a61 61 0 0 0 2.637-.723c.055.95-.367 1.793-.333 2.74.006.618.273 1.272.803 1.62.359.225.844.225 1.25.203.95-.063 1.931-.432 2.826-.744 1.21-.43 2.405-.89 3.57-1.43 1.236-.565 2.533-1.111 3.711-1.786.944-.501 1.4-1.767 1.045-2.764-.322-1.029-1.285-1.755-2.162-2.303a55 55 0 0 0 2.053-1.173"/><path fill="#fca200" d="M37.23 112.876a56 56 0 0 0 10.752 4.473c-.135.935.35 1.764.296 2.719 0 .746-.438 1.636-1.233 1.786-.914.163-1.946-.129-2.81-.417-1.555-.528-3.089-1.103-4.577-1.796-1.18-.536-2.417-1.067-3.54-1.71-.944-.501-1.4-1.765-1.045-2.764.307-1.001 1.288-1.776 2.156-2.291m53.473-.012c.877.548 1.84 1.274 2.162 2.303.355.997-.102 2.263-1.045 2.764-1.178.675-2.475 1.221-3.712 1.786-1.164.54-2.36 1-3.57 1.43-.894.312-1.875.681-2.824.744-.407.022-.892.022-1.25-.203-.53-.348-.798-1.002-.804-1.62-.034-.947.388-1.79.333-2.74a55.5 55.5 0 0 0 10.71-4.464"/><path fill="#ffc100" d="M38.611 115.2c.754-.224 1.307.245 1.966.518 1.01.445 2.02.857 3.082 1.165.617.198 1.416.394 1.88.872a1.136 1.136 0 0 1-.014 1.609c-.608.59-1.613.65-2.406.537-1.314-.208-2.58-.787-3.65-1.57-.59-.444-1.234-1.061-1.464-1.782-.174-.539.011-1.193.606-1.349m50.092-.045c.451-.044.95.045 1.176.487.264.529.037 1.117-.28 1.566-.669.935-1.756 1.616-2.785 2.088-.976.432-2.144.776-3.215.609-.533-.084-1.133-.33-1.4-.829-.249-.462-.124-1.036.26-1.383.452-.41 1.153-.599 1.725-.78 1.09-.315 2.14-.738 3.177-1.195.436-.187.876-.468 1.342-.563"/><path fill="#ffd879" d="M39.963 116.211c.497.184.953.474 1.442.683.82.368 1.68.592 2.542.832.35.106.72.281.667.713-.076.428-.524.543-.893.593-1.592.17-3.16-.574-4.235-1.719-.175-.206-.412-.457-.32-.751.081-.35.496-.445.797-.351m48.013 0c.3-.094.714.001.796.351.083.275-.102.486-.262.685-1.018 1.127-2.516 1.878-4.055 1.803-.349-.018-.863-.084-1.06-.413-.214-.382.04-.726.413-.847.914-.29 1.845-.491 2.725-.896.488-.209.944-.499 1.443-.683"/><path fill="#c07700" d="M51.61 118.311c.527.085 1.044.225 1.57.321-.72.751-1.165 1.764-1.175 2.809.007.678.21 1.393.798 1.794.574.392 1.297.604 1.962.782 1.417.351 2.88.537 4.331.688.78.088 1.664-.001 2.347-.417.53-.299.723-1.045.542-1.596-.256-.794-.72-1.562-1.082-2.309-.125-.254-.164-.521-.218-.797a82 82 0 0 0 2.755.089c.159 2.029-.065 4.033.013 6.058a63.3 63.3 0 0 1-13.61-1.662c.59-1.926 1.292-3.8 1.767-5.76m24.723-.019c.454 1.975 1.205 3.941 1.8 5.892a63 63 0 0 1-13.623 1.552c-.084-2.021.113-4.038-.013-6.061a76 76 0 0 0 2.779-.093c-.222 1.179-1.13 2.162-1.382 3.353-.047.519.129 1.078.601 1.353.79.471 1.708.505 2.599.392 1.646-.192 3.362-.393 4.94-.92.697-.253 1.423-.547 1.708-1.295.508-1.294-.06-2.871-.984-3.84a66 66 0 0 0 1.575-.333"/><path fill="#fca200" d="M53.18 118.632a58 58 0 0 0 7.505.954c.054.276.093.543.218.797.362.747.826 1.515 1.082 2.309.18.551-.013 1.297-.542 1.596-.683.416-1.567.505-2.347.417-1.45-.151-2.913-.337-4.331-.688-.665-.178-1.389-.39-1.962-.782-.588-.401-.79-1.116-.798-1.794.01-1.045.454-2.058 1.175-2.809m21.579-.007c.923.969 1.491 2.546.983 3.84-.285.748-1.011 1.042-1.708 1.295-1.578.527-3.294.728-4.94.92-.891.112-1.81.079-2.599-.392-.472-.275-.648-.834-.601-1.353.251-1.191 1.16-2.174 1.382-3.353a57 57 0 0 0 7.483-.957"/><path fill="#ffc100" d="M54.136 120.368c.677-.068 1.41.158 2.088.233.83.113 1.662.125 2.496.176.336.037.733.045.98.31.336.342.328.876.038 1.243-.516.676-1.45.932-2.264.958-1.183.035-2.507-.255-3.41-1.063-.293-.263-.63-.616-.636-1.034a.82.82 0 0 1 .708-.823m19.758.019c.545.139.773.753.496 1.234-.456.742-1.337 1.245-2.162 1.464-.843.222-1.77.289-2.624.087-.554-.134-1.132-.43-1.456-.915-.242-.36-.221-.857.09-1.17.246-.265.645-.273.978-.31.836-.051 1.667-.063 2.498-.176.698-.072 1.484-.333 2.18-.214"/><path fill="#ffd879" d="M54.503 120.977c.399-.065.844.101 1.245.138.788.102 1.563.055 2.351.07.309.02.627.023.806.318.166.332-.005.65-.321.799-1.312.643-2.96.307-4.156-.442-.36-.216-.322-.742.075-.883m18.827-.019c.382.026.565.505.311.787-.31.288-.754.453-1.144.602-1.004.382-2.26.436-3.222-.09-.301-.165-.41-.547-.193-.827.207-.252.588-.233.883-.249.747-.003 1.479.028 2.224-.066.378-.043.763-.162 1.141-.157"/><circle cx="64" cy="64" r="64" fill="#708b96" transform="translate(64)"/><path fill="#fff" d="M134.144 92.16v.128h22.016v-7.936h-10.872c6.54-4.956 10.744-12.66 10.744-21.312 0-14.952-12.552-27.072-28.032-27.072S99.968 48.088 99.968 63.04c0 8.652 4.2 16.356 10.744 21.312H99.84v7.936h22.016V81.62c-8.02-2.52-13.824-9.86-13.824-18.516 0-10.744 8.94-19.456 19.968-19.456s19.968 8.712 19.968 19.456c0 8.656-5.8 15.992-13.824 18.52z"/></svg>
