<svg xmlns="http://www.w3.org/2000/svg" viewBox="0 0 1366 1366"><path d="M838.947 31.427C930 53.133 1016.44 93.84 1091.17 150.2c60.04 45.187 112.55 100.453 154.48 162.8 49.66 73.653 84.5 157.2 101.59 244.387 15.04 76.266 16.56 155.146 4.41 231.933-14.29 91.067-47.96 178.92-98.04 256.31-49.08 76.05-113.88 141.88-189.06 192.28-77.523 52.14-165.923 87.82-257.883 104.29-74.707 13.47-151.68 14.33-226.68 2.63-96.427-14.96-189.427-50.86-270.894-104.58-72.36-47.61-135.586-109.24-184.826-180.5-50-72.19-85.68-154.203-104.094-240.083-10.48-48.854-15.6-99.04-14.733-149 .613-59.24 9.573-118.44 26.013-175.347 26.334-91.08 72.56-176.24 134.4-248.093 51.987-60.494 114.827-111.52 184.667-150.04 83.587-46.24 177-74.36 272.187-82.187 72.333-6.08 145.653-.453 216.24 16.427"/><path fill="#C07700" d="M676.987 23.787c.133 6.293.16 12.586.386 18.88.427 13.733-.266 27.48.694 41.16-2.947.186-5.907.32-8.867.346.773-3.68 1.213-7.146.32-10.853-1.6-7.627-2.853-16.96-7.413-23.413-5.814-8.12-16.454-12.227-26.094-13.107-12.066-1.053-24.533.48-36.4 2.68-7.306 1.507-16.106 3.853-21.56 9.24-5.733 5.747-6.786 14.24-7.52 21.947-.84 7.96-.133 15.826.694 23.746-2.414.467-4.827.907-7.254 1.334-4.946-19.734-11.013-39.187-15.666-59.014 42.32-8.453 85.52-12.786 128.68-12.946m11.28.026c43.173.627 86.16 5.32 128.453 14.094-4.533 19.466-10.573 38.546-15.373 57.933a1397 1397 0 0 1-7.24-1.373c1.4-12.147 1.813-24.547-1.467-36.467-1.88-6.253-5.747-10.84-11.64-13.68-9.973-4.827-22.08-6.133-32.987-7.36-13.44-1.067-27.306-1.227-38.746 6.947-6.334 4.373-9.467 11-11.107 18.32-1.507 7.666-4.093 14.133-2.053 21.933-2.294-.053-4.587-.16-6.894-.293-.32-5.28-.573-10.574-.533-15.867.12-14.733-.387-29.453-.413-44.187"/><path fill="#FCA200" d="M636.013 36.8c9.64.88 20.28 4.987 26.094 13.107 4.56 6.453 5.813 15.786 7.413 23.413.893 3.707.453 7.173-.32 10.853-32.84.52-65.707 4.107-97.973 10.24-.827-7.92-1.534-15.786-.694-23.746.734-7.707 1.787-16.2 7.52-21.947 5.454-5.387 14.254-7.733 21.56-9.24 11.867-2.2 24.334-3.733 36.4-2.68m112 .16c10.907 1.227 23.014 2.533 32.987 7.36 5.893 2.84 9.76 7.427 11.64 13.68 3.28 11.92 2.867 24.32 1.467 36.467-32.267-6.16-65.147-9.734-98-10.307-2.04-7.8.546-14.267 2.053-21.933 1.64-7.32 4.773-13.947 11.107-18.32 11.44-8.174 25.306-8.014 38.746-6.947"/><path fill="#C07700" d="M537.333 39.027C541.973 58.893 548.04 78.36 553 98.133c-3.133.72-6.28 1.427-9.413 2.174-2.707-8.254-6.334-16.267-10.854-23.694-3.293-5.146-7.213-10.093-13.306-11.946-7.64-2.36-16.64-.334-24.307 1.213-13.213 2.973-26.413 6.547-39.013 11.547-7.76 3.306-16.227 7.773-21.72 14.333-4.44 5.387-4.68 12.32-3.627 18.933 1.587 8.667 4.427 17.24 8.813 24.92l-8 3.6c-9.2-18.76-20.253-36.533-28.746-55.706 42.52-19.36 88.826-34.68 134.506-44.48m290.36 1.306c46.04 10.374 91.08 25.6 133.92 45.44-8.613 18.24-18.96 35.52-27.933 53.547-2.653-1.2-5.293-2.413-7.933-3.6 4.346-7.747 7.24-16.307 8.826-25.027 1-6.2.854-12.946-3.053-18.186-4.547-5.987-11.907-10.24-18.587-13.44-13.28-5.934-27.64-9.68-41.76-12.974-8.44-1.72-18.88-4.253-27.093-.746-6.88 2.92-11.507 10.88-14.84 17.226a116 116 0 0 0-7.52 17.787c-3.133-.747-6.267-1.453-9.413-2.173 4.88-19.347 10.786-38.427 15.386-57.854"/><path fill="#FFC100" d="M627.853 49.907c6.44.28 13.387 1.426 19.16 4.44 3.987 2.053 7.2 5.733 8.534 10.026 1.36 4.227-1.867 9.494-6.427 9.654-5.693.333-11.413-.387-17.133-.174-9.72.267-19.36 1.68-28.774 4.12-4.48 1.04-9.32 2.574-13.933 2.44-5.52-.693-8.627-6.96-5.933-11.8 2.933-4.333 7.906-7.493 12.146-10.453 9.36-6.48 21.16-8.547 32.36-8.253m125.054 1.28C763.56 53.12 773.4 59.52 780.92 67.12c3.92 4.28 1.92 11.373-3.613 13.04-4.174.867-9.054-.8-13.16-1.693-10.08-2.68-20.374-4.36-30.8-4.614-5.72-.213-11.44.507-17.134.174-4.56-.16-7.786-5.427-6.426-9.654 1.706-5.453 6.04-9.333 11.306-11.306 9.92-3.814 21.48-3.934 31.814-1.88"/><path fill="#FFD879" d="M632.08 55.907c4.12 1.04 8.973 2.226 12.307 4.986 3.48 3.587.746 9.667-4.32 9.134-10.774-.534-20.8-1.347-31.44 1.48-3.427.946-6.587 2.586-9.974 3.573-2.773.36-5.693-1.493-6.04-4.36-.706-3.773 2.56-6.787 5.24-8.88 9.787-7.24 22.6-8.28 34.227-5.933m135.4 5.933c2.68 2.093 5.947 5.107 5.24 8.88-.347 2.867-3.267 4.72-6.04 4.36-3.4-.987-6.547-2.627-9.973-3.573-10.64-2.827-20.667-2.014-31.44-1.48-4.574.506-7.454-4.587-4.96-8.334 2.12-2.773 6.546-3.92 9.746-4.973 12.187-3.427 26.987-2.693 37.427 5.12"/><path fill="#FCA200" d="M519.427 64.667c6.093 1.853 10.013 6.8 13.306 11.946 4.52 7.427 8.147 15.44 10.854 23.694-35.64 8.52-70.547 20.333-104.014 35.306-4.386-7.68-7.226-16.253-8.813-24.92-1.053-6.613-.813-13.546 3.627-18.933 5.493-6.56 13.96-11.027 21.72-14.333 12.6-5 25.8-8.574 39.013-11.547 7.667-1.547 16.667-3.573 24.307-1.213m351.746 1.426c14.12 3.294 28.48 7.04 41.76 12.974 6.68 3.2 14.04 7.453 18.587 13.44 3.907 5.24 4.053 11.986 3.053 18.186-1.586 8.72-4.48 17.28-8.826 25.027-33.48-14.987-68.36-26.813-104.027-35.36a116 116 0 0 1 7.52-17.787c3.333-6.346 7.96-14.306 14.84-17.226 8.213-3.507 18.653-.974 27.093.746"/><path fill="#FFC100" d="M496.173 79.16c7.454-.667 17.214-.68 23.64 3.72 4.587 3.333 5.107 9.853.44 13.373-4.813 2.774-10.986 3.36-16.266 5.04-12.494 3.6-25.014 8.12-36.56 14.147-3.507 1.68-7.48 4.053-11.414 4.307-5.173.04-9.293-5.227-7.786-10.24 1.506-4.4 5.253-8.214 8.306-11.627 9.84-11.04 25.267-16.893 39.64-18.72m385.947 2.747c9.853 3.026 18.947 7.666 26.027 15.293 3.293 3.613 7.333 7.627 8.96 12.307 1.506 5.026-2.614 10.28-7.787 10.24-3.933-.267-7.907-2.627-11.413-4.307-11.56-6.027-24.054-10.547-36.56-14.147-5.414-1.813-12.387-2.226-17-5.626-4.587-4.454-2.534-11.174 2.84-13.84 10.386-4.88 24.253-3.16 34.933.08"/><path fill="#FFD879" d="M505.413 84.84c4.614.307 6.454 5.987 3.04 9.013-2.973 2.2-7.373 2.494-10.826 3.787-9.454 3.147-18.147 7.36-27.12 11.573-2.84 1.107-5.84 3.027-8.8 1.147-3.04-1.733-3.307-5.853-.974-8.333 10.934-12.294 28.614-17.8 44.68-17.187m354.507 0c16.147-.68 34.8 5.173 45.307 18.027 3.026 4.506-1.614 9.84-6.52 7.88-10.414-4.174-20.227-9.694-31-13.107-3.454-1.293-7.854-1.587-10.827-3.787-3.413-3.026-1.573-8.706 3.04-9.013"/><path fill="#C07700" d="M392.56 88.2c8.667 19.12 19.667 37.013 28.84 55.84-2.987 1.507-5.973 2.987-8.96 4.48-3.92-8.4-8.853-17.52-15.747-23.853-5.013-4.414-11.293-7.134-18.066-6.08-8.36 1.213-16.614 5.426-24 9.36-14.04 7.866-27.574 16.666-40.654 26.04-8.813 6.466-19.08 14.2-23.466 24.546-3.067 6.96-2.04 14.534 2.28 20.68 4.746 6.894 11.733 9.587 18.333 14.4-4.72 3.734-9.347 7.56-13.96 11.427-8.853-9.213-18.2-17.933-27.2-27-6.427-6.307-12.333-13.08-18.933-19.213 41.746-34.907 87.76-64.64 136.76-88.307 1.586-.773 3.173-1.547 4.773-2.32m579.227 2.453c4.36 1.76 8.506 4.094 12.733 6.16 45.48 23.08 88.36 51.374 127.4 84.2-14.21 15.147-29.32 29.334-43.85 44.147-4.63-3.84-9.26-7.693-13.98-11.44 6.91-5.107 14.23-7.773 18.99-15.32 4.15-6.44 4.67-13.84 1.35-20.787-4.72-10.146-15-17.733-23.83-24.173-13.12-9.333-26.67-18.16-40.76-25.96-7.47-3.92-16-8.227-24.48-9.04-7.213-.68-13.893 3.107-18.733 8.173-5.92 6.374-10.16 14.187-13.774 22.027-2.986-1.507-5.986-2.987-8.973-4.467 4.867-10.653 10.787-20.306 16.227-30.733 4.066-7.507 7.68-15.253 11.68-22.787"/><path fill="#EBA500" d="M869.04 125.627c54.707 18.373 106.653 44.853 153.61 78.4 103.06 73.346 181.12 180.586 218.42 301.52-2-2.147-3.94-4.174-5.06-6.934a793.6 793.6 0 0 0-59.48-112.48c-14.72-23.2-30.84-46.333-49.25-66.76-23.67-26.253-50.48-49.76-79.79-69.56-37.72-25.786-80.237-46.013-122.757-62.546C878.48 169.28 830.507 156 781.32 149.053c-23.347-3.226-47.027-6.64-70.613-7.2-12.654-.333-24.507-2.72-37.214-1.346-15.146 1.666-30.36 1.306-45.493 3.013-29.853 3.267-60.027 7.227-89.347 13.773-44.906 9.854-88.986 25.16-131.066 43.627-41.654 18.307-81.027 40.267-116.68 68.68-30.294 24.28-57.614 52.16-80.107 83.853-33.12 46.454-60.667 96.494-83.173 148.88-1.414 3.56-3.494 6.68-5.667 9.8 26.12-88.2 74.08-170.08 137.693-236.48 51.92-54.24 114.36-98.386 182.894-129.08 65.08-29.293 135.533-46.52 206.786-50.546 74.24-4.28 149.24 5.866 219.707 29.6"/><path fill="#FCA200" d="M378.627 118.587c6.773-1.054 13.053 1.666 18.066 6.08 6.894 6.333 11.827 15.453 15.747 23.853-35.853 18.24-69.853 40.027-101.32 65.093-6.6-4.813-13.587-7.506-18.333-14.4-4.32-6.146-5.347-13.72-2.28-20.68 4.386-10.346 14.653-18.08 23.466-24.546 13.08-9.374 26.614-18.174 40.654-26.04 7.386-3.934 15.64-8.147 24-9.36m606.733-.147c8.48.813 17.01 5.12 24.48 9.04 14.09 7.8 27.64 16.627 40.76 25.96 8.83 6.44 19.11 14.027 23.83 24.173 3.32 6.947 2.8 14.347-1.35 20.787-4.76 7.547-12.08 10.213-18.99 15.32-31.44-25.04-65.423-46.84-101.237-65.08 3.614-7.84 7.854-15.653 13.774-22.027 4.84-5.066 11.52-8.853 18.733-8.173"/><path fill="#FFC100" d="M382.173 137.907c4.507 1.506 6.747 6.24 5.107 10.706-1.12 3.307-5.267 5.027-8.12 6.6-7.907 3.854-15.573 8.16-22.867 13.08-10.12 6.88-19.6 15.174-28.773 23.267-3.013 2.56-6.72 5.773-10.72 6.44-5.587.653-10.533-4.093-9.64-9.76 1.56-10.013 7.307-19.547 14.76-26.32 10.787-10 23.907-17.52 37.84-22.2 6.88-2.12 15.387-3.933 22.413-1.813m615.04-.267c11.597 2.147 22.757 7.533 32.697 13.787 9.56 6.373 19.4 14.306 24.4 24.92 1.97 4.266 4.1 9.306 3.9 14.093-.42 5.067-5.76 8.613-10.61 7.373-3.64-1.013-6.96-3.84-9.8-6.253-9.15-8.093-18.64-16.387-28.76-23.267-7.01-4.72-14.373-8.92-21.973-12.64-2.534-1.32-5.387-2.626-7.48-4.6-3.374-3.626-2.494-9.813 1.813-12.333 4.493-2.48 10.92-1.84 15.813-1.08"/><path fill="#FFC300" d="M673.493 140.507c12.707-1.374 24.56 1.013 37.214 1.346 23.586.56 47.266 3.974 70.613 7.2 49.187 6.947 97.16 20.227 143.413 38.214 42.52 16.533 85.037 36.76 122.757 62.546 29.31 19.8 56.12 43.307 79.79 69.56 18.41 20.427 34.53 43.56 49.25 66.76a793.6 793.6 0 0 1 59.48 112.48c1.12 2.76 3.06 4.787 5.06 6.934 15.45 48.2 24.53 100.506 26.34 151.08-1 2.866-2.05 5.68-2.46 8.706-4.62 38.12-12.1 75.574-21.63 112.747-7.35 28.28-15.13 56.053-26 83.227-21.24 54.533-53.57 105.866-89.16 152.143-23.47 30.75-51.37 57.26-82.08 80.67-23.01 17.75-48.493 33.13-73.68 47.6-31.493 17.77-64.347 34.36-98.2 47.16-17.507 6.72-35.907 11.87-54.027 16.68-23.16 5.89-45.76 12.21-69.493 15.53-23.387 3.72-46.987 5.76-70.68 5.75-38.28-.68-76.56-6.04-113.573-15.84-26.094-6.65-53.134-13.39-78.2-23.23-41.614-16.13-81.48-37.33-119.627-60.37-46.387-27.75-90.173-62.92-124.333-104.99C217.4 988.813 193.333 953 172.84 915.16c-19.107-35.813-33.733-73.813-44.347-112.96-12.013-42.8-21.52-86.133-27.293-130.227-.48-3.973-.76-7.853-1.947-11.706-.506-1.214-1.026-2.427-1.546-3.64 1.653-48.507 10.04-98.08 24.253-144.494 2.173-3.12 4.253-6.24 5.667-9.8 22.506-52.386 50.053-102.426 83.173-148.88 22.493-31.693 49.813-59.573 80.107-83.853 35.653-28.413 75.026-50.373 116.68-68.68 42.08-18.467 86.16-33.773 131.066-43.627 29.32-6.546 59.494-10.506 89.347-13.773 15.133-1.707 30.347-1.347 45.493-3.013"/><path fill="#FFD879" d="M364.013 143.973c2.214-.466 4.214-.973 6.2.454 2.52 1.746 3.04 5.72.614 7.786-3.347 2.934-7.76 4.667-11.454 7.16-8.413 5.587-16.28 12.134-23.84 18.84-3.813 3.28-7.106 7.747-11.48 10.24-3.946 1.294-7.506-1.786-7.173-5.8.893-4.84 4.307-9.386 7.24-13.24 10.387-12.24 24.36-21.293 39.893-25.44m636.017-.28c15.81 3.787 29.89 12.84 40.6 25 3.02 3.76 6.09 8 7.57 12.64 1.03 3.107-.83 6.814-4.16 7.347-3.27.507-5.28-1.933-7.48-3.88-9.28-9.4-19.68-18.013-30.6-25.427-3.97-2.853-9.987-4.706-12.733-8.8-1.387-4.453 2.36-8.093 6.803-6.88"/><path fill="#FFCD1A" d="M670.667 163.987c18.773-1.04 38.213.986 57.173 1.92 17.453.88 34.533 3.12 51.64 6.72 17.813 3.666 36.333 6.613 53.84 11.386 13.107 3.534 26.453 9.08 37.253 17.427 5.494 4.48 11.107 10.16 13.854 16.813 3.173 8.094.16 17.054-6.294 22.56-12.266 10.547-30.493 13.814-45.933 9.534-15.067-4.054-29.573-10.614-44.453-15.414C773.6 230.32 758.973 227 744.533 223.4c-12.373-2.853-25.2-5.72-37.866-6.227-7.987-.36-16-1.026-24-1.093-11.334.333-22.854.853-34.147 1.933-19.427 2.747-38.627 8.067-57.627 12.947-19.44 4.973-37.52 13.627-56.733 19.12-15.533 4.547-33.587 1.653-46.24-8.653-6-4.827-9.467-12.374-7.92-20.094 1.373-6.773 6.947-12.88 11.88-17.453 9.587-8.453 21.867-14.173 33.96-18.04 19.72-6.093 40.813-9.2 61.027-13.413 27.8-6.147 55.533-6.747 83.8-8.44"/><path fill="#FFDA6A" d="M682.667 174.707c18.053-.907 35.573 1.44 53.426 3.56 24.014 2.973 48.254 9.4 71.747 15.293 10.947 2.76 22.52 5.413 33.027 9.56 5.76 2.333 12.106 5.787 15.44 11.253 3.266 5.2 3.053 12.24-.88 17.04-4.387 5.52-11.307 7.454-18.094 7.654-9.72.186-19.213-3.534-28.2-6.867-21.68-8.44-42.8-16.36-65.72-20.88-15.373-2.907-30.373-5.747-46.093-5.653-13.787-.947-27.493-.054-41.293.413-10.72.96-21.4 2.853-31.987 4.813-21.907 4.16-42.32 11.387-63.027 19.467-8.453 3.147-17.36 6.92-26.293 8.267-7.627 1.16-16.92.266-22.88-5.134-4.68-4.133-6.32-10.52-4.16-16.413 2.6-6.787 9.453-10.853 15.813-13.56 12.8-5.2 27.094-8.067 40.467-11.6 22.213-5.533 43.587-11.027 66.32-13.787 17.493-2.04 34.72-4.333 52.387-3.426"/><path fill="#C07700" d="M242.76 185.827c14.653 16.186 30.653 30.96 45.893 46.52-3.253 2.96-6.56 5.866-9.786 8.84-5.307-7.48-11.867-15.52-19.96-20.067-5.587-3.107-11.52-3.427-17.48-1.107-9.014 3.52-17.054 10.814-24.12 17.28-11.174 10.28-21.014 21.6-31.107 32.894-8.32 9.466-16.44 18.72-21.667 30.373-1.68 4.027-3.04 7.987-1.333 12.293 2.2 6.294 7.387 9.6 13.253 12.067 7.374 3.2 15.387 2.507 22.827 5.693-4.627 6.374-9.08 12.867-13.48 19.387-11.693-6.267-22.8-13.2-33.64-20.853-7.68-5.414-15.48-10.48-24.013-14.454 9.013-12.68 17.946-25.373 27.613-37.56 25.253-32.186 53.547-62 84.32-88.946zm877.75 2.48c43.24 37.44 81.46 80.533 113.72 127.746-12.7 6.454-23.43 15.24-35.46 22.747-6.33 4.067-12.89 7.693-19.46 11.347-4.31-6.56-8.8-12.987-13.4-19.334 7.41-3.533 15.5-2.6 22.97-5.893 5.87-2.467 11.05-5.787 13.25-12.067 1.7-4.32.35-8.266-1.33-12.293-4.8-10.733-12.12-19.493-19.8-28.227-13.56-15.28-26.99-30.853-42.96-43.72-5.52-4.333-12.24-8.933-19.33-9.946-6.02-.934-11.59 1.52-16.31 5.04-6.4 4.933-11.41 11.053-16.04 17.613-3.25-2.96-6.56-5.867-9.81-8.84 13.6-13.907 27.84-27.147 41.13-41.347.95-.946 1.89-1.88 2.83-2.826"/><path fill="#FCA200" d="M258.907 221.12c8.093 4.547 14.653 12.587 19.96 20.067-29.427 27.08-56.147 57.04-79.587 89.426-7.44-3.186-15.453-2.493-22.827-5.693-5.866-2.467-11.053-5.773-13.253-12.067-1.707-4.306-.347-8.266 1.333-12.293 5.227-11.653 13.347-20.907 21.667-30.373 10.093-11.294 19.933-22.614 31.107-32.894 7.066-6.466 15.106-13.76 24.12-17.28 5.96-2.32 11.893-2 17.48 1.107m859.803-2.453c7.09 1.013 13.81 5.613 19.33 9.946 15.97 12.867 29.4 28.44 42.96 43.72 7.68 8.734 15 17.494 19.8 28.227 1.68 4.027 3.03 7.973 1.33 12.293-2.2 6.28-7.38 9.6-13.25 12.067-7.47 3.293-15.56 2.36-22.97 5.893-23.4-32.44-50.16-62.36-79.55-89.493 4.63-6.56 9.64-12.68 16.04-17.613 4.72-3.52 10.29-5.974 16.31-5.04"/><path fill="#FFC100" d="M253.133 235.027c4.707 1.173 7.867 6.986 5.294 11.346-3.28 5.254-8.654 9.32-12.854 13.854-14.226 14.453-26.853 30.32-38.4 46.96-2.506 3.293-5.2 7.8-9.8 8-4.96.453-9.186-3.614-8.986-8.56.28-6.307 2.84-12.68 5.04-18.547 4.48-10.693 10.32-21.253 18.133-29.88 6.867-7.707 16.293-13.507 25.027-18.947 5.093-3.04 10.413-5.853 16.546-4.226m861.477-.44c8.64-.6 17.59 7.146 24.68 11.44 16.66 10.586 26.7 26.866 33.71 44.906 1.83 5.267 4.16 11.24 3.89 16.867-.45 4.467-4.4 7.813-8.93 7.387-4.6-.2-7.29-4.707-9.8-8-11.37-16.387-23.77-32.014-37.73-46.294-4.39-4.786-10.04-9.013-13.52-14.52-3-5.48 1.81-11.68 7.7-11.786"/><path fill="#FFD879" d="M246.08 250.76c-1.84 3.347-5.427 5.813-7.987 8.653-10.253 11.187-19.72 23.414-27.813 36.24-1.853 3.134-7.8 4.854-10.4 1.774-2.08-2.28-.907-5.56-.067-8.12 3.614-9.72 7.814-20.2 14.694-28.094 6.16-7.293 15.066-12.386 23.6-16.413 4.293-2.08 8.946 1.08 7.973 5.96m880.19-6.307c6.16 2.56 12.37 6.227 17.73 10.227 9.93 7.747 15.16 18.227 19.65 29.707 1.2 3.413 3.52 7.706 2.79 11.386-1.85 5.054-9.01 3.654-11.39-.106-8.09-12.84-17.56-25.08-27.81-36.254-2.56-2.84-6.15-5.293-7.99-8.653-.92-4.32 2.91-7.653 7.02-6.307"/><path fill="#C07700" d="M122.2 324.16c13.133 6.053 23.387 14.413 35.453 22.2 7.12 4.707 14.534 8.933 22.027 13.04-2.76 4.4-5.533 8.787-8.173 13.253-3.76-5.906-9.48-9.146-15.227-12.933-6.467-3.973-15-7.987-22.72-5.987-7.253 1.867-13 8.707-17.333 14.454-10.627 14.773-19.08 31.333-27.054 47.653-6.106 12.853-12.546 26.613-15.28 40.64-1.053 6.213-1.973 14.133 2.227 19.427 4.16 5.146 11.72 7.693 18.04 8.72 8.387 1.466 16.36-1.227 24.76.093a607 607 0 0 0-7.027 21.533c-14.08-5.093-28.613-8.293-42.92-12.573-7.72-2.4-15.32-5.227-22.826-8.213C63.96 428.64 89.48 373.947 122.2 324.16m1118.25 1.28c32.72 49.68 58.75 104.107 76.84 160.773-20.8 8.867-42.92 12.534-64.08 20.147-2.24-7.2-4.53-14.373-7.02-21.493 8.16-1.627 15.85 1.133 24.02-.094 6.63-.933 14.64-3.48 19-8.866 4.2-5.294 3.28-13.214 2.23-19.427-2.73-14.027-9.17-27.787-15.29-40.64-7.96-16.32-16.42-32.88-27.04-47.653-4.34-5.747-10.08-12.587-17.34-14.454-7.41-1.92-15.61 1.734-21.89 5.48-6.07 3.894-12.19 7.48-16.27 13.52-2.65-4.44-5.38-8.826-8.13-13.213 5.81-3.267 11.67-6.467 17.31-10.027 12.97-7.946 24.13-17.24 37.66-24.053"/><path d="M407.987 335.44c25.506-1.253 51.066 1.467 74.92 10.987 19.8 7.84 37.746 20.186 51.906 36.12 29.347 31.626 47.254 71.84 57.56 113.36 6.947 27.506 10.787 55.706 10.4 84.093-.24 12.013-.546 24.013-1.64 35.987-2.4 28.066-4.893 56.373-12.08 83.693-4.413 17.36-10.453 34.213-17.52 50.667-8.92 23.973-20.826 49-40.813 65.733-14.333 11.947-30.627 21.813-47.413 29.893-35.96 18-78.094 24.534-117.987 22.2-25.253-2.053-51.707-7.413-74.36-19.12-27.92-14.08-51.107-37.773-64.84-65.84-9.053-18.12-13.333-36.906-17.48-56.586-5.56-28.587-5.28-58.947-4.173-87.96.946-27.534 3.426-54.907 8.466-82 5.254-30.627 14.454-60.4 26.547-89a284.3 284.3 0 0 1 34.507-60.347c22.493-30.2 55.226-54.227 91.693-64.267 13.787-3.92 28.013-6.586 42.307-7.613m519.973.507c30.067-2.907 60.507 1.973 88.59 12.853 16.85 6.667 32.46 16.72 46.37 28.267 18.48 15.453 32.75 34.493 45.01 55.093 14.42 23.853 24.78 50.773 33.19 77.267 13.13 43.186 18.72 89.56 19.93 134.573 1.14 32.96.74 65.253-7.64 97.347-5.64 26.013-15.8 50.506-33.09 70.96-18 21.72-41.81 37.52-68.64 46.133-29.19 9.16-59.893 12.027-90.333 9.16-22.32-2.093-44.787-6.8-65.534-15.427-11.306-4.666-22.373-10.253-32.96-16.36-14.626-8.92-29.946-19.106-40.853-32.48-12.92-15.986-21.053-33.88-28.2-52.986-6.92-16.147-12.88-32.667-17.267-49.694-7.72-28.866-10.226-59.586-12.72-89.333-1.28-19.667-1.906-39.627-.306-59.293 2.146-26.48 7.706-52.72 15.666-78.04 12.467-38.694 32.014-74.28 62.014-102.147 23.986-21.56 54.813-33.32 86.773-35.893"/><path fill="#FCA200" d="M133.56 353.733c7.72-2 16.253 2.014 22.72 5.987 5.747 3.787 11.467 7.027 15.227 12.933-21.387 35.36-39 73.04-52.587 112.067-8.4-1.32-16.373 1.373-24.76-.093-6.32-1.027-13.88-3.574-18.04-8.72-4.2-5.294-3.28-13.214-2.227-19.427 2.734-14.027 9.174-27.787 15.28-40.64 7.974-16.32 16.427-32.88 27.054-47.653 4.333-5.747 10.08-12.587 17.333-14.454m1098.21 0c7.26 1.867 13 8.707 17.34 14.454 10.62 14.773 19.08 31.333 27.04 47.653 6.12 12.853 12.56 26.613 15.29 40.64 1.05 6.213 1.97 14.133-2.23 19.427-4.36 5.386-12.37 7.933-19 8.866-8.17 1.227-15.86-1.533-24.02.094-13.56-39.054-31.19-76.747-52.58-112.134 4.08-6.04 10.2-9.626 16.27-13.52 6.28-3.746 14.48-7.4 21.89-5.48"/><path fill="#fff" d="M400.72 366.547c18.813-2.707 38.213.04 55.6 7.68 22.4 9.773 40.973 26.64 54.933 46.506 20.88 29.8 31.787 65.84 34.134 101.947 2.48 39.867-5.347 81.267-24.974 116.28-13.213 23.6-32.08 44.453-56.12 57.307-19.56 10.56-42.293 14.866-64.306 11.506-21.427-3.133-41.32-13.36-57.52-27.56-22.014-19.186-37.627-45.413-46.987-72.893-13.08-38.827-14.747-81.493-5.36-121.333 7.307-31.054 22.213-61.6 44.707-84.494 17.853-18.146 40.453-31.32 65.893-34.946m573.853 1.826c21.707 5.2 41.377 17.64 56.797 33.587 22.68 23.187 37.58 54.333 44.7 85.76 9.18 40.373 7.02 83.653-6.86 122.72-10.01 27.893-26.56 54.28-49.77 73.04-18.47 14.933-40.853 24.493-64.773 25.333-19.587.8-39.027-4.36-55.974-14.093-21.946-12.493-39.36-31.68-51.973-53.373-19.44-33.48-28.027-73.494-26.6-112 1.173-38.614 12.693-78.32 35.333-109.907 14.134-19.747 32.907-36.373 55.44-45.827 19.987-8.466 42.587-10.386 63.68-5.24"/><path fill="#FFC100" d="M145.36 371.853c4.387.787 6.973 5.294 6.933 9.507-.346 2.947-2.36 5.827-3.946 8.28-12.614 17.8-21.547 39.253-30.067 59.307-2.067 4.986-3.293 10.64-6.093 15.266-3.04 4.467-9.574 4.72-13.174.774-3.853-4.174-4.2-11.614-4.466-16.987-.747-17.453 5.186-34.56 15.733-48.387 6.52-8.44 14.04-16.28 22.413-22.906 3.534-2.667 8.014-5.667 12.667-4.854m1075.95-.146c5.53-.08 10.94 4.613 14.98 7.986 11.67 10.32 23.11 23.08 28.99 37.694 5.04 12.013 6.64 25.293 4.85 38.2-.73 4.293-2 8.92-6.09 11.186-4.04 2.187-9.25.707-11.4-3.373-2.96-5.813-4.43-12.307-7.12-18.267-7.28-16.6-14.11-32.933-23.71-48.266-2.5-4.08-5.61-7.894-7.76-12.16-2.92-5.214 1.07-12.987 7.26-13"/><path fill="#FFD879" d="M136.8 394.64c-.627 3.96-3.867 7.587-5.667 11.16-6.893 12.32-11.64 25.16-16.133 38.493-1.027 2.52-1.973 6.214-4.613 7.48-3.08 1.654-6.934-.173-7.92-3.466-2.894-9.867.546-20.334 4.36-29.454 4.453-10.773 13.12-20.066 21.546-27.906 3.2-2.88 8.267-.547 8.427 3.693m1096.67-4.96c2.28-.24 4.12 1.787 5.66 3.173 7.52 7.747 14.59 15 18.96 25.067 4.02 9.28 7.76 20.32 4.78 30.387-.99 3.293-4.84 5.12-7.92 3.466-2.64-1.266-3.59-4.96-4.62-7.48-4.49-13.333-9.22-26.173-16.13-38.493-1.77-3.24-4.07-6.347-5.45-9.773-.9-3.12 1.54-6.227 4.72-6.347"/><path fill="#C07700" d="M42.84 496.293c6.693 2.534 13.413 5.094 20.213 7.307 15.254 4.787 30.627 7.84 45.627 13.52-1.333 4.8-2.653 9.613-3.88 14.44-6.533-5.667-14.267-8.52-22.32-11.4-6.693-2.173-15-4.133-21.92-2.187-5.907 1.654-9.027 7.28-11.453 12.467-3.907 9.107-6.28 18.987-8.64 28.6-4.92 20.32-6.907 40.36-9.36 61.067-1.587 13.226-3.734 26.92-2.174 40.24.6 4.253 1.534 9.453 5.2 12.2 4.654 3.426 10.6 3.453 16.107 2.88 8.853-1.16 17.52-3.894 25.653-7.547 3.307-1.493 6.747-2.587 10.24-3.547-.24 6.734-.2 13.48-.226 20.214-10.854.08-21.72-.054-32.574.16-12.32.213-24.493 1.533-36.826.933-.654-62.507 7.933-125.133 25.16-185.227.386-1.373.786-2.746 1.173-4.12m1277.84.734c18.45 61.026 27.96 124.826 27.91 188.573-7.76.413-15.51.08-23.26-.387-15.49-.893-30.72-.546-46.2-.666.1-8.694-.2-17.387-.36-26.08.2 1.866.47 3.72.72 5.573 13.7 5.107 25.38 11.347 40.54 11.667 4.93.053 11-1.427 13.68-5.987 2.26-3.987 2.77-9.16 3.08-13.667.84-14.373-2.02-29.653-3.51-44.066-2.91-26.294-6.59-51.64-15.15-76.8-1.93-5.227-4.58-11.387-8.98-14.987-4.71-3.667-11.4-3.347-16.96-2.44-8.15 1.453-16.07 4.653-23.5 8.253-3.32 1.854-6.8 3.2-8.08 7.134-1.3-5.347-2.72-10.654-4.18-15.96 13.76-5.2 27.88-8.227 41.93-12.4 7.49-2.147 14.95-5.094 22.32-7.76"/><path fill="#FCA200" d="M60.56 517.973c6.92-1.946 15.227.014 21.92 2.187 8.053 2.88 15.787 5.733 22.32 11.4-11.213 43.347-17.467 88.013-18.667 132.773-3.493.96-6.933 2.054-10.24 3.547-8.133 3.653-16.8 6.387-25.653 7.547-5.507.573-11.453.546-16.107-2.88-3.666-2.747-4.6-7.947-5.2-12.2-1.56-13.32.587-27.014 2.174-40.24 2.453-20.707 4.44-40.747 9.36-61.067 2.36-9.613 4.733-19.493 8.64-28.6 2.426-5.187 5.546-10.813 11.453-12.467m1231.63-.213c5.56-.907 12.25-1.227 16.96 2.44 4.4 3.6 7.05 9.76 8.98 14.987 8.56 25.16 12.24 50.506 15.15 76.8 1.49 14.413 4.35 29.693 3.51 44.066-.31 4.507-.82 9.68-3.08 13.667-2.68 4.56-8.75 6.04-13.68 5.987-15.16-.32-26.84-6.56-40.54-11.667-.25-1.853-.52-3.707-.72-5.573-1.65-42.214-7.54-84.414-18.16-125.32 1.28-3.934 4.76-5.28 8.08-7.134 7.43-3.6 15.35-6.8 23.5-8.253"/><path fill="#FFC100" d="M81.333 538.227c4.56-.12 8.44 3.866 8.28 8.386-.333 5.76-2.28 11.507-3.386 17.174-4.8 23.8-8 47.866-8.334 72.173-.24 5.08.214 10.627-1.146 15.533-2.294 5.72-10.334 6.174-14.387 2.16-2.693-2.813-4.013-7.24-5.187-10.88-3.013-10.466-6.013-21.226-6.613-32.106-.893-13.907.733-28.96 4.44-42.414 2.8-10.146 9.213-17.506 16.467-24.786 2.8-2.587 5.853-5.187 9.866-5.24m1202.667 0c3.73.066 6.52 2.226 9.17 4.6 7.87 7.666 14.72 15.613 17.48 26.533 5.15 20.133 6.22 41.707.67 61.893-1.97 6.907-3.37 14.747-7.13 20.934-3.3 5.573-13.1 5.613-15.6-.694-1.44-5.333-.9-11.333-1.18-16.84-.4-23.88-3.61-47.48-8.3-70.866-1.11-5.667-3.06-11.414-3.39-17.174-.16-4.52 3.72-8.52 8.28-8.386"/><path fill="#FFD879" d="M74.653 557.373c3.04.054 4.88 2.587 5.067 5.44-.04 3.2-1.293 6.4-1.867 9.547-3.626 19.627-5.186 39.707-5.213 59.653-.093 2.44-.267 4.654-2.48 6.16-3.467 2.2-7.52-.066-8.413-3.866-3.334-11.907-4.32-24.64-4.12-36.974-.054-11.493 2.786-23.666 8.813-33.52 1.933-2.613 4.453-6.813 8.213-6.44m1219.977 1.334c3.29 3.04 5.74 7.08 7.48 11.173 2.72 6.72 4.86 13.52 5.28 20.8.94 14.213.02 28.787-3.5 42.627-.74 2.853-2.04 5.226-5.22 5.693-3.6.373-5.94-2.467-5.91-5.88-.11-20.293-1.55-40.787-5.28-60.76-.59-3.88-3.08-8.84-1.03-12.493 1.63-2.907 5.8-3.28 8.18-1.16"/><path fill="#EBA500" d="M97.707 656.627c.52 1.213 1.04 2.426 1.546 3.64 1.187 3.853 1.467 7.733 1.947 11.706 5.773 44.094 15.28 87.427 27.293 130.227 10.614 39.147 25.24 77.147 44.347 112.96 20.493 37.84 44.56 73.653 71.427 107.25 34.16 42.07 77.946 77.24 124.333 104.99 38.147 23.04 78.013 44.24 119.627 60.37 25.066 9.84 52.106 16.58 78.2 23.23 37.013 9.8 75.293 15.16 113.573 15.84 23.693.01 47.293-2.03 70.68-5.75 23.733-3.32 46.333-9.64 69.493-15.53 18.12-4.81 36.52-9.96 54.027-16.68 33.853-12.8 66.707-29.39 98.2-47.16 25.187-14.47 50.67-29.85 73.68-47.6 30.71-23.41 58.61-49.92 82.08-80.67 35.59-46.277 67.92-97.61 89.16-152.143 10.87-27.174 18.65-54.947 26-83.227 9.53-37.173 17.01-74.627 21.63-112.747.41-3.026 1.46-5.84 2.46-8.706 4.04 90.213-13.86 181.573-50.89 263.906-31.63 70.534-77.43 134.627-133.89 187.417-44.55 41.74-95.71 76.44-150.963 102.38C855.68 1246.09 772 1265.28 688 1265.99c-62.867.64-125.853-9.06-185.667-28.43-81.6-26.36-157.2-70.77-219.72-129.51-29.36-27.32-55.72-57.74-78.826-90.53C150.813 942.4 116.027 854.667 103 763.68c-4.96-35.36-7.16-71.373-5.293-107.053"/><path fill="#C07700" d="M53.333 695.827c10.934-.094 21.867-.24 32.8-.04.107 5.293.267 10.573.614 15.853-12.08-7.12-25.934-7.92-39.507-5.64-6.2 1.28-12.107 4.453-14.667 10.547-3.04 7.48-2.573 16.853-2.213 24.786 1.747 26.614 7.387 53.16 13.067 79.174 1.84 7.04 3.786 17.466 10.76 21.253 7.586 3.653 17.706 2.267 25.186-1.08 9.48-4.093 15.707-10.867 24.067-16.547 1.533 6.32 3.24 12.587 4.947 18.854-10.334 3.626-20.76 7.04-31.334 9.92-11.573 3.16-23.346 4.84-34.813 8.386C26.707 807.88 18.133 752.413 16.68 696.8c12.267.467 24.4-.587 36.653-.973m1225.677-.134c8.34.04 16.67-.053 24.99.067 14.89-.133 29.63 1.627 44.53 1.053a653 653 0 0 1-24.13 164.907c-12.2-3.96-24.71-5.613-37.05-9.067-10.31-2.88-20.58-6.146-30.64-9.8 1.81-6.56 3.58-13.093 5.1-19.72 5.12 5.214 11.24 9.667 17.24 13.814 8.82 5.72 19.83 8.933 30.15 5.68 5.37-1.894 7.96-6.627 9.77-11.694 2.67-7.92 4.24-16.266 6-24.44 4.72-23.56 9.38-46.36 10.23-70.493.11-6.573.03-14.333-2.87-20.373-2.76-5.534-8.41-8.414-14.24-9.627-7.96-1.493-16.33-1.413-24.32-.133-5.61.92-10.32 3.4-15.44 5.72.26-5.294.54-10.587.68-15.894"/><path fill="#CEC9FF" d="M256.027 703.96c6.786-1.587 14.426-.053 20.986 1.933 15.96 5.054 29.667 13.28 44.4 20.694 31.174 15.653 66.267 21.44 100.934 19.733 23.906-.307 46.866-8.053 68.946-16.547 9.68-4.466 20.32-10.973 31.4-10.773 7.867.133 14.267 5.4 16.12 13.013 2.48 10.747-1.426 21.974-5.76 31.734-9.666 20.853-24.2 40.826-42.96 54.373-16.866 12.093-36.32 20.373-56.72 24.213-18.826 3.56-38.24 4.64-57.373 4.134-16.293-.547-32.467-3.707-47.68-9.6-23.453-9.08-44.04-24.547-59.88-44.027-6.64-8.227-11.973-17.84-16.667-27.28-5.44-10.96-9.133-22.707-10.626-34.867-.547-4.706-.654-9.88.84-14.413 2.093-6.267 7.653-10.92 14.04-12.32m835.263.853c8.44-2.053 17.75-2.773 25.03 2.867 5.57 4.267 7.56 10.827 7.35 17.64-.95 20.267-8.88 38.04-19.12 55.2-6.36 10.76-14.55 19.893-23.68 28.36-19.88 18.427-45.12 30.933-71.86 35.48-21.53 3.6-44.077 2.467-65.677-.053-27.186-3.24-53.186-13.187-74.533-30.494-16.173-13.386-28.827-31.413-37.56-50.4-4.24-9.666-8.067-20.773-5.6-31.386 1.653-6.854 7.293-12.2 14.387-12.894 10.106-1.08 20.546 4.72 29.506 8.667 13.8 5.72 27.907 11.24 42.4 14.92 12.32 2.6 24.827 3.693 37.4 3.773 32.867.88 66.857-5.866 96.107-21.133 14.49-7.4 30.04-16.453 45.85-20.547"/><path fill="#FCA200" d="M47.24 706c13.573-2.28 27.427-1.48 39.507 5.64 1.906 37.893 7.546 75.667 16.693 112.493-8.36 5.68-14.587 12.454-24.067 16.547-7.48 3.347-17.6 4.733-25.186 1.08-6.974-3.787-8.92-14.213-10.76-21.253-5.68-26.014-11.32-52.56-13.067-79.174-.36-7.933-.827-17.306 2.213-24.786 2.56-6.094 8.467-9.267 14.667-10.547m1246.53-.133c7.99-1.28 16.36-1.36 24.32.133 5.83 1.213 11.48 4.093 14.24 9.627 2.9 6.04 2.98 13.8 2.87 20.373-.85 24.133-5.51 46.933-10.23 70.493-1.76 8.174-3.33 16.52-6 24.44-1.81 5.067-4.4 9.8-9.77 11.694-10.32 3.253-21.33.04-30.15-5.68-6-4.147-12.12-8.6-17.24-13.814 9.16-36.493 14.56-73.986 16.52-111.546 5.12-2.32 9.83-4.8 15.44-5.72"/><path fill="#FFC100" d="M68.067 719.893c3.413 2.16 4.28 5.84 4.76 9.587.813 7.907.786 15.893 1.48 23.813 1.52 19.174 5.306 38.014 10.573 56.494.933 3.666 2.28 7.76 1.973 11.573-1.293 4.493-5.813 9.053-10.866 8.147-3.227-.494-5.147-2.68-6.987-5.147-14.453-21.467-20.613-46.307-21.653-71.933-.334-10.267 2.306-21.574 8.586-29.867 2.867-3.733 7.974-5.12 12.134-2.667m1232.023-1.08c4.48-.813 8.1 1.64 10.46 5.254 5.48 8.48 7.7 18.36 7.42 28.386-1.01 25.627-7.18 50.454-21.64 71.907-1.84 2.467-3.76 4.667-6.98 5.147-5.06.893-9.58-3.654-10.87-8.147-.31-3.8 1.04-7.893 1.99-11.56 5.22-18.493 9.04-37.32 10.56-56.507.8-8.56.56-17.293 1.78-25.8.67-4.146 2.91-7.853 7.28-8.68"/><path fill="#FFD879" d="M67.507 737.72c.68 6.48-.294 13.093.293 19.627 1.68 16.773 5.507 33.506 10.413 49.626.814 3.467.24 6.92-3.48 8.24-4.28.92-6.266-2.666-8.253-5.693-5.12-8.92-8.147-19.227-10.987-29.067-2.88-10.866-5.933-23-2.76-34.12 1.16-3.933 2.694-8.946 5.934-11.68 3.2-2.413 7.893-.893 8.84 3.067M1308 735.973c5.71 8.16 6.96 19.707 5.23 29.32-1.9 11.36-5.28 22.52-9.26 33.32-2.14 5.254-4.52 11.347-8.58 15.4-3.08 2.92-8.26.72-8.52-3.44-.24-4.933 2.5-9.986 3.52-14.8 3.04-12.626 6.01-25.48 7.14-38.426.59-6.534-.38-13.147.3-19.627 1.22-4.827 7.3-5.64 10.17-1.747"/><path fill="#C07700" d="M111.707 853.867c1.56 5.68 3.426 11.266 5.266 16.866-12.76 1.08-24.586 1.587-36.493 7.08-4.72 2.307-8.52 5.987-9.093 11.454-.92 8.986 2.506 18.893 5.333 27.346 6.227 17.4 13 36.054 23.013 51.64 3.187 4.8 7.64 10.76 13.534 12.174 6.306 1.253 13.4-.987 18.626-4.56 8.587-5.827 14-13.44 20.867-20.934 2.827 5.56 5.8 11.027 8.813 16.48-20.16 10.467-39.146 22.347-60.733 29.897-22.92-41.057-41.653-84.283-55.373-129.257 10.613-3.32 21.453-4.933 32.2-7.72 11.546-2.906 22.72-6.826 34.04-10.466m1141.853-.2a443 443 0 0 0 30.75 9.786c12.26 3.414 24.77 5.12 36.92 9.014-13.4 45.106-31.87 88.746-54.7 129.893-8.56-3.853-17.38-6.827-25.72-11.173-12.66-6.187-24.65-13.6-37.3-19.827 3.01-5.453 6-10.933 8.85-16.48 8.04 8.307 14.59 18.227 25.37 23.427 5.79 2.573 13.66 4.013 19.1-.107 5.74-4.227 9.78-11.333 13.24-17.453 7.94-14.52 13.76-30.547 19.24-46.134 2.56-7.866 5.52-17.026 4.64-25.346-.64-5.894-4.9-9.587-10-11.894-11.51-4.92-23.62-5.946-35.96-6.413 1.48-4.387 2.9-8.8 4.29-13.227.43-1.346.85-2.706 1.28-4.066"/><path fill="#FCA200" d="M116.973 870.733c9.774 28.894 21.68 57.147 35.787 84.2-6.867 7.494-12.28 15.107-20.867 20.934-5.226 3.573-12.32 5.813-18.626 4.56-5.894-1.414-10.347-7.374-13.534-12.174-10.013-15.586-16.786-34.24-23.013-51.64-2.827-8.453-6.253-18.36-5.333-27.346.573-5.467 4.373-9.147 9.093-11.454 11.907-5.493 23.733-6 36.493-7.08m1131.017.227c12.34.467 24.45 1.493 35.96 6.413 5.1 2.307 9.36 6 10 11.894.88 8.32-2.08 17.48-4.64 25.346-5.48 15.587-11.3 31.614-19.24 46.134-3.46 6.12-7.5 13.226-13.24 17.453-5.44 4.12-13.31 2.68-19.1.107-10.78-5.2-17.33-15.12-25.37-23.427a591 591 0 0 0 35.63-83.92"/><path fill="#FFCD1A" d="M212.013 881.68c6.227-.44 11.534 2.373 16.454 5.853 9.813 7.12 17.853 17.16 25.6 26.414 10.053 11.946 19.906 24.72 31.6 35.053 6.826 6.187 14.626 11.08 21.493 17.187 9.72 8.533 16.533 20.88 18.013 33.773.987 8.04-.933 17.69-8.213 22.35-7.813 4.24-18.093 4.08-26 .12-7.333-3.59-13.947-9.27-19.907-14.8-9.8-9.297-19.186-19.177-27.52-29.817-10.706-13.493-19.68-28.733-28.506-43.52-6.027-9.973-9.92-20.786-13.547-31.8-1.253-4.026-2.053-8.493-.813-12.626 1.546-4.814 6.413-7.96 11.346-8.187m936.497.28c6.61-1.333 13.82 1.147 16.16 7.907 2.17 7.266-1.98 15.706-4.27 22.56-5.16 15.44-13.77 27.96-22.19 41.786-9.64 15.707-20.96 30.307-33.86 43.467-7.8 7.95-16.19 16.41-25.64 22.37-5.66 3.58-11.96 5.79-18.74 5.34-5.77-.35-12.25-1.91-15.74-6.94-4.92-6.77-4.94-14.98-3.39-22.903 2.31-10.334 7.64-20.067 15.28-27.427 7.01-6.827 15.45-11.907 22.84-18.493 17.64-15.44 31.57-36.627 47.91-53.427 5.86-5.747 13.4-12.507 21.64-14.24"/><path fill="#FFC100" d="M110.04 887.28c2.92 4.56 3.907 10.467 5.867 15.507 5.413 14.906 13.44 29.146 20.76 43.2 1.88 3.586 2.56 7.373.373 11.013-3.067 5.253-9.773 6.467-14.88 3.48-9.48-5.453-17.013-15.027-22.053-24.587-5.16-9.586-8.92-19.48-8.12-30.573.506-5.893 1.613-12.68 5-17.653 3.04-4.374 9.813-4.667 13.053-.387m1157.01-1.027c2.92 2.667 4.24 7.307 5.12 11.04 2.18 9.36 1.54 18.667-1.89 27.627-5.21 13.373-13.29 26.52-25.45 34.6-3.82 2.48-8.16 3.587-12.4 1.4-5.16-2.693-6.96-8.867-4.19-14 7.29-14.307 15.73-29 21.19-44.147 1.82-4.826 2.89-10.2 5.36-14.733 2.44-4.307 8.66-5.08 12.26-1.787"/><path fill="#FFD879" d="M107.907 898.853c1.52 3.16 1.88 6.88 3.08 10.187 3.64 10.493 10.973 20.533 16.52 30.133 1.466 2.76 3.026 5.36 1.52 8.507-1.667 3.493-6.134 3.667-9.067 1.733-7.013-4.693-12.187-12.693-15.947-20.106-4.586-8.987-6.066-19.12-5.013-29.107 1.267-3.827 6.493-4.547 8.907-1.347M1266.33 900.2c2.11 17.053-4.81 33.453-16.52 45.627-2.62 2.44-5.76 5.44-9.68 4.72-4.08-.68-5.45-5.36-3.64-8.747 5.35-10.48 13.76-20.893 17.86-32.76 1.2-3.307 1.56-7.027 3.08-10.187 2.4-3.2 7.65-2.48 8.9 1.347"/><path fill="#FFDA6A" d="M223.147 903.267c5.68.106 10.546 3.2 14 7.56 6.32 7.96 11.52 16.76 18.28 24.44 7.773 8.666 16.28 16.72 25.56 23.746 8.413 6.494 17.506 13 23.186 22.187 3.96 6.373 6.547 14.893 4.614 22.33-1.214 4.75-5.12 8.44-10.054 8.95-5.293.51-9.826-2.27-13.813-5.4-8.947-7.36-16-15.787-23.333-24.64-14.494-17.333-27.947-35.787-39.507-55.213-2.587-4.36-6.067-9.294-6.853-14.374-.587-4.853 2.96-9.386 7.92-9.586m919.043 0c4.96.2 8.52 4.733 7.92 9.6-.79 5.066-4.27 10-6.86 14.36-11.25 18.906-24.22 36.813-38.29 53.72-7.73 9.36-15.72 19.123-25.31 26.733-4.16 3.15-8.96 5.72-14.36 4.59-4.77-1.07-8.1-5.04-8.98-9.76-1.72-8.817 2.18-18.377 7.6-25.243 7.76-9.92 19.76-17.027 29.29-25.427 5.84-5.213 11.51-10.707 16.71-16.573 6.76-7.68 11.96-16.48 18.28-24.44 3.45-4.36 8.33-7.454 14-7.56"/><path d="M916.72 964.213c2.213 9.88 4.88 20.467 9.64 29.467 4.44 8.28 10.827 14.73 17.667 21.04 3 2.41 3.026 6.97-.254 9.15-2.2 1.48-4.373.9-6.56-.19-6.56-6.13-12.933-12.29-17.84-19.89-2.293 1.06-4.413 2.17-6.093 4.13-6.053 6.55-12.213 13.27-15.92 21.47-5.427 11.77-4.733 26.92-11.333 37.96-5.507 9.16-14.814 13.72-24.76 16.53-11.16 3.11-25.827 6.57-33.454 15.97-6 6.84-2.666 18.34-3.893 26.86-.573 10.24-5.84 18.94-13.947 25.02-16.733 11.74-41.933 13.82-58.933 1.46-12.613-10.52-16.547-25.38-19.4-40.88-1.347-6.96-1.253-15.6-4.84-21.76-3.707-6.4-10.88-10.46-17.533-13.18-2.534-.97-5.227-2.34-7.947-2.56-59.4 1.5-117.867-10.12-173.427-30.74-23.186-9.12-45.96-19.39-68.413-30.22a156 156 0 0 1-12.48-6.72c-5.24 8.16-11.787 15.84-19.533 21.71-1.974 1.57-3.867 1.19-6.147.75-2.96-2.48-4.16-6.26-.96-9.15 7.613-6.41 14.307-13.61 18.907-22.507 4.306-8.453 7.253-17.653 9.12-26.946.56-2.507 1.08-4.734 3.693-5.84 3.667-1.694 8.147 1.426 7.653 5.48-1.24 9.013-4.32 18.013-7.6 26.48 6.147 3.923 12.707 6.923 19.267 10.043 19.84 9.44 39.96 18.36 60.4 26.41 49.36 18.31 100.787 29.41 153.533 30.19 26.36.32 52.507-3.18 78.387-7.95 16.573-3.08 32.933-7.09 48.907-12.49 35.186-11.84 69.306-30.84 101.333-49.483-3.267-7.894-5.733-16.107-7.533-24.454-.467-2.693-1.254-5.213.813-7.48 2.867-3.173 8.533-1.986 9.48 2.32"/><path fill="#C07700" d="M167.307 981.32c2.786 4.907 5.72 9.747 8.706 14.533-11.786.04-23.266 3.254-33.173 9.677-5.8 4.02-10.36 9.72-10.067 17.14.36 7.62 4.254 15.42 7.894 22.01 6.306 11.03 14.386 21.16 22.226 31.13 8.214 10.19 16.72 20.72 26.427 29.54 2.92 2.46 6.747 5.57 10.667 5.88 5.226-.34 10.213-4.58 13.706-8.2 8.787-9.3 12.187-20.06 19.04-30.51a654 654 0 0 0 15.094 16.72c-8.494 7.01-16.734 14.28-24.48 22.11-7.56 8.04-17.12 13.89-25.547 21.18-34.827-36.62-65.707-77.66-91.173-121.32 7.6-3.25 15.333-6.05 22.68-9.9 12.92-6.177 25-14.017 38-19.99m1030.683-.027c12.4 5.64 23.97 13.187 36.26 19.117 8.6 4.62 17.74 7.87 26.67 11.74-25.4 44.14-56.19 85.24-91.19 122.24-7.85-6.92-16.66-12.7-24.4-19.72a350 350 0 0 0-27.94-25.54c5.04-5.53 10.12-11.02 15.01-16.69 7.09 10.28 10.37 21.32 19.24 30.59 3.49 3.62 8.48 7.86 13.71 8.2 4.2-.35 8.28-3.82 11.36-6.51 10.54-9.81 19.73-21.4 28.7-32.65 9.04-11.68 18.99-24.38 24.48-38.15 2.39-6.2 4.12-13.09.91-19.36-4.08-7.96-12.84-12.2-20.85-15.173-6.71-2.627-13.72-3.32-20.87-3.547 3.08-4.773 5.75-9.827 8.91-14.547"/><path fill="#FCA200" d="M176.013 995.853c16.827 27.037 35.76 52.707 56.72 76.667-6.853 10.45-10.253 21.21-19.04 30.51-3.493 3.62-8.48 7.86-13.706 8.2-3.92-.31-7.747-3.42-10.667-5.88-9.707-8.82-18.213-19.35-26.427-29.54-7.84-9.97-15.92-20.1-22.226-31.13-3.64-6.59-7.534-14.39-7.894-22.01-.293-7.42 4.267-13.12 10.067-17.14 9.907-6.423 21.387-9.637 33.173-9.677m1013.067-.013c7.15.227 14.16.92 20.87 3.547 8.01 2.973 16.77 7.213 20.85 15.173 3.21 6.27 1.48 13.16-.91 19.36-5.49 13.77-15.44 26.47-24.48 38.15-8.97 11.25-18.16 22.84-28.7 32.65-3.08 2.69-7.16 6.16-11.36 6.51-5.23-.34-10.22-4.58-13.71-8.2-8.87-9.27-12.15-20.31-19.24-30.59 20.92-23.92 39.85-49.64 56.68-76.6"/><path fill="#EBA500" d="M919.373 1003.79c4.907 7.6 11.28 13.76 17.84 19.89-4.386.72-9.12 1.23-13.253 2.93-4.973 2.63-8.907 7.58-11.547 12.46-3.973 7.4-6.466 15.53-10.306 23.04-6.574 13.22-17.494 23.98-30.587 30.73-7.773 4.11-16.227 6.64-23.88 10.83-4.533 2.48-8.507 5.65-11.16 10.16-4.733 8-4.413 17.65-9.027 25.62-2.386 4.07-5.64 7.79-9.466 10.55-2.16 1.69-5.387 1.4-8.014 1.73 8.107-6.08 13.374-14.78 13.947-25.02 1.227-8.52-2.107-20.02 3.893-26.86 7.627-9.4 22.294-12.86 33.454-15.97 9.946-2.81 19.253-7.37 24.76-16.53 6.6-11.04 5.906-26.19 11.333-37.96 3.707-8.2 9.867-14.92 15.92-21.47 1.68-1.96 3.8-3.07 6.093-4.13M447 1007.13c4.067 2.43 8.213 4.67 12.48 6.72 22.453 10.83 45.227 21.1 68.413 30.22 55.56 20.62 114.027 32.24 173.427 30.74 2.72.22 5.413 1.59 7.947 2.56 6.653 2.72 13.826 6.78 17.533 13.18 3.587 6.16 3.493 14.8 4.84 21.76 2.853 15.5 6.787 30.36 19.4 40.88-10.48-1.76-19.427-7.32-27.12-14.44-7.893-7.59-11.093-17.32-17.56-26.44-4.88-6.92-10.373-13.03-18.4-16.28-10.573-4.22-22.547-5.82-33.773-7.43-13.187-1.79-26.414-3.45-39.534-5.64-18.026-3.04-36.053-8.09-53.573-13.33-14.933-4.47-29.107-10.55-43.44-16.58-15.053-6.16-29.387-13.73-44.68-19.37-8.973-3.4-18.013-5.56-27.68-4.24-5.88.64-11.413 3.2-17.267 3.72-2.52.31-4.84-2.13-6.693-3.57 2.28.44 4.173.82 6.147-.75 7.746-5.87 14.293-13.55 19.533-21.71"/><path fill="#FFC100" d="M173.453 1015.84c3.827 4.76 6.32 10.55 9.827 15.56 5.213 7.83 11.747 14.96 18.12 21.87 3.547 3.88 7.853 7.56 10.68 12 2.64 4.34 2.12 10.84-2.453 13.69-3.72 2.33-9.107 1.45-13.147.51-14.667-3.91-28.12-13.83-35.28-27.34-4.733-8.88-5.427-19.13-4.627-29 .494-3.81 1.294-7.6 4.747-9.82 4.107-2.55 9.2-1.07 12.133 2.53m1031.337-1.97c3.04 2.38 3.73 6.65 4.08 10.28.57 9.28-.07 18.65-4.28 27.1-6.78 13.43-19.51 23.23-33.76 27.67-4.31 1.24-10.06 2.44-14.28.49-5.28-2.54-6.12-9.46-3.3-14.14 2.83-4.44 7.14-8.12 10.68-12 6.38-6.91 12.91-14.04 18.12-21.87 3.7-5.23 6.23-11.49 10.47-16.24 3.16-3.4 8.53-4.31 12.27-1.29"/><path fill="#4395B4" d="M889.213 1020.63c-4.88 8.57-6.466 17.81-8.36 27.33-1.586 7.01-2.893 13.97-8.853 18.69-7.4 6.03-19.12 7.34-28.013 10.59-11.214 3.89-22.867 9.93-28.347 21.04-5.053 10.29-.933 21.84-3.693 32.36-1.787 6.76-7.094 11.72-13.147 14.83-7.8 3.85-16.84 5.64-25.507 4.61-8-.92-15.52-4.41-20.373-11-6.08-8.19-8.6-19.55-10.387-29.41 7.4.28 14.067 3.5 21.467 3.89 13.293 1.21 26.253-3.11 36.08-12.12 7.56-6.71 10.6-15.41 17.36-22.68 4.333-4.75 9.56-8.47 15.267-11.39 5.6-2.93 11.08-5.12 15.413-9.94 4.813-5.2 6.653-13.19 8.307-19.91 11.066-5.36 22.093-10.84 32.786-16.89"/><path fill="#FFD879" d="M172.52 1026.09c4.2 5.64 7.4 11.95 12 17.35 5.56 6.96 12.44 12.41 18.747 18.59 3.613 4.24-.694 10.05-5.8 8.53-7.88-2.73-15.12-7.89-21.374-13.35-8-7-14.293-18.14-13.106-29.02.84-4.59 6.826-5.63 9.533-2.1m1029.83 2.1c.93 7.96-2.51 16.57-7.32 22.81-6.54 8.15-15.66 14.57-25.14 18.85-3.56 1.82-7.76.98-9.04-3.12-.7-3.86 2.11-5.64 4.54-7.97 5.52-4.65 10.77-9.79 15.42-15.32 4.6-5.4 7.82-11.69 12-17.35 2.71-3.53 8.7-2.49 9.54 2.1"/><path fill="#92D4EF" d="M856.427 1037.52c-1.654 6.72-3.494 14.71-8.307 19.91-4.333 4.82-9.813 7.01-15.413 9.94-5.707 2.92-10.934 6.64-15.267 11.39-6.76 7.27-9.8 15.97-17.36 22.68-9.827 9.01-22.787 13.33-36.08 12.12-7.4-.39-14.067-3.61-21.467-3.89-1.146-6.64-1.413-14.14-3.92-20.35-2.733-6.92-7.76-12.43-13.933-16.47 19.12-1.96 38.16-5.24 56.947-9.3 25.893-5.68 50.906-14.58 74.8-26.03"/><path fill="#C6EFFF" d="M772.56 1076.63c5.747-.64 11.96-.74 15.653 4.49 3.56 5.44.8 11.61-3.266 15.81-6.974 7.58-18.694 8.98-27.707 4.51-6.52-3.15-9.067-14.24-2.56-18.69 5.2-3.48 11.76-5.19 17.88-6.12"/><path fill="#C07700" d="M255.587 1097.43c7.16 7.04 14.226 14.16 21.613 20.96-11.507 3.01-22.747 8.33-30.387 17.73-4.373 5.53-4.693 12.72-2 19.11 4.987 11.58 12.92 21.32 22.734 29.2 13.16 10.88 27.106 21.88 42.346 29.69 4.854 2.37 11.427 5.19 16.827 3.6 6.827-2.29 10.427-9.65 12.253-16.13 3.107-9.68 2.36-19.63 6.427-28.79 6.72 4.59 13.48 9.11 20.427 13.33-3.947 6.98-8.267 13.71-12.614 20.44-7.346 11.55-16 22.16-23.466 33.63-45.134-28.12-86.934-61.57-124.16-99.55 8.373-7.2 17.533-12.85 25-20.72q11.84-12 25-22.5m854.003-.14a285 285 0 0 1 24.49 21.96c8.29 8.83 18.67 15.14 27.84 23.22-37.36 38.26-79.55 71.86-125.04 99.96-7.43-12.18-16.57-23.07-24.24-35.07-4.55-7.04-9.09-14.07-13.213-21.37 6.943-4.19 13.693-8.74 20.403-13.3 4.32 9.38 3.42 20.04 6.84 29.94 1.93 6.44 6.06 14 13.25 15.41 6.05.87 12.89-2.52 18.16-5.28 15.04-8.25 28.79-19.15 41.87-30.17 7.92-6.52 14.17-14.67 18.93-23.72 2.55-5.1 4.33-10.56 2.84-16.27-1.37-5.73-6.17-10.17-10.68-13.65-6.88-5.3-14.8-8.38-23.11-10.63 7.42-6.8 14.47-13.97 21.66-21.03"/><path fill="#FCA200" d="M277.2 1118.39c21.4 19.74 44.147 38.01 68.2 54.41-4.067 9.16-3.32 19.11-6.427 28.79-1.826 6.48-5.426 13.84-12.253 16.13-5.4 1.59-11.973-1.23-16.827-3.6-15.24-7.81-29.186-18.81-42.346-29.69-9.814-7.88-17.747-17.62-22.734-29.2-2.693-6.39-2.373-13.58 2-19.11 7.64-9.4 18.88-14.72 30.387-17.73m810.73-.07c8.31 2.25 16.23 5.33 23.11 10.63 4.51 3.48 9.31 7.92 10.68 13.65 1.49 5.71-.29 11.17-2.84 16.27-4.76 9.05-11.01 17.2-18.93 23.72-13.08 11.02-26.83 21.92-41.87 30.17-5.27 2.76-12.11 6.15-18.16 5.28-7.19-1.41-11.32-8.97-13.25-15.41-3.42-9.9-2.52-20.56-6.84-29.94 24.01-16.4 46.73-34.64 68.1-54.37"/><path fill="#FFC100" d="M275.12 1136.75c5.613 1.18 9.893 7.72 14.173 11.29 7.614 6.89 15.734 12.72 24.187 18.47 3.453 2.45 7.56 5.18 9.867 8.8 2.2 3.54 1.96 8.04-.907 11.14-3.653 3.88-8.933 4.16-13.92 3.58-13.04-1.82-25.173-9.74-33.413-19.83-5.307-6.43-10.467-14.99-10.667-23.52-.107-5.73 4.707-11.08 10.68-9.93m825.73 11.05c-.86 9.97-7.62 19.6-14.42 26.63-8.76 8.85-21.71 16.06-34.4 15.8-5.46-.14-10.91-3.24-11.5-9.1-.38-5.68 4.11-9.3 8.19-12.38 9.4-6.6 18.81-12.92 27.32-20.71 4.28-3.57 8.56-10.12 14.17-11.29 6.48-1.19 11.31 4.94 10.64 11.05"/><path fill="#FFD879" d="M279.52 1147.17c2.933 1.79 5.413 4.39 8.08 6.55 7.12 5.84 14.427 11.44 22.027 16.64 2.453 1.92 5.266 3.31 4.906 6.93-.373 4.18-4.173 5.5-7.893 4.82-13.56-2.72-25.867-10.51-32.72-22.72-1.333-2.56-3-5.87-2.56-8.79.8-3.56 5.053-5.35 8.16-3.43m807.29-.46c4.16-1.48 8.34 2.37 7.04 6.66-4.6 15.2-20.04 25.87-35.16 28.74-3.72.68-7.52-.64-7.89-4.82-.36-3.62 2.45-5.01 4.91-6.93 7.6-5.2 14.9-10.8 22.02-16.64 2.94-2.31 5.68-5.45 9.08-7.01"/><path fill="#C07700" d="M375.387 1192.19c7.346 4.06 14.493 8.48 21.92 12.41-9.267 5.49-19.734 13.76-23.014 24.45-3.786 10.66 1.08 24.15 11.147 29.5 11.987 6.86 25.2 12.52 37.787 18.24 15.88 7.4 32.253 13.54 48.84 19.17 9.226 3.07 20.24 6.19 29.986 4.45 8.494-1.6 13.16-11.1 13.16-19.06.574-10.19-4.6-19.04-3.16-29.02a630 630 0 0 0 27.72 7.54c-4.84 20.8-12.493 41.09-18.853 61.48-63.76-16-125.173-41.5-181.56-75.28 4.853-7.54 10.24-14.67 15.48-21.92 7.307-10.34 13.973-21.19 20.547-31.96m614.493-.24c5.147 8.81 10.65 17.4 16.28 25.9 6.85 10.3 14.68 19.75 21.11 30.36-56.577 33.74-118.457 58.8-182.403 74.48-6.534-20.85-14.32-41.6-19.334-62.86 9.427-2.39 18.827-4.9 28.147-7.72.587 10.14-3.92 19.13-3.56 29.24.067 6.6 2.92 13.57 8.573 17.29 3.827 2.4 9 2.4 13.347 2.17 10.133-.68 20.6-4.61 30.147-7.94 12.906-4.59 25.666-9.5 38.093-15.26 13.2-6.04 27.04-11.86 39.613-19.06 10.067-5.35 14.934-18.86 11.147-29.5-3.427-10.98-13.707-18.73-23.067-24.58 7.4-4 14.68-8.2 21.907-12.52"/><path fill="#FCA200" d="M397.307 1204.6c36.453 19.84 74.96 35.89 114.746 47.73-1.44 9.98 3.734 18.83 3.16 29.02 0 7.96-4.666 17.46-13.16 19.06-9.746 1.74-20.76-1.38-29.986-4.45-16.587-5.63-32.96-11.77-48.84-19.17-12.587-5.72-25.8-11.38-37.787-18.24-10.067-5.35-14.933-18.84-11.147-29.5 3.28-10.69 13.747-18.96 23.014-24.45m570.666-.13c9.36 5.85 19.64 13.6 23.067 24.58 3.787 10.64-1.08 24.15-11.147 29.5-12.573 7.2-26.413 13.02-39.613 19.06-12.427 5.76-25.187 10.67-38.093 15.26-9.547 3.33-20.014 7.26-30.147 7.94-4.347.23-9.52.23-13.347-2.17-5.653-3.72-8.506-10.69-8.573-17.29-.36-10.11 4.147-19.1 3.56-29.24 39.627-11.79 78-27.86 114.293-47.64"/><path fill="#FFC100" d="M412.053 1229.4c8.04-2.39 13.947 2.61 20.974 5.53 10.786 4.75 21.56 9.14 32.893 12.43 6.587 2.11 15.12 4.21 20.067 9.31 4.68 4.77 4.68 12.49-.147 17.17-6.493 6.29-17.213 6.93-25.68 5.73-14.027-2.22-27.533-8.4-38.96-16.76-6.293-4.74-13.16-11.32-15.613-19.01-1.854-5.76.12-12.73 6.466-14.4m534.574-.48c4.813-.47 10.146.48 12.546 5.2 2.827 5.64.4 11.92-2.986 16.71-7.134 9.98-18.734 17.24-29.72 22.28-10.414 4.61-22.88 8.28-34.307 6.5-5.693-.9-12.093-3.52-14.947-8.85-2.653-4.93-1.32-11.05 2.787-14.75 4.813-4.38 12.293-6.4 18.4-8.33 11.64-3.36 22.84-7.87 33.907-12.75 4.653-2 9.346-5 14.32-6.01"/><path fill="#FFD879" d="M426.48 1240.19c5.307 1.96 10.173 5.06 15.387 7.29 8.76 3.93 17.933 6.32 27.133 8.88 3.733 1.13 7.68 3 7.12 7.61-.813 4.56-5.6 5.79-9.533 6.32-16.987 1.82-33.734-6.12-45.2-18.34-1.867-2.2-4.4-4.88-3.414-8.02.867-3.73 5.294-4.74 8.507-3.74m512.387 0c3.2-1 7.626.01 8.493 3.74.893 2.94-1.08 5.19-2.787 7.32-10.866 12.02-26.853 20.04-43.28 19.24-3.72-.2-9.213-.9-11.32-4.41-2.28-4.08.427-7.75 4.414-9.04 9.76-3.09 19.693-5.24 29.08-9.56 5.213-2.23 10.08-5.33 15.4-7.29"/><path fill="#C07700" d="M550.773 1262.6c5.627.91 11.147 2.4 16.76 3.43-7.693 8.01-12.44 18.82-12.546 29.97.08 7.24 2.24 14.87 8.52 19.15 6.12 4.18 13.84 6.44 20.933 8.34 15.133 3.75 30.747 5.74 46.227 7.35 8.32.93 17.76-.01 25.04-4.45 5.653-3.19 7.72-11.16 5.786-17.04-2.733-8.47-7.68-16.67-11.546-24.64-1.334-2.71-1.747-5.56-2.32-8.5 9.8.48 19.586.8 29.4.95 1.693 21.65-.694 43.04.133 64.65-48.867-.65-97.653-6.58-145.24-17.74 6.293-20.55 13.787-40.55 18.853-61.47m263.84-.2c4.854 21.07 12.867 42.05 19.214 62.88-47.667 10.77-96.534 16.37-145.387 16.56-.893-21.57 1.213-43.09-.133-64.68 9.893-.16 19.773-.47 29.653-1-2.373 12.59-12.067 23.08-14.747 35.79-.506 5.54 1.374 11.5 6.414 14.44 8.426 5.02 18.226 5.38 27.733 4.18 17.573-2.05 35.88-4.2 52.72-9.82 7.44-2.7 15.187-5.84 18.227-13.82 5.426-13.81-.64-30.64-10.494-40.98 5.614-1.1 11.214-2.31 16.8-3.55"/><path fill="#FCA200" d="M567.533 1266.03c26.454 5.17 53.2 8.5 80.094 10.18.573 2.94.986 5.79 2.32 8.5 3.866 7.97 8.813 16.17 11.546 24.64 1.934 5.88-.133 13.85-5.786 17.04-7.28 4.44-16.72 5.38-25.04 4.45-15.48-1.61-31.094-3.6-46.227-7.35-7.093-1.9-14.813-4.16-20.933-8.34-6.28-4.28-8.44-11.91-8.52-19.15.106-11.15 4.853-21.96 12.546-29.97m230.28-.08c9.854 10.34 15.92 27.17 10.494 40.98-3.04 7.98-10.787 11.12-18.227 13.82-16.84 5.62-35.147 7.77-52.72 9.82-9.507 1.2-19.307.84-27.733-4.18-5.04-2.94-6.92-8.9-6.414-14.44 2.68-12.71 12.374-23.2 14.747-35.79 26.813-1.67 53.493-5.01 79.853-10.21"/><path fill="#FFC100" d="M577.733 1284.55c7.227-.72 15.04 1.69 22.28 2.49 8.867 1.2 17.734 1.33 26.64 1.88 3.587.39 7.827.48 10.454 3.31 3.586 3.64 3.506 9.34.413 13.26-5.507 7.22-15.48 9.95-24.16 10.22-12.627.38-26.76-2.72-36.4-11.34-3.12-2.81-6.72-6.57-6.787-11.04-.053-4.46 3.16-8.14 7.56-8.78m210.854.2c5.813 1.49 8.253 8.04 5.293 13.17-4.867 7.92-14.267 13.29-23.067 15.63-9 2.37-18.893 3.08-28.013.93-5.907-1.43-12.08-4.59-15.533-9.77-2.587-3.84-2.36-9.14.96-12.48 2.626-2.83 6.88-2.92 10.44-3.31 8.92-.55 17.786-.67 26.653-1.88 7.453-.77 15.84-3.55 23.267-2.29"/><path fill="#FFD879" d="M581.653 1291.05c4.254-.69 9 1.08 13.28 1.47 8.414 1.09 16.68.59 25.094.75 3.293.21 6.693.25 8.6 3.4 1.773 3.54-.054 6.93-3.427 8.52-14 6.86-31.587 3.28-44.347-4.72-3.853-2.3-3.44-7.91.8-9.42m200.92-.2c4.067.28 6.027 5.39 3.32 8.4-3.306 3.07-8.053 4.83-12.213 6.42-10.72 4.08-24.12 4.65-34.387-.96-3.213-1.76-4.373-5.84-2.053-8.82 2.2-2.69 6.267-2.49 9.413-2.66 7.974-.03 15.787.3 23.734-.71 4.04-.45 8.146-1.72 12.186-1.67"/></svg>
