<svg xmlns="http://www.w3.org/2000/svg" viewBox="0 0 128 128"><circle cx="64" cy="64" r="64" fill="#75E9F2"/><path fill="#FF7703" d="M53.8 33.719c4.167.035 8.326-.113 12.495-.062 3.182-.048 6.331.034 9.46.666 3.434.678 6.955 1.96 9.783 4.062 3.075 2.422 4.427 5.966 4.965 9.74 3.238.002 6.476.008 9.714-.005.674.02 1.319.01 1.852.487.484.41.706 1 .655 1.63-.056.904-.816 1.702-1.744 1.705-3.417.028-6.844-.003-10.263.013.02 2.15-.176 4.253-.814 6.313-.599 1.93-1.64 3.524-3.266 4.74.982.941 1.823 1.989 2.42 3.218 1.51 2.978 1.736 6.158 1.652 9.437 3.167 0 6.334.01 9.501-.005.619.015 1.229-.02 1.754.364.818.602 1.007 1.818.431 2.655-.439.68-1.155.826-1.915.818q-5.071-.011-10.138-.002c-.587 3.22-1.724 6.224-4.024 8.618-1.823 1.838-4.232 3.151-6.626 4.092-3.889 1.484-7.979 1.979-12.122 1.885-4.51.05-9.011-.102-13.52-.059-1.662.018-3.33-.321-4.88-.915-2.391-.918-4.322-2.716-5.459-5.006-1.292-2.626-1.785-5.709-1.708-8.618-2.958 0-5.913-.005-8.87.008-.643-.008-1.23-.023-1.725-.49-.867-.744-.828-2.205.062-2.917.494-.418 1.055-.42 1.67-.433 2.955.012 5.91.007 8.868.007q0-11.856-.003-23.713c-3.123-.008-6.257.01-9.38-.002-1.053.033-1.9-.918-1.846-1.951.035-1.012.816-1.826 1.84-1.851 3.124-.054 6.26-.003 9.389-.02-.056-2.79.13-5.618 1.247-8.213.726-1.694 1.869-3.188 3.404-4.225 2.06-1.398 4.679-1.976 7.142-1.971m1.066 14.4c7.453.016 14.903.006 22.356.008-.227-1.86-.627-3.88-2.295-5-1.889-1.282-4.617-1.468-6.836-1.555-3.577-.018-7.162-.015-10.74-.003-.744-.038-1.228.653-1.516 1.25-.725 1.588-.83 3.58-.97 5.3m.01 3.833c.025 1.813.076 3.754.617 5.498.23.66.56 1.2 1.349 1.132 4.714-.054 9.633.75 14.281-.225 1.584-.316 3.045-.992 4.088-2.259.996-1.211 1.499-2.629 1.833-4.14-7.39-.01-14.779-.006-22.168-.006m.505 23.71c7.458.003 14.916.011 22.377-.004-.38-2.155-.824-4.264-2.568-5.755-2.07-1.78-5.263-2.058-7.879-2.02-3.31-.122-6.616-.012-9.929-.084-.425-.013-.63.105-.857.462-.413.67-.586 1.525-.721 2.292-.27 1.685-.37 3.404-.423 5.11m-.003 3.83c.087 1.59.163 3.284.52 4.842.135.538.327 1.178.717 1.586.283.16.683.12 1 .14 4.451.04 9.09.37 13.52-.202 1.556-.173 3.012-.515 4.218-1.578 1.443-1.267 2.035-2.95 2.397-4.783-7.458-.016-14.914-.005-22.372-.005"/></svg>
