<svg xmlns="http://www.w3.org/2000/svg" viewBox="0 0 192 128"><circle cx="64" cy="64" r="64" fill="#75E8F1"/><path fill="#FD7805" d="M67.15 16.108v2.52l1.537-.157c2.636-.224 5.272-.184 7.916-.157l-.295.729q-.35.886-.65 1.791l1.359.375c1.569.466 3.014 1.095 4.487 1.804.832.396.832.396 2.03.657l.63-1.26c2.367-1.972 4.088-2.77 7.248-2.52 3.22.764 5.656 2.937 7.404 5.69 1.557 2.88 1.718 5.89 1.418 9.118-.895 2.482-2.154 4.144-4.53 5.337q-.723.333-1.457.65c.205 1.93.738 3.683 1.32 5.533a397 397 0 0 1 2.284 7.62l.472 1.63c.472 2.252.814 4.639-.315 6.74l-.365.725c-3.04 4.082-9.109 5.863-13.793 7.369l-.913.328c-13.997 4.794-30.998 3.252-44.31-2.876-3.834-1.882-7.187-3.619-8.655-7.85-.69-3.448.853-6.85 1.89-10.083q.53-1.77 1.044-3.544l.469-1.6c.343-1.34.558-2.619.693-3.993l-.623-.267c-2.364-1.084-3.758-2.28-5.01-4.616-.94-3.767-.52-7.192 1.44-10.516 1.636-2.437 3.54-4.132 6.28-5.218 2.522-.421 4.51-.182 6.735 1.082.635.587.635.587 1.201 1.202l1.004 1.004c1.918-.383 3.477-1.14 5.258-1.95 3.247-1.443 6.467-2.694 9.866-3.721l1.483-.463c3.644-1.113 3.644-1.113 5.449-1.113"/><path fill="#76E7EF" d="m64.06 40.271 2.257.003c3.405.155 6.669.574 9.164 3.069 2.104 2.925 1.788 6.608 1.28 10.072a18 18 0 0 1-.788 2.393l-.325.819c-1.155 2.587-2.77 4.53-5.425 5.62-3.683 1.308-8.798 1.658-12.422.007-2.385-1.495-4.086-3.173-5.144-5.816l-.374-.827c-.73-2.133-.645-4.352-.67-6.577l-.035-2.097c.175-2.403.767-3.15 2.477-4.736 3.074-1.895 6.477-1.955 10.004-1.93"/><path fill="#75E8F0" d="m55.63 28.218 8.508.001 8.506-.02c6.795.197 6.795.197 8.37 1.773.21 1.465.21 1.465.197 3.131l.013 1.663c-.23 1.66-.582 2.265-1.785 3.398-1.376.688-3.315.398-4.805.413l-2.31.036c-2.31-.153-3.112-.527-4.622-2.162-1.202-1.76-1.245-3.083-1.181-5.219h-4.727l.08 1.418c-.008 1.705-.386 2.81-1.34 4.253-2.01 1.957-3.947 1.777-6.656 1.753l-2.365.001c-2.006-.178-2.006-.178-3.582-1.438-.469-1.407-.394-2.756-.413-4.234l-.036-1.791c.387-4.442 3.937-2.865 8.148-2.976"/><path fill="#F97B0C" d="m63.96 44.367 1.83-.016c1.56.106 2.532.296 3.881 1.06.375.748.375.748.316 1.575-.917 1.71-2.38 2.14-4.096 2.836-.412.346-.412.346-.414 1.201.018.994.018.994.532 1.654 1.234.91 2.59 1.54 3.978 2.186l-.316 1.26c-1.873-.13-2.894-.496-4.41-1.575-.752-.392-.752-.392-1.576-.315l-1.044.748c-1.294.922-2.118 1.06-3.682 1.142l-.315-1.26.63-.374.945-.572 1.34-.807c1.174-.622 1.174-.622 1.496-1.398q.019-.945 0-1.89l-.714-.21c-1.5-.483-2.532-.821-3.638-1.977-.374-.964-.374-.964-.236-1.83 1.247-1.797 3.549-1.434 5.494-1.438"/><path fill="#78E6EB" d="M91.097 25.246c1.791.912 2.757 2.129 3.722 3.86.473 1.495.382 2.487.058 4.017-.645 1.184-1.083 1.772-2.205 2.52h-.945l-.463-.98c-1.311-2.712-2.7-5.17-4.578-7.527 1.07-2.14 2.144-2.072 4.41-1.89"/><path fill="#78E6EC" d="M39.74 25.246c.944.315.944.315 1.575.63-.043 1.946-.779 2.944-1.895 4.44-1.14 1.667-1.968 3.505-2.832 5.327-1.716-.429-2.175-1.057-3.15-2.52-.348-1.748-.109-3.154.472-4.825 1.492-2.2 3.042-3.418 5.83-3.052"/><path fill="#FD7704" d="m71.838 79.675 2.203-.005c2.716.118 4.964.907 6.913 2.86 1.683 1.938 1.743 3.073 1.725 5.595-.142 1.715-.837 2.514-2.079 3.622l-.531.61c.474 2.37 1.577 4.453 2.572 6.646.579 1.546.579 1.546.264 3.121-.8.4-1.392.379-2.285.394l-.89.025c-1.187-.133-1.829-.355-2.812-1.049-.714-1.31-.714-1.31-1.339-2.855-.68-1.87-.68-1.87-1.812-3.446q-1.575-.04-3.15 0l-.036 1.345-.063 1.746-.055 1.739c-.161 1.471-.161 1.471-1.107 2.416-.875.125-.875.125-1.87.119l-.994.006c-.917-.125-.917-.125-2.177-1.07a190 190 0 0 1-.118-8.428l.013-4.682c.156-5.794.156-5.794 2.31-8 1.789-.894 3.326-.713 5.318-.709"/><path fill="#7AE4E7" d="M73.098 84.973c1.228.032 1.85.096 2.954.669.551.729.551.729.551 2.304-1.41 1.058-1.807 1.067-3.505 1.044l-1.184-.004c-.982-.095-.982-.095-1.612-.725-.099-1.083-.099-1.083 0-2.206 1.094-1.094 1.316-1.08 2.796-1.083"/><path fill="#FD7805" d="m91.825 79.557 2.222.007c3.065.278 5.284 1.135 7.447 3.34 1.212 1.585 1.46 2.871 1.383 4.815-.251 1.756-.951 2.985-2.249 4.165l-.71.473c.553 2.209 1.618 4.244 2.542 6.32.61 1.557.61 1.557.61 3.132-.868.868-1.409.735-2.62.749l-1.079.027c-1.29-.183-1.72-.446-2.603-1.406-.694-1.353-.694-1.353-1.34-2.895-.574-1.644-.574-1.644-1.496-3.091a39 39 0 0 0-1.752-.177l-.967-.08-.746-.059.044 1.415.034 1.835.044 1.827-.123 1.54c-1.329.997-1.602 1.075-3.17 1.064l-.995.006c-.876-.125-.876-.125-1.821-1.07a268 268 0 0 1-.118-8.92l-.007-4.96c.15-4.895.15-4.895 1.97-7.02 1.86-1.197 3.307-1.069 5.5-1.037"/><path fill="#7AE4E9" d="M94.878 85.11c1.162.63 1.162.63 1.89 1.26-.059.906-.059.906-.315 1.89-1.177.644-2.2.708-3.525.69l-.998-.006c-.833-.053-.833-.053-1.464-.368-.058-1.378-.058-1.378 0-2.836 1.404-.935 2.766-.831 4.412-.63"/><path fill="#FE7704" d="m46.642 79.598.993.018.996.001c.876.137.876.137 1.82 1.082.113 2.414.17 4.83.198 7.247-.172 4.134-.172 4.134.433 8.192q1.171.012 2.343.02l1.318.01c1.014.093 1.014.093 1.38-.345.079-3.912.122-7.823.165-11.734.15-3.39.15-3.39 1.095-4.335.955-.137.955-.137 2.048-.138l1.093-.018c.955.156.955.156 1.9 1.416.095 2.867.123 5.737.119 8.606l.007 4.762c-.167 5.263-.167 5.263-1.799 6.896-2.343 1.471-4.749 1.267-7.424 1.28l-2.518.027c-2.042-.133-3.103-.282-4.768-1.406-2.623-3.228-1.654-7.753-1.674-11.658l-.036-4.706c.171-4.853.171-4.853 2.311-5.217"/><path fill="#FC7806" d="m33.182 79.577 2.947-.021c2.94.218 4.82.635 6.78 2.876 1.026 1.853 1.04 3.396.926 5.514-.453 1.24-.453 1.24-.945 2.205l-.315.63q.46.795.945 1.576c.624 2.496.376 4.572-.63 6.932-1.535 1.918-3.275 2.751-5.672 3.15-1.47.055-2.94.084-4.41.099l-2.364.035c-2.745-.179-2.745-.179-3.938-1.394-1.91-3.342-1.414-6.443-1.398-10.26v-4.392c.137-3.622.137-3.622 1.083-5.513 2.283-1.826 4.099-1.438 6.99-1.437"/><path fill="#7CE3E5" d="m34.009 93.223 1.187-.024c1.077.103 1.077.103 2.337 1.048.119.966.119.966 0 1.89-.63.631-.63.631-1.863.692l-1.484-.022-1.49-.017-1.149-.022c-.03-2.43-.03-2.43 0-3.15.606-.607 1.656-.385 2.462-.395"/><path fill="#77E6ED" d="M31.547 85.11q1.24-.012 2.481-.02l1.396-.01c1.164.03 1.164.03 1.794.345.04.906.04.906 0 1.89-.63.63-.63.63-1.783.703l-1.387-.013-1.39-.006c-1.11-.053-1.11-.053-1.426-.368-.074-1.743-.074-1.743.315-2.52"/><circle cx="64" cy="64" r="60" fill="#FFF" transform="translate(64)"/><path fill="#D43939" d="M125.04 0h5.265l.485.025.375.025c16.885.845 33.1 8.58 44.33 21.22-3.945.285-7.85-.105-11.775.415-6.855-5.72-15.015-9.82-23.75-11.72-9.965-2.205-20.57-1.615-30.215 1.725-6.41 2.205-12.335 5.62-17.55 9.94-3.95-.425-7.96-.18-11.935-.26a64.3 64.3 0 0 1 11.48-10.125C101.565 4.45 113.135.645 125.04 0"/><path fill="#DB7739" d="m175.495 21.27.06.06a64.3 64.3 0 0 1 12.795 21.755c-3.02-.405-6.065-.08-9.115-.26-3.38-8.2-8.79-15.385-15.515-21.14 3.925-.52 7.83-.13 11.775-.415m-95.225.1c3.975.08 7.985-.165 11.935.26-6.8 5.71-12.17 13.055-15.61 21.24-1.865.01-3.73.02-5.595.04-1.165-.025-2.21.12-3.235-.56C70.57 34.64 74.8 27.48 80.27 21.37m26.825 11.41c3.05-.755 6.18-.285 8.945 1.17 1.57.835 2.875 1.84 4.56 2.445 2.905 1.11 6.33.97 9.4.925 3.12-.035 6.11-.865 8.71-2.615 2.115-1.435 4.205-2.15 6.79-2.125 6.95-.345 13.65 3.98 16.46 10.285-1.965.01-3.925.015-5.89.015-1.6-2.11-3.74-3.76-6.25-4.65-1.67-.53-3.595-.415-5.335-.38-2.54.01-4.725 1.61-6.94 2.705-2.47 1.36-5.22 2.155-8.045 2.22-3.765.105-7.765-.245-11.095-2.17-1.835-.96-3.815-2.48-5.88-2.795-2.905-.315-5.795-.125-8.395 1.31-1.79.915-3.17 2.325-4.325 3.945a60 60 0 0 0-5.695-.23c2.425-5.285 7.24-9.055 12.985-10.055"/><path fill="#D2D73C" d="m67.71 42.485.055-.135c1.025.68 2.07.535 3.235.56 1.865-.02 3.73-.03 5.595-.04-3.33 8.05-4.685 16.74-4.215 25.425-.18-1.345-.145-2.655-.085-4.005-2.74-.32-5.53-.09-8.295-.16v-2.905c.405-6.395 1.55-12.695 3.71-18.74m26.4.35c1.9-.005 3.795.055 5.695.23-1.945 3.25-2.705 7.045-1.55 10.71.92 2.725 2.84 4.33 4.515 6.67-.095 1.235-.28 2.455-.465 3.68-1.8.01-3.6.02-5.4.015-.09-1.19.195-2.47-.58-3.445-1.54-2.275-2.945-4.42-3.485-7.17-.51-3.645-.335-7.325 1.27-10.69m85.125-.01c3.05.18 6.095-.145 9.115.26 2.325 6.77 3.54 13.9 3.51 21.06-2.76-.005-5.515-.015-8.27-.045-.375-2.78-.225-5.58-.7-8.345-.735-4.435-1.88-8.795-3.655-12.93m-64.63 2.095c.945.925.675 2.115-.2 2.97-2.295 2.095-4.935 3.86-7.535 5.555-.98.705-2.37.375-3.525.36-.915-1.705-.795-3.495-.555-5.345 1.135-4.98 8.155-7.23 11.815-3.54m29.89-1.675c1.495-.115 3.325-.26 4.625.615 2.53 1.51 4.25 4.17 4.035 7.18-.045 1.35-.835 2.16-1.58 3.19-2.16.15-3.395-1.13-5.075-2.215-1.74-1.275-3.54-2.49-5.19-3.875-.745-.665-1.355-1.675-.745-2.64.65-1.455 2.475-2.015 3.93-2.255m11.575-.365c1.965 0 3.925-.005 5.89-.015.77 1.815 1.4 3.63 1.375 5.63 0 2.24.07 4.75-.635 6.895-.755 2.26-2.105 4.155-3.47 6.08-.02.89-.04 1.78-.05 2.67q-2.67-.031-5.34.005c-.145-1.46-.5-3.245.02-4.64 1.085-1.535 2.54-2.615 3.375-4.36 1.19-2.135.95-4.3.94-6.655.03-2.07-1.02-3.92-2.105-5.61"/><path fill="#45A446" d="M96.905 64.14c1.8.005 3.6-.005 5.4-.015-.065.505-.135 1.015-.2 1.525 4.83-1.75 10.095-1.725 14.78.465 3.79 1.66 6.79 4.575 8.875 8.12 2.055-.425 5.32-.595 6.67 1.365-.195 2.34-2.295 4.245-4.655 4.3.255 1.635.42 3.27.295 4.93-1.61.005-3.215.01-4.825.02.31-4.12-.985-8.225-3.91-11.19-3.415-3.665-8.73-5.26-13.605-4.065-6.85 1.595-11.605 8.235-10.935 15.245-1.545-.005-3.085.03-4.63.015l-.205-.76c-.205-5.945 2.39-11.56 6.93-15.365.03-1.53.025-3.06.015-4.59m86.685-.04c2.755.03 5.51.04 8.27.045 0 7.015-1.15 14.03-3.415 20.675-2.82-.09-5.815.24-8.585-.155l-.085-.295c1.515-4 2.64-8.14 3.22-12.38.39-2.62.365-5.24.595-7.89M64 64.13c2.765.07 5.555-.16 8.295.16-.06 1.35-.095 2.66.085 4.005.63 5.675 1.735 11.215 3.86 16.535-2.94-.005-5.875.005-8.815.015-2-5.78-3.035-11.795-3.425-17.89zm89.84.015q2.67-.036 5.34-.005c-.05 3.995.165 8.31-.58 12.225-.68 3-2.21 5.86-3.79 8.48-1.845.005-3.68.055-5.52-.17q.051-.496.11-.985c1.155-1.695 2.255-3.395 3.01-5.31 1.925-4.425 2.105-9.52 1.43-14.235m-16.575 4.22c2.665-.7 6.535.73 7.135 3.66.225 1.165-.5 1.605-1.485 1.905-2.955.74-6.065 1.025-9.105.765-.275-.745-.645-1.345-.395-2.165.565-1.835 2.035-3.51 3.85-4.165"/><path fill="#45A446" d="M103.575 76.865c.545 2.135 1.135 4.255 1.52 6.43.765-1.95 1.085-4.035 1.815-5.99.59-.96 2.775-.37 3.785-.56 1.02 2.12 1.335 4.29 1.87 6.595.665-2.15 1.205-4.335 1.815-6.495a66 66 0 0 1 4.33-.02c.21 2.665-1.235 5.4-1.775 8.005-5.345.035-10.695-.02-16.04.02a506 506 0 0 0-2.06-7.285c.91-1.345 3.335-.64 4.74-.7"/><path fill="#5050DB" d="M149.4 83.69q-.059.489-.11.985c1.84.225 3.675.175 5.52.17a27.9 27.9 0 0 1-12.07 10.4c-6.665 2.965-14.105 4.115-21.315 2.785-5.645 4.695-13.56 5.895-20.27 2.825-6.555-2.935-11.01-9.57-11.195-16.76l.205.76c1.545.015 3.085-.02 4.63-.015.435 3.655 2.11 7.055 4.935 9.445 4.225 3.705 10.53 4.515 15.565 2.01a14.47 14.47 0 0 0 7.95-11.445c1.61-.01 3.215-.015 4.825-.02-.275 3.1-1.17 5.855-2.705 8.555 8.94.615 18.33-2.57 24.035-9.695m30.375.68.085.295c2.77.395 5.765.065 8.585.155a64.3 64.3 0 0 1-12.44 21.52c-2.84-.11-5.68-.04-8.52-.045-.92.03-1.715-.18-2.565-.51 6.52-5.91 11.675-13.2 14.855-21.415m-103.535.46a57.1 57.1 0 0 0 14.72 20.99c-.975.295-1.935.5-2.96.47-2.725-.03-5.445-.02-8.17.015a64.1 64.1 0 0 1-12.405-21.46c2.94-.01 5.875-.02 8.815-.015"/><path fill="#5050DB" d="M100.895 84.85c5.345-.04 10.695.015 16.04-.02-.54 1.855-.99 3.735-1.55 5.585-.195.565-.35 1.235-1.08 1.24-1.025.08-2.09.08-3.12-.005-.79-.015-.895-.58-1.11-1.21-.45-1.48-.765-3.005-1.125-4.505-.58 1.945-.895 3.895-1.715 5.765-1.44-.03-2.885-.04-4.325-.055-.84-2.225-1.355-4.515-2.015-6.795"/><path fill="#7B3A79" d="m90.96 105.82.015.01c4.925 4.275 10.455 7.795 16.55 10.15 10.87 4.325 23.165 5.03 34.475 2.075 8.49-2.2 16.35-6.475 22.92-12.27.85.33 1.645.54 2.565.51 2.84.005 5.68-.065 8.52.045-9.605 11.01-22.965 18.555-37.39 20.95-4.565.93-9.335.435-14.115.565-4.37.17-8.795-.745-13.02-1.82-12.24-3.225-23.33-10.21-31.65-19.73 2.725-.035 5.445-.045 8.17-.015 1.025.03 1.985-.175 2.96-.47"/></svg>
