<svg xmlns="http://www.w3.org/2000/svg" viewBox="0 0 128 128"><circle cx="64" cy="64" r="64" fill="#75e8f1"/><path fill="#fd7805" d="M67.15 16.108v2.52l1.537-.157c2.636-.224 5.272-.184 7.916-.157l-.295.729q-.35.886-.65 1.791l1.359.375c1.569.466 3.014 1.095 4.487 1.804.832.396.832.396 2.03.657l.63-1.26c2.367-1.972 4.088-2.77 7.248-2.52 3.22.764 5.656 2.937 7.404 5.69 1.557 2.88 1.718 5.89 1.418 9.118-.895 2.482-2.154 4.144-4.53 5.337q-.723.333-1.457.65c.205 1.93.738 3.683 1.32 5.533a397 397 0 0 1 2.284 7.62l.472 1.63c.472 2.252.814 4.639-.315 6.74l-.365.725c-3.04 4.082-9.109 5.863-13.793 7.369l-.913.328c-13.997 4.794-30.998 3.252-44.31-2.876-3.834-1.882-7.187-3.619-8.655-7.85-.69-3.448.853-6.85 1.89-10.083q.53-1.77 1.044-3.544l.469-1.6c.343-1.34.558-2.619.693-3.993l-.623-.267c-2.364-1.084-3.758-2.28-5.01-4.616-.94-3.767-.52-7.192 1.44-10.516 1.636-2.437 3.54-4.132 6.28-5.218 2.522-.421 4.51-.182 6.735 1.082.635.587.635.587 1.201 1.202l1.004 1.004c1.918-.383 3.477-1.14 5.258-1.95 3.247-1.443 6.467-2.694 9.866-3.721l1.483-.463c3.644-1.113 3.644-1.113 5.449-1.113"/><path fill="#76e7ef" d="m64.06 40.271 2.257.003c3.405.155 6.669.574 9.164 3.069 2.104 2.925 1.788 6.608 1.28 10.072a18 18 0 0 1-.788 2.393l-.325.819c-1.155 2.587-2.77 4.53-5.425 5.62-3.683 1.308-8.798 1.658-12.422.007-2.385-1.495-4.086-3.173-5.144-5.816l-.374-.827c-.73-2.133-.645-4.352-.67-6.577l-.035-2.097c.175-2.403.767-3.15 2.477-4.736 3.074-1.895 6.477-1.955 10.004-1.93"/><path fill="#75e8f0" d="m55.63 28.218 8.508.001 8.506-.02c6.795.197 6.795.197 8.37 1.773.21 1.465.21 1.465.197 3.131l.013 1.663c-.23 1.66-.582 2.265-1.785 3.398-1.376.688-3.315.398-4.805.413l-2.31.036c-2.31-.153-3.112-.527-4.622-2.162-1.202-1.76-1.245-3.083-1.181-5.219h-4.727l.08 1.418c-.008 1.705-.386 2.81-1.34 4.253-2.01 1.957-3.947 1.777-6.656 1.753l-2.365.001c-2.006-.178-2.006-.178-3.582-1.438-.469-1.407-.394-2.756-.413-4.234l-.036-1.791c.387-4.442 3.937-2.865 8.148-2.976"/><path fill="#f97b0c" d="m63.96 44.367 1.83-.016c1.56.106 2.532.296 3.881 1.06.375.748.375.748.316 1.575-.917 1.71-2.38 2.14-4.096 2.836-.412.346-.412.346-.414 1.201.018.994.018.994.532 1.654 1.234.91 2.59 1.54 3.978 2.186l-.316 1.26c-1.873-.13-2.894-.496-4.41-1.575-.752-.392-.752-.392-1.576-.315l-1.044.748c-1.294.922-2.118 1.06-3.682 1.142l-.315-1.26.63-.374.945-.572 1.34-.807c1.174-.622 1.174-.622 1.496-1.398q.019-.945 0-1.89l-.714-.21c-1.5-.483-2.532-.821-3.638-1.977-.374-.964-.374-.964-.236-1.83 1.247-1.797 3.549-1.434 5.494-1.438"/><path fill="#78e6eb" d="M91.097 25.246c1.791.912 2.757 2.129 3.722 3.86.473 1.495.382 2.487.058 4.017-.645 1.184-1.083 1.772-2.205 2.52h-.945l-.463-.98c-1.311-2.712-2.7-5.17-4.578-7.527 1.07-2.14 2.144-2.072 4.41-1.89"/><path fill="#78e6ec" d="M39.74 25.246c.944.315.944.315 1.575.63-.043 1.946-.779 2.944-1.895 4.44-1.14 1.667-1.968 3.505-2.832 5.327-1.716-.429-2.175-1.057-3.15-2.52-.348-1.748-.109-3.154.472-4.825 1.492-2.2 3.042-3.418 5.83-3.052"/><path fill="#fd7704" d="m71.838 79.675 2.203-.005c2.716.118 4.964.907 6.913 2.86 1.683 1.938 1.743 3.073 1.725 5.595-.142 1.715-.837 2.514-2.079 3.622l-.531.61c.474 2.37 1.577 4.453 2.572 6.646.579 1.546.579 1.546.264 3.121-.8.4-1.392.379-2.285.394l-.89.025c-1.187-.133-1.829-.355-2.812-1.049-.714-1.31-.714-1.31-1.339-2.855-.68-1.87-.68-1.87-1.812-3.446q-1.575-.04-3.15 0l-.036 1.345-.063 1.746-.055 1.739c-.161 1.471-.161 1.471-1.107 2.416-.875.125-.875.125-1.87.119l-.994.006c-.917-.125-.917-.125-2.177-1.07a190 190 0 0 1-.118-8.428l.013-4.682c.156-5.794.156-5.794 2.31-8 1.789-.894 3.326-.713 5.318-.709"/><path fill="#7ae4e7" d="M73.098 84.973c1.228.032 1.85.096 2.954.669.551.729.551.729.551 2.304-1.41 1.058-1.807 1.067-3.505 1.044l-1.184-.004c-.982-.095-.982-.095-1.612-.725-.099-1.083-.099-1.083 0-2.206 1.094-1.094 1.316-1.08 2.796-1.083"/><path fill="#fd7805" d="m91.825 79.557 2.222.007c3.065.278 5.284 1.135 7.447 3.34 1.212 1.585 1.46 2.871 1.383 4.815-.251 1.756-.951 2.985-2.249 4.165l-.71.473c.553 2.209 1.618 4.244 2.542 6.32.61 1.557.61 1.557.61 3.132-.868.868-1.409.735-2.62.749l-1.079.027c-1.29-.183-1.72-.446-2.603-1.406-.694-1.353-.694-1.353-1.34-2.895-.574-1.644-.574-1.644-1.496-3.091a39 39 0 0 0-1.752-.177l-.967-.08-.746-.059.044 1.415.034 1.835.044 1.827-.123 1.54c-1.329.997-1.602 1.075-3.17 1.064l-.995.006c-.876-.125-.876-.125-1.821-1.07a268 268 0 0 1-.118-8.92l-.007-4.96c.15-4.895.15-4.895 1.97-7.02 1.86-1.197 3.307-1.069 5.5-1.037"/><path fill="#7ae4e9" d="M94.878 85.11c1.162.63 1.162.63 1.89 1.26-.059.906-.059.906-.315 1.89-1.177.644-2.2.708-3.525.69l-.998-.006c-.833-.053-.833-.053-1.464-.368-.058-1.378-.058-1.378 0-2.836 1.404-.935 2.766-.831 4.412-.63"/><path fill="#fe7704" d="m46.642 79.598.993.018.996.001c.876.137.876.137 1.82 1.082.113 2.414.17 4.83.198 7.247-.172 4.134-.172 4.134.433 8.192q1.171.012 2.343.02l1.318.01c1.014.093 1.014.093 1.38-.345.079-3.912.122-7.823.165-11.734.15-3.39.15-3.39 1.095-4.335.955-.137.955-.137 2.048-.138l1.093-.018c.955.156.955.156 1.9 1.416.095 2.867.123 5.737.119 8.606l.007 4.762c-.167 5.263-.167 5.263-1.799 6.896-2.343 1.471-4.749 1.267-7.424 1.28l-2.518.027c-2.042-.133-3.103-.282-4.768-1.406-2.623-3.228-1.654-7.753-1.674-11.658l-.036-4.706c.171-4.853.171-4.853 2.311-5.217"/><path fill="#fc7806" d="m33.182 79.577 2.947-.021c2.94.218 4.82.635 6.78 2.876 1.026 1.853 1.04 3.396.926 5.514-.453 1.24-.453 1.24-.945 2.205l-.315.63q.46.795.945 1.576c.624 2.496.376 4.572-.63 6.932-1.535 1.918-3.275 2.751-5.672 3.15-1.47.055-2.94.084-4.41.099l-2.364.035c-2.745-.179-2.745-.179-3.938-1.394-1.91-3.342-1.414-6.443-1.398-10.26v-4.392c.137-3.622.137-3.622 1.083-5.513 2.283-1.826 4.099-1.438 6.99-1.437"/><path fill="#7ce3e5" d="m34.009 93.223 1.187-.024c1.077.103 1.077.103 2.337 1.048.119.966.119.966 0 1.89-.63.631-.63.631-1.863.692l-1.484-.022-1.49-.017-1.149-.022c-.03-2.43-.03-2.43 0-3.15.606-.607 1.656-.385 2.462-.395"/><path fill="#77e6ed" d="M31.547 85.11q1.24-.012 2.481-.02l1.396-.01c1.164.03 1.164.03 1.794.345.04.906.04.906 0 1.89-.63.63-.63.63-1.783.703l-1.387-.013-1.39-.006c-1.11-.053-1.11-.053-1.426-.368-.074-1.743-.074-1.743.315-2.52"/></svg>
