<svg xmlns="http://www.w3.org/2000/svg" viewBox="0 0 128 128"><path fill="#fff" d="M64 128c35.346 0 64-28.654 64-64S99.346 0 64 0 0 28.654 0 64s28.654 64 64 64"/><path fill="url(#_fbtc)" fill-rule="evenodd" d="M84.744 58.474c0 11.482-9.29 20.788-20.752 20.788s-20.75-9.308-20.75-20.788C43.242 40.862 63.48 19 63.992 19s20.752 21.862 20.752 39.474m-8.396.002c0 6.836-5.532 12.378-12.356 12.378s-12.356-5.542-12.356-12.378 5.43-12.276 12.166-12.378v12.758s7.83-3.142 11.654-5.02c.58 1.434.898 2.998.898 4.638l-.002.002z"/><path fill="url(#_ftc-b)" d="m59.334 91.542 33.61-3.606c.39 3.678.3 7.404-.28 11.064l-33.47-2.078c.284-1.78.332-3.588.14-5.38"/><path fill="url(#_fbtc-c)" d="M68.142 81.704 35 88.368a42.2 42.2 0 0 0 3.578 10.468l31.306-12.042a20.5 20.5 0 0 1-1.744-5.092z"/><defs><linearGradient id="_fbtc" x1="63.688" x2="64.156" y1="20.25" y2="78.908" gradientUnits="userSpaceOnUse"><stop stop-color="#ff05ff"/><stop offset=".56" stop-color="#8323ff"/><stop offset=".76" stop-color="#8f00ff"/><stop offset=".98" stop-color="#4e68ff"/></linearGradient><linearGradient id="_ftc-b" x1="100.23" x2="66.218" y1="88.382" y2="98.052" gradientUnits="userSpaceOnUse"><stop stop-color="#dfb6ff"/><stop offset=".49" stop-color="#8f00ff"/><stop offset=".99" stop-color="#5263ff"/></linearGradient><linearGradient id="_fbtc-c" x1="66.026" x2="28.794" y1="89.15" y2="92.452" gradientUnits="userSpaceOnUse"><stop stop-color="#5263ff"/><stop offset=".46" stop-color="#8f00ff"/><stop offset=".99" stop-color="#dfb6ff"/></linearGradient></defs><path fill="url(#_concrete)" d="M64 128c35.346 0 64-28.654 64-64S99.346 0 64 0 0 28.654 0 64s28.654 64 64 64" transform="translate(64)scale(.5)"/><path d="M96.159 46.155c4.578 0 8.36-1.987 9.503-6.351l-2.978-1.013c-.803 3.078-3.436 4.329-6.262 4.329-4.772 0-6.912-2.885-6.912-7.447v-7.094c0-4.208 2.022-7.447 6.642-7.447 2.557 0 5.459 1.09 6.526 4.484l2.979-1.012c-1.296-4.13-4.58-6.507-9.165-6.507-6.338 0-10.155 4.286-10.155 9.979v8.148c0 5.693 3.477 9.937 9.81 9.937z"/><path fill-rule="evenodd" d="M81.6 11.2h28.8v2.618H81.6zm0 39.238h28.8v2.617H81.6z"/><defs transform="translate(64)scale(.5)"><linearGradient id="_concrete" x1="64" x2="64" y1="0" y2="128" gradientUnits="userSpaceOnUse"><stop stop-color="#f6e189"/><stop offset="1" stop-color="#f4d037"/></linearGradient></defs></svg>
