<svg xmlns="http://www.w3.org/2000/svg" viewBox="0 0 128 128"><circle cx="64" cy="64" r="64" fill="#111"/><circle cx="64" cy="64" r="64" fill="url(#_usde)" fill-opacity=".7"/><path fill="none" stroke="url(#_usde-b)" stroke-width="2.3" d="M64.016 1.16C29.3 1.16 1.16 29.3 1.16 64.016s28.14 62.856 62.856 62.856 62.856-28.14 62.856-62.856S98.732 1.16 64.016 1.16Z"/><path fill="#fff" d="M53.96 12.281c-24.273 4.674-42.614 26.045-42.614 51.67 0 25.626 18.341 46.997 42.613 51.671v-4.931c-21.596-4.61-37.778-23.789-37.778-46.74 0-22.95 16.182-42.129 37.778-46.738zm20.113 4.964v-4.932c24.24 4.706 42.516 26.045 42.516 51.639 0 25.593-18.276 46.932-42.516 51.638v-4.932c21.532-4.641 37.681-23.788 37.681-46.706S95.605 21.887 74.073 17.245"/><path fill="#fff" d="M71.462 62.211c4.03.774 7.124 2.256 9.348 4.416 2.224 2.127 3.32 4.867 3.32 8.187v5.255c0 3.996-1.45 7.22-4.32 9.67-2.868 2.417-6.672 3.61-11.346 3.61h-1.611v8.348h-5.544v-8.348H59.6c-3.094 0-5.802-.677-8.187-2.063-2.353-1.418-4.223-3.385-5.544-5.899-1.29-2.579-1.934-5.512-1.934-8.864h5.544c0 3.384.934 6.156 2.772 8.284 1.902 2.063 4.416 3.126 7.478 3.126h8.574q4.545 0 7.35-2.127c1.837-1.483 2.772-3.384 2.772-5.737v-5.255c0-1.87-.71-3.449-2.096-4.77-1.353-1.322-3.19-2.16-5.544-2.547l-13.892-2.45c-3.9-.709-6.963-2.191-9.123-4.415-2.16-2.257-3.255-5.061-3.255-8.446V47.77c0-3.997 1.386-7.156 4.158-9.509 2.836-2.417 6.575-3.61 11.185-3.61h1.386v-8.348h5.544v8.348h1.773c4.384 0 7.897 1.418 10.573 4.255 2.675 2.772 4.029 6.479 4.029 11.056h-5.544c0-2.998-.838-5.415-2.482-7.22q-2.466-2.708-6.576-2.708h-8.735c-2.934 0-5.287.71-7.027 2.128-1.74 1.354-2.611 3.223-2.611 5.576v4.416q0 2.853 1.934 4.835c1.354 1.322 3.159 2.192 5.48 2.611z"/><defs><radialGradient id="_usde" cx="0" cy="0" r="1" gradientTransform="matrix(0 132.529 -93.2872 0 64.088 19.482)" gradientUnits="userSpaceOnUse"><stop offset=".031" stop-color="#3A3A3A"/><stop offset="1" stop-color="#1C1C1C"/></radialGradient><linearGradient id="_usde-b" x1="64.008" x2="64.008" y1="0" y2="128.016" gradientUnits="userSpaceOnUse"><stop stop-color="#fff"/><stop offset="1" stop-color="#111"/></linearGradient></defs><svg xmlns="http://www.w3.org/2000/svg" viewBox="0 0 128 128"><path fill="#F6E189" d="M64 0h64v64H64z"/><path d="M81.033 10.243c9.99-.006 19.982-.003 29.972-.003-.006.901-.003 1.8.02 2.7-9.996.03-19.997-.007-29.993.02q-.004-1.359.001-2.717m15.108 7.253c1.81-.074 3.72.23 5.345 1.053 2.182 1.16 3.925 3.276 4.545 5.674-1.003.365-2.016.697-3.026 1.044-.375-.995-.788-1.928-1.582-2.67-1.38-1.46-3.334-1.957-5.282-2.006-1.826.083-3.593.433-4.87 1.843-1.502 1.485-1.928 3.405-2.059 5.442 0 2.75.006 5.498 0 8.248.089 1.446.25 2.962 1.004 4.228.68 1.143 1.567 2.109 2.842 2.582 2.344.856 4.995.834 7.239-.304 1.331-.819 2.361-2.054 2.671-3.616 1.03.33 2.042.714 3.066 1.064-.253 1.357-.967 2.498-1.829 3.547-1.658 1.806-3.945 2.717-6.36 2.922-1.797.315-3.695.064-5.439-.427-3.054-.93-5.353-3.559-6.084-6.639-.361-1.306-.312-2.585-.321-3.925.011-2.845-.017-5.69.014-8.531.028-2.389.992-4.645 2.56-6.425 1.966-2.074 4.733-3.104 7.566-3.104m-15.11 33.636c9.99 0 19.98.003 29.967-.003q.01 1.376.005 2.753-14.985-.01-29.972 0a420 420 0 0 1 0-2.75"/></svg></svg>
