<svg xmlns="http://www.w3.org/2000/svg" viewBox="0 0 128 128"><path fill="#162e2f" d="M64 128c35.346 0 64-28.654 64-64S99.346 0 64 0 0 28.654 0 64s28.654 64 64 64"/><path fill="url(#_lbtc-a)" d="m75.2 39.84 9.92 12.4-9.92 12.4L92.56 75.8 75.2 86.96v22.32H18.77C7.174 97.697 0 81.686 0 64c0-17.044 6.663-32.53 17.525-44H75.2z"/><path fill="url(#_lbtc-b)" d="M0 40h48v12H0z"/><path fill="url(#_lbtc-c)" d="M48 88H0V76h48z"/><path fill="#c4fdf2" d="M95.084 47.43c-.953-9.745-9.365-12.998-19.98-13.91L75.08 20l-8.223.015.022 13.163c-2.161.004-4.37.05-6.566.098l-.021-13.25-8.218.013.02 13.515c-1.78.04-3.529.077-5.233.08l-.001-.042-11.341.015.016 8.789s6.072-.126 5.972-.014c3.33-.005 4.417 1.929 4.737 3.598.02 12.354.041 24.68.06 37.036-.144 1.05-.757 2.724-3.084 2.731.106.094-5.977.009-5.977.009l-1.617 9.83 10.7-.017c1.992-.001 3.951.03 5.876.037l.026 13.674 8.214-.013-.023-13.529c2.255.043 4.437.058 6.569.052l.018 13.466 8.224-.015-.02-13.649c13.822-.817 23.492-4.318 24.671-17.313.952-10.463-3.973-15.122-11.823-16.995 4.764-2.438 7.738-6.723 7.028-13.854zM83.629 76.686c.021 10.218-17.463 9.086-23.036 9.1l-.028-18.116c5.574-.008 23.046-1.642 23.064 9.016M79.76 51.132c.014 9.297-14.568 8.237-19.21 8.245l-.027-16.43c4.642-.009 19.219-1.51 19.237 8.185"/><defs><linearGradient id="_lbtc-a" x1="92.56" x2="-24" y1="64.64" y2="64.64" gradientUnits="userSpaceOnUse"><stop stop-color="#4e988d"/><stop offset="1" stop-color="#264c4a"/></linearGradient><linearGradient id="_lbtc-b" x1="24" x2="24" y1="40" y2="52" gradientUnits="userSpaceOnUse"><stop stop-opacity=".1"/><stop offset="1" stop-opacity="0"/></linearGradient><linearGradient id="_lbtc-c" x1="24" x2="24" y1="88" y2="76" gradientUnits="userSpaceOnUse"><stop stop-opacity=".1"/><stop offset="1" stop-opacity="0"/></linearGradient></defs><path fill="url(#_concrete)" d="M64 128c35.346 0 64-28.654 64-64S99.346 0 64 0 0 28.654 0 64s28.654 64 64 64" transform="translate(64)scale(.5)"/><path d="M96.159 46.155c4.578 0 8.36-1.987 9.503-6.351l-2.978-1.013c-.803 3.078-3.436 4.329-6.262 4.329-4.772 0-6.912-2.885-6.912-7.447v-7.094c0-4.208 2.022-7.447 6.642-7.447 2.557 0 5.459 1.09 6.526 4.484l2.979-1.012c-1.296-4.13-4.58-6.507-9.165-6.507-6.338 0-10.155 4.286-10.155 9.979v8.148c0 5.693 3.477 9.937 9.81 9.937z"/><path fill-rule="evenodd" d="M81.6 11.2h28.8v2.618H81.6zm0 39.238h28.8v2.617H81.6z" clip-rule="evenodd"/><defs transform="translate(64)scale(.5)"><linearGradient id="_concrete" x1="64" x2="64" y1="0" y2="128" gradientUnits="userSpaceOnUse"><stop stop-color="#f6e189"/><stop offset="1" stop-color="#f4d037"/></linearGradient></defs></svg>
