<svg xmlns="http://www.w3.org/2000/svg" viewBox="0 0 128 128"><circle cx="64" cy="64" r="64"/><circle cx="64" cy="64" r="61.5" fill="#fff"/><path d="M53.765 11.228c-24.37 4.709-42.78 26.211-42.78 52.026s18.41 47.318 42.78 52.026v-4.965c-21.672-4.633-37.928-23.943-37.928-47.06s16.256-42.428 37.928-47.06zm20.195 4.984v-4.965c24.328 4.743 42.692 26.225 42.692 52.007 0 25.783-18.364 47.266-42.69 52.009v-4.968c21.627-4.667 37.836-23.955 37.836-47.04S95.588 20.88 73.961 16.213"/><path d="M71.345 61.484q6.046 1.155 9.38 4.458 3.334 3.22 3.334 8.255v5.283q0 6.027-4.34 9.74-4.342 3.634-11.397 3.633h-1.626v8.421h-5.583v-8.42h-1.705q-4.651 0-8.216-2.064-3.568-2.147-5.583-5.944-1.936-3.88-1.938-8.915h5.583q0 5.117 2.79 8.337 2.868 3.137 7.52 3.137h8.606q4.572 0 7.364-2.147 2.79-2.229 2.791-5.778v-5.283q0-2.806-2.094-4.788-2.015-1.98-5.582-2.56l-13.955-2.475q-5.892-1.074-9.147-4.459t-3.256-8.502v-4.457q0-6.028 4.186-9.576 4.263-3.632 11.24-3.632h1.396v-8.42h5.582v8.42h1.782q6.59 0 10.622 4.292 4.03 4.21 4.03 11.143h-5.583q0-4.539-2.478-7.263-2.481-2.725-6.59-2.725h-8.76q-4.42 0-7.054 2.147-2.637 2.064-2.636 5.613v4.458q0 2.89 1.937 4.87 2.015 1.981 5.504 2.642z"/><path fill="#F6E189" d="M64 0h64v64H64z"/><path d="M81.033 10.243c9.99-.006 19.982-.003 29.972-.003-.006.902-.003 1.8.02 2.7-9.996.03-19.997-.006-29.993.02a432 432 0 0 1 0-2.717m15.11 7.253c1.81-.074 3.72.23 5.345 1.053 2.182 1.16 3.925 3.277 4.545 5.675-1.004.364-2.017.696-3.026 1.043-.375-.995-.788-1.928-1.581-2.67-1.38-1.46-3.335-1.957-5.283-2.006-1.826.083-3.592.433-4.87 1.843-1.502 1.485-1.928 3.405-2.059 5.442 0 2.75.006 5.498 0 8.249.089 1.445.25 2.96 1.004 4.227.68 1.143 1.568 2.11 2.842 2.582 2.344.856 4.995.834 7.239-.304 1.331-.82 2.361-2.054 2.671-3.615 1.03.33 2.042.714 3.066 1.063-.253 1.357-.967 2.498-1.829 3.547-1.658 1.807-3.945 2.717-6.36 2.922-1.797.315-3.695.065-5.438-.427-3.055-.93-5.354-3.558-6.085-6.639-.361-1.305-.312-2.585-.321-3.925.011-2.845-.017-5.69.014-8.531.029-2.389.993-4.645 2.56-6.425 1.966-2.074 4.733-3.104 7.566-3.104m-15.11 33.636c9.99 0 19.98.003 29.967-.003q.01 1.377.005 2.754c-9.989-.009-19.982-.006-29.971 0q-.005-1.378 0-2.751"/></svg>
