<svg xmlns="http://www.w3.org/2000/svg" viewBox="0 0 128 122"><path fill="url(#a)" d="M58.593 117.025a58.63 58.63 0 0 0 41.431-17.138 58.47 58.47 0 0 0 17.161-41.374 58.47 58.47 0 0 0-17.161-41.375A58.63 58.63 0 0 0 58.593 0 58.63 58.63 0 0 0 17.16 17.138 58.47 58.47 0 0 0 0 58.513a58.47 58.47 0 0 0 17.161 41.374 58.63 58.63 0 0 0 41.432 17.138"/><path fill="#fff" d="m34.278 61.73 24.316 14.378 24.274-14.377-24.274 34.23z"/><path fill="#F5EBE4" d="m34.278 61.73 24.316 14.378v19.853z"/><path fill="#fff" d="M58.594 70.759 34.278 56.38l24.316-38.24L82.91 56.38z"/><path fill="#F5EBE4" d="M58.594 70.759 34.278 56.38l24.316-38.24z"/><path fill="url(#b)" d="M100.233 67.515h-.17c-15.054 0-27.259 12.197-27.259 27.242S85.01 122 100.063 122h.17c15.055 0 27.259-12.197 27.259-27.243s-12.204-27.242-27.259-27.242"/><path fill="#fff" d="M110.775 92.564a3 3 0 0 1-.093-.4 6 6 0 0 0-.135-.588c.591-.894 3.414-5.553.202-8.544-3.566-3.32-7.731 1.031-7.731 1.031l.013.02c-1.873-.569-3.903-.635-5.878-.02-.024-.025-4.176-4.34-7.73-1.03-3.556 3.31.283 8.666.303 8.694a3 3 0 0 0-.095.385c-.385 2.292-3.004 3-3.004 6.991 0 3.993 2.74 7.276 8.332 7.276h2.294c.01.015.955 1.353 2.895 1.352 1.801-.002 2.99-1.34 3-1.352h2.19c5.591 0 8.331-3.206 8.331-7.276 0-3.717-2.271-4.587-2.894-6.54"/><defs><linearGradient id="a" x1="117.185" x2=".16" y1="0" y2="117.185" gradientUnits="userSpaceOnUse"><stop offset=".265" stop-color="#DFBF0E"/><stop offset=".82" stop-color="#D98E1F"/></linearGradient><linearGradient id="b" x1="100.148" x2="100.148" y1="67.515" y2="122" gradientUnits="userSpaceOnUse"><stop stop-color="#714800"/><stop offset="1" stop-color="#BA7600"/></linearGradient></defs><svg xmlns="http://www.w3.org/2000/svg" viewBox="0 0 128 128"><path fill="#F6E189" d="M64 0h64v64H64z"/><path d="M81.033 10.243c9.99-.006 19.982-.003 29.972-.003-.006.901-.003 1.8.02 2.7-9.996.03-19.997-.007-29.993.02q-.004-1.359.001-2.717m15.108 7.253c1.81-.074 3.72.23 5.345 1.053 2.182 1.16 3.925 3.276 4.545 5.674-1.003.365-2.016.697-3.026 1.044-.375-.995-.788-1.928-1.582-2.67-1.38-1.46-3.334-1.957-5.282-2.006-1.826.083-3.593.433-4.87 1.843-1.502 1.485-1.928 3.405-2.059 5.442 0 2.75.006 5.498 0 8.248.089 1.446.25 2.962 1.004 4.228.68 1.143 1.567 2.109 2.842 2.582 2.344.856 4.995.834 7.239-.304 1.331-.819 2.361-2.054 2.671-3.616 1.03.33 2.042.714 3.066 1.064-.253 1.357-.967 2.498-1.829 3.547-1.658 1.806-3.945 2.717-6.36 2.922-1.797.315-3.695.064-5.439-.427-3.054-.93-5.353-3.559-6.084-6.639-.361-1.306-.312-2.585-.321-3.925.011-2.845-.017-5.69.014-8.531.028-2.389.992-4.645 2.56-6.425 1.966-2.074 4.733-3.104 7.566-3.104m-15.11 33.636c9.99 0 19.98.003 29.967-.003q.01 1.376.005 2.753-14.985-.01-29.972 0a420 420 0 0 1 0-2.75"/></svg></svg>
