<svg xmlns="http://www.w3.org/2000/svg" viewBox="0 0 128 128"><circle cx="64" cy="64" r="64" fill="#00B988"/><path fill="#fff" d="M31.36 27.52h65.45v14.53H71.357v14.529H56.813v-14.53H31.36zm25.453 29.059v29.059H42.268V56.579zm14.546 29.059H85.9V56.579H71.357v29.059H56.815v14.529h14.544z"/><svg xmlns="http://www.w3.org/2000/svg" fill="none" viewBox="0 0 128 128"><path fill="#F6E189" d="M64 0h64v64H64z"/><path fill="#000" d="M81.033 10.243c9.99-.006 19.982-.003 29.972-.003-.006.901-.003 1.8.02 2.7-9.996.03-19.997-.007-29.993.02q-.004-1.359.001-2.717m15.108 7.253c1.81-.074 3.72.23 5.345 1.053 2.182 1.16 3.925 3.276 4.545 5.674-1.003.365-2.016.697-3.026 1.044-.375-.995-.788-1.928-1.582-2.67-1.38-1.46-3.334-1.957-5.282-2.006-1.826.083-3.593.433-4.87 1.843-1.502 1.485-1.928 3.405-2.059 5.442 0 2.75.006 5.498 0 8.248.089 1.446.25 2.962 1.004 4.228.68 1.143 1.567 2.109 2.842 2.582 2.344.856 4.995.834 7.239-.304 1.331-.819 2.361-2.054 2.671-3.616 1.03.33 2.042.714 3.066 1.064-.253 1.357-.967 2.498-1.829 3.547-1.658 1.806-3.945 2.717-6.36 2.922-1.797.315-3.695.064-5.439-.427-3.054-.93-5.353-3.559-6.084-6.639-.361-1.306-.312-2.585-.321-3.925.011-2.845-.017-5.69.014-8.531.028-2.389.992-4.645 2.56-6.425 1.966-2.074 4.733-3.104 7.566-3.104m-15.11 33.636c9.99 0 19.98.003 29.967-.003q.01 1.376.005 2.753-14.985-.01-29.972 0a420 420 0 0 1 0-2.75"/></svg></svg>
