<svg xmlns="http://www.w3.org/2000/svg" viewBox="0 0 128 128"><path fill="#fff" d="M64 128c35.346 0 64-28.654 64-64S99.346 0 64 0 0 28.654 0 64s28.654 64 64 64"/><path fill="url(#a)" fill-rule="evenodd" d="M84.744 58.474c0 11.482-9.29 20.788-20.752 20.788s-20.75-9.308-20.75-20.788C43.242 40.862 63.48 19 63.992 19s20.752 21.862 20.752 39.474m-8.396.002c0 6.836-5.532 12.378-12.356 12.378s-12.356-5.542-12.356-12.378 5.43-12.276 12.166-12.378v12.758s7.83-3.142 11.654-5.02c.58 1.434.898 2.998.898 4.638l-.002.002z" clip-rule="evenodd"/><path fill="url(#b)" d="m59.334 91.542 33.61-3.606c.39 3.678.3 7.404-.28 11.064l-33.47-2.078c.284-1.78.332-3.588.14-5.38"/><path fill="url(#c)" d="M68.142 81.704 35 88.368a42.2 42.2 0 0 0 3.578 10.468l31.306-12.042a20.5 20.5 0 0 1-1.744-5.092z"/><defs><linearGradient id="a" x1="63.688" x2="64.156" y1="20.25" y2="78.908" gradientUnits="userSpaceOnUse"><stop stop-color="#FF05FF"/><stop offset=".56" stop-color="#8323FF"/><stop offset=".76" stop-color="#8F00FF"/><stop offset=".98" stop-color="#4E68FF"/></linearGradient><linearGradient id="b" x1="100.23" x2="66.218" y1="88.382" y2="98.052" gradientUnits="userSpaceOnUse"><stop stop-color="#DFB6FF"/><stop offset=".49" stop-color="#8F00FF"/><stop offset=".99" stop-color="#5263FF"/></linearGradient><linearGradient id="c" x1="66.026" x2="28.794" y1="89.15" y2="92.452" gradientUnits="userSpaceOnUse"><stop stop-color="#5263FF"/><stop offset=".46" stop-color="#8F00FF"/><stop offset=".99" stop-color="#DFB6FF"/></linearGradient></defs><svg xmlns="http://www.w3.org/2000/svg" viewBox="0 0 128 128"><path fill="#F6E189" d="M64 0h64v64H64z"/><path d="M81.033 10.243c9.99-.006 19.982-.003 29.972-.003-.006.901-.003 1.8.02 2.7-9.996.03-19.997-.007-29.993.02q-.004-1.359.001-2.717m15.108 7.253c1.81-.074 3.72.23 5.345 1.053 2.182 1.16 3.925 3.276 4.545 5.674-1.003.365-2.016.697-3.026 1.044-.375-.995-.788-1.928-1.582-2.67-1.38-1.46-3.334-1.957-5.282-2.006-1.826.083-3.593.433-4.87 1.843-1.502 1.485-1.928 3.405-2.059 5.442 0 2.75.006 5.498 0 8.248.089 1.446.25 2.962 1.004 4.228.68 1.143 1.567 2.109 2.842 2.582 2.344.856 4.995.834 7.239-.304 1.331-.819 2.361-2.054 2.671-3.616 1.03.33 2.042.714 3.066 1.064-.253 1.357-.967 2.498-1.829 3.547-1.658 1.806-3.945 2.717-6.36 2.922-1.797.315-3.695.064-5.439-.427-3.054-.93-5.353-3.559-6.084-6.639-.361-1.306-.312-2.585-.321-3.925.011-2.845-.017-5.69.014-8.531.028-2.389.992-4.645 2.56-6.425 1.966-2.074 4.733-3.104 7.566-3.104m-15.11 33.636c9.99 0 19.98.003 29.967-.003q.01 1.376.005 2.753-14.985-.01-29.972 0a420 420 0 0 1 0-2.75"/></svg></svg>
