<svg xmlns="http://www.w3.org/2000/svg" viewBox="0 0 128 128"><circle cx="64" cy="64" r="64" fill="#00b988"/><path fill="#fff" d="M31.36 27.52h65.45v14.53H71.357v14.529H56.813v-14.53H31.36zm25.453 29.059v29.059H42.268V56.579zm14.546 29.059H85.9V56.579H71.357v29.059H56.815v14.529h14.544z"/><path fill="url(#_concrete)" d="M64 128c35.346 0 64-28.654 64-64S99.346 0 64 0 0 28.654 0 64s28.654 64 64 64" transform="translate(64)scale(.5)"/><path d="M96.159 46.155c4.578 0 8.36-1.987 9.503-6.351l-2.978-1.013c-.803 3.078-3.436 4.329-6.262 4.329-4.772 0-6.912-2.885-6.912-7.447v-7.094c0-4.208 2.022-7.447 6.642-7.447 2.557 0 5.459 1.09 6.526 4.484l2.979-1.012c-1.296-4.13-4.58-6.507-9.165-6.507-6.338 0-10.155 4.286-10.155 9.979v8.148c0 5.693 3.477 9.937 9.81 9.937z"/><path fill-rule="evenodd" d="M81.6 11.2h28.8v2.618H81.6zm0 39.238h28.8v2.617H81.6z" clip-rule="evenodd"/><defs transform="translate(64)scale(.5)"><linearGradient id="_concrete" x1="64" x2="64" y1="0" y2="128" gradientUnits="userSpaceOnUse"><stop stop-color="#f6e189"/><stop offset="1" stop-color="#f4d037"/></linearGradient></defs></svg>
