<svg xmlns="http://www.w3.org/2000/svg" viewBox="0 0 128 128"><circle cx="64" cy="64" r="64" fill="#2775CA"/><path fill="#fff" d="M81.6 74.133C81.6 64.8 76 61.6 64.8 60.267c-8-1.067-9.6-3.2-9.6-6.934s2.667-6.133 8-6.133c4.8 0 7.467 1.6 8.8 5.6.267.8 1.067 1.333 1.867 1.333h4.266c1.067 0 1.867-.8 1.867-1.866V52c-1.067-5.867-5.867-10.4-12-10.933v-6.4c0-1.067-.8-1.867-2.133-2.134h-4c-1.067 0-1.867.8-2.134 2.134V40.8c-8 1.067-13.066 6.4-13.066 13.067 0 8.8 5.333 12.266 16.533 13.6 7.467 1.333 9.867 2.933 9.867 7.2s-3.734 7.2-8.8 7.2c-6.934 0-9.334-2.934-10.134-6.934-.266-1.066-1.066-1.6-1.866-1.6h-4.534c-1.066 0-1.866.8-1.866 1.867v.267C46.933 82.133 51.2 86.933 60 88.267v6.4c0 1.066.8 1.866 2.133 2.133h4c1.067 0 1.867-.8 2.134-2.133v-6.4c8-1.334 13.333-6.934 13.333-14.134"/><path fill="#fff" d="M50.4 102.133c-20.8-7.466-31.467-30.666-23.733-51.2 4-11.2 12.8-19.733 23.733-23.733 1.067-.533 1.6-1.333 1.6-2.667V20.8c0-1.067-.533-1.867-1.6-2.133-.267 0-.8 0-1.067.266-25.333 8-39.2 34.934-31.2 60.267 4.8 14.933 16.267 26.4 31.2 31.2 1.067.533 2.134 0 2.4-1.067.267-.266.267-.533.267-1.066v-3.734c0-.8-.8-1.866-1.6-2.4m28.267-83.2c-1.067-.533-2.134 0-2.4 1.067-.267.267-.267.533-.267 1.067V24.8c0 1.067.8 2.133 1.6 2.667 20.8 7.466 31.467 30.666 23.733 51.2-4 11.2-12.8 19.733-23.733 23.733-1.067.533-1.6 1.333-1.6 2.667v3.733c0 1.067.533 1.867 1.6 2.133.267 0 .8 0 1.067-.266 25.333-8 39.2-34.934 31.2-60.267-4.8-15.2-16.534-26.667-31.2-31.467"/><svg xmlns="http://www.w3.org/2000/svg" fill="none" viewBox="0 0 128 128"><path fill="#F6E189" d="M64 0h64v64H64z"/><path fill="#000" d="M81.033 10.243c9.99-.006 19.982-.003 29.972-.003-.006.901-.003 1.8.02 2.7-9.996.03-19.997-.007-29.993.02q-.004-1.359.001-2.717m15.108 7.253c1.81-.074 3.72.23 5.345 1.053 2.182 1.16 3.925 3.276 4.545 5.674-1.003.365-2.016.697-3.026 1.044-.375-.995-.788-1.928-1.582-2.67-1.38-1.46-3.334-1.957-5.282-2.006-1.826.083-3.593.433-4.87 1.843-1.502 1.485-1.928 3.405-2.059 5.442 0 2.75.006 5.498 0 8.248.089 1.446.25 2.962 1.004 4.228.68 1.143 1.567 2.109 2.842 2.582 2.344.856 4.995.834 7.239-.304 1.331-.819 2.361-2.054 2.671-3.616 1.03.33 2.042.714 3.066 1.064-.253 1.357-.967 2.498-1.829 3.547-1.658 1.806-3.945 2.717-6.36 2.922-1.797.315-3.695.064-5.439-.427-3.054-.93-5.353-3.559-6.084-6.639-.361-1.306-.312-2.585-.321-3.925.011-2.845-.017-5.69.014-8.531.028-2.389.992-4.645 2.56-6.425 1.966-2.074 4.733-3.104 7.566-3.104m-15.11 33.636c9.99 0 19.98.003 29.967-.003q.01 1.376.005 2.753-14.985-.01-29.972 0a420 420 0 0 1 0-2.75"/></svg></svg>
