<svg xmlns="http://www.w3.org/2000/svg" viewBox="0 0 128 128"><circle cx="64" cy="64" r="64" fill="#2775ca"/><path fill="#fff" d="M81.6 74.133C81.6 64.8 76 61.6 64.8 60.267c-8-1.067-9.6-3.2-9.6-6.934s2.667-6.133 8-6.133c4.8 0 7.467 1.6 8.8 5.6.267.8 1.067 1.333 1.867 1.333h4.266c1.067 0 1.867-.8 1.867-1.866V52c-1.067-5.867-5.867-10.4-12-10.933v-6.4c0-1.067-.8-1.867-2.133-2.134h-4c-1.067 0-1.867.8-2.134 2.134V40.8c-8 1.067-13.066 6.4-13.066 13.067 0 8.8 5.333 12.266 16.533 13.6 7.467 1.333 9.867 2.933 9.867 7.2s-3.734 7.2-8.8 7.2c-6.934 0-9.334-2.934-10.134-6.934-.266-1.066-1.066-1.6-1.866-1.6h-4.534c-1.066 0-1.866.8-1.866 1.867v.267C46.933 82.133 51.2 86.933 60 88.267v6.4c0 1.066.8 1.866 2.133 2.133h4c1.067 0 1.867-.8 2.134-2.133v-6.4c8-1.334 13.333-6.934 13.333-14.134"/><path fill="#fff" d="M50.4 102.133c-20.8-7.466-31.467-30.666-23.733-51.2 4-11.2 12.8-19.733 23.733-23.733 1.067-.533 1.6-1.333 1.6-2.667V20.8c0-1.067-.533-1.867-1.6-2.133-.267 0-.8 0-1.067.266-25.333 8-39.2 34.934-31.2 60.267 4.8 14.933 16.267 26.4 31.2 31.2 1.067.533 2.134 0 2.4-1.067.267-.266.267-.533.267-1.066v-3.734c0-.8-.8-1.866-1.6-2.4m28.267-83.2c-1.067-.533-2.134 0-2.4 1.067-.267.267-.267.533-.267 1.067V24.8c0 1.067.8 2.133 1.6 2.667 20.8 7.466 31.467 30.666 23.733 51.2-4 11.2-12.8 19.733-23.733 23.733-1.067.533-1.6 1.333-1.6 2.667v3.733c0 1.067.533 1.867 1.6 2.133.267 0 .8 0 1.067-.266 25.333-8 39.2-34.934 31.2-60.267-4.8-15.2-16.534-26.667-31.2-31.467"/><path fill="url(#_concrete)" d="M64 128c35.346 0 64-28.654 64-64S99.346 0 64 0 0 28.654 0 64s28.654 64 64 64" transform="translate(64)scale(.5)"/><path d="M96.159 46.155c4.578 0 8.36-1.987 9.503-6.351l-2.978-1.013c-.803 3.078-3.436 4.329-6.262 4.329-4.772 0-6.912-2.885-6.912-7.447v-7.094c0-4.208 2.022-7.447 6.642-7.447 2.557 0 5.459 1.09 6.526 4.484l2.979-1.012c-1.296-4.13-4.58-6.507-9.165-6.507-6.338 0-10.155 4.286-10.155 9.979v8.148c0 5.693 3.477 9.937 9.81 9.937z"/><path fill-rule="evenodd" d="M81.6 11.2h28.8v2.618H81.6zm0 39.238h28.8v2.617H81.6z"/><defs transform="translate(64)scale(.5)"><linearGradient id="_concrete" x1="64" x2="64" y1="0" y2="128" gradientUnits="userSpaceOnUse"><stop stop-color="#f6e189"/><stop offset="1" stop-color="#f4d037"/></linearGradient></defs></svg>
