<svg xmlns="http://www.w3.org/2000/svg" viewBox="0 0 128 128"><mask id="a" width="128" height="128" x="0" y="0" maskUnits="userSpaceOnUse" style="mask-type:alpha"><path fill="#162E2F" d="M64 128c35.346 0 64-28.654 64-64S99.346 0 64 0 0 28.654 0 64s28.654 64 64 64"/></mask><g mask="url(#a)"><path fill="#162E2F" d="M64 128c35.346 0 64-28.654 64-64S99.346 0 64 0 0 28.654 0 64s28.654 64 64 64"/><path fill="url(#b)" d="M-24 20h99.2v19.84l9.92 12.4-9.92 12.4L92.56 75.8 75.2 86.96v22.32H-24z"/><path fill="url(#c)" d="M0 40h48v12H0z"/><path fill="url(#d)" d="M48 88H0V76h48z"/><path fill="#C4FDF2" d="M95.084 47.43c-.953-9.745-9.365-12.998-19.98-13.91L75.08 20l-8.223.015.022 13.163c-2.161.004-4.37.05-6.566.098l-.021-13.25-8.218.013.02 13.515c-1.78.04-3.529.077-5.233.08l-.001-.042-11.341.015.016 8.789s6.072-.126 5.972-.014c3.33-.005 4.417 1.929 4.737 3.598.02 12.354.041 24.68.06 37.036-.144 1.05-.757 2.724-3.084 2.731.106.094-5.977.009-5.977.009l-1.617 9.83 10.7-.017c1.992-.001 3.951.03 5.876.037l.026 13.674 8.214-.013-.023-13.529c2.255.043 4.437.058 6.569.052l.018 13.466 8.224-.015-.02-13.649c13.822-.817 23.492-4.318 24.671-17.313.952-10.463-3.973-15.122-11.823-16.995 4.764-2.438 7.738-6.723 7.028-13.854zM83.629 76.686c.021 10.218-17.463 9.086-23.036 9.1l-.028-18.116c5.574-.008 23.046-1.642 23.064 9.016M79.76 51.132c.014 9.297-14.568 8.237-19.21 8.245l-.027-16.43c4.642-.009 19.22-1.51 19.238 8.185"/></g><defs><linearGradient id="b" x1="92.56" x2="-24" y1="64.64" y2="64.64" gradientUnits="userSpaceOnUse"><stop stop-color="#4E988D"/><stop offset="1" stop-color="#264C4A"/></linearGradient><linearGradient id="c" x1="24" x2="24" y1="40" y2="52" gradientUnits="userSpaceOnUse"><stop stop-opacity=".1"/><stop offset="1" stop-opacity="0"/></linearGradient><linearGradient id="d" x1="24" x2="24" y1="88" y2="76" gradientUnits="userSpaceOnUse"><stop stop-opacity=".1"/><stop offset="1" stop-opacity="0"/></linearGradient></defs><svg xmlns="http://www.w3.org/2000/svg" viewBox="0 0 128 128"><path fill="#F6E189" d="M64 0h64v64H64z"/><path d="M81.033 10.243c9.99-.006 19.982-.003 29.972-.003-.006.901-.003 1.8.02 2.7-9.996.03-19.997-.007-29.993.02q-.004-1.359.001-2.717m15.108 7.253c1.81-.074 3.72.23 5.345 1.053 2.182 1.16 3.925 3.276 4.545 5.674-1.003.365-2.016.697-3.026 1.044-.375-.995-.788-1.928-1.582-2.67-1.38-1.46-3.334-1.957-5.282-2.006-1.826.083-3.593.433-4.87 1.843-1.502 1.485-1.928 3.405-2.059 5.442 0 2.75.006 5.498 0 8.248.089 1.446.25 2.962 1.004 4.228.68 1.143 1.567 2.109 2.842 2.582 2.344.856 4.995.834 7.239-.304 1.331-.819 2.361-2.054 2.671-3.616 1.03.33 2.042.714 3.066 1.064-.253 1.357-.967 2.498-1.829 3.547-1.658 1.806-3.945 2.717-6.36 2.922-1.797.315-3.695.064-5.439-.427-3.054-.93-5.353-3.559-6.084-6.639-.361-1.306-.312-2.585-.321-3.925.011-2.845-.017-5.69.014-8.531.028-2.389.992-4.645 2.56-6.425 1.966-2.074 4.733-3.104 7.566-3.104m-15.11 33.636c9.99 0 19.98.003 29.967-.003q.01 1.376.005 2.753-14.985-.01-29.972 0a420 420 0 0 1 0-2.75"/></svg></svg>
