<svg xmlns="http://www.w3.org/2000/svg" viewBox="0 0 128 128"><circle cx="64" cy="64" r="64" fill="#00ebab"/><path d="M85.447 23.249c6.246-.491 12.07 3.004 13.77 9.151 1.22 4.436-.338 9.545-3.734 12.605-.197.183-1.39 1.025-1.39 1.151 2.807 3.986 4.87 8.506 5.895 13.293 4.576 21.209-10.19 41.898-31.47 45-19.3 2.822-37.266-9.77-40.775-28.957-2.021-11.032 1.25-22.43 8.436-30.894-3.636-4.884-4.59-13.25-.45-18.093 4.9-5.727 12.114-2.793 15.483 2.864.744 1.249 1.221 2.596 1.74 3.944a34 34 0 0 1 5.503-1.432 37.3 37.3 0 0 1 15.552.59c.07 0 .112-.028.154-.084.099-.127.436-1.236.562-1.516 1.867-4.127 6.148-7.271 10.71-7.636zm.308 1.768c-4.45.351-8.674 3.594-9.84 7.945l.941.35c2.036-2.764 6.906-4.603 9.798-2.147 1.81 1.53 2.863 3.425 3.116 5.825.14 1.418-.45 2.092-1.039 3.27l4.31 4.38c2.638-1.895 4.645-4.884 4.828-8.197.393-6.892-5.39-11.959-12.127-11.426zm-34.908 7.917c-1.404-5.348-8.225-10.668-13.18-5.895-4.057 3.902-3.467 11.93-.197 16.141l2.12-2.049c-.113-.337-.351-.59-.478-.968-1.487-4.45 1.236-10.836 6.668-9.91 1.797.309 3.706 1.516 5.067 2.68m32.438-1.137c-1.572.028-3.593.982-4.604 2.176 3.06 1.333 5.952 3.003 8.59 5.039.267-.393.744-1.095.73-1.572 0-.393-.294-1.404-.42-1.811-.562-1.853-2.176-3.874-4.296-3.832m-33.519 2.765c.028-.112-.028-.126-.07-.196-.197-.295-1.01-.997-1.32-1.222-2.372-1.726-5.768-1.642-7.158 1.236-.87 1.796-.66 3.747-.393 5.656 2.653-2.133 5.558-3.986 8.66-5.418a.5.5 0 0 1 .281-.056m32.382 9.011c.056-.084-.239-.42-.309-.505-3.2-3.818-9.629-8.07-14.317-9.727-.35-.126-.645-.224-1.025-.169 1.095.857 2.26 1.615 3.355 2.471 3.341 2.625 6.26 5.797 8.759 9.236zm-7.79 20.353c-.997-10.934-4.829-21.616-11.678-30.22l-.155-.07-.884.168c-2.793 4.436-4.969 9.068-6.667 14.037-.94 2.737-1.881 5.6-1.825 8.534 5.123.322 9.643 3.65 11.917 8.169 3.102-.098 6.204-.253 9.278-.618zM71.593 46.66c1.712-.322 3.439-.687 5.109-1.165.169-.042.758-.14.73-.336 0-.085-.856-1.151-.997-1.32-1.712-2.133-3.874-4.14-5.98-5.895-1.768-1.474-3.62-2.892-5.586-4.085l3.51 5.854c1.136 2.273 2.33 4.533 3.2 6.934zm-19.357 9.63c.422-5.53 2.429-10.865 4.787-15.833q.71-1.506 1.488-2.976c.575-1.053 1.39-2.162 1.895-3.187.042-.098.098-.154.07-.28-12.97 2.877-21.925 14.794-24.423 27.385.042.168 1.235.533 1.473.603.941.309 1.923.492 2.878.758h.098c2.414-4.028 6.99-6.723 11.734-6.485zm20.732-22.122c3.987 2.232 7.482 5.25 10.486 8.675l.098.028c1.038-.562 2.133-1.137 2.821-2.12.028-.126-.225-.294-.309-.365-2.835-2.526-9.137-5.558-12.857-6.26-.084-.014-.253-.098-.239.042m-20.044 1.08c-1.15.324-2.26.815-3.34 1.32a37.8 37.8 0 0 0-7.412 4.688c-.407.337-3.41 2.976-3.354 3.2.8.576 1.698 1.04 2.68 1.194 2.247-3.243 5.124-6.05 8.31-8.38l3.102-2.021zM90.486 54.2c1.824.421 3.621 1.095 5.193 2.091.183.014.885-1.207.94-1.431a.74.74 0 0 0 0-.351c-.07-.365-.575-1.376-.757-1.783-1.123-2.442-2.695-4.927-4.38-7.018-.407-.505-3.579-4.056-3.888-3.972-.744 1.052-1.867 1.656-2.947 2.302-.056.042-.14-.028-.099.126 2.429 3.06 4.562 6.387 5.952 10.05zm-4.717 7.411a31 31 0 0 0 3.692-1.277c.197-.084 1.109-.435 1.151-.547-1.333-5.433-3.902-10.71-7.425-15.034l-3.593 1.404c3.087 4.646 5.361 9.882 6.162 15.454zm-51.106-.842a40 40 0 0 1 5.924-13.854c.027-.098-.057-.126-.113-.168-.702-.492-1.684-.87-2.4-1.39l-.168.028c-3.2 3.706-5.713 8-7.215 12.675-.028.323 1.15 1.207 1.445 1.418.506.35 1.194.744 1.755 1.024.239.127.491.295.772.267m41.155 2.92c2.582-.365 5.305-.758 7.818-1.474.154-.042.702-.154.73-.267a37.5 37.5 0 0 0-6.05-15.51c-2.05.59-4.14 1.039-6.274 1.221 1.909 5.166 3.397 10.5 3.776 16.03m19.047-6.541-3.621-1.151.842 3.088c.084.07 1.754-1.025 1.951-1.165.253-.183.491-.38.73-.576.056-.042.154 0 .098-.168zm4.155 10.33c0-3.579-.505-7.158-1.572-10.555-1.18 1.713-2.92 2.948-4.745 3.902l-.126.197.52 2.596c2.147.969 3.986 2.527 5.923 3.875zm-47.724-9.853c-11.86.716-15.917 14.471-7.58 22.332 7.847 7.397 21.097 2.835 21.7-8.211.422-7.692-6.4-14.584-14.12-14.121M34.27 62.467l-4.127-2.625c-.982 3.761-1.39 7.677-1.109 11.566l1.881-1.01 2.667-.927c.084-2.345.267-4.689.702-6.99zm56.82-.773-5.082 1.783c.14 1.755.169 3.51.14 5.278l-.224 2.47c0 .21 1.067.828 1.291 1.01.618.464 1.236.927 1.825 1.418.744.646 1.404 1.376 2.161 2.008.815-4.618.73-9.349-.112-13.952zm-51.5 2.695-3.888-1.08a41 41 0 0 0-.576 5.867l3.313-.155c.112-1.6.533-3.158 1.15-4.618zm45.015-.547c-2.836.758-5.727 1.277-8.619 1.698l.07 1.77c1.558.224 3.187.743 4.647 1.332 1.375.548 2.652 1.278 3.986 1.91.196-2.233.14-4.478-.084-6.71m8.562 11.187c1.207-.561 2.428-1.165 3.565-1.867.45-.28 1.558-.926 1.867-1.291.126-.155.154-.337.182-.52.084-.463.14-1.207.169-1.684 0-.196.042-.463-.085-.618l-5.432-3.817c-.182-.085-.126.491-.112.575.112 1.951.239 3.888.154 5.853l-.308 3.355zm-18.655-9.334c-2.891.379-5.797.533-8.716.617 1.768 5.053.772 10.373-2.85 14.304l-2.007 1.81c4.113 0 8.211-.505 12.24-1.249.196-1.165.435-2.33.617-3.51.422-2.778.646-5.585.786-8.379l-.084-3.593zm9.924 6.723c-2.625-1.614-5.474-2.807-8.394-3.79.042 2.597-.028 5.166-.323 7.735-.168 1.487-.49 2.961-.687 4.435a71 71 0 0 0 8.155-2.021c.547-2.078 1.123-4.211 1.235-6.373zm-45.997-2.091-3.313.463c0 2.428.267 4.857.73 7.243.056.112.21.168.323.224 1.347.702 3.144 1.39 4.576 1.98.856.35 1.726.715 2.625.968-2.948-2.821-4.983-6.71-4.927-10.864zm-4.857.926c-1.53.407-3.046 1.053-4.239 2.12 1.432 1.516 3.004 2.92 4.857 3.888zm56.342 5.236-.07-.197c-1.277-1.15-2.695-2.133-4.169-3.046l-.996 5.082 5.235-1.853zm8.408-2.316-3.088 1.895c-.35.266-2.456 1.038-2.54 1.32l2.765 4.954c.182.042.126-.028.168-.098.07-.113.169-.323.225-.463 1.123-2.4 1.867-5.026 2.456-7.608zM39.211 90.68l-1.685-3.13a41 41 0 0 1-2.975-8.66c-1.713-.871-3.397-1.784-4.885-3.005.856 4.015 2.4 8.127 4.674 11.552.38.562.533.884 1.095 1.292 1.123.8 2.527 1.375 3.79 1.95zm51.485-12.493-6.667 2.316c-.912 2.892-2.091 5.699-3.467 8.408l-2.358 4.155c2.12-.393 4.281-.772 6.316-1.418a39.1 39.1 0 0 0 6.162-13.447zM87.23 90.904l3.903-1.39a36.4 36.4 0 0 0 3.705-5.628c.056-.112.028-.197 0-.309-.098-.379-.702-1.446-.926-1.853-.464-.842-1.01-1.642-1.502-2.47-.113 0-.113.112-.155.196-.238.632-.379 1.432-.603 2.092a41 41 0 0 1-4.408 9.348zm-34.684-6.007a14.5 14.5 0 0 1-3.453-.59c-2.273-.702-4.73-1.6-6.99-2.414-1.979-.702-3.93-1.516-5.895-2.232.997 4.239 2.807 8.267 5.264 11.847 4.35 1.446 8.885 2.344 13.46 2.723-1.094-3.004-2.147-6.12-2.386-9.32zm23.946 8.45c2.47-3.902 4.59-8.071 6.036-12.465l-7.987 1.923c-.884 3.944-2.288 7.72-3.888 11.412zm-3.747-10.233c-1.502.239-3.004.505-4.52.688a70 70 0 0 1-5.39.393c-.21 0-.393.084-.603.084-1.502.042-3.383-.239-4.787-.084-.632.07-1.488.393-2.175.52-.52.084-1.04.14-1.558.182.35 3.242 1.08 6.4 2.4 9.39 3.214.28 6.442.253 9.67.253l3.047-.197c.14-.07.547-1.123.645-1.347 1.362-3.187 2.415-6.513 3.285-9.868zM45.457 98.147a36.3 36.3 0 0 1-4.899-5.474l-3.354-1.46c-.029.14.084.183.154.267 1.614 1.95 3.986 3.972 6.064 5.418.645.449 1.32.926 2.035 1.249m43.78-6.47-3.117.926c-1.39 1.796-2.821 3.55-4.435 5.165l1.88-1.165c2.036-1.46 3.987-3.074 5.686-4.913zm-6.022 1.613-5.98 1.236-2.007 2.849-3.495 4.562c.112.098 2.428-.632 2.723-.786.73-.351 1.839-1.221 2.513-1.727 2.302-1.754 4.435-3.874 6.246-6.12zm-23.118 9.643c.028-.14-.056-.154-.112-.224-.267-.351-.688-.702-.997-1.081-1.488-1.853-2.569-3.986-3.593-6.12-4.155-.337-8.296-.926-12.338-1.965 1.572 1.951 3.48 3.692 5.53 5.151 2.555 1.811 5.32 3.243 8.408 3.846 1.025.197 2.063.295 3.102.407zm15.496-8.253-5.474.66c-1.334 2.554-2.667 5.123-4.169 7.593 1.193-.14 2.428-.182 3.593-.533 2.134-2.484 4.31-4.927 6.05-7.706zm-7.243.772-4.28.239-7.37-.043c1.39 2.668 2.934 5.433 5.292 7.341h2.091c.113-.336.323-.673.52-.982 1.347-2.133 2.737-4.239 3.733-6.555z"/><path d="M49.696 75.564c-.463 1.628-2.976 2.344-4.127 1.08-.379-.407-.73-1.473.014-1.614.534-.098.814.702 1.685.688 1.642-.028 1.67-2.232 1.74-3.439.028-.449.098-2.105-.042-2.428-.056-.126-.997-1.039-1.193-1.278-.94-1.178-2.878-3.831-1.839-5.305 1.151-1.629 4.17-1.502 5.966-1.362s2.68.857 2.498 2.737c-.182 2.022-2.723 4.17-3.972 5.671-.084.183-.056.59-.028.8.084.927.337 2.316.547 3.228.267 1.081.393 1.516 1.712 1.376.506-.056.73-.393 1.11-.505.841-.225.94.786.575 1.347-.814 1.25-3.453.885-4.225-.238-.07-.099-.35-.829-.421-.772zM66.13 55.028c-2.456-2.68 1.993-6.26 4.14-3.326 1.868 2.554-1.838 5.839-4.14 3.326m-23.777-4.73c2.246-.323 4.043 1.881 3.144 3.986-1.123 2.64-4.955 2.036-5.334-.758-.182-1.347.772-3.031 2.204-3.242z"/></svg>
