<svg xmlns="http://www.w3.org/2000/svg" fill="none" viewBox="0 0 623 623"><g clip-path="url(#a)"><path fill="#00EBAB" d="M311.5 623C483.537 623 623 483.537 623 311.5S483.537 0 311.5 0 0 139.463 0 311.5 139.463 623 311.5 623"/><path fill="#000" d="M415.885 113.156c30.401-2.391 58.753 14.62 67.02 44.543 5.943 21.589-1.64 46.456-18.173 61.35-.956.888-6.763 4.987-6.763 5.602 13.663 19.402 23.706 41.4 28.693 64.697 22.272 103.228-49.598 203.928-153.168 219.026-93.937 13.732-181.384-47.549-198.463-140.939-9.838-53.698 6.08-109.172 41.059-150.368-17.695-23.774-22.34-64.492-2.186-88.061 23.842-27.874 58.958-13.595 75.354 13.937 3.621 6.08 5.944 12.638 8.471 19.197 8.677-3.074 17.695-5.397 26.781-6.968 25.209-4.373 50.897-3.416 75.696 2.869.342 0 .547-.137.752-.41.478-.615 2.117-6.012 2.732-7.378 9.087-20.086 29.923-35.389 52.127-37.165zm1.503 8.608c-21.657 1.708-42.22 17.49-47.891 38.668l4.578 1.708c9.906-13.459 33.612-22.408 47.685-10.453 8.813 7.447 13.937 16.67 15.167 28.352.683 6.9-2.186 10.18-5.056 15.918l20.974 21.315c12.844-9.222 22.613-23.774 23.501-39.897 1.913-33.544-26.234-58.207-59.026-55.611zm-169.906 38.531c-6.832-26.029-40.034-51.921-64.151-28.693-19.743 18.992-16.874 58.07-.956 78.565l10.316-9.974c-.547-1.64-1.708-2.869-2.323-4.714-7.242-21.657 6.012-52.741 32.451-48.232 8.745 1.503 18.036 7.378 24.663 13.048m157.882-5.533c-7.651.136-17.489 4.782-22.408 10.589 14.893 6.49 28.967 14.62 41.81 24.526 1.298-1.913 3.621-5.329 3.553-7.652 0-1.912-1.435-6.831-2.05-8.813-2.732-9.018-10.589-18.855-20.905-18.65M242.221 168.22c.137-.546-.136-.615-.341-.956-.957-1.435-4.919-4.851-6.422-5.944-11.546-8.403-28.079-7.993-34.842 6.012-4.236 8.745-3.211 18.241-1.913 27.532 12.912-10.384 27.054-19.402 42.152-26.37.41-.205.888-.342 1.366-.274m157.609 43.86c.274-.41-1.161-2.049-1.503-2.459-15.576-18.583-46.866-39.283-69.684-47.344-1.708-.615-3.142-1.093-4.987-.82 5.329 4.167 10.999 7.856 16.328 12.024 16.26 12.775 30.47 28.215 42.63 44.953zm-37.916 99.061c-4.851-53.22-23.501-105.209-56.84-147.088l-.752-.342-4.304.82c-13.595 21.589-24.184 44.133-32.451 68.318-4.577 13.322-9.154 27.259-8.881 41.537 24.936 1.571 46.934 17.763 58.002 39.761 15.098-.478 30.196-1.23 45.158-3.006zm-13.459-84.031c8.335-1.571 16.738-3.347 24.868-5.67.82-.205 3.689-.683 3.553-1.64 0-.41-4.168-5.602-4.851-6.422-8.335-10.384-18.856-20.153-29.103-28.693-8.608-7.174-17.626-14.074-27.191-19.881l17.08 28.489c5.533 11.067 11.34 22.067 15.576 33.749zm-94.21 46.866c2.05-26.917 11.819-52.878 23.297-77.062a357 357 0 0 1 7.241-14.484c2.801-5.123 6.764-10.521 9.223-15.508.205-.478.478-.751.342-1.366-63.126 14.005-106.713 72.007-118.873 133.288.205.82 6.012 2.596 7.173 2.937 4.578 1.503 9.36 2.392 14.005 3.69h.479c11.75-19.608 34.022-32.725 57.113-31.563zm100.906-107.669c19.402 10.863 36.413 25.551 51.033 42.221l.478.136c5.056-2.732 10.384-5.533 13.732-10.316.137-.614-1.093-1.434-1.503-1.776-13.8-12.297-44.475-27.054-62.579-30.47-.41-.068-1.23-.478-1.161.205m-97.558 5.261c-5.602 1.571-10.999 3.962-16.26 6.422-12.639 6.012-25.209 14.005-36.072 22.818-1.981 1.639-16.601 14.483-16.328 15.576 3.895 2.801 8.267 5.056 13.049 5.807 10.931-15.781 24.936-29.445 40.444-40.785l15.098-9.838zm182.818 92.229c8.881 2.049 17.626 5.329 25.278 10.179.888.068 4.304-5.875 4.577-6.968.137-.615.137-1.025 0-1.708-.342-1.776-2.801-6.695-3.689-8.677-5.466-11.887-13.117-23.979-21.315-34.158-1.982-2.46-17.421-19.744-18.924-19.334-3.621 5.123-9.087 8.061-14.347 11.204-.273.205-.683-.137-.478.615 11.819 14.893 22.203 31.084 28.966 48.915zm-22.955 36.072c6.081-1.708 12.161-3.758 17.968-6.217.956-.41 5.397-2.118 5.602-2.665-6.49-26.439-18.992-52.126-36.14-73.168l-17.489 6.832c15.029 22.613 26.097 48.095 29.991 75.218zm-248.745-4.099c5.193-24.048 15.099-47.071 28.831-67.43.136-.478-.274-.615-.547-.82-3.416-2.391-8.198-4.236-11.682-6.763l-.82.136c-15.577 18.036-27.805 38.941-35.115 61.691-.137 1.571 5.602 5.876 7.036 6.9 2.46 1.708 5.807 3.621 8.54 4.987 1.161.615 2.391 1.435 3.757 1.299m200.308 14.21c12.571-1.777 25.824-3.69 38.053-7.174.752-.205 3.416-.751 3.553-1.298-4.031-26.985-14.142-53.014-29.445-75.491-9.975 2.869-20.154 5.056-30.538 5.944 9.291 25.141 16.533 51.101 18.377 78.019m92.707-31.836-17.626-5.603 4.099 15.03c.41.342 8.54-4.987 9.497-5.67 1.229-.888 2.391-1.845 3.552-2.801.273-.205.752 0 .478-.82zm20.222 50.281c0-17.421-2.459-34.842-7.651-51.375-5.739 8.335-14.21 14.347-23.092 18.993l-.615.956 2.528 12.639c10.453 4.714 19.402 12.297 28.83 18.856zm-232.28-47.959c-57.729 3.485-77.472 70.436-36.892 108.694 38.19 36.003 102.682 13.8 105.62-39.966 2.049-37.438-31.153-70.982-68.728-68.728m-82.869 23.57-20.086-12.775c-4.782 18.309-6.763 37.369-5.397 56.293l9.155-4.918 12.98-4.509c.41-11.41 1.298-22.819 3.416-34.023zm276.55-3.758-24.731 8.677c.683 8.54.82 17.079.683 25.687l-1.093 12.024c0 1.025 5.192 4.031 6.285 4.919 3.006 2.255 6.012 4.509 8.881 6.9 3.621 3.143 6.832 6.695 10.521 9.77 3.963-22.477 3.553-45.5-.546-67.908zm-250.658 13.117-18.924-5.26c-1.64 9.428-2.528 18.992-2.801 28.557l16.123-.752c.546-7.788 2.596-15.371 5.602-22.476zm219.095-2.664c-13.8 3.689-27.874 6.217-41.947 8.267l.341 8.608c7.584 1.093 15.509 3.62 22.614 6.49 6.695 2.664 12.912 6.217 19.402 9.291.956-10.863.683-21.793-.41-32.656m41.674 54.449c5.875-2.732 11.819-5.67 17.353-9.086 2.186-1.366 7.583-4.509 9.086-6.285.615-.752.751-1.64.888-2.528.41-2.254.683-5.875.82-8.198 0-.956.205-2.255-.41-3.006l-26.439-18.582c-.888-.41-.615 2.391-.547 2.801.547 9.496 1.162 18.924.752 28.488l-1.503 16.328zm-90.794-45.431c-14.074 1.845-28.216 2.596-42.426 3.006 8.608 24.594 3.758 50.487-13.868 69.616l-9.77 8.813c20.017 0 39.966-2.46 59.573-6.08.957-5.671 2.118-11.341 3.006-17.08 2.05-13.527 3.143-27.19 3.826-40.786l-.41-17.489zm48.3 32.724c-12.775-7.856-26.644-13.663-40.854-18.446.205 12.639-.136 25.141-1.571 37.644-.82 7.241-2.391 14.415-3.348 21.588 13.391-2.459 26.644-5.807 39.693-9.838 2.664-10.111 5.465-20.495 6.012-31.016zm-223.877-10.179-16.123 2.254c0 11.819 1.298 23.638 3.552 35.252.274.547 1.025.82 1.572 1.093 6.558 3.416 15.303 6.764 22.271 9.633 4.168 1.708 8.403 3.484 12.776 4.714-14.347-13.732-24.253-32.656-23.98-52.878zm-23.638 4.509c-7.447 1.981-14.825 5.124-20.632 10.316 6.968 7.378 14.62 14.21 23.638 18.924zm274.227 25.482-.341-.956c-6.217-5.602-13.117-10.384-20.291-14.825l-4.85 24.731 25.482-9.018zm40.923-11.272-15.03 9.223c-1.708 1.298-11.956 5.055-12.366 6.422l13.459 24.116c.888.205.615-.137.82-.478.341-.547.82-1.572 1.093-2.255 5.465-11.682 9.086-24.458 11.955-37.028zm-287.755 80.342-8.198-15.235c-6.353-13.459-11.272-27.601-14.483-42.152-8.335-4.236-16.533-8.677-23.775-14.62 4.168 19.539 11.683 39.556 22.75 56.225 1.845 2.733 2.596 4.304 5.329 6.286 5.465 3.894 12.297 6.695 18.446 9.496zm250.59-60.803-32.451 11.272c-4.441 14.074-10.179 27.737-16.875 40.923l-11.477 20.222c10.316-1.913 20.837-3.758 30.743-6.9 14.074-19.676 24.253-41.948 29.992-65.449zm-16.875 61.896 18.993-6.764c6.832-8.608 12.912-17.694 18.036-27.395.273-.547.136-.957 0-1.503-.479-1.845-3.416-7.037-4.509-9.018-2.255-4.099-4.919-7.993-7.31-12.024-.547 0-.547.547-.752.956-1.161 3.075-1.844 6.969-2.937 10.18a199.4 199.4 0 0 1-21.452 45.499zm-168.813-29.24a70.4 70.4 0 0 1-16.806-2.87c-11.067-3.415-23.023-7.788-34.022-11.75-9.633-3.416-19.129-7.379-28.694-10.863 4.851 20.632 13.664 40.239 25.62 57.66 21.178 7.037 43.245 11.409 65.516 13.254-5.329-14.62-10.452-29.786-11.614-45.363zm116.55 41.127c12.024-18.992 22.34-39.283 29.377-60.666l-38.873 9.359c-4.304 19.198-11.136 37.575-18.924 55.543zm-18.241-49.804c-7.31 1.162-14.619 2.46-21.998 3.348-8.744 1.025-17.489 1.571-26.234 1.913-1.025 0-1.913.41-2.937.41-7.31.205-16.465-1.162-23.297-.41-3.074.341-7.242 1.913-10.589 2.528-2.528.41-5.056.683-7.583.888 1.708 15.781 5.26 31.153 11.682 45.704 15.645 1.367 31.358 1.23 47.071 1.23l14.825-.956c.683-.342 2.664-5.466 3.142-6.559 6.627-15.508 11.751-31.699 15.987-48.027zM221.248 477.7c-8.882-8.062-16.738-16.943-23.843-26.644l-16.328-7.105c-.137.683.41.888.751 1.298 7.857 9.496 19.403 19.334 29.514 26.37 3.142 2.187 6.422 4.509 9.906 6.081m213.083-31.495-15.167 4.509c-6.763 8.745-13.732 17.285-21.588 25.141l9.154-5.67c9.907-7.105 19.403-14.962 27.669-23.911zm-29.308 7.857-29.104 6.012-9.769 13.868-17.011 22.203c.546.479 11.819-3.074 13.253-3.825 3.553-1.708 8.95-5.944 12.229-8.403 11.204-8.54 21.589-18.856 30.402-29.787zm-112.52 46.934c.137-.683-.273-.751-.546-1.093-1.298-1.708-3.348-3.416-4.851-5.261-7.242-9.017-12.502-19.402-17.489-29.786-20.222-1.64-40.376-4.509-60.052-9.565 7.652 9.497 16.943 17.968 26.918 25.073 12.433 8.813 25.892 15.781 40.922 18.719 4.987.957 10.043 1.435 15.098 1.981zm75.423-40.171-26.644 3.211c-6.49 12.434-12.98 24.936-20.29 36.96 5.807-.683 11.819-.888 17.489-2.596 10.384-12.092 20.974-23.98 29.445-37.506zm-35.252 3.758-20.837 1.161-35.867-.205c6.764 12.981 14.279 26.439 25.756 35.73h10.179c.547-1.639 1.572-3.279 2.528-4.782 6.559-10.384 13.322-20.632 18.173-31.904z"/><path fill="#000" d="M241.879 367.783c-2.254 7.924-14.483 11.409-20.085 5.26-1.845-1.981-3.553-7.173.068-7.856 2.596-.479 3.963 3.415 8.198 3.347 7.993-.137 8.13-10.862 8.472-16.738.136-2.186.478-10.247-.205-11.819-.273-.615-4.851-5.055-5.807-6.217-4.578-5.738-14.005-18.65-8.95-25.824 5.602-7.925 20.291-7.31 29.035-6.627 8.745.684 13.049 4.168 12.161 13.322-.888 9.838-13.254 20.291-19.334 27.601-.41.888-.273 2.869-.137 3.894.41 4.509 1.64 11.272 2.665 15.713 1.298 5.26 1.912 7.378 8.334 6.695 2.46-.273 3.553-1.913 5.397-2.459 4.099-1.093 4.578 3.825 2.801 6.558-3.962 6.08-16.806 4.304-20.563-1.161-.342-.478-1.708-4.031-2.05-3.758zm79.993-99.95c-11.955-13.049 9.701-30.47 20.154-16.192 9.086 12.434-8.95 28.42-20.154 16.192M206.145 244.81c10.931-1.571 19.676 9.155 15.303 19.403-5.465 12.843-24.116 9.906-25.96-3.69-.889-6.558 3.757-14.756 10.725-15.781z"/></g><defs><clipPath id="a"><path fill="#fff" d="M0 0h623v623H0z"/></clipPath></defs></svg>
