<svg xmlns="http://www.w3.org/2000/svg" viewBox="0 0 128 128"><circle cx="64" cy="64" r="64" fill="#FEF3C7"/><path fill="#D97706" d="M45.734 93.88h-9.816a9.7 9.7 0 0 1-4.676-1.152 9.14 9.14 0 0 1-3.426-3.196l-5.232-8.524a7.4 7.4 0 0 1-1.25-4.178c0-1.534.416-2.856 1.25-4.134l5.324-8.654-5.324-8.61a7.54 7.54 0 0 1-1.25-4.176c0-1.492.416-2.9 1.25-4.178l5.232-8.524a8.8 8.8 0 0 1 3.426-3.198 9.8 9.8 0 0 1 4.676-1.192h9.816l5.186-8.44a8.8 8.8 0 0 1 3.426-3.196 9.8 9.8 0 0 1 4.676-1.194h9.956c1.712 0 3.24.384 4.676 1.194a9.14 9.14 0 0 1 3.426 3.196l5.232 8.44h9.816c1.714 0 3.24.382 4.676 1.192a9.14 9.14 0 0 1 3.426 3.198l5.186 8.524c.834 1.28 1.25 2.644 1.25 4.178s-.416 2.898-1.25 4.176l-5.324 8.61 5.324 8.654c.834 1.28 1.25 2.642 1.25 4.134a7.53 7.53 0 0 1-1.25 4.178l-5.186 8.524a8.8 8.8 0 0 1-3.426 3.196 9.8 9.8 0 0 1-4.676 1.152h-9.816l-5.232 8.44a8.8 8.8 0 0 1-3.426 3.196 9.8 9.8 0 0 1-4.676 1.15H59.02a9.7 9.7 0 0 1-4.676-1.15 9.14 9.14 0 0 1-3.426-3.196zm36.578-34.1h9.954l5.094-8.524-5.094-8.526h-9.954l-5.232 8.526zm-23.15 12.788h9.722l5.186-8.526-5.186-8.524h-9.722l-5.186 8.524zm0-25.574h9.722l5.326-8.654-5.186-8.396h-9.956l-5.184 8.396 5.324 8.654zm-8.196 4.26L45.78 42.73h-9.816l-5.186 8.526 5.186 8.524h9.816zm0 25.576-5.186-8.524h-9.954l-5.094 8.524 5.186 8.524h9.816l5.186-8.524zm8.196 4.262-5.326 8.61 5.186 8.44h9.956l5.186-8.44-5.326-8.61h-9.722zm23.15 4.262h9.816l5.186-8.524-5.186-8.524h-9.816L77.08 76.83z"/><circle cx="64" cy="64" r="64" fill="#1E1C29" transform="translate(64)scale(.5)"/><path fill="none" stroke="#fff" stroke-width="3.375" d="M65.803 32C65.803 15.316 79.317 1.803 96 1.803S126.197 15.317 126.197 32 112.684 62.197 96 62.197 65.803 48.684 65.803 32Z"/><path fill="none" stroke="#fff" stroke-width="3.375" d="M66.704 23.636c5.68-1.637 4.64-2.027 5.84-1.637s21.753 38.748 21.879 39.297"/><path fill="none" stroke="#fff" stroke-width="3.375" d="M72.564 22.31c.707.145 8.642 5.037 9.514 6.156s2.061 4.716 3.013 5.436 1.823.48 2.695.16 3.806-4.237 4.599-4.796 1.744-.24 2.22.639 15.232 27.393 15.818 28.461M92.845 29.521l-2.253 24.564m6.986-19.75c.878-.638.957-.32 1.436-.877s.64-1.914.879-2.712c.24-.797 1.198-.558 1.837-.319s1.278.559 1.837 1.356 13.015 15.392 14.373 16.03 1.519.498 3.074.638"/></svg>
