<svg xmlns="http://www.w3.org/2000/svg" viewBox="0 0 256 128"><svg fill="none" viewBox="0 0 128 128"><path fill="#1E1C29" d="M128 64c0 35.344-28.656 64-64 64S0 99.344 0 64 28.656 0 64 0s64 28.656 64 64"/><path stroke="#fff" stroke-width="5.56" d="M14.248 64c0-27.492 22.264-49.756 49.752-49.756S113.744 36.512 113.744 64 91.48 113.744 64 113.744 14.248 91.48 14.248 64Z"/><path stroke="#fff" stroke-width="5.56" d="M15.748 50.216c9.344-2.688 7.64-3.328 9.608-2.688 1.984.64 35.828 63.828 36.048 64.72"/><path stroke="#fff" stroke-width="5.56" d="M25.388 48.028c1.172.252 14.236 8.296 15.672 10.14 1.44 1.844 3.408 7.78 4.968 8.968 1.56 1.172 3 .784 4.44.252 1.436-.52 6.264-6.968 7.576-7.892 1.296-.92 2.876-.404 3.656 1.048s25.092 45.12 26.048 46.888M58.792 59.92l-3.7 40.452m11.5-32.532c1.452-1.048 1.576-.516 2.372-1.44.784-.92 1.048-3.152 1.44-4.464.404-1.316 1.984-.92 3.032-.532 1.044.388 2.108.92 3.028 2.232s21.44 25.36 23.672 26.408c2.236 1.044 2.5.828 5.064 1.044"/></svg><svg x="64" viewBox="0 0 128 128"><circle cx="64" cy="64" r="64" fill="#78350F"/><circle cx="64" cy="64" r="58" fill="#fff"/><path fill="#78350F" d="M47.52 41.136a10 10 0 0 0-3.486-1.37 9.2 9.2 0 0 0-3.668.042 9 9 0 0 0-3.288 1.442 8.6 8.6 0 0 0-2.414 2.634 9 9 0 0 0-1.168 3.424 9.4 9.4 0 0 0 .252 3.682c.538 2.012 3.024 2.396 4.732 1.172l4.352-3.112 4.364-3.12c1.706-1.226 2.104-3.674.324-4.794m46.014 2.748a8.66 8.66 0 0 0-5.702-4.076 9.2 9.2 0 0 0-3.668-.04 10 10 0 0 0-3.488 1.368c-1.78 1.12-1.38 3.568.326 4.792l4.364 3.122 4.352 3.112c1.708 1.224 4.194.84 4.732-1.172a9.4 9.4 0 0 0 .252-3.682 9 9 0 0 0-1.168-3.424M67.63 77.598a10.16 10.16 0 0 0-6.47 0c-1.16.394-2.172 1.006-2.108 1.928.116 1.412 2.36 3.828 3.982 4.326.992.3 1.614.28 2.72 0 1.622-.416 3.878-2.914 3.984-4.326.074-.922-.95-1.532-2.108-1.928m-11.118-4.544a7.2 7.2 0 0 0-2.128-1.888 6.8 6.8 0 0 0-2.666-.88 7 7 0 0 0-2.804.258c-.906.28-1.76.736-2.508 1.36a7.6 7.6 0 0 0-1.834 2.25c-.77 1.44.454 2.956 2.098 3.142l4.152.468 4.184.476c1.644.188 3.192-1.006 2.77-2.582a7.6 7.6 0 0 0-1.264-2.604m25.736-1.298a7.4 7.4 0 0 0-2.51-1.36 7 7 0 0 0-2.802-.258 6.8 6.8 0 0 0-2.666.882 7.2 7.2 0 0 0-2.13 1.888 7.5 7.5 0 0 0-1.264 2.604c-.42 1.576 1.128 2.77 2.76 2.582l4.186-.476 4.16-.468c1.646-.186 2.868-1.7 2.1-3.142a7.8 7.8 0 0 0-1.834-2.252"/><path fill="#78350F" d="M102.018 61.8a20.7 20.7 0 0 0 5.438-14.22 20.6 20.6 0 0 0-2.076-8.788c-3.732-7.718-13.174-13.744-22.838-11.732q-.59.13-1.168.302a11.6 11.6 0 0 0-3.92 2.08c-2.582 2.06-7.326 3.44-12.752 3.44h-.616c-5.424 0-10.168-1.384-12.75-3.444a11.6 11.6 0 0 0-3.922-2.078 16 16 0 0 0-1.168-.302c-9.662-2.012-19.104 4.014-22.836 11.732a20.6 20.6 0 0 0-2.076 8.786 20.72 20.72 0 0 0 5.44 14.222 1.46 1.46 0 0 1 .356 1.204c-2.328 13.1 1.108 23.88 8.18 31.554 7.428 8.06 18.324 12.076 28.894 12.294h.382c10.568-.218 21.466-4.232 28.894-12.292 7.072-7.676 10.508-18.454 8.18-31.556a1.45 1.45 0 0 1 .356-1.204zm-6.186-2.272a1.74 1.74 0 0 0-.6 1.764c5.49 22.872-8.62 36.224-24.83 39.086h-.01a38 38 0 0 1-4.732.54c-.094 0-.2.01-.294.01-.296.02-.6.02-.896.032h-.074l-.02-.002h-.054c-.296-.01-.6-.01-.896-.03-.094 0-.2-.012-.296-.012a38 38 0 0 1-4.73-.54h-.012C42.18 97.516 28.068 84.164 33.56 61.29a1.74 1.74 0 0 0-.6-1.762 15 15 0 0 1-5.66-11.9 14.9 14.9 0 0 1 1.486-6.306c2.76-5.716 9.706-9.876 16.23-8.516.764.156 2.812.82 4.808 1.756.724.34 1.404.764 2.04 1.244 2.616 1.976 7.25 3.29 12.532 3.296 5.284-.004 9.92-1.32 12.534-3.294.636-.48 1.314-.904 2.04-1.244 1.994-.936 4.042-1.6 4.808-1.758 6.522-1.36 13.468 2.8 16.23 8.518a14.9 14.9 0 0 1 1.484 6.306 15 15 0 0 1-5.66 11.898"/></svg></svg>
