<svg xmlns="http://www.w3.org/2000/svg" viewBox="0 0 32 32"><defs><clipPath id="a"><path d="M2.82 2.82h26.36v26.36H2.82Zm0 0"/></clipPath><clipPath id="b"><path d="M2.82 3H24v26.18H2.82Zm0 0"/></clipPath><clipPath id="c"><path d="M2.82 4h26.36v25.18H2.82Zm0 0"/></clipPath><clipPath id="d"><path d="M5 7h18v22.18H5Zm0 0"/></clipPath><clipPath id="e"><path d="M8 7h21.18v22.18H8Zm0 0"/></clipPath></defs><path fill="#1e1c29" fill-rule="evenodd" d="M32 16c0 8.836-7.164 16-16 16S0 24.836 0 16 7.164 0 16 0s16 7.164 16 16m0 0"/><g clip-path="url(#a)"><path fill="none" stroke="#fff" stroke-width="1.392" d="M3.562 16C3.562 9.127 9.128 3.561 16 3.561S28.436 9.128 28.436 16 22.87 28.436 16 28.436 3.562 22.87 3.562 16Zm0 0"/></g><g clip-path="url(#b)"><path fill="none" stroke="#fff" stroke-width="1.392" d="M3.937 12.554c2.336-.672 1.91-.832 2.402-.672.496.16 8.957 15.957 9.012 16.18"/></g><g clip-path="url(#c)"><path fill="none" stroke="#fff" stroke-width="1.392" d="M6.347 12.007c.293.063 3.559 2.074 3.918 2.535.36.461.852 1.945 1.242 2.242.39.293.75.196 1.11.063.359-.13 1.566-1.742 1.894-1.973.324-.23.719-.101.914.262s6.273 11.28 6.512 11.722"/></g><path fill="#0fffff" d="m14.7 14.98-.927 10.114Zm0 0"/><g clip-path="url(#d)"><path fill="none" stroke="#fff" stroke-width="1.392" d="m14.698 14.98-.925 10.113Zm0 0"/></g><g clip-path="url(#e)"><path fill="none" stroke="#fff" stroke-width="1.392" d="M16.648 16.96c.363-.262.394-.129.593-.36.196-.23.262-.788.36-1.116.101-.329.496-.23.758-.133.261.097.527.23.757.558s5.36 6.34 5.918 6.602c.559.261.625.207 1.266.261"/></g></svg>
