<svg xmlns="http://www.w3.org/2000/svg" viewBox="0 0 128 128"><path fill="#fff" d="M64 128c35.346 0 64-28.654 64-64S99.346 0 64 0 0 28.654 0 64s28.654 64 64 64"/><path fill="#28282A" d="M24 24h26.669v26.669H24zm26.669 26.669L77.33 24H104v26.669zM77.33 77.332H104V104H77.331zM24 104V77.331l26.669-26.662V104z"/><svg xmlns="http://www.w3.org/2000/svg" viewBox="0 0 128 128"><path fill="#1E1C29" stroke="#fff" stroke-width="3.37" d="M62 33.999C62 16.319 76.32 2 93.999 2 111.679 2 126 16.32 126 33.999 126 51.679 111.679 66 93.999 66S62 51.679 62 33.999Z"/><path fill="#1E1C29" d="M62.953 25.136c6.02-1.736 4.918-2.147 6.19-1.736 1.272.413 23.05 41.061 23.186 41.644"/><path fill="none" stroke="#fff" stroke-width="3.37" d="M62.953 25.136c6.02-1.736 4.918-2.147 6.19-1.736 1.272.413 23.05 41.061 23.186 41.644"/><path fill="#1E1C29" d="M69.164 23.73c.75.153 9.156 5.337 10.081 6.523.927 1.188 2.184 4.999 3.192 5.762s1.934.508 2.858.169 4.033-4.49 4.874-5.083 1.848-.253 2.352.679c.503.93 16.14 29.028 16.762 30.159M95.671 36.472c.93-.676 1.016-.339 1.522-.928.508-.593.678-2.028.932-2.873.255-.847 1.27-.595 1.946-.34s1.354.593 1.946 1.44c.594.842 13.792 16.308 15.232 16.986 1.436.674 1.611.526 3.258.674"/><path fill="none" stroke="#fff" stroke-width="3.37" d="M69.164 23.73c.75.153 9.156 5.337 10.081 6.523.927 1.188 2.184 4.999 3.192 5.762s1.934.508 2.858.169 4.033-4.49 4.874-5.083 1.848-.253 2.352.679c.503.93 16.14 29.028 16.762 30.159M90.656 31.373l-2.388 26.028m7.403-20.929c.93-.676 1.016-.339 1.522-.928.508-.593.678-2.028.932-2.873.255-.847 1.27-.595 1.946-.34s1.354.593 1.946 1.44c.594.842 13.792 16.308 15.232 16.986 1.436.674 1.611.526 3.258.674"/></svg></svg>
