<svg xmlns="http://www.w3.org/2000/svg" fill="none" viewBox="0 0 600 600"><path fill="#fff" d="M600 299.97a300.06 300.06 0 0 1-87.859 212.153A299.94 299.94 0 0 1 300.03 600a299.93 299.93 0 0 1-212.15-87.855A300.08 300.08 0 0 1 0 299.97a300.1 300.1 0 0 1 42.246-153.569A300 300 0 0 1 157.125 36.099c6.076-3.282 12.152-6.381 18.592-9.237A298.65 298.65 0 0 1 300.03 0a299.93 299.93 0 0 1 196.639 73.456 300.05 300.05 0 0 1 100.354 184.399c.972 6.806 1.701 13.613 2.248 20.541s.729 14.342.729 21.574"/><path fill="#000" d="M237.504 127.539v116.099H112.5V127.539zM487.5 359.725H362.496v116.098H487.5zm0-232.186H362.496L237.504 243.638H487.5zm-375 232.186v116.098h125.004V243.638z"/><g clip-path="url(#a)"><path fill="#1E1C29" d="M413.501 551.002c75.94 0 137.501-61.561 137.501-137.501S489.441 276 413.501 276 276 337.561 276 413.501s61.561 137.501 137.501 137.501"/><mask id="b" width="227" height="227" x="300" y="300" maskUnits="userSpaceOnUse" style="mask-type:luminance"><path fill="#fff" d="M526.749 300.252H300.252v226.497h226.497z"/></mask><g stroke="#fff" stroke-width="12.354" mask="url(#b)"><path d="M306.633 413.5c0-59.043 47.825-106.868 106.868-106.868S520.369 354.457 520.369 413.5s-47.825 106.868-106.868 106.868S306.633 472.543 306.633 413.5Z"/><path d="M309.822 383.9c20.1-5.795 16.42-7.174 20.666-5.795 4.247 1.38 76.983 137.129 77.43 139.073"/><path d="M330.559 379.206c2.504.515 30.585 17.825 33.671 21.786s7.295 16.693 10.662 19.239c3.367 2.547 6.454 1.698 9.54.567 3.087-1.132 13.469-14.996 16.275-16.976 2.806-1.981 6.173-.85 7.857 2.263 1.683 3.112 53.904 96.948 55.978 100.725m-62.205-102.082-7.976 86.93m24.723-69.895c3.109-2.257 3.391-1.129 5.087-3.104s2.261-6.774 3.108-9.596c.848-2.823 4.239-1.976 6.5-1.129 2.26.847 4.521 1.975 6.5 4.797 1.978 2.823 46.063 54.473 50.867 56.731 4.804 2.257 5.377 1.762 10.88 2.257"/></g></g><defs><clipPath id="a"><path fill="#fff" d="M276 276h275v275H276z"/></clipPath></defs></svg>
