<svg xmlns="http://www.w3.org/2000/svg" viewBox="0 0 128 128"><path fill="#fff" d="M64 128c35.346 0 64-28.654 64-64S99.346 0 64 0 0 28.654 0 64s28.654 64 64 64"/><path fill="#28282a" d="M24 24h26.669v26.669H24zm26.669 26.669L77.33 24H104v26.669zM77.33 77.332H104V104H77.331zM24 104V77.331l26.669-26.662V104z"/><circle cx="64" cy="64" r="64" fill="#1e1c29" transform="translate(64)scale(.5)"/><path fill="none" stroke="#fff" stroke-width="3.375" d="M65.803 32C65.803 15.316 79.317 1.803 96 1.803S126.197 15.317 126.197 32 112.684 62.197 96 62.197 65.803 48.684 65.803 32Z"/><path fill="none" stroke="#fff" stroke-width="3.375" d="M66.704 23.636c5.68-1.637 4.64-2.027 5.84-1.637s21.753 38.748 21.879 39.297"/><path fill="none" stroke="#fff" stroke-width="3.375" d="M72.564 22.31c.707.145 8.642 5.037 9.514 6.156s2.061 4.716 3.013 5.436 1.823.48 2.695.16 3.806-4.237 4.599-4.796 1.744-.24 2.22.639 15.232 27.393 15.818 28.461M92.845 29.521l-2.253 24.564m6.986-19.75c.878-.638.957-.32 1.436-.877s.64-1.914.879-2.712c.24-.797 1.198-.558 1.837-.319s1.278.559 1.837 1.356 13.015 15.392 14.373 16.03 1.519.498 3.074.638"/></svg>
