<svg xmlns="http://www.w3.org/2000/svg" viewBox="0 0 128 128"><circle cx="64" cy="64" r="64" fill="#FFF"/><path fill="#664AED" d="M56.774 89.41 49.5 87.57l-2.677 10.574 7.273 1.842z"/><path fill="#146AF4" d="m69.373 92.597-7.274-1.843-2.676 10.575 7.273 1.842zm16.053-63.48-7.273-1.84-2.678 10.575 7.273 1.842z"/><path fill="#664AED" d="m72.88 25.902-7.273-1.841-2.677 10.574 7.273 1.842z"/><path fill="#9077ED" d="m72.763 93.493-37.557-9.528 2.255-8.93 37.559 9.529c3.221.828 6.443-.966 7.18-3.959.736-2.991-1.243-6.075-4.465-6.903l-23.473-5.938 2.255-8.929 23.474 5.937C88.46 66.935 93.753 75.128 91.728 83c-2.025 7.87-10.54 12.611-19.01 10.448z"/><path fill="#664AED" d="M70.193 36.509 57.923 33.4l-13.41 52.964 12.27 3.106z"/><path fill="#6FF1E1" d="m74.103 68.037-23.474-5.938 2.255-8.929 23.474 5.938c3.222.828 6.444-.966 7.18-3.959.737-2.992-1.243-6.075-4.465-6.904l-32.77-8.284 2.254-8.93 32.771 8.285c8.47 2.164 13.762 10.356 11.737 18.226-2.025 7.871-10.54 12.612-19.009 10.449z"/><path fill="#664AED" d="m70.139 36.47-12.27-3.108-2.565 10.13 12.27 3.106z"/><path fill="#1E1C29" stroke="#fff" stroke-width="3.37" d="M62 93.999C62 76.319 76.32 62 93.999 62 111.679 62 126 76.32 126 93.999 126 111.679 111.679 126 93.999 126S62 111.679 62 93.999Z"/><path fill="#1E1C29" d="M62.953 85.136c6.02-1.736 4.918-2.147 6.19-1.736 1.272.413 23.05 41.061 23.186 41.644"/><path stroke="#fff" stroke-width="3.37" d="M62.953 85.136c6.02-1.736 4.918-2.147 6.19-1.736 1.272.413 23.05 41.061 23.186 41.644"/><path fill="#1E1C29" d="M69.164 83.73c.75.153 9.156 5.337 10.081 6.523.927 1.188 2.184 4.999 3.192 5.762s1.934.508 2.858.169 4.033-4.49 4.874-5.083 1.848-.253 2.352.679c.503.93 16.14 29.028 16.762 30.159M95.671 96.472c.93-.676 1.016-.339 1.522-.928.508-.593.678-2.028.932-2.873.255-.847 1.27-.595 1.946-.34s1.354.593 1.946 1.44c.594.842 13.792 16.308 15.232 16.986 1.436.674 1.611.526 3.258.674"/><path stroke="#fff" stroke-width="3.37" d="M69.164 83.73c.75.153 9.156 5.337 10.081 6.523.927 1.188 2.184 4.999 3.192 5.762s1.934.508 2.858.169 4.033-4.49 4.874-5.083 1.848-.253 2.352.679c.503.93 16.14 29.028 16.762 30.159M90.656 91.373l-2.388 26.028m7.403-20.929c.93-.676 1.016-.339 1.522-.928.508-.593.678-2.028.932-2.873.255-.847 1.27-.595 1.946-.34s1.354.593 1.946 1.44c.594.842 13.792 16.308 15.232 16.986 1.436.674 1.611.526 3.258.674"/></svg>
