<svg xmlns="http://www.w3.org/2000/svg" viewBox="0 0 128 128"><circle cx="64" cy="64" r="64" fill="#fff"/><path fill="#664aed" d="M56.774 89.41 49.5 87.57l-2.677 10.574 7.273 1.842z"/><path fill="#146af4" d="m69.373 92.597-7.274-1.843-2.676 10.575 7.273 1.842zm16.053-63.48-7.273-1.84-2.678 10.575 7.273 1.842z"/><path fill="#664aed" d="m72.88 25.902-7.273-1.841-2.677 10.574 7.273 1.842z"/><path fill="#9077ed" d="m72.763 93.493-37.557-9.528 2.255-8.93 37.559 9.529c3.221.828 6.443-.966 7.18-3.959.736-2.991-1.243-6.075-4.465-6.903l-23.473-5.938 2.255-8.929 23.474 5.937C88.46 66.935 93.753 75.128 91.728 83c-2.025 7.87-10.54 12.611-19.01 10.448z"/><path fill="#664aed" d="M70.193 36.509 57.923 33.4l-13.41 52.964 12.27 3.106z"/><path fill="#6ff1e1" d="m74.103 68.037-23.474-5.938 2.255-8.929 23.474 5.938c3.222.828 6.444-.966 7.18-3.959.737-2.992-1.243-6.075-4.465-6.904l-32.77-8.284 2.254-8.93 32.771 8.285c8.47 2.164 13.762 10.356 11.737 18.226-2.025 7.871-10.54 12.612-19.009 10.449z"/><path fill="#664aed" d="m70.139 36.47-12.27-3.108-2.565 10.13 12.27 3.106z"/><circle cx="64" cy="64" r="64" fill="#1e1c29" transform="translate(64)scale(.5)"/><path fill="none" stroke="#fff" stroke-width="3.375" d="M65.803 32C65.803 15.316 79.317 1.803 96 1.803S126.197 15.317 126.197 32 112.684 62.197 96 62.197 65.803 48.684 65.803 32Z"/><path fill="none" stroke="#fff" stroke-width="3.375" d="M66.704 23.636c5.68-1.637 4.64-2.027 5.84-1.637s21.753 38.748 21.879 39.297"/><path fill="none" stroke="#fff" stroke-width="3.375" d="M72.564 22.31c.707.145 8.642 5.037 9.514 6.156s2.061 4.716 3.013 5.436 1.823.48 2.695.16 3.806-4.237 4.599-4.796 1.744-.24 2.22.639 15.232 27.393 15.818 28.461M92.845 29.521l-2.253 24.564m6.986-19.75c.878-.638.957-.32 1.436-.877s.64-1.914.879-2.712c.24-.797 1.198-.558 1.837-.319s1.278.559 1.837 1.356 13.015 15.392 14.373 16.03 1.519.498 3.074.638"/></svg>
