<svg xmlns="http://www.w3.org/2000/svg" viewBox="0 0 128 128"><circle cx="64" cy="64" r="64" fill="#00b988"/><path fill="#fff" d="M31.36 27.52h65.45v14.53H71.357v14.529H56.813v-14.53H31.36zm25.453 29.059v29.059H42.268V56.579zm14.546 29.059H85.9V56.579H71.357v29.059H56.815v14.529h14.544z"/><circle cx="64" cy="64" r="64" fill="#1e1c29" transform="translate(64)scale(.5)"/><path fill="none" stroke="#fff" stroke-width="3.375" d="M65.803 32C65.803 15.316 79.317 1.803 96 1.803S126.197 15.317 126.197 32 112.684 62.197 96 62.197 65.803 48.684 65.803 32Z"/><path fill="none" stroke="#fff" stroke-width="3.375" d="M66.704 23.636c5.68-1.637 4.64-2.027 5.84-1.637s21.753 38.748 21.879 39.297"/><path fill="none" stroke="#fff" stroke-width="3.375" d="M72.564 22.31c.707.145 8.642 5.037 9.514 6.156s2.061 4.716 3.013 5.436 1.823.48 2.695.16 3.806-4.237 4.599-4.796 1.744-.24 2.22.639 15.232 27.393 15.818 28.461M92.845 29.521l-2.253 24.564m6.986-19.75c.878-.638.957-.32 1.436-.877s.64-1.914.879-2.712c.24-.797 1.198-.558 1.837-.319s1.278.559 1.837 1.356 13.015 15.392 14.373 16.03 1.519.498 3.074.638"/></svg>
