<svg xmlns="http://www.w3.org/2000/svg" viewBox="0 0 128 128"><circle cx="64" cy="64" r="64" fill="#0E0B31"/><path fill="none" stroke="#120370" stroke-width="3.5" d="M63.99 123.03c32.606 0 59.039-26.433 59.039-59.04S96.596 4.95 63.989 4.95 4.95 31.383 4.95 63.99s26.433 59.04 59.04 59.04Z"/><path fill="none" stroke="#F09242" stroke-width="2.24" d="M63.99 123.03c32.606 0 59.039-26.433 59.039-59.04S96.596 4.95 63.989 4.95 4.95 31.383 4.95 63.99s26.433 59.04 59.04 59.04Z"/><path fill="url(#a)" d="M86.175 52.265c-.703-7.333-7.028-9.792-15.028-10.542V31.626h-6.185v9.91h-4.943v-9.91h-6.137v10.167H41.336v6.618s4.568-.081 4.498 0a3.2 3.2 0 0 1 3.513 2.718V78.96a2.18 2.18 0 0 1-.749 1.511 2.14 2.14 0 0 1-1.593.539c.082.07-4.498 0-4.498 0l-1.171 7.39h12.427v10.332h6.185V88.553h4.943v10.132h6.196V88.471c10.449-.632 17.735-3.21 18.648-12.99.738-7.871-2.963-11.386-8.879-12.803 3.597-1.769 5.822-5.048 5.318-10.412m-8.667 21.998c0 7.684-13.166 6.805-17.36 6.805V67.435c4.194.011 17.36-1.195 17.36 6.829m-2.87-19.21c0 7.027-10.988 6.172-14.478 6.172V48.834c3.49 0 14.478-1.1 14.478 6.22"/><defs><linearGradient id="a" x1="44.696" x2="89.179" y1="75.713" y2="64.024" gradientUnits="userSpaceOnUse"><stop stop-color="#29BCFA"/><stop offset=".43" stop-color="#6464E4"/><stop offset="1" stop-color="#B45AFA"/></linearGradient></defs></svg>
