<svg xmlns="http://www.w3.org/2000/svg" viewBox="0 0 192 128"><circle cx="64" cy="64" r="64" fill="#ace731"/><circle cx="64" cy="64" r="56" fill="#fff"/><path fill="#91c22a" d="M65.992 16v35.48l29.988 13.4z"/><path fill="#c2ec69" d="M65.992 16 36 64.88l29.992-13.4z"/><path fill="#6d8f21" d="M65.992 87.872v24.108L96 70.464z"/><path fill="#c1eb69" d="M65.992 111.98V87.868L36 70.464z"/><path fill="#a3da2e" d="M65.992 82.292 95.98 64.88 65.992 51.488z"/><path fill="#e2f6b8" d="m36 64.88 29.992 17.412V51.488z"/><path d="M99.884 126.95c32.172 0 32.172-.48 37.628-2.098 7.128-2.116-20.128-20.984-37.628-20.984s-31.688 5.168-31.688 11.54c0 6.376 14.188 11.542 31.688 11.542"/><path d="m172.94 28.81 1.48 1.594-1.294 1.748c-41.96 56.734-66.132 82.42-76.388 78.976-6.246-2.1-12.51-8.41-18.776-17.574a130 130 0 0 1-6.15-9.988 108 108 0 0 1-2.862-5.452c-.702-1.474-1-2.38-1.234-3.572l-.028-.144q-.084-.475-.206-.942a57.2 57.2 0 0 1-1.908-14.702c0-31.58 25.6-57.18 57.18-57.18 9.894 0 19.428 2.518 27.878 7.244l.218.136q10.374 7.226 22.09 19.856m-24.982-15.476a51.7 51.7 0 0 0-25.204-6.514c-28.682 0-51.934 23.252-51.934 51.934 0 4.558.586 9.036 1.732 13.356.114.428.166.67.286 1.288l.024.128c.152.768.312 1.26.822 2.33a104 104 0 0 0 2.71 5.156c1.82 3.281 3.79 6.478 5.9 9.58 5.66 8.28 11.272 13.936 16.116 15.562 6.458 2.17 30.772-23.568 69.196-75.364q-10.468-11.042-19.648-17.456"/><path fill="#ec1c79" d="M147.958 13.334a51.7 51.7 0 0 0-25.204-6.514c-28.682 0-51.934 23.252-51.934 51.934 0 4.558.586 9.036 1.732 13.356.114.428.166.67.286 1.288l.024.128c.152.768.312 1.26.822 2.33a104 104 0 0 0 2.71 5.156c1.82 3.281 3.79 6.478 5.9 9.58 5.66 8.28 11.272 13.936 16.116 15.562 6.458 2.17 30.772-23.568 69.196-75.364q-10.468-11.042-19.648-17.456"/><path d="M133.246 126.426c-31.58 0-57.18-25.6-57.18-57.18s25.6-57.18 57.18-57.18 57.18 25.6 57.18 57.18-25.6 57.18-57.18 57.18m0-5.246c28.682 0 51.934-23.252 51.934-51.934s-23.252-51.934-51.934-51.934-51.934 23.252-51.934 51.934 23.252 51.934 51.934 51.934"/><path fill="#fff" d="M133.246 121.18c28.682 0 51.934-23.252 51.934-51.934s-23.252-51.934-51.934-51.934-51.934 23.252-51.934 51.934 23.252 51.934 51.934 51.934"/><path d="m94.396 79.884-6.874-20.71h6.022l3.584 11.898 3.966-11.956H106l3.966 11.956 3.584-11.9h5.906l-6.876 20.714h-4.966l-4.14-11.84-4.114 11.84zm27.32-.146V59.174h16.54v4.846H127.36v3.114h9.87v4.496h-9.87v3.26h11.046v4.848zm24.62 0v-15.57h-6.17v-4.994h18.038v4.994h-6.17v15.57zm14.364 0V59.174h5.7v7.696h7.314v-7.696h5.7v20.564h-5.7v-7.814H166.4v7.814zm-91.72-26.75a2.937 2.937 0 1 1 2.628-5.254l8.394 4.196a2.938 2.938 0 0 1-2.628 5.254zm-.966 13.918a2.938 2.938 0 0 1 2.462-5.336l8.394 3.874a2.938 2.938 0 0 1-2.46 5.336z"/></svg>
