<svg xmlns="http://www.w3.org/2000/svg" viewBox="0 0 128 128"><path fill="#0f0c09" d="m50.99 4.254.087.067c.637.504 1.268 1.048 1.797 1.666q.15.168.3.33.171.205.332.418c3.201.384 6.421.665 9.627.988l9.549.962 4.218.396c3.119.348 3.119.348 3.863.915l.502.37q.275.202.543.41.519.395 1.047.78.62.453 1.234.923.258.196.52.388.355.261.708.532.519.394 1.047.78.62.454 1.234.922.258.198.52.389.356.261.708.532.519.396 1.047.779.62.456 1.234.924.258.196.52.387.355.263.708.533.441.336.888.663.29.214.58.434l.471.347q.457.338.907.684.26.196.521.388.357.262.71.532.517.396 1.045.78a71 71 0 0 1 1.237.925l.606.457c.03 1.229.036 2.458.027 3.688l-.013 2.055-.014 1.594.142.07c.42.297.826.611 1.233.924q.26.196.521.388.453.334.897.675l.521.389q.451.333.897.675.26.196.521.386.451.336.897.677.258.196.52.388.453.334.897.676.26.196.521.387.453.334.897.676.26.196.521.386.451.336.897.677.26.196.521.388.451.334.897.676.258.196.521.387.451.334.897.676.258.196.52.387.453.335.897.676.26.196.521.388.451.333.897.675l.521.389q.639.472 1.27.96.802.61 1.618 1.202c-.169.355-.36.695-.555 1.035q-.186.324-.365.648-.28.5-.566.997l-.356.633q-.28.502-.567 1.002-.287.498-.567 1l-.347.614-.225.4q-.314.555-.632 1.109-.334.585-.662 1.173l-.467.83-.224.397-.631 1.109q-.335.585-.663 1.173-.342.616-.691 1.227l-.631 1.108q-.334.586-.663 1.174l-.466.828-.227.401-.347.616-.131.231a14 14 0 0 1-1.871 2.61l-.205.234q-.218.242-.45.47l-.162.163a10 10 0 0 1-.442.402l-.104.091c-.95.819-2.005 1.473-3.122 2.036l-.165.084c-.893.44-1.895.838-2.883.98l.052.07q.621.826 1.224 1.666l.103.145c4.634 6.505 6.011 14.322 4.76 22.155-.734 4.344-2.111 8.683-4.331 12.507l-.097.171a28.7 28.7 0 0 1-3.072 4.326q-.13.154-.257.312-.193.237-.398.461a8 8 0 0 0-.195.219q-.255.29-.518.572l-.162.18c-.312.336-.637.659-.962.983l-.388.389q-.3.296-.615.574l-.242.227q-.267.248-.55.476-.146.12-.282.25a9 9 0 0 1-.574.472 11 11 0 0 0-.35.292q-.315.263-.645.506-.263.197-.524.397-.434.333-.89.638-.234.16-.467.327-.442.31-.9.598l-.155.1a43.6 43.6 0 0 1-5.48 2.983l-.253.118c-10.25 4.712-22.305 5.758-33.348 3.817l-.345-.061c-4.563-.832-9.136-2.39-13.191-4.659q-.315-.174-.63-.34a34 34 0 0 1-1.429-.824l-.19-.113a45 45 0 0 1-5.623-3.963l-.19-.156a48 48 0 0 1-.66-.553l-.127-.107a25 25 0 0 1-.672-.594l-.225-.199c-.207-.179-.406-.367-.607-.553l-.247-.229c-.392-.371-.773-.752-1.156-1.134l-.433-.434q-.316-.316-.61-.649l-.284-.301q-.376-.4-.73-.818l-.459-.53a14 14 0 0 1-.525-.644 13 13 0 0 0-.266-.324c-.224-.265-.432-.544-.643-.822l-.229-.299a37 37 0 0 1-.692-.941l-.096-.132c-1.663-2.324-3.086-4.831-4.299-7.417l-.127-.266c-6.816-14.338-7.56-31.267-1.857-52.722a62 62 0 0 1 2.162-5.353l.134-.29a46 46 0 0 1 1.462-2.922q.195-.358.386-.72.362-.68.748-1.35l.127-.223c.958-1.67 1.956-3.328 3.098-4.88l.23-.32.576-.797.229-.317q.355-.497.72-.986.179-.243.353-.486.423-.584.852-1.163l.628-.856.112-.155c.095-.129.095-.129.162-.272a6 6 0 0 0-.148-.396c-1.675-4.226-1.8-8.985 0-13.196.739-1.661 1.67-3.235 2.906-4.577q.094-.101.18-.206c.205-.23.423-.443.64-.66l.262-.263q.251-.249.52-.48l.113-.097C35.18.287 44.668-.708 50.99 4.255"/><path fill="#2acffc" d="m44.751 11.733.168.025c1.691.287 3.405 1.171 4.653 2.35l.131.11q.618.541 1.109 1.2c.202.012.202.012.435-.005l.237-.013.48-.035c1.642-.092 3.275.01 4.91.16l.567.05q.814.082 1.625.188 1.22.153 2.437.301 1.084.13 2.169.274.728.093 1.46.18l.567.069.292.034 1.373.169 2.29.275c1.686.202 3.368.417 5.047.658l.577.078.532.075.463.063c.382.068.707.146 1.012.39l.106.084.11.09.118.09q.336.262.665.532.307.252.623.49.278.217.549.442.18.147.367.289.333.256.657.523.316.255.637.505.393.306.782.623.252.207.511.405c.225.17.44.346.657.523q.317.255.638.505.465.363.923.738.254.203.511.402l.403.325q.29.237.589.464.386.297.761.61.255.21.515.41.207.162.409.33.33.268.665.529.203.159.399.324.456.375.922.741.274.215.546.434l.137.11c.214.183.392.356.53.604l.07.12c.18.373.242.78.323 1.182l.095.457.106.514.12.576c.316 1.527.316 1.527.436 2.153q.087.466.193.928c.056.25.112.5.157.753.12.603.415 1.05.914 1.405l.165.11c.268.18.526.369.784.565q.273.201.558.39.316.222.624.447.38.275.763.54.458.322.914.652.43.31.863.61.547.38 1.089.775.33.24.668.467.365.25.722.515.333.241.671.473l.78.549.3.214 1.356.957.3.212q.387.269.768.548.327.237.66.46.42.287.831.59l.267.19.105.075.088.062c.117.096.176.174.198.324-.018.126-.018.126-.077.224-.294.198-.707.206-1.051.246q-.912.105-1.82.224c-.75.093-1.498.18-2.25.248-.262.037-.445.075-.612.284-.307.576-.044 1.567.121 2.16l.043.159a5.44 5.44 0 0 0 2.172 3.003c.172.137.32.262.364.482-.061.337-.305.605-.523.858l-.064.074c-.382.425-.916.68-1.487.71l-.137.003h-.137c-.286-.014-.565-.069-.847-.116-1.417-.235-2.851-.359-4.28-.487-1.386-.137-1.386-.137-1.974-.535l-.214-.143-.217-.145-.399-.254-.194-.123-.529-.333a58 58 0 0 1-.857-.553l-.573-.366q-.551-.351-1.1-.71-.517-.336-1.038-.669-.499-.317-.995-.641l-.766-.497-.302-.195-.15-.097-.604-.391-.296-.192-.81-.525q-.813-.528-1.629-1.049-.462-.31-.93-.61l-.156-.1-.156-.102a492 492 0 0 1-1.914-1.24l-1.612-1.047-1.313-.85-1.31-.85-1.316-.853-.298-.193-.176-.114-.176-.114-.16-.104c-.125-.093-.125-.093-.196-.235-.017-.13-.014-.191.057-.303a.6.6 0 0 1 .31-.173l.145-.045q.36-.102.72-.197c.334-.094.663-.198.993-.302q.552-.17 1.106-.327l.187-.054a59 59 0 0 1 .765-.215q.735-.207 1.463-.435.399-.123.797-.235.336-.095.67-.195.516-.153 1.036-.302.793-.225 1.581-.463.594-.18 1.188-.344.61-.172 1.221-.355c.56-.167 1.129-.23 1.707-.31 1.11-.145 1.11-.145 2.074-.672.18-.362-.03-.86-.139-1.21a16 16 0 0 1-.218-.819q-.133-.555-.3-1.099c-.078-.255-.145-.515-.212-.775-.167-.55-.526-.793-.982-1.115a23 23 0 0 1-.633-.475 32 32 0 0 0-.564-.426l-.106-.09c-.2-.122-.393-.156-.62-.204l-.297-.064-1.367-.282q-.593-.122-1.184-.254l-.954-.203q-.645-.135-1.289-.279c-.684-.153-1.368-.296-2.053-.441q-1.08-.23-2.156-.47-.477-.105-.957-.197-.393-.075-.782-.167a40 40 0 0 0-1.894-.4q-.315-.064-.629-.142-.186-.044-.377-.083-.317-.069-.63-.146a6 6 0 0 0-.736-.142c-.109-.018-.206-.052-.31-.087l-.14-.018a1.7 1.7 0 0 1-.355-.087l-.142-.019a2 2 0 0 1-.354-.088l-.142-.018a1.7 1.7 0 0 1-.354-.09l-.284-.034-.035-.035a8 8 0 0 0-.34-.05 3 3 0 0 1-.334-.092l-.242-.043c-1.468-.249-1.468-.249-1.565-.348l-.23-.035c-.227-.031-.227-.031-.267-.07l-.262-.047q-.44-.077-.877-.175c-.43-.086-.883.064-1.302.153l-.414.088q-.683.147-1.363.3-.51.11-1.022.214-.6.12-1.2.257c-.642.147-1.287.282-1.931.417q-.95.201-1.898.408-.399.086-.799.162c-.296.034-.296.034-.416.172q-.105.189-.208.381-.233.438-.481.871c-.255.449-.491.91-.728 1.37l-.174.334a186 186 0 0 0-1.989 3.885l-.383.764q-.291.58-.569 1.166a77 77 0 0 1-.404.83q-.372.768-.722 1.549-.103.23-.21.457a38 38 0 0 0-2.178 5.974q-.084.294-.173.585a40 40 0 0 0-.784 3.207l-.069.324c-1.75 8.285-2.067 17.713-.108 25.975l.053.225c.115.5.254.988.408 1.476l.084.272c.937 3.026 2.088 6.05 3.673 8.802l.153.312c.127.244.273.48.414.716l.107.182a37 37 0 0 0 1.24 1.98l.168.255q.71 1.07 1.498 2.084l.17.225q.261.335.53.662.162.2.317.4.218.278.457.534.125.138.24.284.23.277.48.54.221.243.433.498.142.163.289.323.16.174.308.36c.137.175.286.337.437.5q.13.141.25.293c.171.214.358.412.548.611q.185.2.361.406l.156.17q.162.18.311.369c.173.211.362.41.549.609q.186.204.357.421.142.166.293.328.237.253.451.523.133.157.275.309.228.247.437.509.116.14.236.271.204.225.39.459.158.19.32.374.365.417.71.851l.08.098.154.187.244.299.11.135q.311.381.61.771l.337.43q.309.399.602.81l.225.311c1.823 2.487 3.117 5.223 3.574 8.283l.022.146c.068.473.068.473.049.705-.106.141-.106.141-.254.181-.216-.005-.304-.076-.455-.217l-.109-.097a16 16 0 0 1-.599-.576 5 5 0 0 0-.274-.245q-.16-.148-.311-.304c-.18-.182-.18-.182-.37-.353-.186-.157-.352-.333-.524-.506a7 7 0 0 0-.33-.302c-.127-.113-.246-.238-.367-.36a7 7 0 0 0-.305-.276c-.118-.106-.228-.221-.34-.333a5 5 0 0 0-.299-.27 7 7 0 0 1-.311-.306 5 5 0 0 0-.295-.265c-.11-.097-.211-.204-.315-.308l-.13-.115a16 16 0 0 1-.45-.412q-.285-.27-.576-.531l-.302-.275a27 27 0 0 0-.735-.648 18 18 0 0 1-.436-.383 9 9 0 0 0-.364-.31 9 9 0 0 1-.392-.339 11 11 0 0 0-.479-.409q-.255-.211-.502-.43-.406-.357-.825-.7-.302-.249-.594-.507-.296-.255-.595-.506l-.23-.194-.346-.292-.72-.614-.352-.299a97 97 0 0 1-.727-.621l-.134-.116c-.652-.562-1.288-1.146-1.85-1.798l-.266-.284a17 17 0 0 1-.515-.567l-.078-.09-.17-.194c.479 2.482 1.558 4.846 2.623 7.125l.131.283c.416.89.835 1.782 1.32 2.635q.1.183.19.367c.142.29.304.568.465.848q.2.358.39.721.315.585.653 1.156.19.33.364.669.105.197.224.388.106.177.206.361.174.308.352.611l.089.152q.074.126.153.251c.094.155.157.271.146.454-.04.142-.04.142-.182.248-1.215.092-2.653-.218-3.853-.476a32 32 0 0 0-1.109-.211 12 12 0 0 1-.815-.199l-.324-.074a25 25 0 0 1-.759-.195 9 9 0 0 0-.432-.102c-.244-.055-.48-.134-.717-.211q-.255-.078-.513-.148a19 19 0 0 1-2.04-.687l-.427-.156c-2.21-.815-2.21-.815-2.444-1.05-.017-1.949-.025-3.898-.036-5.848v5.848c-1.26-.525-2.37-1.272-3.402-2.162l-.077-.066-.207-.182-.087-.077a14 14 0 0 1-1.259-1.27l-.112-.126c-1.67-1.91-2.94-4.179-3.858-6.537l-.07-.171c-.29-.71-.511-1.44-.746-2.168l-.077-.231a10 10 0 0 1-.182-.64 39 39 0 0 0-.192-.739 32 32 0 0 1-.47-2.112l-.058-.289c-1.13-5.8-.873-11.844-.899-17.717l-.008-1.866-.02-4.08a977 977 0 0 0-.149-14.754c-.268.33-.527.653-.778.994q-.222.29-.457.572-.255.314-.502.633a46 46 0 0 1-.623.782q-.25.306-.488.62-.165.215-.333.427-.258.33-.506.669-.306.418-.629.829l-.3.386q-.444.578-.906 1.145-.157.192-.31.386a57 57 0 0 1-.655.817l-.088.108-.23.282-.073.09q-1.024 1.251-2.065 2.49l-.259.314q-.192.232-.395.454a7 7 0 0 0-.237.283q-.208.255-.433.496-.136.15-.268.302-.15.172-.304.34a22 22 0 0 1-.638.708l-.225.245c-.306.334-.306.334-.467.49-.128.128-.128.128-.232.25-.203.229-.418.443-.634.659l-.258.261c-.243.232-.243.232-.473.25-.175-.013-.225-.028-.34-.153-.187-.376-.146-.9-.179-1.313l-.022-.279a36 36 0 0 1 .022-5.001l.023-.345a55 55 0 0 1 .51-4.37l.109-.776q.038-.244.081-.49.104-.597.197-1.2c.543-3.326 1.177-6.687 2.2-9.903l.12-.433c.64-2.268 1.523-4.48 2.502-6.621l.171-.383q.165-.367.346-.724l.207-.414q.4-.809.836-1.598l.131-.242q.494-.903 1.04-1.778l.12-.198c.418-.684.866-1.346 1.332-2l.209-.297q.585-.824 1.208-1.617l.178-.23q.683-.889 1.383-1.764.25-.315.495-.63l.196-.247.097-.125.779-.99q.102-.128.2-.26c.384-.498.384-.498.607-.61.418.006.63.271.92.54a8 8 0 0 0 .399.336l.324.271q.294.249.6.486.295.236.586.479.26.213.53.418c.115.093.115.093.231.222.256.182.499.18.81.21l.404.042.442.045.957.106.492.055q.605.066 1.207.14 1.14.136 2.28.253.423.05.841.119l.005-.119q.027-.54.066-1.078c.034-.47.05-.939.063-1.41l.008-.264.006-.29.03-.242c.159-.124.283-.197.46-.283.365-.212.712-.429 1.028-.71.242-.211.242-.211.32-.211l.035-.142q.102-.228.208-.455l.126-.271q.163-.344.333-.683c.284-.595.466-1.22.633-1.857q.056-.211.122-.424c.441-1.536.478-3.33-.253-4.782-.83-1.497-2.349-2.648-3.989-3.12-.553-.127-1.203-.144-1.753 0l-.126.03c-1.104.267-2.107 1.061-2.745 1.992-.862 1.428-1.276 3.514-.885 5.139.292 1.084.996 2.034 1.894 2.691l.09.074v.07l-.087.037-.117.047-.115.048a5 5 0 0 0-.249.117c-1.374.365-2.938.002-4.22-.563-.78-.494-1.16-1.952-1.379-2.804-.49-2.38-.144-4.744 1.14-6.821.604-.915 1.325-1.79 2.191-2.466l.081-.067a8.5 8.5 0 0 1 3.818-1.776l.165-.032a9.2 9.2 0 0 1 3.025.032"/><path fill="#1d4e3f" d="M45.283 49.127h.035a6 6 0 0 1-.14.86c-1.704 8.165-1.965 17.48-.037 25.616l.053.225c.115.5.254.988.408 1.476l.084.273c.937 3.025 2.088 6.049 3.673 8.801l.153.312c.127.244.273.48.414.716l.107.182a37 37 0 0 0 1.24 1.98l.168.255q.71 1.07 1.498 2.084l.17.225q.261.335.53.662.162.2.317.4.218.278.457.534.125.138.24.284.23.277.48.54.221.243.433.498.142.163.289.323.16.174.308.36c.137.175.286.337.437.5q.13.141.25.293c.171.214.358.412.548.611q.185.2.361.406l.156.17q.162.18.311.369c.173.211.362.41.549.609q.186.204.357.421.142.168.293.328.237.253.451.523.133.157.275.309.228.247.437.509.116.14.236.271.204.225.39.459.158.19.32.374.365.417.71.851l.08.098.154.187.244.299.11.135q.311.381.61.771l.337.43q.309.399.602.81l.225.311c1.823 2.487 3.117 5.223 3.574 8.283l.022.146c.068.473.068.473.049.705-.106.141-.106.141-.254.181-.216-.005-.304-.076-.455-.217l-.109-.097a16 16 0 0 1-.599-.576 5 5 0 0 0-.274-.245q-.16-.148-.311-.304c-.18-.182-.18-.182-.37-.353-.186-.157-.352-.333-.524-.506a7 7 0 0 0-.33-.302c-.127-.113-.246-.238-.367-.36a7 7 0 0 0-.305-.276c-.118-.106-.228-.221-.34-.333a5 5 0 0 0-.299-.27 7 7 0 0 1-.311-.306 5 5 0 0 0-.295-.265c-.11-.097-.211-.204-.315-.308l-.13-.115a16 16 0 0 1-.45-.412q-.285-.27-.576-.531l-.302-.275a27 27 0 0 0-.735-.648 18 18 0 0 1-.436-.383 9 9 0 0 0-.364-.31 9 9 0 0 1-.392-.339 11 11 0 0 0-.479-.409q-.255-.211-.502-.43-.406-.357-.825-.7-.302-.249-.594-.507-.296-.255-.595-.506l-.23-.194-.346-.292-.72-.614-.352-.299a99 99 0 0 1-.727-.621l-.134-.116c-.652-.562-1.288-1.146-1.85-1.798l-.266-.284a17 17 0 0 1-.515-.567l-.078-.09-.17-.194c.479 2.482 1.558 4.846 2.623 7.125l.131.283c.416.89.835 1.782 1.32 2.635q.1.183.19.367c.142.29.304.568.465.848q.2.358.39.721.315.585.653 1.156.19.33.364.669.105.197.224.388.106.177.206.361.174.308.352.611l.089.152q.074.126.153.251c.094.155.157.271.146.454-.04.142-.04.142-.182.248-1.215.092-2.653-.218-3.853-.476a35 35 0 0 0-1.109-.211 12 12 0 0 1-.815-.199l-.324-.074a25 25 0 0 1-.759-.195 9 9 0 0 0-.432-.102c-.244-.055-.48-.134-.717-.211q-.255-.078-.513-.148a20 20 0 0 1-2.04-.687l-.427-.156c-2.21-.815-2.21-.815-2.444-1.05-.017-1.949-.025-3.898-.036-5.848v5.848c-1.26-.525-2.37-1.272-3.402-2.162l-.077-.066-.207-.182-.087-.077a14 14 0 0 1-1.259-1.27l-.112-.126c-1.67-1.91-2.94-4.179-3.858-6.537l-.07-.171c-.29-.71-.511-1.44-.746-2.168l-.077-.231a10 10 0 0 1-.182-.64 38 38 0 0 0-.192-.739 32 32 0 0 1-.47-2.112l-.058-.289c-.646-3.318-.745-6.691-.815-10.063l-.028-1.326q-.03-1.959-.02-3.918h.035l.022.151c.083.459.242.904.393 1.343q.056.172.11.347c.12.392.258.78.391 1.169l.2.585c1.038 3.053 2.493 5.712 4.378 8.315.008-2.893-.015-5.787-.053-8.68-.062-4.856.003-9.707.61-22.716l.151-.15q.14-.178.274-.36l.132-.179q.28-.381.551-.773l.136-.19q.694-.999 1.318-2.041l.085-.139c.582-.95 1.034-1.993 1.474-3.016l.112-.256q.399-.913.774-1.835l.1-.24c.331-.815.66-1.63.977-2.452.058-.144.058-.144.093-.18"/><path fill="#fef3ba" d="M53.364 15.348c1.897-.065 3.826.174 5.702.415q1.22.153 2.437.301 1.084.13 2.169.274.728.093 1.46.18l.859.103 1.373.169 2.29.275c1.686.202 3.368.417 5.047.658l.577.078.532.075.463.063c.382.068.707.146 1.012.39l.106.084.11.09.118.09q.336.262.665.532.307.252.623.49.278.217.549.442.18.147.367.289.333.256.657.523.316.255.637.505.393.306.782.623.252.207.511.405c.225.17.44.346.657.523q.317.255.638.505.465.363.923.738.254.203.511.402l.403.325q.29.237.589.464.386.297.761.61.255.21.515.41.207.162.409.33.33.268.665.529.203.159.399.324.456.375.922.741.274.215.546.434l.137.11c.214.183.392.356.53.604l.07.12c.18.373.242.78.323 1.182l.095.457.106.514.12.576c.316 1.527.316 1.527.436 2.153q.087.466.193.928c.056.25.112.5.157.753.12.603.415 1.05.914 1.405l.165.11c.268.18.526.369.784.565q.273.201.558.39.316.222.624.447.38.275.763.54.458.322.914.652.43.31.863.61.547.38 1.089.775.33.24.668.467.365.25.722.515.333.241.671.473l.78.549.3.214 1.356.957.3.212q.387.269.768.548.327.237.66.46.42.287.831.59l.267.19.105.075.088.062c.117.096.176.174.198.324-.018.126-.018.126-.077.224-.294.198-.707.206-1.05.246q-.913.105-1.821.224c-.75.093-1.498.18-2.25.248-.262.037-.445.075-.612.284-.307.576-.044 1.567.121 2.16l.043.159a5.44 5.44 0 0 0 2.172 3.003c.172.137.32.262.364.482-.061.337-.305.605-.523.858l-.064.074c-.382.425-.916.68-1.487.71l-.137.003h-.137c-.286-.014-.565-.069-.847-.116-1.417-.235-2.851-.359-4.28-.487-1.386-.137-1.386-.137-1.974-.535l-.214-.143-.217-.145-.399-.254-.194-.123-.529-.333a58 58 0 0 1-.857-.553l-.573-.366q-.551-.351-1.1-.71-.517-.336-1.038-.669-.499-.317-.995-.641l-.766-.497-.302-.195-.15-.097-.604-.391-.296-.192-.81-.525q-.813-.528-1.629-1.049-.462-.31-.93-.61l-.156-.1-.156-.102q-.959-.618-1.914-1.24l-1.612-1.047-1.313-.85-1.31-.85-1.316-.853-.298-.193-.176-.114-.176-.114-.16-.104c-.125-.093-.125-.093-.196-.235-.017-.13-.014-.191.057-.303a.6.6 0 0 1 .31-.173l.145-.045q.36-.102.72-.197c.334-.094.663-.198.993-.302q.552-.17 1.106-.327l.187-.054q.383-.111.765-.215.735-.207 1.463-.435.399-.123.797-.235.336-.095.67-.195.516-.153 1.036-.302.793-.225 1.581-.463.594-.18 1.188-.344.61-.172 1.221-.355c.56-.167 1.129-.23 1.707-.31 1.11-.145 1.11-.145 2.074-.672.18-.362-.03-.86-.139-1.21q-.12-.406-.218-.819-.133-.555-.3-1.099c-.078-.255-.145-.515-.212-.775-.167-.55-.526-.793-.982-1.115a23 23 0 0 1-.633-.475 33 33 0 0 0-.564-.426l-.106-.09c-.2-.122-.393-.156-.62-.204l-.297-.064-1.367-.282q-.593-.122-1.184-.254l-.954-.203q-.645-.135-1.289-.279c-.684-.153-1.368-.296-2.053-.441q-1.08-.23-2.156-.47-.477-.105-.957-.197-.393-.075-.782-.167a40 40 0 0 0-1.894-.4q-.315-.064-.629-.142-.186-.044-.377-.083-.317-.069-.63-.146a6 6 0 0 0-.736-.142c-.109-.018-.206-.052-.31-.087l-.14-.018a2 2 0 0 1-.355-.087l-.142-.019a2 2 0 0 1-.354-.088l-.142-.018a1.7 1.7 0 0 1-.354-.09l-.284-.034-.035-.035a8 8 0 0 0-.34-.05 3 3 0 0 1-.334-.092l-.242-.043c-1.468-.249-1.468-.249-1.565-.348l-.23-.035c-.227-.031-.227-.031-.267-.07l-.262-.047q-.44-.077-.877-.175c-.13-.03-.13-.03-.243-.027-.218-.175-.411-.374-.607-.572a6 6 0 0 0-.318-.29c-.107-.094-.206-.199-.307-.3a5 5 0 0 0-.22-.203 6 6 0 0 1-.383-.365 4 4 0 0 0-.221-.202 6 6 0 0 1-.381-.365 6 6 0 0 0-.293-.264 6 6 0 0 1-.283-.275 4 4 0 0 0-.21-.192 5 5 0 0 1-.303-.287 5 5 0 0 0-.302-.283 6 6 0 0 1-.383-.365 4 4 0 0 0-.22-.202 6 6 0 0 1-.381-.365 6 6 0 0 0-.293-.264c-.1-.087-.19-.182-.283-.275a4 4 0 0 0-.21-.192 6 6 0 0 1-.384-.368 6 6 0 0 0-.293-.264 5 5 0 0 1-.274-.268 8 8 0 0 0-.362-.324q-.466-.429-.91-.877a5 5 0 0 0-.283-.253c-.168-.152-.323-.315-.482-.476a6 6 0 0 0-.27-.25c-.24-.211-.459-.442-.683-.668a9 9 0 0 0-.456-.42l-.123-.104-.119-.1q-.426-.36-.822-.752"/><path fill="#e47f00" d="M59.232 29.845c.594.137 1.174.305 1.753.496l.25.082c.832.28 1.629.657 2.373 1.123l.137.087c.312.202.603.424.891.658l.105.082c2.205 1.79 3.307 4.36 3.647 7.128.147 1.109.568 1.89 1.174 2.82l.62.971c1.11 1.735 1.563 2.93 1.532 5.032.034 1.68.755 3.04 1.869 4.248q.102.112.2.227c.174.196.36.379.548.563.38.376.38.376.525.543.197.226.412.435.624.647l.261.262c.17.167.34.326.52.48l.249.228.12.112.092.084c-.118.12-.28.146-.436.199-.992.33-.992.33-1.87.883-.07.054-.07.054-.211.125l-.07.14-.105.154a1.45 1.45 0 0 0-.249 1.017c.095.386.27.692.546.974.103.14.105.22.095.391-.02.491.382.953.685 1.3.264.284.538.498.87.703q.12.071.214.175v.071l-.112.044c-.532.212-1.03.455-1.483.808l-.213.157a14 14 0 0 0-.603.48l-.105.09c-.564.497-.992 1.15-1.383 1.79.831.24 1.614-.056 2.392-.336.295-.083.524-.086.798.052.247.204.417.465.496.78.021.279-.017.527-.203.745l-.145.137c-.311.299-.737.765-.81 1.204.015.335.226.655.37.948.413.852.712 1.66.445 2.608-.183.523-.48.9-.97 1.162l-.176.071q-.435-.707-.869-1.418-.29-.479-.584-.957-.371-.6-.737-1.207a71 71 0 0 0-.433-.707q-.37-.6-.735-1.207l-.434-.707q-.294-.475-.586-.957-.362-.597-.732-1.196l-.506-.83-.403-.656q-.373-.607-.742-1.218l-.434-.708a227 227 0 0 1-.736-1.206 61 61 0 0 0-.434-.708q-.368-.598-.734-1.203l-.314-.509-.157-.249-.142-.224c-.106-.188-.106-.188-.14-.401.059-.109.059-.109.149-.225.696-.926 1.263-1.962 1.742-3.015a.8.8 0 0 1 .341-.304c.37-.01.73.017 1.098.052 1.135.162 1.135.162 2.2-.128.1-.147.111-.244.104-.421a1.8 1.8 0 0 0-.418-.459c-.299-.274-.574-.607-.62-1.022-.044-1.115.527-2.177 1.012-3.144.183-.364.183-.364.204-.762-.411-.508-1.318-.658-1.914-.745a24 24 0 0 0-.767-.013h-.393c-.324-.006-.324-.006-.577.12-.17.223-.268.48-.376.737l-.115.268-.299.738c-.754 1.864-1.83 3.59-3.106 5.141q-.156.19-.305.384c-.294.374-.61.73-.932 1.082l-.199.224q-.368.422-.763.815-.102.105-.199.218a5 5 0 0 1-.538.538q-.224.201-.434.416-.275.279-.567.533l-.124.124q-.156.153-.32.293-.249.224-.49.454-.195.18-.395.36-.339.306-.673.619c-.34.314-.34.314-.48.434a4 4 0 0 0-.283.268c-.49.494-.49.494-.638.618-.326.276-.608.615-.886.94l-.095.111-.218.255-.224.26q-.321.375-.633.758l-.11.133q-.36.44-.705.895l-.132.17q-.51.665-.993 1.35a6 6 0 0 1-.461.586c-.193.22-.365.46-.54.694l-.102.134a18 18 0 0 0-1.04 1.58c-.278.461-.278.461-.418.553-.136.022-.194.013-.311-.062-.676-.976-.35-3.374-.399-4.51l-.02-.393c-.12-3.198.053-6.4.517-9.566l.065-.433c.389-2.55.898-5.094 1.601-7.577l.063-.225q.219-.797.47-1.583l.1-.33a38 38 0 0 1 1.316-3.64l.1-.237a39 39 0 0 1 2.137-4.369q.138-.243.271-.487c.202-.365.42-.72.638-1.075q.2-.327.392-.657a40 40 0 0 1 1.8-2.753q.285-.404.564-.813c.279-.385.447-.47.923-.384"/><path fill="#0157a2" d="M49.465 37.253c0 .2-.122.381-.206.558l-.128.274-.316.66a41 41 0 0 0-2.54 6.767q-.084.293-.173.585a34 34 0 0 0-.7 2.832l-.048.198-.07.035q-.089.21-.169.42a118 118 0 0 1-1.25 3.088l-.102.246c-.648 1.538-1.308 3.072-2.166 4.505l-.096.162a34 34 0 0 1-1.428 2.142l-.113.158q-.381.53-.78 1.045c-.833 1.097-.475 2.922-.49 4.22l-.045 2.463c-.102 5.797-.174 11.589-.096 17.385.024 2.458.041 4.915.035 7.372-.364-.364-.64-.811-.922-1.24l-.16-.238a40 40 0 0 1-1.186-1.889l-.13-.218c-.641-1.091-1.133-2.246-1.572-3.433l-.08-.212c-1.434-3.84-1.55-6.646-1.567-10.864-.025-5.654-.05-11.307-.16-16.96q-.4.488-.778.993-.222.29-.457.572-.255.314-.502.633a46 46 0 0 1-.623.782q-.25.306-.488.62-.165.215-.333.427-.258.33-.506.669-.306.418-.629.829l-.3.386q-.444.578-.906 1.145-.157.192-.31.386a57 57 0 0 1-.655.817l-.088.108-.23.282-.073.09q-1.024 1.251-2.065 2.49l-.259.314q-.192.232-.395.454a7 7 0 0 0-.237.283q-.208.255-.433.496-.136.15-.268.302-.15.172-.304.34a22 22 0 0 1-.638.708l-.225.245c-.306.334-.306.334-.467.49-.128.128-.128.128-.232.25-.203.229-.418.443-.634.659l-.258.261c-.243.232-.243.232-.473.25-.175-.013-.225-.028-.34-.153-.187-.376-.146-.9-.179-1.313l-.022-.279a36 36 0 0 1 .022-5.001l.023-.345a55 55 0 0 1 .51-4.37l.08-.564q.074-.517.167-1.03v-.113c.037-.1.037-.1.194-.189l.196-.088q.176-.105.35-.215.364-.228.733-.45.684-.41 1.363-.825l.746-.452.49-.299q.8-.486 1.604-.96.51-.305 1.017-.615.423-.255.847-.506.49-.286.971-.59.269-.166.54-.33.546-.332 1.086-.677l.337-.212.17-.109.332-.209.688-.435a114 114 0 0 0 4.286-2.863l.162-.112q.476-.337.944-.683l.34-.252q.873-.64 1.708-1.328l.107-.086q.563-.462 1.116-.941l.252-.217q.342-.29.673-.59.146-.135.298-.266l.335-.3.176-.157q.308-.276.61-.559l.345-.316c.545-.501.545-.501 1.071-1.022a8 8 0 0 1 .37-.331l1.314-1.309.721-.722c.428-.43.428-.43.835-.875l.232-.23q.19-.186.365-.385.152-.174.319-.334c.113-.117.218-.241.325-.363l.262-.28q.3-.317.59-.641l.074-.084c.23-.251.449-.51.669-.767"/><path fill="#0158a2" d="M84.874 66.176c.365.324.643.758.92 1.155q.28.399.569.793l.577.8q.64.888 1.266 1.787l.249.356.125.178.244.349c4.416 6.305 4.416 6.305 5.656 9.928l.066.191a21.2 21.2 0 0 1 .749 10.265l-.038.225c-.36 2.057-1.134 4.058-2.16 5.872h-.07l-.044-.09c-.245-.497-.51-.983-.772-1.47l-.835-1.564q-.332-.624-.668-1.247l-.429-.804c-.46-.873-.46-.873-.94-1.737l-.05.506-.064.668-.065.66q-.142 1.321-.351 2.632l-.031.205-.029.185-.025.162c-.022.121-.022.121-.057.192l-.015.145a5 5 0 0 1-.091.493l-.05.257c-.442 2.215-1.685 4.075-3 5.875l-.227.319q-.355.486-.73.957l-.249.324q-.348.444-.707.881l-.086.106q-.213.262-.433.52-.224.265-.438.544c-.068-.203.028-.435.07-.638a23 23 0 0 0 .285-2.233l.035-.39q.008-.702.008-1.402l.004-.765c-.066-4.212-1.278-8.05-3.613-11.53-.76-1.139-.935-1.602-.695-3.015.125-.732.125-.732.245-1.463q.05-.318.114-.632c.073-.349.128-.698.182-1.05q.05-.299.112-.596.074-.381.135-.764.048-.255.106-.51l.08-.42c.213-1.103.446-2.206.717-3.3q.08-.33.155-.662a31 31 0 0 1 .592-2.255q.084-.285.162-.57c.445-1.592.95-3.177 1.59-4.703l.082-.199c.295-.718.603-1.428.91-2.14l.162-.376.153-.349.137-.314c.13-.265.204-.386.505-.342"/><path fill="#fa7c05" d="M45 75.213c.126.191.15.427.2.647.118.489.25.966.402 1.446l.084.27c.937 3.024 2.088 6.05 3.673 8.802l.153.312c.127.244.273.48.414.716l.107.182a37 37 0 0 0 1.24 1.98l.168.255q.71 1.07 1.498 2.084l.17.225q.261.335.53.662.162.2.317.4.218.278.457.534.125.138.24.284.23.277.48.54.221.243.433.498.14.163.289.323.16.174.308.36c.137.175.286.337.437.5q.13.141.25.293c.171.214.358.412.548.611q.185.2.36.406l.157.17q.162.18.311.369c.173.211.362.41.549.609q.186.204.357.421.142.168.293.328.237.253.451.523.133.157.275.309.228.247.437.509.116.14.236.271.204.225.39.459.158.19.32.374.365.417.71.851l.08.098.154.187.244.299.11.135q.311.381.61.771l.337.43q.309.399.602.81l.225.311c1.823 2.488 3.117 5.223 3.574 8.283l.022.146c.068.473.068.473.049.705-.106.141-.106.141-.254.181-.216-.005-.304-.076-.455-.217l-.109-.097a16 16 0 0 1-.599-.576 5 5 0 0 0-.274-.245q-.16-.148-.311-.304c-.18-.182-.18-.182-.37-.353-.186-.157-.352-.333-.524-.506a7 7 0 0 0-.33-.302c-.127-.113-.246-.238-.367-.36a7 7 0 0 0-.305-.276c-.118-.106-.228-.221-.34-.333a5 5 0 0 0-.299-.27 7 7 0 0 1-.311-.306 5 5 0 0 0-.295-.265c-.11-.097-.211-.204-.315-.308l-.13-.115a16 16 0 0 1-.45-.412q-.285-.27-.576-.531l-.302-.275a27 27 0 0 0-.735-.648 18 18 0 0 1-.436-.383 9 9 0 0 0-.364-.31 9 9 0 0 1-.392-.339 11 11 0 0 0-.479-.409q-.255-.211-.502-.43-.406-.357-.825-.7-.302-.249-.594-.507-.296-.255-.595-.506l-.23-.194-.346-.292-.72-.614-.352-.299a99 99 0 0 1-.727-.621l-.134-.116c-.652-.562-1.288-1.146-1.85-1.798l-.266-.284a17 17 0 0 1-.515-.567l-.078-.09-.17-.194c.479 2.482 1.558 4.846 2.623 7.125l.131.283c.416.89.835 1.782 1.32 2.635q.1.183.19.367c.142.29.304.568.465.848q.2.358.39.721.315.585.653 1.156.19.33.364.669.105.197.224.388.106.177.206.361.174.308.352.611l.089.152q.074.126.153.251c.094.155.157.271.146.454-.04.142-.04.142-.182.248-1.215.092-2.653-.218-3.853-.476a35 35 0 0 0-1.109-.211 12 12 0 0 1-.815-.199l-.324-.074a25 25 0 0 1-.759-.195 9 9 0 0 0-.432-.102c-.244-.055-.48-.134-.717-.211q-.255-.078-.513-.148a19 19 0 0 1-2.04-.687l-.427-.156c-2.21-.815-2.21-.815-2.444-1.05l-.017-2.689a979 979 0 0 0-.071-8.252c-.025-1.851-.033-3.703-.044-5.553q-.01-1.384-.031-2.762c-.014-1.159-.014-1.159.021-1.69l.087-3.218.047-1.776q.06-2.5.114-5.003l.056-2.037q.04-1.42.07-2.841.012-.733.051-1.466"/><path fill="#e27c00" d="M53.861 67.062c.157.112.193.266.252.447 1.043 3.083 2.775 5.869 4.958 8.271l.072.081c.549.615 1.112 1.223 1.736 1.762l.248.25.207.18q.124.11.247.222.185.166.376.322.202.161.392.339.235.211.482.41.302.251.6.512.345.299.707.581.315.25.623.518.243.204.498.398.177.142.352.292.291.246.594.48.218.174.433.352.272.226.549.444.356.28.704.57.195.16.395.316.356.28.704.57.195.16.395.316.356.28.703.57l.402.32q.317.25.62.515.16.135.32.265.25.206.488.427.112.104.23.204.408.353.787.736.1.094.206.186c.233.202.444.422.646.657q.107.12.225.23.21.214.406.444l.1.115q.329.38.645.771l.113.142c.3.38.576.77.844 1.17l.092.136c.839 1.234 1.741 2.728 2.106 4.187l-.037.107q-.946-.49-1.887-.988l-.207-.108-.415-.216a50 50 0 0 1-1.015-.54q-.38-.209-.773-.403a86 86 0 0 1-1.773-.917 88 88 0 0 0-.836-.436l-.75-.397a5 5 0 0 0-.389-.177q.172.496.382.979.232.533.445 1.071.07.178.152.352c.162.349.288.714.404 1.08.041.117.092.232.14.346l.174.511.09.273q.241.735.448 1.483l.09.321c.12.45.23.9.304 1.359l.035.209c.283 1.944-.1 4.319-.679 6.193l-.071.071c-.142-.265-.244-.543-.353-.824a25 25 0 0 0-1.881-3.819l-.105-.182c-.725-1.233-1.605-2.38-2.533-3.469l-.243-.296a11 11 0 0 0-.541-.601 26 26 0 0 1-.37-.414 26 26 0 0 0-.94-.974q-.191-.2-.371-.409l-3.102-3.1c-3.074-3.07-3.074-3.07-3.349-3.386a45 45 0 0 0-.444-.442q-.358-.351-.69-.728l-.25-.248a9 9 0 0 1-.495-.53l-.262-.277a10 10 0 0 1-.516-.592 6 6 0 0 0-.234-.268q-.23-.257-.441-.53l-.208-.259q-.481-.602-.926-1.23l-.095-.132a32 32 0 0 1-1.799-2.794l-.277-.47a9 9 0 0 1-.351-.655 20 20 0 0 0-.24-.46c-.982-1.872-1.268-3.826-.686-5.876.375-1.171.955-2.268 1.57-3.33l.13-.228q.369-.64.745-1.276.261-.441.513-.884c.138-.223.2-.217.455-.199"/><path fill="#fec500" d="m50.53 34.949.105.035-.11.219a69 69 0 0 0-.766 1.563c-.122.25-.238.482-.432.685l-.094.1-.087.093-.122.14q-.209.236-.424.467l-.21.237c-.162.187-.333.365-.501.545l-.317.343c-.339.37-.679.74-1.039 1.09-.115.117-.22.243-.329.368l-1.327 1.33-.732.732c-.6.596-.6.596-.884.844l-.23.23q-.183.192-.386.368c-.13.11-.13.11-.252.236a6 6 0 0 1-.256.239q-.219.193-.43.393-.318.3-.643.59l-.182.164q-.405.362-.819.713l-.398.345c-.382.33-.762.658-1.153.976l-.128.106q-.514.416-1.042.815l-.182.14q-.5.387-1.017.748l-.453.326a92 92 0 0 1-3.913 2.65l-.156.1a158 158 0 0 1-5.519 3.419q-.51.305-1.017.615-.423.256-.847.506-.488.287-.967.589-.392.24-.789.475-.616.37-1.23.746l-1.234.751-.225.137-.2.125c-.15.087-.15.087-.22.087.246-3.496 1.208-7.231 2.267-10.563l.12-.432c.64-2.268 1.524-4.48 2.503-6.622l.17-.383q.167-.366.347-.724l.207-.413a39 39 0 0 1 .836-1.6l.13-.24q.495-.903 1.04-1.779l.12-.198c.772-1.261.772-1.261.943-1.433 5.398-.283 5.398-.283 7.372-.283-.62 1.294-1.39 2.537-2.197 3.722l-.11.16c-.492.724-.994 1.436-1.556 2.108l-.093.112a20 20 0 0 1-.571.652l-.196.22c-.337.388-.697.754-1.065 1.116q-.135.136-.26.281a4 4 0 0 1-.302.304c-.272.244-.527.505-.784.764a9 9 0 0 1-.451.414l-.297.279a28 28 0 0 1-1.307 1.166 18 18 0 0 0-.345.292q1.197-.455 2.375-.957l.303-.126c1.141-.475 2.287-.962 3.376-1.548q.377-.199.76-.395.503-.257 1.002-.518.641-.336 1.285-.665l.77-.4q.677-.35 1.359-.7l.804-.416 1.997-1.03.308-.158.278-.144q.28-.144.56-.283.353-.177.7-.367.696-.373 1.399-.732l.777-.406.608-.318q.39-.201.78-.407.504-.264 1.009-.526l.55-.289 1.01-.526.55-.289q.39-.206.78-.407l.823-.43.16-.084c.13-.067.13-.067.234-.137z"/><path fill="#fef8c7" d="M64.317 32.078c.126.062.214.124.324.214l.092.077c.536.459 1.076.949 1.498 1.517l.091.118c1.221 1.619 1.82 3.503 2.066 5.495.147 1.11.568 1.892 1.174 2.822l.62.971c1.11 1.735 1.563 2.93 1.532 5.032.034 1.68.755 3.04 1.869 4.248q.102.112.2.227c.174.196.36.379.548.563.38.376.38.376.525.543.197.226.412.435.624.647l.261.262c.17.167.34.326.52.48l.249.228.12.112.092.084c-.118.12-.28.146-.436.199-.992.33-.992.33-1.87.883-.07.054-.07.054-.211.125l-.07.14-.105.154a1.45 1.45 0 0 0-.249 1.017c.095.386.27.692.546.974.103.14.105.22.095.391-.02.491.382.953.685 1.3.264.284.538.498.87.703q.12.071.214.175v.071l-.112.044c-.532.212-1.03.455-1.483.808l-.213.157a14 14 0 0 0-.603.48l-.105.09c-.564.497-.992 1.15-1.383 1.79.831.24 1.614-.056 2.392-.336.295-.083.524-.086.798.052.247.204.417.465.496.78.021.279-.017.527-.203.745l-.145.137c-.311.299-.737.765-.81 1.204.015.335.226.655.37.948.413.852.712 1.66.445 2.608-.183.523-.48.9-.97 1.162l-.176.071q-.435-.707-.869-1.418-.29-.479-.584-.957-.371-.6-.737-1.207a69 69 0 0 0-.433-.707q-.37-.6-.735-1.207l-.434-.707q-.294-.475-.586-.957-.362-.597-.732-1.196l-.506-.83-.403-.656q-.373-.607-.744-1.218a76 76 0 0 0-.432-.708 227 227 0 0 1-.736-1.206 61 61 0 0 0-.434-.708q-.368-.598-.734-1.203l-.314-.509-.157-.249-.142-.224c-.106-.188-.106-.188-.14-.401.059-.109.059-.109.149-.225.696-.926 1.263-1.962 1.742-3.015a.8.8 0 0 1 .341-.304c.37-.01.73.017 1.098.052 1.135.162 1.135.162 2.2-.128.1-.147.111-.244.104-.421a1.8 1.8 0 0 0-.418-.459c-.299-.274-.574-.607-.62-1.022-.044-1.115.527-2.177 1.012-3.144.183-.364.183-.364.204-.762-.411-.508-1.318-.658-1.914-.745a24 24 0 0 0-.767-.013h-.393c-.324-.006-.324-.006-.577.12-.17.223-.268.48-.376.737l-.115.268-.299.738c-.754 1.864-1.83 3.59-3.106 5.141q-.156.19-.305.384c-.294.374-.61.73-.932 1.082l-.199.224q-.368.422-.763.815-.102.105-.199.218a5 5 0 0 1-.538.538q-.224.201-.434.416-.275.279-.567.533l-.124.124q-.156.153-.32.293-.249.224-.49.454-.195.18-.395.36-.339.306-.672.618-.306.286-.623.56c0-.166.096-.272.182-.413q.318-.524.623-1.05.152-.261.308-.521c.134-.228.254-.46.37-.698q.137-.264.281-.525c.334-.61.638-1.235.936-1.863q.102-.216.208-.43a65 65 0 0 0 2.163-4.992q.066-.171.138-.343c.241-.611.46-1.233.675-1.853l.085-.238c.155-.449.306-.895.432-1.351q.084-.304.175-.605.15-.519.285-1.044l.102-.386c.417-1.538.677-3.125.871-4.705l.028-.218c.224-1.998.316-4.016.149-6.021l-.02-.243z"/><path fill="#fec500" d="M84.733 38.068c.092.136.092.136.192.319l.112.203.12.222.266.478.124.224c.189.324.367.436.697.607q.505.264 1.001.541.407.23.819.454.531.29 1.059.587.3.168.607.335.531.29 1.059.587.3.17.607.334.531.29 1.059.588.3.17.607.334.53.29 1.058.587l.608.335q.53.29 1.058.585.302.17.608.337.53.29 1.058.585l.608.336q.529.29 1.058.585l.608.337q.436.237.872.477l.223.123q.184.096.322.25l-.07.104c-.283.571-.021 1.546.141 2.129l.043.158a5.44 5.44 0 0 0 2.172 3.003c.172.137.32.262.364.482-.061.337-.305.605-.523.858l-.064.074c-.382.425-.917.68-1.487.71l-.137.003h-.137c-.286-.014-.565-.069-.847-.116-1.417-.235-2.851-.359-4.28-.487-1.386-.137-1.386-.137-1.974-.535l-.214-.143-.217-.145-.399-.254-.194-.123-.529-.333a58 58 0 0 1-.857-.553l-.573-.366q-.551-.351-1.1-.71-.517-.336-1.038-.669-.499-.317-.995-.641l-.766-.497-.302-.195-.15-.097-.604-.391-.296-.192-.81-.525q-.813-.528-1.629-1.049-.462-.31-.93-.61l-.156-.1-.156-.102a492 492 0 0 1-1.914-1.24l-1.612-1.047-1.313-.85-1.31-.85-1.316-.853-.298-.193-.176-.114-.176-.114-.16-.104c-.125-.093-.125-.093-.196-.235-.017-.13-.014-.191.057-.303a.6.6 0 0 1 .31-.173l.145-.045q.36-.102.72-.197c.334-.094.663-.198.993-.302q.552-.17 1.106-.327l.187-.054q.383-.111.765-.215.735-.207 1.463-.435.399-.123.797-.235.336-.095.67-.195.516-.153 1.036-.302.704-.2 1.407-.411l.172-.052.339-.104.162-.05.144-.046c.125-.027.125-.027.302.008"/><path fill="#78ae45" d="M45.283 49.127h.035a6 6 0 0 1-.14.86c-1.66 7.954-1.94 17.015-.183 24.958.04.268.04.268.004.906l-.05 2.206c-.058 2.598-.058 2.598-.09 3.678a483 483 0 0 0-.088 3.47c-.133 5.933-.133 5.933-.197 6.88l-.07.035-.05-.097a2.5 2.5 0 0 0-.252-.341c-1.643-1.942-2.967-4.505-3.694-6.934-.05-.162-.05-.162-.152-.39a47 47 0 0 1-.62-1.915q-.077-.255-.164-.507-.127-.387-.234-.785a14 14 0 0 0-.15-.486c-.102-.32-.186-.643-.27-.968a13 13 0 0 0-.14-.492c-.874-3.02-.249-6.753-.196-9.85l.058-3.495c.08-4.535.08-4.535.617-5.072q.14-.18.274-.362l.132-.178q.28-.381.551-.773l.136-.19q.694-.999 1.318-2.041l.085-.139c.582-.95 1.034-1.993 1.474-3.016l.112-.256q.399-.913.774-1.835l.1-.24q.5-1.22.977-2.452c.058-.144.058-.144.093-.18"/><path fill="#fec500" d="M84.874 66.176c.365.324.643.758.92 1.155q.28.399.569.793l.345.479.232.32q.64.89 1.266 1.788l.249.356.124.178.245.349c4.416 6.305 4.416 6.305 5.656 9.928l.066.191a21.2 21.2 0 0 1 .749 10.265l-.038.225c-.36 2.057-1.134 4.058-2.16 5.872h-.07l-.044-.09c-.245-.497-.51-.983-.772-1.47l-.835-1.564q-.332-.624-.668-1.247l-.429-.804c-.46-.873-.46-.873-.94-1.737a61 61 0 0 1-.003-1.517c.005-1.163.002-2.32-.066-3.48l-.021-.362c-.177-2.7-.545-5.427-1.397-8.004l-.069-.207q-.456-1.328-1.065-2.591l-.109-.23a20 20 0 0 0-.623-1.213 8 8 0 0 1-.193-.373 9 9 0 0 0-.365-.652l-.261-.447a35 35 0 0 0-1.82-2.763c-.068-.1-.068-.1-.103-.208q.144-.355.299-.706l.187-.424.187-.428.167-.384.15-.346.136-.311c.129-.265.206-.384.504-.341"/><path fill="#fef2b8" d="m44.751 11.733.168.025c1.691.287 3.405 1.171 4.653 2.35l.131.11q.553.48 1.003 1.06l.091.112c1.228 1.52 2.041 3.383 2.496 5.275l.05.192c.1.406.175.811.234 1.226q-.73.468-1.47.922l-.657.406q-.558.35-1.118.693l-.863.537q-.462.287-.925.57l-.78.487c-.035-.071-.035-.071.009-.206l.065-.174q.172-.495.304-1 .058-.217.123-.43c.441-1.537.478-3.33-.253-4.783-.83-1.497-2.349-2.648-3.989-3.12-.553-.127-1.203-.144-1.753 0l-.126.03c-1.104.267-2.107 1.061-2.745 1.992-.862 1.428-1.276 3.514-.885 5.139.292 1.084.996 2.034 1.894 2.691l.09.074v.07l-.087.037-.117.047-.115.048a5 5 0 0 0-.249.117c-1.374.365-2.938.002-4.22-.563-.78-.494-1.16-1.952-1.379-2.804-.49-2.38-.144-4.744 1.14-6.821.604-.915 1.325-1.79 2.191-2.466l.081-.067a8.5 8.5 0 0 1 3.818-1.776l.165-.032a9.2 9.2 0 0 1 3.025.032"/><path fill="#0158a3" d="M34.118 28.639c.225.14.408.325.6.504a8 8 0 0 0 .4.337l.324.271q.294.249.6.486.295.236.586.479.26.213.53.418c.115.093.115.093.231.222.256.182.499.18.81.21l.404.042.442.045.957.106.492.055q.605.066 1.207.14 1.14.136 2.28.253.423.05.841.119-.257.575-.523 1.147-.284.624-.555 1.254a87 87 0 0 1-.435.977q-.328.728-.648 1.46-.47 1.077-.958 2.143l-.11.246c-.104.184-.147.24-.337.318l-.15.067-.183.08-.488.243-.24.12q-.472.238-.938.487l-.708.363q-.735.374-1.466.756l-1.114.574-1.319.682-.514.265-.257.133-.516.267-.769.399-.259.133-.25.13-.222.114a34 34 0 0 0-.486.26c-1.686.886-3.67 1.877-5.518 2.34.262-.264.536-.511.816-.754l.334-.3.176-.157q.368-.33.73-.668l.125-.114q.474-.441.925-.902.213-.208.44-.402.07-.074.136-.152c.212-.24.44-.462.667-.686q.21-.211.401-.438l.208-.225q.237-.255.454-.524.138-.167.282-.33c.43-.498.808-1.038 1.183-1.58l.11-.157a42 42 0 0 0 2.193-3.564l.2-.36.155-.278a246 246 0 0 0-3.177.104l-.967.038q-.88.033-1.76.075-.698.03-1.398.03.069-.187.19-.344.187-.251.365-.505.588-.831 1.218-1.631l.177-.23q.683-.889 1.383-1.764.25-.315.495-.63l.196-.247.097-.125.779-.99q.102-.128.2-.26c.505-.655.505-.656.926-.575"/><path fill="#fd8500" d="M50.918 89.072c.147.183.274.374.404.57a37 37 0 0 0 1.617 2.265l.17.225q.261.335.53.662.162.2.317.4.218.278.457.534.125.138.24.284.23.277.48.54.221.243.433.498.141.163.289.323.16.174.308.36c.137.175.286.337.437.5q.13.141.25.293c.171.214.358.412.548.611q.185.2.361.406l.156.17q.162.18.311.369c.173.211.362.41.549.609q.186.204.357.421.143.166.293.328.237.253.451.523.133.157.275.309.228.247.437.509.116.14.236.271.204.225.39.459.158.19.32.374.365.417.71.851l.08.098.154.187.244.299.11.135q.311.381.61.771l.337.43q.309.399.602.81l.225.311c1.823 2.488 3.117 5.223 3.574 8.283l.022.146c.068.473.068.473.049.705-.106.141-.106.141-.254.181-.216-.005-.304-.076-.455-.217l-.109-.097a16 16 0 0 1-.599-.576 5 5 0 0 0-.274-.245q-.16-.148-.311-.304c-.18-.182-.18-.182-.37-.353-.186-.157-.352-.333-.524-.506a7 7 0 0 0-.33-.302c-.127-.113-.246-.238-.367-.36a7 7 0 0 0-.305-.276c-.118-.106-.228-.221-.34-.333a5 5 0 0 0-.299-.27 7 7 0 0 1-.311-.306 5 5 0 0 0-.295-.265c-.11-.097-.211-.204-.315-.308l-.13-.115a16 16 0 0 1-.45-.412q-.285-.27-.576-.531l-.302-.275a27 27 0 0 0-.735-.648 18 18 0 0 1-.436-.383 9 9 0 0 0-.364-.31 9 9 0 0 1-.392-.339 11 11 0 0 0-.479-.409q-.255-.211-.502-.43-.406-.357-.825-.7a24 24 0 0 1-.594-.507q-.296-.255-.595-.506l-.23-.194-.346-.292-.72-.614-.352-.299a97 97 0 0 1-.727-.621l-.134-.116c-.652-.562-1.288-1.146-1.85-1.798l-.266-.284a12 12 0 0 1-.67-.757l-.072-.09c-.65-.854-.13-9.144-.128-10.672"/><path fill="#0158a2" d="M38.69 61.531h.036c0 2.52-.062 5.038-.107 7.557-.088 5.306-.142 10.604-.07 15.908.024 2.458.041 4.915.035 7.372-.364-.364-.64-.811-.922-1.24l-.16-.238a40 40 0 0 1-1.186-1.889l-.13-.218c-.64-1.091-1.133-2.246-1.572-3.433l-.08-.212c-.937-2.508-1.51-4.43-1.55-7.125l-.038-2.38-.025-2.689-.035-2.7c.098-2.19.098-2.19 1.09-3.183l.284-.249q.18-.174.357-.351l.183-.183q.214-.225.417-.458.212-.214.428-.424.2-.207.387-.427l.25-.265q.254-.27.494-.548l.096-.111q.322-.371.622-.757.1-.128.202-.253c.585-.697.585-.697.994-1.504"/><path fill="#fa7307" d="M64.6 56.356c.1.15.187.303.277.458q.294.495.598.984l.359.586.532.868q.373.607.744 1.219.214.353.432.707.294.477.586.957.362.597.731 1.196l.507.83.403.656q.373.609.742 1.218.215.355.434.708.37.6.735 1.207l.434.706q.37.603.737 1.208.214.354.433.706.502.814.997 1.632l.088.144.075.121.045.087c-.035.071-.035.071-.107.1-.585.162-1.199.118-1.798.118h-.545a20 20 0 0 1-2.417-.157l-.509-.064a17 17 0 0 1-1.181-.209l-.232-.047c-.71-.152-.71-.152-1.044-.272l-.094-.033c-1.379-.536-2.622-1.566-3.52-2.732l-.223-.267a16 16 0 0 1-1.515-2.248l-.108-.191c-1.664-2.998-1.664-2.998-1.558-4.346.193-.591.823-1.037 1.246-1.458.505-.501.505-.501.987-1.023q.1-.113.204-.222l.111-.12.212-.23a11 11 0 0 0 .526-.605q.13-.16.268-.317c.232-.275.447-.56.664-.846l.15-.194.152-.2.14-.181q.162-.219.302-.454"/><path fill="#9f3f06" d="M70.236 91.66q.583.268 1.15.569.373.196.746.387l1.06.552.57.3q.369.19.736.386l1.063.552 1.055.55.208.109 1.141.598q.128.068.26.128c.297.162.357.748.447 1.043.262.925.475 1.848.602 2.8l.04.3a17 17 0 0 1-.04 4.343l-.031.233c-.266 1.823-.845 3.503-1.564 5.19l-.203.483-.094.219-.2.472-.104.249-.093.223c-.469 1.082-1.483 1.68-2.472 2.249q-.156.09-.307.186c-.72.431-.72.431-1.028.385-.086-.056-.086-.056-.142-.141-.041-.272 0-.556.034-.827.291-2.391-.078-4.865-.922-7.113-.034-.106-.034-.106.002-.177 1.386-3.286.79-7.181-.425-10.385l-.132-.37a34 34 0 0 0-.272-.723l-.06-.158a9 9 0 0 0-.146-.337c-.14-.31-.268-.624-.4-.937l-.155-.38-.147-.356-.127-.308-.086-.224z"/><path fill="#fec500" d="M57.795 19.46c1.427.12 2.851.374 4.262.616q.942.154 1.886.304.507.081 1.012.179l.414.069q.48.079.958.171.451.087.902.169l.337.062q.483.087.97.167l.654.117q.831.15 1.662.295.419.075.837.155.75.14 1.504.268c2.876.475 5.256 1.663 7.464 3.541l.299.247q.288.239.573.483.153.133.312.262c.205.165.402.338.6.511q.207.177.419.348.177.147.35.296.247.213.502.415.195.156.384.317.378.309.768.603l.467.361q.415.324.84.632.242.179.476.364c-.449.224-1.735-.312-2.25-.429q-.784-.172-1.57-.331-1.192-.249-2.383-.512-.742-.164-1.487-.318a157 157 0 0 1-2.053-.445q-.599-.134-1.201-.254a59 59 0 0 1-1.642-.358q-.39-.085-.783-.156-.32-.064-.636-.142-.186-.044-.377-.083-.317-.069-.63-.146a6 6 0 0 0-.736-.142c-.109-.018-.206-.052-.31-.087l-.14-.018a1.7 1.7 0 0 1-.355-.087l-.142-.019a2 2 0 0 1-.354-.088l-.142-.018a1.7 1.7 0 0 1-.354-.09l-.284-.034-.035-.035a8 8 0 0 0-.34-.05 3 3 0 0 1-.334-.092l-.242-.043c-1.468-.249-1.468-.249-1.565-.348l-.23-.035c-.227-.031-.227-.031-.267-.07l-.262-.047q-.44-.077-.877-.175c-.13-.03-.13-.03-.243-.027-.218-.175-.411-.374-.607-.572a6 6 0 0 0-.318-.29c-.107-.094-.206-.199-.307-.3a5 5 0 0 0-.22-.203 6 6 0 0 1-.383-.365 4 4 0 0 0-.221-.202 6 6 0 0 1-.381-.365 6 6 0 0 0-.293-.264 6 6 0 0 1-.283-.275 4 4 0 0 0-.21-.192 5 5 0 0 1-.303-.287 5 5 0 0 0-.302-.283 6 6 0 0 1-.383-.365 4 4 0 0 0-.22-.202 6 6 0 0 1-.381-.365 6 6 0 0 0-.293-.264c-.1-.087-.19-.182-.283-.275a4 4 0 0 0-.21-.192 6 6 0 0 1-.384-.368 5 5 0 0 0-.224-.203 5 5 0 0 1-.423-.406zm1.437 10.385c.838.194 1.653.45 2.462.744.021.823-.198 1.677-.333 2.484q-.046.29-.09.581c-.307 2.059-1.553 4.25-2.554 6.044q-.075.136-.144.274c-.404.759-.864 1.487-1.31 2.223l-.354.587-.276.456-.327.535-.301.498-.15.246-.305.504-.945 1.554-.25.407-.618 1.02-.246.403q-.324.533-.652 1.064-.448.73-.892 1.465l-.603.993-.128.212q-.32.526-.644 1.052-.381.616-.756 1.236-.261.434-.528.867l-.202.33-.096.158-.178.292-.077.128-.069.112-.05.079h-.037c-.105-3.215 1.01-6.925 1.88-9.995l.061-.225q.22-.797.47-1.583l.101-.33a38 38 0 0 1 1.316-3.64l.1-.237a39 39 0 0 1 2.137-4.369q.138-.243.271-.487c.202-.365.42-.72.638-1.075q.2-.327.392-.657a40 40 0 0 1 1.8-2.753q.285-.404.564-.813c.279-.385.447-.47.923-.384"/><path fill="#c81b2c" d="m64.494 25.698.214.045.282.058.28.06q.266.052.535.085l.213.07.142.018c.142.018.142.018.354.089q.32.075.64.142l.347.075q.39.079.785.137l.213.072q.143.02.284.035l.035.036q.116.02.23.035c.227.031.227.031.266.07q.116.021.23.036c.227.032.227.032.267.07l.23.037c.226.031.226.031.266.07q.168.03.336.05c.125.02.125.02.236.053.268.076.543.121.817.173.206.044.206.044.418.114l.274.05q.194.037.386.085c.32.076.643.14.967.205.618.125 1.235.252 1.847.405l.386.077q.586.116 1.171.24l.322.067q.398.085.794.18.747.167 1.499.32c.622.128 1.24.257 1.86.4.907.205 1.82.392 2.73.581q1.008.21 2.013.439l.178.031c.15.042.288.12.402.224l.148.117.158.124.344.253q.445.326.88.665c.428.324.604.627.75 1.153l.074.265.079.287.084.304c.121.441.242.882.342 1.33.042.168.096.33.15.497.088.291.157.578.097.882a.9.9 0 0 1-.303.285l-.082.05c-.71.348-2.118.74-2.876.55l.155-.049.204-.069.201-.066c.243-.084.4-.158.574-.347l.037-.035c0-.273-.096-.429-.214-.673l-.225-.523c-.51-1.183-1.104-2.152-2.326-2.678-.94-.358-1.894-.286-2.839.015q-.303.092-.609.174-.444.12-.882.264-.28.085-.56.16-.449.12-.886.263-.31.095-.623.18-.39.106-.78.23a19 19 0 0 1-.747.221q-.702.197-1.396.412c-.856.261-.856.261-1.255.078-.194-.116-.355-.271-.518-.427l-.183-.165a6 6 0 0 1-.3-.282 6 6 0 0 0-.333-.307c-.111-.099-.212-.206-.318-.31l-.132-.115a15 15 0 0 1-.436-.401q-.594-.561-1.193-1.112l-.386-.359-.476-.44q-.308-.282-.612-.569l-.593-.548-.347-.32-.226-.21-.617-.572a69 69 0 0 0-.583-.54l-.34-.312a19 19 0 0 0-.874-.766 8 8 0 0 1-.274-.24 10 10 0 0 0-.454-.386l-.425-.349-.152-.124-.138-.115-.124-.097-.089-.081z"/><path fill="#fef5bf" d="M53.861 67.062c.157.112.193.266.252.447 1.043 3.083 2.775 5.869 4.958 8.271l.072.081c.549.615 1.112 1.223 1.736 1.762l.248.25.207.18q.124.11.247.222.185.166.376.322.202.161.392.339.235.211.482.41.302.251.6.512.345.299.707.581.315.25.623.518.243.204.498.398.177.142.352.292.291.246.594.48.218.174.433.352.272.226.549.444.348.273.689.558c.17.146.17.146.416.288.346.335.37.637.46 1.108l.105.536.103.54q.093.456.193.912l.104.494q.159.76.322 1.52l.207.97.2.93c.144.703.144.703.108.774a13 13 0 0 1-.567-.478 10 10 0 0 0-.461-.392l-.354-.299a29 29 0 0 0-.638-.532l-.847-.697-.536-.436-.195-.161-.097-.08-.39-.319-.193-.157q-.266-.216-.527-.439a15 15 0 0 0-.403-.332 19 19 0 0 1-.554-.465 16 16 0 0 0-.314-.262q-.3-.246-.593-.503l-.391-.337a19 19 0 0 1-.572-.51l-.237-.212q-.286-.25-.567-.514l-.118-.108q-.298-.27-.58-.556a5 5 0 0 0-.207-.187 13 13 0 0 1-.568-.546l-.212-.212q-.229-.233-.44-.482l-.16-.16a6 6 0 0 1-.344-.368l-.22-.244q-.206-.23-.398-.473-.132-.158-.266-.311c-.261-.31-.5-.636-.74-.96l-.122-.164c-.819-1.118-1.485-2.353-2.118-3.581l-.274-.515c-.705-1.338-1.122-2.719-1.558-4.163q-.165-.542-.359-1.075a20 20 0 0 1-.125-.435c-.087-.28-.186-.557-.286-.834-.06-.224-.038-.294.072-.486l.062-.098c.206-.324.394-.66.586-.993.253-.44.253-.44.578-.416"/><path fill="#2ed3fc" d="M83.209 69.187c.255.129.376.407.53.638l.195.288a45 45 0 0 1 2.323 3.86l.062.119c.918 2.014-.463 7.398-1.243 9.51a24 24 0 0 1-1.69 3.485l-.1.172q-.66 1.118-1.424 2.168l-.123.167q-.37.51-.763 1.002l-.122.151c-.32.395-.32.395-.481.558l-.096-.157a41 41 0 0 0-.723-1.126c-.812-1.21-1.075-1.7-.819-3.201.125-.732.125-.732.245-1.463q.05-.318.114-.632c.073-.349.128-.698.182-1.05q.05-.299.112-.596.074-.381.135-.764.048-.255.106-.51l.08-.42c.213-1.103.446-2.206.717-3.3q.08-.33.155-.662a31 31 0 0 1 .592-2.255q.084-.285.162-.57c.445-1.592.953-3.175 1.59-4.703l.168-.42z"/><path fill="#26cefd" d="M49.465 37.253c0 .2-.122.381-.206.558l-.128.274-.316.66a41 41 0 0 0-2.54 6.767q-.084.293-.173.585a34 34 0 0 0-.7 2.832l-.048.198-.07.035q-.089.21-.169.42a118 118 0 0 1-1.25 3.088l-.102.246c-.648 1.538-1.308 3.072-2.166 4.505l-.096.162a34 34 0 0 1-1.428 2.142l-.113.158q-.386.534-.785 1.054-.19.247-.368.5l-.046.06h-.035q-.021-3.415-.033-6.83l-.019-3.842.052-3.045q.577-.5 1.155-.995.341-.29.673-.593.146-.133.298-.264l.335-.3.176-.157q.308-.276.61-.559l.345-.316c.545-.501.545-.501 1.071-1.022a8 8 0 0 1 .37-.331l1.314-1.309.721-.722c.428-.43.428-.43.835-.875l.232-.23q.19-.186.365-.385.152-.174.319-.334c.113-.117.218-.241.325-.363l.262-.28q.3-.317.59-.641l.074-.084c.23-.251.449-.51.669-.767"/><path fill="#0157a2" d="M27.804 75.267c.147.017.147.017.324.194q0 7.192-.01 14.386l-.007 5.546c-.019 4.277-.019 4.277-.125 4.454a.5.5 0 0 1-.39.035c-.14-.11-.244-.25-.354-.39l-.107-.137a41 41 0 0 1-.354-.465l-.12-.16c-.71-.945-1.316-1.962-1.888-2.994l-.35-.623a57 57 0 0 1-.574-1.044 53 53 0 0 0-.466-.831 52 52 0 0 1-.405-.733q-.15-.264-.306-.524c-.785-1.36-.016-3.46.349-4.872.357-1.301.749-2.594 1.243-3.85l.213-.567c.707-1.885 1.516-3.727 2.327-5.568q.164-.372.324-.744l.166-.383.148-.345c.164-.36.164-.359.362-.385"/><path fill="#fec500" d="M45 75.213c.126.191.15.427.2.647.118.489.25.966.402 1.446l.084.27c.937 3.024 2.088 6.05 3.673 8.802l.153.312c.127.244.273.48.414.716l.107.182c.287.489.586.967.885 1.448.045.894.057 1.788.052 2.683l-.005 1.58-.01 1.586.002 2.723-.003 1.991a1.7 1.7 0 0 1-.325-.321 8 8 0 0 0-.349-.405 10 10 0 0 1-.415-.489 11 11 0 0 0-.348-.39 8 8 0 0 1-.244-.289 7 7 0 0 0-.356-.411 10 10 0 0 1-.435-.505 8 8 0 0 0-.257-.291q-.215-.236-.416-.488-.125-.15-.258-.292a10 10 0 0 1-.415-.487 7 7 0 0 0-.258-.293 10 10 0 0 1-.415-.486c-.112-.136-.23-.262-.349-.392a8 8 0 0 1-.244-.29 8 8 0 0 0-.356-.41 10 10 0 0 1-.434-.504 9 9 0 0 0-.358-.4c-.277-.32-.177-.376-.148-.903l.087-3.223.047-1.773q.06-2.498.114-5l.056-2.037q.04-1.42.07-2.841.012-.733.051-1.466"/><path fill="#012c61" d="M33.02 80.423h.035l.022.151c.083.459.242.904.393 1.343q.056.172.11.347c.12.392.258.78.391 1.169l.2.585a29.9 29.9 0 0 0 4.484 8.456c.152.913.059 2.095.069 3 .053 5.069.053 5.069.128 10.138q.02 1.069.016 2.139c-1.475-1.389-2.472-3.828-3.19-5.671l-.07-.171c-.29-.71-.511-1.44-.746-2.168l-.077-.231a10 10 0 0 1-.182-.64 38 38 0 0 0-.192-.739 32 32 0 0 1-.47-2.112l-.058-.289c-.646-3.318-.745-6.691-.815-10.063l-.028-1.326q-.03-1.959-.02-3.918"/><path fill="#78ae45" d="M35.43 35.658c-.621 1.293-1.39 2.537-2.198 3.722l-.11.16c-.492.723-.994 1.436-1.556 2.108l-.093.112q-.28.333-.57.651l-.197.22c-.337.389-.697.755-1.065 1.116q-.135.137-.26.282a4 4 0 0 1-.302.304c-.271.244-.527.505-.784.764a9 9 0 0 1-.45.413l-.297.28q-.367.35-.747.685-.276.253-.567.486a6 6 0 0 0-.445.394q-.195.1-.39.197-.478.236-.95.484l-.69.36q-.918.471-1.83.959c-.11.055-.11.055-.18.055.574-2.3 1.532-4.549 2.517-6.7l.169-.382q.165-.367.346-.724l.207-.414q.4-.809.836-1.598l.131-.242q.494-.903 1.04-1.778l.12-.198c.772-1.261.772-1.261.942-1.433 5.398-.283 5.398-.283 7.372-.283"/><path fill="#e58100" d="M56.91 42.747c.034.07.034.07-.068.389l-.148.423q-.419 1.22-.813 2.449l-.08.245q-.16.496-.296 1c-.104.366-.22.73-.333 1.094a51 51 0 0 0-.658 2.321q-.072.27-.15.538c-.78 2.714-1.202 5.508-1.532 8.305l-.034.28a57 57 0 0 0-.2 2.1l-.046.573c-.03.407-.045.81-.054 1.22-.029.53-.198.797-.55 1.18q-.126.168-.248.34c-.183.255-.368.504-.57.746a18 18 0 0 0-1.71 2.44c-.274.456-.274.456-.415.55-.136.02-.194.012-.311-.063-.676-.976-.35-3.374-.399-4.51l-.02-.393c-.09-2.57.022-5.13.27-7.689h.105c.084-.12.084-.12.167-.271l.096-.168.092-.162q.067-.113.135-.222l.07-.112.078-.128q.461-.742.915-1.49.705-1.165 1.418-2.326.449-.73.893-1.464l1.098-1.807.25-.409 1.487-2.445.125-.205.244-.4.12-.2.124-.2.29-.479.161-.266.149-.246q.166-.273.347-.538"/><path fill="#036ab4" d="m52.574 15.33.29-.008.262-.011c.307.048.419.17.628.392l.285.23c.166.139.322.287.479.437q.127.115.257.228c.24.213.46.443.685.671.148.146.299.282.456.419q.135.131.267.265c.153.155.306.306.473.445.155.141.3.292.446.441.131.13.27.25.409.373l.284.265.16.15.16.152.282.265 1.171 1.1.885.832.301.284.454.426.734.69.886.833.451.423.312.296c.316.299.316.299.639.588l.122.112v.07q-1.222.275-2.445.528-.84.174-1.677.357-1.012.215-2.022.44-1.377.3-2.752.589l-.343.07c-.675.143-.675.143-.756.143a624 624 0 0 1-.426-3.013l-.137-.99-.075-.545c-.166-1.244-.166-1.244-.426-2.47l-.035-.16a13.7 13.7 0 0 0-2.325-5.04c-.085-.117-.085-.117-.085-.152.57-.082 1.152-.092 1.726-.125"/><path fill="#fc7c04" d="m37.84 44.696.071.036-.144.142-.187.185-.184.185c-.156.152-.156.152-.265.303h-.07l-.072.142a5 5 0 0 1-.165.168 6 6 0 0 0-.312.325 7 7 0 0 1-.424.441c-.093.091-.093.091-.17.193l-.063.078h-.07l-.072.142q-.09.093-.184.185-.172.165-.328.344a6 6 0 0 1-.339.357 5 5 0 0 0-.334.351c-.15.177-.316.337-.48.497-.107.104-.107.104-.188.21l-.06.076h-.072l-.07.142q-.112.115-.226.228c-.166.16-.166.16-.317.336l-.06.074h-.07l-.072.14a7 7 0 0 1-.236.24 8 8 0 0 0-.383.398q-.195.218-.404.42-.325.32-.608.68l-.249.304q-.268.324-.53.652-.251.318-.507.63-.274.338-.543.683a7 7 0 0 1-.208.249c-.1.112-.1.112-.196.282q-.178.12-.362.229l-.225.132-.228.136-.396.24-.204.125-.446.271a164 164 0 0 1-1.614.969q-.525.313-1.05.633l-.579.348q-.672.405-1.346.816l-.743.45-.508.31q-.644.39-1.29.778-.265.161-.531.33c-.083.046-.083.046-.154.046.18-2.536.86-5.118 1.453-7.585l.037.07c1.502-.564 3-1.14 4.49-1.739q.248-.1.497-.194.324-.128.648-.264l.214-.088.214-.09.213-.087q.2-.086.395-.174.384-.172.773-.334c1.636-.7 3.26-1.447 4.82-2.31l.231-.129q.794-.436 1.575-.9l.274-.161c1.387-.725 1.387-.727 2.633-1.646"/><path fill="#012c61" d="M38.69 49.198h.036q.014 4.8.02 9.598c-.021 2.859-.357 3.602-2.075 5.492l-.191.217q-.205.231-.414.458l-.207.224q-.34.374-.702.726-.12.123-.232.254-.243.27-.503.523l-.193.193a3.7 3.7 0 0 1-.654.541 1.6 1.6 0 0 0-.556.63c-.076.687-.065 1.364-.035 2.055h-.036l-.006-1.16c-.017-3.175-.017-3.175-.045-6.35l-.006-.702q-.016-.894-.049-1.786l-.033-1.073-.036-.987c.034-.807.034-.807.53-1.482l.344-.477q.367-.504.738-1.004.361-.486.716-.98.242-.336.489-.667l.354-.486q.422-.584.852-1.163.42-.57.831-1.141.524-.732 1.063-1.453"/><path fill="#0369b4" d="m84.2 57.03.724.04q2.228.125 4.452.315l.709.056.325.024.769.056q3.554.26 7.093.68l.326.036.322.037.286.031c.324.05.324.05.484.144.087.128.097.165.07.319-.199.284-.442.52-.688.766l-.232.232q-.241.236-.497.455l-.164.15c-.932.839-2.145 1.766-3.416 1.94l-.212.072q-1.102.093-2.206.174l-1.228.095-1.14.084-.853.065c-1.186.079-1.186.079-1.474-.128l-.224-.22-.248-.195q-.302-.237-.592-.486-.18-.15-.365-.293-.301-.237-.592-.487-.18-.15-.365-.293-.307-.24-.602-.495-.18-.15-.362-.295-.48-.383-.953-.774l-.386-.315-.958-.779-.58-.473-.203-.162-.107-.085-.098-.076c-.075-.072-.075-.072-.11-.214.645-.485 2.547-.044 3.296 0"/><path fill="#963808" d="M61.127 34.24c.047.144.016.243-.014.392l-.03.154c-.027.128-.027.128-.062.199l-.016.148c-.017.15-.05.274-.091.419l-.017.16c-.018.159-.018.159-.051.271a3 3 0 0 0-.085.491c-.025.14-.025.14-.073.331-.068.277-.124.556-.179.835l-.066.333-.137.709q-.09.463-.197.922-.069.304-.127.613a82 82 0 0 1-1.478 6.18l-.088.372q-.078.339-.175.674-.132.492-.246.985-.139.594-.285 1.183c-.134.57-.25 1.14-.362 1.715l-.117.596a64 64 0 0 0-.429 2.486l-.072.472c-.237 1.57-.471 3.147-.603 4.731-.03.302-.063.438-.27.64l-.077.076a5 5 0 0 1-.204.179c-.33.284-.618.624-.9.954l-.095.111-.218.255-.224.26q-.321.375-.633.758l-.11.133q-.428.523-.83 1.065l-.088.112h-.035c-.006-.52.036-1.039.071-1.558l.014-.242q.12-1.727.34-3.446l.038-.32c.151-1.233.33-2.462.565-3.684l.055-.29a53 53 0 0 1 1.043-4.318l.057-.205q.313-1.125.658-2.243.079-.252.152-.505c.303-1.029.64-2.046.976-3.064q.15-.451.294-.91a6.8 6.8 0 0 1 .805-1.65l.27-.445.131-.223.131-.218.125-.21c.278-.468.533-.945.781-1.43q.146-.287.299-.57a29.4 29.4 0 0 0 1.798-4.221c.045-.126.045-.126.081-.162"/><path fill="#012c62" d="M86.363 74.256c.305.407.38.823.463 1.319l.073.43.067.413.05.312c.716 4.523.71 9.208-.384 13.67l-.116.485a27 27 0 0 1-.436 1.625l-.096.323a47 47 0 0 1-2.917 7.333c-.16-.161-.133-.59-.156-.795a25 25 0 0 0-.447-2.785l-.041-.192c-.387-1.707-1.078-3.347-1.937-4.868-.078-.15-.078-.15-.078-.257q.08-.112.167-.22l.108-.134.226-.276c.295-.36.573-.73.847-1.107l.1-.14c2.066-2.878 3.637-6.14 4.259-9.642l.033-.184c.28-1.745.22-3.55.215-5.31"/><path fill="#9f4006" d="M55.03 94.494c.187.148.33.31.478.495q.148.174.305.341.22.237.42.494c.117.142.242.274.367.408q.13.142.25.294c.171.214.358.412.548.611q.185.2.361.406l.156.17q.162.18.311.369c.173.211.362.41.549.609.125.136.241.276.357.421q.142.166.293.328.237.253.451.523.133.157.275.309.228.247.437.509.116.14.236.271.204.225.39.459.158.19.32.374.365.417.71.851l.08.098.154.187.244.299.11.135q.311.381.61.771l.337.43q.309.399.602.81l.225.311c1.823 2.488 3.117 5.223 3.574 8.283l.022.146c.068.473.068.473.049.705-.106.141-.106.141-.254.181-.216-.005-.304-.076-.455-.217l-.109-.097a16 16 0 0 1-.599-.576 5 5 0 0 0-.274-.245q-.16-.148-.311-.304c-.18-.182-.18-.182-.37-.353-.186-.157-.352-.333-.524-.506a7 7 0 0 0-.33-.302c-.127-.113-.246-.238-.367-.36a7 7 0 0 0-.305-.276c-.118-.106-.228-.221-.34-.333a5 5 0 0 0-.299-.27 7 7 0 0 1-.311-.306 5 5 0 0 0-.295-.265c-.11-.097-.211-.204-.315-.308l-.13-.115a16 16 0 0 1-.45-.412q-.285-.27-.576-.531l-.302-.275a21 21 0 0 0-.614-.543l-.135-.116-.127-.108-.112-.098-.083-.066c-.088-.112-.083-.218-.094-.359l-.062-.319-.038-.189-.042-.201-.042-.207q-.24-1.147-.5-2.29l-.153-.704a14 14 0 0 0-.218-.86q-.07-.252-.131-.507a14.8 14.8 0 0 0-1.628-3.979q-.085-.15-.159-.308c-.112-.225-.24-.44-.368-.656q-.15-.255-.295-.512a40 40 0 0 0-.682-1.144 64 64 0 0 1-.51-.863c-.098-.165-.098-.165-.218-.321-.094-.125-.094-.126-.094-.197m34.275-3.72h.035l.003.166c.039.27.135.446.267.683l.147.265.15.268.261.488.132.246.447.84q.255.483.518.963.268.489.522.985.2.379.409.756.316.589.628 1.183c.096.18.096.18.203.352v.108l.07.034-.086.125q-.147.221-.272.456c-.988 1.768-2.23 3.408-3.54 4.948l-.102.121q-.337.397-.696.774-.225.242-.443.488-.364.37-.73.733l-.39.39q-.299.3-.617.578l-.225.208q-.258.24-.533.461a8 8 0 0 0-.27.235q-.278.249-.567.478l-.12.1c-1.748 1.417-1.748 1.417-2.294 1.515-.146-.027-.194-.077-.28-.197 0-.317.072-.549.164-.852.258-.817.258-.817.433-1.654a.78.78 0 0 1 .239-.436l.116-.127.112-.121q.084-.099.166-.202l.077-.094.075-.094.152-.183.08-.098.195-.24q.346-.42.67-.857.173-.23.353-.458.382-.493.748-.999l.1-.135c1.333-1.863 2.46-3.701 2.913-5.962l.04-.184c.035-.137.035-.137.048-.294.019-.16.019-.16.05-.293.054-.254.088-.51.125-.767q.067-.468.144-.935a29 29 0 0 0 .373-3.764"/><path fill="#fec200" d="M84.733 38.068c.092.136.092.136.192.319l.112.203.12.222.266.478.124.224c.104.189.104.189.249.362l-.035.106v-.071h-.071l-.036.212q-.084.261-.172.522c-.466 1.383-.905 2.776-1.35 4.166-.713 2.231-.713 2.231-.888 2.756-.173-.025-.278-.101-.418-.203a10 10 0 0 0-.415-.27q-.54-.344-1.075-.695l-.822-.533-1.611-1.047-1.313-.85-1.31-.85-1.316-.853-.298-.193-.176-.114-.176-.114-.16-.104c-.125-.093-.125-.093-.196-.235-.017-.13-.014-.191.057-.303a.6.6 0 0 1 .31-.173l.145-.045q.36-.102.72-.197c.334-.094.663-.198.993-.302q.552-.17 1.106-.327l.187-.054q.383-.111.765-.215.735-.207 1.463-.435.399-.123.797-.235.336-.095.67-.195.516-.153 1.036-.302.704-.2 1.407-.411l.172-.052.339-.104.162-.05.144-.046c.125-.027.125-.027.302.008"/><path fill="#fec800" d="m37.77 13.47.176.106q.29.116.58.228l.352.136.344.132.521.202.27.104c3.475 1.345 3.475 1.345 3.924 1.537-.107.036-.107.036-.206.021-.215-.03-.425-.027-.64-.027l-.263-.002a2.5 2.5 0 0 0-.558.079l-.126.029c-1.104.267-2.107 1.061-2.745 1.992-.862 1.428-1.276 3.514-.885 5.139.292 1.084.996 2.034 1.894 2.691l.09.074v.07l-.087.037-.117.047-.115.048a5 5 0 0 0-.249.117c-1.374.365-2.938.002-4.22-.563-.78-.494-1.16-1.952-1.379-2.804-.49-2.38-.144-4.744 1.14-6.821.582-.881 1.28-1.752 2.115-2.405.085-.065.085-.065.183-.167"/><path fill="#fa7606" d="M80.022 25.041q.146.127.298.25.272.223.543.453.151.128.305.253.285.236.568.48l.586.497.23.194.116.099.23.194q.29.249.591.486.256.198.499.409.365.311.745.603l.15.117q.489.384.994.751.387.288.77.586c-.449.224-1.735-.311-2.25-.43q-.784-.172-1.57-.331-1.192-.249-2.383-.512-.742-.164-1.487-.318a157 157 0 0 1-2.053-.445q-.599-.134-1.201-.254a59 59 0 0 1-1.642-.358q-.39-.085-.783-.156-.32-.064-.636-.142-.186-.044-.377-.083-.317-.069-.63-.146a6 6 0 0 0-.736-.142c-.109-.018-.206-.052-.31-.087l-.14-.018a2 2 0 0 1-.355-.087l-.142-.019a2 2 0 0 1-.354-.088l-.142-.018a1.7 1.7 0 0 1-.354-.09l-.284-.034-.035-.035a8 8 0 0 0-.34-.05 3 3 0 0 1-.334-.092l-.242-.043c-1.468-.249-1.468-.249-1.565-.348l-.23-.035c-.227-.031-.227-.031-.267-.07l-.262-.047q-.44-.077-.877-.175c-.13-.03-.13-.03-.243-.027l-.071-.07c1.032-.166 2.066-.31 3.102-.455q2.782-.39 5.566-.79.768-.11 1.54-.21c.6-.081 1.199-.175 1.798-.267a58 58 0 0 1 1.073-.157l.162-.024.154-.021.132-.017c.723-.05 1.62.867 2.144 1.32"/><path fill="#a74604" d="M85.69 39.91h.07q.076.112.142.229l.087.15.09.154.17.286.089.152.557.944.23.39.115.195 1.267 2.144.115.194.233.396q.261.446.532.887.39.641.769 1.288.485.822.978 1.637.381.627.749 1.261.224.378.452.753.308.5.603 1.009.37.634.754 1.261.297.49.586.984.142.237.289.474c.125.206.125.206.125.276a2 2 0 0 1-.44-.239 90 90 0 0 0-1.46-.932 58 58 0 0 1-.858-.553l-.573-.366q-.551-.351-1.1-.71-.517-.336-1.038-.669-.499-.317-.995-.641l-.766-.497-.302-.195-.15-.097-.604-.391-.296-.192-.81-.525c-1.06-.689-1.06-.689-2.127-1.364l.07-.036.107-.425q.186-.588.379-1.174.624-1.918 1.237-3.84l.22-.687.145-.458.137-.432q.104-.321.222-.64"/><path fill="#c3182c" d="M46.448 17.242c.187.153.362.315.536.48l.093.088a5 5 0 0 1 1.467 2.96l.02.142c.116 1.317-.098 2.583-.516 3.829l-.07.233-.036.11-.074.251c-.138.449-.34.86-.547 1.28q-.199.41-.383.829c-.084.185-.145.296-.304.423l-.092.075-.125.095-.196.152q-.345.247-.712.46l-.245.144c-1.433.814-3.031.819-4.601.409a9.35 9.35 0 0 1-3.763-2.076l-.176-.158c-.439-.384-.891-.854-1.153-1.376q.317.104.626.224a9.4 9.4 0 0 0 1.75.449l.126.022c.815.127 1.5.029 2.258-.27.096-.035.096-.035.167-.035l.035-.071.069.045c1.416.928 3.094 1.07 4.727.736a4.6 4.6 0 0 0 1.017-.356l.14-.066c.502-.24.751-.436.96-.962.053-.32.04-.637.041-.96l.002-.41c-.031-1.54-.492-2.902-1.568-4.017l-.068-.076c-.803-.856-2.011-1.286-3.157-1.378-1.151-.038-2.292.113-3.192.886-.573.543-.947 1.352-1.062 2.127h-.035c-.037-1.233.394-2.9 1.24-3.828l.079-.09q.12-.135.24-.264l.067-.073a5 5 0 0 1 .678-.565l.102-.076c1.856-1.3 3.985-.633 5.635.658"/><path fill="#be142c" d="M70.236 91.66q.583.268 1.15.569.373.196.746.387l1.06.552.57.3q.369.19.736.386l1.063.552 1.055.55.208.109 1.141.598q.128.068.26.128c.297.162.357.748.447 1.043.262.925.475 1.848.602 2.8l.04.3a17 17 0 0 1-.04 4.343l-.031.233c-.266 1.823-.845 3.503-1.564 5.19l-.203.483-.187.439-.215.507-.097.228-.15.364h-.034c-.004-.204-.004-.204.036-.284q.02-.195.035-.39c.031-.381.031-.381.07-.461.098-.992.12-1.971.118-2.968v-.85c.025-.88.025-.88-.117-1.746l-.031-.336c-.099-1.052-.274-2.172-.708-3.14a8 8 0 0 1-.174-.44c-.48-1.26-1.156-2.448-1.852-3.599l-.127-.212a40 40 0 0 0-.901-1.418l-.096-.146a54 54 0 0 0-2.288-3.215c-.498-.645-.498-.645-.558-.822z"/><path fill="#ca1c2d" d="M50.955 99.634c.086.087.085.126.1.247l.041.249.021.133c.416 2.268 1.56 4.524 2.53 6.602l.132.283c.416.89.835 1.782 1.32 2.635q.1.183.19.367c.142.29.304.568.465.848q.2.358.39.721.315.585.653 1.156.19.33.364.669.105.197.224.388.106.177.206.361.174.308.352.611l.089.152q.074.126.153.251c.094.155.157.271.146.454-.04.142-.04.142-.182.248-1.215.092-2.653-.218-3.853-.476a35 35 0 0 0-1.109-.211 12 12 0 0 1-.815-.199l-.46-.106-.958-.248z"/><path fill="#cf1f2d" d="M61.729 59.865c.065.099.103.182.147.29.376.917.906 1.77 1.413 2.617l.228.388q.336.566.678 1.127l.319.527.16.261.143.238q.606.976 1.343 1.855l.102.123q.28.336.582.658.174.191.344.389l.653.658.353.35q.285.286.589.55l.224.209q.258.24.534.46.135.112.263.231c.178.162.366.31.555.456q.172.138.34.277.328.274.67.53l.18.136c.324.246.324.246.657.48l.086.058v.034l-.335.003-.187.001a19 19 0 0 1-2.148-.156l-.509-.064a17 17 0 0 1-1.181-.209l-.232-.047c-.71-.152-.71-.152-1.044-.272l-.094-.033c-1.379-.536-2.622-1.566-3.52-2.732l-.223-.267a16 16 0 0 1-1.515-2.248l-.108-.191c-1.664-2.998-1.664-2.998-1.558-4.346.194-.595.827-1.043 1.254-1.467.44-.417.44-.419.837-.874"/><path fill="#012c61" d="M38.584 35.126v6.097l-.922.46-.673.355-.673.345q-.72.367-1.438.741l-1.516.785-.768.397-.259.134-.25.13-.222.114a34 34 0 0 0-.486.26c-1.686.886-3.67 1.877-5.518 2.34.262-.264.536-.511.816-.754l.334-.3.176-.157q.368-.33.73-.668l.125-.114q.474-.441.925-.902.213-.208.44-.402.07-.074.136-.152c.212-.24.44-.462.667-.686q.21-.211.401-.438l.208-.225q.237-.255.454-.524.138-.167.282-.33c.43-.498.808-1.038 1.183-1.58l.11-.157a40 40 0 0 0 2.019-3.247l.087-.157q.092-.168.18-.338l.09-.175.08-.157c.162-.224.396-.245.657-.287l.16-.027.161-.026.302-.054.751-.132.317-.056.162-.029.144-.025.132-.024.106-.02c.129-.018.26-.015.39-.015"/><path fill="#e37e00" d="M52.478 68.868h.071l.204.61.115.342q.129.393.25.785l.2.636q.243.77.473 1.545c.383 1.278.935 2.472 1.594 3.632l.177.36c.188.366.401.72.61 1.075l.105.183.098.164c.073.132.073.132.108.238l-.106.107q-.15.352-.29.707l-.156.39-.156.391c-.291.728-.291.728-.421 1.034l-.13.34a6 6 0 0 1-.229.505l-.05.154a4 4 0 0 1-.185.446c-.125.281-.232.57-.34.858l-.077.2-.057.15h-.142c-.09-.107-.09-.107-.19-.257l-.114-.166-.12-.18-.251-.354q-.33-.471-.636-.957l-.13-.203a32 32 0 0 1-.7-1.163l-.278-.47a9 9 0 0 1-.351-.656 20 20 0 0 0-.24-.46c-.982-1.872-1.268-3.826-.686-5.876.375-1.17.953-2.27 1.57-3.33l.129-.224c.239-.411.239-.411.331-.556"/><path fill="#fef0b4" d="M87.816 70.215c.15.135.254.297.367.461l.135.194.137.197.247.353.124.177.252.36q.426.606.844 1.217c1.828 2.65 3.508 5.283 4.558 8.348l.066.191a21.2 21.2 0 0 1 .749 10.265l-.038.225a18 18 0 0 1-2.124 5.801h-.035c-.011-.283.03-.558.063-.837.209-1.79.265-3.576.265-5.377v-1.038c-.023-2.311-.197-4.627-.683-6.89l-.089-.434c-.47-2.25-1.273-4.469-2.118-6.605l-.162-.422c-.755-2.017-1.533-4.075-2.502-6.001-.056-.112-.056-.112-.056-.185"/><path fill="#fd7e02" d="M89.34 45.972c.154.053.276.132.41.224q.501.336 1.008.662l1.879 1.223.97.63 1.315.858 1.566 1.018.863.56.354.23.71.461.176.115.358.233.817.53 1.014.66q.339.223.679.442l1.1.714.252.163.237.154c.187.126.187.126.293.232-.403.444-.884.782-1.489.85l-.271.007-.137.002c-.284-.015-.564-.07-.846-.117-1.417-.235-2.851-.359-4.28-.487-1.291-.128-1.291-.128-1.59-.29-.124-.161-.124-.161-.23-.364l-.128-.23-.138-.258-.33-.558-.175-.291-.475-.787q-.38-.627-.747-1.262a61 61 0 0 0-.454-.751 62 62 0 0 1-.602-1.01q-.375-.641-.762-1.274a92 92 0 0 1-.484-.812l-.56-.945a21 21 0 0 1-.303-.532"/><path fill="#fec400" d="M68.535 84.04c.172.11.329.232.486.362l.153.125.14.114.178.142.451.365q.27.221.546.435.316.25.623.517.156.135.318.265.25.206.488.427.112.104.23.204c.271.237.535.479.787.736q.1.094.206.186c.233.202.444.422.646.657q.107.12.225.23.21.214.406.444l.1.115q.329.38.645.771l.113.142c.3.38.576.77.844 1.17l.092.136c.839 1.234 1.741 2.728 2.106 4.187l-.037.107q-.946-.49-1.887-.988l-.207-.108-.415-.216q-.51-.264-1.015-.54-.38-.209-.773-.403a86 86 0 0 1-1.773-.917l-.61-.32-.637-.33-.176-.092-.153-.08q-.256-.141-.505-.295a21 21 0 0 1-.284-1.276l-.143-.673-.151-.715q-.444-2.094-.892-4.184c-.125-.595-.125-.595-.125-.7"/><path fill="#31d3fc" d="M34.118 28.639c.225.14.408.325.6.504a8 8 0 0 0 .4.337l.324.271q.294.249.6.486.295.236.586.479.207.168.416.331.264.206.512.428c-.284 1.136-1.061 2.277-1.63 3.297l-.371.688c-.09.162-.09.162-.125.198-1.071.063-2.143.102-3.215.142q-1.363.047-2.725.11a33 33 0 0 1-1.398.03q.069-.187.19-.344.187-.251.365-.505.588-.831 1.218-1.631l.177-.23q.683-.889 1.383-1.764.25-.315.495-.63l.196-.247.097-.125.779-.99q.102-.128.2-.26c.505-.655.505-.656.926-.575"/><path fill="#2ed2fc" d="M52.585 30.944c.063.254-.124.47-.242.693l-.178.34-.183.349-.321.623-.157.305q-.324.638-.642 1.28c-.214.424-.214.424-.457.536a37 37 0 0 0-1.882.98q-.376.2-.759.387-.845.432-1.682.873-.592.312-1.185.62-.47.243-.938.49l-.785.41-.807.42-.16.085q-.264.142-.526.29l-.084.038-.07-.035.124-.274q.523-1.152 1.028-2.308.318-.72.643-1.433.154-.349.304-.698l.142-.33.124-.294c.125-.248.219-.332.479-.424l.168-.052.253-.104q.25-.091.505-.172.161-.054.316-.12.213-.084.434-.146a5 5 0 0 0 .523-.183 5 5 0 0 1 .449-.16 6 6 0 0 0 .29-.11q.213-.087.438-.148c.12-.037.236-.086.354-.134q.138-.052.281-.093c.158-.038.158-.038.268-.12q.09-.026.184-.05c.169-.043.328-.099.49-.161.556-.212.556-.212.758-.27q.212-.067.415-.15c.174-.07.35-.13.527-.192q.429-.15.856-.306z"/><path fill="#fef2b9" d="M87.037 57.244c.463-.01.92.025 1.382.063l.488.04.469.038.686.053.337.025.781.059q3.554.26 7.092.679l.326.036.322.037.286.031c.324.05.324.05.484.144.087.128.097.165.07.319-.199.284-.442.52-.688.766l-.232.232q-.241.236-.497.455l-.164.15c-.903.813-2.168 1.825-3.416 1.94l-.146.014c-.223-.017-.327-.095-.51-.224l-.198-.137-.21-.15-.427-.289-.224-.153-.738-.5-1.712-1.166-1.666-1.134-1.42-.967-.187-.127-.169-.114-.12-.085z"/><path fill="#e78500" d="m36.351 14.852.035.071a3 3 0 0 1-.077.182c-.658 1.541-.437 3.464.16 4.984.373.869 1.152 2.61 2.044 3.057q.042.116.075.233c.322.99.986 1.848 1.82 2.458l.09.074v.07l-.087.037-.117.047-.115.048a5 5 0 0 0-.249.117c-1.374.365-2.938.002-4.22-.563-.78-.494-1.16-1.952-1.379-2.804-.49-2.38-.144-4.744 1.14-6.821q.3-.446.632-.871l.082-.106z"/><path fill="#012c61" d="M80.869 57.102c.174.124.338.256.5.396q.243.205.493.401.301.237.592.486.18.15.365.294.3.237.592.486.18.15.365.293.3.238.592.487.18.15.365.293.3.237.592.487.18.15.365.293.3.237.592.487.18.15.365.293.3.237.59.486.256.212.519.414c.096.075.096.075.13.11l.18.02.175.016v.034l-.294.02q-1.31.082-2.614.19-.867.068-1.735.127c-1.685.117-1.685.117-3.367.266l-.294.007-.144.001a.6.6 0 0 1-.306-.078c-.143-.239-.097-.334-.036-.604q.088-.276.184-.55c.153-.449.287-.898.399-1.359q.06-.229.124-.454c.282-1.002.468-2.038.656-3.062z"/><path fill="#a04006" d="M35.571 25.592q.317.104.626.224a9.4 9.4 0 0 0 1.75.449l.126.022c.815.127 1.5.029 2.258-.27.096-.035.096-.035.167-.035l.035-.071.069.045c1.416.928 3.094 1.07 4.727.736.47-.106.875-.284 1.304-.5q.23-.122.47-.218c.157-.06.298-.13.444-.211.075-.03.075-.03.182.006l-.106.215q-.356.724-.686 1.462c-.082.184-.145.295-.303.42l-.092.075-.125.096-.196.152q-.345.247-.712.46l-.245.144c-1.433.814-3.031.819-4.601.409a9.35 9.35 0 0 1-3.763-2.076l-.176-.158c-.439-.384-.891-.854-1.153-1.376"/><path fill="#0369b4" d="M37.556 31.51c.465.024.922.076 1.385.132q1.47.174 2.94.33c2.584.283 2.584.283 2.941.354q-.27.606-.547 1.207l-.108.237c-.089.187-.089.187-.16.293q-.142.02-.284.035l-.505.112q-1.258.276-2.53.492-.414.076-.823.166c-.537.112-1.073.22-1.616.303q-.245.04-.488.092c-.403.083-.81.144-1.214.21q-.425.069-.845.164c-.13.02-.13.02-.273-.015l.233-.434.15-.28.269-.498c.48-.883.922-1.786 1.37-2.686z"/><path fill="#a14205" d="M52.478 68.868h.071l.204.61.115.342q.129.393.25.785l.2.636.224.711.1.317.087.286.08.255c.09.356-.052.58-.203.902-1.027 2.245-1.44 4.354-1.518 6.818-.322-.321-.518-.813-.717-1.22a23 23 0 0 0-.236-.457c-.985-1.871-1.269-3.825-.687-5.875.375-1.17.953-2.27 1.57-3.33l.129-.224c.239-.411.239-.411.331-.556"/><path fill="#fc8001" d="M92.814 57.669c1.823.123 3.643.317 5.458.532l.327.036.32.037.287.031c.324.05.324.05.484.144.087.128.097.165.07.319-.199.284-.442.52-.688.766l-.232.232q-.241.236-.497.455l-.164.15c-.602.541-.602.541-.864.593-.142-.088-.142-.088-.308-.216l-.182-.139-.183-.14-.322-.233-.158-.114-.158-.114-.479-.346-1.911-1.38-.344-.247-.177-.127-.162-.116-.117-.087z"/><path fill="#e78401" d="m76.873 55.806.133.126.137.1c.51.388.51.388.572.68.058.54-.091 1.004-.39 1.452-.47.376-1.19.416-1.764.53-.617.112-.617.112-1.072.498l-.106.106c-.345-.321-.596-.691-.65-1.17-.014-.473.17-.85.473-1.203q.079-.075.163-.14l.084-.068c.425-.303.902-.484 1.383-.68l.247-.103.236-.093.215-.088c.188-.035.188-.033.339.053"/><path fill="#fdc301" d="M75.482 64.935c.247.204.417.465.496.78.021.279-.017.527-.203.745l-.145.137c-.236.228-.43.503-.619.772-.061.083-.061.083-.167.187l-.309-.309-.146-.146-.144-.145a9 9 0 0 0-.429-.392l-.112-.094q-.349-.3-.714-.581c-.627-.492-.627-.492-.805-.67a.6.6 0 0 1 .232.033c.792.183 1.532-.106 2.267-.369.295-.083.524-.086.798.052"/><path fill="#bd172d" d="M76.191 61.78c.166.125.216.298.248.497.008.38-.051.785-.284 1.097-.186.114-.4.175-.618.175-1.172.1-2.283.916-3.174 1.634l-.071-.035c.954-1.412 2.125-2.723 3.792-3.298h.107z"/><path fill="#c91f2d" d="M77.715 56.96c.029.438-.15.843-.39 1.204-.47.376-1.19.416-1.764.53-.578.125-.578.125-1.072.427-.013-.314.08-.539.284-.78.61-.553 2.098-1.381 2.942-1.381"/><path fill="#0369b3" d="m46.736 27.718.071.036-.116.224c-.688 1.408-1.27 2.884-1.833 4.349h-.036q.027-.6.071-1.196c.034-.471.05-.941.063-1.412l.008-.264.006-.29.03-.242c.159-.124.283-.197.46-.283.365-.212.71-.429 1.028-.71l.15-.125z"/><path fill="#e78502" d="M75.872 66.316c-.23.263-.23.263-.324.364q-.282.315-.52.664c-.078.108-.078.108-.184.212l-.309-.309-.146-.146-.144-.145q-.148-.145-.303-.28c-.126-.112-.126-.112-.162-.181l.147-.005c.866-.028.866-.028 1.716-.179.122-.03.122-.03.229.005"/><path fill="#b65703" d="M61.127 34.24c.049.145.014.246-.016.396l-.031.157-.025.12-.106-.106c.005-.2.1-.387.178-.567"/><path fill="#02356d" d="M33.02 80.423h.035l.071.461h-.07v.496h-.037z"/><path fill="#1bafde" d="M49.465 37.253a.54.54 0 0 1-.07.283l-.142.07-.142.108q.085-.172.217-.312l.078-.084z"/><path fill="#a31a30" d="m87.356 37.288-.036.07c-.084.026-.084.026-.188.043l-.104.019c-.098.01-.098.01-.24-.025l.224-.074.126-.04c.112-.028.112-.028.218.007"/><path fill="#5da767" d="M45.283 49.127h.035l-.035.354-.106-.035a1 1 0 0 1 .106-.32"/></svg>
