<svg xmlns="http://www.w3.org/2000/svg" viewBox="0 0 128 128"><path fill="#2F63F9" d="M64 128c35.346 0 64-28.654 64-64S99.346 0 64 0 0 28.654 0 64s28.654 64 64 64"/><path fill="#E6C040" d="M91.3 25.24c2.133 1.577 4.074 3.318 5.98 5.16l.729.69c4.986 4.824 8.687 11.294 10.791 17.87v.96h-1.28l-.33-.87c-1.72-4.429-3.658-8.346-6.39-12.25-5.517-.463-5.517-.463-11.82-.36l-6.509-.003-5.031.043 1.28 5.12c.592 2.771.815 5.492.96 8.32H78.4l-.327-2.046-.433-2.694-.427-2.666a362 362 0 0 0-1.053-6.034H53.12c-1.283 6.704-1.283 6.704-2.24 13.44H49.6c.081-4.463 1.06-8.755 1.92-13.12q-5.69-.126-11.38-.2l-6.401-.113-5.259.313c-2.946 4.208-5.039 8.275-6.72 13.12h-1.28c1.965-9.973 9.496-19.308 17.785-24.906 16.398-10.39 36.71-11.025 53.035.226"/><path fill="#E4BF42" d="M21.76 80h1.28l.481.985c1.215 2.462 2.466 4.872 3.888 7.221.431.754.431.754.751 1.714l23.36-.32-1.6-8.32V80h1.28c.66 3.302 1.29 6.611 1.92 9.92h23.04a775 775 0 0 0 1.413-8.725L77.76 80h1.6c-.23 2.034-.577 4.03-.96 6.04l-.34 1.797c-.3 1.443-.3 1.443-.62 2.083 3.833.067 7.667.1 11.5.12l6.469.067 5.391-.507c2.344-3.604 2.344-3.604 4.34-7.32l.641-1.317.459-.963h1.28c-1.212 6.062-5.76 11.322-9.92 15.68l-.779.841c-7.412 7.778-18.74 12.593-29.402 12.995-7.803.08-15.242-.724-22.299-4.236l-1.204-.585c-6.283-3.173-11.827-7.543-16.076-13.175l-.585-.775C21.76 83.171 21.76 83.171 21.76 80"/><path fill="#EFC537" d="M113.081 56.4c1.898 1.267 3.325 3.27 3.924 5.475.522 3.832.177 6.832-1.965 10.045-1.978 1.837-4.461 3.182-7.2 3.28l-.876.047c-3.378.112-5.969-.587-8.724-2.607-2.494-2.447-2.934-4.606-3.04-7.98.056-2.808.461-4.646 2.335-6.744 4.243-4.047 10.513-4.16 15.546-1.516"/><path fill="#ECC33A" d="M54.72 55.04c6.08 0 6.08 0 7.693 1.313l1.147 1.767 1.243 1.849 1.117 1.791.957 1.421C68.8 66.053 68.8 66.053 68.8 66.88h.64l-.159-1.149c-.199-2.137-.191-4.244-.18-6.39l.008-2.442.011-1.859h5.76v19.84c-6.08 0-6.08 0-7.424-.926L66.66 72.7l-.896-1.329-.804-1.291q-.692-.945-1.4-1.88c-1.07-1.481-2.064-2.996-3.08-4.52v11.2h-5.76z"/><path fill="#EDC439" d="M35.52 55.04h17.6v5.12H40.96v2.24h11.52v5.12H40.96v2.24h12.16v5.12h-17.6z"/><path fill="#3264F6" d="M29.76 91.2h22.4a347 347 0 0 1 1.524 4.123c1.68 4.572 3.437 8.628 6.796 12.197v.32c-4.986.171-9.903-1.469-14.4-3.52l-1.133-.508c-5.725-2.704-11.275-6.965-15.187-11.972z"/><path fill="#F0C536" d="M13.12 55.04h5.44v7.36h9.28v-7.36h5.44v19.84h-5.44v-7.36h-9.28v7.36h-5.44z"/><path fill="#3264F6" d="m82.051 91.169 6.289.011 6.291.009 4.889.011c-3.89 7.778-14.239 12.668-22.08 15.36-2.854.86-5.67 1.151-8.64 1.28l.84-1.08c3.19-4.28 5.184-9.049 6.787-14.117.936-2.819 1.143-1.446 5.624-1.474"/><path fill="#3164F7" d="m60.48 18.56-.82 1.06c-3.6 4.842-5.486 9.872-7.5 15.58h-22.4c3.73-7.462 13.542-12.335 20.98-15 3.134-.986 6.45-1.64 9.74-1.64m8.32 0c10.743.04 20.912 6.17 28.32 13.48 2.4 2.421 2.4 2.421 2.4 3.16h-22.4c-.96-2.56-.96-2.56-1.395-3.773-1.526-4.21-3.239-7.952-6.023-11.482-.582-.745-.582-.745-.902-1.385"/><path fill="#3164F7" d="M65.6 18.24c4.648 2.107 6.832 7.271 8.588 11.734 1.332 3.669 1.332 3.669 1.332 5.226H53.44c1.674-6.137 3.949-12.73 9.28-16.64 1.033-.516 1.73-.448 2.88-.32"/><path fill="#3264F6" d="M53.44 91.2h22.08c-.794 5.56-3.494 11.984-7.837 15.727-1.477 1.09-2.51 1.475-4.323 1.233-5.848-3.655-8.11-10.627-9.92-16.96"/><path fill="#F0C536" d="M76.8 55.04h5.44v14.72h11.52v5.12H76.8z"/><path fill="#3264F6" d="m105.84 60.08 1.355-.025c1.347.11 2.089.314 3.205 1.065 1.387 1.711 1.152 3.666.96 5.76-.387 1.182-.657 1.685-1.628 2.437-1.246.592-2.257.593-3.632.603l-1.419.03c-1.554-.224-2.158-.679-3.241-1.79-.505-1.01-.413-2-.44-3.12l-.047-1.355c.2-1.54.671-2.132 1.767-3.205 1.009-.505 2.001-.388 3.12-.4"/></svg>
