<svg xmlns="http://www.w3.org/2000/svg" viewBox="0 0 192 128"><circle cx="64" cy="64" r="60" fill="#fff" stroke="url(#_hohm-a)" stroke-width="8"/><circle cx="64" cy="64" r="50" fill="url(#_hohm-b)"/><path d="M68.8 85.985v.1H86v-6.2h-8.494c5.109-3.872 8.393-9.891 8.393-16.65 0-11.682-9.806-21.15-21.9-21.15s-21.9 9.468-21.9 21.15c0 6.759 3.282 12.778 8.394 16.65H42v6.2h17.2V77.75c-6.265-1.969-10.8-7.703-10.8-14.465 0-8.394 6.985-15.2 15.6-15.2 8.616 0 15.6 6.806 15.6 15.2 0 6.762-4.53 12.493-10.8 14.468z"/><defs><linearGradient id="_hohm-a" x1="128" x2="0" y1="64" y2="64" gradientUnits="userSpaceOnUse"><stop stop-color="#29b8ed"/><stop offset="1" stop-color="#2df6a7"/></linearGradient><linearGradient id="_hohm-b" x1="14" x2="113.999" y1="64" y2="64" gradientUnits="userSpaceOnUse"><stop stop-color="#fe8a1f"/><stop offset="1" stop-color="#f8cc82"/></linearGradient></defs><circle cx="64" cy="64" r="64" fill="#fef3c7" transform="translate(64)"/><path fill="#d97706" d="M109.734 93.88h-9.816a9.7 9.7 0 0 1-4.676-1.152 9.14 9.14 0 0 1-3.426-3.196l-5.232-8.524a7.4 7.4 0 0 1-1.25-4.178c0-1.534.416-2.856 1.25-4.134l5.324-8.654-5.324-8.61a7.54 7.54 0 0 1-1.25-4.176c0-1.492.416-2.9 1.25-4.178l5.232-8.524a8.8 8.8 0 0 1 3.426-3.198 9.8 9.8 0 0 1 4.676-1.192h9.816l5.186-8.44a8.8 8.8 0 0 1 3.426-3.196 9.8 9.8 0 0 1 4.676-1.194h9.956c1.712 0 3.24.384 4.676 1.194a9.14 9.14 0 0 1 3.426 3.196l5.232 8.44h9.816c1.714 0 3.24.382 4.676 1.192a9.14 9.14 0 0 1 3.426 3.198l5.186 8.524c.834 1.28 1.25 2.644 1.25 4.178s-.416 2.898-1.25 4.176l-5.324 8.61 5.324 8.654c.834 1.28 1.25 2.642 1.25 4.134a7.53 7.53 0 0 1-1.25 4.178l-5.186 8.524a8.8 8.8 0 0 1-3.426 3.196 9.8 9.8 0 0 1-4.676 1.152h-9.816l-5.232 8.44a8.8 8.8 0 0 1-3.426 3.196 9.8 9.8 0 0 1-4.676 1.15h-9.958a9.7 9.7 0 0 1-4.676-1.15 9.14 9.14 0 0 1-3.426-3.196zm36.578-34.1h9.954l5.094-8.524-5.094-8.526h-9.954l-5.232 8.526zm-23.15 12.788h9.722l5.186-8.526-5.186-8.524h-9.722l-5.186 8.524zm0-25.574h9.722l5.326-8.654-5.186-8.396h-9.956l-5.184 8.396 5.324 8.654zm-8.196 4.26-5.186-8.524h-9.816l-5.186 8.526 5.186 8.524h9.816zm0 25.576-5.186-8.524h-9.954l-5.094 8.524 5.186 8.524h9.816l5.186-8.524zm8.196 4.262-5.326 8.61 5.186 8.44h9.956l5.186-8.44-5.326-8.61h-9.722zm23.15 4.262h9.816l5.186-8.524-5.186-8.524h-9.816l-5.232 8.524z"/></svg>
