<svg xmlns="http://www.w3.org/2000/svg" viewBox="0 0 128 128"><circle cx="64" cy="64" r="60" fill="#fff" stroke="url(#_hohm-a)" stroke-width="8"/><circle cx="64" cy="64" r="50" fill="url(#_hohm-b)"/><path d="M68.8 85.985v.1H86v-6.2h-8.494c5.109-3.872 8.393-9.891 8.393-16.65 0-11.682-9.806-21.15-21.9-21.15s-21.9 9.468-21.9 21.15c0 6.759 3.282 12.778 8.394 16.65H42v6.2h17.2V77.75c-6.265-1.969-10.8-7.703-10.8-14.465 0-8.394 6.985-15.2 15.6-15.2 8.616 0 15.6 6.806 15.6 15.2 0 6.762-4.53 12.493-10.8 14.468z"/><defs><linearGradient id="_hohm-a" x1="128" x2="0" y1="64" y2="64" gradientUnits="userSpaceOnUse"><stop stop-color="#29b8ed"/><stop offset="1" stop-color="#2df6a7"/></linearGradient><linearGradient id="_hohm-b" x1="14" x2="113.999" y1="64" y2="64" gradientUnits="userSpaceOnUse"><stop stop-color="#fe8a1f"/><stop offset="1" stop-color="#f8cc82"/></linearGradient></defs></svg>
