<svg xmlns="http://www.w3.org/2000/svg" viewBox="0 0 129 128"><circle cx="64" cy="64" r="64" fill="#A38BFB"/><path fill="#040404" d="M50.235 26.745c-1.192.334-2.081 1.813-2.548 4.238-.311 1.62-.367 2.473-.36 5.497.007 3.177.09 4.47.53 8.2.502 4.278.308 7.567-.708 11.96-2.11 9.121-7.568 20.349-16.25 33.425-1.572 2.368-1.905 3-1.725 3.28.127.197.605.156.966-.082.165-.11 1.142-.873 2.17-1.697C45.928 80.659 60.145 73.6 71.16 72.276c1.485-.178 3.948-.237 5.24-.125 1.44.125 1.588.157 1.728.37.23.352.083.548-.876 1.171-4.827 3.136-9.485 6.886-12.042 9.698-2.902 3.191-3.83 5.033-4.481 8.891-.356 2.11-.573 4.357-.595 6.172-.012 1.054.005 1.228.153 1.548.223.481.616.861 1.153 1.112l.44.207 18.595.021c20.304.023 19.122.048 19.841-.428.621-.411.951-1.03 1.019-1.913.053-.684-.099-3.83-.258-5.36-1.376-13.198-7.759-26.725-18.945-40.149-6.954-8.344-15.658-16.403-24.77-22.93-1.673-1.2-5.045-3.415-5.54-3.64-.533-.243-1.117-.307-1.587-.176"/></svg>
