<svg xmlns="http://www.w3.org/2000/svg" fill="none" viewBox="0 0 624 624"><path fill="#00EBAB" d="M312 624c172.313 0 312-139.687 312-312S484.313 0 312 0 0 139.687 0 312s139.687 312 312 312"/><path fill="#000" d="M380.913 478.148H360.29c-1.609 0-3.479.801-4.554 2.144-9.37 9.644-20.356 15-34.013 15s-20.356 0-30.526-1.61c-8.835-1.335-16.335-6.157-22.76-12.856-1.876-1.877-3.746-2.678-6.424-2.678-13.924 0-27.848.534-41.772-.801-28.657-2.411-54.361-11.513-73.107-34.547-11.78-14.458-17.403-31.335-18.746-49.806-1.335-17.136.534-33.738 9.369-48.738 4.555-7.5 9.644-14.725 15-21.691 6.691-8.835 12.856-17.678 14.191-28.924.267-1.877 0-4.288-1.068-5.89-9.644-15.534-16.869-31.869-20.356-49.806-6.157-31.335 9.911-61.327 39.095-72.039 13.39-5.089 27.047-4.013 40.437.801 13.924 4.822 25.978 12.856 36.957 22.759 1.877 1.877 3.479 2.144 5.89 1.335 21.691-5.623 43.382-6.966 65.607-4.013 7.233 1.068 14.459 2.678 21.691 3.746 1.336 0 3.48-.267 4.555-1.335 11.513-10.445 24.369-18.746 39.369-23.835 40.704-13.924 74.442 17.945 78.196 48.471 1.877 16.602-1.335 32.403-7.5 47.395-3.746 8.835-8.835 17.403-13.39 25.979-.801 1.61-1.068 3.479-.801 5.356 1.877 12.589 9.102 22.492 16.869 31.869 10.178 12.589 18.746 26.246 21.157 42.848 6.691 44.45-11.246 88.107-61.861 104.442-16.869 5.356-34.814 6.966-50.615 6.424z"/><path fill="#000" d="M329.014 105H283v11.388h45.612v11.389H283V162h57v-11.388h-45.612v-11.389H340V105z"/><path fill="#00EBAB" d="M374 361.995c0-32.53-19.433-43.683-58.299-48.33-27.761-3.719-33.313-11.153-33.313-24.167s9.254-21.377 27.761-21.377c16.657 0 25.911 5.577 30.537 19.519.926 2.788 3.703 4.646 6.479 4.646h14.804c3.703 0 6.479-2.788 6.479-6.505v-.93c-3.703-20.449-20.359-36.249-41.642-38.107v-22.307c0-3.718-2.776-6.507-7.403-7.437h-13.88c-3.703 0-6.479 2.788-7.405 7.437v21.377c-27.761 3.719-45.342 22.307-45.342 45.544 0 30.672 18.507 42.754 57.373 47.402 25.911 4.647 34.24 10.224 34.24 25.096s-12.957 25.095-30.538 25.095c-24.061 0-32.39-10.225-35.166-24.167-.924-3.717-3.7-5.577-6.476-5.577h-15.733c-3.7 0-6.476 2.788-6.476 6.507v.93c3.7 23.235 18.507 39.965 49.044 44.614v22.307c0 3.716 2.776 6.505 7.403 7.435h13.88c3.703 0 6.479-2.788 7.405-7.435v-22.307C355.493 406.609 374 387.091 374 361.995"/></svg>
