<svg xmlns="http://www.w3.org/2000/svg" viewBox="0 0 128 128"><circle cx="64" cy="64" r="64" fill="#00ebab"/><path d="M78.136 98.082h-4.23c-.33 0-.714.164-.934.44-1.923 1.978-4.176 3.076-6.977 3.076s-4.176 0-6.262-.33c-1.813-.274-3.351-1.263-4.669-2.637-.385-.385-.768-.55-1.318-.55-2.856 0-5.712.11-8.568-.164-5.879-.494-11.151-2.361-14.997-7.086-2.416-2.966-3.57-6.428-3.845-10.217-.274-3.515.11-6.92 1.922-9.997a50 50 0 0 1 3.077-4.45c1.372-1.812 2.637-3.626 2.91-5.933.056-.385 0-.88-.218-1.208-1.979-3.187-3.46-6.537-4.176-10.217-1.263-6.427 2.033-12.58 8.02-14.777 2.746-1.044 5.548-.823 8.294.164 2.857.99 5.33 2.637 7.581 4.669.385.385.714.44 1.209.274a34.7 34.7 0 0 1 13.457-.824c1.484.22 2.966.55 4.45.769.274 0 .714-.055.934-.274 2.362-2.143 4.999-3.845 8.076-4.89 8.35-2.855 15.27 3.682 16.04 9.944.385 3.405-.274 6.646-1.538 9.722-.769 1.812-1.813 3.57-2.747 5.329-.164.33-.22.713-.164 1.098.385 2.583 1.867 4.614 3.46 6.538 2.088 2.582 3.845 5.383 4.34 8.789 1.372 9.118-2.307 18.073-12.69 21.424-3.46 1.099-7.141 1.429-10.382 1.318z"/><path d="M67.49 21.539h-9.439v2.335h9.357v2.337H58.05v7.02h11.693v-2.336h-9.357v-2.336h9.357v-7.02z"/><path fill="#00ebab" d="M76.718 74.255c0-6.672-3.986-8.96-11.959-9.913-5.694-.763-6.833-2.288-6.833-4.958S59.824 55 63.62 55c3.417 0 5.315 1.144 6.264 4.004.19.572.76.953 1.33.953h3.036c.76 0 1.33-.572 1.33-1.334v-.191c-.76-4.195-4.177-7.436-8.543-7.817v-4.576c0-.762-.57-1.334-1.518-1.525H62.67c-.76 0-1.329.572-1.519 1.525v4.385c-5.694.763-9.3 4.576-9.3 9.343 0 6.291 3.796 8.77 11.768 9.723 5.315.953 7.024 2.097 7.024 5.148s-2.658 5.148-6.264 5.148c-4.936 0-6.644-2.098-7.214-4.957-.19-.763-.759-1.145-1.328-1.145H52.61c-.76 0-1.329.572-1.329 1.335v.191c.759 4.766 3.796 8.198 10.06 9.152v4.575c0 .763.57 1.335 1.519 1.525h2.847c.76 0 1.33-.571 1.52-1.525v-4.575c5.694-.954 9.49-4.958 9.49-10.106"/></svg>
