<svg xmlns="http://www.w3.org/2000/svg" viewBox="0 0 192 128"><svg viewBox="0 0 128 128"><circle cx="64" cy="64" r="64"/><path fill="url(#_ibgt)" d="M63.832 99.96a19.2 19.2 0 0 1-2.62-3.512c-1.872-2.944-5.008-9.856-5.016-17.456-6.62 3.864-14.256 4.616-17.768 4.464a19.2 19.2 0 0 1-3.944-.416q2.208 10.752 11.068 15.696 8.6 4.8 18.28 1.224m23.76-31.48a20.8 20.8 0 0 0 3.924-8.168q1.231-5.148.048-10.34l7-1.984a4.07 4.07 0 0 0 3.06-3.543 4.1 4.1 0 0 0-.172-1.641 4.08 4.08 0 0 0-1.96-2.572 4.08 4.08 0 0 0-3.22-.32l-7.808 2.216q-3.892-5.004-8.02-7.252-4.128-2.244-9.528-2.312l-2.292-8.08a4.08 4.08 0 0 0-1.964-2.568 4.08 4.08 0 0 0-3.22-.32 4.08 4.08 0 0 0-2.568 1.96 4.08 4.08 0 0 0-.324 3.22l1.984 7a21.6 21.6 0 0 0-8.732 5.608 22.4 22.4 0 0 0-4.576 7.04l23.36 2.88zM38.36 48.952a15.332 15.332 0 0 0 .116 30.664h.088c3.568.168 12.244-.816 18.42-5.812L69.248 52.76zm21.904 26.852 12.052-20.68 18.828 24.148a15.334 15.334 0 0 1-26.624 15.22l-.044-.08c-1.908-2.972-5.336-10.84-4.212-18.608"/><defs><linearGradient id="_ibgt" x1="148.82" x2="-19.768" y1="62.384" y2="64.684" gradientUnits="userSpaceOnUse"><stop stop-color="#F8F29C"/><stop offset=".165" stop-color="#F6DB2A"/><stop offset=".333" stop-color="#F4A435"/><stop offset=".55" stop-color="#E85A46"/><stop offset=".699" stop-color="#B93483"/><stop offset=".867" stop-color="#502B6E"/><stop offset="1" stop-color="#2A2136"/></linearGradient></defs></svg><svg x="64" viewBox="0 0 128 128"><circle cx="64" cy="64" r="64" fill="#00BFFF"/><path fill="#FAFDFF" d="M90.248 75.656q4.984 6.664 2.088 14.492-2.892 7.824-11.496 10.264a16 16 0 0 1-8.388.092q-4.28-1.08-7.012-4.072-9.92 4.432-18.64-.432T36.32 80.188a15.1 15.1 0 0 1-7.38-4.168q-3.036-3.112-4.38-7.848-2.16-7.6 3.432-14.24t12.976-5.768l8.644 1.048a20.4 20.4 0 0 1 4.82-8.168 20 20 0 0 1 8.088-5.192l-1.84-6.48a3.76 3.76 0 0 1 1.3-4.137c.41-.313.88-.539 1.38-.663a3.76 3.76 0 0 1 4.8 2.676l2.12 7.48q5.008.06 8.824 2.14 3.82 2.08 7.428 6.716l7.228-2.052a3.76 3.76 0 0 1 2.98.3 3.76 3.76 0 0 1 1.82 2.376 3.76 3.76 0 0 1-.3 2.98 3.76 3.76 0 0 1-2.376 1.82l-6.48 1.84a20.8 20.8 0 0 1-.048 9.576 19.2 19.2 0 0 1-4.292 8.356zm-30.06 11.76a40 40 0 0 1-1.296-6.7 36 36 0 0 1-.068-6.648 24 24 0 0 1-5.624 3.684 27.7 27.7 0 0 1-6.452 2.168q1.38 4.86 4.98 6.872 3.6 2.01 8.46.624M45.16 69.6q3.988-1.127 6.76-2.996 2.768-1.86 6.78-6.232l-16.72-1.988q-4.044-.468-6.156 1.812-2.108 2.28-1.16 5.648.924 3.24 3.464 4.136 2.544.892 7.032-.38m32.848 20.844q3.12-.88 4.428-3.612 1.316-2.728-.356-4.816l-11.54-15.04a41.6 41.6 0 0 0-1.412 9.02q-.18 4.36.74 7.6 1.168 4.116 3.22 5.888t4.92.96m.376-30q.888-1.6 1.056-3.872a12.8 12.8 0 0 0-.472-4.512q-1.132-3.983-4.528-5.984a8.96 8.96 0 0 0-7.26-.904q-2.248.636-4.024 1.948a9.6 9.6 0 0 0-2.764 3.076l10.996 1.728z"/></svg></svg>
