<svg xmlns="http://www.w3.org/2000/svg" viewBox="0 0 512 512"><rect width="512" height="512" fill="#6E61FF" rx="256"/><path fill="#F4F4F8" d="M329.321 267.539a98.6 98.6 0 0 0-37.795 7.529 98.8 98.8 0 0 0-32.041 21.443 98.9 98.9 0 0 0-21.41 32.091c-4.963 12.001-7.648 24.864-7.648 37.854h98.894z"/><path fill="#F4F4F8" d="M131.913 145.993c29.445-.524 98.746 11.746 98.746 77.069l.004 143.394c-29.581 0-98.746-21.035-98.746-84.198zm197.408 70.169a51.2 51.2 0 0 1 19.631 3.911 51.3 51.3 0 0 1 16.641 11.137 51.4 51.4 0 0 1 11.12 16.668 51.4 51.4 0 0 1 3.905 19.661h-51.297z"/></svg>
