<svg xmlns="http://www.w3.org/2000/svg" viewBox="0 0 128 128"><circle cx="64" cy="64" r="60" fill="#382f22"/><path fill="#e7b942" d="M48.12 19.6c3.235-1.435 7.565-.895 10.105 1.66.77.635 1.18 1.465 2.265 1.475 5.84.505 11.665 1.12 17.505 1.59.905.065 1.565.34 2.305.855 3.23 2.28 6.45 4.575 9.705 6.815.54.445 1.245.78 1.39 1.525.565 2.395.78 4.875 1.3 7.29 4.225 3.185 8.49 6.32 12.7 9.525-2.625 5.45-5.435 10.47-10.055 14.515-1.575 1.365-3.455 1.74-5.475 1.93 2.41 3.53 5.865 7.365 6.375 11.715.22 2.945.265 6.195-.68 9.02-1.825 5.93-5.53 11.31-10.28 15.275-4.185 3.47-9.375 5.61-14.78 6.16-9.47 1.01-19.465-1.54-26.985-7.48-4.5-3.52-7.87-8.26-9.98-13.555-3.515-8.715-4.12-18.68-2.7-27.9.835-5.74 2.255-11.61 4.815-16.84 1.75-3.56 4.325-6.26 7.07-9.05-.565-1.505-1.055-2.995-1.03-4.625-.1-4.195 2.62-8.23 6.43-9.9m5.38 6.415c-4.344-.045-7.395 4.975-5.805 8.895 1.115 2.945 4.105 4.415 7.165 3.78l-.12 2.23c-1.67-.195-3.425-.25-5.035-.725-.975-.495-1.795-1.33-2.63-2.02-2.145 2.77-4.265 5.42-5.805 8.595-3.005 5.99-4.06 12.615-4.785 19.215-.25 1.65.15 3.1.79 4.6 3.25-3.765 6.125-7.805 9.235-11.675.085 7.86-.065 15.735.17 23.595.225 4.99 1.59 10.895 5.355 14.46 3.165 2.785 8.07 3.845 12.145 4.345-2.13-3.83-4.16-7.65-5.37-11.885 3.855 3.95 8.165 7.405 12.04 11.355-.185-2.08-.72-4.015-1.835-5.79-2.455-3.985-6.025-7.435-8.82-11.19-2.65-3.61-4.48-7.83-5.455-12.19-.75-3.305-.54-6.655-.585-10.11-.055-3.685.45-7.33 1.415-10.88 1.185-4.455 3.56-8.795 5.61-12.92 2.115-.505 4.215-1.16 6.36-1.51q.586-.12.97.255c2.43 1.975 4.415 4.62 6.97 6.42 2.135-.35 4.26-1.615 6.42-1.665 1.67.215 2.015 1.835 2.64 3.12-3.37 1.025-6.745 2.035-10.105 3.1 4.405 2.98 8.815 5.95 13.205 8.955.875.6 1.75 1.09 2.83 1.195 1.85.145 3.43.865 4.975-.515-1.44-1.485-1.93-2.435-2.28-4.47 1.52-.305 3.055-.54 4.59-.775-2.97-2.235-5.975-4.415-8.96-6.625-2.505-1.445-.885-5.62-3.24-7.245-2.415-2.085-4.93-4.05-7.34-6.14-1.335-1.345-2.915-1.435-4.695-1.65-4.985-.475-9.72-1.565-14.635-1.435-1.545-1.515-3.09-2.765-5.384-2.7m7.25 39.835c-1.24 2.22-3.2 4.945-2.2 7.59 2.255 5.84 7.365 9.585 11.29 14.225 2.95 3.515 4.725 7.795 4.34 12.45.9-.635 2.175-1.246 2.625-2.285 1.2-2.425 1.82-5.12 1.595-7.835-.26-3.59-2.01-6.845-4.59-9.305-3.045-2.89-6.695-5.375-9.46-8.535-1.65-1.86-2.64-4.04-3.6-6.305m20.755.735c-1.84 4.265-2.77 9.086-3.48 13.665-.29 1.375.69 2.3 1.26 3.475 2.265 4.12 2.015 8.735.94 13.17 4.355-2.985 7.945-7.545 9.23-12.715.2-1.81.21-3.62.05-5.43-1.035-5.235-4.37-9.265-7.39-13.58q-.309.704-.61 1.415m-39.145 6.31c-1.3 3.26-3.15 7.045-3.13 10.585 1.055 2.31 2.495 4.47 3.84 6.62.07-6.295.025-12.59.03-18.885q-.374.84-.74 1.68m21.93-33.89c-6.005 7.89-8.14 18.786-6.98 28.5 1.68-2.42 3.2-4.795 5.316-6.88 1.98-1.95 3.924-3.7 5.409-6.095.73-1.17 1.23-2.47 1.98-3.62.845.065 1.64.27 2.455.475-.31.84-.725 1.7-.855 2.585.16.715.44 1.41.685 2.1a476 476 0 0 0-2.65-.275c-1.235 2.555-2.975 4.675-4.93 6.7.94 3.05 2.715 6.89 6.285 7.365 1.355.155 3.585.67 4.69-.335.49-1.125-.105-2-.395-3.095l1.05-1.605c-.98-.41-1.895-.2-2.905-.105.965-.7 1.975-1.24 3.07-1.71-.45-.975-.975-1.89-1.565-2.785 1-.495 2.39-.215 2.355-1.665-1.185-1.455-3.035-2.81-3.82-4.52-.41-1.23-.205-2.665-.665-3.885-.615-1.36-1.555-2.385-1.885-3.875-.405-1.64-.59-3.145-1.745-4.47-1.28-1.58-3.01-2.24-4.9-2.805m14.915 21.28c-.22 1.03-.485 2.05-.74 3.07 2.85-.135 5.695-.415 8.545-.59 1.055-.09 2.165-.1 3.11-.65.975-.575 1.8-1.5 2.595-2.305-4.355-.695-8.795-.98-13.195-1.13z"/><path fill="#e7b942" d="M51.615 31.145c.875-.315 1.85-.315 2.71.05 1.81.755 2.655 3.38 1.88 5.07-1.53 1.395-4.455.815-5.525-.965-.925-1.295-.615-3.495.935-4.155"/></svg>
