<svg width="1024" height="1024" viewBox="0 0 1024 1024" fill="none" xmlns="http://www.w3.org/2000/svg">
<g clip-path="url(#clip0_8964_3736)">
<rect width="1024" height="1024" rx="512" fill="white"/>
<g clip-path="url(#clip1_8964_3736)">
<path d="M506 1064C817.489 1064 1070 811.489 1070 500C1070 188.511 817.489 -64 506 -64C194.511 -64 -58 188.511 -58 500C-58 811.489 194.511 1064 506 1064Z" fill="black"/>
<path fill-rule="evenodd" clip-rule="evenodd" d="M875.475 335.338C875.964 380.434 859.286 424.028 828.824 457.284C827.562 458.652 826.628 460.29 826.093 462.073C825.558 463.856 825.436 465.737 825.737 467.574C845.735 579.949 816.269 672.361 755.622 738.222C691.922 807.341 598.482 841.747 507.82 843.633H504.562C413.934 841.747 320.494 807.307 256.76 738.187C196.147 672.361 166.681 579.949 186.645 467.574C186.939 465.737 186.814 463.858 186.28 462.076C185.745 460.294 184.815 458.655 183.558 457.284C159.57 431.051 144.002 398.226 138.865 363.052C133.728 327.878 139.26 291.972 154.744 259.975C186.748 193.771 267.702 142.077 350.577 159.366C353.322 159.937 356.66 160.795 360.594 161.938C372.908 165.574 384.262 171.783 394.21 179.776C416.37 197.442 457.052 209.276 503.567 209.276H508.849C555.364 209.276 596.047 197.476 618.172 179.776C628.154 171.818 639.508 165.574 651.788 161.938C655.105 160.954 658.457 160.096 661.839 159.366C744.714 142.111 825.668 193.805 857.672 259.975C869.107 283.47 875.188 309.209 875.475 335.338ZM331.574 268.345C342.194 270.336 352.343 274.316 361.486 280.076C376.75 289.681 373.32 310.674 358.707 321.171L283.927 374.649C269.315 385.145 247.978 381.852 243.382 364.598C240.628 354.317 239.894 343.6 241.221 333.04C242.556 322.668 245.962 312.671 251.237 303.642C256.456 294.739 263.507 287.046 271.922 281.071C280.396 275.103 289.985 270.904 300.118 268.722C310.472 266.486 321.17 266.358 331.574 268.345ZM735.384 281.037C743.808 287.117 750.886 294.871 756.175 303.813C761.464 312.756 764.849 322.694 766.119 333.005C767.467 343.565 766.733 354.286 763.958 364.564C759.327 381.852 738.025 385.145 723.378 374.649L648.632 321.171C633.985 310.674 630.555 289.681 645.82 280.076C654.962 274.316 665.111 270.336 675.731 268.345C686.133 266.347 696.831 266.463 707.187 268.688C717.334 270.823 726.933 275.027 735.384 281.037ZM533.959 592.779C515.953 586.729 496.463 586.729 478.457 592.779C468.51 596.175 459.865 601.423 460.414 609.312C461.409 621.421 480.653 642.14 494.545 646.428C503.052 649.001 508.403 648.829 517.871 646.428C531.798 642.86 551.144 621.421 552.036 609.312C552.654 601.423 543.907 596.175 533.959 592.779ZM420.349 537.654C427.445 541.774 433.649 547.266 438.598 553.811C443.627 560.48 447.308 568.065 449.437 576.142C453.073 589.691 439.764 599.914 425.666 598.301L389.819 594.185L354.179 590.206C340.115 588.594 329.618 575.627 336.205 563.244C340.166 555.866 345.511 549.321 351.949 543.966C358.269 538.683 365.582 534.717 373.457 532.303C381.224 529.94 389.392 529.196 397.458 530.117C405.523 531.037 413.314 533.603 420.349 537.654ZM659.266 542.697C652.934 537.433 645.625 533.469 637.758 531.034C629.992 528.671 621.823 527.927 613.758 528.848C605.692 529.768 597.901 532.333 590.867 536.385C583.768 540.515 577.563 546.019 572.618 552.576C567.607 559.257 563.927 566.838 561.778 574.907C558.142 588.422 571.417 598.644 585.447 597.066L621.327 592.95L657.002 588.971C671.135 587.359 681.597 574.392 675.011 562.009C670.986 554.665 665.649 548.119 659.266 542.697Z" fill="url(#paint0_linear_8964_3736)"/>
</g>
<g clip-path="url(#clip2_8964_3736)">
<rect width="512" height="1024" fill="white"/>
<path d="M512.5 1093C832.549 1093 1092 833.549 1092 513.5C1092 193.451 832.549 -66 512.5 -66C192.451 -66 -67 193.451 -67 513.5C-67 833.549 192.451 1093 512.5 1093Z" fill="#17181D"/>
<path d="M720.293 633.789C751.161 675.03 757.633 719.86 739.706 768.282C721.779 816.702 686.211 848.463 632.994 863.562C607.546 870.785 581.584 871.069 555.111 864.414C528.64 857.759 506.94 845.166 490.015 826.636C428.631 854.057 370.959 852.713 317 822.609C263.038 792.505 230.614 743.581 219.723 675.838C192.867 669.294 170.041 656.396 151.244 637.147C132.448 617.899 118.892 593.621 110.576 564.314C97.2256 517.267 107.849 473.211 142.445 432.144C177.04 391.078 217.183 373.226 262.873 378.594L343.132 388.32C351.774 360.035 366.685 334.761 387.866 312.499C409.05 290.238 434.075 274.179 462.945 264.32L445.875 204.164C443.03 194.138 443.954 184.917 448.65 176.501C453.344 168.086 460.705 162.455 470.732 159.61C480.756 156.765 489.978 157.69 498.394 162.386C506.81 167.081 512.439 174.441 515.284 184.467L534.982 253.876C565.923 254.265 593.222 260.893 616.874 273.762C640.526 286.634 663.503 307.406 685.808 336.076L752.905 317.036C762.929 314.191 772.151 315.116 780.567 319.812C788.983 324.508 794.612 331.867 797.457 341.894C800.302 351.918 799.378 361.139 794.682 369.555C789.988 377.971 782.627 383.6 772.6 386.445L712.444 403.518C719.221 433.263 719.084 462.883 712.039 492.384C704.993 521.883 691.704 547.736 672.174 569.946L720.293 633.789ZM441.274 742.97C435.364 722.146 431.355 701.408 429.246 680.757C427.134 660.107 426.922 639.54 428.611 619.063C413.282 632.578 395.888 643.973 376.437 653.243C356.983 662.514 337.013 669.221 316.525 673.37C325.06 703.448 340.464 724.701 362.742 737.129C385.018 749.558 411.197 751.505 441.274 742.97ZM301.831 577.539C326.508 570.537 347.42 561.269 364.565 549.738C381.71 538.205 402.694 518.916 427.519 491.871L272.283 473.425C247.292 470.517 228.258 476.126 215.184 490.252C202.109 504.378 198.528 521.854 204.435 542.678C210.125 562.729 220.839 575.523 236.576 581.056C252.313 586.59 274.065 585.419 301.831 577.539ZM606.732 771.017C626.012 765.544 639.715 754.364 647.839 737.474C655.962 720.587 654.861 705.69 644.533 692.789L537.418 553.186C529.767 582.024 525.395 609.932 524.3 636.907C523.208 663.885 525.505 687.4 531.195 707.451C538.417 732.903 548.378 751.117 561.076 762.097C573.777 773.077 588.995 776.049 606.732 771.017ZM610.205 492.532C615.73 482.63 618.998 470.659 620.015 456.622C621.032 442.583 619.569 428.624 615.631 414.741C608.626 390.061 594.619 371.537 573.609 359.166C552.599 346.795 530.14 344.003 506.231 350.785C492.35 354.725 479.896 360.76 468.869 368.889C457.843 377.018 449.291 386.526 443.215 397.42L545.266 413.458L610.205 492.532Z" fill="#00C9A7"/>
</g>
</g>
<defs>
<linearGradient id="paint0_linear_8964_3736" x1="1319.32" y1="504.93" x2="-266.663" y2="528.804" gradientUnits="userSpaceOnUse">
<stop stop-color="#F8F29C"/>
<stop offset="0.165" stop-color="#F6DB2A"/>
<stop offset="0.333" stop-color="#F4A435"/>
<stop offset="0.55" stop-color="#E85A46"/>
<stop offset="0.699" stop-color="#B93483"/>
<stop offset="0.867" stop-color="#502B6E"/>
<stop offset="1" stop-color="#2A2136"/>
</linearGradient>
<clipPath id="clip0_8964_3736">
<rect width="1024" height="1024" rx="512" fill="white"/>
</clipPath>
<clipPath id="clip1_8964_3736">
<rect width="1128" height="1128" fill="white" transform="translate(-58 -64)"/>
</clipPath>
<clipPath id="clip2_8964_3736">
<rect width="512" height="1024" fill="white"/>
</clipPath>
</defs>
</svg>
