<svg width="200" height="200" viewBox="0 0 200 200" fill="none" xmlns="http://www.w3.org/2000/svg">
<path d="M100 200C155.228 200 200 155.228 200 100C200 44.7715 155.228 0 100 0C44.7715 0 0 44.7715 0 100C0 155.228 44.7715 200 100 200Z" fill="#17181D"/>
<path d="M141.014 118.212C146.211 125.155 147.3 132.701 144.282 140.852C141.264 149.003 135.277 154.35 126.319 156.891C122.035 158.107 117.665 158.155 113.208 157.035C108.752 155.915 105.099 153.795 102.25 150.675C91.9173 155.291 82.2089 155.065 73.1257 149.997C64.042 144.93 58.5838 136.694 56.7505 125.291C52.2297 124.189 48.3872 122.018 45.2231 118.778C42.059 115.537 39.777 111.451 38.3771 106.517C36.1298 98.5975 37.918 91.1812 43.7418 84.2682C49.5654 77.3553 56.3228 74.3501 64.0142 75.2538L77.5246 76.891C78.9794 72.1297 81.4895 67.8751 85.055 64.1277C88.621 60.3803 92.8336 57.677 97.6934 56.0174L94.82 45.8909C94.3411 44.2032 94.4966 42.651 95.2872 41.2343C96.0772 39.8177 97.3165 38.8699 99.0043 38.391C100.692 37.912 102.244 38.0677 103.661 38.8581C105.078 39.6485 106.025 40.8875 106.504 42.5752L109.82 54.2593C115.028 54.3247 119.624 55.4405 123.605 57.6068C127.587 59.7736 131.455 63.2703 135.209 68.0965L146.504 64.8914C148.192 64.4125 149.744 64.5681 151.161 65.3586C152.577 66.1492 153.525 67.3879 154.004 69.0758C154.483 70.7632 154.327 72.3155 153.537 73.7322C152.747 75.149 151.507 76.0965 149.82 76.5754L139.693 79.4494C140.834 84.4565 140.811 89.4426 139.625 94.4087C138.439 99.3744 136.202 103.727 132.914 107.465L141.014 118.212ZM94.0455 136.591C93.0507 133.086 92.3757 129.595 92.0207 126.119C91.6651 122.642 91.6295 119.18 91.9139 115.733C89.3335 118.008 86.4054 119.927 83.1311 121.487C79.8562 123.048 76.4946 124.177 73.0457 124.875C74.4824 129.938 77.0754 133.516 80.8258 135.608C84.5756 137.7 88.9824 138.028 94.0455 136.591ZM70.5721 108.743C74.7263 107.565 78.2464 106.005 81.1325 104.064C84.0187 102.122 87.551 98.875 91.73 94.3224L65.5982 91.2173C61.3914 90.7277 58.1873 91.6718 55.9863 94.0498C53.7854 96.4278 53.1826 99.3695 54.177 102.875C55.1348 106.25 56.9383 108.404 59.5874 109.335C62.2366 110.267 65.8981 110.07 70.5721 108.743ZM121.898 141.313C125.143 140.391 127.45 138.509 128.818 135.666C130.185 132.823 130 130.316 128.261 128.144L110.23 104.644C108.942 109.498 108.206 114.196 108.022 118.737C107.838 123.278 108.225 127.237 109.182 130.612C110.398 134.897 112.075 137.963 114.212 139.811C116.35 141.659 118.912 142.16 121.898 141.313ZM122.483 94.4336C123.413 92.7667 123.963 90.7516 124.134 88.3887C124.305 86.0254 124.059 83.6757 123.396 81.3387C122.217 77.1841 119.859 74.0658 116.322 71.9834C112.785 69.9009 109.005 69.4308 104.98 70.5725C102.643 71.2357 100.547 72.2516 98.6908 73.62C96.8346 74.9885 95.395 76.5891 94.3723 78.4228L111.551 81.1226L122.483 94.4336Z" fill="#00C9A7"/>
</svg>
