<svg xmlns="http://www.w3.org/2000/svg" viewBox="0 0 192 128"><circle cx="64" cy="64" r="64" fill="#17181d"/><path fill="#00c9a7" d="M90.249 75.656q4.989 6.665 2.092 14.49-2.898 7.824-11.497 10.264-4.113 1.167-8.39.092-4.279-1.074-7.014-4.07-9.92 4.432-18.64-.434-8.72-4.865-10.48-15.812-4.34-1.058-7.377-4.168T24.56 68.17q-2.157-7.603 3.434-14.24 5.59-6.636 12.974-5.768l8.646 1.047q1.398-4.57 4.82-8.168 3.425-3.599 8.088-5.19l-1.838-6.482q-.46-1.62.299-2.98.758-1.36 2.379-1.82t2.98.299 1.82 2.378l2.122 7.478q5 .063 8.822 2.143t7.427 6.713l7.229-2.051q1.62-.46 2.98.3 1.36.758 1.82 2.378t-.3 2.98q-.758 1.36-2.378 1.82l-6.482 1.839a20.8 20.8 0 0 1-.043 9.574q-1.138 4.767-4.295 8.356zm-30.06 11.762a39 39 0 0 1-1.296-6.702 36 36 0 0 1-.068-6.647q-2.478 2.184-5.621 3.683a27.8 27.8 0 0 1-6.455 2.168q1.38 4.86 4.98 6.87 3.6 2.007 8.46.628M45.167 69.595q3.987-1.13 6.758-2.994 2.77-1.863 6.783-6.235L41.983 58.38q-4.038-.47-6.151 1.813t-1.158 5.648q.92 3.24 3.462 4.134 2.544.895 7.03-.379M78.015 90.44q3.116-.885 4.43-3.614t-.357-4.814l-11.54-15.04q-1.238 4.66-1.413 9.02-.177 4.36.742 7.6 1.167 4.113 3.22 5.887 2.051 1.774 4.918.961m.375-30.003q.892-1.6 1.056-3.868a13 13 0 0 0-.472-4.512q-1.133-3.988-4.527-5.988t-7.26-.902a12.5 12.5 0 0 0-4.025 1.95q-1.78 1.314-2.763 3.074l10.994 1.728z"/><circle cx="64" cy="64" r="64" transform="translate(64)"/><path fill="url(#_ibera)" fill-rule="evenodd" d="M107.456 47.58a20.72 20.72 0 0 1-5.44 14.22 1.43 1.43 0 0 0-.36 1.2c2.332 13.104-1.104 23.88-8.176 31.56-7.428 8.06-18.324 12.072-28.896 12.292h-.38c-10.568-.22-21.464-4.236-28.896-12.296C28.24 86.88 24.804 76.104 27.132 63a1.44 1.44 0 0 0-.36-1.2 20.72 20.72 0 0 1-3.36-23.008c3.732-7.72 13.172-13.748 22.836-11.732q.48.1 1.168.3c1.436.424 2.76 1.148 3.92 2.08 2.584 2.06 7.328 3.44 12.752 3.44h.616c5.424 0 10.168-1.376 12.748-3.44 1.164-.928 2.488-1.656 3.92-2.08a16 16 0 0 1 1.172-.3c9.664-2.012 19.104 4.016 22.836 11.732a20.6 20.6 0 0 1 2.076 8.788m-63.424-7.812a10 10 0 0 1 3.488 1.368c1.78 1.12 1.38 3.568-.324 4.792l-8.72 6.236c-1.704 1.224-4.192.84-4.728-1.172a9.6 9.6 0 0 1-.252-3.68 9.1 9.1 0 0 1 1.168-3.428 8.5 8.5 0 0 1 2.412-2.632 9 9 0 0 1 3.288-1.44 9.2 9.2 0 0 1 3.668-.044m47.088 1.48a8.8 8.8 0 0 1 3.584 6.06 9.5 9.5 0 0 1-.252 3.68c-.54 2.016-3.024 2.4-4.732 1.176l-8.716-6.236c-1.708-1.224-2.108-3.672-.328-4.792a10 10 0 0 1 3.488-1.368 9.2 9.2 0 0 1 3.668.04 8.8 8.8 0 0 1 3.288 1.44M67.632 77.6a10.16 10.16 0 0 0-6.472 0c-1.16.396-2.168 1.008-2.104 1.928.116 1.412 2.36 3.828 3.98 4.328.992.3 1.616.28 2.72 0 1.624-.416 3.88-2.916 3.984-4.328.072-.92-.948-1.532-2.108-1.928m-13.248-6.428a7.2 7.2 0 0 1 2.128 1.884 7.5 7.5 0 0 1 1.264 2.604c.424 1.58-1.128 2.772-2.772 2.584l-4.18-.48-4.156-.464c-1.64-.188-2.864-1.7-2.096-3.144a7.6 7.6 0 0 1 1.836-2.248 7.2 7.2 0 0 1 2.508-1.36 6.92 6.92 0 0 1 5.468.624m27.86.588a7.3 7.3 0 0 0-2.508-1.36 6.92 6.92 0 0 0-5.468.624 7.2 7.2 0 0 0-2.128 1.888 7.6 7.6 0 0 0-1.264 2.604c-.424 1.576 1.124 2.768 2.76 2.584l4.184-.48 4.16-.464c1.648-.188 2.868-1.7 2.1-3.144a8 8 0 0 0-1.836-2.252" transform="translate(64)"/><defs transform="translate(64)"><linearGradient id="_ibera" x1="159.212" x2="-25.728" y1="67.356" y2="70.14" gradientUnits="userSpaceOnUse"><stop stop-color="#f8f29c"/><stop offset=".165" stop-color="#f6db2a"/><stop offset=".333" stop-color="#f4a435"/><stop offset=".55" stop-color="#e85a46"/><stop offset=".699" stop-color="#b93483"/><stop offset=".867" stop-color="#502b6e"/><stop offset="1" stop-color="#2a2136"/></linearGradient></defs></svg>
