<svg xmlns="http://www.w3.org/2000/svg" viewBox="0 0 128 128"><circle cx="64" cy="64" r="64" fill="#17181d"/><path fill="#00c9a7" d="M90.249 75.656q4.989 6.665 2.092 14.49-2.898 7.824-11.497 10.264-4.113 1.167-8.39.092-4.279-1.074-7.014-4.07-9.92 4.432-18.64-.434-8.72-4.865-10.48-15.812-4.34-1.058-7.377-4.168T24.56 68.17q-2.157-7.603 3.434-14.24 5.59-6.636 12.974-5.768l8.646 1.047q1.398-4.57 4.82-8.168 3.425-3.599 8.088-5.19l-1.838-6.482q-.46-1.62.299-2.98.758-1.36 2.379-1.82t2.98.299 1.82 2.378l2.122 7.478q5 .063 8.822 2.143t7.427 6.713l7.229-2.051q1.62-.46 2.98.3 1.36.758 1.82 2.378t-.3 2.98q-.758 1.36-2.378 1.82l-6.482 1.839a20.8 20.8 0 0 1-.043 9.574q-1.138 4.767-4.295 8.356zm-30.06 11.762a39 39 0 0 1-1.296-6.702 36 36 0 0 1-.068-6.647q-2.478 2.184-5.621 3.683a27.8 27.8 0 0 1-6.455 2.168q1.38 4.86 4.98 6.87 3.6 2.007 8.46.628M45.167 69.595q3.987-1.13 6.758-2.994 2.77-1.863 6.783-6.235L41.983 58.38q-4.038-.47-6.151 1.813t-1.158 5.648q.92 3.24 3.462 4.134 2.544.895 7.03-.379M78.015 90.44q3.116-.885 4.43-3.614t-.357-4.814l-11.54-15.04q-1.238 4.66-1.413 9.02-.177 4.36.742 7.6 1.167 4.113 3.22 5.887 2.051 1.774 4.918.961m.375-30.003q.892-1.6 1.056-3.868a13 13 0 0 0-.472-4.512q-1.133-3.988-4.527-5.988t-7.26-.902a12.5 12.5 0 0 0-4.025 1.95q-1.78 1.314-2.763 3.074l10.994 1.728z"/></svg>
