<svg xmlns="http://www.w3.org/2000/svg" viewBox="0 0 128 128"><circle cx="64" cy="64" r="64" fill="#fed18c"/><path fill="#fff" fill-rule="evenodd" d="M63.744 9.531c.241.12.475.259.707.394 6.257 3.62 12.526 7.225 18.78 10.85.044 8.235.066 16.488.1 24.725.005 6.041.007 12.085.022 18.126-.022.128.039.422-.116.475-6.44 3.663-12.93 7.341-19.363 11.007q9.55 5.526 19.111 11.033c.123.094.332.163.3.352l.026 22.526c-6.516 3.715-13.044 7.418-19.569 11.12-6.4-3.675-12.788-7.389-19.19-11.066-.11-.085-.313-.149-.286-.32-.035-7.339-.018-14.665-.041-22.003.016-.177-.031-.421.065-.576.32-.234.691-.4 1.031-.604 6.12-3.485 12.26-6.951 18.372-10.447-.554-.352-1.13-.663-1.695-.994L44.306 63.916c-.043-8.8-.011-17.615-.052-26.416-.035-5.637-.033-11.277-.073-16.915.34-.216.693-.414 1.045-.61l17.493-9.877c.34-.19.675-.397 1.025-.567m.023 73.729c-3.964 2.227-7.927 4.505-11.89 6.741q-.282.163-.553.343c.023 4.755.006 9.532.027 14.287-.03.186.18.255.3.347 4.045 2.318 8.074 4.671 12.123 6.985 3.868-2.192 7.733-4.394 11.601-6.588.264-.153.548-.286.791-.467a.6.6 0 0 0 .048-.279c-.012-4.683-.01-9.508-.022-14.206-3.663-2.128-7.338-4.239-11.007-6.359-.356-.198-.701-.416-1.057-.614zM51.375 47.325c-.017 3.85.024 7.7.01 11.55q-.002.474.015.95c3.816 2.187 7.621 4.396 11.433 6.593.316.176.621.388.954.534q.15-.037.29-.12c3.972-2.267 8.058-4.579 12.043-6.846.167-.067.119-.34.136-.485-.036-4.02-.002-8.044-.024-12.064-4.162 2.333-8.307 4.698-12.471 7.03-4.131-2.375-8.252-4.772-12.386-7.142m12.356-29.62c-.35.147-.665.343-.992.53l-11.434 6.457c.004 4.805.028 9.614.051 14.42 4.136 2.4 8.289 4.773 12.417 7.18.397-.182.77-.404 1.147-.622 3.76-2.12 7.518-4.25 11.28-6.366.005-4.808-.027-9.62-.047-14.426-4.129-2.388-8.29-4.788-12.423-7.173"/></svg>
