<svg xmlns="http://www.w3.org/2000/svg" viewBox="0 0 192 128"><path fill="#FED955" d="M21.325 42.675H32V53.35H21.325zm0 21.325H32v10.675H21.325z"/><path fill="#FED955" d="M21.325 53.325H32V64H21.325zm0 21.35H32V85.35H21.325zM64 21.325h10.675V32H64zM64 96h10.675v10.675H64zm10.675-74.675H85.35V32H74.675z"/><path fill="#9695F8" d="M85.325 21.325H96V32H85.325zm-53.325 0h10.675V32H32zm64 64h10.675V96H96zm-74.675 0H32V96H21.325z"/><path fill="#9695F8" d="M74.675 10.675H85.35V21.35H74.675z"/><path fill="#5552FD" d="M74.675 0H85.35v10.675H74.675zm0 117.325H85.35V128H74.675z"/><path fill="#9695F8" d="M74.675 106.675H85.35v10.675H74.675zm-21.35-96H64V21.35H53.325z"/><path fill="#5552FD" d="M53.325 0H64v10.675H53.325zm0 117.325H64V128H53.325z"/><path fill="#9695F8" d="M53.325 106.675H64v10.675H53.325zm10.675-96h10.675V21.35H64z"/><path fill="#5552FD" d="M64 0h10.675v10.675H64zm0 117.325h10.675V128H64z"/><path fill="#9695F8" d="M64 106.675h10.675v10.675H64zm-21.325-96H53.35V21.35H42.675z"/><path fill="#5552FD" d="M42.675 0H53.35v10.675H42.675zm0 117.325H53.35V128H42.675z"/><path fill="#9695F8" d="M42.675 106.675H53.35v10.675H42.675zM96 32h10.675v10.675H96zm-74.675 0H32v10.675H21.325zm64 64H96v10.675H85.325zM32 96h10.675v10.675H32zm74.675-53.325h10.675V53.35h-10.675zm-96 0H21.35V53.35H10.675z"/><path fill="#5552FD" d="M0 42.675h10.675V53.35H0zM10.675 32H21.35v10.675H10.675zm96 0h10.675v10.675h-10.675zm-21.35 74.675H96v10.675H85.325zm-74.65-21.35H21.35V96H10.675zm10.65-64H32V32H21.325zm74.675 0h10.675V32H96zM96 96h10.675v10.675H96zm-74.675 0H32v10.675H21.325zM32 10.675h10.675V21.35H32zm53.325 0H96V21.35H85.325zm21.35 74.65h10.675V96h-10.675zM32 106.675h10.675v10.675H32zm85.325-64H128V53.35h-10.675z"/><path fill="#9695F8" d="M106.675 53.325h10.675V64h-10.675zm-96 0H21.35V64H10.675z"/><path fill="#5552FD" d="M0 53.325h10.675V64H0zm117.325 0H128V64h-10.675z"/><path fill="#9695F8" d="M106.675 64h10.675v10.675h-10.675zm-96 0H21.35v10.675H10.675z"/><path fill="#5552FD" d="M0 64h10.675v10.675H0zm117.325 0H128v10.675h-10.675z"/><path fill="#9695F8" d="M106.675 74.675h10.675V85.35h-10.675zm-96 0H21.35V85.35H10.675z"/><path fill="#5552FD" d="M0 74.675h10.675V85.35H0zm117.325 0H128V85.35h-10.675z"/><path fill="#FED955" d="M74.675 96H85.35v10.675H74.675zM64 42.675h10.675V53.35H64zM64 64h10.675v10.675H64zm0 10.675h10.675V85.35H64zM64 32h10.675v10.675H64z"/><path fill="#FED955" d="M64 85.325h10.675V96H64zM42.675 64H53.35v10.675H42.675zm0-10.675H53.35V64H42.675zm0 21.35H53.35V85.35H42.675zm0-42.675H53.35v10.675H42.675z"/><path fill="#FED955" d="M42.675 85.325H53.35V96H42.675zm32-21.325H85.35v10.675H74.675zm0-10.675H85.35V64H74.675zm0 21.35H85.35V85.35H74.675zm0-42.675H85.35v10.675H74.675z"/><path fill="#FED955" d="M74.675 85.325H85.35V96H74.675zm-21.35-64H64V32H53.325zm0 74.675H64v10.675H53.325z"/><path fill="#FED955" d="M42.675 21.325H53.35V32H42.675zm0 74.675H53.35v10.675H42.675zm10.65-53.325H64V53.35H53.325zm0 21.325H64v10.675H53.325z"/><path fill="#5552FD" d="M42.675 42.675H53.35V53.35H42.675zM64 53.325h10.675V64H64zm21.325-10.65H96V53.35H85.325zm0 21.325H96v10.675H85.325z"/><path fill="#5552FD" d="M85.325 53.325H96V64H85.325zm0 21.35H96V85.35H85.325zm0-42.675H96v10.675H85.325z"/><path fill="#5552FD" d="M85.325 85.325H96V96H85.325zM32 42.675h10.675V53.35H32zM32 64h10.675v10.675H32z"/><path fill="#5552FD" d="M32 53.325h10.675V64H32zm0 21.35h10.675V85.35H32zM32 32h10.675v10.675H32z"/><path fill="#5552FD" d="M32 85.325h10.675V96H32zm42.675-42.65H85.35V53.35H74.675zm-21.35 10.65H64V64H53.325z"/><path fill="#FED955" d="M53.325 74.675H64V85.35H53.325zm0-42.675H64v10.675H53.325z"/><path fill="#FED955" d="M53.325 85.325H64V96H53.325zM96 42.675h10.675V53.35H96zM96 64h10.675v10.675H96z"/><path fill="#FED955" d="M96 53.325h10.675V64H96zm0 21.35h10.675V85.35H96z"/><circle cx="64" cy="64" r="64" fill="#FEF3C7" transform="translate(64)"/><path fill="#D97706" d="M109.734 93.88h-9.816a9.7 9.7 0 0 1-4.676-1.152 9.14 9.14 0 0 1-3.426-3.196l-5.232-8.524a7.4 7.4 0 0 1-1.25-4.178c0-1.534.416-2.856 1.25-4.134l5.324-8.654-5.324-8.61a7.54 7.54 0 0 1-1.25-4.176c0-1.492.416-2.9 1.25-4.178l5.232-8.524a8.8 8.8 0 0 1 3.426-3.198 9.8 9.8 0 0 1 4.676-1.192h9.816l5.186-8.44a8.8 8.8 0 0 1 3.426-3.196 9.8 9.8 0 0 1 4.676-1.194h9.956c1.712 0 3.24.384 4.676 1.194a9.14 9.14 0 0 1 3.426 3.196l5.232 8.44h9.816c1.714 0 3.24.382 4.676 1.192a9.14 9.14 0 0 1 3.426 3.198l5.186 8.524c.834 1.28 1.25 2.644 1.25 4.178s-.416 2.898-1.25 4.176l-5.324 8.61 5.324 8.654c.834 1.28 1.25 2.642 1.25 4.134a7.53 7.53 0 0 1-1.25 4.178l-5.186 8.524a8.8 8.8 0 0 1-3.426 3.196 9.8 9.8 0 0 1-4.676 1.152h-9.816l-5.232 8.44a8.8 8.8 0 0 1-3.426 3.196 9.8 9.8 0 0 1-4.676 1.15h-9.958a9.7 9.7 0 0 1-4.676-1.15 9.14 9.14 0 0 1-3.426-3.196zm36.578-34.1h9.954l5.094-8.524-5.094-8.526h-9.954l-5.232 8.526zm-23.15 12.788h9.722l5.186-8.526-5.186-8.524h-9.722l-5.186 8.524zm0-25.574h9.722l5.326-8.654-5.186-8.396h-9.956l-5.184 8.396 5.324 8.654zm-8.196 4.26-5.186-8.524h-9.816l-5.186 8.526 5.186 8.524h9.816zm0 25.576-5.186-8.524h-9.954l-5.094 8.524 5.186 8.524h9.816l5.186-8.524zm8.196 4.262-5.326 8.61 5.186 8.44h9.956l5.186-8.44-5.326-8.61h-9.722zm23.15 4.262h9.816l5.186-8.524-5.186-8.524h-9.816l-5.232 8.524z"/></svg>
