<svg xmlns="http://www.w3.org/2000/svg" viewBox="0 0 128 128"><path fill="#fff" stroke="url(#a)" stroke-width="7" d="M64 124.5c33.413 0 60.5-27.087 60.5-60.5S97.413 3.5 64 3.5 3.5 30.587 3.5 64s27.087 60.5 60.5 60.5Z"/><path fill="url(#b)" d="M64 116c28.719 0 52-23.281 52-52S92.719 12 64 12 12 35.281 12 64s23.281 52 52 52"/><path d="M65.214 94.686a15.5 15.5 0 0 1-2.168-2.825c-1.549-2.368-4.144-7.927-4.15-14.04-5.478 3.107-11.796 3.713-14.702 3.59a16.3 16.3 0 0 1-3.263-.335q1.826 8.649 9.158 12.625 7.116 3.86 15.125.985m19.66-25.32a16.54 16.54 0 0 0 3.246-6.57q1.02-4.14.04-8.317l5.792-1.596a3.4 3.4 0 0 0 1.23-.578c.366-.272.67-.614.894-1.005s.362-.822.408-1.266a3.2 3.2 0 0 0-.143-1.32 3.2 3.2 0 0 0-.591-1.198 3.3 3.3 0 0 0-1.03-.871 3.45 3.45 0 0 0-2.665-.258l-6.46 1.783q-3.221-4.026-6.636-5.833-3.416-1.805-7.884-1.86l-1.896-6.499a3.2 3.2 0 0 0-.593-1.196 3.35 3.35 0 0 0-1.032-.87 3.45 3.45 0 0 0-2.664-.257 3.4 3.4 0 0 0-1.23.575c-.366.271-.67.612-.895 1.002a3.2 3.2 0 0 0-.268 2.59l1.641 5.63c-2.75.91-5.23 2.459-7.225 4.51a18 18 0 0 0-3.786 5.663l19.328 2.317zM44.137 53.658c-3.364.013-6.586 1.324-8.956 3.645-2.37 2.322-3.695 5.463-3.682 8.734s1.362 6.403 3.75 8.707 5.62 3.59 8.984 3.578h.073c2.952.136 10.13-.656 15.241-4.674L69.695 56.72zm18.124 21.598 9.972-16.633 15.578 19.423a12.03 12.03 0 0 1 1.226 9.364c-.884 3.156-3.022 5.84-5.944 7.464a13 13 0 0 1-9.632 1.192c-3.247-.86-6.009-2.938-7.68-5.778l-.036-.065c-1.578-2.39-4.414-8.719-3.484-14.967"/><defs><linearGradient id="a" x1="128" x2="0" y1="64" y2="64" gradientUnits="userSpaceOnUse"><stop stop-color="#29B8ED"/><stop offset="1" stop-color="#2DF6A7"/></linearGradient><linearGradient id="b" x1="116" x2="12" y1="64" y2="64" gradientUnits="userSpaceOnUse"><stop stop-color="#29B8ED"/><stop offset="1" stop-color="#2DF6A7"/></linearGradient></defs></svg>
