<svg xmlns="http://www.w3.org/2000/svg" viewBox="0 0 192 128"><path fill="#fff" stroke="url(#a)" stroke-width="7" d="M64 124.5c33.413 0 60.5-27.087 60.5-60.5S97.413 3.5 64 3.5 3.5 30.587 3.5 64s27.087 60.5 60.5 60.5Z"/><path fill="url(#b)" d="M64 116c28.719 0 52-23.281 52-52S92.719 12 64 12 12 35.281 12 64s23.281 52 52 52"/><path d="M65.214 94.686a15.5 15.5 0 0 1-2.168-2.825c-1.549-2.368-4.144-7.927-4.15-14.04-5.478 3.107-11.796 3.713-14.702 3.59a16.3 16.3 0 0 1-3.263-.335q1.826 8.649 9.158 12.625 7.116 3.86 15.125.985m19.66-25.32a16.54 16.54 0 0 0 3.246-6.57q1.02-4.14.04-8.317l5.792-1.596a3.4 3.4 0 0 0 1.23-.578c.366-.272.67-.614.894-1.005s.362-.822.408-1.266a3.2 3.2 0 0 0-.143-1.32 3.2 3.2 0 0 0-.591-1.198 3.3 3.3 0 0 0-1.03-.871 3.45 3.45 0 0 0-2.665-.258l-6.46 1.783q-3.221-4.026-6.636-5.833-3.416-1.805-7.884-1.86l-1.896-6.499a3.2 3.2 0 0 0-.593-1.196 3.35 3.35 0 0 0-1.032-.87 3.45 3.45 0 0 0-2.664-.257 3.4 3.4 0 0 0-1.23.575c-.366.271-.67.612-.895 1.002a3.2 3.2 0 0 0-.268 2.59l1.641 5.63c-2.75.91-5.23 2.459-7.225 4.51a18 18 0 0 0-3.786 5.663l19.328 2.317zM44.137 53.658c-3.364.013-6.586 1.324-8.956 3.645-2.37 2.322-3.695 5.463-3.682 8.734s1.362 6.403 3.75 8.707 5.62 3.59 8.984 3.578h.073c2.952.136 10.13-.656 15.241-4.674L69.695 56.72zm18.124 21.598 9.972-16.633 15.578 19.423a12.03 12.03 0 0 1 1.226 9.364c-.884 3.156-3.022 5.84-5.944 7.464a13 13 0 0 1-9.632 1.192c-3.247-.86-6.009-2.938-7.68-5.778l-.036-.065c-1.578-2.39-4.414-8.719-3.484-14.967"/><defs><linearGradient id="a" x1="128" x2="0" y1="64" y2="64" gradientUnits="userSpaceOnUse"><stop stop-color="#29b8ed"/><stop offset="1" stop-color="#2df6a7"/></linearGradient><linearGradient id="b" x1="116" x2="12" y1="64" y2="64" gradientUnits="userSpaceOnUse"><stop stop-color="#29b8ed"/><stop offset="1" stop-color="#2df6a7"/></linearGradient></defs><path fill="#100d0a" d="M162.107 18.676q1.062.9 2.107 1.822l1.144.979c12.215 10.663 18.383 24.952 19.484 41 .374 16.01-5.748 30.345-16.584 41.889-3.822 3.828-7.993 6.864-12.7 9.513l-1.47.838c-13.317 7.134-29.415 7.915-43.741 3.587-6.754-2.37-13.064-5.755-18.56-10.347l-1.358-1.131c-11.115-9.72-17.654-23.19-19.027-37.844q-.07-1.237-.114-2.477l-.085-2.105c.242-15.217 5.802-28.65 16.028-39.801l1.51-1.68c20.029-17.995 51.502-21.345 73.365-4.243"/><path fill="#fefdfd" d="M162.107 18.676q1.062.9 2.107 1.822l1.144.979c12.215 10.663 18.383 24.952 19.484 41 .374 16.01-5.748 30.345-16.584 41.889-3.822 3.828-7.993 6.864-12.7 9.513l-1.47.838c-13.317 7.134-29.415 7.915-43.741 3.587-6.754-2.37-13.064-5.755-18.56-10.347l-1.358-1.131c-11.115-9.72-17.654-23.19-19.027-37.844q-.07-1.237-.114-2.477l-.085-2.105c.242-15.217 5.802-28.65 16.028-39.801l1.51-1.68c20.029-17.995 51.502-21.345 73.365-4.243m-69.65 13.269c-9.511 11.06-12.577 23.003-12.057 37.293.462 3.932 1.317 7.686 2.733 11.388l.464 1.253c2.219 5.7 5.516 10.58 9.557 15.146l.845.961c7.913 8.436 19.79 13.517 31.24 14.224 14.485.102 26.691-4.586 37.153-14.559 9.648-9.935 13.388-22.277 13.305-35.866-.418-13.387-6.356-23.998-15.753-33.24-9.374-8.739-21.895-12.425-34.48-12.287-12.702.661-24.252 6.576-33.007 15.687"/><path fill="#fcfcfc" d="M138.819 44.498c4.814 4.014 7.49 8.412 8.085 14.72.396 6.726-.359 12.749-4.555 18.22-3.383 3.753-7.721 6.136-12.797 6.47-6.005.082-11.162-.728-15.9-4.648-5.582-5.79-6.168-12.23-6.092-19.993.328-5.402 2.248-9.45 6.091-13.26 6.976-5.667 17.6-6.754 25.167-1.509"/><path fill="#9e3f07" d="M143.715 74.705c6.3 8.4 6.969 21.688 6.833 31.886-13.246 5.957-26.26 7.349-40.085 2.277l.653-1.19c4.272-7.887 7.8-15.837 10.734-24.319l1.833.048c6.367.098 11.183-.239 16.388-4.147 1.404-1.371 2.759-2.785 3.644-4.555"/><path fill="#963908" d="M104.54 51.018c.496 13.486-6.81 27.176-14.576 37.808a38 38 0 0 1-1.822 1.822c-8.301-14.166-8.301-14.166-6.832-20.043 1.824-1.972 3.778-3.707 5.815-5.459 1.219-1.1 2.368-2.256 3.523-3.424a83 83 0 0 1 5.215-4.859c1.583-1.414 3.05-2.943 4.532-4.46 1.556-1.51 1.797-1.385 4.146-1.385"/><path fill="#9f4108" d="M129.594 51.018c3.028 1.47 5.18 3.28 6.52 6.406.748 4.285.584 8.23-1.053 12.27-1.493 2.076-2.576 3.343-5.011 4.1-2.562.346-5.2.6-7.555-.602-2.523-2.091-3.503-4.454-4.289-7.598-.28-4.333-.179-7.993 2.164-11.757 2.767-2.69 5.469-3.44 9.224-2.82"/><path fill="#fcbd01" d="M143.715 74.705c6.3 8.4 6.969 21.688 6.833 31.886-10.516 4.73-10.516 4.73-15.032 4.555.296-1.775.843-3.314 1.51-4.982 2.865-8.02 3.293-16.273 3.554-24.723.412-3.168.97-4.455 3.135-6.736"/><path fill="#c36104" d="M120.484 87.915c3.859 5.788 3.839 16.779 3.644 23.686h9.11v.456c-8.172.191-15.109-.376-22.775-3.189l.653-1.19c3.476-6.418 6.672-12.977 9.368-19.763"/><path fill="#13100c" d="M129.594 51.018c2.529 1.228 4.429 2.612 5.922 5.01.31 1.545.391 2.972.456 4.556l-.937-.618c-4.868-3.447-4.868-3.447-10.451-4.849l.016 3.755.012 4.843.016 4.837c-.044 3.875-.044 3.875-.5 4.786-2.428-.642-3.568-2.111-5.01-4.1-1.44-3.732-1.516-8.49-.342-12.327 2.112-4.754 5.666-6.746 10.818-5.893"/><path fill="#ad4d04" d="M161.025 72.883c2.277.152 3.82 1.363 5.666 2.619l1.762 1.189a62 62 0 0 1 4.415 3.48c-1.043 3.62-2.708 6.746-4.555 10.021-5.36-4.192-6.314-9.212-7.607-15.726l-.137-1.128z"/><path fill="#095698" d="M163.303 84.726c1.633 1.633 3.104 3.228 4.555 5.01-.701 2.23-1.351 2.718-3.189 4.556z"/></svg>
