<svg xmlns="http://www.w3.org/2000/svg" fill="none" viewBox="0 0 128 128"><path fill="#100D0A" d="M98.107 18.676q1.062.9 2.107 1.822l1.144.979c12.215 10.663 18.383 24.952 19.484 41 .374 16.01-5.748 30.345-16.584 41.889-3.822 3.828-7.993 6.864-12.7 9.513l-1.47.838c-13.317 7.134-29.415 7.915-43.741 3.587-6.754-2.37-13.064-5.755-18.56-10.347l-1.358-1.131c-11.115-9.72-17.654-23.19-19.027-37.844q-.07-1.237-.114-2.477L7.203 64.4c.242-15.217 5.802-28.65 16.028-39.801l1.51-1.68C44.77 4.924 76.243 1.574 98.106 18.676"/><path fill="#FEFDFD" d="M98.107 18.676q1.062.9 2.107 1.822l1.144.979c12.215 10.663 18.383 24.952 19.484 41 .374 16.01-5.748 30.345-16.584 41.889-3.822 3.828-7.993 6.864-12.7 9.513l-1.47.838c-13.317 7.134-29.415 7.915-43.741 3.587-6.754-2.37-13.064-5.755-18.56-10.347l-1.358-1.131c-11.115-9.72-17.654-23.19-19.027-37.844q-.07-1.237-.114-2.477L7.203 64.4c.242-15.217 5.802-28.65 16.028-39.801l1.51-1.68C44.77 4.924 76.243 1.574 98.106 18.676m-69.65 13.269c-9.511 11.06-12.577 23.003-12.057 37.293.462 3.932 1.317 7.686 2.733 11.388l.464 1.253c2.219 5.7 5.516 10.58 9.557 15.146l.845.961c7.913 8.436 19.79 13.517 31.24 14.224 14.485.102 26.691-4.586 37.153-14.559 9.648-9.935 13.388-22.277 13.305-35.866-.418-13.387-6.356-23.998-15.753-33.24-9.374-8.739-21.895-12.425-34.48-12.287-12.702.661-24.252 6.576-33.007 15.687"/><path fill="#FCFCFC" d="M74.819 44.498c4.814 4.014 7.49 8.412 8.085 14.72.396 6.726-.359 12.749-4.555 18.22-3.383 3.753-7.721 6.136-12.797 6.47-6.005.082-11.162-.728-15.9-4.648-5.582-5.79-6.168-12.23-6.092-19.993.328-5.402 2.248-9.45 6.091-13.26 6.976-5.667 17.6-6.754 25.167-1.509"/><path fill="#9E3F07" d="M79.715 74.705c6.3 8.4 6.969 21.688 6.833 31.886-13.246 5.957-26.26 7.349-40.085 2.277l.653-1.19c4.272-7.887 7.8-15.837 10.734-24.319l1.833.048c6.367.098 11.183-.239 16.388-4.147 1.404-1.371 2.759-2.785 3.644-4.555"/><path fill="#963908" d="M40.54 51.018c.496 13.486-6.81 27.176-14.576 37.808a38 38 0 0 1-1.822 1.822c-8.301-14.166-8.301-14.166-6.832-20.043 1.824-1.972 3.778-3.707 5.815-5.459 1.219-1.1 2.368-2.256 3.523-3.424a83 83 0 0 1 5.215-4.859c1.583-1.414 3.05-2.943 4.532-4.46 1.556-1.51 1.797-1.385 4.146-1.385"/><path fill="#9F4108" d="M65.594 51.018c3.028 1.47 5.18 3.28 6.52 6.406.748 4.285.584 8.23-1.053 12.27-1.493 2.076-2.576 3.343-5.011 4.1-2.562.346-5.2.6-7.555-.602-2.523-2.091-3.503-4.454-4.289-7.598-.28-4.333-.179-7.993 2.164-11.757 2.767-2.69 5.469-3.44 9.224-2.82"/><path fill="#FCBD01" d="M79.715 74.705c6.3 8.4 6.969 21.688 6.833 31.886-10.516 4.73-10.516 4.73-15.032 4.555.296-1.775.843-3.314 1.51-4.982 2.865-8.02 3.293-16.273 3.554-24.723.412-3.168.97-4.455 3.135-6.736"/><path fill="#C36104" d="M56.484 87.915c3.859 5.788 3.839 16.779 3.644 23.686h9.11v.456c-8.172.191-15.109-.376-22.775-3.189l.653-1.19c3.476-6.418 6.672-12.977 9.368-19.763"/><path fill="#13100C" d="M65.594 51.018c2.529 1.228 4.429 2.612 5.922 5.01.31 1.545.391 2.972.456 4.556l-.937-.618c-4.868-3.447-4.868-3.447-10.451-4.849l.016 3.755.012 4.843.016 4.837c-.044 3.875-.044 3.875-.5 4.786-2.428-.642-3.568-2.111-5.01-4.1-1.44-3.732-1.516-8.49-.342-12.327 2.112-4.754 5.666-6.746 10.818-5.893"/><path fill="#AD4D04" d="M97.025 72.883c2.277.152 3.82 1.363 5.666 2.619l1.762 1.189a62 62 0 0 1 4.415 3.48c-1.043 3.62-2.708 6.746-4.555 10.021-5.36-4.192-6.314-9.212-7.607-15.726l-.137-1.128z"/><path fill="#095698" d="M99.303 84.726c1.633 1.633 3.104 3.228 4.555 5.01-.701 2.23-1.351 2.718-3.189 4.556z"/></svg>