<svg xmlns="http://www.w3.org/2000/svg" viewBox="0 0 128 128"><path fill="#333" d="M6 89.942 44.21 128h40.58L123 89.942V49.52L84.79 11.463H44.21L6 49.52z"/><path fill="#203820" d="M37.551 0 26.935 10.573v10.276H16.617L6 31.424V55.68l20.935-20.851v.001L40.97 20.85 61.902 0zM67.1.254l20.935 20.851h-.004L123 55.935V31.68l-10.615-10.575h-10.317V10.83L91.449.254z"/><path fill="#dae2da" d="m45.802 16.29-8.093 8.06H91.29l-8.093-8.06zM33.336 28.706 23.057 38.945v29.188l8.093 8.06v-33.91l5.539-5.516H92.31l5.539 5.517v33.91l8.093-8.061V38.945l-10.28-10.239zm76.98 14.594v53.37l8.092-8.061V51.36zm-91.631 0-8.093 8.061V88.61l8.092 8.06zm14.65 10.24 8.093 8.06h8.745l8.093-8.06zm27.118 0v20.477h8.092V53.54zm10.279 0 8.093 8.06h8.745l8.093-8.06zM31.15 78.37l-8.093 8.061v14.594l8.093 8.061zm19.768 0L35.522 93.707v19.736l8.094 8.061V97.045L54.27 86.432h20.46l10.654 10.613v24.458l8.093-8.061v-20.04l-14.965-15.03zm46.932 0v30.716l8.093-8.061V86.432zM56.081 90.789l-8.093 8.06v24.833h8.093zm4.373 0v32.893h8.092V90.788zm12.465 0v32.893h8.093V98.848z"/><path fill="#4fce0d" d="m39.44 4.544-7.942 7.911v11.4l19.388-19.31zM18.507 25.395l-7.943 7.911v11.4l19.388-19.31zM78.087 5.04l19.388 19.31v-11.4l-7.942-7.91zm20.934 20.85 19.387 19.311v-11.4l-7.942-7.91z"/></svg>
