<svg xmlns="http://www.w3.org/2000/svg" viewBox="0 0 192 128"><path fill="#333" d="M6 89.942 44.21 128h40.58L123 89.942V49.52L84.79 11.463H44.21L6 49.52z"/><path fill="#203820" d="M37.551 0 26.935 10.573v10.276H16.617L6 31.424V55.68l20.935-20.851v.001L40.97 20.85 61.902 0zM67.1.254l20.935 20.851h-.004L123 55.935V31.68l-10.615-10.575h-10.317V10.83L91.449.254z"/><path fill="#dae2da" d="m45.802 16.29-8.093 8.06H91.29l-8.093-8.06zM33.336 28.706 23.057 38.945v29.188l8.093 8.06v-33.91l5.539-5.516H92.31l5.539 5.517v33.91l8.093-8.061V38.945l-10.28-10.239zm76.98 14.594v53.37l8.092-8.061V51.36zm-91.631 0-8.093 8.061V88.61l8.092 8.06zm14.65 10.24 8.093 8.06h8.745l8.093-8.06zm27.118 0v20.477h8.092V53.54zm10.279 0 8.093 8.06h8.745l8.093-8.06zM31.15 78.37l-8.093 8.061v14.594l8.093 8.061zm19.768 0L35.522 93.707v19.736l8.094 8.061V97.045L54.27 86.432h20.46l10.654 10.613v24.458l8.093-8.061v-20.04l-14.965-15.03zm46.932 0v30.716l8.093-8.061V86.432zM56.081 90.789l-8.093 8.06v24.833h8.093zm4.373 0v32.893h8.092V90.788zm12.465 0v32.893h8.093V98.848z"/><path fill="#4fce0d" d="m39.44 4.544-7.942 7.911v11.4l19.388-19.31zM18.507 25.395l-7.943 7.911v11.4l19.388-19.31zM78.087 5.04l19.388 19.31v-11.4l-7.942-7.91zm20.934 20.85 19.387 19.311v-11.4l-7.942-7.91z"/><circle cx="64" cy="64" r="64" fill="#78350f" transform="translate(64)"/><circle cx="64" cy="64" r="58" fill="#fff" transform="translate(64)"/><path fill="#78350f" d="M111.52 41.136a10 10 0 0 0-3.486-1.37 9.2 9.2 0 0 0-3.668.042 9 9 0 0 0-3.288 1.442 8.6 8.6 0 0 0-2.414 2.634 9 9 0 0 0-1.168 3.424 9.4 9.4 0 0 0 .252 3.682c.538 2.012 3.024 2.396 4.732 1.172l4.352-3.112 4.364-3.12c1.706-1.226 2.104-3.674.324-4.794m46.014 2.748a8.66 8.66 0 0 0-5.702-4.076 9.2 9.2 0 0 0-3.668-.04 10 10 0 0 0-3.488 1.368c-1.78 1.12-1.38 3.568.326 4.792l4.364 3.122 4.352 3.112c1.708 1.224 4.194.84 4.732-1.172a9.4 9.4 0 0 0 .252-3.682 9 9 0 0 0-1.168-3.424M131.63 77.598a10.16 10.16 0 0 0-6.47 0c-1.16.394-2.172 1.006-2.108 1.928.116 1.412 2.36 3.828 3.982 4.326.992.3 1.614.28 2.72 0 1.622-.416 3.878-2.914 3.984-4.326.074-.922-.95-1.532-2.108-1.928m-11.118-4.544a7.2 7.2 0 0 0-2.128-1.888 6.8 6.8 0 0 0-2.666-.88 7 7 0 0 0-2.804.258c-.906.28-1.76.736-2.508 1.36a7.6 7.6 0 0 0-1.834 2.25c-.77 1.44.454 2.956 2.098 3.142l4.152.468 4.184.476c1.644.188 3.192-1.006 2.77-2.582a7.6 7.6 0 0 0-1.264-2.604m25.736-1.298a7.4 7.4 0 0 0-2.51-1.36 7 7 0 0 0-2.802-.258 6.8 6.8 0 0 0-2.666.882 7.2 7.2 0 0 0-2.13 1.888 7.5 7.5 0 0 0-1.264 2.604c-.42 1.576 1.128 2.77 2.76 2.582l4.186-.476 4.16-.468c1.646-.186 2.868-1.7 2.1-3.142a7.8 7.8 0 0 0-1.834-2.252"/><path fill="#78350f" d="M166.018 61.8a20.7 20.7 0 0 0 5.438-14.22 20.6 20.6 0 0 0-2.076-8.788c-3.732-7.718-13.174-13.744-22.838-11.732q-.59.13-1.168.302a11.6 11.6 0 0 0-3.92 2.08c-2.582 2.06-7.326 3.44-12.752 3.44h-.616c-5.424 0-10.168-1.384-12.75-3.444a11.6 11.6 0 0 0-3.922-2.078 16 16 0 0 0-1.168-.302c-9.662-2.012-19.104 4.014-22.836 11.732a20.6 20.6 0 0 0-2.076 8.786 20.72 20.72 0 0 0 5.44 14.222 1.46 1.46 0 0 1 .356 1.204c-2.328 13.1 1.108 23.88 8.18 31.554 7.428 8.06 18.324 12.076 28.894 12.294h.382c10.568-.218 21.466-4.232 28.894-12.292 7.072-7.676 10.508-18.454 8.18-31.556a1.45 1.45 0 0 1 .356-1.204zm-6.186-2.272a1.74 1.74 0 0 0-.6 1.764c5.49 22.872-8.62 36.224-24.83 39.086h-.01a38 38 0 0 1-4.732.54c-.094 0-.2.01-.294.01-.296.02-.6.02-.896.032h-.074l-.02-.002h-.054c-.296-.01-.6-.01-.896-.03-.094 0-.2-.012-.296-.012a38 38 0 0 1-4.73-.54h-.012c-16.208-2.86-30.32-16.212-24.828-39.086a1.74 1.74 0 0 0-.6-1.762 15 15 0 0 1-5.66-11.9 14.9 14.9 0 0 1 1.486-6.306c2.76-5.716 9.706-9.876 16.23-8.516.764.156 2.812.82 4.808 1.756.724.34 1.404.764 2.04 1.244 2.616 1.976 7.25 3.29 12.532 3.296 5.284-.004 9.92-1.32 12.534-3.294.636-.48 1.314-.904 2.04-1.244 1.994-.936 4.042-1.6 4.808-1.758 6.522-1.36 13.468 2.8 16.23 8.518a14.9 14.9 0 0 1 1.484 6.306 15 15 0 0 1-5.66 11.898"/></svg>
