<svg width="192" height="128" viewBox="0 0 192 128" fill="none" xmlns="http://www.w3.org/2000/svg">
<g clip-path="url(#clip0_24_71)">
<path d="M90.3804 75.9901C93.7208 80.4528 94.4211 85.3039 92.4812 90.5435C90.5412 95.783 86.6925 99.2198 80.9338 100.854C78.1801 101.635 75.3709 101.666 72.5062 100.946C69.6417 100.226 67.2937 98.8631 65.4623 96.858C58.8199 99.8253 52.5791 99.6798 46.7402 96.4222C40.901 93.1646 37.3925 87.8706 36.2139 80.5403C33.3079 79.832 30.8379 78.4363 28.8039 76.3536C26.77 74.2706 25.3031 71.6435 24.4032 68.4722C22.9585 63.3813 24.108 58.6139 27.8516 54.1702C31.5952 49.7264 35.9391 47.7946 40.8832 48.3755L49.568 49.428C50.5032 46.3672 52.1167 43.6323 54.4087 41.2234C56.7009 38.8144 59.4089 37.0768 62.5328 36.0101L60.6858 29.5005C60.378 28.4156 60.4779 27.4178 60.9862 26.5071C61.4939 25.5965 62.2906 24.9872 63.3755 24.6794C64.4602 24.3714 65.4582 24.4715 66.3688 24.9796C67.2795 25.4877 67.8887 26.2842 68.1965 27.3691L70.328 34.8798C73.6762 34.9219 76.6301 35.6391 79.1895 37.0318C81.7489 38.4246 84.2352 40.6724 86.6488 43.7746L93.9095 41.7144C94.9942 41.4064 95.992 41.5065 96.9028 42.0146C97.8135 42.523 98.4225 43.3191 98.7305 44.4042C99.0382 45.4889 98.9382 46.4867 98.4301 47.3974C97.9221 48.3082 97.1256 48.9173 96.0405 49.2251L89.5311 51.0726C90.2644 54.2912 90.2497 57.4964 89.4873 60.6887C88.7249 63.8807 87.2869 66.6783 85.1735 69.0816L90.3804 75.9901ZM60.1879 87.8045C59.5485 85.5511 59.1145 83.3071 58.8864 81.0725C58.6577 78.8379 58.6349 76.6125 58.8177 74.3967C57.159 75.859 55.2768 77.0921 53.172 78.0953C51.0668 79.0984 48.9059 79.8243 46.6888 80.2731C47.6123 83.5278 49.2792 85.8277 51.6901 87.1725C54.1006 88.5174 56.9332 88.728 60.1879 87.8045ZM45.0989 69.9033C47.7692 69.1456 50.0319 68.1427 51.8871 66.8949C53.7425 65.6469 56.0132 63.5598 58.6994 60.6332L41.9014 58.6372C39.1973 58.3224 37.1374 58.9295 35.7227 60.4579C34.3079 61.9865 33.9204 63.8776 34.5596 66.131C35.1754 68.3008 36.3347 69.6851 38.0375 70.2838C39.7405 70.8827 42.0942 70.7561 45.0989 69.9033ZM78.092 90.8395C80.1784 90.2474 81.6611 89.0376 82.5402 87.2099C83.4193 85.3824 83.3001 83.7706 82.1826 82.3744L70.5916 67.2681C69.7637 70.3886 69.2907 73.4086 69.1722 76.3274C69.0539 79.2467 69.3025 81.7914 69.9182 83.961C70.6998 86.7152 71.7775 88.6862 73.1516 89.8742C74.5261 91.0623 76.1728 91.384 78.092 90.8395ZM78.4679 60.7048C79.0658 59.6333 79.4193 58.3377 79.5295 56.819C79.6395 55.2997 79.4812 53.7893 79.0551 52.287C78.297 49.6163 76.7814 47.6119 74.5078 46.2732C72.2343 44.9346 69.8042 44.6324 67.2169 45.3663C65.7148 45.7926 64.3671 46.4456 63.174 47.3253C61.9809 48.205 61.0554 49.2338 60.398 50.4126L71.4409 52.1482L78.4679 60.7048Z" fill="white"/>
<g clip-path="url(#clip1_24_71)">
<path d="M0.000190384 89.9415L37.8826 128L78.1171 128L116 89.9415L116 49.5205L78.1171 11.4626L37.8826 11.4628L0 49.5205L0.000190384 89.9415Z" fill="#333333"/>
<path d="M31.2813 0L20.7557 10.5728V20.8494H10.526L0 31.4242V55.6789L20.7557 34.828V34.8291L34.6708 20.8495L55.4241 7.37172e-05L31.2813 0Z" fill="#203820"/>
<path d="M60.5776 0.25383L81.3333 21.1052H81.3299L115.998 55.9347V31.68L105.474 21.1052H95.2451V10.8286L84.7191 0.25383H60.5776Z" fill="#203820"/>
<path d="M39.4617 16.2898L31.4378 24.3508H84.5622L76.5383 16.2898H39.4617ZM27.1027 28.706L16.9113 38.9447V68.1325L24.9352 76.1935V42.2838L30.4265 36.7671H85.5736L91.0649 42.2838V76.1935L99.0888 68.1325V38.9447L88.8974 28.706H27.1027ZM103.424 43.2994V96.6704L111.448 88.6093V51.3605L103.424 43.2994ZM12.5762 43.3002L4.55225 51.3613V88.6095L12.5762 96.6705V43.3002ZM27.1027 53.5389L35.1266 61.6H43.7968L51.8202 53.5389H27.1027ZM53.9883 53.5389V74.0162H62.0117V53.5388L53.9883 53.5389ZM64.1793 53.5389L72.2032 61.6H80.8734L88.8974 53.5389H64.1793ZM24.9352 78.3714L16.9113 86.4325V101.026L24.9352 109.087V78.3714ZM44.5337 78.3714L29.2703 93.7056V113.442L37.2942 121.503V97.0447L47.8575 86.4324H68.1426L78.7059 97.0447V121.503L86.7298 113.442V93.4024L71.8919 78.3712L44.5337 78.3714ZM91.0649 78.3714V109.087L99.0888 101.026V86.4324L91.0649 78.3714ZM49.6532 90.7876L41.6293 98.8482V123.681H49.6532V90.7876ZM53.9883 90.7876V123.681H62.0117V90.7875L53.9883 90.7876ZM66.3469 90.7876V123.681H74.3708V98.8482L66.3469 90.7876Z" fill="#DAE2DA"/>
<path d="M33.1545 4.54442L25.2801 12.4552V23.8554L44.5021 4.54442H33.1545ZM12.3997 25.3953L4.52539 33.3061V44.7063L23.7473 25.3953H12.3997Z" fill="#4FCE0D"/>
<path d="M71.4707 5.03937L90.6931 24.3503V12.9506L82.8184 5.03937H71.4707ZM92.2255 25.8903L111.447 45.2012V33.8015L103.573 25.8903H92.2255Z" fill="#4FCE0D"/>
</g>
<path d="M128 128C163.346 128 192 99.3462 192 64C192 28.6538 163.346 0 128 0C92.6538 0 64 28.6538 64 64C64 99.3462 92.6538 128 128 128Z" fill="#78350F"/>
<path d="M128 122C160.033 122 186 96.0325 186 64C186 31.9675 160.033 6 128 6C95.9675 6 70 31.9675 70 64C70 96.0325 95.9675 122 128 122Z" fill="white"/>
<path d="M111.52 41.136C110.455 40.4638 109.272 39.999 108.034 39.766C106.821 39.5336 105.573 39.5479 104.366 39.808C103.184 40.0629 102.066 40.5534 101.078 41.25C100.098 41.9493 99.2753 42.8467 98.6639 43.884C98.0468 44.9345 97.6495 46.0994 97.4959 47.308C97.3358 48.5399 97.4214 49.7914 97.7479 50.99C98.2859 53.002 100.772 53.386 102.48 52.162L106.832 49.05L111.196 45.93C112.902 44.704 113.3 42.256 111.52 41.136ZM157.534 43.884C156.92 42.8447 156.096 41.9453 155.114 41.2433C154.132 40.5414 153.014 40.0525 151.832 39.808C150.624 39.5486 149.377 39.535 148.164 39.768C146.925 40.0002 145.742 40.4643 144.676 41.136C142.896 42.256 143.296 44.704 145.002 45.928L149.366 49.05L153.718 52.162C155.426 53.386 157.912 53.002 158.45 50.99C158.776 49.7914 158.862 48.5399 158.702 47.308C158.548 46.0994 158.151 44.9345 157.534 43.884ZM131.63 77.598C129.531 76.8929 127.259 76.8929 125.16 77.598C124 77.992 122.988 78.604 123.052 79.526C123.168 80.938 125.412 83.354 127.034 83.852C128.026 84.152 128.648 84.132 129.754 83.852C131.376 83.436 133.632 80.938 133.738 79.526C133.812 78.604 132.788 77.994 131.63 77.598ZM120.512 73.054C119.935 72.2894 119.212 71.6475 118.384 71.166C117.566 70.6904 116.658 70.3907 115.718 70.286C114.775 70.1812 113.821 70.2689 112.914 70.544C112.008 70.824 111.154 71.28 110.406 71.904C109.656 72.5292 109.033 73.2931 108.572 74.154C107.802 75.594 109.026 77.11 110.67 77.296L114.822 77.764L119.006 78.24C120.65 78.428 122.198 77.234 121.776 75.658C121.525 74.717 121.096 73.833 120.512 73.054ZM146.248 71.756C145.507 71.144 144.655 70.6821 143.738 70.396C142.831 70.1212 141.878 70.0334 140.936 70.138C139.996 70.2433 139.088 70.5437 138.27 71.02C137.441 71.5013 136.717 72.1432 136.14 72.908C135.553 73.6857 135.124 74.5701 134.876 75.512C134.456 77.088 136.004 78.282 137.636 78.094L141.822 77.618L145.982 77.15C147.628 76.964 148.85 75.45 148.082 74.008C147.617 73.1491 146.995 72.3852 146.248 71.756Z" fill="#78350F"/>
<path d="M166.018 61.8C169.571 57.9229 171.516 52.8387 171.456 47.58C171.423 44.5332 170.714 41.5317 169.38 38.792C165.648 31.074 156.206 25.048 146.542 27.06C146.149 27.1467 145.76 27.2473 145.374 27.362C143.946 27.7966 142.615 28.5029 141.454 29.442C138.872 31.502 134.128 32.882 128.702 32.882H128.086C122.662 32.882 117.918 31.498 115.336 29.438C114.175 28.4993 112.843 27.7938 111.414 27.36C111.029 27.2447 110.639 27.1439 110.246 27.058C100.584 25.046 91.1422 31.072 87.4102 38.79C86.0771 41.5291 85.3681 44.5299 85.3342 47.576C85.2768 52.8353 87.2216 57.9196 90.7742 61.798C90.9194 61.9596 91.0267 62.1515 91.0883 62.3598C91.1499 62.5681 91.1642 62.7875 91.1302 63.002C88.8022 76.102 92.2382 86.882 99.3102 94.556C106.738 102.616 117.634 106.632 128.204 106.85H128.586C139.154 106.632 150.052 102.618 157.48 94.558C164.552 86.882 167.988 76.104 165.66 63.002C165.626 62.7875 165.64 62.5679 165.701 62.3595C165.763 62.1511 165.87 61.9592 166.016 61.798L166.018 61.8ZM159.832 59.528C159.575 59.7349 159.382 60.0106 159.276 60.3229C159.17 60.6352 159.155 60.9713 159.232 61.292C164.722 84.164 150.612 97.516 134.402 100.378H134.392C132.828 100.657 131.247 100.837 129.66 100.918C129.566 100.918 129.46 100.928 129.366 100.928C129.07 100.948 128.766 100.948 128.47 100.96H128.396L128.376 100.958H128.322C128.026 100.948 127.722 100.948 127.426 100.928C127.332 100.928 127.226 100.916 127.13 100.916C125.544 100.835 123.964 100.655 122.4 100.376H122.388C106.18 97.516 92.0682 84.164 97.5602 61.29C97.6373 60.9696 97.6219 60.6339 97.5157 60.322C97.4094 60.0101 97.2168 59.7347 96.9602 59.528C95.1732 58.1062 93.7344 56.2951 92.7535 54.2328C91.7726 52.1705 91.2756 49.9115 91.3002 47.628C91.3271 45.4424 91.8344 43.2896 92.7862 41.322C95.5462 35.606 102.492 31.446 109.016 32.806C109.78 32.962 111.828 33.626 113.824 34.562C114.548 34.902 115.228 35.326 115.864 35.806C118.48 37.782 123.114 39.096 128.396 39.102C133.68 39.098 138.316 37.782 140.93 35.808C141.566 35.328 142.244 34.904 142.97 34.564C144.964 33.628 147.012 32.964 147.778 32.806C154.3 31.446 161.246 35.606 164.008 41.324C164.959 43.2917 165.466 45.4446 165.492 47.63C165.517 49.9132 165.019 52.1718 164.039 54.2337C163.058 56.2956 161.619 58.1064 159.832 59.528Z" fill="#78350F"/>
</g>
<defs>
<clipPath id="clip0_24_71">
<rect width="192" height="128" fill="white"/>
</clipPath>
<clipPath id="clip1_24_71">
<rect width="116" height="128" fill="white"/>
</clipPath>
</defs>
</svg>
