<svg xmlns="http://www.w3.org/2000/svg" viewBox="0 0 128 128"><circle cx="64" cy="64" r="64" fill="url(#_pollen)"/><path fill="#2f2502" d="M62.25 9.51a25.2 25.2 0 0 1 7.88.71c1.406.368 3.056 1.01 4.375 1.63 2.01 1.01 3.848 2.231 5.508 3.751a23.94 23.94 0 0 1 6.454 9.649c.123.42.532.29.84.183.618-.05 1.35-.083 1.943-.168.955-.006 2.075-.074 3 .058 1.007.035 1.54.088 2.506.267.195.063.414.09.619.087.373.12.791.257 1.194.256.175.198.409.043.56.177.475.2 1.016.314 1.496.512 5.421 1.93 10.061 5.865 12.825 10.923a22.5 22.5 0 0 1 2.267 5.84c.157.398.117.949.35 1.296.014.43.088 1.028.147 1.454.274 1.918.22 4.065-.003 5.99-.213 1.245-.503 2.964-.922 4.136a23.8 23.8 0 0 1-4.003 7.519c-.081.257-.597.52-.486.796 2.474 2.899 4.231 6.459 5.057 10.174.175.267.013.536.21.804.003.468.126.921.116 1.392.195.465.135 1.045.195 1.554.032 1.24.046 2.793-.089 4.01-.269 2.093-.719 4.159-1.523 6.115-2.127 5.49-6.416 10.12-11.711 12.683-1.978.978-4.136 1.661-6.305 2.063-.314.159-.719.018-1.052.198-.65.008-1.294.113-1.948.108-1.082-.01-2.17.032-3.25-.045-.328-.182-.847.024-1.179-.199-.326.05-.73-.136-1.013-.002-1.396 3.678-3.75 7.068-6.753 9.624A23.75 23.75 0 0 1 69 118.293c-.249.027-.414-.042-.625.121-.381-.034-.591.124-.957.144-.637.173-1.196.043-1.793.202q-1.687.07-3.375-.013c-.386-.163-.924.013-1.303-.189-.27-.023-.643.032-.876-.125-1.267-.095-2.612-.548-3.821-.926a26 26 0 0 1-3.555-1.574c-4.866-2.63-8.79-7.027-10.794-12.189-.174-.344-.234-.757-.45-1.068-2.688.436-5.387.465-8.076-.035-4.927-.819-9.617-3.32-13.056-6.96-2.916-2.955-4.986-6.787-5.975-10.806.006-.366-.198-.558-.15-.945-.15-.19-.11-.403-.126-.626-.264-.303-.064-.749-.26-1.108.008-.696-.15-1.446-.132-2.071-.032-.936-.032-2.081.075-3 .12-.246.044-.487.088-.75.02-.362.104-.706.093-1.07.088-.156.17-.241.14-.43.05-.346.1-.734.246-1.054.034-.54.233-1.08.385-1.599a23.8 23.8 0 0 1 4.263-7.997q.081-.145-.045-.27c-1.36-1.735-2.521-3.59-3.363-5.632-.535-1.28-1.003-2.602-1.273-3.957-.145-.24.024-.55-.228-.672-.01-.192.008-.38-.034-.57-.2-.3-.007-.723-.216-1.054-.01-.464-.01-1.004-.13-1.445a236 236 0 0 1 0-3.125c.116-.447.117-.977.13-1.445.22-.359.082-.76.26-1.109.007-.631.33-1.47.408-2.071A23.9 23.9 0 0 1 19.015 34a24.1 24.1 0 0 1 8.235-6.469c.175-.082.325-.05.46-.203.755-.354 1.518-.62 2.29-.912 1.784-.506 3.767-1.017 5.625-1.093 1.859-.195 3.377-.012 5.194.11.157.083.516.162.671.062.17-.215.205-.547.334-.79a23.94 23.94 0 0 1 7.051-9.815c2.954-2.427 6.5-4.18 10.25-4.934.182.007.285-.04.43-.149.474.015.917-.133 1.391-.114.398-.19.912-.042 1.304-.184m18.741 80.388c-.176-.07-.363.06-.56.036-.2.143-.422.077-.612.26-.734.051-1.47.382-2.194.543-.534.135-1.094.313-1.615.428-.24.145-.684.035-.818.278-.942.084-1.882.487-2.817.692-.486.15-1 .269-1.49.405-.252.102-.592.108-.818.278-.67.06-1.406.295-2.05.479-1.862.53-3.739.995-5.608 1.505-.274.104-.797.115-.903.449-.064.274.154.388.316.554 2.872 2.285 6.117 4.283 9.46 5.773.37.178.807.279 1.148.49.44-.008.785.114 1.215-.018.672-.155 1.11-.744 1.55-1.23a43.7 43.7 0 0 0 5.59-10.194c.06-.205.293-.525.206-.728M66.5 73.376c-.71-.146-1.068.293-1.448.8a24.36 24.36 0 0 1-10.456 8.53c-.67.286-1.388.537-2.041.853-.473.217-.79.77-.633 1.286.178.452.5.782.797 1.177 1.226 1.545 2.495 3.117 3.702 4.683.257.275.593.33.954.263 6.841-1.847 13.659-3.671 20.5-5.503a114 114 0 0 0 4-1.068 1.36 1.36 0 0 0 .942-.576c.366-2.038.681-4.378 1.007-6.445.021-.416.17-1.01-.103-1.364-.161-.289-.506-.527-.846-.522-1.159.002-2.171.377-3.375.386-1.099.15-2.44.063-3.57.067-.195-.104-.462-.054-.68-.084-1.161-.14-2.581-.377-3.711-.663-.539-.207-1.204-.292-1.798-.535-1.11-.335-2.162-.881-3.241-1.285M43.625 59.092c-.369.002-.69.34-1 .512a7890 7890 0 0 0-13.716 9.56c-.423.302-.9.606-1.233 1.011-.337.443-.668 1.005-.66 1.575-.053.66.334 1.252.777 1.709.672.645 1.446 1.036 2.201 1.563 2.075 1.301 4.118 2.699 6.42 3.553.735.24 1.386.503 2.161.606.415.217.77.077 1.175.267 1.278.007 2.542.008 3.82-.005.237-.17.646-.097.93-.12.471-.154 1.065-.214 1.57-.256.174-.11.424-.1.624-.124.32-.159.705-.198 1.056-.245.273-.08.585-.225.875-.25.612-.277 1.297-.45 1.944-.63.26-.225.541-.18.806-.355 1.225-.56 2.486-1.114 3.625-1.84.346-.08.574-.473.944-.556a.48.48 0 0 1 .306-.218c2.115-1.442 4.089-3.138 5.799-5.05.126-.163.317-.425.156-.624-2.208.04-4.368-.019-6.508-.617a16.1 16.1 0 0 1-6.047-2.967 18.8 18.8 0 0 1-3.866-4.236c-.389-.56-.728-1.186-1.123-1.75-.247-.336-.605-.562-1.036-.512m36.5-9.29c-.639.03-1.324-.16-1.944.005-.37.232-.587.502-.65.943-.08.884.016 2-.156 2.875-.323 3.187-1.441 6.281-3.446 8.804-1.75 2.282-4.218 4.058-6.75 5.378-.213.268.195.416.376.51a31.7 31.7 0 0 0 5.945 1.306c.469.17 1.076.02 1.554.194a72 72 0 0 0 3.821.005c.444-.116.98-.104 1.445-.13.29-.136.684-.106 1-.124.22-.14.551-.148.805-.203 3.127-.557 6.326-1.8 9-3.52 1.066-.674 1.93-1.516 2.781-2.445 1.313-1.523 2.298-3.252 3.224-5.025.359-.573.581-1.216.937-1.806.467-.939 1.142-1.982 1.11-3.07.008-.668-.364-1.279-.904-1.654-.153-.182-.339-.074-.453-.288-.173-.049-.331-.115-.514-.115-.14-.273-.616-.067-.86-.26-.845.025-1.672-.125-2.516-.115-.647-.252-1.434-.072-2.109-.26-1.302-.026-2.493-.207-3.571-.234-.466-.115-1.014-.114-1.5-.127-.461-.124-1.016-.119-1.5-.124-.601-.151-1.37-.165-2-.215-.49-.127-1.06-.025-1.55-.175-.516-.013-1.074-.027-1.575-.13M70.054 26.694c-2.011-.53-4.334.11-5.929 1.422-.977.753-1.717 1.864-2.157 3.004-.215.515-.255 1.005-.415 1.506-.023.754-.213 1.568-.322 2.25a587 587 0 0 0-.61 3.5 1.1 1.1 0 0 1-.615.778c-.13.093-.304.045-.437.165-1.522-.013-2.811.29-4.194.9-.675.2-1.234.87-1.942.6-.988-1.164-2.074-2.54-3.05-3.693-.658-.803-1.32-1.603-2.083-2.303a7.15 7.15 0 0 0-3.416-1.608c-.861-.122-1.383-.055-2.204-.032-.337.246-.811.116-1.18.337-2.619.942-4.625 3.415-4.746 6.23-.08 1.3.188 2.572.71 3.75.295.729.967 1.159 1.712 1.32 1.178.257 2.388-.46 2.814-1.57.22-.518.195-1.22.02-1.75-.086-.405-.265-.828-.262-1.25-.043-.731.398-1.481 1.038-1.83.134-.09.28-.122.397-.237.501-.005 1.01-.125 1.46.155.433.17.742.652 1.05.97.335.453.782.854 1.079 1.318.986 1.103 2.086 2.489 3.064 3.659.104.119.193.22.084.373-1.674 2.593-2.485 5.648-2.041 8.718.197 1.237.524 2.525 1.082 3.65 1.013 2.176 2.723 4.118 4.789 5.342 1.354.832 2.932 1.378 4.5 1.626.179.085.3.09.5.08 1.612.116 3.214.07 4.762-.407 2.022-.545 3.939-1.622 5.409-3.12.313-.186.447-.542.73-.776 1.415-1.755 2.407-3.773 2.769-6.006.07-.185.013-.39.148-.569q.025-1.32 0-2.64c-.23-.367-.07-.749-.26-1.109-.143-1.174-.575-2.344-1.113-3.393-.925-1.927-2.519-3.547-4.285-4.721-.443-.32-1.15-.573-1.373-1.09-.14-.462-.015-1.028.08-1.492.154-1.214.525-2.487.566-3.694.157-.18.104-.406.124-.626.154-.218.109-.498.126-.748.136-.183.112-.466.198-.682.279-1.197 1.68-1.84 2.78-1.297.712.293 1.08.95 1.242 1.672.172.902.575 1.732 1.416 2.182.902.532 2.031.374 2.801-.317A2.5 2.5 0 0 0 75.7 33c-.199-.795-.312-1.425-.642-2.179-.848-2.105-2.786-3.678-5.004-4.128"/><defs><linearGradient id="_pollen" x1="0" x2="0" y1="50" y2="100" gradientUnits="userSpaceOnUse"><stop stop-color="#cca819"/><stop offset="1" stop-color="#9b8015"/></linearGradient></defs></svg>
