<svg xmlns="http://www.w3.org/2000/svg" fill="none" viewBox="0 0 60 53"><g clip-path="url(#a)"><path fill="#fff" d="M53.514 21.225a4 4 0 0 0-.208-.753c.037-.057 8.177-10.6.638-17.119-7.528-6.52-16.319 1.983-16.368 2.029a21 21 0 0 0-4.205-.775h-.012c-2.869-.445-6.89 0-6.89 0a21.4 21.4 0 0 0-4.168.764c-.05-.046-8.84-8.549-16.367-2.03s.6 17.074.637 17.12c-.086.25-.16.501-.208.752C5.553 25.727 0 27.117 0 34.981c0 8.013 5.799 14.327 17.642 14.327h4.855c.024.023 1.9 2.508 5.774 2.656 0 0 .895.09 2.955.022 4.107 0 6.105-2.633 6.118-2.667h4.854c11.843 0 17.642-6.314 17.642-14.326.037-7.853-5.517-9.255-6.326-13.769"/><g fill="#0E0A31" clip-path="url(#b)"><path d="m29.859 9.067-.236.799v23.166l.236.235 10.753-6.357z"/><path d="M29.859 9.067 19.105 26.91l10.754 6.357zm0 26.236-.133.161v8.253l.133.386 10.76-15.153z"/><path d="M29.859 44.103v-8.8L19.105 28.95zm0-10.836 10.753-6.357-10.753-4.888z"/><path d="m19.105 26.91 10.754 6.357V22.022z"/></g></g><defs><clipPath id="a"><path fill="#fff" d="M0 .88h60v51.24H0z"/></clipPath><clipPath id="b"><path fill="#fff" d="M19.105 9.067h21.514v35.036H19.105z"/></clipPath></defs></svg>
