<svg xmlns="http://www.w3.org/2000/svg" viewBox="0 0 128 128"><path fill="#fff" d="M114.163 52.377a8.5 8.5 0 0 0-.444-1.605c.079-.122 17.445-22.6 1.362-36.5C99.021.373 80.267 18.5 80.162 18.6a45 45 0 0 0-8.97-1.653h-.026c-6.12-.949-14.699 0-14.699 0-3.01.248-5.989.793-8.891 1.63-.107-.099-18.86-18.228-34.917-4.329s1.28 36.403 1.36 36.501a12 12 0 0 0-.445 1.604C11.846 61.976 0 64.939 0 81.706c0 17.084 12.371 30.546 37.636 30.546h10.358c.05.049 4.053 5.347 12.318 5.663 0 0 1.909.192 6.304.047 8.761 0 13.023-5.614 13.051-5.686h10.355c25.265 0 37.637-13.462 37.637-30.544.079-16.744-11.77-19.73-13.496-29.355"/><path fill="#0E0A31" d="m63.7 26.455-.504 1.704V77.55l.503.5 22.94-13.553z"/><path fill="#0E0A31" d="M63.7 26.455 40.756 64.498 63.7 78.052zm0 55.937-.285.344v17.596l.284.823 22.955-32.308z"/><path fill="#0E0A31" d="M63.7 101.155V82.392L40.756 68.847zm0-23.103 22.939-13.554-22.94-10.422z"/><path fill="#0E0A31" d="M40.757 64.498 63.7 78.052V54.076z"/></svg>
