<svg xmlns="http://www.w3.org/2000/svg" viewBox="0 0 128 128"><path fill="#fff" d="M114.163 52.372a8.5 8.5 0 0 0-.444-1.606c.079-.121 17.445-22.6 1.362-36.499-16.06-13.901-34.814 4.228-34.919 4.326a45 45 0 0 0-8.97-1.652h-.026c-6.12-.949-14.699 0-14.699 0-3.01.247-5.989.793-8.891 1.629-.107-.098-18.86-18.227-34.917-4.328s1.28 36.403 1.36 36.5a12 12 0 0 0-.445 1.604C11.846 61.97 0 64.934 0 81.701c0 17.084 12.371 30.546 37.636 30.546h10.358c.05.049 4.053 5.347 12.318 5.662 0 0 1.909.192 6.304.047 8.761 0 13.023-5.613 13.051-5.686h10.355c25.265 0 37.637-13.462 37.637-30.544.079-16.743-11.77-19.73-13.496-29.354"/><path fill="#0E0A30" d="M92.527 57.371c1.173-7.84-4.8-12.054-12.966-14.867l2.65-10.622-6.471-1.61-2.58 10.341c-1.7-.424-3.447-.823-5.183-1.22l2.598-10.408-6.464-1.612-2.652 10.618q-2.115-.475-4.132-.97l.009-.034-8.922-2.226-1.722 6.908s4.8 1.098 4.698 1.166c2.622.652 3.093 2.386 3.014 3.759l-3.016 12.101c.179.045.414.113.672.214l-.683-.169-4.233 16.95c-.32.797-1.13 1.992-2.965 1.537.064.094-4.702-1.172-4.702-1.172l-3.21 7.4 8.418 2.098c1.566.392 3.102.804 4.612 1.19L46.62 97.486l6.464 1.612 2.65-10.63c1.766.48 3.477.92 5.156 1.337l-2.644 10.579 6.47 1.612 2.678-10.725c11.03 2.09 19.326 1.245 22.818-8.726 2.814-8.028-.14-12.66-5.945-15.68 4.228-.974 7.41-3.754 8.26-9.494M77.747 78.09c-1.999 8.03-15.526 3.688-19.91 2.6l3.552-14.23c4.384 1.09 18.447 3.257 16.358 11.63m2.001-20.83c-1.824 7.304-13.083 3.592-16.734 2.684l3.222-12.91c3.65.91 15.41 2.607 13.512 10.225"/></svg>
