<svg xmlns="http://www.w3.org/2000/svg" fill="none" viewBox="0 0 60 53"><g clip-path="url(#a)"><path fill="#fff" d="M53.514 21.225a4 4 0 0 0-.208-.753c.037-.057 8.177-10.6.638-17.119-7.528-6.52-16.319 1.983-16.368 2.029a21 21 0 0 0-4.205-.775h-.012c-2.869-.445-6.89 0-6.89 0a21.4 21.4 0 0 0-4.168.764c-.05-.046-8.84-8.549-16.367-2.03s.6 17.074.637 17.12c-.086.25-.16.501-.208.752C5.553 25.727 0 27.117 0 34.981c0 8.013 5.799 14.327 17.642 14.327h4.855c.024.023 1.9 2.508 5.774 2.656 0 0 .895.09 2.955.022 4.107 0 6.105-2.633 6.118-2.667h4.854c11.843 0 17.642-6.314 17.642-14.326.037-7.853-5.517-9.255-6.326-13.769"/><path fill="#0E0A30" d="M43.372 23.57c.55-3.677-2.25-5.654-6.078-6.973l1.242-4.982-3.033-.755-1.209 4.85c-.797-.199-1.616-.386-2.43-.572l1.218-4.882-3.03-.756-1.243 4.98q-.992-.223-1.937-.455l.004-.016-4.182-1.044-.807 3.24s2.25.515 2.202.547c1.229.306 1.45 1.119 1.413 1.763l-1.414 5.676c.084.021.194.053.315.1l-.32-.079-1.984 7.95c-.15.374-.53.934-1.39.721.03.044-2.204-.55-2.204-.55L17 35.804l3.946.984c.734.184 1.454.377 2.162.558l-1.255 5.039 3.03.756 1.242-4.986c.828.225 1.63.432 2.417.627l-1.239 4.962 3.033.756 1.255-5.03c5.17.98 9.059.584 10.696-4.093 1.319-3.765-.066-5.938-2.787-7.354 1.982-.457 3.474-1.76 3.872-4.452m-6.928 9.716c-.937 3.766-7.278 1.73-9.333 1.22l1.665-6.675c2.055.512 8.647 1.528 7.668 5.455m.938-9.77c-.855 3.426-6.133 1.685-7.844 1.259l1.51-6.055c1.711.427 7.224 1.223 6.334 4.796"/></g><defs><clipPath id="a"><path fill="#fff" d="M0 .88h60v51.24H0z"/></clipPath></defs></svg>
