<svg xmlns="http://www.w3.org/2000/svg" viewBox="0 0 128 128"><circle cx="64" cy="64" r="64" fill="#78350f"/><circle cx="64" cy="64" r="58" fill="#fff"/><path fill="#78350f" d="M47.52 41.136a10 10 0 0 0-3.486-1.37 9.2 9.2 0 0 0-3.668.042 9 9 0 0 0-3.288 1.442 8.6 8.6 0 0 0-2.414 2.634 9 9 0 0 0-1.168 3.424 9.4 9.4 0 0 0 .252 3.682c.538 2.012 3.024 2.396 4.732 1.172l4.352-3.112 4.364-3.12c1.706-1.226 2.104-3.674.324-4.794m46.014 2.748a8.66 8.66 0 0 0-5.702-4.076 9.2 9.2 0 0 0-3.668-.04 10 10 0 0 0-3.488 1.368c-1.78 1.12-1.38 3.568.326 4.792l4.364 3.122 4.352 3.112c1.708 1.224 4.194.84 4.732-1.172a9.4 9.4 0 0 0 .252-3.682 9 9 0 0 0-1.168-3.424M67.63 77.598a10.16 10.16 0 0 0-6.47 0c-1.16.394-2.172 1.006-2.108 1.928.116 1.412 2.36 3.828 3.982 4.326.992.3 1.614.28 2.72 0 1.622-.416 3.878-2.914 3.984-4.326.074-.922-.95-1.532-2.108-1.928m-11.118-4.544a7.2 7.2 0 0 0-2.128-1.888 6.8 6.8 0 0 0-2.666-.88 7 7 0 0 0-2.804.258c-.906.28-1.76.736-2.508 1.36a7.6 7.6 0 0 0-1.834 2.25c-.77 1.44.454 2.956 2.098 3.142l4.152.468 4.184.476c1.644.188 3.192-1.006 2.77-2.582a7.6 7.6 0 0 0-1.264-2.604m25.736-1.298a7.4 7.4 0 0 0-2.51-1.36 7 7 0 0 0-2.802-.258 6.8 6.8 0 0 0-2.666.882 7.2 7.2 0 0 0-2.13 1.888 7.5 7.5 0 0 0-1.264 2.604c-.42 1.576 1.128 2.77 2.76 2.582l4.186-.476 4.16-.468c1.646-.186 2.868-1.7 2.1-3.142a7.8 7.8 0 0 0-1.834-2.252"/><path fill="#78350f" d="M102.018 61.8a20.7 20.7 0 0 0 5.438-14.22 20.6 20.6 0 0 0-2.076-8.788c-3.732-7.718-13.174-13.744-22.838-11.732q-.59.13-1.168.302a11.6 11.6 0 0 0-3.92 2.08c-2.582 2.06-7.326 3.44-12.752 3.44h-.616c-5.424 0-10.168-1.384-12.75-3.444a11.6 11.6 0 0 0-3.922-2.078 16 16 0 0 0-1.168-.302c-9.662-2.012-19.104 4.014-22.836 11.732a20.6 20.6 0 0 0-2.076 8.786 20.72 20.72 0 0 0 5.44 14.222 1.46 1.46 0 0 1 .356 1.204c-2.328 13.1 1.108 23.88 8.18 31.554 7.428 8.06 18.324 12.076 28.894 12.294h.382c10.568-.218 21.466-4.232 28.894-12.292 7.072-7.676 10.508-18.454 8.18-31.556a1.45 1.45 0 0 1 .356-1.204zm-6.186-2.272a1.74 1.74 0 0 0-.6 1.764c5.49 22.872-8.62 36.224-24.83 39.086h-.01a38 38 0 0 1-4.732.54c-.094 0-.2.01-.294.01-.296.02-.6.02-.896.032h-.074l-.02-.002h-.054c-.296-.01-.6-.01-.896-.03-.094 0-.2-.012-.296-.012a38 38 0 0 1-4.73-.54h-.012C42.18 97.516 28.068 84.164 33.56 61.29a1.74 1.74 0 0 0-.6-1.762 15 15 0 0 1-5.66-11.9 14.9 14.9 0 0 1 1.486-6.306c2.76-5.716 9.706-9.876 16.23-8.516.764.156 2.812.82 4.808 1.756.724.34 1.404.764 2.04 1.244 2.616 1.976 7.25 3.29 12.532 3.296 5.284-.004 9.92-1.32 12.534-3.294.636-.48 1.314-.904 2.04-1.244 1.994-.936 4.042-1.6 4.808-1.758 6.522-1.36 13.468 2.8 16.23 8.518a14.9 14.9 0 0 1 1.484 6.306 15 15 0 0 1-5.66 11.898"/><circle cx="64" cy="64" r="64" fill="#f90" transform="translate(64)scale(.5)"/><path d="M109.515 8.88c.8.615 1.48 1.335 2.135 2.09-3.495 3.955-7.61 7.375-11.055 11.365.31.71.63 1.375.805 2.135-.53 1.95-1.54 3.78-2.26 5.67-.765 1.64-1.18 3.225-2.5 4.49-2.045 1.995-3.985 4.12-6.14 5.995-2.34-2.02-4.395-4.36-6.63-6.495-1.145-1.195-2.555-2.31-3.435-3.715-.185-1.335 1.14-2.165 1.92-3.06 1.99-1.835 3.53-3.995 5.96-5.035 2.535-1.17 5.16-2.155 7.725-3.265.715.27 1.425.545 2.13.845 3.985-3.425 7.38-7.56 11.345-11.02m-40 32.48c2.02 1.14 3.2 3.02 5.31 3.85 1.17.65 2.725.065 3.735-.64 1.4-1.19 2.46-2.475 4.33-2.95 2.555 1.2 3.65 3.765 6.58 3.9 2.475-.35 3.71-2.23 5.54-3.515 1.17-.95 2.505.335 3.355 1.12 1.295 1.34 2.55 2.465 4.55 2.335 2.77-.455 3.74-3.165 6.49-3.865 2.48 1.35 3.35 3.75 6.56 3.915 2.925-.51 4.085-2.72 6.525-4.16-1.395 4.315-3.985 8.47-7.54 11.325-1.875-1.305-2.635-3.115-5.12-3.53-3.285-.36-4.775 2.65-7.33 3.945-1.565-.78-2.615-2.075-3.97-3.12-.93-.58-2.235-1.26-3.34-.83-2.47.62-3.365 2.915-5.725 3.92-2.39-1.175-3.515-3.2-6.05-4.045-2.49-.14-4.655 2.175-6.485 3.595-3.435-2.84-6.075-7.015-7.415-11.25"/><path d="M82.95 51.465c1.96.735 2.93 2.6 4.725 3.4 1.035.255 2.16.23 3.21.085 1.83-.62 3.425-3.705 5.52-3.495 1.47.815 2.615 2.74 4.275 3.4 1.065.27 2.57.27 3.635 0 1.82-.8 2.77-2.65 4.735-3.39 1.665.135 3.095 1.855 4.115 3.04-4.875 3.945-10.965 5.77-17.165 6.02-6.205-.245-12.295-2.065-17.165-6.02 1.015-1.185 2.455-2.91 4.115-3.04"/></svg>
