<svg xmlns="http://www.w3.org/2000/svg" viewBox="0 0 128 128"><path fill="#0c2129" d="M64 127.824c35.249 0 63.824-28.575 63.824-63.824S99.249.176 64 .176.176 28.751.176 64 28.751 127.824 64 127.824"/><path fill="#37bec1" d="m72.886 25.112-43.73 19.47a7.98 7.98 0 0 0-4.044 10.533v.001a7.98 7.98 0 0 0 10.534 4.044l43.73-19.47a7.98 7.98 0 0 0 4.043-10.533v-.002a7.977 7.977 0 0 0-10.533-4.043"/><path fill="#fbb144" d="M60.756 56.712 31.6 69.692a7.977 7.977 0 0 0-4.043 10.533v.001a7.98 7.98 0 0 0 10.534 4.043l29.154-12.98a7.98 7.98 0 0 0 4.043-10.533v-.001a7.98 7.98 0 0 0-10.533-4.043"/><path fill="#e4615e" d="m92.354 68.842-43.73 19.47a7.98 7.98 0 0 0-4.044 10.532l.001.002a7.977 7.977 0 0 0 10.533 4.043l43.73-19.47a7.98 7.98 0 0 0 4.043-10.533l-.001-.001a7.977 7.977 0 0 0-10.532-4.043"/></svg>
