<svg xmlns="http://www.w3.org/2000/svg" viewBox="0 0 256 128"><svg viewBox="0 0 128 128"><path fill="#fff" d="M64 128c35.346 0 64-28.654 64-64S99.346 0 64 0 0 28.654 0 64s28.654 64 64 64"/><path fill="#28282A" d="M24 24h26.669v26.669H24zm26.669 26.669L77.33 24H104v26.669zM77.33 77.332H104V104H77.331zM24 104V77.331l26.669-26.662V104z"/></svg><svg x="64" viewBox="0 0 128 128"><circle cx="64" cy="64" r="64" fill="#00B988"/><path fill="#fff" d="M31.36 27.52h65.45v14.53H71.357v14.529H56.813v-14.53H31.36zm25.453 29.059v29.059H42.268V56.579zm14.546 29.059H85.9V56.579H71.357v29.059H56.815v14.529h14.544z"/></svg></svg>
