<svg xmlns="http://www.w3.org/2000/svg" fill="none" viewBox="0 0 900 600"><path fill="#fff" d="M600 299.97a300.06 300.06 0 0 1-87.859 212.153A299.94 299.94 0 0 1 300.03 600a299.93 299.93 0 0 1-212.15-87.855A300.08 300.08 0 0 1 0 299.97a300.1 300.1 0 0 1 42.246-153.569A300 300 0 0 1 157.125 36.099c6.076-3.282 12.152-6.381 18.592-9.237A298.65 298.65 0 0 1 300.03 0a299.93 299.93 0 0 1 196.639 73.456 300.05 300.05 0 0 1 100.354 184.399c.972 6.806 1.701 13.613 2.248 20.541s.729 14.342.729 21.574"/><path fill="#000" d="M237.504 127.526v116.099H112.5V127.526zM487.5 359.712H362.496v116.099H487.5zm0-232.186H362.496L237.504 243.625H487.5zm-375 232.186v116.099h125.004V243.625z"/><path fill="#00B988" d="M599.978 599.343c165.674 0 299.979-134.168 299.979-299.672S765.652 0 599.978 0 300 134.167 300 299.671s134.305 299.672 299.978 299.672"/><path fill="#fff" d="M446.58 143.025h306.795v68.107H634.067v68.107H565.89v-68.107H446.58z"/><path fill="#fff" d="M565.89 279.239v136.214h-68.177V279.239zm68.185 136.214h68.167V279.239h-68.177v136.214h-68.167v68.107h68.177z"/></svg>
