<svg xmlns="http://www.w3.org/2000/svg" viewBox="0 0 128 128"><path fill="url(#_satsolvbtc-a)" d="M64 128c35.346 0 64-28.654 64-64S99.346 0 64 0 0 28.654 0 64s28.654 64 64 64"/><path fill="none" stroke="#ffe600" stroke-width="10.666" d="M87.323 8.192a24 24 0 0 1 34.89 25.739l-.266 1.21a24.5 24.5 0 0 1-2.144 5.558l-1.104 2.053.757 2.203a58.3 58.3 0 0 1 1.947 31.093l-.496 2.144c-7.84 31.429-39.67 50.56-71.104 42.72-31.424-7.845-50.55-39.675-42.71-71.099 7.84-31.429 39.664-50.56 71.094-42.72q2.485.62 4.885 1.44l2.203.758z"/><path fill="#fff" fill-rule="evenodd" d="M74.781 29.41a4.001 4.001 0 0 1 7.729 2.07l-1.695 6.324 1.051.282c7.567 2.027 12.057 9.805 10.03 17.372l-.094.35c-1.581 5.9-6.75 9.88-12.53 10.223l-.001.005h-.092l-.007.001-.028.001c-.421.035-.5.64-.08.771v.002c7.282 2.884 11.405 10.834 9.329 18.582-2.236 8.343-10.811 13.294-19.154 11.058l-2.456-.658-1.694 6.323a4 4 0 0 1-4.9 2.828 4 4 0 0 1-2.828-4.899l1.694-6.322-7.027-1.883-1.694 6.322a4.001 4.001 0 0 1-7.728-2.07l1.694-6.323-7.029-1.883-3.863-1.036a4.365 4.365 0 1 1 2.26-8.43l3.863 1.034 10.919-40.75-3.51-.94a4.365 4.365 0 1 1 2.26-8.432l3.512.941 5.62 1.507 1.694-6.324a4.001 4.001 0 0 1 7.729 2.07l-1.695 6.325 7.027 1.882zM55.807 56.413a5.143 5.143 0 0 1 3.637-6.298l14.39-3.856a5.143 5.143 0 0 1 2.661 9.934l-14.39 3.856a5.14 5.14 0 0 1-6.298-3.636m-6.58 23.269a5.14 5.14 0 0 1 3.636-6.298l14.39-3.856a5.142 5.142 0 1 1 2.662 9.935l-14.39 3.855a5.14 5.14 0 0 1-6.298-3.636"/><path fill="#f47226" d="M122.667 29.333c0-13.254-10.745-24-24-24s-24 10.745-24 24 10.745 24 24 24 24-10.745 24-24"/><path fill="#171717" d="M97.13 27.557a1 1 0 0 0-.074-.256c.016-.021 2.827-3.616.219-5.834-2.592-2.219-5.627.677-5.643.693a7.5 7.5 0 0 0-1.45-.267c-.993-.149-2.385 0-2.385 0a7.5 7.5 0 0 0-1.44.262c-.016-.016-3.045-2.912-5.642-.694s.208 5.814.218 5.835l-.069.256c-.283 1.536-2.197 2.01-2.197 4.693 0 2.726 2 4.88 6.085 4.88h1.675c.01.006.656.854 1.994.907 0 0 .31.027 1.014 0a2.67 2.67 0 0 0 2.117-.907h1.675c4.085 0 6.085-2.149 6.085-4.88.01-2.677-1.904-3.152-2.187-4.693m9.563 7.328v-2.101c1.333-.443 2.299-1.814 2.299-3.446 0-1.626-.971-3.002-2.299-3.445v-2.096c1.253-.416 2.187-1.659 2.293-3.168h-1.53v.64a1.29 1.29 0 0 1-.763 1.147v-.299c0-.437-.4-.8-.885-.8h-.08c-.486 0-.886.363-.886.8v.299a1.3 1.3 0 0 1-.552-.461 1.3 1.3 0 0 1-.216-.686v-.64h-1.525c.107 1.51 1.04 2.752 2.293 3.168v2.096c-1.328.443-2.298 1.813-2.298 3.445s.965 3.008 2.298 3.446v2.096c-1.253.416-2.186 1.664-2.293 3.168h1.525v-.64c0-.491.315-.928.768-1.147v.299c0 .442.4.8.886.8h.08c.485 0 .88-.358.88-.8v-.299c.224.098.415.258.552.461.136.203.21.441.216.686v.64h1.53c-.106-1.504-1.04-2.747-2.293-3.163m-2.613-4.635v-1.834c0-.496.309-.928.762-1.147v.299c0 .437.4.8.886.8h.08c.485 0 .88-.363.88-.8v-.299c.224.098.415.258.552.461.136.203.21.441.216.686v1.834a1.29 1.29 0 0 1-.763 1.147v-.299c0-.437-.4-.8-.885-.8h-.08c-.486 0-.886.363-.886.8v.299a1.3 1.3 0 0 1-.552-.461 1.3 1.3 0 0 1-.21-.686m12.288.208v-2.24c1.333-.437 2.304-1.813 2.304-3.44 0-1.626-.971-3.008-2.304-3.445v-.704h-1.84v.71c-1.334.442-2.304 1.813-2.304 3.445 0 1.626.97 3.008 2.304 3.445v2.235c-1.334.442-2.304 1.813-2.304 3.445 0 1.627.97 3.003 2.304 3.445v.699h1.84v-.699c1.333-.448 2.304-1.818 2.304-3.445 0-1.632-.971-3.008-2.304-3.45m-2.614-4.757v-1.84a1.28 1.28 0 0 1 .768-1.141v.298c0 .438.395.795.886.795h.069c.491 0 .885-.357.885-.8v-.293a1.28 1.28 0 0 1 .768 1.141v1.84a1.28 1.28 0 0 1-.768 1.147v-.299c0-.443-.394-.8-.885-.8h-.075c-.49 0-.885.357-.885.8v.299a1.29 1.29 0 0 1-.763-1.147m3.382 9.125c-.006.245-.08.483-.216.686a1.3 1.3 0 0 1-.552.461v-.437c0-.443-.395-.8-.886-.8h-.074c-.48 0-.88.357-.88.8v.437a1.28 1.28 0 0 1-.768-1.147v-1.834c0-.496.309-.928.768-1.147V32c0 .437.394.795.885.795h.075c.485 0 .885-.358.885-.8v-.16a1.28 1.28 0 0 1 .768 1.152z"/><defs><linearGradient id="_satsolvbtc-a" x1="64" x2="64" y1="0" y2="128" gradientUnits="userSpaceOnUse"><stop stop-color="#fedf70"/><stop offset="1" stop-color="#d88528"/></linearGradient></defs></svg>
