<svg width="24" height="24" viewBox="0 0 24 24" fill="none" xmlns="http://www.w3.org/2000/svg">
<g clip-path="url(#clip0_10520_11491)">
<path d="M16.373 1.53613C17.3242 1.02543 18.4587 0.853335 19.5879 1.13477C21.9232 1.71692 23.373 4.02677 22.915 6.3623L22.8643 6.58887C22.7717 6.95986 22.6358 7.30848 22.4629 7.63086L22.2559 8.01562L22.3984 8.42871C23.0259 10.2495 23.1852 12.2519 22.7627 14.2598L22.6699 14.6611C21.2005 20.5535 15.232 24.1403 9.33789 22.6709C3.44649 21.2017 -0.139865 15.232 1.33008 9.33984C2.7989 3.44711 8.76739 -0.139472 14.6592 1.3291C14.9697 1.40651 15.2759 1.49773 15.5762 1.60059L15.9893 1.74219L16.373 1.53613Z" fill="url(#paint0_linear_10520_11491)" stroke="#FFE600" stroke-width="2"/>
<mask id="mask0_10520_11491" style="mask-type:luminance" maskUnits="userSpaceOnUse" x="0" y="0" width="24" height="24">
<path d="M24 0H0V24H24V0Z" fill="white"/>
</mask>
<g mask="url(#mask0_10520_11491)">
<path d="M21.7006 14.4191C20.3648 19.7763 14.9384 23.0366 9.58002 21.7006C4.22383 20.365 0.963159 14.9388 2.29955 9.58199C3.63469 4.22422 9.06122 0.963635 14.418 2.29925C19.7761 3.63486 23.0364 9.06167 21.7006 14.4191Z" fill="url(#paint1_linear_10520_11491)"/>
<path fill-rule="evenodd" clip-rule="evenodd" d="M13.6845 6.59484C13.7738 6.26139 14.1166 6.0635 14.45 6.15284C14.7835 6.2422 14.9814 6.58495 14.892 6.91842L14.6273 7.90658L14.7915 7.95058C15.9737 8.26737 16.6754 9.48261 16.3586 10.6649L16.3439 10.7198C16.0969 11.6416 15.2893 12.2635 14.3862 12.3171L14.386 12.3178L14.3716 12.3179L14.3705 12.3179L14.3661 12.3182C14.3003 12.3236 14.2881 12.4182 14.3536 12.4386L14.3535 12.439C15.4914 12.8895 16.1356 14.1316 15.8112 15.3424C15.4619 16.6459 14.1221 17.4195 12.8185 17.0702L12.4348 16.9674L12.1701 17.9553C12.0807 18.2887 11.738 18.4867 11.4045 18.3973C11.071 18.3079 10.8731 17.9651 10.9625 17.6317L11.2272 16.6438L10.1293 16.3496L9.86461 17.3375C9.77525 17.6709 9.4325 17.8689 9.09903 17.7795C8.76556 17.6901 8.56767 17.3474 8.65703 17.0139L8.92172 16.0261L7.82353 15.7318L7.21995 15.57C6.85617 15.4725 6.64028 15.0986 6.73776 14.7349C6.83523 14.3711 7.20915 14.1552 7.57294 14.2527L8.17651 14.4144L9.88264 8.04706L9.33433 7.90014C8.97055 7.80267 8.75467 7.42875 8.85214 7.06497C8.94962 6.70119 9.32355 6.48531 9.68731 6.58278L10.2362 6.72986L11.1142 6.96526L11.379 5.97712C11.4683 5.64367 11.8111 5.44578 12.1446 5.53512C12.478 5.62448 12.6759 5.96723 12.5866 6.3007L12.3218 7.28883L13.4197 7.58301L13.6845 6.59484ZM10.7198 10.8143C10.6049 10.3857 10.8593 9.94509 11.2879 9.83025L13.5363 9.22778C13.965 9.11294 14.4056 9.36731 14.5204 9.79595C14.6353 10.2246 14.3809 10.6652 13.9523 10.78L11.7039 11.3825C11.2752 11.4973 10.8346 11.243 10.7198 10.8143ZM9.69159 14.4501C9.57675 14.0215 9.83112 13.5809 10.2598 13.466L12.5082 12.8636C12.9368 12.7487 13.3774 13.0031 13.4922 13.4317C13.6071 13.8604 13.3527 14.301 12.9241 14.4158L10.6757 15.0183C10.247 15.1331 9.80645 14.8788 9.69159 14.4501Z" fill="white"/>
</g>
<rect x="14" y="1" width="9" height="9" rx="4.5" fill="#F47226"/>
<path d="M18.2117 5.16661C18.2086 5.14986 18.2046 5.13385 18.1983 5.11856C18.2006 5.11492 18.7272 4.44144 18.2395 4.02498C17.7526 3.60852 17.1839 4.15167 17.1808 4.15458C17.0903 4.12837 16.9991 4.11235 16.9087 4.10507C16.9087 4.10507 16.9087 4.10507 16.9079 4.10507C16.7224 4.07668 16.4622 4.10507 16.4622 4.10507C16.3726 4.11235 16.2822 4.12837 16.1926 4.15385C16.1894 4.15094 15.6208 3.60779 15.1338 4.02426C14.6469 4.44072 15.1727 5.11492 15.1751 5.11783C15.1695 5.13385 15.1648 5.14986 15.1616 5.16588C15.1093 5.4542 14.75 5.54303 14.75 6.0454C14.75 6.55724 15.1251 6.96059 15.8912 6.96059H16.2053C16.2069 6.96204 16.3282 7.12078 16.5788 7.13024C16.5788 7.13024 16.6367 7.13606 16.7699 7.13169C17.0356 7.13169 17.1649 6.9635 17.1657 6.96131H17.4797C18.2458 6.96131 18.621 6.55797 18.621 6.04613C18.6233 5.54448 18.2641 5.45493 18.2117 5.16661Z" fill="#171717"/>
<path d="M20.0035 6.53921V6.14606C20.2533 6.06305 20.4353 5.80532 20.4353 5.50025C20.4353 5.19519 20.2533 4.93673 20.0035 4.85445V4.4613C20.2388 4.38339 20.4142 4.14968 20.4336 3.86719H20.1474V3.98732C20.1474 4.07978 20.0892 4.16133 20.0035 4.2021V4.14604C20.0035 4.06377 19.9291 3.99678 19.8377 3.99678H19.8231C19.7318 3.99678 19.6574 4.06377 19.6574 4.14604V4.2021C19.5717 4.16133 19.5134 4.08051 19.5134 3.98732V3.86719H19.2272C19.2466 4.14968 19.4221 4.38339 19.6574 4.4613V4.85445C19.4083 4.93673 19.2256 5.19446 19.2256 5.50025C19.2256 5.80604 19.4075 6.06378 19.6574 6.14606V6.53921C19.4221 6.61712 19.2466 6.85084 19.2272 7.13332H19.5134V7.01318C19.5134 6.92072 19.5717 6.83917 19.6574 6.79841V6.85447C19.6574 6.93675 19.7318 7.00373 19.8231 7.00373H19.8377C19.9291 7.00373 20.0035 6.93675 20.0035 6.85447V6.79841C20.0892 6.83917 20.1474 6.91999 20.1474 7.01318V7.13332H20.4336C20.4142 6.85084 20.2388 6.61712 20.0035 6.53921ZM19.5134 5.67208V5.3277C19.5134 5.23524 19.5717 5.15369 19.6574 5.11292V5.16898C19.6574 5.25125 19.7318 5.31824 19.8231 5.31824H19.8377C19.9291 5.31824 20.0035 5.25125 20.0035 5.16898V5.11292C20.0892 5.15369 20.1474 5.23451 20.1474 5.3277V5.67208C20.1474 5.76454 20.0892 5.84609 20.0035 5.88686V5.8308C20.0035 5.74853 19.9291 5.68155 19.8377 5.68155H19.8231C19.7318 5.68155 19.6574 5.74853 19.6574 5.8308V5.88686C19.5725 5.84609 19.5134 5.76527 19.5134 5.67208Z" fill="#171717"/>
<path d="M21.8181 5.70962V5.29089C22.0681 5.20787 22.2502 4.95007 22.2502 4.64494C22.2502 4.33981 22.0681 4.08129 21.8181 3.999V3.86719H21.4726V3.999C21.2226 4.08202 21.0405 4.33981 21.0405 4.64494C21.0405 4.95007 21.2226 5.2086 21.4726 5.29089V5.70962C21.2226 5.79264 21.0405 6.05044 21.0405 6.35557C21.0405 6.6607 21.2226 6.91922 21.4726 7.00152V7.13332H21.8181V7.00152C22.0681 6.91849 22.2502 6.6607 22.2502 6.35557C22.2502 6.05044 22.0681 5.79264 21.8181 5.70962ZM21.3278 4.8168V4.47235C21.3278 4.37986 21.386 4.2983 21.4718 4.25752V4.31359C21.4718 4.39589 21.5463 4.46288 21.6377 4.46288H21.6514C21.7429 4.46288 21.8173 4.39589 21.8173 4.31359V4.25752C21.9031 4.2983 21.9613 4.37914 21.9613 4.47235V4.8168C21.9613 4.90929 21.9031 4.99086 21.8173 5.03163V4.97556C21.8173 4.89327 21.7429 4.82627 21.6514 4.82627H21.6369C21.5454 4.82627 21.471 4.89327 21.471 4.97556V5.03163C21.3868 4.99086 21.3278 4.91002 21.3278 4.8168ZM21.9621 6.52816C21.9621 6.62064 21.9039 6.70221 21.8181 6.74298V6.6607C21.8181 6.57841 21.7437 6.51141 21.6522 6.51141H21.6385C21.5471 6.51141 21.4726 6.57841 21.4726 6.6607V6.74298C21.3868 6.70221 21.3286 6.62137 21.3286 6.52816V6.1837C21.3286 6.09122 21.3868 6.00965 21.4726 5.96887V5.99873C21.4726 6.08102 21.5471 6.14802 21.6385 6.14802H21.6531C21.7445 6.14802 21.8189 6.08102 21.8189 5.99873V5.96887C21.9047 6.00965 21.9629 6.09049 21.9629 6.1837V6.52816H21.9621Z" fill="#171717"/>
</g>
<defs>
<linearGradient id="paint0_linear_10520_11491" x1="18.5001" y1="2.97967e-07" x2="18.5001" y2="11.0004" gradientUnits="userSpaceOnUse">
<stop stop-color="#FEDF70"/>
<stop offset="1" stop-color="#D88528"/>
</linearGradient>
<linearGradient id="paint1_linear_10520_11491" x1="12" y1="2" x2="12" y2="22" gradientUnits="userSpaceOnUse">
<stop stop-color="#FEDF70"/>
<stop offset="1" stop-color="#D88528"/>
</linearGradient>
<clipPath id="clip0_10520_11491">
<rect width="24" height="24" fill="white"/>
</clipPath>
</defs>
</svg>
