<svg width="100" height="100" viewBox="0 0 100 100" fill="none" xmlns="http://www.w3.org/2000/svg">
<path d="M98.5034 62.0956C91.8246 88.8813 64.692 105.183 37.9001 98.5031C11.1191 91.825 -5.18421 64.694 1.49775 37.9099C8.17346 11.1211 35.3061 -5.18183 62.0902 1.49623C88.8805 8.17429 105.182 35.3084 98.5034 62.0956Z" fill="url(#paint0_linear_11343_11305)"/>
<path fill-rule="evenodd" clip-rule="evenodd" d="M58.4228 22.9759C58.8696 21.3086 60.5834 20.3192 62.2507 20.7659C63.918 21.2127 64.9075 22.9265 64.4607 24.5938L63.1369 29.5346L63.9579 29.7546C69.8693 31.3385 73.3774 37.4147 71.7934 43.3261L71.7199 43.6006C70.4849 48.2097 66.447 51.3194 61.9315 51.587L61.9304 51.5909L61.8586 51.5913L61.8531 51.5914L61.8311 51.5925C61.5023 51.6195 61.4409 52.0927 61.7686 52.1947L61.7682 52.1965C67.4575 54.4494 70.6788 60.6598 69.0567 66.7135C67.3103 73.2312 60.6109 77.0991 54.0931 75.3527L52.1745 74.8386L50.8509 79.7781C50.4042 81.4454 48.6904 82.4348 47.0231 81.9881C45.3557 81.5413 44.3663 79.8275 44.813 78.1602L46.1366 73.2208L40.647 71.7498L39.3236 76.689C38.8768 78.3563 37.163 79.3458 35.4957 78.899C33.8284 78.4523 32.8389 76.7385 33.2857 75.0712L34.6091 70.132L29.1182 68.6607L29.1182 68.6605L26.1003 67.8518C24.2814 67.3644 23.202 65.4948 23.6894 63.6759C24.1767 61.8571 26.0463 60.7776 27.8652 61.265L30.8832 62.0737L39.4138 30.237L36.6722 29.5024C34.8533 29.015 33.7739 27.1454 34.2613 25.3266C34.7487 23.5077 36.6183 22.4282 38.4372 22.9156L41.1817 23.651L41.1815 23.6517L45.5717 24.828L46.8955 19.8873C47.3423 18.22 49.0561 17.2306 50.7234 17.6773C52.3907 18.1241 53.3802 19.8379 52.9334 21.5052L51.6096 26.4459L57.099 27.9167L58.4228 22.9759ZM43.5995 44.0734C43.0252 41.9301 44.2971 39.7272 46.4403 39.1529L57.6823 36.1406C59.8255 35.5664 62.0285 36.8382 62.6027 38.9814C63.177 41.1247 61.9051 43.3276 59.7619 43.9019L48.5199 46.9142C46.3767 47.4884 44.1737 46.2166 43.5995 44.0734ZM38.4586 62.2523C37.8843 60.1091 39.1562 57.9061 41.2994 57.3319L52.5414 54.3196C54.6846 53.7453 56.8876 55.0172 57.4618 57.1604C58.0361 59.3036 56.7642 61.5066 54.621 62.0808L43.379 65.0931C41.2358 65.6674 39.0328 64.3955 38.4586 62.2523Z" fill="white"/>
<g clip-path="url(#clip0_11343_11305)">
<path d="M77.5 45C89.9264 45 100 34.9264 100 22.5C100 10.0736 89.9264 0 77.5 0C65.0736 0 55 10.0736 55 22.5C55 34.9264 65.0736 45 77.5 45Z" fill="#814625"/>
<path d="M76.6611 21.3611C76.6364 21.2864 76.6191 21.2097 76.6057 21.1323C76.5996 21.0964 76.5924 21.0607 76.5844 21.0253C76.5667 20.9483 76.5471 20.8717 76.5259 20.7956C76.8768 20.284 78.5541 17.6155 76.6454 15.9028C74.527 14.002 72.0519 16.4934 72.0519 16.4934L72.0595 16.5045C70.9471 16.1789 69.7408 16.1407 68.5672 16.4933C68.5527 16.4787 66.0857 14.0075 63.9735 15.9028C61.8607 17.7986 64.1422 20.8658 64.1541 20.8819C64.1298 20.9539 64.1102 21.0277 64.0973 21.1024C63.8687 22.4149 62.3127 22.82 62.3127 25.1063C62.3127 27.3925 63.9405 29.273 67.263 29.273H68.6264C68.6325 29.2814 69.194 30.0477 70.3467 30.0469C71.4167 30.0461 72.1233 29.2796 72.1294 29.273H73.4304C76.7529 29.273 78.3807 27.4367 78.3807 25.1063C78.3807 22.9772 77.0312 22.4795 76.6611 21.3611Z" fill="white"/>
<path d="M92.5391 18.7487C92.5391 18.7487 92.7862 16.5452 90.9079 16.0717V15.1879H89.4533V16.0496C87.472 16.4718 87.7273 18.7487 87.7273 18.7487V19.1265C87.7273 19.1265 87.4718 21.4039 89.454 21.8256L89.4538 23.7173C87.3654 24.0837 87.6293 26.4354 87.6293 26.4354V26.8132C87.6293 26.8132 87.3738 29.0901 89.3552 29.5122V30.374H90.8099V29.4902C92.6883 29.0167 92.441 26.8132 92.441 26.8132C92.5232 26.8132 92.5897 26.7491 92.5897 26.67V26.5786C92.5897 26.4995 92.5232 26.4354 92.441 26.4354C92.441 26.4354 92.6861 24.251 90.8342 23.7648V21.8256H90.8123C92.7945 21.4039 92.539 19.1265 92.539 19.1265C92.6211 19.1265 92.6877 19.0624 92.6877 18.9833V18.8918C92.6877 18.8128 92.6212 18.7487 92.5391 18.7487ZM91.3537 26.4354H91.2206C91.1386 26.4354 91.072 26.4995 91.072 26.5786V26.67C91.072 26.7491 91.1386 26.8132 91.2206 26.8132H91.3537C91.3537 28.1801 90.8824 28.41 90.7239 28.4488C90.6978 28.4551 90.6725 28.4365 90.6725 28.4106V27.975C90.6725 27.7341 90.5131 27.6022 90.3538 27.5304C90.1524 27.4397 89.9178 27.4397 89.7164 27.5304C89.5571 27.6022 89.3977 27.7341 89.3977 27.975V28.4106C89.3977 28.4361 89.3729 28.4552 89.3472 28.4489C89.1896 28.4109 88.7165 28.1827 88.7165 26.8132V26.4354C88.7165 25.0685 89.1877 24.8385 89.3464 24.7999C89.3724 24.7935 89.3977 24.8121 89.3977 24.838V25.2737C89.3977 25.5145 89.5571 25.6465 89.7164 25.7183C89.9178 25.8089 90.1524 25.8089 90.3538 25.7183C90.5131 25.6465 90.6725 25.5145 90.6725 25.2737V24.838C90.6725 24.8125 90.6973 24.7934 90.7229 24.7996C90.8807 24.8377 91.3537 25.0659 91.3537 26.4354ZM91.3187 19.1265H91.4517C91.4517 20.496 90.9787 20.7243 90.821 20.7622C90.7954 20.7685 90.7705 20.7494 90.7705 20.7239V20.2882C90.7705 20.0474 90.6112 19.9154 90.4518 19.8436C90.2504 19.753 90.0159 19.753 89.8144 19.8436C89.6551 19.9154 89.4958 20.0474 89.4958 20.2882V20.7239C89.4958 20.7498 89.4705 20.7683 89.4444 20.762C89.2858 20.7233 88.8146 20.4934 88.8146 19.1265V18.7487C88.8146 17.3791 89.2876 17.1508 89.4453 17.1129C89.471 17.1067 89.4958 17.1259 89.4958 17.1513V17.5869C89.4958 17.8278 89.6551 17.9597 89.8144 18.0315C90.0159 18.1222 90.2504 18.1222 90.4518 18.0315C90.6112 17.9597 90.7705 17.8278 90.7705 17.5869V17.1513C90.7705 17.1254 90.7959 17.1068 90.8219 17.1131C90.9805 17.1518 91.4517 17.3818 91.4517 18.7487H91.3187C91.2366 18.7487 91.17 18.8128 91.17 18.8918V18.9833C91.17 19.0624 91.2366 19.1265 91.3187 19.1265Z" fill="white"/>
<path d="M85.2599 22.64C85.2599 22.64 85.5168 20.3498 83.5166 19.9374V17.8799C85.4636 17.4405 85.2109 15.1879 85.2109 15.1879C85.2109 15.1879 84.1191 15.1879 84.1236 15.1879C84.1236 16.5575 83.6506 16.7857 83.4928 16.8237C83.4672 16.8299 83.4424 16.8107 83.4424 16.7854V16.3496C83.4424 16.1088 83.283 15.9769 83.1236 15.9051C82.9223 15.8144 82.6877 15.8144 82.4863 15.9051C82.3269 15.9769 82.1676 16.1088 82.1676 16.3496V16.7854C82.1676 16.8112 82.1423 16.8299 82.1162 16.8235C81.9576 16.7848 81.4864 16.5548 81.4864 15.1879C81.491 15.1879 80.399 15.1879 80.399 15.1879C80.399 15.1879 80.1369 17.5254 82.2047 17.9026V19.9346C80.1901 20.3396 80.448 22.6399 80.448 22.6399V23.0176C80.448 23.0176 80.1901 25.318 82.2047 25.723V27.6605C80.1369 28.0378 80.399 30.3751 80.399 30.3751C80.399 30.3751 81.4909 30.3751 81.4864 30.3751C81.4864 29.0057 81.9594 28.7774 82.1171 28.7394C82.1428 28.7331 82.1676 28.7523 82.1676 28.7777V29.2134C82.1676 29.4543 82.3269 29.5862 82.4863 29.658C82.6877 29.7487 82.9223 29.7487 83.1236 29.658C83.283 29.5862 83.4424 29.4543 83.4424 29.2134V28.7777C83.4424 28.7518 83.4677 28.7333 83.4938 28.7396C83.6523 28.7783 84.1236 29.0083 84.1236 30.3751C84.119 30.3751 85.2109 30.3751 85.2109 30.3751C85.2109 30.3751 85.4636 28.1226 83.5166 27.6832V25.7202C85.5168 25.3077 85.2599 23.0176 85.2599 23.0176C85.3421 23.0176 85.4087 22.9535 85.4087 22.8744V22.7829C85.4087 22.7039 85.3421 22.64 85.2599 22.64ZM84.0395 23.0178H84.1726C84.1726 24.3873 83.6996 24.6156 83.5419 24.6535C83.5162 24.6598 83.4914 24.6407 83.4914 24.6152V24.1795C83.4914 23.9387 83.332 23.8067 83.1727 23.7349C82.9713 23.6443 82.7367 23.6443 82.5353 23.7349C82.3759 23.8067 82.2166 23.9387 82.2166 24.1795V24.6152C82.2166 24.6411 82.1913 24.6597 82.1652 24.6533C82.0067 24.6146 81.5354 24.3847 81.5354 23.0178V22.64C81.5354 21.2705 82.0084 21.0421 82.1661 21.0042C82.1918 20.998 82.2166 21.0171 82.2166 21.0426V21.4782C82.2166 21.7191 82.3759 21.851 82.5353 21.9228C82.7367 22.0135 82.9713 22.0135 83.1727 21.9228C83.332 21.851 83.4914 21.7191 83.4914 21.4782V21.0426C83.4914 21.0167 83.5167 20.9981 83.5428 21.0044C83.7013 21.0431 84.1726 21.2731 84.1726 22.64H84.0395C83.9575 22.64 83.8909 22.7041 83.8909 22.7832V22.8746C83.8909 22.9537 83.9575 23.0178 84.0395 23.0178Z" fill="white"/>
</g>
<defs>
<linearGradient id="paint0_linear_11343_11305" x1="50" y1="0" x2="50" y2="100" gradientUnits="userSpaceOnUse">
<stop stop-color="#FEDF70"/>
<stop offset="1" stop-color="#D88528"/>
</linearGradient>
<clipPath id="clip0_11343_11305">
<rect width="45" height="45" fill="white" transform="translate(55)"/>
</clipPath>
</defs>
</svg>
