<svg xmlns="http://www.w3.org/2000/svg" viewBox="0 0 128 128"><path fill="url(#_solvbtc-bera)" d="M126.084 79.481c-8.549 34.286-43.278 55.152-77.572 46.602-34.28-8.548-55.148-43.276-46.595-77.56C10.462 14.235 45.192-6.633 79.475 1.915c34.292 8.548 55.158 43.28 46.609 77.566"/><path fill="#fff" fill-rule="evenodd" d="M74.781 29.41a4 4 0 1 1 7.73 2.07l-1.696 6.323 1.051.282c7.567 2.027 12.057 9.805 10.03 17.372l-.094.35c-1.58 5.9-6.75 9.88-12.53 10.223v.005h-.093l-.007.001-.028.001c-.42.035-.5.64-.08.771v.002c7.282 2.884 11.405 10.834 9.33 18.582-2.237 8.343-10.812 13.294-19.155 11.058l-2.456-.658-1.694 6.323a4 4 0 0 1-4.9 2.829 4 4 0 0 1-2.828-4.9l1.694-6.322-7.027-1.883-1.694 6.322a4.001 4.001 0 0 1-7.728-2.07l1.694-6.323-7.029-1.883-3.863-1.036a4.365 4.365 0 1 1 2.26-8.43l3.863 1.034 10.92-40.75-3.51-.94a4.365 4.365 0 1 1 2.26-8.432l3.511.941 5.62 1.507 1.694-6.324a4 4 0 1 1 7.73 2.07L66.06 33.85l7.027 1.882zM55.807 56.411a5.143 5.143 0 0 1 3.637-6.298l14.39-3.856a5.142 5.142 0 1 1 2.661 9.934l-14.39 3.856a5.14 5.14 0 0 1-6.298-3.636m-6.58 23.27a5.14 5.14 0 0 1 3.636-6.299l14.39-3.856a5.142 5.142 0 1 1 2.662 9.935l-14.39 3.855a5.14 5.14 0 0 1-6.298-3.636" clip-rule="evenodd"/><path fill="#814625" d="M99.2 57.6c15.905 0 28.8-12.895 28.8-28.8S115.105 0 99.2 0 70.4 12.895 70.4 28.8s12.895 28.8 28.8 28.8"/><path fill="#fff" d="M98.126 27.342a3 3 0 0 1-.07-.293l-.028-.137a7 7 0 0 0-.075-.294c.448-.654 2.596-4.07.154-6.262-2.712-2.433-5.88.755-5.88.755l.008.015a7.8 7.8 0 0 0-4.47-.015c-.017-.018-3.175-3.18-5.878-.755s.215 6.352.23 6.373a2 2 0 0 0-.073.282c-.292 1.68-2.283 2.199-2.283 5.125s2.082 5.333 6.336 5.333h1.744c.008.01.727.992 2.202.991 1.37 0 2.274-.982 2.282-.99h1.665c4.254 0 6.336-2.35 6.336-5.334 0-2.725-1.726-3.362-2.2-4.794M118.451 24s.315-2.821-2.089-3.427v-1.131H114.5v1.103c-2.536.54-2.209 3.455-2.209 3.455v.484s-.327 2.914 2.21 3.454v2.42c-2.674.47-2.336 3.48-2.336 3.48v.484s-.326 2.914 2.209 3.456v1.102h1.863v-1.132c2.404-.605 2.087-3.426 2.087-3.426a.187.187 0 0 0 .191-.183v-.117a.187.187 0 0 0-.191-.184s.314-2.796-2.056-3.418v-2.483h-.029c2.539-.539 2.211-3.453 2.211-3.453a.19.19 0 0 0 .175-.113.2.2 0 0 0 .016-.072v-.116a.2.2 0 0 0-.058-.131.2.2 0 0 0-.132-.052m-1.519 9.838h-.17a.2.2 0 0 0-.134.052.2.2 0 0 0-.057.132v.117c0 .102.086.183.191.183h.17c0 1.75-.604 2.044-.807 2.094-.033.007-.066-.017-.066-.049v-.558c0-.307-.204-.477-.407-.57a1 1 0 0 0-.817 0c-.203.093-.407.261-.407.57v.558l-.005.022-.015.018-.021.01-.023-.001c-.202-.049-.809-.34-.809-2.094v-.484c0-1.749.604-2.043.807-2.093.033-.008.066.015.066.049v.558c0 .307.205.476.407.568.259.115.558.115.817 0 .205-.092.408-.26.408-.568v-.558q0-.012.006-.023l.014-.017a.05.05 0 0 1 .044-.009c.202.049.808.34.808 2.093m-.046-9.354h.17c0 1.752-.605 2.044-.808 2.092l-.023.001-.02-.01a.04.04 0 0 1-.015-.017.04.04 0 0 1-.006-.022v-.558c0-.308-.204-.478-.409-.569a1 1 0 0 0-.816 0c-.203.091-.407.26-.407.569v.558c0 .033-.032.056-.066.048-.202-.05-.807-.344-.807-2.094V24c0-1.754.607-2.046.808-2.094a.05.05 0 0 1 .044.008l.015.018.005.022v.558c0 .308.205.478.41.57a1 1 0 0 0 .815 0c.205-.092.408-.261.408-.57v-.558q0-.012.006-.022a.04.04 0 0 1 .015-.018l.02-.009h.023c.205.05.807.345.807 2.095h-.169a.19.19 0 0 0-.175.111.2.2 0 0 0-.016.072v.116c0 .103.086.183.191.183m-7.753 4.498s.329-2.931-2.231-3.46v-2.633c2.492-.563 2.168-3.445 2.168-3.445h-1.391c0 1.753-.606 2.045-.808 2.094a.05.05 0 0 1-.044-.01l-.015-.017-.005-.023v-.557c0-.309-.205-.477-.41-.57a1 1 0 0 0-.815 0c-.205.093-.407.261-.407.57v.557c0 .033-.033.057-.067.048-.202-.048-.806-.343-.806-2.092h-1.39s-.335 2.991 2.312 3.475v2.6c-2.58.52-2.249 3.463-2.249 3.463v.484s-.331 2.944 2.249 3.462v2.481c-2.647.483-2.312 3.474-2.312 3.474h1.391c0-1.754.606-2.045.808-2.094a.05.05 0 0 1 .064.05v.557c0 .308.205.477.41.57a1 1 0 0 0 .815 0c.204-.093.407-.262.407-.57v-.557c0-.033.033-.058.067-.049.202.049.806.343.806 2.093h1.391s.324-2.883-2.168-3.446v-2.512c2.56-.528 2.231-3.459 2.231-3.459a.19.19 0 0 0 .175-.113.2.2 0 0 0 .016-.071v-.117a.186.186 0 0 0-.192-.183m-1.562.484h.17c0 1.754-.605 2.046-.807 2.094h-.023a.05.05 0 0 1-.036-.028l-.005-.022v-.557c0-.308-.205-.477-.41-.57a1 1 0 0 0-.815 0c-.205.093-.407.262-.407.57v.557c0 .034-.034.058-.067.049-.202-.049-.806-.343-.806-2.093v-.484c0-1.753.605-2.045.807-2.094h.024l.021.01.014.017a.04.04 0 0 1 .005.023v.557c0 .308.205.477.41.57a1 1 0 0 0 .815 0c.204-.093.407-.262.407-.57v-.557c0-.033.034-.058.067-.05.202.051.806.346.806 2.094h-.17a.187.187 0 0 0-.192.183v.118c0 .101.086.183.192.183"/><defs><linearGradient id="_solvbtc-bera" x1="64" x2="64" y1="-.001" y2="127.999" gradientUnits="userSpaceOnUse"><stop stop-color="#fedf70"/><stop offset="1" stop-color="#d88528"/></linearGradient></defs></svg>
