<svg xmlns="http://www.w3.org/2000/svg" viewBox="0 0 192 128"><svg viewBox="0 0 1472 1472"><g filter="url(#_stbgt)"><path fill="#E50571" d="M109 736c0-346.283 280.717-627 627-627 346.28 0 627 280.717 627 627 0 346.28-280.72 627-627 627-346.283 0-627-280.72-627-627"/><path fill="#fff" d="M994.445 853.465q49.086 65.58 20.585 142.578c-19.009 51.327-56.715 84.997-113.132 101.007q-40.466 11.49-82.565.9-42.094-10.575-69.008-40.05-97.613 43.605-183.417-4.26c-57.206-31.92-91.58-83.783-103.125-155.599q-42.706-10.408-72.595-41.017-29.889-30.607-43.114-77.212-21.23-74.811 33.785-140.114 55.012-65.305 127.668-56.77l85.084 10.31q13.742-44.978 47.423-80.378 33.686-35.399 79.593-51.076l-18.096-63.773q-4.525-15.942 2.942-29.325 7.463-13.383 23.409-17.907 15.941-4.524 29.325 2.942 13.382 7.467 17.905 23.409l20.882 73.582q49.203.618 86.816 21.082 37.61 20.469 73.078 66.06l71.132-20.185c10.63-3.016 20.4-2.036 29.32 2.943 8.93 4.978 14.89 12.779 17.91 23.409 3.01 10.627 2.04 20.403-2.94 29.325s-12.78 14.889-23.41 17.905l-63.775 18.099q10.775 47.298-.43 94.209-11.204 46.908-42.261 82.224zM698.653 969.209q-9.398-33.114-12.752-65.953-3.358-32.84-.672-65.402c-16.25 14.327-34.69 26.406-55.311 36.235q-30.935 14.74-63.514 21.336 13.57 47.83 48.996 67.592 35.423 19.764 83.253 6.192M550.827 793.833q39.241-11.135 66.505-29.472 27.263-18.34 66.739-61.346L519.503 683.46q-39.74-4.624-60.532 17.838-20.79 22.464-11.395 55.578 9.048 31.885 34.073 40.685 25.024 8.802 69.178-3.728m323.23 205.109q30.66-8.7 43.579-35.559 12.919-26.856-3.505-47.372L800.577 768.016q-12.166 45.858-13.907 88.754-1.737 42.9 7.31 74.785 11.485 40.471 31.677 57.931 20.196 17.465 48.4 9.456m3.683-295.227q8.784-15.747 10.399-38.068 1.615-22.324-4.647-44.399-11.14-39.245-44.549-58.916t-71.428-8.885q-22.073 6.265-39.608 19.192-17.534 12.925-27.196 30.246l108.186 17.003z"/></g><defs><filter id="_stbgt" width="1471.97" height="1471.97" x=".017" y=".017" color-interpolation-filters="sRGB" filterUnits="userSpaceOnUse"><feFlood flood-opacity="0" result="BackgroundImageFix"/><feColorMatrix in="SourceAlpha" result="hardAlpha" values="0 0 0 0 0 0 0 0 0 0 0 0 0 0 0 0 0 0 127 0"/><feOffset/><feGaussianBlur stdDeviation="54.492"/><feComposite in2="hardAlpha" operator="out"/><feColorMatrix values="0 0 0 0 0.898039 0 0 0 0 0.0196078 0 0 0 0 0.443137 0 0 0 0.5 0"/><feBlend in2="BackgroundImageFix" result="effect1"/><feColorMatrix in="SourceAlpha" result="hardAlpha" values="0 0 0 0 0 0 0 0 0 0 0 0 0 0 0 0 0 0 127 0"/><feOffset/><feGaussianBlur stdDeviation="21.797"/><feComposite in2="hardAlpha" operator="out"/><feColorMatrix values="0 0 0 0 1 0 0 0 0 0.666455 0 0 0 0 0.827271 0 0 0 0.25 0"/><feBlend in2="effect1" result="effect2"/><feBlend in="SourceGraphic" in2="effect2" result="shape"/></filter></defs></svg><svg x="64" viewBox="0 0 128 128"><circle cx="64" cy="64" r="64" fill="#78350F"/><circle cx="64" cy="64" r="58" fill="#fff"/><path fill="#78350F" d="M47.52 41.136a10 10 0 0 0-3.486-1.37 9.2 9.2 0 0 0-3.668.042 9 9 0 0 0-3.288 1.442 8.6 8.6 0 0 0-2.414 2.634 9 9 0 0 0-1.168 3.424 9.4 9.4 0 0 0 .252 3.682c.538 2.012 3.024 2.396 4.732 1.172l4.352-3.112 4.364-3.12c1.706-1.226 2.104-3.674.324-4.794m46.014 2.748a8.66 8.66 0 0 0-5.702-4.076 9.2 9.2 0 0 0-3.668-.04 10 10 0 0 0-3.488 1.368c-1.78 1.12-1.38 3.568.326 4.792l4.364 3.122 4.352 3.112c1.708 1.224 4.194.84 4.732-1.172a9.4 9.4 0 0 0 .252-3.682 9 9 0 0 0-1.168-3.424M67.63 77.598a10.16 10.16 0 0 0-6.47 0c-1.16.394-2.172 1.006-2.108 1.928.116 1.412 2.36 3.828 3.982 4.326.992.3 1.614.28 2.72 0 1.622-.416 3.878-2.914 3.984-4.326.074-.922-.95-1.532-2.108-1.928m-11.118-4.544a7.2 7.2 0 0 0-2.128-1.888 6.8 6.8 0 0 0-2.666-.88 7 7 0 0 0-2.804.258c-.906.28-1.76.736-2.508 1.36a7.6 7.6 0 0 0-1.834 2.25c-.77 1.44.454 2.956 2.098 3.142l4.152.468 4.184.476c1.644.188 3.192-1.006 2.77-2.582a7.6 7.6 0 0 0-1.264-2.604m25.736-1.298a7.4 7.4 0 0 0-2.51-1.36 7 7 0 0 0-2.802-.258 6.8 6.8 0 0 0-2.666.882 7.2 7.2 0 0 0-2.13 1.888 7.5 7.5 0 0 0-1.264 2.604c-.42 1.576 1.128 2.77 2.76 2.582l4.186-.476 4.16-.468c1.646-.186 2.868-1.7 2.1-3.142a7.8 7.8 0 0 0-1.834-2.252"/><path fill="#78350F" d="M102.018 61.8a20.7 20.7 0 0 0 5.438-14.22 20.6 20.6 0 0 0-2.076-8.788c-3.732-7.718-13.174-13.744-22.838-11.732q-.59.13-1.168.302a11.6 11.6 0 0 0-3.92 2.08c-2.582 2.06-7.326 3.44-12.752 3.44h-.616c-5.424 0-10.168-1.384-12.75-3.444a11.6 11.6 0 0 0-3.922-2.078 16 16 0 0 0-1.168-.302c-9.662-2.012-19.104 4.014-22.836 11.732a20.6 20.6 0 0 0-2.076 8.786 20.72 20.72 0 0 0 5.44 14.222 1.46 1.46 0 0 1 .356 1.204c-2.328 13.1 1.108 23.88 8.18 31.554 7.428 8.06 18.324 12.076 28.894 12.294h.382c10.568-.218 21.466-4.232 28.894-12.292 7.072-7.676 10.508-18.454 8.18-31.556a1.45 1.45 0 0 1 .356-1.204zm-6.186-2.272a1.74 1.74 0 0 0-.6 1.764c5.49 22.872-8.62 36.224-24.83 39.086h-.01a38 38 0 0 1-4.732.54c-.094 0-.2.01-.294.01-.296.02-.6.02-.896.032h-.074l-.02-.002h-.054c-.296-.01-.6-.01-.896-.03-.094 0-.2-.012-.296-.012a38 38 0 0 1-4.73-.54h-.012C42.18 97.516 28.068 84.164 33.56 61.29a1.74 1.74 0 0 0-.6-1.762 15 15 0 0 1-5.66-11.9 14.9 14.9 0 0 1 1.486-6.306c2.76-5.716 9.706-9.876 16.23-8.516.764.156 2.812.82 4.808 1.756.724.34 1.404.764 2.04 1.244 2.616 1.976 7.25 3.29 12.532 3.296 5.284-.004 9.92-1.32 12.534-3.294.636-.48 1.314-.904 2.04-1.244 1.994-.936 4.042-1.6 4.808-1.758 6.522-1.36 13.468 2.8 16.23 8.518a14.9 14.9 0 0 1 1.484 6.306 15 15 0 0 1-5.66 11.898"/></svg></svg>
