<svg xmlns="http://www.w3.org/2000/svg" viewBox="0 0 128 128"><g filter="url(#_stbgt)"><path fill="#E50571" d="M9.478 64C9.478 33.888 33.888 9.478 64 9.478S118.522 33.888 118.522 64 94.112 118.522 64 118.522 9.478 94.112 9.478 64"/><path fill="#fff" d="M86.474 74.214q4.268 5.703 1.79 12.398-2.48 6.696-9.838 8.784-3.52.999-7.18.078-3.66-.92-6-3.483-8.489 3.792-15.95-.37-7.461-4.164-8.967-13.53-3.714-.906-6.313-3.567-2.598-2.663-3.749-6.714-1.845-6.505 2.938-12.184t11.102-4.937l7.398.897q1.196-3.911 4.124-6.99a17 17 0 0 1 6.921-4.44l-1.573-5.546q-.394-1.387.255-2.55.65-1.164 2.036-1.558 1.386-.392 2.55.256 1.164.65 1.557 2.036l1.816 6.398q4.278.054 7.549 1.834 3.27 1.78 6.355 5.744l6.185-1.755q1.386-.394 2.55.256 1.163.648 1.557 2.035.393 1.386-.256 2.55-.65 1.164-2.035 1.557l-5.546 1.574a17.8 17.8 0 0 1-.037 8.192q-.975 4.08-3.675 7.15zM60.752 84.28a33.4 33.4 0 0 1-1.108-5.735 31 31 0 0 1-.059-5.687 20.7 20.7 0 0 1-4.81 3.15 23.8 23.8 0 0 1-5.523 1.856q1.18 4.16 4.261 5.878 3.08 1.718 7.24.538M47.899 69.03q3.412-.969 5.783-2.563 2.37-1.594 5.803-5.334l-14.31-1.7q-3.456-.403-5.264 1.55-1.807 1.955-.99 4.833.786 2.773 2.962 3.538t6.016-.324m28.107 17.836q2.665-.757 3.79-3.093 1.123-2.335-.305-4.119l-9.875-12.869q-1.058 3.987-1.209 7.718-.15 3.73.636 6.503.998 3.519 2.754 5.037 1.757 1.52 4.209.823m.32-25.672q.764-1.37.904-3.31a11.1 11.1 0 0 0-.404-3.861q-.968-3.413-3.873-5.124t-6.212-.772q-1.92.545-3.444 1.669t-2.365 2.63l9.408 1.478z"/></g><defs><filter id="_stbgt" width="117.943" height="117.943" x="5.028" y="5.028" color-interpolation-filters="sRGB" filterUnits="userSpaceOnUse"><feFlood flood-opacity="0" result="BackgroundImageFix"/><feColorMatrix in="SourceAlpha" result="hardAlpha" values="0 0 0 0 0 0 0 0 0 0 0 0 0 0 0 0 0 0 127 0"/><feOffset/><feGaussianBlur stdDeviation="2.225"/><feComposite in2="hardAlpha" operator="out"/><feColorMatrix values="0 0 0 0 1 0 0 0 0 0.666455 0 0 0 0 0.827271 0 0 0 0.25 0"/><feBlend in2="BackgroundImageFix" result="effect1"/><feBlend in="SourceGraphic" in2="effect1" result="shape"/><feColorMatrix in="SourceAlpha" result="hardAlpha" values="0 0 0 0 0 0 0 0 0 0 0 0 0 0 0 0 0 0 127 0"/><feOffset/><feGaussianBlur stdDeviation="5.56"/><feComposite in2="hardAlpha" k2="-1" k3="1" operator="arithmetic"/><feColorMatrix values="0 0 0 0 0.898039 0 0 0 0 0.0196078 0 0 0 0 0.443137 0 0 0 0.5 0"/><feBlend in2="shape"/></filter></defs></svg>
