<svg xmlns="http://www.w3.org/2000/svg" viewBox="0 0 256 128"><svg viewBox="0 0 128 128"><g filter="url(#_stbgt)"><path fill="#E50571" d="M9.478 64C9.478 33.888 33.888 9.478 64 9.478S118.522 33.888 118.522 64 94.112 118.522 64 118.522 9.478 94.112 9.478 64"/><path fill="#fff" d="M86.474 74.214q4.268 5.703 1.79 12.398-2.48 6.696-9.838 8.784-3.52.999-7.18.078-3.66-.92-6-3.483-8.489 3.792-15.95-.37-7.461-4.164-8.967-13.53-3.714-.906-6.313-3.567-2.598-2.663-3.749-6.714-1.845-6.505 2.938-12.184t11.102-4.937l7.398.897q1.196-3.911 4.124-6.99a17 17 0 0 1 6.921-4.44l-1.573-5.546q-.394-1.387.255-2.55.65-1.164 2.036-1.558 1.386-.392 2.55.256 1.164.65 1.557 2.036l1.816 6.398q4.278.054 7.549 1.834 3.27 1.78 6.355 5.744l6.185-1.755q1.386-.394 2.55.256 1.163.648 1.557 2.035.393 1.386-.256 2.55-.65 1.164-2.035 1.557l-5.546 1.574a17.8 17.8 0 0 1-.037 8.192q-.975 4.08-3.675 7.15zM60.752 84.28a33.4 33.4 0 0 1-1.108-5.735 31 31 0 0 1-.059-5.687 20.7 20.7 0 0 1-4.81 3.15 23.8 23.8 0 0 1-5.523 1.856q1.18 4.16 4.261 5.878 3.08 1.718 7.24.538M47.899 69.03q3.412-.969 5.783-2.563 2.37-1.594 5.803-5.334l-14.31-1.7q-3.456-.403-5.264 1.55-1.807 1.955-.99 4.833.786 2.773 2.962 3.538t6.016-.324m28.107 17.836q2.665-.757 3.79-3.093 1.123-2.335-.305-4.119l-9.875-12.869q-1.058 3.987-1.209 7.718-.15 3.73.636 6.503.998 3.519 2.754 5.037 1.757 1.52 4.209.823m.32-25.672q.764-1.37.904-3.31a11.1 11.1 0 0 0-.404-3.861q-.968-3.413-3.873-5.124t-6.212-.772q-1.92.545-3.444 1.669t-2.365 2.63l9.408 1.478z"/></g><defs><filter id="_stbgt" width="117.943" height="117.943" x="5.028" y="5.028" color-interpolation-filters="sRGB" filterUnits="userSpaceOnUse"><feFlood flood-opacity="0" result="BackgroundImageFix"/><feColorMatrix in="SourceAlpha" result="hardAlpha" values="0 0 0 0 0 0 0 0 0 0 0 0 0 0 0 0 0 0 127 0"/><feOffset/><feGaussianBlur stdDeviation="2.225"/><feComposite in2="hardAlpha" operator="out"/><feColorMatrix values="0 0 0 0 1 0 0 0 0 0.666455 0 0 0 0 0.827271 0 0 0 0.25 0"/><feBlend in2="BackgroundImageFix" result="effect1"/><feBlend in="SourceGraphic" in2="effect1" result="shape"/><feColorMatrix in="SourceAlpha" result="hardAlpha" values="0 0 0 0 0 0 0 0 0 0 0 0 0 0 0 0 0 0 127 0"/><feOffset/><feGaussianBlur stdDeviation="5.56"/><feComposite in2="hardAlpha" k2="-1" k3="1" operator="arithmetic"/><feColorMatrix values="0 0 0 0 0.898039 0 0 0 0 0.0196078 0 0 0 0 0.443137 0 0 0 0.5 0"/><feBlend in2="shape"/></filter></defs></svg><svg x="64" viewBox="0 0 128 128"><circle cx="64" cy="64" r="64" fill="#78350F"/><circle cx="64" cy="64" r="58" fill="#fff"/><path fill="#78350F" d="M47.52 41.136a10 10 0 0 0-3.486-1.37 9.2 9.2 0 0 0-3.668.042 9 9 0 0 0-3.288 1.442 8.6 8.6 0 0 0-2.414 2.634 9 9 0 0 0-1.168 3.424 9.4 9.4 0 0 0 .252 3.682c.538 2.012 3.024 2.396 4.732 1.172l4.352-3.112 4.364-3.12c1.706-1.226 2.104-3.674.324-4.794m46.014 2.748a8.66 8.66 0 0 0-5.702-4.076 9.2 9.2 0 0 0-3.668-.04 10 10 0 0 0-3.488 1.368c-1.78 1.12-1.38 3.568.326 4.792l4.364 3.122 4.352 3.112c1.708 1.224 4.194.84 4.732-1.172a9.4 9.4 0 0 0 .252-3.682 9 9 0 0 0-1.168-3.424M67.63 77.598a10.16 10.16 0 0 0-6.47 0c-1.16.394-2.172 1.006-2.108 1.928.116 1.412 2.36 3.828 3.982 4.326.992.3 1.614.28 2.72 0 1.622-.416 3.878-2.914 3.984-4.326.074-.922-.95-1.532-2.108-1.928m-11.118-4.544a7.2 7.2 0 0 0-2.128-1.888 6.8 6.8 0 0 0-2.666-.88 7 7 0 0 0-2.804.258c-.906.28-1.76.736-2.508 1.36a7.6 7.6 0 0 0-1.834 2.25c-.77 1.44.454 2.956 2.098 3.142l4.152.468 4.184.476c1.644.188 3.192-1.006 2.77-2.582a7.6 7.6 0 0 0-1.264-2.604m25.736-1.298a7.4 7.4 0 0 0-2.51-1.36 7 7 0 0 0-2.802-.258 6.8 6.8 0 0 0-2.666.882 7.2 7.2 0 0 0-2.13 1.888 7.5 7.5 0 0 0-1.264 2.604c-.42 1.576 1.128 2.77 2.76 2.582l4.186-.476 4.16-.468c1.646-.186 2.868-1.7 2.1-3.142a7.8 7.8 0 0 0-1.834-2.252"/><path fill="#78350F" d="M102.018 61.8a20.7 20.7 0 0 0 5.438-14.22 20.6 20.6 0 0 0-2.076-8.788c-3.732-7.718-13.174-13.744-22.838-11.732q-.59.13-1.168.302a11.6 11.6 0 0 0-3.92 2.08c-2.582 2.06-7.326 3.44-12.752 3.44h-.616c-5.424 0-10.168-1.384-12.75-3.444a11.6 11.6 0 0 0-3.922-2.078 16 16 0 0 0-1.168-.302c-9.662-2.012-19.104 4.014-22.836 11.732a20.6 20.6 0 0 0-2.076 8.786 20.72 20.72 0 0 0 5.44 14.222 1.46 1.46 0 0 1 .356 1.204c-2.328 13.1 1.108 23.88 8.18 31.554 7.428 8.06 18.324 12.076 28.894 12.294h.382c10.568-.218 21.466-4.232 28.894-12.292 7.072-7.676 10.508-18.454 8.18-31.556a1.45 1.45 0 0 1 .356-1.204zm-6.186-2.272a1.74 1.74 0 0 0-.6 1.764c5.49 22.872-8.62 36.224-24.83 39.086h-.01a38 38 0 0 1-4.732.54c-.094 0-.2.01-.294.01-.296.02-.6.02-.896.032h-.074l-.02-.002h-.054c-.296-.01-.6-.01-.896-.03-.094 0-.2-.012-.296-.012a38 38 0 0 1-4.73-.54h-.012C42.18 97.516 28.068 84.164 33.56 61.29a1.74 1.74 0 0 0-.6-1.762 15 15 0 0 1-5.66-11.9 14.9 14.9 0 0 1 1.486-6.306c2.76-5.716 9.706-9.876 16.23-8.516.764.156 2.812.82 4.808 1.756.724.34 1.404.764 2.04 1.244 2.616 1.976 7.25 3.29 12.532 3.296 5.284-.004 9.92-1.32 12.534-3.294.636-.48 1.314-.904 2.04-1.244 1.994-.936 4.042-1.6 4.808-1.758 6.522-1.36 13.468 2.8 16.23 8.518a14.9 14.9 0 0 1 1.484 6.306 15 15 0 0 1-5.66 11.898"/></svg></svg>
