<svg xmlns="http://www.w3.org/2000/svg" viewBox="0 0 128 128"><circle cx="64" cy="64" r="64" fill="#FFF"/><path d="M55.37 43.19h8.338L44.824 84.84h-8.337zm16.679 0h-8.337l18.884 41.65h8.337zm-8.41 20.572 8.323 21.151H55.317z"/><path d="M109.536 70.428c-3.216 22.265-22.358 39.37-45.492 39.37s-42.276-17.105-45.491-39.37h-7.17c3.265 26.204 25.597 46.481 52.661 46.481s49.396-20.277 52.66-46.48zm-90.983-13.28c3.215-22.265 22.357-39.37 45.491-39.37s42.276 17.106 45.492 39.37h7.168c-3.264-26.204-25.596-46.481-52.66-46.481s-49.396 20.277-52.66 46.48z"/></svg>
