<svg xmlns="http://www.w3.org/2000/svg" viewBox="0 0 192 128"><circle cx="64" cy="64" r="64"/><circle cx="64" cy="64" r="61.5" fill="#fff"/><path d="M53.765 11.228c-24.37 4.709-42.78 26.211-42.78 52.026s18.41 47.318 42.78 52.026v-4.965c-21.672-4.633-37.928-23.943-37.928-47.06s16.256-42.428 37.928-47.06zm20.195 4.984v-4.965c24.328 4.743 42.692 26.225 42.692 52.007 0 25.783-18.364 47.266-42.69 52.009v-4.968c21.627-4.667 37.836-23.955 37.836-47.04S95.588 20.88 73.961 16.213"/><path d="M71.345 61.484q6.046 1.155 9.38 4.458 3.334 3.22 3.334 8.255v5.283q0 6.027-4.34 9.74-4.342 3.634-11.397 3.633h-1.626v8.421h-5.583v-8.42h-1.705q-4.651 0-8.216-2.064-3.568-2.147-5.583-5.944-1.936-3.88-1.938-8.915h5.583q0 5.117 2.79 8.337 2.868 3.137 7.52 3.137h8.606q4.572 0 7.364-2.147 2.79-2.229 2.791-5.778v-5.283q0-2.806-2.094-4.788-2.015-1.98-5.582-2.56l-13.955-2.475q-5.892-1.074-9.147-4.459t-3.256-8.502v-4.457q0-6.028 4.186-9.576 4.263-3.632 11.24-3.632h1.396v-8.42h5.582v8.42h1.782q6.59 0 10.622 4.292 4.03 4.21 4.03 11.143h-5.583q0-4.539-2.478-7.263-2.481-2.725-6.59-2.725h-8.76q-4.42 0-7.054 2.147-2.637 2.064-2.636 5.613v4.458q0 2.89 1.937 4.87 2.015 1.981 5.504 2.642z"/><circle cx="64" cy="64" r="64" fill="#FEF3C7" transform="translate(64)"/><path fill="#D97706" d="M109.734 93.88h-9.816a9.7 9.7 0 0 1-4.676-1.152 9.14 9.14 0 0 1-3.426-3.196l-5.232-8.524a7.4 7.4 0 0 1-1.25-4.178c0-1.534.416-2.856 1.25-4.134l5.324-8.654-5.324-8.61a7.54 7.54 0 0 1-1.25-4.176c0-1.492.416-2.9 1.25-4.178l5.232-8.524a8.8 8.8 0 0 1 3.426-3.198 9.8 9.8 0 0 1 4.676-1.192h9.816l5.186-8.44a8.8 8.8 0 0 1 3.426-3.196 9.8 9.8 0 0 1 4.676-1.194h9.956c1.712 0 3.24.384 4.676 1.194a9.14 9.14 0 0 1 3.426 3.196l5.232 8.44h9.816c1.714 0 3.24.382 4.676 1.192a9.14 9.14 0 0 1 3.426 3.198l5.186 8.524c.834 1.28 1.25 2.644 1.25 4.178s-.416 2.898-1.25 4.176l-5.324 8.61 5.324 8.654c.834 1.28 1.25 2.642 1.25 4.134a7.53 7.53 0 0 1-1.25 4.178l-5.186 8.524a8.8 8.8 0 0 1-3.426 3.196 9.8 9.8 0 0 1-4.676 1.152h-9.816l-5.232 8.44a8.8 8.8 0 0 1-3.426 3.196 9.8 9.8 0 0 1-4.676 1.15h-9.958a9.7 9.7 0 0 1-4.676-1.15 9.14 9.14 0 0 1-3.426-3.196zm36.578-34.1h9.954l5.094-8.524-5.094-8.526h-9.954l-5.232 8.526zm-23.15 12.788h9.722l5.186-8.526-5.186-8.524h-9.722l-5.186 8.524zm0-25.574h9.722l5.326-8.654-5.186-8.396h-9.956l-5.184 8.396 5.324 8.654zm-8.196 4.26-5.186-8.524h-9.816l-5.186 8.526 5.186 8.524h9.816zm0 25.576-5.186-8.524h-9.954l-5.094 8.524 5.186 8.524h9.816l5.186-8.524zm8.196 4.262-5.326 8.61 5.186 8.44h9.956l5.186-8.44-5.326-8.61h-9.722zm23.15 4.262h9.816l5.186-8.524-5.186-8.524h-9.816l-5.232 8.524z"/></svg>
