<svg xmlns="http://www.w3.org/2000/svg" viewBox="0 0 128 128"><circle cx="64" cy="64" r="64" fill="#fff"/><path fill="#664aed" d="M56.774 89.41 49.5 87.57l-2.677 10.574 7.273 1.842z"/><path fill="#146af4" d="m69.373 92.597-7.274-1.843-2.676 10.575 7.273 1.842zm16.053-63.48-7.273-1.84-2.678 10.575 7.273 1.842z"/><path fill="#664aed" d="m72.88 25.902-7.273-1.841-2.677 10.574 7.273 1.842z"/><path fill="#9077ed" d="m72.763 93.493-37.557-9.528 2.255-8.93 37.559 9.529c3.221.828 6.443-.966 7.18-3.959.736-2.991-1.243-6.075-4.465-6.903l-23.473-5.938 2.255-8.929 23.474 5.937C88.46 66.935 93.753 75.128 91.728 83c-2.025 7.87-10.54 12.611-19.01 10.448z"/><path fill="#664aed" d="M70.193 36.509 57.923 33.4l-13.41 52.964 12.27 3.106z"/><path fill="#6ff1e1" d="m74.103 68.037-23.474-5.938 2.255-8.929 23.474 5.938c3.222.828 6.444-.966 7.18-3.959.737-2.992-1.243-6.075-4.465-6.904l-32.77-8.284 2.254-8.93 32.771 8.285c8.47 2.164 13.762 10.356 11.737 18.226-2.025 7.871-10.54 12.612-19.009 10.449z"/><path fill="#664aed" d="m70.139 36.47-12.27-3.108-2.565 10.13 12.27 3.106z"/></svg>
