<svg xmlns="http://www.w3.org/2000/svg" viewBox="0 0 192 128"><circle cx="64" cy="64" r="64" fill="#2775ca"/><path fill="#fff" d="M81.6 74.133C81.6 64.8 76 61.6 64.8 60.267c-8-1.067-9.6-3.2-9.6-6.934s2.667-6.133 8-6.133c4.8 0 7.467 1.6 8.8 5.6.267.8 1.067 1.333 1.867 1.333h4.266c1.067 0 1.867-.8 1.867-1.866V52c-1.067-5.867-5.867-10.4-12-10.933v-6.4c0-1.067-.8-1.867-2.133-2.134h-4c-1.067 0-1.867.8-2.134 2.134V40.8c-8 1.067-13.066 6.4-13.066 13.067 0 8.8 5.333 12.266 16.533 13.6 7.467 1.333 9.867 2.933 9.867 7.2s-3.734 7.2-8.8 7.2c-6.934 0-9.334-2.934-10.134-6.934-.266-1.066-1.066-1.6-1.866-1.6h-4.534c-1.066 0-1.866.8-1.866 1.867v.267C46.933 82.133 51.2 86.933 60 88.267v6.4c0 1.066.8 1.866 2.133 2.133h4c1.067 0 1.867-.8 2.134-2.133v-6.4c8-1.334 13.333-6.934 13.333-14.134"/><path fill="#fff" d="M50.4 102.133c-20.8-7.466-31.467-30.666-23.733-51.2 4-11.2 12.8-19.733 23.733-23.733 1.067-.533 1.6-1.333 1.6-2.667V20.8c0-1.067-.533-1.867-1.6-2.133-.267 0-.8 0-1.067.266-25.333 8-39.2 34.934-31.2 60.267 4.8 14.933 16.267 26.4 31.2 31.2 1.067.533 2.134 0 2.4-1.067.267-.266.267-.533.267-1.066v-3.734c0-.8-.8-1.866-1.6-2.4m28.267-83.2c-1.067-.533-2.134 0-2.4 1.067-.267.267-.267.533-.267 1.067V24.8c0 1.067.8 2.133 1.6 2.667 20.8 7.466 31.467 30.666 23.733 51.2-4 11.2-12.8 19.733-23.733 23.733-1.067.533-1.6 1.333-1.6 2.667v3.733c0 1.067.533 1.867 1.6 2.133.267 0 .8 0 1.067-.266 25.333-8 39.2-34.934 31.2-60.267-4.8-15.2-16.534-26.667-31.2-31.467"/><circle cx="64" cy="64" r="64" fill="#fef3c7" transform="translate(64)"/><path fill="#d97706" d="M109.734 93.88h-9.816a9.7 9.7 0 0 1-4.676-1.152 9.14 9.14 0 0 1-3.426-3.196l-5.232-8.524a7.4 7.4 0 0 1-1.25-4.178c0-1.534.416-2.856 1.25-4.134l5.324-8.654-5.324-8.61a7.54 7.54 0 0 1-1.25-4.176c0-1.492.416-2.9 1.25-4.178l5.232-8.524a8.8 8.8 0 0 1 3.426-3.198 9.8 9.8 0 0 1 4.676-1.192h9.816l5.186-8.44a8.8 8.8 0 0 1 3.426-3.196 9.8 9.8 0 0 1 4.676-1.194h9.956c1.712 0 3.24.384 4.676 1.194a9.14 9.14 0 0 1 3.426 3.196l5.232 8.44h9.816c1.714 0 3.24.382 4.676 1.192a9.14 9.14 0 0 1 3.426 3.198l5.186 8.524c.834 1.28 1.25 2.644 1.25 4.178s-.416 2.898-1.25 4.176l-5.324 8.61 5.324 8.654c.834 1.28 1.25 2.642 1.25 4.134a7.53 7.53 0 0 1-1.25 4.178l-5.186 8.524a8.8 8.8 0 0 1-3.426 3.196 9.8 9.8 0 0 1-4.676 1.152h-9.816l-5.232 8.44a8.8 8.8 0 0 1-3.426 3.196 9.8 9.8 0 0 1-4.676 1.15h-9.958a9.7 9.7 0 0 1-4.676-1.15 9.14 9.14 0 0 1-3.426-3.196zm36.578-34.1h9.954l5.094-8.524-5.094-8.526h-9.954l-5.232 8.526zm-23.15 12.788h9.722l5.186-8.526-5.186-8.524h-9.722l-5.186 8.524zm0-25.574h9.722l5.326-8.654-5.186-8.396h-9.956l-5.184 8.396 5.324 8.654zm-8.196 4.26-5.186-8.524h-9.816l-5.186 8.526 5.186 8.524h9.816zm0 25.576-5.186-8.524h-9.954l-5.094 8.524 5.186 8.524h9.816l5.186-8.524zm8.196 4.262-5.326 8.61 5.186 8.44h9.956l5.186-8.44-5.326-8.61h-9.722zm23.15 4.262h9.816l5.186-8.524-5.186-8.524h-9.816l-5.232 8.524z"/></svg>
