<svg width="511" height="511" viewBox="0 0 511 511" fill="none" xmlns="http://www.w3.org/2000/svg">
<rect x="2" y="2" width="507" height="507" rx="253.5" fill="#83C2E9"/>
<rect x="2" y="2" width="507" height="507" rx="253.5" stroke="black" stroke-width="4"/>
<path fill-rule="evenodd" clip-rule="evenodd" d="M186.334 156.953C186.334 132.126 206.46 112 231.287 112H279.697C304.524 112 324.65 132.126 324.65 156.953H186.334ZM137.926 212.27C137.926 187.444 158.052 167.317 182.878 167.317H328.111C352.937 167.317 373.064 187.444 373.064 212.27H137.926ZM144.848 222.646C127.66 222.646 113.727 236.579 113.727 253.767C113.727 270.955 127.66 284.888 144.848 284.888H366.154C383.342 284.888 397.275 270.955 397.275 253.767C397.275 236.579 383.342 222.646 366.154 222.646H144.848ZM141.383 298.73C141.383 323.556 161.509 343.682 186.336 343.682H331.568C356.395 343.682 376.521 323.556 376.521 298.73H141.383ZM231.287 399C206.46 399 186.334 378.874 186.334 354.047H328.108C328.108 378.874 307.982 399 283.155 399H231.287Z" fill="#FFCD4D"/>
<path d="M186.334 156.953H184.334V158.953H186.334V156.953ZM324.65 156.953V158.953H326.65V156.953H324.65ZM137.926 212.27H135.926V214.27H137.926V212.27ZM373.064 212.27V214.27H375.064V212.27H373.064ZM141.383 298.73V296.73H139.383V298.73H141.383ZM376.521 298.73H378.521V296.73H376.521V298.73ZM186.334 354.047V352.047H184.334V354.047H186.334ZM328.108 354.047H330.108V352.047H328.108V354.047ZM231.287 110C205.355 110 184.334 131.021 184.334 156.953H188.334C188.334 133.231 207.564 114 231.287 114V110ZM279.697 110H231.287V114H279.697V110ZM326.65 156.953C326.65 131.021 305.629 110 279.697 110V114C303.419 114 322.65 133.231 322.65 156.953H326.65ZM186.334 158.953H324.65V154.953H186.334V158.953ZM182.878 165.317C156.947 165.317 135.926 186.339 135.926 212.27H139.926C139.926 188.548 159.156 169.317 182.878 169.317V165.317ZM328.111 165.317H182.878V169.317H328.111V165.317ZM375.064 212.27C375.064 186.339 354.042 165.317 328.111 165.317V169.317C351.833 169.317 371.064 188.548 371.064 212.27H375.064ZM137.926 214.27H373.064V210.27H137.926V214.27ZM115.727 253.767C115.727 237.684 128.765 224.646 144.848 224.646V220.646C126.555 220.646 111.727 235.475 111.727 253.767H115.727ZM144.848 282.888C128.765 282.888 115.727 269.85 115.727 253.767H111.727C111.727 272.059 126.555 286.888 144.848 286.888V282.888ZM366.154 282.888H144.848V286.888H366.154V282.888ZM395.275 253.767C395.275 269.85 382.237 282.888 366.154 282.888V286.888C384.446 286.888 399.275 272.059 399.275 253.767H395.275ZM366.154 224.646C382.237 224.646 395.275 237.684 395.275 253.767H399.275C399.275 235.475 384.446 220.646 366.154 220.646V224.646ZM144.848 224.646H366.154V220.646H144.848V224.646ZM186.336 341.682C162.614 341.682 143.383 322.452 143.383 298.73H139.383C139.383 324.661 160.405 345.682 186.336 345.682V341.682ZM331.568 341.682H186.336V345.682H331.568V341.682ZM374.521 298.73C374.521 322.452 355.29 341.682 331.568 341.682V345.682C357.499 345.682 378.521 324.661 378.521 298.73H374.521ZM141.383 300.73H376.521V296.73H141.383V300.73ZM184.334 354.047C184.334 379.978 205.355 401 231.287 401V397C207.564 397 188.334 377.769 188.334 354.047H184.334ZM328.108 352.047H186.334V356.047H328.108V352.047ZM283.155 401C309.087 401 330.108 379.978 330.108 354.047H326.108C326.108 377.769 306.877 397 283.155 397V401ZM231.287 401H283.155V397H231.287V401Z" fill="black"/>
</svg>
