<svg xmlns="http://www.w3.org/2000/svg" viewBox="0 0 128 128"><path fill="#83c2e9" stroke="#000" d="M127.499 64C127.499 28.93 99.069.501 64 .501S.501 28.931.501 64 28.931 127.499 64 127.499 127.499 99.069 127.499 64Z"/><path fill="#ffcd4d" stroke="#000" d="M46.675 39.315c0-6.219 5.041-11.26 11.26-11.26H70.06c6.219 0 11.26 5.041 11.26 11.26zM34.549 53.171c0-6.218 5.041-11.26 11.26-11.26h36.38c6.218 0 11.26 5.042 11.26 11.26zm1.734 2.6a7.795 7.795 0 0 0 0 15.59h55.435a7.795 7.795 0 0 0 0-15.59zm-.868 19.058c0 6.218 5.041 11.26 11.26 11.26h36.38c6.218 0 11.26-5.042 11.26-11.26zm22.52 25.116c-6.219 0-11.26-5.041-11.26-11.26h35.513c0 6.219-5.042 11.26-11.26 11.26z"/></svg>
