<svg xmlns="http://www.w3.org/2000/svg" viewBox="0 0 192 128"><circle cx="64" cy="64" r="64" fill="#78350F"/><circle cx="64" cy="64" r="58" fill="#fff"/><path fill="#78350F" d="M47.52 41.136a10 10 0 0 0-3.486-1.37 9.2 9.2 0 0 0-3.668.042 9 9 0 0 0-3.288 1.442 8.6 8.6 0 0 0-2.414 2.634 9 9 0 0 0-1.168 3.424 9.4 9.4 0 0 0 .252 3.682c.538 2.012 3.024 2.396 4.732 1.172l4.352-3.112 4.364-3.12c1.706-1.226 2.104-3.674.324-4.794m46.014 2.748a8.66 8.66 0 0 0-5.702-4.076 9.2 9.2 0 0 0-3.668-.04 10 10 0 0 0-3.488 1.368c-1.78 1.12-1.38 3.568.326 4.792l4.364 3.122 4.352 3.112c1.708 1.224 4.194.84 4.732-1.172a9.4 9.4 0 0 0 .252-3.682 9 9 0 0 0-1.168-3.424M67.63 77.598a10.16 10.16 0 0 0-6.47 0c-1.16.394-2.172 1.006-2.108 1.928.116 1.412 2.36 3.828 3.982 4.326.992.3 1.614.28 2.72 0 1.622-.416 3.878-2.914 3.984-4.326.074-.922-.95-1.532-2.108-1.928m-11.118-4.544a7.2 7.2 0 0 0-2.128-1.888 6.8 6.8 0 0 0-2.666-.88 7 7 0 0 0-2.804.258c-.906.28-1.76.736-2.508 1.36a7.6 7.6 0 0 0-1.834 2.25c-.77 1.44.454 2.956 2.098 3.142l4.152.468 4.184.476c1.644.188 3.192-1.006 2.77-2.582a7.6 7.6 0 0 0-1.264-2.604m25.736-1.298a7.4 7.4 0 0 0-2.51-1.36 7 7 0 0 0-2.802-.258 6.8 6.8 0 0 0-2.666.882 7.2 7.2 0 0 0-2.13 1.888 7.5 7.5 0 0 0-1.264 2.604c-.42 1.576 1.128 2.77 2.76 2.582l4.186-.476 4.16-.468c1.646-.186 2.868-1.7 2.1-3.142a7.8 7.8 0 0 0-1.834-2.252"/><path fill="#78350F" d="M102.018 61.8a20.7 20.7 0 0 0 5.438-14.22 20.6 20.6 0 0 0-2.076-8.788c-3.732-7.718-13.174-13.744-22.838-11.732q-.59.13-1.168.302a11.6 11.6 0 0 0-3.92 2.08c-2.582 2.06-7.326 3.44-12.752 3.44h-.616c-5.424 0-10.168-1.384-12.75-3.444a11.6 11.6 0 0 0-3.922-2.078 16 16 0 0 0-1.168-.302c-9.662-2.012-19.104 4.014-22.836 11.732a20.6 20.6 0 0 0-2.076 8.786 20.72 20.72 0 0 0 5.44 14.222 1.46 1.46 0 0 1 .356 1.204c-2.328 13.1 1.108 23.88 8.18 31.554 7.428 8.06 18.324 12.076 28.894 12.294h.382c10.568-.218 21.466-4.232 28.894-12.292 7.072-7.676 10.508-18.454 8.18-31.556a1.45 1.45 0 0 1 .356-1.204zm-6.186-2.272a1.74 1.74 0 0 0-.6 1.764c5.49 22.872-8.62 36.224-24.83 39.086h-.01a38 38 0 0 1-4.732.54c-.094 0-.2.01-.294.01-.296.02-.6.02-.896.032h-.074l-.02-.002h-.054c-.296-.01-.6-.01-.896-.03-.094 0-.2-.012-.296-.012a38 38 0 0 1-4.73-.54h-.012C42.18 97.516 28.068 84.164 33.56 61.29a1.74 1.74 0 0 0-.6-1.762 15 15 0 0 1-5.66-11.9 14.9 14.9 0 0 1 1.486-6.306c2.76-5.716 9.706-9.876 16.23-8.516.764.156 2.812.82 4.808 1.756.724.34 1.404.764 2.04 1.244 2.616 1.976 7.25 3.29 12.532 3.296 5.284-.004 9.92-1.32 12.534-3.294.636-.48 1.314-.904 2.04-1.244 1.994-.936 4.042-1.6 4.808-1.758 6.522-1.36 13.468 2.8 16.23 8.518a14.9 14.9 0 0 1 1.484 6.306 15 15 0 0 1-5.66 11.898"/><path fill="#3264F6" d="M128 128c35.346 0 64-28.654 64-64S163.346 0 128 0 64 28.654 64 64s28.654 64 64 64"/><path fill="#E4BF42" d="M126.907 18.029c1.748-.019 3.516-.079 5.26.06 3.546.21 7.08.895 10.483 1.903 6.81 2.065 13.097 5.74 18.279 10.616 4.777 4.512 8.601 10.053 11.088 16.138.345.87.724 1.758.953 2.663a9.5 9.5 0 0 1-1.249-.037c-.111-.248-.22-.497-.314-.752a45.5 45.5 0 0 0-4.498-8.934c-.221-.325-.427-.733-.743-.972-.465-.071-.953-.023-1.423-.031l-16.176.001c-.608.001-1.215-.019-1.824.014q.089.455.218.903a83 83 0 0 1 2.026 9.295c.037.272.034.542.027.813-.373.025-.74.022-1.114-.005-.189-.525-.23-1.061-.325-1.606-.41-2.423-.89-4.817-1.545-7.188-.21-.748-.365-1.484-.666-2.202-.677-.054-1.341-.02-2.023-.025q-15.117.001-30.234-.002c-.253-.016-.284.234-.355.416-.8 2.827-1.5 5.678-1.979 8.579-.12.66-.193 1.319-.364 1.968a10 10 0 0 1-1.152-.01c.012-.932.232-1.782.382-2.696.444-2.382.956-4.777 1.612-7.11.112-.374.217-.748.298-1.13-.808-.039-1.62-.007-2.428-.015-5.66.006-11.334-.014-16.992.008-.386.422-.657.9-.967 1.377a48 48 0 0 0-2.469 4.377C87.71 46.426 86.5 50 86.5 50h-1.472c.137-.579.593-1.54.802-2.095a46.5 46.5 0 0 1 12.332-18.01 45.8 45.8 0 0 1 9.3-6.51c5.99-3.21 12.667-4.988 19.445-5.356m-13.631 19.39q.341.027.683.033l29.133-.001c.621-.003 1.24.016 1.86-.015-.147-.775-.475-1.546-.745-2.29-.637-1.723-1.392-3.397-2.19-5.052-1.341-2.527-2.88-4.986-4.9-7.032-1.552-1.55-3.391-2.873-5.528-3.47a8.73 8.73 0 0 0-4.868-.006c-1.935.535-3.57 1.63-5.032 2.977-1.788 1.66-3.258 3.726-4.482 5.828-1.64 2.845-2.9 5.915-3.931 9.029m9.23-17.675c-3.887.518-7.762 1.712-11.373 3.231-1.037.487-2.072.98-3.09 1.508-5.652 3.02-10.653 7.218-14.565 12.295-.148.211-.285.429-.423.647.256.013.513.026.77.028l16.043-.001c.704-.005 1.392.026 2.094-.026q.217-.579.4-1.169a48.3 48.3 0 0 1 3.694-8.378c1.486-2.596 3.25-4.96 5.542-6.901.523-.427 1.085-.802 1.594-1.243a13 13 0 0 0-.685.009m12.541-.022c.732.586 1.498 1.09 2.188 1.731 2.379 2.17 4.17 4.812 5.653 7.654a45 45 0 0 1 2.517 5.708c.344.861.598 1.751.93 2.615.742.048 1.487.015 2.232.022 5.102.004 10.204-.006 15.307.001.459.004.92.002 1.379-.028a9.7 9.7 0 0 0-1.079-1.476c-3.886-4.792-8.768-8.797-14.247-11.637a45 45 0 0 0-11.48-4.114c-1.109-.202-2.279-.498-3.4-.476M85.102 78.062c.337-.092.744-.016 1.09.013.106.24.208.48.291.727 1.217 3.629 2.925 7.077 5.023 10.276.648-.03 2.035-.132 2.683-.134h15.305c.58 0 1.159.016 1.737-.019a8 8 0 0 0-.178-.92c-.761-2.818-1.325-5.699-1.8-8.578a7 7 0 0 1-.105-1.34c.4-.065.758-.076 1.159.003.12.56.193 1.126.272 1.694.502 3.093 1.143 6.133 2.03 9.141.788.039 1.573.016 2.36.02h28.745c.653-.004 1.3.025 1.951-.024.281-.765.448-1.581.659-2.37.527-2.027.904-4.08 1.274-6.141.14-.775.194-1.554.386-2.32a3.1 3.1 0 0 1 1.167 0c-.004.412-.029.82-.106 1.226a85 85 0 0 1-1.49 7.414c-.182.733-.394 1.455-.55 2.194.478.028.957.027 1.437.022 5.727-.006 12.633.063 18.359.054 1.31-1.924 2.143-3.395 3.128-5.504.648-1.411 1.288-2.857 1.776-4.333q.146-.442.353-.859.629-.077 1.262-.08c-.443 1.505-1.02 2.978-1.629 4.424a46.3 46.3 0 0 1-8.666 13.238c-.953 1.085-2.018 2.036-3.077 3.013a47 47 0 0 1-10.154 6.887c-2.006.965-4.064 1.849-6.182 2.536-4.2 1.345-8.55 2.153-12.964 2.279-1.474.002-2.964.052-4.435-.073-3.233-.186-6.454-.759-9.572-1.627-5.983-1.656-11.622-4.577-16.458-8.464C93.13 94.792 87.79 87.06 85.045 78.45c-.029-.127-.11-.321.057-.388m38.177 30.831c-.567-.453-1.167-.864-1.732-1.322-2.3-1.95-4.027-4.321-5.522-6.92-1.627-2.877-2.894-5.906-3.908-9.048-.15-.47-.278-.943-.485-1.395-6.058-.037-12.128.007-18.188-.02-.285.011-.608-.038-.883.04-.225.143-.05.299.046.458a46.4 46.4 0 0 0 7.108 7.732 45.3 45.3 0 0 0 13.197 7.942c2.652.987 5.425 1.828 8.218 2.294.714.132 1.42.259 2.15.239M113.033 90.21c.194.945.535 1.83.862 2.74 1.141 3.115 2.5 6.09 4.312 8.875 1.087 1.623 2.348 3.22 3.82 4.51.992.841 2.092 1.66 3.29 2.175 1.533.637 3.144.988 4.807.777 2.444-.287 4.626-1.54 6.399-3.201 2.03-1.865 3.507-4.064 4.875-6.436a51 51 0 0 0 3.663-8.67c.073-.252.114-.508.155-.767-.749-.045-1.496-.014-2.248-.02h-28.123c-.605 0-1.208-.014-1.812.017m21.737 18.795c4.216-.468 8.384-1.662 12.28-3.327 1.283-.561 2.531-1.207 3.777-1.848a46 46 0 0 0 8.498-6.053c1.835-1.696 3.576-3.489 5.124-5.452.53-.678 1.091-1.362 1.514-2.103-.817-.055-1.643-.018-2.463-.025-5.186-.002-10.37.002-15.555-.006-.418.002-.842-.02-1.26.023-.317.523-.415 1.181-.633 1.751-.607 1.72-1.208 3.468-1.986 5.118-.466.909-.829 1.857-1.346 2.74-1.57 2.857-3.554 5.777-6.106 7.845-.585.489-1.223.896-1.844 1.337"/><path fill="#EFC537" d="M161.535 57.916c4.243-4.047 10.513-4.16 15.546-1.516 1.898 1.267 3.325 3.27 3.924 5.475.522 3.832.177 6.832-1.965 10.045-1.978 1.837-4.461 3.182-7.2 3.28l-.876.047c-3.378.112-5.969-.587-8.724-2.607-2.494-2.447-2.934-4.606-3.04-7.98.056-2.808.461-4.646 2.335-6.744m8.305 2.164c-1.119.012-2.111-.105-3.12.4-1.096 1.073-1.567 1.665-1.767 3.205L165 65.04c.027 1.12-.064 2.11.44 3.12 1.083 1.11 1.687 1.566 3.241 1.79l1.419-.03c1.375-.01 2.386-.011 3.632-.603.971-.752 1.241-1.255 1.628-2.437.192-2.094.427-4.05-.96-5.76-1.116-.751-1.858-.955-3.205-1.065z"/><path fill="#F0C536" d="M140.8 55.04h5.44v14.72h11.52v5.12H140.8z"/><path fill="#ECC33A" d="M118.72 55.04c6.08 0 6.08 0 7.693 1.313l1.147 1.767 1.243 1.849 1.117 1.791.957 1.421c1.923 2.872 1.923 2.872 1.923 3.699h.64l-.159-1.149c-.199-2.137-.191-4.244-.18-6.39l.008-2.442.011-1.859h5.76v19.84c-6.08 0-6.08 0-7.424-.926l-.796-1.254-.896-1.329-.804-1.291a147 147 0 0 0-1.4-1.88c-1.07-1.481-2.064-2.996-3.08-4.52v11.2h-5.76z"/><path fill="#EDC439" d="M99.52 55.04h17.6v5.12h-12.16v2.24h11.52v5.12h-11.52v2.24h12.16v5.12h-17.6z"/><path fill="#F0C536" d="M77.12 55.04h5.44v7.36h9.28v-7.36h5.44v19.84h-5.44v-7.36h-9.28v7.36h-5.44z"/></svg>
