<svg xmlns="http://www.w3.org/2000/svg" viewBox="0 0 192 128"><circle cx="64" cy="64" r="64" fill="#78350f"/><circle cx="64" cy="64" r="58" fill="#fff"/><path fill="#78350f" d="M47.52 41.136a10 10 0 0 0-3.486-1.37 9.2 9.2 0 0 0-3.668.042 9 9 0 0 0-3.288 1.442 8.6 8.6 0 0 0-2.414 2.634 9 9 0 0 0-1.168 3.424 9.4 9.4 0 0 0 .252 3.682c.538 2.012 3.024 2.396 4.732 1.172l4.352-3.112 4.364-3.12c1.706-1.226 2.104-3.674.324-4.794m46.014 2.748a8.66 8.66 0 0 0-5.702-4.076 9.2 9.2 0 0 0-3.668-.04 10 10 0 0 0-3.488 1.368c-1.78 1.12-1.38 3.568.326 4.792l4.364 3.122 4.352 3.112c1.708 1.224 4.194.84 4.732-1.172a9.4 9.4 0 0 0 .252-3.682 9 9 0 0 0-1.168-3.424M67.63 77.598a10.16 10.16 0 0 0-6.47 0c-1.16.394-2.172 1.006-2.108 1.928.116 1.412 2.36 3.828 3.982 4.326.992.3 1.614.28 2.72 0 1.622-.416 3.878-2.914 3.984-4.326.074-.922-.95-1.532-2.108-1.928m-11.118-4.544a7.2 7.2 0 0 0-2.128-1.888 6.8 6.8 0 0 0-2.666-.88 7 7 0 0 0-2.804.258c-.906.28-1.76.736-2.508 1.36a7.6 7.6 0 0 0-1.834 2.25c-.77 1.44.454 2.956 2.098 3.142l4.152.468 4.184.476c1.644.188 3.192-1.006 2.77-2.582a7.6 7.6 0 0 0-1.264-2.604m25.736-1.298a7.4 7.4 0 0 0-2.51-1.36 7 7 0 0 0-2.802-.258 6.8 6.8 0 0 0-2.666.882 7.2 7.2 0 0 0-2.13 1.888 7.5 7.5 0 0 0-1.264 2.604c-.42 1.576 1.128 2.77 2.76 2.582l4.186-.476 4.16-.468c1.646-.186 2.868-1.7 2.1-3.142a7.8 7.8 0 0 0-1.834-2.252"/><path fill="#78350f" d="M102.018 61.8a20.7 20.7 0 0 0 5.438-14.22 20.6 20.6 0 0 0-2.076-8.788c-3.732-7.718-13.174-13.744-22.838-11.732q-.59.13-1.168.302a11.6 11.6 0 0 0-3.92 2.08c-2.582 2.06-7.326 3.44-12.752 3.44h-.616c-5.424 0-10.168-1.384-12.75-3.444a11.6 11.6 0 0 0-3.922-2.078 16 16 0 0 0-1.168-.302c-9.662-2.012-19.104 4.014-22.836 11.732a20.6 20.6 0 0 0-2.076 8.786 20.72 20.72 0 0 0 5.44 14.222 1.46 1.46 0 0 1 .356 1.204c-2.328 13.1 1.108 23.88 8.18 31.554 7.428 8.06 18.324 12.076 28.894 12.294h.382c10.568-.218 21.466-4.232 28.894-12.292 7.072-7.676 10.508-18.454 8.18-31.556a1.45 1.45 0 0 1 .356-1.204zm-6.186-2.272a1.74 1.74 0 0 0-.6 1.764c5.49 22.872-8.62 36.224-24.83 39.086h-.01a38 38 0 0 1-4.732.54c-.094 0-.2.01-.294.01-.296.02-.6.02-.896.032h-.074l-.02-.002h-.054c-.296-.01-.6-.01-.896-.03-.094 0-.2-.012-.296-.012a38 38 0 0 1-4.73-.54h-.012C42.18 97.516 28.068 84.164 33.56 61.29a1.74 1.74 0 0 0-.6-1.762 15 15 0 0 1-5.66-11.9 14.9 14.9 0 0 1 1.486-6.306c2.76-5.716 9.706-9.876 16.23-8.516.764.156 2.812.82 4.808 1.756.724.34 1.404.764 2.04 1.244 2.616 1.976 7.25 3.29 12.532 3.296 5.284-.004 9.92-1.32 12.534-3.294.636-.48 1.314-.904 2.04-1.244 1.994-.936 4.042-1.6 4.808-1.758 6.522-1.36 13.468 2.8 16.23 8.518a14.9 14.9 0 0 1 1.484 6.306 15 15 0 0 1-5.66 11.898"/><circle cx="64" cy="64" r="60" fill="#382f22" transform="translate(64)"/><path fill="#e7b942" d="M112.12 19.6c3.235-1.435 7.565-.895 10.105 1.66.77.635 1.18 1.465 2.265 1.475 5.84.505 11.665 1.12 17.505 1.59.905.065 1.565.34 2.305.855 3.23 2.28 6.45 4.575 9.705 6.815.54.445 1.245.78 1.39 1.525.565 2.395.78 4.875 1.3 7.29 4.225 3.185 8.49 6.32 12.7 9.525-2.625 5.45-5.435 10.47-10.055 14.515-1.575 1.365-3.455 1.74-5.475 1.93 2.41 3.53 5.865 7.365 6.375 11.715.22 2.945.265 6.195-.68 9.02-1.825 5.93-5.53 11.31-10.28 15.275-4.185 3.47-9.375 5.61-14.78 6.16-9.47 1.01-19.465-1.54-26.985-7.48-4.5-3.52-7.87-8.26-9.98-13.555-3.515-8.715-4.12-18.68-2.7-27.9.835-5.74 2.255-11.61 4.815-16.84 1.75-3.56 4.325-6.26 7.07-9.05-.565-1.505-1.055-2.995-1.03-4.625-.1-4.195 2.62-8.23 6.43-9.9m5.38 6.415c-4.344-.045-7.395 4.975-5.805 8.895 1.115 2.945 4.105 4.415 7.165 3.78l-.12 2.23c-1.67-.195-3.425-.25-5.035-.725-.975-.495-1.795-1.33-2.63-2.02-2.145 2.77-4.265 5.42-5.805 8.595-3.005 5.99-4.06 12.615-4.785 19.215-.25 1.65.15 3.1.79 4.6 3.25-3.765 6.125-7.805 9.235-11.675.085 7.86-.065 15.735.17 23.595.225 4.99 1.59 10.895 5.355 14.46 3.165 2.785 8.07 3.845 12.145 4.345-2.13-3.83-4.16-7.65-5.37-11.885 3.855 3.95 8.165 7.405 12.04 11.355-.185-2.08-.72-4.015-1.835-5.79-2.455-3.985-6.025-7.435-8.82-11.19-2.65-3.61-4.48-7.83-5.455-12.19-.75-3.305-.54-6.655-.585-10.11-.055-3.685.45-7.33 1.415-10.88 1.185-4.455 3.56-8.795 5.61-12.92 2.115-.505 4.215-1.16 6.36-1.51q.586-.12.97.255c2.43 1.975 4.415 4.62 6.97 6.42 2.135-.35 4.26-1.615 6.42-1.665 1.67.215 2.015 1.835 2.64 3.12-3.37 1.025-6.745 2.035-10.105 3.1 4.405 2.98 8.815 5.95 13.205 8.955.875.6 1.75 1.09 2.83 1.195 1.85.145 3.43.865 4.975-.515-1.44-1.485-1.93-2.435-2.28-4.47 1.52-.305 3.055-.54 4.59-.775-2.97-2.235-5.975-4.415-8.96-6.625-2.505-1.445-.885-5.62-3.24-7.245-2.415-2.085-4.93-4.05-7.34-6.14-1.335-1.345-2.915-1.435-4.695-1.65-4.985-.475-9.72-1.565-14.635-1.435-1.545-1.515-3.09-2.765-5.384-2.7m7.25 39.835c-1.24 2.22-3.2 4.945-2.2 7.59 2.255 5.84 7.365 9.585 11.29 14.225 2.95 3.515 4.725 7.795 4.34 12.45.9-.635 2.175-1.246 2.625-2.285 1.2-2.425 1.82-5.12 1.595-7.835-.26-3.59-2.01-6.845-4.59-9.305-3.045-2.89-6.695-5.375-9.46-8.535-1.65-1.86-2.64-4.04-3.6-6.305m20.755.735c-1.84 4.265-2.77 9.086-3.48 13.665-.29 1.375.69 2.3 1.26 3.475 2.265 4.12 2.015 8.735.94 13.17 4.355-2.985 7.945-7.545 9.23-12.715.2-1.81.21-3.62.05-5.43-1.035-5.235-4.37-9.265-7.39-13.58q-.309.704-.61 1.415m-39.145 6.31c-1.3 3.26-3.15 7.045-3.13 10.585 1.055 2.31 2.495 4.47 3.84 6.62.07-6.295.025-12.59.03-18.885q-.374.84-.74 1.68m21.93-33.89c-6.005 7.89-8.14 18.786-6.98 28.5 1.68-2.42 3.2-4.795 5.316-6.88 1.98-1.95 3.924-3.7 5.409-6.095.73-1.17 1.23-2.47 1.98-3.62.845.065 1.64.27 2.455.475-.31.84-.725 1.7-.855 2.585.16.715.44 1.41.685 2.1a476 476 0 0 0-2.65-.275c-1.235 2.555-2.975 4.675-4.93 6.7.94 3.05 2.715 6.89 6.285 7.365 1.355.155 3.585.67 4.69-.335.49-1.125-.105-2-.395-3.095l1.05-1.605c-.98-.41-1.895-.2-2.905-.105.965-.7 1.975-1.24 3.07-1.71-.45-.975-.975-1.89-1.565-2.785 1-.495 2.39-.215 2.355-1.665-1.185-1.455-3.035-2.81-3.82-4.52-.41-1.23-.205-2.665-.665-3.885-.615-1.36-1.555-2.385-1.885-3.875-.405-1.64-.59-3.145-1.745-4.47-1.28-1.58-3.01-2.24-4.9-2.805m14.915 21.28c-.22 1.03-.485 2.05-.74 3.07 2.85-.135 5.695-.415 8.545-.59 1.055-.09 2.165-.1 3.11-.65.975-.575 1.8-1.5 2.595-2.305-4.355-.695-8.795-.98-13.195-1.13z"/><path fill="#e7b942" d="M115.615 31.145c.875-.315 1.85-.315 2.71.05 1.81.755 2.655 3.38 1.88 5.07-1.53 1.395-4.455.815-5.525-.965-.925-1.295-.615-3.495.935-4.155"/></svg>
