<svg xmlns="http://www.w3.org/2000/svg" viewBox="0 0 192 128"><circle cx="64" cy="64" r="64" fill="#78350F"/><circle cx="64" cy="64" r="58" fill="#fff"/><path fill="#78350F" d="M47.52 41.136a10 10 0 0 0-3.486-1.37 9.2 9.2 0 0 0-3.668.042 9 9 0 0 0-3.288 1.442 8.6 8.6 0 0 0-2.414 2.634 9 9 0 0 0-1.168 3.424 9.4 9.4 0 0 0 .252 3.682c.538 2.012 3.024 2.396 4.732 1.172l4.352-3.112 4.364-3.12c1.706-1.226 2.104-3.674.324-4.794m46.014 2.748a8.66 8.66 0 0 0-5.702-4.076 9.2 9.2 0 0 0-3.668-.04 10 10 0 0 0-3.488 1.368c-1.78 1.12-1.38 3.568.326 4.792l4.364 3.122 4.352 3.112c1.708 1.224 4.194.84 4.732-1.172a9.4 9.4 0 0 0 .252-3.682 9 9 0 0 0-1.168-3.424M67.63 77.598a10.16 10.16 0 0 0-6.47 0c-1.16.394-2.172 1.006-2.108 1.928.116 1.412 2.36 3.828 3.982 4.326.992.3 1.614.28 2.72 0 1.622-.416 3.878-2.914 3.984-4.326.074-.922-.95-1.532-2.108-1.928m-11.118-4.544a7.2 7.2 0 0 0-2.128-1.888 6.8 6.8 0 0 0-2.666-.88 7 7 0 0 0-2.804.258c-.906.28-1.76.736-2.508 1.36a7.6 7.6 0 0 0-1.834 2.25c-.77 1.44.454 2.956 2.098 3.142l4.152.468 4.184.476c1.644.188 3.192-1.006 2.77-2.582a7.6 7.6 0 0 0-1.264-2.604m25.736-1.298a7.4 7.4 0 0 0-2.51-1.36 7 7 0 0 0-2.802-.258 6.8 6.8 0 0 0-2.666.882 7.2 7.2 0 0 0-2.13 1.888 7.5 7.5 0 0 0-1.264 2.604c-.42 1.576 1.128 2.77 2.76 2.582l4.186-.476 4.16-.468c1.646-.186 2.868-1.7 2.1-3.142a7.8 7.8 0 0 0-1.834-2.252"/><path fill="#78350F" d="M102.018 61.8a20.7 20.7 0 0 0 5.438-14.22 20.6 20.6 0 0 0-2.076-8.788c-3.732-7.718-13.174-13.744-22.838-11.732q-.59.13-1.168.302a11.6 11.6 0 0 0-3.92 2.08c-2.582 2.06-7.326 3.44-12.752 3.44h-.616c-5.424 0-10.168-1.384-12.75-3.444a11.6 11.6 0 0 0-3.922-2.078 16 16 0 0 0-1.168-.302c-9.662-2.012-19.104 4.014-22.836 11.732a20.6 20.6 0 0 0-2.076 8.786 20.72 20.72 0 0 0 5.44 14.222 1.46 1.46 0 0 1 .356 1.204c-2.328 13.1 1.108 23.88 8.18 31.554 7.428 8.06 18.324 12.076 28.894 12.294h.382c10.568-.218 21.466-4.232 28.894-12.292 7.072-7.676 10.508-18.454 8.18-31.556a1.45 1.45 0 0 1 .356-1.204zm-6.186-2.272a1.74 1.74 0 0 0-.6 1.764c5.49 22.872-8.62 36.224-24.83 39.086h-.01a38 38 0 0 1-4.732.54c-.094 0-.2.01-.294.01-.296.02-.6.02-.896.032h-.074l-.02-.002h-.054c-.296-.01-.6-.01-.896-.03-.094 0-.2-.012-.296-.012a38 38 0 0 1-4.73-.54h-.012C42.18 97.516 28.068 84.164 33.56 61.29a1.74 1.74 0 0 0-.6-1.762 15 15 0 0 1-5.66-11.9 14.9 14.9 0 0 1 1.486-6.306c2.76-5.716 9.706-9.876 16.23-8.516.764.156 2.812.82 4.808 1.756.724.34 1.404.764 2.04 1.244 2.616 1.976 7.25 3.29 12.532 3.296 5.284-.004 9.92-1.32 12.534-3.294.636-.48 1.314-.904 2.04-1.244 1.994-.936 4.042-1.6 4.808-1.758 6.522-1.36 13.468 2.8 16.23 8.518a14.9 14.9 0 0 1 1.484 6.306 15 15 0 0 1-5.66 11.898"/><circle cx="64" cy="64" r="64" fill="#0A0A0A" transform="translate(64)"/><path fill="#FAFAF8" d="M129.103 21.848c.596.398 1.003.68 1.325 1.324q.013.663 0 1.325h1.986l-.055-.718c.055-.827.055-.827.372-1.365.879-.536 1.548-.47 2.552-.345.565.469.565.469.882 1.103.056.732.056.732 0 1.325l.732-.014c.813.014.813.014 1.475.234l-.179-.703c-.041-.842-.041-.842.414-1.49.648-.455.648-.455 1.31-.58.848.16 1.205.348 1.766 1.008.138.882.138.882 0 1.765-.47.552-.47.552-1.104.883-.73.055-.73.055-1.324 0v1.545h1.545l.041-.717c.18-.828.18-.828.663-1.366.729-.405 1.122-.45 1.944-.345.883.442.883.442 1.324 1.104q.03.773 0 1.544l.718-.027c.827.027.827.027 1.71.469.732.976.73 1.262.662 2.428h1.766l-.07-.593c.07-.732.07-.732.525-1.366.648-.47.648-.47 1.42-.607.773.138.773.138 1.435.593.441.648.441.648.428 1.448-.207.745-.207.745-.649 1.407-1.02.152-1.02.152-1.986.22l.22 1.546h1.546l-.07-.607c.07-.717.07-.717.51-1.242.882-.476 1.441-.5 2.428-.358.663.563.851.911.994 1.765-.141.846-.346 1.202-.993 1.766-.828.069-.828.069-1.545 0v1.545l1.544.22-.082-.703c.082-.841.082-.841.648-1.503.759-.442.759-.442 1.559-.456.823.26 1.161.391 1.627 1.118.116 1.533.116 1.533-.22 2.207l.44-.221c1.565-.126 1.565-.126 2.318.345.462.75.453 1.215.331 2.082-.317.649-.317.649-.883 1.104-1.048.069-1.048.069-1.986 0l.11.731c.11.814.11.814.11 1.476l.704-.07c.842.07.842.07 1.49.539.455.634.455.634.58 1.296-.158.84-.362 1.203-1.008 1.766-.905.148-1.372.094-2.179-.345-.602-.691-.656-1.178-.69-2.083l.221-.441-.441.22c-.841.097-.841.097-1.766 0-.662-.593-.662-.593-1.103-1.324v-1.103H153.6l-.041.717c-.18.828-.18.828-.649 1.366-.81.44-1.268.491-2.179.345-.766-.567-1.055-.907-1.283-1.835l-.041-.593h-1.987l.069.607c-.07.717-.07.717-.538 1.241-.744.42-1.118.502-1.959.359-.524-.345-.524-.345-.883-.883-.055-.828-.055-.828 0-1.545h-2.427l.055.607c-.055.717-.055.717-.414 1.228-.652.463-1.047.593-1.848.593-.635-.331-.635-.331-1.104-.883-.068-.828-.068-.828 0-1.545h-2.207l-.055.842c-.165.924-.165.924-1.048 1.586-1.532.167-1.532.167-2.303-.386-.345-.497-.345-.497-.566-1.38l-1.324-.22-.055.482c-.2.75-.527 1.156-1.048 1.724-.707.354-1.43.234-2.207.221l-.028.828c-.193.938-.193.938-.772 1.503-.916.39-1.347.411-2.29.097-.883-1.064-.883-1.064-.883-1.766h-1.103v1.104l.62.055c.704.165.704.165 1.366 1.048-.014.897-.014.897-.22 1.766-.884.662-.884.662-1.532.772-.915-.15-1.227-.482-1.78-1.214v-1.103l-1.323.22-.22 1.325.62.069c.703.151.703.151 1.365.813.083.883.083.883 0 1.766-.662.662-.662.662-1.53.786-.897-.124-.897-.124-1.449-.745-.331-.703-.331-.703-.331-1.365h-1.324l-.22 1.545.62.069c.703.151.703.151 1.365.813.083.883.083.883 0 1.766-.662.662-.662.662-1.544.745-.883-.083-.883-.083-1.545-.745-.152-.703-.152-.703-.221-1.324l-1.103.22v1.104l.51.18c.593.261.593.261 1.255.923.115.889.078 1.393-.331 2.194-.772.637-1.346.536-2.317.455l.041.938c-.041 1.048-.041 1.048-.703 1.93-.924.166-.924.166-1.766.221l-.22 2.207.73-.055.814.055c.662.883.662.883.76 1.545-.098.662-.098.662-.456 1.186-.681.466-1.038.494-1.849.359-.524-.345-.524-.345-.882-.883-.055-.828-.055-.828 0-1.545l-1.324.442c.006.533.006.533.22 1.103.644.368.644.368 1.324.662.58.87.537 1.397.442 2.428-.477.716-.76.854-1.6 1.048l-.607.055v1.766l.607.041c.717.18.717.18 1.255.648.459.844.39 1.267.124 2.18-.386.538-.386.538-.883.882h-1.103v1.987l.731.055c.814.165.814.165 1.476 1.048.092 1.035.03 1.483-.442 2.428-.91.275-.91.275-1.765.441l.22 1.103 1.325.442-.041-.607c.04-.717.04-.717.703-1.6.87-.126 1.345-.125 2.096.345.331.538.331.538.331 1.324-.22.759-.22.759-1.103 1.42-.717-.068-.717-.068-1.324-.22l.22.441q.015.993 0 1.987l.704-.07c.841.07.841.07 1.49.525.455.648.455.648.593 1.42-.174.973-.46 1.286-1.242 1.876-.62.18-.62.18-1.103.22l.22 1.325h1.104l.07-.73c.15-.815.15-.815.813-1.477 1.17-.128 1.454-.068 2.427.662.097.993.097.993 0 1.986-.662.662-.662.662-1.365.704l-.62-.041v1.986l.592-.07c.958.091 1.225.458 1.835 1.173l.22.22q.015.772 0 1.546l.704.041c1.013.216 1.351.438 1.945 1.283.069.952.069.952 0 1.765l.827-.069c.938.07.938.07 1.49.51.44.882.47 1.456.331 2.428-.599.726-.96.863-1.89.993-.758-.11-.758-.11-1.282-.441-.49-.754-.52-1.432-.58-2.317h-1.765l.069.703c-.07.842-.07.842-.524 1.476-.78.564-1.233.707-2.193.69-.619-.39-.997-.669-1.325-1.324q-.015-.772 0-1.545h-1.986l.07.593c-.07.731-.07.731-.525 1.365-.648.469-.648.469-1.434.607-.76-.138-.76-.138-1.297-.607-.406-.747-.505-1.122-.345-1.958.604-.675.927-.87 1.835-.938l.593.055-.221-1.545-1.545-.22.055.606c-.055.718-.055.718-.469 1.228-.552.439-.83.581-1.53.69-.704-.097-.704-.097-1.339-.69-.469-.731-.469-.731-.469-1.834.456-.621.456-.621 1.104-1.104.841-.069.841-.069 1.545 0l-.221-1.545-1.545-.22.07.593c-.07.73-.07.73-.525 1.365-.648.47-.648.47-1.42.607-.978-.175-1.301-.44-1.876-1.241-.158-.839-.07-1.2.344-1.945.684-.613 1.182-.651 2.083-.704v-1.324h-1.545l.055.607c-.055.717-.055.717-.386 1.242-.816.53-1.365.49-2.317.358-.752-.533-1.049-.847-1.241-1.751.19-.931.544-1.364 1.241-2 .731-.083.731-.083 1.324 0v-1.325l-1.545-.22.07.593c-.07.73-.07.73-.525 1.365-.648.47-.648.47-1.434.593-.759-.124-.759-.124-1.283-.468-.487-.732-.595-1.203-.58-2.083.456-.759.456-.759 1.104-1.325.731-.082.731-.082 1.324 0l-.22-1.324-1.325-.22.083.593c-.083.73-.083.73-.648 1.38-.759.454-.759.454-1.559.468-.81-.255-1.153-.416-1.627-1.117-.141-.826-.057-1.216.33-1.959.552-.469.552-.469 1.49-.538l.828.07-.22-1.766-1.766-.221.055.717c-.055.828-.055.828-.4 1.366-.746.478-1.213.469-2.083.345-.538-.359-.538-.359-.883-.883-.143-.841-.062-1.215.359-1.959.524-.469.524-.469 1.214-.552.634.083.634.083 1.076.304l-.221-.662q-.015-.773 0-1.545l-.703.07c-.842-.07-.842-.07-1.476-.525-.57-.787-.724-1.22-.69-2.193.455-.759.455-.759 1.103-1.324.732-.083.732-.083 1.325 0v-1.545l-1.545-.22.069.703c-.07.84-.07.84-.525 1.503-.648.441-.648.441-1.434.469-.905-.296-1.201-.509-1.641-1.352 0-.8 0-.8.22-1.545.976-.732 1.263-.729 2.428-.662v-2.207l-.828.07c-.938-.07-.938-.07-1.49-.525-.418-.819-.476-1.285-.33-2.193.469-.648.469-.648 1.103-1.103.731-.07.731-.07 1.324 0v-1.766l-.593.07c-.73-.07-.73-.07-1.365-.497-.653-.94-.627-1.543-.47-2.662.704-.828 1.366-1.005 2.428-1.104v-1.545L88 60.207c-.828-.18-.828-.18-1.365-.648-.444-.817-.51-1.263-.345-2.18.673-.753 1.053-1.078 2.069-1.172l.579.069V54.29l-.717.055c-.828-.055-.828-.055-1.352-.414-.454-.663-.596-1.04-.58-1.848.442-.745.442-.745 1.104-1.324.88-.155 1.32-.139 2.083.33.488.781.405 1.418.345 2.318l1.544-.22V51.64h-1.103c-.62-.441-.62-.441-1.103-1.103-.164-1.046-.158-1.54.455-2.414.751-.528 1.285-.622 2.193-.676l-.069-.703c.069-.842.069-.842.607-1.476l.565-.469.221-.22q.662-.015 1.324 0v-1.766l-.593.069c-.731-.07-.731-.07-1.38-.524-.454-.649-.454-.649-.468-1.435.255-.826.396-1.167 1.117-1.641.759-.124.759-.124 1.545 0 .648.469.648.469 1.103 1.103.07.731.07.731 0 1.324l1.324-.22.221-1.325-.607-.068c-.717-.152-.717-.152-1.6-.814-.234-.855-.234-.855-.22-1.766.44-.662.44-.662 1.103-1.103.923-.148 1.374-.095 2.193.358.455.525.455.525.524 1.242l-.069.607 1.324-.221.221-1.103-.73-.07c-.815-.151-.815-.151-1.477-.813-.363-1.72-.363-1.72.083-2.552.863-.473 1.6-.386 2.566-.317l.44.22-.44-.662c-.136-.89-.076-1.218.455-1.958.648-.47.648-.47 1.42-.593.902.145 1.278.318 1.876 1.007.07.717.07.717 0 1.324h1.545l.22-1.545-.717.055c-.827-.055-.827-.055-1.365-.386-.506-.809-.462-1.384-.345-2.317.345-.552.345-.552.883-.883.759-.124.759-.124 1.545 0 .648.469.648.469 1.103 1.103.07.732.07.732 0 1.325h1.766l-.097-.69c.097-.855.097-.855.773-1.614.927-.604 1.335-.698 2.413-.566l-.069-.703c.07-.841.07-.841.525-1.49.648-.455.648-.455 1.42-.593.955.17 1.266.507 1.876 1.242l.22.22v1.104h1.546V25.6l-.593.07c-.732-.07-.732-.07-1.366-.525-.469-.648-.469-.648-.607-1.434.138-.76.138-.76.607-1.297.753-.409 1.116-.503 1.959-.345.634.456.634.456 1.103 1.104.07.841.07.841 0 1.545l.731-.125c.814-.096.814-.096 1.476.124l-.055-.827c.055-.938.055-.938.386-1.49.82-.492 1.38-.461 2.317-.331.662.469.662.469 1.104 1.103.069.732.069.732 0 1.325h1.765l-.055-.593c.067-.892.324-1.204.938-1.835.63-.315 1.067-.29 1.765-.22"/><path fill="#05465B" d="M136.166 40.386h2.205l.057.731c.091.911.091.911 1.048 1.476 1.006-.04 1.255-.152 1.986-.883.16-.686.16-.686.22-1.324h2.427l.071.731c.082.87.082.87.813 1.476 1.087.139 1.288.028 2.207-.662.179-.684.179-.684.22-1.324h1.987l.29.855c.286.942.286.942 1.034 1.352 1.173.106 1.45.07 2.428-.662.284-.793.284-.793.441-1.545h1.545l.18.731c.208.862.208.862.923 1.476.555.08.555.08 1.145.041l1.062-.041-.069.69c.086 1.07.452 1.407 1.173 2.179.44.88.484 1.258.441 2.207l.607-.028c.717.028.717.028 1.6.469v.441h.441l.442 2.207.717.056c.827.165.827.165 1.366.51.498.778.417 1.4.344 2.303l-.22.442.662-.442c.817-.106 1.219-.058 1.945.345.626.698.686 1.154.703 2.083l-.441.883h1.103l.662.662c-.054.737-.133 1.016-.662 1.544-1.229-.125-1.229-.125-1.545-.44q.095-.775.221-1.546l-.442.221q-.772.015-1.544 0v1.986l.593-.069c.731.07.731.07 1.365.524.469.649.469.649.593 1.421-.148.923-.275 1.287-1.007 1.876-1.048.069-1.048.069-1.986 0l.221 1.545.703.041c1.014.216 1.352.438 1.945 1.283.152.883.152.883 0 1.765-.552.676-.552.676-1.324 1.104-.965-.041-.965-.041-1.765-.22l.055.937c-.055 1.048-.055 1.048-.373 1.614-.895.502-1.548.455-2.551.317-.782-.67-1.077-1.04-1.173-2.069l.07-.58-.815.07c-.951-.07-.951-.07-1.613-.524-.539-.791-.534-1.255-.442-2.193l-.814.069c-.951-.07-.951-.07-1.6-.538-.576-.804-.675-1.43-.675-2.4l-.704.069c-.841-.07-.841-.07-1.462-.524-.536-.72-.736-1.322-.924-2.194l-.703-.04c-1.014-.217-1.352-.439-1.945-1.284-.07-.951-.07-.951 0-1.765l-.814.055c-.952-.055-.952-.055-1.6-.414-.54-.622-.62-1.036-.676-1.848l-1.545-.22.07.592c-.07.731-.07.731-.497 1.366-.936.649-1.548.61-2.663.469-.551-.345-.551-.345-.882-.883-.166-.828-.166-.828-.221-1.545h-1.766l.07.593c-.07.731-.07.731-.497 1.366-.948.658-1.533.641-2.662.469-.676-.607-.676-.607-1.104-1.324v-.883h-1.103l-.028.593c-.26.986-.676 1.279-1.517 1.834-.745.18-.745.18-1.324.221l-.055.483c-.28 1.048-.8 1.577-1.724 2.124-.649.262-.649.262-1.31.262l-.042.704c-.214 1.003-.47 1.33-1.283 1.944-.73.18-.73.18-1.324.221l-.22 1.545.744.18c.8.261.8.261 1.242.923-.028.662-.028.662-.221 1.324-.883.663-.883.663-1.559.76-.648-.097-.648-.097-1.31-.98v-1.104l-1.104.221-.22 1.324.62.07c.704.15.704.15 1.366.813.103.925.167 1.515-.359 2.303-.62.409-1.114.5-1.848.566v1.545l.607.165c.77.296 1.127.486 1.6 1.159.133.916.098 1.377-.372 2.18-.558.511-.87.627-1.614.689.023.54.023.54.22 1.103.547.304.547.304 1.104.442l-.041-.731c.04-.814.04-.814.703-1.476.806-.12 1.18-.097 1.862.358.345.524.345.524.331 1.2-.207.649-.207.649-.869 1.31-.703.042-.703.042-1.324 0l.441.663c.028.703.028.703 0 1.324l.594.041c.935.23 1.27.504 1.834 1.283.069.952.069.952 0 1.766l.924-.083c1.062.083 1.062.083 1.738.662.452.787.533 1.18.428 2.069l.703-.055c.967.063 1.271.264 1.945.938.299.597.235 1.105.22 1.765h1.987V89.16c.345-.51.345-.51.882-.883.773-.124.773-.124 1.545 0 .552.469.552.469.883 1.103 0 .69 0 .69-.22 1.324-.883.662-.883.662-1.987.662l.22 1.545h1.325l.166-.607c.293-.763.498-1.123 1.158-1.6.93-.181 1.263-.039 2.07.47.578.634.578.634.675 1.337-.097.621-.097.621-.317 1.062l.441-.22a66 66 0 0 1 1.986 0l-.069-.828c.07-.938.07-.938.538-1.49.748-.39 1.128-.47 1.959-.33.634.317.634.317 1.103.882.07 1.049.07 1.049 0 1.986l.442-.22c1.428-.078 1.428-.078 2.207.441l-.221-.441c-.107-.948-.102-1.395.441-2.193.852-.586 1.415-.541 2.428-.456l-.166-.704c-.055-.841-.055-.841.276-1.476.717-.609 1.162-.69 2.097-.69.65.297 1.002.46 1.324 1.104.11.965.109 1.395-.469 2.193-.733.526-1.077.555-1.959.455h-.22l.055.828c-.055.938-.055.938-.47 1.476-.898.66-1.568.583-2.675.565l.055.828c-.055.938-.055.938-.4 1.476-.7.448-1.258.52-2.083.565l-.662-.22.138.717c.083.827.083.827-.358 1.71-.87.58-1.397.537-2.428.441-.552-.33-.552-.33-.883-.882-.055-.938-.055-.938 0-1.766h-1.765l-.22 1.986.592-.069c.731.07.731.07 1.38.525.455.648.455.648.455 1.448-.221.745-.221.745-.883 1.407-.869.11-.869.11-1.766 0-.565-.469-.565-.469-.882-1.104.055-.731.055-.731.22-1.324l-.855.124c-.91.097-.91.097-1.352-.124l.07.704c-.07.841-.07.841-.51 1.489-.876.602-1.387.604-2.428.455-.552-.344-.552-.344-.883-.882-.055-.828-.055-.828 0-1.545l-.442.22q-.882.013-1.765 0v1.104c-.58.79-.904 1.068-1.876 1.241-.973-.173-1.285-.46-1.876-1.241-.18-.621-.18-.621-.22-1.104l-.745.014c-.8-.014-.8-.014-1.242-.234v1.545l-1.103.441v.441c-.96.095-1.397.113-2.18-.482-.465-.616-.624-.966-.69-1.725h-1.323v1.104h-.221l-.193-.855c-.164-.9-.164-.9-.69-1.352a36 36 0 0 0-1.986 0l.055-.938c.034-1.007.034-1.007-.4-1.586-.668-.429-1.312-.608-2.083-.786l-.04-.704c-.215-1.004-.472-1.331-1.284-1.945-.702-.194-.702-.194-1.324-.22v-1.987l.759-.206c.74-.153.74-.153 1.007-.456.073-.983.073-.983 0-1.986-.818-.545-1.24-.545-2.207-.441-.6.8-.756 1.061-.884 1.986h-1.102l-.221-1.324.869-.414c.894-.356.894-.356 1.117-.91.102-1.097.102-1.097-.345-2.07-.687-.457-1.268-.516-2.084-.578l-.22-2.428.608.055c.722.001.722.001 1.255-.4.422-.546.422-.546.317-1.352l-.193-.73c-.672-.337-1.248-.274-1.986-.221-.47.703-.553 1.162-.663 1.986l-1.544-.442-.001-1.103 1.765-.441c.22-.878.302-1.53.222-2.428-.454-.639-.734-.842-1.49-1.048l-.497-.055v-1.987l.746-.165c.892-.203.892-.203 1.241-1.159 0-.79 0-.79-.22-1.545-.826-.708-.827-.708-1.767-.882v-1.766l.87-.303c.9-.246.9-.246 1.117-.8.125-1.225.125-1.225-.386-2.29-.539-.41-.539-.41-1.38-.8V63.56l1.325-.442.193.98.248 1.006c.618.31 1.083.277 1.766.221.724-.585.724-.585.73-1.324-.02-.702-.02-.702-.51-1.324-.787-.163-.787-.163-1.544-.22l.22-2.208.98-.303c1.004-.227 1.004-.227 1.227-.8q.12-.993.22-1.987l.842-.055c1.011-.072 1.011-.072 1.586-1.048.11-.782.11-.782 0-1.545-.625-.625-.96-.82-1.765-1.103 0-1.104 0-1.104.22-1.324h1.104l.317.759c.265.732.265.732.566 1.006.873.055.873.055 1.765 0 .495-.4.495-.4.485-.967l-.016-.605-.027-1.076-1.766-.442.22-1.545 1.325.001.883 1.765q.882.03 1.765 0c.535-.44.535-.44.524-1.31l-.082-.897c-.826-.708-.826-.709-1.766-.883l.22-1.324 1.325-.22.18.62c.227.762.227.762.923 1.366.9.094 1.22.07 1.987-.441.202-.868.202-.868.22-1.766-.53-.796-.87-.85-1.765-1.103v-1.104h1.103l.345.759c.462.846.462.846 1.297 1.034.89-.03 1.241-.078 1.89-.69.303-.9.303-.901.44-1.766l1.049-.137c.897-.176 1.099-.235 1.724-.951.327-.663.327-.663.538-1.338h1.324l.304.634c.314.69.314.69.8 1.131 1.291.098 1.291.098 2.427-.441.27-.896.27-.896.441-1.766"/><path fill="#034256" d="M155.586 88.055c.538.359.538.359.883.883.124.759.124.759 0 1.545-.469.648-.469.648-1.103 1.103-.931.136-1.585-.044-2.428-.441-.325-1.814-.325-1.814.18-2.648.859-.786 1.343-.694 2.468-.442"/><path fill="#F4F4F2" d="M162.98 39.131c.97.19 1.301.455 1.875 1.255.138.662.138.662 0 1.324-.455.635-.455.635-1.103 1.104-.883.139-1.326.15-2.07-.359-.453-.663-.595-1.04-.579-1.848.538-.907.83-1.27 1.876-1.476"/><path fill="#034357" d="M161.103 76.8c.663.455.663.455 1.104 1.103.015.881-.091 1.359-.593 2.083-.677.458-1.031.476-1.835.345-.763-.44-1.046-.699-1.31-1.545-.014-.662-.014-.662.428-1.545.827-.551 1.226-.56 2.206-.441m0-5.738c.663.455.663.455 1.104 1.103.015.874-.095 1.357-.58 2.083-.75.495-1.187.5-2.068.345-.662-.58-.662-.58-1.104-1.324-.016-.808.126-1.185.58-1.848.743-.509 1.186-.498 2.068-.359"/><path fill="#034358" d="M164.193 73.931c.552.345.552.345.883.883.16.977.109 1.386-.455 2.207-.649.441-.649.441-1.435.469-.9-.295-1.184-.528-1.641-1.352-.13-.8-.103-1.16.33-1.848.808-.525 1.377-.477 2.318-.359"/><path fill="#034458" d="M167.283 71.283c.662.662.662.662.758 1.53-.096.897-.096.897-.427 1.45-.818.49-1.384.461-2.317.33-.669-.568-.853-.916-.994-1.78.111-.648.111-.648.428-1.172.861-.546 1.558-.456 2.552-.358"/><path fill="#034459" d="M164.193 79.669c.552.345.552.345.883.883.123.862.129 1.335-.331 2.083-.809.505-1.384.46-2.317.344-.552-.344-.552-.344-.883-.882-.123-.862-.13-1.336.33-2.083.81-.506 1.384-.462 2.318-.345"/><path fill="#F5F5F3" d="M116.952 102.304c.896.096.896.096 1.448.441.47.763.486 1.203.331 2.083-.58.662-.58.662-1.324 1.103-.88.035-1.2-.112-1.862-.69-.455-.836-.376-1.273-.124-2.179.662-.662.663-.662 1.531-.758m6.412.096c.649.455.649.455 1.104 1.103 0 .8 0 .8-.22 1.545-.663.662-.663.662-1.532.773-.896-.111-.896-.111-1.448-.58-.39-.746-.49-1.129-.331-1.958.737-.825 1.333-1.088 2.427-.883"/><path fill="#034357" d="M158.455 85.407c.566.33.566.33.883.883 0 .896 0 .896-.22 1.765-.883.662-.883.662-1.532.773-.921-.15-1.23-.47-1.78-1.214-.147-.806-.105-1.156.332-1.849.807-.524 1.376-.476 2.317-.358"/><path fill="#034458" d="M160.428 82.428c.675.11.675.11 1.324.565.455.648.455.648.455 1.448-.22.745-.22.745-.883 1.407-.97.144-1.392.105-2.207-.455-.441-.648-.441-.648-.455-1.448.308-.98.747-1.344 1.766-1.517m6.634-5.628c.538.345.538.345.883.883.124.87.133 1.337-.345 2.083-.746.478-1.213.469-2.083.344-.538-.344-.538-.344-.883-.882-.124-.87-.133-1.337.345-2.083.746-.478 1.214-.47 2.083-.345"/><path fill="#F1F1EF" d="M91.283 42.152c.745.22.745.22 1.407.883.143.969.104 1.392-.455 2.206-.649.442-.649.442-1.449.456-.745-.235-.745-.235-1.407-1.118-.153-.9-.074-1.218.456-1.972.648-.455.648-.455 1.448-.455"/><path fill="#F3F3F1" d="M163.352 45.02c.62.221.62.221 1.282.883.111.87.111.87 0 1.766-.482.552-.482.552-1.103.883-1.103 0-1.103 0-1.724-.593-.483-.731-.483-.731-.483-1.835.665-.728 1.022-1.104 2.028-1.104"/><path fill="#F4F4F3" d="m109.02 25.159.883.662c.125.869.125.869 0 1.765-.455.566-.455.566-1.103.883-.8 0-.8 0-1.545-.22-.662-.883-.662-.883-.758-1.546.096-.662.096-.662.441-1.186.74-.493 1.209-.467 2.082-.358"/><path fill="#F5F5F3" d="M166.841 42.372c.662.663.662.663.745 1.545-.083.883-.083.883-.745 1.545-.806.246-1.173.291-1.944-.069-.483-.372-.483-.372-.704-.814-.084-.773-.089-1.183.331-1.848.799-.519 1.386-.462 2.317-.359"/><path fill="#F6F6F4" d="M149.407 25.159c.538.358.538.358.883.882.124.649.124.649 0 1.325-.483.634-.483.634-1.104 1.103-1.103 0-1.103 0-1.724-.469-.483-.634-.483-.634-.607-1.31.124-.649.124-.649.47-1.173.743-.496 1.205-.484 2.082-.358"/><path fill="#F5F7F5" d="M153.38 42.372c.936-.118 1.512-.164 2.317.359.431.683.463 1.054.33 1.848-.33.524-.33.524-.882.883-.897.11-.897.11-1.766 0-.694-.925-.798-1.114-.662-2.207z"/><path fill="#F2F2F0" d="M86.069 59.586c.538.359.538.359.883.883.124.662.124.662 0 1.324-.57.637-.939.853-1.78 1.007-.648-.124-.648-.124-1.172-.607-.359-.62-.359-.62-.359-1.724.662-.979 1.292-1.045 2.428-.883"/><path fill="#0E485A" d="M133.945 102.276c.916.168 1.24.476 1.78 1.227.013.69.013.69-.221 1.325-.883.662-.883.662-1.545.772-.662-.11-.662-.11-1.187-.593-.358-.621-.358-.621-.358-1.724.465-.662.734-.854 1.531-1.007"/><path fill="#034357" d="M149.628 88.276c.551.469.551.469.882 1.103 0 .69 0 .69-.22 1.325-.883.662-.883.662-1.67.648-.758-.207-.758-.207-1.42-1.09 0-1.103 0-1.103.345-1.614.747-.517 1.192-.515 2.083-.372"/><path fill="#F5F5F3" d="m131.972 19.42.883.663c.11.883.11.883 0 1.765-.97.728-1.26.811-2.427.662-.662-.882-.662-.882-.759-1.545.097-.662.097-.662.455-1.186.678-.463 1.042-.477 1.848-.359"/><path fill="#F6F6F4" d="M126.235 19.42c.524.346.524.346.882.883.11.787.11.787 0 1.545-.883.662-.883.662-1.545.759-.662-.097-.662-.097-1.186-.455-.466-.681-.494-1.038-.358-1.849.613-.896 1.144-1.06 2.206-.882"/><path fill="#F5F5F3" d="M86.069 65.324c.662.662.662.662.759 1.545l-.097.883c-.883.662-.883.662-1.545.772-.662-.11-.662-.11-1.186-.593-.359-.62-.359-.62-.359-1.724.663-.98 1.291-1.028 2.428-.883"/><path fill="#F6F6F4" d="M125.559 105.421c.896.069.896.069 1.558.731.11.758.11.758 0 1.545-.469.551-.469.551-1.103.882-.69 0-.69 0-1.324-.22-.662-.883-.662-.883-.62-1.683.255-1.066.384-1.168 1.489-1.255"/><path fill="#F3F6F5" d="M116.952 91.076c.896.069.896.069 1.558.73.11.76.11.76 0 1.546-.469.551-.469.551-1.103.882-.69 0-.69 0-1.324-.22-.662-.883-.662-.883-.62-1.683.256-1.066.384-1.167 1.489-1.255"/><path fill="#034357" d="M154.828 94.014c.758.22.758.22 1.42 1.103 0 1.104 0 1.104-.358 1.614-.677.48-1.034.491-1.849.372-.882-.662-.882-.662-.993-1.42.11-.787.11-.787.456-1.338.537-.331.537-.331 1.324-.331m5.738-5.724c.758.206.758.206 1.42.869.12.8.103 1.174-.358 1.848-.682.466-1.038.494-1.849.358-.524-.358-.524-.358-.882-.882-.135-.808-.099-1.171.344-1.862.538-.345.538-.345 1.325-.331"/><path fill="#0C495D" d="M168.386 62.897c.883-.097.883-.097 1.766 0 .662.662.662.662.745 1.434-.083.772-.083.772-.745 1.435-.883.082-.883.082-1.766 0-.662-.663-.662-.663-.745-1.31.083-.677.083-.676.745-1.559"/><path fill="#F1F1F0" d="M111.352 22.304c.758.206.758.206 1.42.868-.038 1.08-.104 1.429-.882 2.207-1.087.14-1.288.028-2.207-.662-.127-.87-.125-1.345.345-2.096.538-.331.538-.331 1.324-.317"/><path fill="#054356" d="M169.931 68.414c.51.358.51.358.883.883.135.81.107 1.167-.359 1.848-.524.359-.524.358-1.186.483-.662-.125-.662-.125-1.2-.607-.345-.621-.345-.621-.345-1.186.493-1.203.902-1.421 2.207-1.421"/><path fill="#034458" d="M157.448 91.048c.787.097.787.097 1.338.442.331.538.331.538.304 1.338-.194.744-.194.744-.635 1.186-.869.069-.869.069-1.765 0-.662-.662-.662-.662-.745-1.435.115-1.078.428-1.394 1.503-1.53"/><path fill="#F2F2F0" d="M88.414 45.269c.745.193.745.193 1.186.855.083.773.083.773 0 1.545-.883.662-.883.662-1.683.62-.745-.179-.745-.179-1.186-.62-.083-.869-.083-.869 0-1.766.883-.662.883-.662 1.683-.634"/><path fill="#F4F6F5" d="M119.697 93.931c.8.083.8.083 1.351.428.331.538.331.538.304 1.338-.193.744-.193.744-.635 1.186-.856.095-1.357.117-2.096-.345-.331-.538-.331-.538-.304-1.338.255-.98.364-1.156 1.38-1.269"/><path fill="#F1F1EF" d="M146.317 22.29c.51.345.51.345.883.882.11.787.11.787 0 1.545-.883.662-.883.662-1.683.621-.745-.18-.745-.18-1.186-.62-.083-.87-.083-.87 0-1.766.883-.662.883-.662 1.986-.662"/><path fill="#F3F3F1" d="M88.414 79.71c.745.18.745.18 1.186.621.095.856.117 1.357-.345 2.097-.538.33-.538.33-1.338.317-.745-.207-.745-.207-1.186-.87-.083-.772-.083-.772 0-1.544.883-.662.883-.663 1.683-.621"/><path fill="#F2F2F0" d="M120.497 105.49c.538.345.538.345.882.882-.047 1.372-.047 1.372-.662 1.987-.869.082-.869.082-1.765 0-.662-.883-.662-.883-.662-1.987.624-.889 1.142-1.06 2.207-.882"/><path fill="#F6F6F4" d="M111.89 102.621c.538.345.538.345.882.882-.013.8-.013.8-.22 1.545-.818.545-1.24.545-2.207.442-.662-.883-.662-.883-.635-1.683.319-1.23 1.016-1.329 2.18-1.186"/><path fill="#F1F1EF" d="M166.097 48.124c.744.207.744.207 1.186.87.101.794.091 1.181-.345 1.861-.538.345-.538.345-1.338.331-.745-.207-.745-.207-1.186-.869-.102-.794-.091-1.182.345-1.862.538-.345.538-.346 1.338-.331m-80.8 22.829c.772.11.772.11 1.434.993.083.676.083.676 0 1.324-.728.728-.98.862-1.986.883-.524-.345-.524-.345-.883-.883-.096-.662-.096-.662 0-1.324.662-.883.662-.883 1.435-.993"/><path fill="#F2F2F0" d="M85.545 53.862c.745.207.745.207 1.186.869.102.794.091 1.182-.345 1.862-.538.345-.538.345-1.338.331-.745-.207-.745-.207-1.186-.869-.101-.794-.09-1.182.345-1.862.538-.345.538-.346 1.338-.331m83.296-8.606c.649.207.649.207 1.311.87.096.772.096.772 0 1.544-.92.69-1.12.8-2.207.662-.662-.662-.662-.662-.759-1.42.097-.787.097-.787.455-1.339.525-.33.525-.33 1.2-.317"/><path fill="#F3F3F1" d="M129.103 102.621c.883.662.883.662.98 1.31-.097.676-.097.676-.759 1.559-.966.103-1.39.103-2.207-.442-.206-.745-.206-.745-.22-1.545.59-.92 1.15-1.036 2.206-.882"/><path fill="#F4F4F2" d="M137.035 19.573c.896.068.896.068 1.558.73.12.802.102 1.175-.359 1.849-.673.46-1.047.478-1.848.358-.662-.662-.662-.662-.73-1.558.093-1.177.202-1.285 1.379-1.379"/><path fill="#F3F3F1" d="m119.82 19.559.897.082c.662.883.662.883.662 1.987-.469.524-.469.524-1.103.882-1.013-.02-1.254-.15-1.986-.882.07-1.323.111-1.933 1.53-2.069"/><path fill="#07475B" d="M151.6 96.786c.676.097.676.097 1.214.442.345.538.345.538.33 1.338-.206.744-.206.744-.868 1.186-1.424-.1-1.424-.1-1.986-.662-.07-.759-.07-.759 0-1.545.662-.662.662-.662 1.31-.759"/><path fill="#034357" d="M163.669 85.435c.745.193.745.193 1.186.634.069.759.069.759 0 1.545-.662.662-.662.662-1.434.745-.773-.083-.773-.083-1.435-.745-.119-.798-.093-1.179.345-1.862.538-.345.538-.345 1.338-.317"/><path fill="#F0F3F2" d="M130.428 42.593c.869-.083.869-.083 1.765 0 .662.662.662.662.773 1.31-.11.676-.11.676-.593 1.2-.621.36-.621.36-1.725.36-.695-.928-.778-1.115-.662-2.208z"/><path fill="#034256" d="M125.117 76.924c.676.097.676.097 1.214.455.345.524.345.524.331 1.2-.207.649-.207.649-.869 1.31-1.034-.068-1.034-.068-1.986-.22-.041-.952-.041-.952 0-1.986.662-.662.662-.662 1.31-.759"/><path fill="#034357" d="M151.6 85.531c.676.097.676.097 1.2.47.359.51.359.51.359 1.613-.359.51-.359.51-.883.883-.676.096-.676.096-1.324 0-.662-.662-.662-.662-.745-1.435.107-1 .377-1.381 1.393-1.531m-17.876.001c.676.097.676.097 1.214.441.345.538.345.538.331 1.338-.207.745-.207.745-.869 1.187-1.103 0-1.103 0-1.614-.36-.478-.672-.493-1.038-.372-1.847.662-.662.662-.662 1.31-.759"/><path fill="#034256" d="M124.469 71.283c.772.014.772.014 1.545.22.662.883.662.883.634 1.573-.193.634-.193.634-.855 1.076-.662.069-.662.069-1.324 0-.662-.662-.662-.662-.745-1.435.083-.772.083-.772.745-1.434"/><path fill="#034357" d="M143.27 88.29c.62.206.62.207 1.061.869.07.662.07.662 0 1.324-.662.662-.662.662-1.434.758l-.773-.096c-.662-.883-.662-.883-.662-1.986.603-.675.893-.887 1.807-.87"/><path fill="#F2F5F4" d="M122.69 96.786c.675.097.675.097 1.214.455.344.525.344.525.33 1.2-.206.649-.206.649-.869 1.31-.662.084-.662.084-1.324 0-.662-.661-.662-.661-.744-1.434.107-.999.377-1.381 1.393-1.531"/><path fill="#F4F4F3" d="M168.966 50.993c.744.207.744.207 1.186.87-.042.785-.042.785-.221 1.544-.766.51-1.085.554-1.986.441-.662-.883-.662-.883-.662-1.986.517-.786.731-.885 1.683-.869"/><path fill="#F0F0EE" d="M97.02 94.028c.745.206.745.206 1.187.869-.041.786-.041.786-.22 1.544-.663.442-.663.442-1.449.4-.759-.179-.759-.179-1.2-.841 0-1.103 0-1.103.345-1.628.538-.358.537-.358 1.337-.344"/><path fill="#034358" d="M153.82 82.759c.773.013.773.013 1.546.22.662.883.662.883.634 1.449-.193.538-.193.538-.855 1.2-.662.082-.662.082-1.324 0-.662-.662-.662-.662-.745-1.435.083-.772.082-.772.744-1.434"/><path fill="#0B485B" d="M173.021 65.766c.662.662.662.662.745 1.324-.083.662-.083.662-.745 1.324-.773.096-.773.096-1.545 0-.685-.914-.803-1.125-.662-2.207.815-.544 1.243-.528 2.207-.441"/><path fill="#034459" d="M157.462 80.028c.772.082.772.082 1.435.744.082.662.082.662 0 1.325-.663.662-.663.662-1.435.744-.772-.082-.772-.082-1.434-.744-.083-.662-.083-.662 0-1.325.662-.662.662-.662 1.434-.744"/><path fill="#074558" d="M172.262 71.559c.759.165.759.165 1.2.606.083.76.083.76 0 1.545-.883.662-.883.662-1.572.621-.635-.18-.635-.18-1.076-.62-.069-.883-.069-.883 0-1.766.662-.442.662-.442 1.448-.386"/><path fill="#084659" d="M169.628 74.386c.744.207.744.207 1.186.87-.028.661-.028.661-.221 1.323-.883.662-.883.662-1.448.635-.538-.193-.538-.193-1.2-.855 0-1.104 0-1.104.345-1.628.538-.359.538-.359 1.338-.345"/><path fill="#EEF2F1" d="M111.352 73.959c.538.193.538.193 1.2.855-.028.786-.028.786-.221 1.545-.662.441-.662.441-1.766.441-.524-.483-.524-.483-.882-1.103 0-.58 0-.58.22-1.104.883-.662.883-.662 1.449-.634"/><path fill="#F3F3F1" d="M160.883 31.117c.662.662.662.662.745 1.324-.083.662-.083.662-.745 1.325-.773.096-.773.096-1.545 0-.662-.883-.662-.883-.635-1.573.352-1.154 1.096-1.189 2.18-1.076"/><path fill="#0A475A" d="M145.642 102.524c.675.097.675.097 1.213.455.345.524.345.524.331 1.214-.207.635-.207.635-.869 1.076-.662.069-.662.069-1.324 0-.662-.662-.662-.662-.745-1.324.118-.942.456-1.281 1.394-1.421"/><path fill="#0B495D" d="M148.883 99.78c.745.192.745.192 1.186.634.069.648.069.648 0 1.324-.662.662-.662.662-1.434.745-.773-.083-.773-.083-1.435-.745 0-1.104 0-1.104.345-1.628.538-.358.538-.358 1.338-.33"/><path fill="#EDEDEB" d="m99.766 97.02.869.083c.44.663.44.663.4 1.449-.18.758-.18.758-.842 1.2-1.103 0-1.103 0-1.614-.373-.372-.51-.372-.51-.372-1.614.662-.662.662-.662 1.559-.744"/><path fill="#F3F3F1" d="M163.214 34.028c.758.179.758.179 1.2.841v1.103c-.662.663-.662.663-1.435.76l-.772-.097c-.662-.883-.662-.883-.635-1.573.296-.971.653-1.086 1.642-1.034"/><path fill="#F1F1EF" d="M157.476 28.29c.758.179.758.179 1.2.841v1.104c-.662.662-.662.662-1.435.758l-.772-.096c-.662-.883-.662-.883-.634-1.573.295-.97.653-1.086 1.641-1.034"/><path fill="#F3F6F4" d="M111.104 68.345c.786.069.786.069 1.448.73-.074 1.398-.074 1.398-.662 1.987-.635.097-.635.097-1.325 0-.537-.483-.537-.483-.882-1.103.05-1.075.313-1.513 1.421-1.614"/><path fill="#F2F2F0" d="M93.352 33.986c1.397.074 1.397.074 1.986.662.069.649.069.649 0 1.324-.662.663-.662.663-1.435.76l-.772-.097c-.662-.883-.662-.883-.634-1.449.193-.538.193-.538.855-1.2"/><path fill="#F4F4F2" d="M96.759 31.048c.786.07.786.07 1.448.731.083.662.083.662 0 1.324-.662.663-.662.663-1.448.732-.759-.07-.759-.07-1.2-.51-.056-.884-.056-.884 0-1.766.441-.442.441-.443 1.2-.511"/><path fill="#F3F3F1" d="M99.09 28.248c1.397.074 1.397.074 1.986.662.069.649.069.649 0 1.325-.662.662-.662.662-1.31.758-.676-.096-.676-.096-1.214-.469-.345-.51-.345-.51-.331-1.076.207-.538.207-.538.869-1.2"/><path fill="#F1F1EF" d="M93.89 91.297c.786.069.786.069 1.448.73-.028.787-.028.787-.22 1.545-.663.442-.663.442-1.766.442-.524-.359-.524-.359-.883-.883.046-1.155.194-1.723 1.421-1.834"/><path fill="#074559" d="M139.917 102.538c.662.083.662.083 1.324.745.083.786.083.786 0 1.545-.765.51-1.086.535-1.986.441-.662-.662-.662-.662-.745-1.324.12-.951.456-1.288 1.407-1.407"/><path fill="#F0F3F2" d="M125.448 99.904c.786.068.786.068 1.449.73 0 1.104 0 1.104-.373 1.614-.51.373-.51.373-1.614.373-.524-.483-.524-.483-.882-1.104.05-1.075.312-1.513 1.42-1.613"/><path fill="#ECECEA" d="M130.869 105.49c.676.027.676.027 1.324.22.51.766.554 1.086.442 1.987-.883.662-.883.662-1.573.648l-.634-.207c-.442-.883-.442-.883-.4-1.448.179-.538.179-.538.841-1.2"/><path fill="#F2F5F4" d="M157.476 45.504c.758.179.758.179 1.2.84-.041.677-.041.677-.22 1.325-.663.441-.663.441-1.463.386l-.745-.165c-.336-.672-.273-1.248-.22-1.987.662-.44.662-.44 1.448-.4"/><path fill="#EEEEEC" d="M101.959 25.38c.786.027.786.027 1.544.22.442.662.442.662.442 1.765-.883.663-.883.663-1.697.621l-.73-.18c-.31-.617-.277-1.082-.221-1.765z"/><path fill="#F1F1EF" d="M171.034 48.331c.787.028.787.028 1.545.22.442.663.442.663.4 1.339-.179.648-.179.648-.841 1.09h-1.104c-.662-.663-.662-.663-.744-1.325.082-.662.082-.662.744-1.324"/><path fill="#EEEEED" d="M153.82 25.38c1.002.041 1.26.155 1.987.882-.028.676-.028.676-.22 1.324-.763.508-1.093.518-1.987.442-.441-.442-.441-.442-.51-1.2.069-.787.069-.786.73-1.448"/><path fill="#F0F0EE" d="M166.207 36.883c.634.193.634.193 1.076.855-.042.676-.042.676-.221 1.324-.662.441-.662.441-1.765.441-.663-.662-.663-.662-.759-1.324.149-1.02.663-1.336 1.669-1.296"/><path fill="#F1F1EF" d="M114.331 19.683c.648.18.648.18 1.09.841v1.104c-.662.662-.662.662-1.324.758-.663-.096-.663-.096-1.325-.98.028-.689.028-.689.221-1.323.662-.442.662-.442 1.338-.4"/><path fill="#F0F0EE" d="M91.145 88.4c.662.096.662.097 1.324.98-.045.913-.21 1.092-.883 1.765-.805-.05-1.188-.085-1.765-.662-.07-.648-.07-.648 0-1.324.662-.662.662-.663 1.324-.759"/><path fill="#F2F2F0" d="M102.62 99.89c.663.082.663.082 1.325.744-.014.787-.014.787-.22 1.545-.884.442-.884.442-1.463.4-.524-.179-.524-.179-.965-.841v-1.104c.662-.662.661-.662 1.323-.744"/><path fill="#074558" d="M166.29 82.924c.772.055.772.055 1.213.497.056.772.056.772 0 1.544-.441.442-.441.442-1.199.525l-.787-.083c-.662-.883-.662-.883-.62-1.462.292-.854.486-.957 1.393-1.021"/><path fill="#F5F5F3" d="M114.097 105.628c.662.082.662.082 1.324.744-.042.8-.042.8-.221 1.545-.672.336-1.248.274-1.986.221-.442-.662-.442-.662-.442-1.766.663-.662.663-.662 1.325-.744"/><path fill="#F3F3F1" d="M90.483 36.855c.8.042.8.042 1.545.22.335.672.273 1.249.22 1.987-.662.441-.662.441-1.765.441-.662-.662-.662-.662-.745-1.324.083-.662.083-.662.745-1.324"/><path fill="#F6F6F4" d="M84.524 77.02c.648-.082.648-.082 1.324 0 .662.663.662.663.759 1.325-.097.662-.097.662-.98 1.324-.743-.053-1.012-.13-1.544-.662-.076-.895-.067-1.225.441-1.986"/><path fill="#F3F3F1" d="M84.745 48.331c.8.041.8.041 1.545.22.309.618.276 1.083.22 1.766l-.662.662h-1.103c-.662-.662-.662-.662-.745-1.324.083-.662.083-.662.745-1.324m57.6-28.69h1.103c.662.883.662.883.662 1.987l-.662.662c-1.422-.098-1.422-.098-1.765-.442-.055-.745-.055-.745 0-1.545z"/><path fill="#1B1B1B" d="m161.324 39.503.662.221-.662.883c.038.668.038.668.22 1.324l.222.883-.883-.442a28 28 0 0 0-1.766 0v-2.427l.98-.097c.939-.01.939-.01 1.227-.345"/><path fill="#F2F2F0" d="M81.876 62.676h1.103c.662.662.662.662.759 1.324-.097.662-.097.662-.98 1.324-.579-.027-.579-.027-1.103-.22-.441-.663-.441-.663-.441-1.766z"/><path fill="#F0F0EE" d="M128.414 16.938c.69.055.69.055 1.352.717-.028.676-.028.676-.221 1.324-.662.442-.662.442-1.766.442-.427-.483-.427-.483-.662-1.104.354-1.297.354-1.296 1.297-1.379"/><path fill="#F2F2F0" d="M128 108.579h1.103l.663.662c-.05.805-.085 1.189-.663 1.766-.772-.041-.772-.041-1.544-.221l-.442-.662c.22-.883.22-.883.883-1.545"/><path fill="#F1F4F3" d="M148.524 42.814c.733.002 1.323.591 1.324 1.103a1.324 1.324 0 0 1-1.324 1.324c-.61 0-1.102-.492-1.103-1.324a1.104 1.104 0 0 1 1.103-1.103"/><path fill="#F1F1EF" d="M168.607 39.945c.733.002 1.322.591 1.324 1.103a1.316 1.316 0 0 1-1.324 1.324c-.611 0-1.102-.492-1.104-1.324a1.103 1.103 0 0 1 1.104-1.103"/><path fill="#EFEFEE" d="M151.393 22.731c.733.002 1.323.591 1.324 1.103a1.324 1.324 0 0 1-1.324 1.325c-.61-.002-1.102-.493-1.103-1.325a1.103 1.103 0 0 1 1.103-1.103"/><path fill="#EFEFED" d="M105.269 102.841c.733.002 1.322.592 1.324 1.104a1.325 1.325 0 0 1-1.324 1.324c-.61-.001-1.102-.493-1.103-1.324a1.1 1.1 0 0 1 1.103-1.104"/><path fill="#EDEDEB" d="M82.317 68.635c.733.001 1.323.59 1.324 1.103a1.324 1.324 0 0 1-1.324 1.324c-.61-.001-1.102-.493-1.103-1.324a1.103 1.103 0 0 1 1.103-1.103"/><path fill="#F1F1F0" d="M171.476 59.807c.733.002 1.322.591 1.324 1.103a1.326 1.326 0 0 1-1.324 1.325c-.611-.002-1.102-.493-1.104-1.325a1.103 1.103 0 0 1 1.104-1.103"/><path fill="#F1F1EF" d="M171.476 54.069c.733.002 1.322.591 1.324 1.103a1.326 1.326 0 0 1-1.324 1.325c-.611-.002-1.102-.493-1.104-1.325a1.103 1.103 0 0 1 1.104-1.103"/><path fill="#EFEFEE" d="M88.055 39.945c.733.002 1.323.591 1.324 1.103a1.324 1.324 0 0 1-1.324 1.324c-.61 0-1.102-.492-1.103-1.324a1.104 1.104 0 0 1 1.103-1.103"/><path fill="#EDEDEB" d="M134.18 16.993c.732.002 1.322.592 1.323 1.104a1.324 1.324 0 0 1-1.324 1.324c-.61-.002-1.102-.493-1.103-1.324a1.103 1.103 0 0 1 1.104-1.104"/><path fill="#F1F1EF" d="M88.055 85.628c.733.001 1.323.591 1.324 1.103a1.324 1.324 0 0 1-1.324 1.324c-.61-.001-1.102-.493-1.103-1.324a1.104 1.104 0 0 1 1.103-1.103"/><path fill="#034256" d="M157.352 68.855c.732.002 1.322.592 1.324 1.104a1.324 1.324 0 0 1-1.324 1.324c-.61-.002-1.102-.493-1.104-1.324a1.1 1.1 0 0 1 1.104-1.104"/><path fill="#EFEFED" d="M82.317 57.159c.733.001 1.323.591 1.324 1.103a1.324 1.324 0 0 1-1.324 1.324c-.61-.001-1.102-.493-1.103-1.324a1.103 1.103 0 0 1 1.103-1.103"/><path fill="#F0F0EE" d="M105.269 22.731c.733.002 1.322.591 1.324 1.103a1.324 1.324 0 0 1-1.324 1.325c-.61-.002-1.102-.493-1.103-1.325a1.104 1.104 0 0 1 1.103-1.103"/><path fill="#F1F4F3" d="M137.048 42.814c.733.002 1.323.591 1.324 1.103a1.324 1.324 0 0 1-1.324 1.324c-.61 0-1.102-.492-1.103-1.324a1.104 1.104 0 0 1 1.103-1.103"/><path fill="#F1F1EF" d="M122.703 108.579a1.1 1.1 0 0 1 .78.324 1.106 1.106 0 0 1-.36 1.8 1.104 1.104 0 1 1-.42-2.124"/><path fill="#F3F3F1" d="M134.18 108.579a1.1 1.1 0 0 1 .78.324 1.103 1.103 0 1 1-.78-.324"/><path fill="#F2F2F0" d="M122.703 16.993a1.104 1.104 0 1 1 .066 2.208 1.104 1.104 0 0 1-.066-2.208"/><path fill="#EEEEEC" d="M137.048 105.71a1.104 1.104 0 1 1-.002 2.208 1.104 1.104 0 0 1 .002-2.208"/><path fill="#EEF2F1" d="M114.097 82.759a1.104 1.104 0 1 1 .066 2.208 1.104 1.104 0 0 1-.066-2.208"/><path fill="#034255" d="M133.959 57.6a1.104 1.104 0 1 1 .066 2.208 1.104 1.104 0 0 1-.066-2.208"/><path fill="#F3F6F4" d="M114.097 60.028a1.103 1.103 0 1 1 0 2.205 1.103 1.103 0 0 1 0-2.205"/><path fill="#0C485B" d="M163.531 91.531c.662.055.662.055 1.103.497-.082.8-.082.8-.22 1.544-.745.138-.745.138-1.545.221-.441-.441-.441-.441-.497-1.103.076-.912.248-1.083 1.159-1.159"/><path fill="#071012" d="M145.214 94.235h1.765l.221 2.427h-2.207z"/><path fill="#F5F7F5" d="M128.441 45.683a1.103 1.103 0 1 1 0 2.205 1.103 1.103 0 0 1 0-2.205"/><path fill="#0B475A" d="M160.441 94.4c.662.055.662.055 1.104.497V96l-.662.662c-1.2-.096-1.2-.096-1.545-.441-.041-.648-.041-.648 0-1.324.441-.442.441-.442 1.103-.497"/><path fill="#064457" d="M166.4 88.717a1.1 1.1 0 0 1 1.049.673 1.1 1.1 0 0 1 0 .86 1.1 1.1 0 0 1-.617.598 1.1 1.1 0 0 1-1.19-.26 1.102 1.102 0 0 1 .758-1.871"/><path fill="#034256" d="M128.22 63.338a1.104 1.104 0 1 1 .066 2.208 1.104 1.104 0 0 1-.066-2.208"/><path fill="#EFF3F2" d="M160.22 48.552a1.104 1.104 0 1 1 .066 2.208 1.104 1.104 0 0 1-.066-2.208"/><path fill="#034255" d="M157.352 74.593a1.104 1.104 0 1 1 0 2.207 1.104 1.104 0 0 1 0-2.207"/><path fill="#034256" d="M131.09 60.469a1.103 1.103 0 1 1 0 2.205 1.103 1.103 0 0 1 0-2.205"/><path fill="#034154" d="M145.655 57.82c.733.002 1.323.592 1.324 1.104a1.324 1.324 0 0 1-1.324 1.324c-.61-.001-1.102-.492-1.103-1.324a1.104 1.104 0 0 1 1.103-1.104"/><path fill="#181E1F" d="m120.938 46.346.18.62c.227.762.227.762.923 1.366.758.063 1.264.019 1.987-.221v.44c-.833.556-1.219.541-2.207.442-.814-.427-.814-.427-1.545-.883l-.883-.22c.083-.648.083-.648.22-1.325.442-.22.442-.219 1.325-.219"/><path fill="#ECECEA" d="M116.966 16.993a1.106 1.106 0 0 1 1.02 1.527 1.103 1.103 0 1 1-1.02-1.527"/><path fill="#EDF1F1" d="M137.048 100.193a1.1 1.1 0 0 1 .78.323 1.102 1.102 0 1 1-.779-.323"/><path fill="#074356" d="M157.352 97.103a1.104 1.104 0 1 1 0 2.207 1.104 1.104 0 0 1 0-2.207"/><path fill="#044255" d="M169.269 85.848a1.1 1.1 0 0 1 1.022.68 1.11 1.11 0 0 1-.242 1.204 1.1 1.1 0 0 1-.995.3 1.1 1.1 0 0 1-.882-1.189 1.103 1.103 0 0 1 1.097-.995"/><path fill="#044458" d="M169.269 80.331a1.1 1.1 0 0 1 1.049.673 1.1 1.1 0 0 1 0 .86 1.1 1.1 0 0 1-.617.598 1.1 1.1 0 0 1-1.19-.26 1.102 1.102 0 0 1 .758-1.871"/><path fill="#EAEAE8" d="M174.566 57.159a1.105 1.105 0 0 1 .78 1.885 1.104 1.104 0 1 1-.78-1.885"/><path fill="#14191B" d="m116.744 49.214 1.325.001.359.854c.43.951.43.951 1.241 1.241l.607.11-.22.442c-1.237 0-1.796-.311-2.87-.883l-.662-.22z"/><path fill="#EBF0F0" d="M142.786 42.814a1.103 1.103 0 1 1 0 2.205 1.103 1.103 0 0 1 0-2.205"/><path fill="#1D1D1D" d="m147.2 27.807.883.441a30 30 0 0 0 1.986-.22l-.441 2.207h-1.766l-.083-.718c-.102-.864-.102-.864-.579-1.71"/><path fill="#ECECEA" d="M174.566 51.42a1.104 1.104 0 1 1 0 2.208 1.104 1.104 0 0 1 0-2.207"/><path fill="#165264" d="M172.138 77.462a1.1 1.1 0 0 1 1.022.68 1.11 1.11 0 0 1-.242 1.204 1.1 1.1 0 0 1-.995.3 1.1 1.1 0 0 1-.882-1.189 1.103 1.103 0 0 1 1.097-.995"/><path fill="#034256" d="M140.138 57.82a1.104 1.104 0 1 1 0 2.207 1.104 1.104 0 0 1 0-2.207"/><path fill="#EEEEEC" d="M168.828 57.159a1.105 1.105 0 0 1 .78 1.885 1.104 1.104 0 1 1-.78-1.885"/><path fill="#E9E9E7" d="M116.966 108.8a1.102 1.102 0 1 1 0 2.204 1.102 1.102 0 0 1 0-2.204"/><path fill="#F2F5F4" d="M131.31 100.193a1.1 1.1 0 0 1 .78.323 1.102 1.102 0 1 1-.78-.323"/><path fill="#034358" d="M145.655 85.848c.61.002 1.102.493 1.104.883a1.1 1.1 0 0 1-1.104 1.104c-.488-.002-.882-.395-.883-1.104a.883.883 0 0 1 .883-.883"/><path fill="#EAEAE8" d="M171.697 42.814a1.106 1.106 0 0 1 1.137 1.103 1.1 1.1 0 0 1-.335.793 1.1 1.1 0 0 1-.802.311 1.104 1.104 0 0 1 0-2.207"/><path fill="#E4E4E2" d="M108.359 19.862a1.104 1.104 0 1 1 0 2.207 1.104 1.104 0 0 1 0-2.207"/><path fill="#0D495C" d="M154.483 99.972a1.104 1.104 0 1 1-.002 2.207 1.104 1.104 0 0 1 .002-2.207"/><path fill="#E8E8E6" d="M108.359 105.931a1.102 1.102 0 1 1 0 2.204 1.102 1.102 0 0 1 0-2.204"/><path fill="#EFEFED" d="M82.317 74.372c.61.002 1.102.493 1.104.883a1.104 1.104 0 0 1-1.104 1.104c-.488-.001-.881-.394-.883-1.104a.883.883 0 0 1 .883-.883"/><path fill="#E8E8E6" d="M85.186 42.814c.61.001 1.102.493 1.104.883a1.104 1.104 0 0 1-1.104 1.103c-.488-.001-.881-.394-.883-1.103a.88.88 0 0 1 .883-.883"/><path fill="#EEEEEC" d="M82.317 51.42c.61.002 1.102.493 1.104.883a1.104 1.104 0 0 1-1.104 1.104c-.488-.001-.881-.394-.883-1.104a.883.883 0 0 1 .883-.882"/><path fill="#1C2325" d="M141.682 40.386h2.208v.662l-1.766.221-.165.62c-.276.704-.276.704-1.159 1.366-.969.085-1.388.105-2.207-.441v-.442l.828.138c.961.168.961.168 1.82-.358.288-.894.287-.894.441-1.766"/><path fill="#054357" d="M172.138 82.98a1.1 1.1 0 0 1 1.061 1.535 1.1 1.1 0 0 1-.625.599 1.1 1.1 0 0 1-.436.07 1.1 1.1 0 0 1-1.07-1.102 1.1 1.1 0 0 1 1.07-1.103"/><path fill="#F0F0EE" d="M139.917 16.993c.61.001 1.102.493 1.104.883a1.104 1.104 0 0 1-1.104 1.103c-.488 0-.881-.394-.883-1.103a.883.883 0 0 1 .883-.883"/><path fill="#272726" d="m104.386 94.897 1.544.22.221 1.545-.717.07c-.896.1-.896.1-1.71.813l-.441-.442.428-.358c.54-.622.602-1.04.675-1.848"/><path fill="#034458" d="M130.648 82.98c.61 0 1.102.492 1.104.882a1.1 1.1 0 0 1-1.104 1.104c-.488-.002-.881-.395-.882-1.104a.88.88 0 0 1 .882-.883"/><path fill="#EEEEEC" d="M85.186 82.98c.61 0 1.102.492 1.104.882a1.104 1.104 0 0 1-1.104 1.104c-.488-.002-.881-.395-.883-1.104a.883.883 0 0 1 .883-.883"/><path fill="#034458" d="M128 80.331c.61.001 1.102.493 1.103.883A1.103 1.103 0 0 1 128 82.317c-.489 0-.882-.394-.883-1.103a.884.884 0 0 1 .883-.883"/><path fill="#F0F0EE" d="M148.524 19.862c.61.001 1.102.493 1.104.883a1.104 1.104 0 0 1-1.104 1.103c-.489 0-.882-.394-.883-1.103a.883.883 0 0 1 .883-.883"/><path fill="#F1F4F3" d="M134.18 103.062c.61.001 1.101.493 1.103.883a1.1 1.1 0 0 1-1.104 1.103c-.488-.001-.881-.394-.882-1.103a.88.88 0 0 1 .883-.883"/><path fill="#EDEDEB" d="M174.566 63.117c.61.002 1.102.493 1.103.883a1.1 1.1 0 0 1-1.103 1.103c-.489 0-.882-.394-.883-1.103a.88.88 0 0 1 .883-.883"/><path fill="#EFEFED" d="M139.917 108.8c.61.001 1.102.493 1.104.883a1.104 1.104 0 0 1-1.104 1.103c-.488-.001-.881-.394-.883-1.103a.88.88 0 0 1 .883-.883"/><path fill="#1E2224" d="m114.097 52.083 1.103.001.235.729c.52.991.93 1.142 1.972 1.477v.22c-.841.042-.841.042-1.766 0l-.662-.662c-.573-.262-.573-.261-1.103-.44 0-1.104.001-1.105.221-1.325"/><path fill="#181818" d="m158.455 36.635.442.22-.442.662a29 29 0 0 0 0 1.766l-1.765-.22v-1.766l.758-.207c.74-.153.74-.152 1.007-.455"/><path fill="#EAEFEF" d="M165.738 54.29c.611.001 1.102.492 1.103.882a1.1 1.1 0 0 1-.323.78 1.1 1.1 0 0 1-.78.324c-.489-.001-.882-.394-.883-1.104a.87.87 0 0 1 .258-.625.88.88 0 0 1 .625-.257"/><path fill="#182C32" d="M122.483 43.918h1.103l.345.759c.459.857.459.856 1.31.979l.773.027.883.22c-.868.579-1.402.538-2.428.442l-.662-.883c-.682-.282-.682-.281-1.324-.44z"/><path fill="#070E10" d="M139.255 94.014h1.986v2.207L139.476 96z"/><path fill="#EEF2F1" d="M162.869 51.641c.61.002 1.102.493 1.103.883a1.103 1.103 0 0 1-1.103 1.104c-.489-.002-.882-.395-.883-1.104a.883.883 0 0 1 .883-.883"/><path fill="#151515" d="M116.524 24.938c.733.002 1.322.591 1.324 1.103a1.324 1.324 0 0 1-1.324 1.325c-.61-.002-1.102-.493-1.103-1.325a1.103 1.103 0 0 1 1.103-1.103"/><path fill="#034154" d="M139.917 86.069a.883.883 0 1 1 0 1.766.883.883 0 0 1 0-1.766"/><path fill="#E8E8E6" d="M177.214 60.248c.61.002 1.102.493 1.103.883a1.1 1.1 0 0 1-.323.78 1.1 1.1 0 0 1-.78.323c-.489 0-.882-.394-.883-1.103q0-.176.066-.338a.9.9 0 0 1 .479-.479.9.9 0 0 1 .338-.066"/><path fill="#E6E6E4" d="M177.214 54.51c.61.002 1.102.493 1.103.883a1.1 1.1 0 0 1-.323.78 1.1 1.1 0 0 1-.78.324c-.489-.002-.882-.395-.883-1.104q0-.176.066-.338a.9.9 0 0 1 .479-.479.9.9 0 0 1 .338-.066"/><path fill="#EEF2F2" d="M151.393 45.904c.61 0 1.102.492 1.104.882a1.104 1.104 0 0 1-1.104 1.104c-.489-.001-.882-.395-.883-1.104a.883.883 0 0 1 .883-.882"/><path fill="#181818" d="M140.138 24.938c.733.002 1.322.591 1.324 1.103a1.324 1.324 0 0 1-1.324 1.325c-.61-.002-1.102-.493-1.104-1.325a1.103 1.103 0 0 1 1.104-1.103"/><path fill="#1A1A1A" d="M90.262 74.593c.61.001 1.102.493 1.104.883a1.103 1.103 0 0 1-1.104 1.103c-.489 0-.882-.394-.883-1.103a.88.88 0 0 1 .883-.883"/><path fill="#124D5F" d="M172.359 60.028c.882.441.882.441 1.324.882-.042.773-.042.773-.221 1.545-.85.567-1.233.405-2.207.22v-.44l1.324-.442c.047-.914.047-.914-.22-1.765"/><path fill="#2B2B2B" d="M154.924 33.766a1.104 1.104 0 1 1 .066 2.208 1.104 1.104 0 0 1-.066-2.208"/><path fill="#E7EDED" d="M142.786 100.193a.882.882 0 0 1 .624 1.507.88.88 0 0 1-.624.259.886.886 0 0 1-.612-1.501.88.88 0 0 1 .612-.265"/><path fill="#F1F3F2" d="M171.697 65.986a.881.881 0 0 1 .624 1.507.881.881 0 0 1-1.507-.624.88.88 0 0 1 .883-.883"/><path fill="#E8EEEE" d="M139.917 103.283c.61.001 1.102.493 1.104.883a1.104 1.104 0 0 1-1.104 1.103c-.488-.001-.881-.394-.883-1.103a.883.883 0 0 1 .883-.883"/><path fill="#E5ECEC" d="M114.097 65.766a.883.883 0 0 1 0 1.765.883.883 0 1 1 0-1.765"/><path fill="#F0F3F3" d="M125.572 48.772a.883.883 0 1 1 0 1.766.883.883 0 0 1 0-1.766"/><path fill="#141413" d="M96.22 86.29a1.103 1.103 0 1 1 0 2.205 1.103 1.103 0 0 1 0-2.205"/><path fill="#EAEFEE" d="M116.966 86.069a.883.883 0 1 1 0 1.766.883.883 0 0 1 0-1.766"/><path fill="#0B0E0F" d="M157.572 42.814c.611.001 1.102.493 1.104.883a1.104 1.104 0 0 1-1.104 1.103c-.488-.001-.881-.394-.882-1.103a.883.883 0 0 1 .882-.883"/><path fill="#171717" d="M96.22 39.724c.611.002 1.103.493 1.104.883a1.103 1.103 0 0 1-1.103 1.103c-.489 0-.882-.394-.883-1.103a.883.883 0 0 1 .882-.883"/><path fill="#EBF0EF" d="M128.441 97.545a.883.883 0 0 1 0 1.765.883.883 0 0 1 0-1.765"/><path fill="#F4F7F5" d="M116.966 57.38a.883.883 0 0 1 0 1.765.883.883 0 1 1 0-1.765"/><path fill="#121212" d="M151.614 31.117c.61.002 1.102.493 1.103.883a1.103 1.103 0 0 1-1.103 1.103c-.489 0-.882-.394-.883-1.103a.883.883 0 0 1 .883-.883"/><path fill="#EFEFED" d="M142.786 106.152a.884.884 0 0 1 .624 1.507.884.884 0 0 1-1.248-1.249.88.88 0 0 1 .624-.258"/><path fill="#1B1B1B" d="m98.647 89.159 1.545.22v1.325l-.729.193c-.824.208-.824.208-1.477.69l.206-.47c.242-.654.36-1.27.455-1.958"/><path fill="#EFF3F2" d="M114.097 77.462a.883.883 0 1 1 0 1.766.883.883 0 0 1 0-1.766"/><path fill="#0B0F10" d="M153.6 40.607h1.545l.22 1.545h-1.985z"/><path fill="#EDEDEC" d="M163.09 28.69a.882.882 0 1 1 0 1.765.883.883 0 0 1 0-1.765"/><path fill="#E7E7E5" d="M177.434 65.986a.881.881 0 0 1 .624 1.507.881.881 0 0 1-1.507-.624.88.88 0 0 1 .883-.883"/><path fill="#161616" d="M90.483 51.42c.488.002.881.395.883.663a.883.883 0 0 1-.883.883c-.367-.001-.661-.296-.662-.883a.66.66 0 0 1 .662-.662"/><path fill="#E8E8E6" d="M174.566 45.904a.882.882 0 1 1 0 1.765.882.882 0 0 1 0-1.765"/><path fill="#151515" d="m105.393 31.324.759.014-.221 1.544h-1.545q-.015-.663 0-1.324c.22-.221.22-.22 1.007-.234"/><path fill="#E9E9E7" d="M94.014 28.69a.883.883 0 0 1 0 1.765.883.883 0 0 1 0-1.765"/><path fill="#E9E9E8" d="M125.572 14.345a.883.883 0 0 1 0 1.765.883.883 0 0 1 0-1.765"/><path fill="#E8E8E6" d="M94.014 97.545a.883.883 0 0 1 0 1.765.883.883 0 0 1 0-1.765"/><path fill="#E7ECEB" d="M171.476 71.724c.488.001.882.394.883.662a.9.9 0 0 1-.066.338.9.9 0 0 1-.479.479.9.9 0 0 1-.338.066c-.366 0-.661-.296-.662-.883a.66.66 0 0 1 .662-.662"/><path fill="#EBEBE9" d="M174.566 68.855a.881.881 0 0 1 .624 1.507.881.881 0 0 1-1.507-.624.88.88 0 0 1 .883-.883"/><path fill="#E7E7E5" d="M165.959 31.559a.882.882 0 1 1 0 1.763.882.882 0 0 1 0-1.763"/><path fill="#E8E8E6" d="M160.22 25.82a.883.883 0 1 1 0 1.766.883.883 0 0 1 0-1.766"/><path fill="#E4E4E2" d="M131.31 14.345a.883.883 0 0 1 0 1.765.882.882 0 1 1 0-1.765"/><path fill="#191919" d="M101.516 92.248h1.545v1.324l-.729.194c-.824.208-.824.208-1.477.69l.442-.884q.127-.658.219-1.324"/><path fill="#212728" d="M130.869 40.829h1.324l.276.619c.368.785.368.785 1.269 1.366l.883.22v.442c-.842-.065-1.397-.11-2.083-.62-.345-.484-.345-.484-.345-1.366h-1.323z"/><path fill="#EAEAE8" d="M91.145 31.559a.883.883 0 0 1 0 1.765.882.882 0 1 1 0-1.765"/><path fill="#E3E3E2" d="M111.228 17.214a.883.883 0 0 1 0 1.765.883.883 0 0 1 0-1.765"/><path fill="#EDEDEC" d="M125.572 111.89a.884.884 0 0 1 .624 1.507.884.884 0 0 1-1.248-1.249.88.88 0 0 1 .624-.258"/><path fill="#101010" d="M113.435 97.766h1.544v1.544h-1.544z"/><path fill="#EDEDEB" d="M79.448 60.248c.489.001.882.394.883.662a.88.88 0 0 1-.883.883c-.366 0-.66-.296-.662-.883a.66.66 0 0 1 .662-.662"/><path fill="#275765" d="M130.648 41.49c.828-.083.828-.083 1.545 0l.442 1.544-2.207-.44-.221.661-.441-.441c.344-.662.344-.662.882-1.324"/><path fill="#121211" d="M99.09 36.414a1.102 1.102 0 0 1 .78 1.883 1.104 1.104 0 1 1-.78-1.883"/><path fill="#ECECEA" d="M96.883 25.82a.883.883 0 1 1 0 1.766.883.883 0 0 1 0-1.766"/><path fill="#F1F1EF" d="M96.883 100.414a.884.884 0 0 1 .624 1.507.884.884 0 0 1-1.248-1.249.88.88 0 0 1 .624-.258"/><path fill="#E9E9E7" d="M79.448 65.986c.489.001.882.394.883.662a.883.883 0 0 1-.883.883c-.366 0-.66-.296-.662-.883a.66.66 0 0 1 .662-.662"/><path fill="#070F12" d="m161.545 63.559-.22 1.544-1.766.221.22-1.545c1.27-.22 1.27-.22 1.766-.22"/><path fill="#0F4D60" d="m109.683 63.118.441 2.427-1.766-.883V63.56c.882-.442.883-.442 1.325-.442"/><path fill="#ECECEA" d="M111.228 109.021a.884.884 0 0 1 .624 1.507.884.884 0 0 1-1.248-1.249.88.88 0 0 1 .624-.258"/><path fill="#EEEEEC" d="M145.655 17.214c.489 0 .882.394.883.662a.883.883 0 0 1-.883.883c-.366-.001-.661-.296-.662-.883a.66.66 0 0 1 .662-.662"/><path fill="#EFEFED" d="M131.31 111.89a.884.884 0 0 1 .624 1.507.884.884 0 0 1-1.248-1.249.88.88 0 0 1 .624-.258"/><path fill="#EBEBE9" d="M145.655 109.021a.884.884 0 0 1 .624 1.507.884.884 0 0 1-1.248-1.249.88.88 0 0 1 .624-.258"/><path fill="#E8EEED" d="M145.655 103.283a.884.884 0 0 1 .624 1.507.884.884 0 0 1-1.248-1.249.88.88 0 0 1 .624-.258"/><path fill="#EFEFED" d="M90.924 94.676c.489.001.882.394.883.662a.88.88 0 0 1-.883.883c-.366-.001-.661-.296-.662-.883a.66.66 0 0 1 .662-.662"/><path fill="#151515" d="m101.076 33.766 1.986.662v1.324h-1.324z"/><path fill="#EDEDEB" d="M151.393 103.283c.489.001.882.394.883.662a.88.88 0 0 1-.883.883c-.366-.001-.661-.296-.662-.883a.663.663 0 0 1 .662-.662"/><path fill="#F0F0EE" d="M82.317 45.904c.489 0 .882.394.883.661a.883.883 0 0 1-.883.883c-.366 0-.66-.295-.662-.883a.66.66 0 0 1 .662-.661"/><path fill="#E7E7E5" d="M99.752 23.172a.883.883 0 1 1 0 1.766.883.883 0 0 1 0-1.766"/><path fill="#E9E9E7" d="M137.048 111.89c.489.001.882.394.883.662a.885.885 0 0 1-.883.882c-.366 0-.66-.295-.662-.882a.663.663 0 0 1 .662-.662"/><path fill="#EDEDEB" d="M99.752 103.283a.884.884 0 0 1 .624 1.507.884.884 0 0 1-1.248-1.249.88.88 0 0 1 .624-.258"/><path fill="#DEE6E7" d="M119.835 54.731a.883.883 0 1 1 0 1.766.883.883 0 0 1 0-1.766"/><path fill="#ECECEB" d="M119.614 111.89c.488.001.881.394.883.662a.88.88 0 0 1-.883.882c-.367 0-.661-.295-.662-.882a.663.663 0 0 1 .662-.662"/><path fill="#070D0F" d="M136.607 97.324h1.545l-.221 1.545h-1.324z"/><path fill="#E2E9E9" d="M122.703 51.641c.49.002.882.395.883.662a.883.883 0 0 1-.883.883c-.366 0-.66-.295-.662-.883a.66.66 0 0 1 .662-.662"/><path fill="#111516" d="M147.42 41.49h.221c0 1.103 0 1.103-.455 1.627-.843.467-1.278.397-2.193.138l-.441-.662.814.07c.972.023.972.023 1.6-.622z"/><path fill="#EAEFEF" d="M133.959 97.766c.488 0 .881.394.882.662a.884.884 0 0 1-.882.882c-.367 0-.662-.295-.662-.882a.66.66 0 0 1 .662-.662"/><path fill="#F1F1EF" d="M82.317 80.331c.489.001.882.394.883.662a.883.883 0 0 1-.883.883c-.366-.001-.66-.296-.662-.883a.66.66 0 0 1 .662-.662"/><path fill="#E3EAEA" d="M113.876 71.724c.489.001.882.394.883.662a.883.883 0 0 1-.883.883c-.366 0-.661-.296-.662-.883a.66.66 0 0 1 .662-.662"/><path fill="#EEEEEC" d="M79.448 71.945c.489 0 .882.394.883.662a.883.883 0 0 1-.883.883c-.366-.001-.66-.296-.662-.883a.66.66 0 0 1 .662-.662"/><path fill="#EFEFED" d="M79.448 54.51c.489.001.882.395.883.662a.883.883 0 0 1-.883.883c-.366 0-.66-.296-.662-.883a.66.66 0 0 1 .662-.662"/><path fill="#EEEEEC" d="M88.055 34.648c.489.001.882.394.883.662a.883.883 0 0 1-.883.883c-.366 0-.661-.296-.662-.883a.66.66 0 0 1 .662-.662"/><path fill="#EFEFED" d="M137.048 14.566c.489 0 .882.394.883.662a.883.883 0 0 1-.883.882c-.366 0-.66-.295-.662-.882a.66.66 0 0 1 .662-.662"/><path fill="#F1F1EF" d="M119.614 14.566c.488 0 .881.394.883.662a.883.883 0 0 1-.883.882c-.367 0-.661-.295-.662-.882a.66.66 0 0 1 .662-.662"/><path fill="#033F52" d="M154.483 77.904c.488 0 .881.394.882.662a.884.884 0 0 1-.882.882c-.367 0-.661-.295-.662-.882a.66.66 0 0 1 .662-.662"/><path fill="#070B0D" d="M123.807 77.241v1.987l-1.324-.442v-1.103c1.076-.442 1.076-.442 1.324-.442"/><path fill="#E5EBEC" d="M133.959 46.124c.488.001.881.394.882.662a.883.883 0 0 1-.882.883c-.367 0-.662-.296-.662-.883a.66.66 0 0 1 .662-.662"/><path fill="#E9E9E7" d="M168.607 34.648c.489.001.882.394.883.662a.9.9 0 0 1-.066.338.9.9 0 0 1-.479.479.9.9 0 0 1-.338.066c-.366 0-.661-.296-.662-.883a.66.66 0 0 1 .662-.662"/><path fill="#EDEDEB" d="M157.131 23.172c.489.002.882.395.883.662a.883.883 0 0 1-.883.883c-.366 0-.661-.295-.662-.883a.66.66 0 0 1 .662-.662"/><path fill="#EFEFED" d="M88.055 91.807c.489.001.882.394.883.662a.883.883 0 0 1-.883.883c-.366-.001-.661-.296-.662-.883a.66.66 0 0 1 .662-.662"/><path fill="#034054" d="M154.483 66.428c.488 0 .881.394.882.662a.884.884 0 0 1-.882.882c-.367 0-.661-.295-.662-.882a.66.66 0 0 1 .662-.662"/><path fill="#E8EDED" d="M125.352 94.676c.488.001.881.394.883.662a.88.88 0 0 1-.883.883c-.367-.001-.661-.296-.662-.883a.66.66 0 0 1 .662-.662"/><path fill="#034154" d="M154.483 71.945c.488 0 .881.394.882.662a.883.883 0 0 1-.882.883c-.367-.001-.661-.296-.662-.883a.66.66 0 0 1 .662-.662"/><path fill="#070E11" d="m162.869 60.69 1.545.22v1.325h-1.545z"/><path fill="#E9EEEE" d="M119.835 88.938a.662.662 0 1 1 0 1.324.662.662 0 0 1 0-1.324"/><path fill="#034256" d="M148.524 83.42c.489.002.882.395.883.663a.883.883 0 0 1-.883.883c-.366-.001-.661-.296-.662-.883a.66.66 0 0 1 .662-.663"/><path fill="#034155" d="M151.614 80.552a.664.664 0 1 1 0 1.327.664.664 0 0 1 0-1.327"/><path fill="#EAEFEF" d="M168.607 63.338c.489.001.882.394.883.662a.9.9 0 0 1-.066.338.9.9 0 0 1-.479.479.9.9 0 0 1-.338.066c-.366-.001-.661-.296-.662-.883a.66.66 0 0 1 .662-.662"/><path fill="#034155" d="M148.524 60.91c.489.001.882.395.883.662a.883.883 0 0 1-.883.883c-.366 0-.661-.296-.662-.883a.66.66 0 0 1 .662-.662"/><path fill="#ECF0F0" d="M122.703 91.807a.663.663 0 1 1 0 1.326.663.663 0 0 1 0-1.326"/><path fill="#E8EDED" d="M148.524 100.634c.489.002.882.395.883.663a.885.885 0 0 1-.883.882c-.366-.001-.661-.295-.662-.882a.664.664 0 0 1 .662-.663"/><path fill="#070C0E" d="M162.648 66.648h1.986l-.22 1.104-1.766.22z"/><path fill="#034255" d="M151.614 63.559a.66.66 0 1 1 .052 1.32.66.66 0 0 1-.052-1.32"/><path fill="#0C1011" d="m141.462 41.931.22.662c-.977.733-1.254.769-2.427.662l-.662-.441v-.442l.814.152c.992.072 1.292.003 2.055-.593"/><path fill="#EAEAE8" d="M148.524 106.372c.489.002.882.395.883.662a.883.883 0 0 1-.883.883c-.366-.001-.661-.295-.662-.883a.663.663 0 0 1 .662-.662"/><path fill="#034053" d="M128.22 69.297a.659.659 0 0 1 .55 1.029.663.663 0 0 1-1.2-.238.662.662 0 0 1 .65-.791"/><path fill="#DBDBD9" d="M102.62 106.152a.664.664 0 1 1 0 1.328.664.664 0 0 1 0-1.328"/><path fill="#104B5E" d="M117.186 49.655c.489.001.882.394.883.662a.88.88 0 0 1-.883.883c-.366 0-.661-.296-.662-.883a.66.66 0 0 1 .662-.662"/><path fill="#E2E2E0" d="M154.262 20.303c.489.002.882.395.883.662a.883.883 0 0 1-.883.883c-.366 0-.661-.295-.662-.883a.66.66 0 0 1 .662-.662"/><path fill="#E3E3E1" d="M102.4 20.303c.489.002.882.395.883.662a.883.883 0 0 1-.883.883c-.366 0-.661-.295-.662-.883a.66.66 0 0 1 .662-.662"/><path fill="#DEDEDC" d="M85.186 89.159c.489 0 .882.394.883.662a.883.883 0 0 1-.883.883c-.366-.001-.661-.296-.662-.883a.66.66 0 0 1 .662-.662"/><path fill="#232323" d="m90.041 69.076 1.325.22V70.4H90.04z"/><path fill="#1D1D1D" d="M90.041 57.6h1.325v1.103l-1.325.221z"/><path fill="#E7E7E5" d="M85.186 37.517c.489.001.882.394.883.662a.883.883 0 0 1-.883.883c-.366 0-.661-.296-.662-.883a.66.66 0 0 1 .662-.662"/><path fill="#245B6D" d="M109.241 80.11v1.545l-1.103-.221V80.33c.441-.22.441-.22 1.103-.22"/><path fill="#034458" d="M128.22 75.035a.662.662 0 1 1 0 1.323.662.662 0 1 1 0-1.324"/><path fill="#F3F3F2" d="M177.434 48.993a.67.67 0 0 1 .613.41.67.67 0 0 1 0 .507.65.65 0 0 1-.359.36.67.67 0 0 1-.723-.144.66.66 0 0 1 0-.939.66.66 0 0 1 .469-.194"/><path fill="#E0E0DF" d="M174.566 40.386a.66.66 0 0 1 .662.663.663.663 0 1 1-.662-.663"/><path fill="#F4F4F2" d="M171.697 37.517a.661.661 0 1 1-.129 1.31.67.67 0 0 1-.34-.179.662.662 0 0 1 .469-1.13"/><path fill="#033C4E" d="M136.828 83.42a.663.663 0 1 1-.001.001"/><path fill="#E4E4E2" d="M174.566 74.814a.66.66 0 0 1 .611.916.65.65 0 0 1-.359.358.66.66 0 0 1-.721-.144.662.662 0 0 1 .469-1.13"/><path fill="#E6ECEC" d="M168.828 69.076a.662.662 0 1 1-.001 1.324.658.658 0 0 1-.652-.791.66.66 0 0 1 .399-.483.7.7 0 0 1 .254-.05"/><path fill="#DFE7E8" d="M154.483 48.993a.663.663 0 1 1 .05 1.325.663.663 0 0 1-.05-1.325"/><path fill="#141515" d="M119.393 97.986c.489.001.882.394.883.662a.883.883 0 0 1-.883.883c-.366 0-.661-.296-.662-.883a.66.66 0 0 1 .662-.662"/><path fill="#232323" d="M110.566 95.117h1.324v1.104h-1.325z"/><path fill="#E4EBEB" d="M168.828 74.814a.662.662 0 1 1 0 1.323.662.662 0 0 1 0-1.323"/><path fill="#E7E7E5" d="M177.434 71.945a.664.664 0 0 1 .663.662.67.67 0 0 1-.409.612.66.66 0 0 1-.889-.772.654.654 0 0 1 .635-.502"/><path fill="#303030" d="m92.91 48.772 1.325.442-.221.883H92.91z"/><path fill="#16191A" d="M129.986 43.035v.44c-.93.466-1.412.481-2.427.442l-.001-.662c1.682-.22 1.683-.22 2.428-.22"/><path fill="#D7E1E3" d="M165.959 89.159a.66.66 0 0 1 .635.403.663.663 0 1 1-.635-.403"/><path fill="#D9E2E3" d="M168.828 86.29a.66.66 0 0 1 .612.409.67.67 0 0 1-.144.721.65.65 0 0 1-.468.194.66.66 0 0 1-.468-1.13.66.66 0 0 1 .468-.194"/><path fill="#D8E1E2" d="M168.828 80.552a.662.662 0 1 1-.001 1.324.66.66 0 0 1-.468-1.13.66.66 0 0 1 .469-.194"/><path fill="#2C2C2C" d="M92.91 77.904h1.104l.22 1.103H92.91z"/><path fill="#1E5464" d="M111.669 88.497a.66.66 0 1 1 .052 1.32.66.66 0 0 1-.052-1.32"/><path fill="#DEE5E6" d="M171.697 83.42a.67.67 0 0 1 .613.41.67.67 0 0 1-.145.723.66.66 0 0 1-.938 0 .664.664 0 0 1 .47-1.132"/><path fill="#EFF3F2" d="M165.959 60.469a.66.66 0 0 1 .662.663.664.664 0 0 1-.663.662.66.66 0 0 1-.662-.663.663.663 0 0 1 .663-.662"/><path fill="#101010" d="M133.738 25.82h1.324l-.22 1.104h-1.104z"/><path fill="#070E10" d="M133.738 94.676h1.324v1.103h-1.324z"/><path fill="#070909" d="M164.414 55.172v1.104l-1.324.22v-1.103c.882-.22.882-.221 1.324-.221"/><path fill="#0D1214" d="M124.248 45.462c.904.106 1.765.22 2.649.441-.851.568-1.425.475-2.428.442z"/><path fill="#1F1F1F" d="M113.214 28.69h1.324l-.22 1.103h-.883z"/><path fill="#191919" d="M127.78 25.82h1.323l-.22 1.104H128z"/><path fill="#E4E4E3" d="M114.097 112.11a.67.67 0 0 1 .611.409.67.67 0 0 1-.143.723.668.668 0 0 1-1.118-.34.664.664 0 0 1 .65-.792"/><path fill="#E9EEEE" d="M160 94.897c.366 0 .661.295.662.44A.66.66 0 0 1 160 96c-.244 0-.44-.197-.441-.662a.44.44 0 0 1 .441-.441"/><path fill="#E5EBEC" d="M163.09 92.028c.366 0 .66.295.662.441a.66.66 0 0 1-.662.662c-.245 0-.441-.197-.442-.662a.44.44 0 0 1 .442-.441"/><path fill="#D7E1E3" d="M165.738 83.42c.366.002.661.296.662.442a.66.66 0 0 1-.662.662c-.244 0-.441-.197-.441-.662a.44.44 0 0 1 .129-.312.45.45 0 0 1 .312-.13"/><path fill="#E4E4E3" d="M79.448 77.683c.367 0 .662.295.662.441a.66.66 0 0 1-.662.662c-.244 0-.44-.197-.441-.662a.44.44 0 0 1 .441-.441"/><path fill="#034155" d="M130.869 66.648c.366.001.661.296.662.442a.66.66 0 0 1-.662.662c-.244 0-.44-.197-.441-.662a.44.44 0 0 1 .441-.442"/><path fill="#080808" d="M156.69 61.131h1.103v1.103l-1.103.221z"/><path fill="#034256" d="M136.828 61.131a.663.663 0 0 1 .467 1.13.664.664 0 0 1-1.13-.468.66.66 0 0 1 .663-.662"/><path fill="#E4E4E2" d="M79.448 48.993c.367.001.662.296.662.441a.66.66 0 0 1-.662.663c-.244-.001-.44-.197-.441-.663a.44.44 0 0 1 .441-.441"/><path fill="#1B2E34" d="M145.214 38.18h.883l.22 1.103h-1.324z"/><path fill="#263539" d="m139.476 38.18 1.103.22v.883h-1.324z"/><path fill="#1A1A1A" d="M142.345 28.69h1.324l-.22 1.103h-.883z"/><path fill="#E2E2E0" d="M114.097 14.786a.663.663 0 1 1-.001 1.326.663.663 0 0 1 .001-1.326"/><path fill="#F3F5F3" d="M171.034 77.683h1.104v1.103h-1.104z"/><path fill="#213035" d="M111.228 55.172h1.103v1.104h-1.103z"/><path fill="#145063" d="M119.614 47.007h1.103v1.103l-1.324-.22z"/><path fill="#080808" d="M122.041 25.82h1.325l-.221 1.104-1.104-.22z"/><path fill="#104E61" d="M138.814 103.503h.441l.22 1.325h1.325l-.22.441c-.621.041-.621.041-1.325 0l-.662-.662c.07-.593.071-.593.221-1.104"/><path fill="#034358" d="m129.986 77.904.883.22v.883h-1.103z"/><path fill="#D0D0CE" d="M105.048 17.655h.883v1.104l-1.103-.221z"/><path fill="#F2F2F0" d="m142.345 14.786 1.103.22-.22.884h-.883z"/><path fill="#F6F6F4" d="M142.786 112.11c.367.001.661.296.662.442a.664.664 0 0 1-.662.662c-.244-.001-.44-.197-.441-.662a.44.44 0 0 1 .272-.409.5.5 0 0 1 .169-.033"/><path fill="#070D0E" d="M130.869 97.986h.883v1.104h-1.104z"/><path fill="#D9D9D7" d="M174.345 80.552c.366 0 .661.295.662.441a.66.66 0 0 1-.662.662c-.244 0-.441-.197-.442-.662a.45.45 0 0 1 .129-.312.44.44 0 0 1 .313-.129"/><path fill="#0E1111" d="m132.635 42.372 1.986.662v.441c-1.49-.192-1.49-.193-1.986-.441z"/><path fill="#D8D8D7" d="M82.317 40.607c.367 0 .661.296.662.441a.66.66 0 0 1-.662.662c-.244 0-.44-.197-.441-.662a.44.44 0 0 1 .441-.441"/><path fill="#D8D8D6" d="M151.393 17.655c.366.001.661.296.662.442a.66.66 0 0 1-.662.662c-.244-.001-.44-.198-.441-.662a.44.44 0 0 1 .441-.442"/><path fill="#D4D4D3" d="M105.269 109.241c.366.001.661.296.662.442a.663.663 0 0 1-.662.662c-.244-.001-.44-.197-.441-.662a.44.44 0 0 1 .272-.409.5.5 0 0 1 .169-.033"/><path fill="#D4DFE1" d="M156.91 97.986c.367.001.662.296.662.442a.66.66 0 0 1-.662.662c-.244-.001-.44-.197-.441-.662a.44.44 0 0 1 .441-.442"/><path fill="#D6D6D4" d="M168.607 92.248c.366.001.661.296.662.442a.66.66 0 0 1-.662.662c-.244 0-.441-.197-.441-.662a.45.45 0 0 1 .129-.313.44.44 0 0 1 .312-.129"/><path fill="#D5D5D3" d="M82.317 86.29c.367 0 .661.295.662.441a.66.66 0 0 1-.662.662c-.244 0-.44-.197-.441-.662a.44.44 0 0 1 .441-.441"/><path fill="#1C5364" d="m113.876 52.303.883.221.22 1.104-1.103-.22z"/><path fill="#111516" d="M150.51 43.035h1.987l-.221.662a24 24 0 0 1-1.545-.221z"/><path fill="#090D0E" d="M147.641 40.607h1.766v.662l-1.766-.22z"/><path fill="#1F1F1F" d="M151.172 37.738h.883v1.324l-.883-.22z"/><path fill="#121211" d="m90.262 63.338.883.22v.883l-.883.221z"/><path fill="#070F11" d="M153.82 58.483h1.104v.883h-1.103z"/><path fill="#E0E0DF" d="M154.262 106.372c.366.001.661.296.662.442a.663.663 0 0 1-.662.662c-.244-.001-.44-.197-.441-.662a.44.44 0 0 1 .129-.313.45.45 0 0 1 .313-.129"/><path fill="#DEDEDC" d="M171.034 89.38h1.104v.882l-1.104-.22z"/><path fill="#E5ECEC" d="m145.214 46.345 1.103.22v.663h-1.103z"/><path fill="#E4E4E2" d="m151.172 109.241.663.221v.883h-.883z"/><path fill="#033F51" d="M147.2 100.634c.468.578.911 1.147 1.324 1.766-.883-.221-.883-.221-1.324-.662z"/><path fill="#E3EAEA" d="M154.041 100.634h.662v1.104l-.882-.221z"/><path fill="#E6E6E5" d="m162.648 97.986.883.22v.663h-1.103z"/><path fill="#E6ECEC" d="M151.172 97.986h.663v1.104l-.883-.221z"/><path fill="#E3E3E1" d="m165.517 95.117.883.22V96h-1.103z"/><path fill="#EDEDEB" d="M177.214 77.683h.662v1.103l-.883-.22z"/><path fill="#E5EBEC" d="m139.476 46.345 1.103.22-.22.663h-.883z"/><path fill="#EBEBE9" d="M160 100.855c.366.001.661.296.662.442a.664.664 0 0 1-.662.662c-.244-.001-.44-.197-.441-.662a.44.44 0 0 1 .129-.313.45.45 0 0 1 .313-.129"/><path fill="#424A4C" d="M134.18 38.18h.44l.221 1.103h-.882z"/></svg>
