<svg xmlns="http://www.w3.org/2000/svg" viewBox="0 0 192 128"><circle cx="64" cy="64" r="64" fill="#78350f"/><circle cx="64" cy="64" r="58" fill="#fff"/><path fill="#78350f" d="M47.52 41.136a10 10 0 0 0-3.486-1.37 9.2 9.2 0 0 0-3.668.042 9 9 0 0 0-3.288 1.442 8.6 8.6 0 0 0-2.414 2.634 9 9 0 0 0-1.168 3.424 9.4 9.4 0 0 0 .252 3.682c.538 2.012 3.024 2.396 4.732 1.172l4.352-3.112 4.364-3.12c1.706-1.226 2.104-3.674.324-4.794m46.014 2.748a8.66 8.66 0 0 0-5.702-4.076 9.2 9.2 0 0 0-3.668-.04 10 10 0 0 0-3.488 1.368c-1.78 1.12-1.38 3.568.326 4.792l4.364 3.122 4.352 3.112c1.708 1.224 4.194.84 4.732-1.172a9.4 9.4 0 0 0 .252-3.682 9 9 0 0 0-1.168-3.424M67.63 77.598a10.16 10.16 0 0 0-6.47 0c-1.16.394-2.172 1.006-2.108 1.928.116 1.412 2.36 3.828 3.982 4.326.992.3 1.614.28 2.72 0 1.622-.416 3.878-2.914 3.984-4.326.074-.922-.95-1.532-2.108-1.928m-11.118-4.544a7.2 7.2 0 0 0-2.128-1.888 6.8 6.8 0 0 0-2.666-.88 7 7 0 0 0-2.804.258c-.906.28-1.76.736-2.508 1.36a7.6 7.6 0 0 0-1.834 2.25c-.77 1.44.454 2.956 2.098 3.142l4.152.468 4.184.476c1.644.188 3.192-1.006 2.77-2.582a7.6 7.6 0 0 0-1.264-2.604m25.736-1.298a7.4 7.4 0 0 0-2.51-1.36 7 7 0 0 0-2.802-.258 6.8 6.8 0 0 0-2.666.882 7.2 7.2 0 0 0-2.13 1.888 7.5 7.5 0 0 0-1.264 2.604c-.42 1.576 1.128 2.77 2.76 2.582l4.186-.476 4.16-.468c1.646-.186 2.868-1.7 2.1-3.142a7.8 7.8 0 0 0-1.834-2.252"/><path fill="#78350f" d="M102.018 61.8a20.7 20.7 0 0 0 5.438-14.22 20.6 20.6 0 0 0-2.076-8.788c-3.732-7.718-13.174-13.744-22.838-11.732q-.59.13-1.168.302a11.6 11.6 0 0 0-3.92 2.08c-2.582 2.06-7.326 3.44-12.752 3.44h-.616c-5.424 0-10.168-1.384-12.75-3.444a11.6 11.6 0 0 0-3.922-2.078 16 16 0 0 0-1.168-.302c-9.662-2.012-19.104 4.014-22.836 11.732a20.6 20.6 0 0 0-2.076 8.786 20.72 20.72 0 0 0 5.44 14.222 1.46 1.46 0 0 1 .356 1.204c-2.328 13.1 1.108 23.88 8.18 31.554 7.428 8.06 18.324 12.076 28.894 12.294h.382c10.568-.218 21.466-4.232 28.894-12.292 7.072-7.676 10.508-18.454 8.18-31.556a1.45 1.45 0 0 1 .356-1.204zm-6.186-2.272a1.74 1.74 0 0 0-.6 1.764c5.49 22.872-8.62 36.224-24.83 39.086h-.01a38 38 0 0 1-4.732.54c-.094 0-.2.01-.294.01-.296.02-.6.02-.896.032h-.074l-.02-.002h-.054c-.296-.01-.6-.01-.896-.03-.094 0-.2-.012-.296-.012a38 38 0 0 1-4.73-.54h-.012C42.18 97.516 28.068 84.164 33.56 61.29a1.74 1.74 0 0 0-.6-1.762 15 15 0 0 1-5.66-11.9 14.9 14.9 0 0 1 1.486-6.306c2.76-5.716 9.706-9.876 16.23-8.516.764.156 2.812.82 4.808 1.756.724.34 1.404.764 2.04 1.244 2.616 1.976 7.25 3.29 12.532 3.296 5.284-.004 9.92-1.32 12.534-3.294.636-.48 1.314-.904 2.04-1.244 1.994-.936 4.042-1.6 4.808-1.758 6.522-1.36 13.468 2.8 16.23 8.518a14.9 14.9 0 0 1 1.484 6.306 15 15 0 0 1-5.66 11.898"/><circle cx="64" cy="64" r="64" fill="#00bfff" transform="translate(64)"/><path fill="#fafdff" d="M154.248 75.656q4.984 6.664 2.088 14.492-2.892 7.824-11.496 10.264a16 16 0 0 1-8.388.092q-4.28-1.08-7.012-4.072-9.92 4.432-18.64-.432t-10.48-15.812a15.1 15.1 0 0 1-7.38-4.168q-3.036-3.112-4.38-7.848-2.16-7.6 3.432-14.24t12.976-5.768l8.644 1.048a20.4 20.4 0 0 1 4.82-8.168 20 20 0 0 1 8.088-5.192l-1.84-6.48a3.76 3.76 0 0 1 1.3-4.137c.41-.313.88-.539 1.38-.663a3.76 3.76 0 0 1 4.8 2.676l2.12 7.48q5.008.06 8.824 2.14 3.82 2.08 7.428 6.716l7.228-2.052a3.76 3.76 0 0 1 2.98.3 3.76 3.76 0 0 1 1.82 2.376 3.76 3.76 0 0 1-.3 2.98 3.76 3.76 0 0 1-2.376 1.82l-6.48 1.84a20.8 20.8 0 0 1-.048 9.576 19.2 19.2 0 0 1-4.292 8.356zm-30.06 11.76a40 40 0 0 1-1.296-6.7 36 36 0 0 1-.068-6.648 24 24 0 0 1-5.624 3.684 27.7 27.7 0 0 1-6.452 2.168q1.38 4.86 4.98 6.872 3.6 2.01 8.46.624M109.16 69.6q3.988-1.127 6.76-2.996 2.768-1.86 6.78-6.232l-16.72-1.988q-4.044-.468-6.156 1.812-2.108 2.28-1.16 5.648.924 3.24 3.464 4.136 2.544.892 7.032-.38m32.848 20.844q3.12-.88 4.428-3.612 1.316-2.728-.356-4.816l-11.54-15.04a41.6 41.6 0 0 0-1.412 9.02q-.18 4.36.74 7.6 1.168 4.116 3.22 5.888t4.92.96m.376-30q.888-1.6 1.056-3.872a12.8 12.8 0 0 0-.472-4.512q-1.132-3.983-4.528-5.984a8.96 8.96 0 0 0-7.26-.904q-2.248.636-4.024 1.948a9.6 9.6 0 0 0-2.764 3.076l10.996 1.728z"/></svg>
