<svg xmlns="http://www.w3.org/2000/svg" viewBox="0 0 192 128"><circle cx="64" cy="64" r="64" fill="#78350f"/><circle cx="64" cy="64" r="58" fill="#fff"/><path fill="#78350f" d="M47.52 41.136a10 10 0 0 0-3.486-1.37 9.2 9.2 0 0 0-3.668.042 9 9 0 0 0-3.288 1.442 8.6 8.6 0 0 0-2.414 2.634 9 9 0 0 0-1.168 3.424 9.4 9.4 0 0 0 .252 3.682c.538 2.012 3.024 2.396 4.732 1.172l4.352-3.112 4.364-3.12c1.706-1.226 2.104-3.674.324-4.794m46.014 2.748a8.66 8.66 0 0 0-5.702-4.076 9.2 9.2 0 0 0-3.668-.04 10 10 0 0 0-3.488 1.368c-1.78 1.12-1.38 3.568.326 4.792l4.364 3.122 4.352 3.112c1.708 1.224 4.194.84 4.732-1.172a9.4 9.4 0 0 0 .252-3.682 9 9 0 0 0-1.168-3.424M67.63 77.598a10.16 10.16 0 0 0-6.47 0c-1.16.394-2.172 1.006-2.108 1.928.116 1.412 2.36 3.828 3.982 4.326.992.3 1.614.28 2.72 0 1.622-.416 3.878-2.914 3.984-4.326.074-.922-.95-1.532-2.108-1.928m-11.118-4.544a7.2 7.2 0 0 0-2.128-1.888 6.8 6.8 0 0 0-2.666-.88 7 7 0 0 0-2.804.258c-.906.28-1.76.736-2.508 1.36a7.6 7.6 0 0 0-1.834 2.25c-.77 1.44.454 2.956 2.098 3.142l4.152.468 4.184.476c1.644.188 3.192-1.006 2.77-2.582a7.6 7.6 0 0 0-1.264-2.604m25.736-1.298a7.4 7.4 0 0 0-2.51-1.36 7 7 0 0 0-2.802-.258 6.8 6.8 0 0 0-2.666.882 7.2 7.2 0 0 0-2.13 1.888 7.5 7.5 0 0 0-1.264 2.604c-.42 1.576 1.128 2.77 2.76 2.582l4.186-.476 4.16-.468c1.646-.186 2.868-1.7 2.1-3.142a7.8 7.8 0 0 0-1.834-2.252"/><path fill="#78350f" d="M102.018 61.8a20.7 20.7 0 0 0 5.438-14.22 20.6 20.6 0 0 0-2.076-8.788c-3.732-7.718-13.174-13.744-22.838-11.732q-.59.13-1.168.302a11.6 11.6 0 0 0-3.92 2.08c-2.582 2.06-7.326 3.44-12.752 3.44h-.616c-5.424 0-10.168-1.384-12.75-3.444a11.6 11.6 0 0 0-3.922-2.078 16 16 0 0 0-1.168-.302c-9.662-2.012-19.104 4.014-22.836 11.732a20.6 20.6 0 0 0-2.076 8.786 20.72 20.72 0 0 0 5.44 14.222 1.46 1.46 0 0 1 .356 1.204c-2.328 13.1 1.108 23.88 8.18 31.554 7.428 8.06 18.324 12.076 28.894 12.294h.382c10.568-.218 21.466-4.232 28.894-12.292 7.072-7.676 10.508-18.454 8.18-31.556a1.45 1.45 0 0 1 .356-1.204zm-6.186-2.272a1.74 1.74 0 0 0-.6 1.764c5.49 22.872-8.62 36.224-24.83 39.086h-.01a38 38 0 0 1-4.732.54c-.094 0-.2.01-.294.01-.296.02-.6.02-.896.032h-.074l-.02-.002h-.054c-.296-.01-.6-.01-.896-.03-.094 0-.2-.012-.296-.012a38 38 0 0 1-4.73-.54h-.012C42.18 97.516 28.068 84.164 33.56 61.29a1.74 1.74 0 0 0-.6-1.762 15 15 0 0 1-5.66-11.9 14.9 14.9 0 0 1 1.486-6.306c2.76-5.716 9.706-9.876 16.23-8.516.764.156 2.812.82 4.808 1.756.724.34 1.404.764 2.04 1.244 2.616 1.976 7.25 3.29 12.532 3.296 5.284-.004 9.92-1.32 12.534-3.294.636-.48 1.314-.904 2.04-1.244 1.994-.936 4.042-1.6 4.808-1.758 6.522-1.36 13.468 2.8 16.23 8.518a14.9 14.9 0 0 1 1.484 6.306 15 15 0 0 1-5.66 11.898"/><circle cx="64" cy="64" r="60" fill="#fff" transform="translate(64)"/><path fill="#252424" d="M125.068.119A64.07 64.07 0 0 0 91.56 11.412c-3.455 2.392-6.258 4.77-9.445 8.045-4.76 4.873-8.19 9.682-11.314 15.885-3.825 7.584-5.911 15.028-6.667 23.788-.179 2.135-.179 7.712 0 9.848.743 8.505 2.778 15.974 6.361 23.239 3.174 6.42 6.694 11.408 11.634 16.46 5.388 5.512 10.815 9.452 17.662 12.802 7.461 3.671 14.756 5.679 23.165 6.395 1.984.167 8.127.167 10.11 0 8.307-.703 15.896-2.788 23.127-6.343 6.425-3.172 11.416-6.689 16.472-11.626 5.516-5.385 9.458-10.808 12.811-17.65 3.673-7.457 5.683-14.734 6.399-23.15.167-1.982.167-8.121 0-10.103-.704-8.3-2.79-15.885-6.348-23.111-3.174-6.42-6.706-11.422-11.634-16.46-3.046-3.109-5.388-5.13-8.702-7.496-8.844-6.317-19.147-10.255-30.14-11.509-1.6-.18-6.605-.46-7.488-.422-.205 0-1.33.05-2.495.115m-10.06 34.008c1.51.383 2.88 1.163 4.121 2.34 2.035 1.919.18-1.944 19.402 40.441 2.394 5.27 4.441 9.759 4.557 9.976l.192.384.166-.384c.103-.217.448-.985.794-1.726.332-.742 5.017-11.025 10.392-22.856l9.791-21.525h4.658c4.365 0 4.646.013 4.582.218-.077.307-20.836 45.876-21.36 46.887-1.05 2.097-2.842 3.939-4.787 4.924-2.88 1.47-6.809 1.253-9.548-.512-1.023-.652-2.431-2.097-3.148-3.184-.294-.46-3.801-8.032-7.781-16.819-3.994-8.786-8.819-19.427-10.726-23.648-1.92-4.22-3.52-7.674-3.583-7.674-.051 0-.602 1.138-1.241 2.545a691 691 0 0 1-2.087 4.604 903 903 0 0 0-3.212 7.048c-1.241 2.737-2.406 5.307-2.585 5.691-.18.384-2.88 6.331-6.003 13.212a4210 4210 0 0 1-5.874 12.892l-.205.37h-4.595c-2.905 0-4.607-.05-4.607-.127 0-.192 21.322-47.143 21.847-48.09 1.37-2.519 3.878-4.514 6.335-5.051 1.241-.269 3.328-.243 4.505.064m37.448 6.714c0 .09-9.074 23.086-9.202 23.316-.102.192-.14.179-.243-.102-.077-.18-2.125-5.385-4.57-11.575-2.444-6.19-4.466-11.357-4.504-11.485-.064-.205.435-.218 9.228-.218 5.106 0 9.291.026 9.291.064m-39.61 23.303c.14.396 6.846 17.394 7.998 20.31.614 1.548 1.088 2.852 1.062 2.903-.025.064-4.197.103-9.253.103-5.055 0-9.227-.039-9.253-.103-.064-.127 9.138-23.43 9.253-23.43.064 0 .14.102.192.217"/></svg>
