<svg xmlns="http://www.w3.org/2000/svg" viewBox="0 0 192 128"><svg viewBox="0 0 128 128"><circle cx="64" cy="64" r="64" fill="#78350F"/><circle cx="64" cy="64" r="58" fill="#fff"/><path fill="#78350F" d="M47.52 41.136a10 10 0 0 0-3.486-1.37 9.2 9.2 0 0 0-3.668.042 9 9 0 0 0-3.288 1.442 8.6 8.6 0 0 0-2.414 2.634 9 9 0 0 0-1.168 3.424 9.4 9.4 0 0 0 .252 3.682c.538 2.012 3.024 2.396 4.732 1.172l4.352-3.112 4.364-3.12c1.706-1.226 2.104-3.674.324-4.794m46.014 2.748a8.66 8.66 0 0 0-5.702-4.076 9.2 9.2 0 0 0-3.668-.04 10 10 0 0 0-3.488 1.368c-1.78 1.12-1.38 3.568.326 4.792l4.364 3.122 4.352 3.112c1.708 1.224 4.194.84 4.732-1.172a9.4 9.4 0 0 0 .252-3.682 9 9 0 0 0-1.168-3.424M67.63 77.598a10.16 10.16 0 0 0-6.47 0c-1.16.394-2.172 1.006-2.108 1.928.116 1.412 2.36 3.828 3.982 4.326.992.3 1.614.28 2.72 0 1.622-.416 3.878-2.914 3.984-4.326.074-.922-.95-1.532-2.108-1.928m-11.118-4.544a7.2 7.2 0 0 0-2.128-1.888 6.8 6.8 0 0 0-2.666-.88 7 7 0 0 0-2.804.258c-.906.28-1.76.736-2.508 1.36a7.6 7.6 0 0 0-1.834 2.25c-.77 1.44.454 2.956 2.098 3.142l4.152.468 4.184.476c1.644.188 3.192-1.006 2.77-2.582a7.6 7.6 0 0 0-1.264-2.604m25.736-1.298a7.4 7.4 0 0 0-2.51-1.36 7 7 0 0 0-2.802-.258 6.8 6.8 0 0 0-2.666.882 7.2 7.2 0 0 0-2.13 1.888 7.5 7.5 0 0 0-1.264 2.604c-.42 1.576 1.128 2.77 2.76 2.582l4.186-.476 4.16-.468c1.646-.186 2.868-1.7 2.1-3.142a7.8 7.8 0 0 0-1.834-2.252"/><path fill="#78350F" d="M102.018 61.8a20.7 20.7 0 0 0 5.438-14.22 20.6 20.6 0 0 0-2.076-8.788c-3.732-7.718-13.174-13.744-22.838-11.732q-.59.13-1.168.302a11.6 11.6 0 0 0-3.92 2.08c-2.582 2.06-7.326 3.44-12.752 3.44h-.616c-5.424 0-10.168-1.384-12.75-3.444a11.6 11.6 0 0 0-3.922-2.078 16 16 0 0 0-1.168-.302c-9.662-2.012-19.104 4.014-22.836 11.732a20.6 20.6 0 0 0-2.076 8.786 20.72 20.72 0 0 0 5.44 14.222 1.46 1.46 0 0 1 .356 1.204c-2.328 13.1 1.108 23.88 8.18 31.554 7.428 8.06 18.324 12.076 28.894 12.294h.382c10.568-.218 21.466-4.232 28.894-12.292 7.072-7.676 10.508-18.454 8.18-31.556a1.45 1.45 0 0 1 .356-1.204zm-6.186-2.272a1.74 1.74 0 0 0-.6 1.764c5.49 22.872-8.62 36.224-24.83 39.086h-.01a38 38 0 0 1-4.732.54c-.094 0-.2.01-.294.01-.296.02-.6.02-.896.032h-.074l-.02-.002h-.054c-.296-.01-.6-.01-.896-.03-.094 0-.2-.012-.296-.012a38 38 0 0 1-4.73-.54h-.012C42.18 97.516 28.068 84.164 33.56 61.29a1.74 1.74 0 0 0-.6-1.762 15 15 0 0 1-5.66-11.9 14.9 14.9 0 0 1 1.486-6.306c2.76-5.716 9.706-9.876 16.23-8.516.764.156 2.812.82 4.808 1.756.724.34 1.404.764 2.04 1.244 2.616 1.976 7.25 3.29 12.532 3.296 5.284-.004 9.92-1.32 12.534-3.294.636-.48 1.314-.904 2.04-1.244 1.994-.936 4.042-1.6 4.808-1.758 6.522-1.36 13.468 2.8 16.23 8.518a14.9 14.9 0 0 1 1.484 6.306 15 15 0 0 1-5.66 11.898"/></svg><svg x="64" viewBox="0 0 128 128"><circle cx="64" cy="64" r="64"/><path fill="url(#_ibera)" fill-rule="evenodd" d="M107.456 47.58a20.72 20.72 0 0 1-5.44 14.22 1.43 1.43 0 0 0-.36 1.2c2.332 13.104-1.104 23.88-8.176 31.56-7.428 8.06-18.324 12.072-28.896 12.292h-.38c-10.568-.22-21.464-4.236-28.896-12.296C28.24 86.88 24.804 76.104 27.132 63a1.44 1.44 0 0 0-.36-1.2 20.72 20.72 0 0 1-3.36-23.008c3.732-7.72 13.172-13.748 22.836-11.732q.48.1 1.168.3c1.436.424 2.76 1.148 3.92 2.08 2.584 2.06 7.328 3.44 12.752 3.44h.616c5.424 0 10.168-1.376 12.748-3.44 1.164-.928 2.488-1.656 3.92-2.08a16 16 0 0 1 1.172-.3c9.664-2.012 19.104 4.016 22.836 11.732a20.6 20.6 0 0 1 2.076 8.788m-63.424-7.812a10 10 0 0 1 3.488 1.368c1.78 1.12 1.38 3.568-.324 4.792l-8.72 6.236c-1.704 1.224-4.192.84-4.728-1.172a9.6 9.6 0 0 1-.252-3.68 9.1 9.1 0 0 1 1.168-3.428 8.5 8.5 0 0 1 2.412-2.632 9 9 0 0 1 3.288-1.44 9.2 9.2 0 0 1 3.668-.044m47.088 1.48a8.8 8.8 0 0 1 3.584 6.06 9.5 9.5 0 0 1-.252 3.68c-.54 2.016-3.024 2.4-4.732 1.176l-8.716-6.236c-1.708-1.224-2.108-3.672-.328-4.792a10 10 0 0 1 3.488-1.368 9.2 9.2 0 0 1 3.668.04 8.8 8.8 0 0 1 3.288 1.44M67.632 77.6a10.16 10.16 0 0 0-6.472 0c-1.16.396-2.168 1.008-2.104 1.928.116 1.412 2.36 3.828 3.98 4.328.992.3 1.616.28 2.72 0 1.624-.416 3.88-2.916 3.984-4.328.072-.92-.948-1.532-2.108-1.928m-13.248-6.428a7.2 7.2 0 0 1 2.128 1.884 7.5 7.5 0 0 1 1.264 2.604c.424 1.58-1.128 2.772-2.772 2.584l-4.18-.48-4.156-.464c-1.64-.188-2.864-1.7-2.096-3.144a7.6 7.6 0 0 1 1.836-2.248 7.2 7.2 0 0 1 2.508-1.36 6.92 6.92 0 0 1 5.468.624m27.86.588a7.3 7.3 0 0 0-2.508-1.36 6.92 6.92 0 0 0-5.468.624 7.2 7.2 0 0 0-2.128 1.888 7.6 7.6 0 0 0-1.264 2.604c-.424 1.576 1.124 2.768 2.76 2.584l4.184-.48 4.16-.464c1.648-.188 2.868-1.7 2.1-3.144a8 8 0 0 0-1.836-2.252" clip-rule="evenodd"/><defs><linearGradient id="_ibera" x1="159.212" x2="-25.728" y1="67.356" y2="70.14" gradientUnits="userSpaceOnUse"><stop stop-color="#F8F29C"/><stop offset=".165" stop-color="#F6DB2A"/><stop offset=".333" stop-color="#F4A435"/><stop offset=".55" stop-color="#E85A46"/><stop offset=".699" stop-color="#B93483"/><stop offset=".867" stop-color="#502B6E"/><stop offset="1" stop-color="#2A2136"/></linearGradient></defs></svg></svg>
