<svg xmlns="http://www.w3.org/2000/svg" viewBox="0 0 192 128"><circle cx="64" cy="64" r="64" fill="#78350F"/><circle cx="64" cy="64" r="58" fill="#fff"/><path fill="#78350F" d="M47.52 41.136a10 10 0 0 0-3.486-1.37 9.2 9.2 0 0 0-3.668.042 9 9 0 0 0-3.288 1.442 8.6 8.6 0 0 0-2.414 2.634 9 9 0 0 0-1.168 3.424 9.4 9.4 0 0 0 .252 3.682c.538 2.012 3.024 2.396 4.732 1.172l4.352-3.112 4.364-3.12c1.706-1.226 2.104-3.674.324-4.794m46.014 2.748a8.66 8.66 0 0 0-5.702-4.076 9.2 9.2 0 0 0-3.668-.04 10 10 0 0 0-3.488 1.368c-1.78 1.12-1.38 3.568.326 4.792l4.364 3.122 4.352 3.112c1.708 1.224 4.194.84 4.732-1.172a9.4 9.4 0 0 0 .252-3.682 9 9 0 0 0-1.168-3.424M67.63 77.598a10.16 10.16 0 0 0-6.47 0c-1.16.394-2.172 1.006-2.108 1.928.116 1.412 2.36 3.828 3.982 4.326.992.3 1.614.28 2.72 0 1.622-.416 3.878-2.914 3.984-4.326.074-.922-.95-1.532-2.108-1.928m-11.118-4.544a7.2 7.2 0 0 0-2.128-1.888 6.8 6.8 0 0 0-2.666-.88 7 7 0 0 0-2.804.258c-.906.28-1.76.736-2.508 1.36a7.6 7.6 0 0 0-1.834 2.25c-.77 1.44.454 2.956 2.098 3.142l4.152.468 4.184.476c1.644.188 3.192-1.006 2.77-2.582a7.6 7.6 0 0 0-1.264-2.604m25.736-1.298a7.4 7.4 0 0 0-2.51-1.36 7 7 0 0 0-2.802-.258 6.8 6.8 0 0 0-2.666.882 7.2 7.2 0 0 0-2.13 1.888 7.5 7.5 0 0 0-1.264 2.604c-.42 1.576 1.128 2.77 2.76 2.582l4.186-.476 4.16-.468c1.646-.186 2.868-1.7 2.1-3.142a7.8 7.8 0 0 0-1.834-2.252"/><path fill="#78350F" d="M102.018 61.8a20.7 20.7 0 0 0 5.438-14.22 20.6 20.6 0 0 0-2.076-8.788c-3.732-7.718-13.174-13.744-22.838-11.732q-.59.13-1.168.302a11.6 11.6 0 0 0-3.92 2.08c-2.582 2.06-7.326 3.44-12.752 3.44h-.616c-5.424 0-10.168-1.384-12.75-3.444a11.6 11.6 0 0 0-3.922-2.078 16 16 0 0 0-1.168-.302c-9.662-2.012-19.104 4.014-22.836 11.732a20.6 20.6 0 0 0-2.076 8.786 20.72 20.72 0 0 0 5.44 14.222 1.46 1.46 0 0 1 .356 1.204c-2.328 13.1 1.108 23.88 8.18 31.554 7.428 8.06 18.324 12.076 28.894 12.294h.382c10.568-.218 21.466-4.232 28.894-12.292 7.072-7.676 10.508-18.454 8.18-31.556a1.45 1.45 0 0 1 .356-1.204zm-6.186-2.272a1.74 1.74 0 0 0-.6 1.764c5.49 22.872-8.62 36.224-24.83 39.086h-.01a38 38 0 0 1-4.732.54c-.094 0-.2.01-.294.01-.296.02-.6.02-.896.032h-.074l-.02-.002h-.054c-.296-.01-.6-.01-.896-.03-.094 0-.2-.012-.296-.012a38 38 0 0 1-4.73-.54h-.012C42.18 97.516 28.068 84.164 33.56 61.29a1.74 1.74 0 0 0-.6-1.762 15 15 0 0 1-5.66-11.9 14.9 14.9 0 0 1 1.486-6.306c2.76-5.716 9.706-9.876 16.23-8.516.764.156 2.812.82 4.808 1.756.724.34 1.404.764 2.04 1.244 2.616 1.976 7.25 3.29 12.532 3.296 5.284-.004 9.92-1.32 12.534-3.294.636-.48 1.314-.904 2.04-1.244 1.994-.936 4.042-1.6 4.808-1.758 6.522-1.36 13.468 2.8 16.23 8.518a14.9 14.9 0 0 1 1.484 6.306 15 15 0 0 1-5.66 11.898"/><circle cx="64" cy="64" r="64" transform="translate(64)"/><path fill="url(#_ibgt)" d="M63.832 99.96a19.2 19.2 0 0 1-2.62-3.512c-1.872-2.944-5.008-9.856-5.016-17.456-6.62 3.864-14.256 4.616-17.768 4.464a19.2 19.2 0 0 1-3.944-.416q2.208 10.752 11.068 15.696 8.6 4.8 18.28 1.224m23.76-31.48a20.8 20.8 0 0 0 3.924-8.168q1.231-5.148.048-10.34l7-1.984a4.07 4.07 0 0 0 3.06-3.543 4.1 4.1 0 0 0-.172-1.641 4.08 4.08 0 0 0-1.96-2.572 4.08 4.08 0 0 0-3.22-.32l-7.808 2.216q-3.892-5.004-8.02-7.252-4.128-2.244-9.528-2.312l-2.292-8.08a4.08 4.08 0 0 0-1.964-2.568 4.08 4.08 0 0 0-3.22-.32 4.08 4.08 0 0 0-2.568 1.96 4.08 4.08 0 0 0-.324 3.22l1.984 7a21.6 21.6 0 0 0-8.732 5.608 22.4 22.4 0 0 0-4.576 7.04l23.36 2.88zM38.36 48.952a15.332 15.332 0 0 0 .116 30.664h.088c3.568.168 12.244-.816 18.42-5.812L69.248 52.76zm21.904 26.852 12.052-20.68 18.828 24.148a15.334 15.334 0 0 1-26.624 15.22l-.044-.08c-1.908-2.972-5.336-10.84-4.212-18.608" transform="translate(64)"/><defs transform="translate(64)"><linearGradient id="_ibgt" x1="148.82" x2="-19.768" y1="62.384" y2="64.684" gradientUnits="userSpaceOnUse"><stop stop-color="#F8F29C"/><stop offset=".165" stop-color="#F6DB2A"/><stop offset=".333" stop-color="#F4A435"/><stop offset=".55" stop-color="#E85A46"/><stop offset=".699" stop-color="#B93483"/><stop offset=".867" stop-color="#502B6E"/><stop offset="1" stop-color="#2A2136"/></linearGradient></defs></svg>
