<svg xmlns="http://www.w3.org/2000/svg" viewBox="0 0 256 128"><circle cx="64" cy="64" r="64" fill="#282138"/><circle cx="64" cy="64" r="59" fill="#fff"/><path fill="#5a5564" d="m104.37 26.863-3.514 3.514a49.756 49.756 0 0 1 0 67.152l3.514 3.514a54.776 54.776 0 0 0 0-74.262zm-73.91.305a49.754 49.754 0 0 1 67.15 0l3.515-3.515a54.78 54.78 0 0 0-74.262 0zm-3.293 70.396a49.754 49.754 0 0 1 0-67.116l-3.514-3.515a54.78 54.78 0 0 0 0 74.263zm70.397 3.245a49.756 49.756 0 0 1-67.151 0l-3.515 3.515a54.78 54.78 0 0 0 74.263 0z"/><path fill="#f09242" d="M86.189 52.273c-.703-7.334-7.03-9.794-15.031-10.544V31.632h-6.186v9.911H60.03v-9.911h-6.14V41.8H41.344v6.619s4.569-.082 4.499 0a3.2 3.2 0 0 1 3.514 2.718v27.835a2.17 2.17 0 0 1-.75 1.511 2.15 2.15 0 0 1-1.593.54c.082.07-4.499 0-4.499 0l-1.171 7.391h12.43v10.333h6.185v-10.18h4.944V98.7H71.1V88.485c10.45-.633 17.737-3.21 18.651-12.992.738-7.873-2.964-11.388-8.88-12.805 3.596-1.77 5.822-5.05 5.319-10.415m-8.67 22.001c0 7.685-13.168 6.807-17.362 6.807V67.444c4.195.012 17.362-1.195 17.362 6.83m-2.87-19.213c0 7.03-10.989 6.174-14.48 6.174V48.841c3.491 0 14.48-1.102 14.48 6.22"/><circle cx="64" cy="64" r="64" fill="url(#_solvbtc)" transform="translate(64)"/><path fill="#fff" fill-rule="evenodd" d="M138.781 29.41a4 4 0 1 1 7.729 2.07l-1.695 6.324 1.051.282c7.567 2.027 12.057 9.805 10.03 17.372l-.094.35c-1.581 5.9-6.75 9.88-12.53 10.223l-.001.005h-.092l-.007.001-.028.001c-.421.035-.5.64-.08.771v.002c7.282 2.884 11.405 10.834 9.329 18.582-2.236 8.343-10.811 13.294-19.154 11.058l-2.456-.658-1.694 6.323a4 4 0 1 1-7.728-2.071l1.694-6.322-7.027-1.883-1.694 6.322a4 4 0 1 1-7.728-2.07l1.694-6.323-7.029-1.883-3.863-1.036a4.364 4.364 0 1 1 2.26-8.43l3.863 1.034 10.919-40.75-3.51-.94a4.365 4.365 0 1 1 2.26-8.432l3.512.941v.001l5.62 1.506 1.694-6.324a4 4 0 1 1 7.729 2.07l-1.695 6.325 7.027 1.882zm-18.974 27.003a5.143 5.143 0 0 1 3.637-6.298l14.39-3.856a5.142 5.142 0 1 1 2.661 9.934l-14.39 3.856a5.14 5.14 0 0 1-6.298-3.636m-6.58 23.269a5.14 5.14 0 0 1 3.636-6.298l14.39-3.856a5.143 5.143 0 1 1 2.662 9.935l-14.39 3.855a5.14 5.14 0 0 1-6.298-3.636"/><defs transform="translate(64)"><linearGradient id="_solvbtc" x1="64" x2="64" y1="0" y2="128" gradientUnits="userSpaceOnUse"><stop stop-color="#fedf70"/><stop offset="1" stop-color="#d88528"/></linearGradient></defs><path fill="url(#_xsolvbtc)" d="M126.084 79.482c-8.549 34.286-43.278 55.152-77.572 46.602-34.28-8.548-55.148-43.276-46.595-77.56C10.462 14.236 45.192-6.632 79.475 1.916c34.292 8.548 55.158 43.28 46.609 77.566" transform="translate(128)"/><path fill="#fff" fill-rule="evenodd" d="M202.781 29.41a4.001 4.001 0 0 1 7.73 2.07l-1.696 6.324 1.051.282c7.567 2.027 12.057 9.805 10.03 17.372l-.094.35c-1.58 5.9-6.75 9.88-12.53 10.223v.005h-.093l-.007.001-.028.001c-.42.035-.5.64-.08.771v.002c7.282 2.884 11.405 10.834 9.33 18.582-2.237 8.343-10.812 13.294-19.155 11.058l-2.456-.658-1.694 6.323a3.999 3.999 0 0 1-7.328.964 4 4 0 0 1-.4-3.035l1.694-6.322-7.027-1.883-1.694 6.322a4 4 0 1 1-7.728-2.07l1.694-6.322-7.029-1.883-3.863-1.036a4.365 4.365 0 1 1 2.26-8.43l3.863 1.034 10.92-40.75-3.51-.94a4.365 4.365 0 0 1 2.26-8.432l3.511.941 5.62 1.507 1.694-6.324a4.001 4.001 0 0 1 7.73 2.07l-1.696 6.325 7.027 1.882zm-18.974 27.003a5.144 5.144 0 0 1 3.637-6.298l14.39-3.856a5.143 5.143 0 0 1 2.661 9.934l-14.39 3.856a5.14 5.14 0 0 1-6.298-3.636m-6.58 23.27a5.14 5.14 0 0 1 3.636-6.299l14.39-3.856a5.144 5.144 0 0 1 2.662 9.935l-14.39 3.855a5.14 5.14 0 0 1-6.298-3.636"/><path fill="#0c1618" d="M224 64c17.673 0 32-14.327 32-32S241.673 0 224 0s-32 14.327-32 32 14.327 32 32 32"/><path fill="#fcfdfc" d="m226.225 13.486.306.044c3.142.495 6.111 1.71 8.631 3.667l.098.073q.137.105.272.215l.155.123c.693.563 1.375 1.17 1.954 1.852q.144.167.295.325a14.3 14.3 0 0 1 1.509 1.988l.135.21c.286.444.559.892.812 1.357l.121.214c.066.123.117.235.168.364l.086.19c2.13 4.69 2.329 9.95.53 14.779q-.248.626-.534 1.236l-.087.193a14.6 14.6 0 0 1-1.766 2.942l-.201.262-.105.136-.213.277q-.372.481-.794.92-.144.152-.281.313a7.5 7.5 0 0 1-.831.818q-.162.145-.32.295c-.268.245-.55.47-.839.69l-.144.112c-2.173 1.673-4.685 2.811-7.351 3.433l-.198.048c-1.246.271-2.51.372-3.782.373l-.635.003a17.8 17.8 0 0 1-5.474-.96l-.203-.066a15 15 0 0 1-1.364-.55l-.134-.059a17 17 0 0 1-3.612-2.127l-.145-.112c-.413-.319-.822-.65-1.192-1.022q-.15-.148-.309-.288-.258-.228-.5-.473l-.166-.167c-.88-.912-1.622-1.942-2.302-3.01l-.089-.14c-.86-1.365-2.093-3.405-2.093-5.056l1.783-.011 1.004-.006.795.016c.13.172.181.307.251.507.378 1.05.85 2.075 1.48 2.998l.096.15c.767 1.174 1.724 2.345 2.829 3.218q.14.11.275.223c.36.3.73.567 1.124.821l.193.132c.176.117.358.222.54.328q.27.159.531.328c.165.095.334.168.507.243l.17.078c1.08.487 2.169.871 3.33 1.118l.268.067c.387.082.782.127 1.174.18v-4.782l-.536-.083a9 9 0 0 1-.33-.083l-.156-.038-.172-.044-.11-.027a4 4 0 0 1-.714-.262l-.122-.039a3 3 0 0 1-.428-.194 6 6 0 0 0-.244-.113 10 10 0 0 1-.494-.233l-.172-.087c-.146-.076-.146-.076-.27-.159v-.082l-.105-.028a1.6 1.6 0 0 1-.43-.26V40.7l-.165-.041a5 5 0 0 1-.234-.16l-.122-.088c-.097-.082-.097-.082-.138-.206l-.165-.083a8.2 8.2 0 0 1-1.319-1.36l-.095-.12c-.708-.89-1.243-1.907-1.633-2.973l-.067-.175c-.902-2.51-.657-5.416.437-7.825l.124-.206.123-.288c.558-1.078 1.333-2.106 2.266-2.887l.188-.176c.264-.239.55-.444.84-.65l.175-.123c.311-.218.611-.422.971-.551q.205-.081.4-.191.267-.15.556-.248l.163-.077c1.838-.782 4.09-.87 6.014-.418l.148.034a10.2 10.2 0 0 1 4.053 1.947l.166.13a10.6 10.6 0 0 1 2.223 2.425v.125h.082c.116.173.216.34.288.535l.087.193c.078.178.078.178.078.262q-1.017.015-2.033.022l-1.145.013c-.987-.038-.987-.038-1.503-.56-.423-.418-.93-.73-1.456-1.002l-.164-.086c-.477-.238-.972-.389-1.483-.533v-.081l-.175.004c-.238-.004-.238-.004-.465-.045-1.093-.171-2.47-.045-3.51.375-.093.036-.093.036-.215.036v.083l-.243.104-.136.057c-.115.045-.115.045-.199.045v.082l-.127.052c-.694.314-1.367.93-1.85 1.516l-.075.086c-.357.421-.65.892-.87 1.398l-.145.274a3.3 3.3 0 0 0-.275.79c-.034.132-.034.132-.116.297-.366 2.086-.057 4.061 1.152 5.815q.219.275.453.535l.148.172.141.158.084.095c.36.38.8.715 1.275.936v.083l.17.052a.9.9 0 0 1 .307.148c1.294.807 3.136.742 4.588.583v-.082l.108-.026c1.368-.346 2.486-1.003 3.476-1.995a62 62 0 0 1 2.135-.015l1.187.007.919.008c-.328.823-.882 1.567-1.479 2.216q-.116.128-.227.258a7.3 7.3 0 0 1-1.012.949l-.149.117c-1.234.95-3.102 2.069-4.71 2.069v4.824c.261-.028.261-.028.402-.081.184-.059.37-.085.56-.115 1.024-.174 2.048-.436 2.992-.876l.295-.116a12 12 0 0 0 1.495-.75q.163-.093.333-.183c.729-.405 1.397-.934 2.035-1.467l.146-.119q.766-.645 1.42-1.406l.107-.123a14.9 14.9 0 0 0 2.446-3.96l.081-.192c.788-1.896 1.117-3.889 1.124-5.933l.003-.576a12 12 0 0 0-.261-2.165l-.061-.311-.062-.307-.061-.328a3.4 3.4 0 0 0-.186-.62l-.278-.842a10 10 0 0 0-.363-.919 16 16 0 0 1-.166-.371 4.4 4.4 0 0 0-.283-.564 5 5 0 0 1-.179-.346 4.5 4.5 0 0 0-.315-.537 6 6 0 0 1-.189-.295 14 14 0 0 0-1.028-1.405l-.093-.117a12.8 12.8 0 0 0-1.884-1.863l-.16-.134c-3.19-2.652-7.332-3.709-11.422-3.331q-.845.108-1.679.29l-.311.065c-.924.204-1.819.578-2.681.965l-.193.085q-.21.091-.416.195c-.106.05-.106.05-.188.05v.083l-.159.067c-.543.252-1.055.598-1.53.965l-.13.098q-.704.535-1.352 1.138l-.14.128q-.325.283-.608.608c-.1.116-.204.225-.31.337q-.406.45-.755.948l-.115.153c-.53.706-1 1.48-1.355 2.29q-.079.165-.176.32-.064.165-.124.33l-.092.217c-.13.305-.234.621-.343.936-.06.166-.06.166-.1.208-1.206.134-2.455.038-3.665 0 .269-1.11.63-2.24 1.152-3.258l.209-.445c.211-.444.444-.867.698-1.287l.082-.14q.543-.895 1.194-1.715l.141-.186c1.425-1.824 3.196-3.325 5.172-4.515l.16-.101.167-.103.15-.094a.95.95 0 0 1 .388-.116v-.082c.335-.17.667-.34 1.017-.48q.259-.105.516-.218a14 14 0 0 1 1.586-.57q.174-.05.344-.103c.89-.272 1.795-.43 2.715-.567l.299-.044c1.525-.181 3.163-.191 4.684.044"/><path fill="#fc7102" d="M224 35.876a3.875 3.875 0 1 0 0-7.75 3.875 3.875 0 0 0 0 7.75"/><defs transform="translate(128)"><linearGradient id="_xsolvbtc" x1="64" x2="64" y1="0" y2="128" gradientUnits="userSpaceOnUse"><stop stop-color="#fedf70"/><stop offset="1" stop-color="#d88528"/></linearGradient></defs></svg>
