<svg xmlns="http://www.w3.org/2000/svg" viewBox="0 0 192 128"><circle cx="64" cy="64" r="64" fill="#282138"/><circle cx="64" cy="64" r="59" fill="#fff"/><path fill="#5a5564" d="m104.37 26.863-3.514 3.514a49.756 49.756 0 0 1 0 67.152l3.514 3.514a54.776 54.776 0 0 0 0-74.262zm-73.91.305a49.754 49.754 0 0 1 67.15 0l3.515-3.515a54.78 54.78 0 0 0-74.262 0zm-3.293 70.396a49.754 49.754 0 0 1 0-67.116l-3.514-3.515a54.78 54.78 0 0 0 0 74.263zm70.397 3.245a49.756 49.756 0 0 1-67.151 0l-3.515 3.515a54.78 54.78 0 0 0 74.263 0z"/><path fill="#f09242" d="M86.189 52.273c-.703-7.334-7.03-9.794-15.031-10.544V31.632h-6.186v9.911H60.03v-9.911h-6.14V41.8H41.344v6.619s4.569-.082 4.499 0a3.2 3.2 0 0 1 3.514 2.718v27.835a2.17 2.17 0 0 1-.75 1.511 2.15 2.15 0 0 1-1.593.54c.082.07-4.499 0-4.499 0l-1.171 7.391h12.43v10.333h6.185v-10.18h4.944V98.7H71.1V88.485c10.45-.633 17.737-3.21 18.651-12.992.738-7.873-2.964-11.388-8.88-12.805 3.596-1.77 5.822-5.05 5.319-10.415m-8.67 22.001c0 7.685-13.168 6.807-17.362 6.807V67.444c4.195.012 17.362-1.195 17.362 6.83m-2.87-19.213c0 7.03-10.989 6.174-14.48 6.174V48.841c3.491 0 14.48-1.102 14.48 6.22"/><circle cx="64" cy="64" r="64" fill="#fff" transform="translate(64)"/><path fill="#664aed" d="m120.774 89.41-7.274-1.84-2.677 10.574 7.273 1.842z"/><path fill="#146af4" d="m133.373 92.597-7.274-1.843-2.676 10.575 7.273 1.842zm16.053-63.48-7.273-1.84-2.678 10.575 7.273 1.842z"/><path fill="#664aed" d="m136.88 25.902-7.273-1.841-2.677 10.574 7.273 1.842z"/><path fill="#9077ed" d="m136.763 93.493-37.557-9.528 2.255-8.93 37.559 9.529c3.221.828 6.443-.966 7.18-3.959.736-2.991-1.243-6.075-4.465-6.903l-23.473-5.938 2.255-8.929 23.474 5.937c8.469 2.163 13.762 10.356 11.737 18.228-2.025 7.87-10.54 12.611-19.01 10.448z"/><path fill="#664aed" d="m134.193 36.509-12.27-3.109-13.41 52.964 12.27 3.106z"/><path fill="#6ff1e1" d="m138.103 68.037-23.474-5.938 2.255-8.929 23.474 5.938c3.222.828 6.444-.966 7.18-3.959.737-2.992-1.243-6.075-4.465-6.904l-32.77-8.284 2.254-8.93 32.771 8.285c8.47 2.164 13.762 10.356 11.737 18.226-2.025 7.871-10.54 12.612-19.009 10.449z"/><path fill="#664aed" d="m134.139 36.47-12.27-3.108-2.565 10.13 12.27 3.106z"/></svg>
