<svg xmlns="http://www.w3.org/2000/svg" viewBox="0 0 192 128"><svg viewBox="0 0 128 128"><circle cx="64" cy="64" r="64" fill="#282138"/><circle cx="64" cy="64" r="59" fill="#fff"/><path fill="#5A5564" d="m104.37 26.863-3.514 3.514a49.756 49.756 0 0 1 0 67.152l3.514 3.514a54.776 54.776 0 0 0 0-74.262zm-73.91.305a49.754 49.754 0 0 1 67.15 0l3.515-3.515a54.78 54.78 0 0 0-74.262 0zm-3.293 70.396a49.754 49.754 0 0 1 0-67.116l-3.514-3.515a54.78 54.78 0 0 0 0 74.263zm70.397 3.245a49.756 49.756 0 0 1-67.151 0l-3.515 3.515a54.78 54.78 0 0 0 74.263 0z"/><path fill="#F09242" d="M86.189 52.273c-.703-7.334-7.03-9.794-15.031-10.544V31.632h-6.186v9.911H60.03v-9.911h-6.14V41.8H41.344v6.619s4.569-.082 4.499 0a3.2 3.2 0 0 1 3.514 2.718v27.835a2.17 2.17 0 0 1-.75 1.511 2.15 2.15 0 0 1-1.593.54c.082.07-4.499 0-4.499 0l-1.171 7.391h12.43v10.333h6.185v-10.18h4.944V98.7H71.1V88.485c10.45-.633 17.737-3.21 18.651-12.992.738-7.873-2.964-11.388-8.88-12.805 3.596-1.77 5.822-5.05 5.319-10.415m-8.67 22.001c0 7.685-13.168 6.807-17.362 6.807V67.444c4.195.012 17.362-1.195 17.362 6.83m-2.87-19.213c0 7.03-10.989 6.174-14.48 6.174V48.841c3.491 0 14.48-1.102 14.48 6.22"/></svg><svg x="64" viewBox="0 0 128 128"><path fill="url(#_solvbtc)" d="M126.084 79.482c-8.549 34.286-43.278 55.152-77.572 46.602-34.28-8.548-55.148-43.276-46.595-77.56C10.462 14.236 45.192-6.632 79.475 1.916c34.292 8.548 55.158 43.28 46.609 77.567"/><path fill="#fff" fill-rule="evenodd" d="M74.781 29.41a4 4 0 1 1 7.729 2.07l-1.695 6.324 1.051.282c7.567 2.027 12.057 9.805 10.03 17.372l-.094.35c-1.581 5.9-6.75 9.88-12.53 10.223l-.001.005h-.092l-.007.001-.028.001c-.421.035-.5.64-.08.771v.002c7.282 2.884 11.405 10.834 9.329 18.582-2.236 8.343-10.811 13.294-19.154 11.058l-2.456-.658-1.694 6.323a4 4 0 1 1-7.728-2.071l1.694-6.322-7.027-1.883-1.694 6.322a4 4 0 1 1-7.728-2.07l1.694-6.323-7.029-1.883-3.863-1.036a4.364 4.364 0 1 1 2.26-8.43l3.863 1.034 10.919-40.75-3.51-.94a4.364 4.364 0 1 1 2.26-8.432l3.512.941v.001l5.62 1.506 1.694-6.324a4 4 0 1 1 7.729 2.07l-1.695 6.325 7.027 1.882zM55.807 56.413a5.143 5.143 0 0 1 3.637-6.298l14.39-3.856a5.142 5.142 0 1 1 2.661 9.934l-14.39 3.856a5.14 5.14 0 0 1-6.298-3.636m-6.58 23.269a5.14 5.14 0 0 1 3.636-6.298l14.39-3.856a5.142 5.142 0 1 1 2.662 9.935l-14.39 3.855a5.14 5.14 0 0 1-6.298-3.636"/><defs><linearGradient id="_solvbtc" x1="64" x2="64" y1="0" y2="128" gradientUnits="userSpaceOnUse"><stop stop-color="#FEDF70"/><stop offset="1" stop-color="#D88528"/></linearGradient></defs></svg></svg>
