<svg xmlns="http://www.w3.org/2000/svg" viewBox="0 0 192 128"><circle cx="64" cy="64" r="64" fill="#282138"/><circle cx="64" cy="64" r="59" fill="#fff"/><path fill="#5A5564" d="m104.37 26.863-3.514 3.514a49.756 49.756 0 0 1 0 67.152l3.514 3.514a54.776 54.776 0 0 0 0-74.262zm-73.91.305a49.754 49.754 0 0 1 67.15 0l3.515-3.515a54.78 54.78 0 0 0-74.262 0zm-3.293 70.396a49.754 49.754 0 0 1 0-67.116l-3.514-3.515a54.78 54.78 0 0 0 0 74.263zm70.397 3.245a49.756 49.756 0 0 1-67.151 0l-3.515 3.515a54.78 54.78 0 0 0 74.263 0z"/><path fill="#F09242" d="M86.189 52.273c-.703-7.334-7.03-9.794-15.031-10.544V31.632h-6.186v9.911H60.03v-9.911h-6.14V41.8H41.344v6.619s4.569-.082 4.499 0a3.2 3.2 0 0 1 3.514 2.718v27.835a2.17 2.17 0 0 1-.75 1.511 2.15 2.15 0 0 1-1.593.54c.082.07-4.499 0-4.499 0l-1.171 7.391h12.43v10.333h6.185v-10.18h4.944V98.7H71.1V88.485c10.45-.633 17.737-3.21 18.651-12.992.738-7.873-2.964-11.388-8.88-12.805 3.596-1.77 5.822-5.05 5.319-10.415m-8.67 22.001c0 7.685-13.168 6.807-17.362 6.807V67.444c4.195.012 17.362-1.195 17.362 6.83m-2.87-19.213c0 7.03-10.989 6.174-14.48 6.174V48.841c3.491 0 14.48-1.102 14.48 6.22"/><circle cx="64" cy="64" r="64" fill="#0E0B31" transform="translate(64)"/><path fill="none" stroke="#120370" stroke-width="3.5" d="M127.99 123.03c32.606 0 59.039-26.433 59.039-59.04s-26.433-59.04-59.04-59.04S68.95 31.383 68.95 63.99s26.433 59.04 59.04 59.04Z"/><path fill="none" stroke="#F09242" stroke-width="2.24" d="M127.99 123.03c32.606 0 59.039-26.433 59.039-59.04s-26.433-59.04-59.04-59.04S68.95 31.383 68.95 63.99s26.433 59.04 59.04 59.04Z"/><path fill="url(#a)" d="M86.175 52.265c-.703-7.333-7.028-9.792-15.028-10.542V31.626h-6.185v9.91h-4.943v-9.91h-6.137v10.167H41.336v6.618s4.568-.081 4.498 0a3.2 3.2 0 0 1 3.513 2.718V78.96a2.18 2.18 0 0 1-.749 1.511 2.14 2.14 0 0 1-1.593.539c.082.07-4.498 0-4.498 0l-1.171 7.39h12.427v10.332h6.185V88.553h4.943v10.132h6.196V88.471c10.449-.632 17.735-3.21 18.648-12.99.738-7.871-2.963-11.386-8.879-12.803 3.597-1.769 5.822-5.048 5.318-10.412m-8.667 21.998c0 7.684-13.166 6.805-17.36 6.805V67.435c4.194.011 17.36-1.195 17.36 6.829m-2.87-19.21c0 7.027-10.988 6.172-14.478 6.172V48.834c3.49 0 14.478-1.1 14.478 6.22" transform="translate(64)"/><defs transform="translate(64)"><linearGradient id="a" x1="44.696" x2="89.179" y1="75.713" y2="64.024" gradientUnits="userSpaceOnUse"><stop stop-color="#29BCFA"/><stop offset=".43" stop-color="#6464E4"/><stop offset="1" stop-color="#B45AFA"/></linearGradient></defs></svg>
