<svg xmlns="http://www.w3.org/2000/svg" fill="none" viewBox="0 0 128 128"><path fill="url(#_weeth)" d="M127.946 63.973C127.946 28.642 99.305 0 63.973 0S0 28.642 0 63.973s28.642 63.973 63.973 63.973 63.973-28.641 63.973-63.973"/><path fill="#120370" d="M94.678 93.495q.01.082.013.165a1.25 1.25 0 0 1-.592 1.067L64.465 113a1.24 1.24 0 0 1-1.304.001L33.766 94.956a1.25 1.25 0 0 1-.587-1.178 1 1 0 0 1-.007-.12l-.001-22.545q0-.04.003-.08a1.24 1.24 0 0 1 .317-.914 1.24 1.24 0 0 1 1.547-.243L63.923 86.64l28.618-16.602q.071-.041.145-.073a1.245 1.245 0 0 1 2.002.986l.003 22.368q-.001.09-.013.175M35.66 91.69l8.538-5.158-8.54-11.754zm10.006-3.138-8.858 5.35 23.005 14.125zm22.543 19.215L91.055 93.68l-8.828-5.308zm15.48-21.42 8.514 5.12-.002-16.896zM63.3 89.155 38.88 74.981l25.043 34.471 24.81-34.328-24.184 14.03a1.25 1.25 0 0 1-1.249 0M34.372 65.062a1.245 1.245 0 0 1-1.202-1.244l-.002-29.305q0-.11.018-.214a1.24 1.24 0 0 1 .575-1.271l29.636-18.176a1.24 1.24 0 0 1 1.297-.001L94.09 32.797a1.25 1.25 0 0 1 .596 1.065l-.001.055.001.057.003 29.69c0 .525-.326.975-.786 1.157l-29.38 16.162a1.25 1.25 0 0 1-1.199 0zm1.283-28.775.002 23.58 10.569-17.224zm56.543-.223L81.53 42.509 92.2 59.898zM80.23 40.388l10.816-6.535L67.338 19.38zM60.331 19.65 36.808 34.077l10.718 6.446zM36.436 63.358l27.487 15.115 27.48-15.117-27.485-44.794z"/><path stroke="#120370" stroke-width="2.23" d="M63.973 122.988c32.593 0 59.015-26.422 59.015-59.015S96.566 4.958 63.973 4.958 4.958 31.38 4.958 63.973s26.422 59.015 59.015 59.015Z"/><defs><linearGradient id="_weeth" x1="8.865" x2="119.68" y1="84.058" y2="43.759" gradientUnits="userSpaceOnUse"><stop stop-color="#29BCFA"/><stop offset=".43" stop-color="#6464E4"/><stop offset="1" stop-color="#B45AFA"/></linearGradient></defs></svg>
