<svg xmlns="http://www.w3.org/2000/svg" viewBox="0 0 128 128"><path d="M64 128c35.347 0 64-28.653 64-64S99.347 0 64 0 0 28.653 0 64s28.653 64 64 64"/><path stroke="#C63E73" stroke-width="1.6" d="M113.875 64c0 27.546-22.33 49.875-49.875 49.875S14.125 91.545 14.125 64 36.455 14.125 64 14.125 113.875 36.455 113.875 64Z"/><path fill="url(#_weibera)" fill-rule="evenodd" d="M97.098 52.192a15.74 15.74 0 0 1-4.132 10.8 1.09 1.09 0 0 0-.275.912c1.773 9.952-.838 18.138-6.208 23.971-5.645 6.122-13.92 9.171-21.952 9.338h-.288c-8.025-.167-16.304-3.22-21.949-9.341-5.37-5.83-7.977-14.016-6.208-23.968a1.09 1.09 0 0 0-.275-.912 15.74 15.74 0 0 1-2.553-17.475c2.835-5.866 10.006-10.445 17.347-8.912q.365.077.886.227a8.7 8.7 0 0 1 2.976 1.58c1.965 1.566 5.568 2.612 9.69 2.612h.467c4.118 0 7.722-1.043 9.683-2.611a8.8 8.8 0 0 1 3.869-1.808c7.34-1.53 14.509 3.05 17.344 8.912a15.7 15.7 0 0 1 1.578 6.675m-48.176-5.936a7.6 7.6 0 0 1 2.65 1.04c1.35.851 1.049 2.71-.247 3.642L44.7 55.674c-1.293.928-3.184.64-3.59-.89a7.4 7.4 0 0 1-.193-2.797 7 7 0 0 1 .887-2.605 6.5 6.5 0 0 1 1.833-1.996 6.94 6.94 0 0 1 5.284-1.127m35.766 1.127a6.72 6.72 0 0 1 2.723 4.601 7.2 7.2 0 0 1-.192 2.797c-.41 1.53-2.297 1.824-3.593.893l-6.621-4.736c-1.296-.931-1.6-2.79-.25-3.642a7.6 7.6 0 0 1 2.65-1.04 7 7 0 0 1 2.784.032 6.6 6.6 0 0 1 2.499 1.095m-17.84 27.612a7.68 7.68 0 0 0-4.915 0c-.883.298-1.648.765-1.6 1.463.09 1.072 1.792 2.909 3.024 3.286.752.23 1.229.215 2.067 0 1.232-.313 2.944-2.214 3.024-3.286.054-.698-.72-1.165-1.6-1.463m-10.064-4.883a5.4 5.4 0 0 1 1.616 1.43c.442.583.768 1.255.96 1.978.323 1.2-.854 2.106-2.106 1.962l-3.174-.365-3.155-.352c-1.248-.14-2.176-1.29-1.594-2.387a5.9 5.9 0 0 1 1.395-1.709 5.4 5.4 0 0 1 1.904-1.03 5.25 5.25 0 0 1 4.154.473m21.162.448a5.4 5.4 0 0 0-1.904-1.037 5.25 5.25 0 0 0-4.154.477 5.4 5.4 0 0 0-1.616 1.434 5.8 5.8 0 0 0-.96 1.977c-.32 1.197.854 2.103 2.096 1.962l3.178-.365 3.161-.352c1.248-.14 2.176-1.29 1.594-2.387a6.1 6.1 0 0 0-1.395-1.712" clip-rule="evenodd"/><path fill="none" stroke="#F8BE40" stroke-width="6.4" d="M124.8 64c0-33.579-27.221-60.8-60.8-60.8S3.2 30.421 3.2 64s27.221 60.8 60.8 60.8 60.8-27.221 60.8-60.8Z"/><defs><linearGradient id="_weibera" x1="136.41" x2="-4.067" y1="67.213" y2="69.328" gradientUnits="userSpaceOnUse"><stop stop-color="#F8F29C"/><stop offset=".165" stop-color="#F6DB2A"/><stop offset=".333" stop-color="#F4A435"/><stop offset=".55" stop-color="#E85A46"/><stop offset=".699" stop-color="#B93483"/><stop offset=".867" stop-color="#502B6E"/><stop offset="1" stop-color="#2A2136"/></linearGradient></defs></svg>
