<svg xmlns="http://www.w3.org/2000/svg" viewBox="0 0 192 128"><svg viewBox="0 0 128 128"><path d="M35.884 126.95c32.172 0 32.172-.48 37.628-2.098 7.128-2.116-20.128-20.984-37.628-20.984s-31.688 5.168-31.688 11.54c0 6.376 14.188 11.542 31.688 11.542"/><path d="m108.94 28.81 1.48 1.594-1.294 1.748c-41.96 56.734-66.132 82.42-76.388 78.976-6.246-2.1-12.51-8.41-18.776-17.574a130 130 0 0 1-6.15-9.988 108 108 0 0 1-2.862-5.452c-.702-1.474-1-2.38-1.234-3.572l-.028-.144q-.084-.475-.206-.942a57.2 57.2 0 0 1-1.908-14.702c0-31.58 25.6-57.18 57.18-57.18 9.894 0 19.428 2.518 27.878 7.244l.218.136q10.374 7.226 22.09 19.856M83.958 13.334A51.7 51.7 0 0 0 58.754 6.82C30.072 6.82 6.82 30.072 6.82 58.754c0 4.558.586 9.036 1.732 13.356.114.428.166.67.286 1.288l.024.128c.152.768.312 1.26.822 2.33a104 104 0 0 0 2.71 5.156c1.82 3.281 3.79 6.478 5.9 9.58 5.66 8.28 11.272 13.936 16.116 15.562 6.458 2.17 30.772-23.568 69.196-75.364Q93.138 19.748 83.958 13.334"/><path fill="#EC1C79" d="M83.958 13.334A51.7 51.7 0 0 0 58.754 6.82C30.072 6.82 6.82 30.072 6.82 58.754c0 4.558.586 9.036 1.732 13.356.114.428.166.67.286 1.288l.024.128c.152.768.312 1.26.822 2.33a104 104 0 0 0 2.71 5.156c1.82 3.281 3.79 6.478 5.9 9.58 5.66 8.28 11.272 13.936 16.116 15.562 6.458 2.17 30.772-23.568 69.196-75.364Q93.138 19.748 83.958 13.334"/><path d="M69.246 126.426c-31.58 0-57.18-25.6-57.18-57.18s25.6-57.18 57.18-57.18 57.18 25.6 57.18 57.18-25.6 57.18-57.18 57.18m0-5.246c28.682 0 51.934-23.252 51.934-51.934S97.928 17.312 69.246 17.312 17.312 40.564 17.312 69.246s23.252 51.934 51.934 51.934"/><path fill="#fff" d="M69.246 121.18c28.682 0 51.934-23.252 51.934-51.934S97.928 17.312 69.246 17.312 17.312 40.564 17.312 69.246s23.252 51.934 51.934 51.934"/><path d="m30.396 79.884-6.874-20.71h6.022l3.584 11.898 3.966-11.956H42l3.966 11.956 3.584-11.9h5.906L48.58 79.886h-4.966l-4.14-11.84-4.114 11.84zm27.32-.146V59.174h16.54v4.846H63.36v3.114h9.87v4.496h-9.87v3.26h11.046v4.848zm24.62 0v-15.57h-6.17v-4.994h18.038v4.994h-6.17v15.57zm14.364 0V59.174h5.7v7.696h7.314v-7.696h5.7v20.564h-5.7v-7.814H102.4v7.814zM4.98 52.988a2.937 2.937 0 1 1 2.628-5.254l8.394 4.196a2.938 2.938 0 0 1-2.628 5.254zm-.966 13.918a2.938 2.938 0 0 1 2.462-5.336l8.394 3.874a2.938 2.938 0 0 1-2.46 5.336z"/></svg><svg x="64" viewBox="0 0 128 128"><circle cx="64" cy="64" r="64" fill="#FFF"/><path d="M60.928 4.762c-1.434 2.918-31.283 61.85-35.891 70.86l-4.557 8.756 9.114 8.345c4.966 4.608 14.336 13.21 20.736 19.149 6.45 5.888 11.827 10.803 12.032 10.854.256.103 29.9-24.985 40.55-34.304l1.741-1.536-6.963-13.619C93.9 65.792 84.48 47.207 76.8 32 69.12 16.794 62.566 4.096 62.26 3.738c-.41-.41-.769-.205-1.332 1.024m10.291 26.982c4.762 9.42 8.653 17.46 8.653 17.766 0 .359-1.434 1.332-3.174 2.15-1.792.769-5.684 2.612-8.653 4.097-3.021 1.433-5.683 2.611-5.99 2.611-.666 0-16.999-7.987-17.665-8.653-.256-.256 2.253-5.785 6.196-13.67 9.676-19.2 11.008-21.76 11.52-21.555.256.05 4.352 7.833 9.113 17.254m-20.992 26.47 8.243 3.943L58.214 64c-.614 3.994-3.584 20.224-3.737 20.429-.103.102-3.533-1.997-7.578-4.71l-7.373-4.916-5.273 2.765c-2.919 1.536-5.53 2.816-5.735 2.816-.204 0 2.56-5.888 6.144-13.056s6.759-13.056 6.964-13.056c.204 0 4.096 1.792 8.601 3.942m39.424 9.984c3.687 7.322 6.605 13.415 6.503 13.466-.103.102-1.946-.82-4.199-2.1-2.201-1.228-4.25-2.252-4.557-2.252-.358 0-6.604 1.485-13.926 3.277-7.322 1.843-13.363 3.225-13.517 3.123-.102-.102.563-4.557 1.434-9.83 1.382-8.192 1.792-9.78 2.765-10.548 1.638-1.28 17.92-9.01 18.432-8.704.204.103 3.379 6.247 7.065 13.568"/></svg></svg>
