<svg xmlns="http://www.w3.org/2000/svg" viewBox="0 0 192 128"><path d="M35.884 126.95c32.172 0 32.172-.48 37.628-2.098 7.128-2.116-20.128-20.984-37.628-20.984s-31.688 5.168-31.688 11.54c0 6.376 14.188 11.542 31.688 11.542"/><path d="m108.94 28.81 1.48 1.594-1.294 1.748c-41.96 56.734-66.132 82.42-76.388 78.976-6.246-2.1-12.51-8.41-18.776-17.574a130 130 0 0 1-6.15-9.988 108 108 0 0 1-2.862-5.452c-.702-1.474-1-2.38-1.234-3.572l-.028-.144q-.084-.475-.206-.942a57.2 57.2 0 0 1-1.908-14.702c0-31.58 25.6-57.18 57.18-57.18 9.894 0 19.428 2.518 27.878 7.244l.218.136q10.374 7.226 22.09 19.856M83.958 13.334A51.7 51.7 0 0 0 58.754 6.82C30.072 6.82 6.82 30.072 6.82 58.754c0 4.558.586 9.036 1.732 13.356.114.428.166.67.286 1.288l.024.128c.152.768.312 1.26.822 2.33a104 104 0 0 0 2.71 5.156c1.82 3.281 3.79 6.478 5.9 9.58 5.66 8.28 11.272 13.936 16.116 15.562 6.458 2.17 30.772-23.568 69.196-75.364Q93.138 19.748 83.958 13.334"/><path fill="#ec1c79" d="M83.958 13.334A51.7 51.7 0 0 0 58.754 6.82C30.072 6.82 6.82 30.072 6.82 58.754c0 4.558.586 9.036 1.732 13.356.114.428.166.67.286 1.288l.024.128c.152.768.312 1.26.822 2.33a104 104 0 0 0 2.71 5.156c1.82 3.281 3.79 6.478 5.9 9.58 5.66 8.28 11.272 13.936 16.116 15.562 6.458 2.17 30.772-23.568 69.196-75.364Q93.138 19.748 83.958 13.334"/><path d="M69.246 126.426c-31.58 0-57.18-25.6-57.18-57.18s25.6-57.18 57.18-57.18 57.18 25.6 57.18 57.18-25.6 57.18-57.18 57.18m0-5.246c28.682 0 51.934-23.252 51.934-51.934S97.928 17.312 69.246 17.312 17.312 40.564 17.312 69.246s23.252 51.934 51.934 51.934"/><path fill="#fff" d="M69.246 121.18c28.682 0 51.934-23.252 51.934-51.934S97.928 17.312 69.246 17.312 17.312 40.564 17.312 69.246s23.252 51.934 51.934 51.934"/><path d="m30.396 79.884-6.874-20.71h6.022l3.584 11.898 3.966-11.956H42l3.966 11.956 3.584-11.9h5.906L48.58 79.886h-4.966l-4.14-11.84-4.114 11.84zm27.32-.146V59.174h16.54v4.846H63.36v3.114h9.87v4.496h-9.87v3.26h11.046v4.848zm24.62 0v-15.57h-6.17v-4.994h18.038v4.994h-6.17v15.57zm14.364 0V59.174h5.7v7.696h7.314v-7.696h5.7v20.564h-5.7v-7.814H102.4v7.814zM4.98 52.988a2.937 2.937 0 1 1 2.628-5.254l8.394 4.196a2.938 2.938 0 0 1-2.628 5.254zm-.966 13.918a2.938 2.938 0 0 1 2.462-5.336l8.394 3.874a2.938 2.938 0 0 1-2.46 5.336z"/><circle cx="64" cy="64" r="64" fill="url(#_weeth)" transform="translate(64)"/><path fill="#120370" d="M158.678 93.495q.01.082.013.165a1.25 1.25 0 0 1-.592 1.067L128.465 113a1.24 1.24 0 0 1-1.304.001L97.766 94.956a1.25 1.25 0 0 1-.587-1.178 1 1 0 0 1-.007-.12l-.001-22.545q0-.04.003-.08a1.24 1.24 0 0 1 .317-.914 1.24 1.24 0 0 1 1.547-.243l28.885 16.764 28.618-16.602q.071-.041.145-.073a1.245 1.245 0 0 1 2.002.986l.003 22.368q-.001.09-.013.175M99.66 91.69l8.538-5.158-8.54-11.754zm10.006-3.138-8.858 5.35 23.005 14.125zm22.543 19.215 22.846-14.087-8.828-5.308zm15.48-21.42 8.514 5.12-.002-16.896zM127.3 89.155l-24.42-14.174 25.043 34.471 24.81-34.328-24.184 14.03a1.25 1.25 0 0 1-1.249 0M98.372 65.062a1.245 1.245 0 0 1-1.202-1.244l-.002-29.305q0-.11.018-.214a1.24 1.24 0 0 1 .575-1.271l29.636-18.176a1.24 1.24 0 0 1 1.297-.001l29.396 17.946a1.25 1.25 0 0 1 .596 1.065l-.001.055.001.057.003 29.69c0 .525-.326.975-.786 1.157l-29.38 16.162a1.25 1.25 0 0 1-1.199 0zm1.283-28.775.002 23.58 10.569-17.224zm56.543-.223-10.668 6.445 10.67 17.389zm-11.968 4.324 10.816-6.535-23.708-14.473zM124.331 19.65l-23.523 14.427 10.718 6.446zm-23.895 43.708 27.487 15.115 27.48-15.117-27.485-44.794z"/><path fill="none" stroke="#120370" stroke-width="2.23" d="M127.973 122.988c32.593 0 59.015-26.422 59.015-59.015S160.566 4.958 127.973 4.958 68.958 31.38 68.958 63.973s26.422 59.015 59.015 59.015Z"/><defs transform="translate(64)"><linearGradient id="_weeth" x1="8.865" x2="119.68" y1="84.058" y2="43.759" gradientUnits="userSpaceOnUse"><stop stop-color="#29bcfa"/><stop offset=".43" stop-color="#6464e4"/><stop offset="1" stop-color="#b45afa"/></linearGradient></defs></svg>
