<svg xmlns="http://www.w3.org/2000/svg" viewBox="0 0 128 128"><circle cx="64" cy="64" r="64" fill="#f8be40"/><path d="M118.4 64c0-30.044-24.356-54.4-54.4-54.4S9.6 33.956 9.6 64s24.356 54.4 54.4 54.4 54.4-24.356 54.4-54.4"/><circle cx="64" cy="64" r="53" fill="#78350f"/><mask id="_wewbera" width="72" height="67" x="28" y="33" maskUnits="userSpaceOnUse"><path fill="#fff" d="M28.938 49.152c0 4.896 2.252 9.274 5.798 12.205a28.8 28.8 0 0 0-1.088 7.913c0 16.692 14.07 30.224 31.424 30.224 17.357 0 31.424-13.532 31.424-30.224a29.1 29.1 0 0 0-1.568-9.452 15.68 15.68 0 0 0 4.18-10.666c0-8.826-7.329-15.984-16.369-15.984a16.48 16.48 0 0 0-12.957 6.218 33 33 0 0 0-11.27.32 16.48 16.48 0 0 0-13.206-6.538c-9.04 0-16.368 7.155-16.368 15.984"/></mask><g mask="url(#_wewbera)"><path fill="#fff" d="m34.736 61.357 3.696 1.04.678-2.407-1.926-1.593zm60.192-1.536-2.826-2.599-1.545 1.68.739 2.16zM69.782 39.386l-.547 3.801 2.186.314 1.376-1.731zm-11.27.32-3.072 2.307 1.46 1.942 2.38-.486zM37.184 58.397a11.96 11.96 0 0 1-4.406-9.241h-7.68c0 6.105 2.816 11.545 7.193 15.164zm.304 10.877c0-2.381.33-4.688.944-6.877L31.04 60.32a33 33 0 0 0-1.232 8.954zm27.584 26.384c-15.376 0-27.584-11.952-27.584-26.384h-7.68c0 18.953 15.93 34.064 35.264 34.064zm27.584-26.384c0 14.432-12.205 26.384-27.584 26.384v7.68c19.334 0 35.264-15.11 35.264-34.064zm-1.36-8.212a25.3 25.3 0 0 1 1.36 8.212h7.68c0-3.732-.62-7.328-1.773-10.695zm3.971-11.907c0 3.088-1.184 5.914-3.168 8.07l5.658 5.194a19.52 19.52 0 0 0 5.19-13.264zM82.74 37.011c7.008 0 12.527 5.523 12.527 12.144h7.68c0-11.033-9.132-19.824-20.207-19.824zm-9.945 4.762a12.64 12.64 0 0 1 9.945-4.762v-7.68a20.32 20.32 0 0 0-15.968 7.674zm-7.722 1.12q2.13 0 4.162.294l1.099-7.6c-1.743-.25-3.5-.375-5.261-.374zm-5.792.579a28.8 28.8 0 0 1 5.792-.58v-7.679c-2.509 0-4.96.253-7.328.736zm-13.974-6.46c4.185 0 7.865 1.983 10.134 5.004l6.144-4.611a20.32 20.32 0 0 0-16.278-8.074zM32.778 49.154c0-6.624 5.523-12.144 12.528-12.144v-7.68c-11.072 0-20.208 8.79-20.208 19.824z"/></g><path fill="#fff" d="M53.376 45.216 39.907 55.504a8.475 8.475 0 1 1 13.469-10.291m22.41.589 13.468 10.29a8.475 8.475 0 0 0-13.468-10.29M58.358 73.466c.64 1.76-1.222 3.062-3.065 2.72l-5.789-1.079c-1.84-.342-3.107-2.224-1.878-3.635q.249-.288.537-.544a6.337 6.337 0 0 1 10.195 2.538m12.042 0c-.637 1.76 1.226 3.062 3.069 2.72l5.789-1.079c1.84-.342 3.11-2.224 1.878-3.635a6.336 6.336 0 0 0-8.874-.675 6.34 6.34 0 0 0-1.862 2.669m-3.184 2.441a5.26 5.26 0 0 1 1.894 2.199l-4.758 2.182-4.682-2.342a5.236 5.236 0 0 1 7.546-2.039"/></svg>
