<svg xmlns="http://www.w3.org/2000/svg" viewBox="0 0 128 128"><circle cx="64" cy="64" r="60" fill="#FFF"/><path fill="#D43939" d="M61.04 0h5.265l.485.025.375.025c16.885.845 33.1 8.58 44.33 21.22-3.945.285-7.85-.105-11.775.415-6.855-5.72-15.015-9.82-23.75-11.72C66.005 7.76 55.4 8.35 45.755 11.69c-6.41 2.205-12.335 5.62-17.55 9.94-3.95-.425-7.96-.18-11.935-.26a64.3 64.3 0 0 1 11.48-10.125C37.565 4.45 49.135.645 61.04 0"/><path fill="#DB7739" d="m111.495 21.27.06.06a64.3 64.3 0 0 1 12.795 21.755c-3.02-.405-6.065-.08-9.115-.26-3.38-8.2-8.79-15.385-15.515-21.14 3.925-.52 7.83-.13 11.775-.415m-95.225.1c3.975.08 7.985-.165 11.935.26-6.8 5.71-12.17 13.055-15.61 21.24-1.865.01-3.73.02-5.595.04-1.165-.025-2.21.12-3.235-.56C6.57 34.64 10.8 27.48 16.27 21.37m26.825 11.41c3.05-.755 6.18-.285 8.945 1.17 1.57.835 2.875 1.84 4.56 2.445 2.905 1.11 6.33.97 9.4.925 3.12-.035 6.11-.865 8.71-2.615 2.115-1.435 4.205-2.15 6.79-2.125 6.95-.345 13.65 3.98 16.46 10.285-1.965.01-3.925.015-5.89.015-1.6-2.11-3.74-3.76-6.25-4.65-1.67-.53-3.595-.415-5.335-.38-2.54.01-4.725 1.61-6.94 2.705-2.47 1.36-5.22 2.155-8.045 2.22-3.765.105-7.765-.245-11.095-2.17-1.835-.96-3.815-2.48-5.88-2.795-2.905-.315-5.795-.125-8.395 1.31-1.79.915-3.17 2.325-4.325 3.945a60 60 0 0 0-5.695-.23c2.425-5.285 7.24-9.055 12.985-10.055"/><path fill="#D2D73C" d="m3.71 42.485.055-.135c1.025.68 2.07.535 3.235.56 1.865-.02 3.73-.03 5.595-.04-3.33 8.05-4.685 16.74-4.215 25.425-.18-1.345-.145-2.655-.085-4.005-2.74-.32-5.53-.09-8.295-.16v-2.905c.405-6.395 1.55-12.695 3.71-18.74m26.4.35c1.9-.005 3.795.055 5.695.23-1.945 3.25-2.705 7.045-1.55 10.71.92 2.725 2.84 4.33 4.515 6.67-.095 1.235-.28 2.455-.465 3.68-1.8.01-3.6.02-5.4.015-.09-1.19.195-2.47-.58-3.445-1.54-2.275-2.945-4.42-3.485-7.17-.51-3.645-.335-7.325 1.27-10.69m85.125-.01c3.05.18 6.095-.145 9.115.26 2.325 6.77 3.54 13.9 3.51 21.06-2.76-.005-5.515-.015-8.27-.045-.375-2.78-.225-5.58-.7-8.345-.735-4.435-1.88-8.795-3.655-12.93m-64.63 2.095c.945.925.675 2.115-.2 2.97-2.295 2.095-4.935 3.86-7.535 5.555-.98.705-2.37.375-3.525.36-.915-1.705-.795-3.495-.555-5.345 1.135-4.98 8.155-7.23 11.815-3.54m29.89-1.675c1.495-.115 3.325-.26 4.625.615 2.53 1.51 4.25 4.17 4.035 7.18-.045 1.35-.835 2.16-1.58 3.19-2.16.15-3.395-1.13-5.075-2.215-1.74-1.275-3.54-2.49-5.19-3.875-.745-.665-1.355-1.675-.745-2.64.65-1.455 2.475-2.015 3.93-2.255m11.575-.365c1.965 0 3.925-.005 5.89-.015.77 1.815 1.4 3.63 1.375 5.63 0 2.24.07 4.75-.635 6.895-.755 2.26-2.105 4.155-3.47 6.08-.02.89-.04 1.78-.05 2.67q-2.67-.031-5.34.005c-.145-1.46-.5-3.245.02-4.64 1.085-1.535 2.54-2.615 3.375-4.36 1.19-2.135.95-4.3.94-6.655.03-2.07-1.02-3.92-2.105-5.61"/><path fill="#45A446" d="M32.905 64.14c1.8.005 3.6-.005 5.4-.015-.065.505-.135 1.015-.2 1.525 4.83-1.75 10.095-1.725 14.78.465 3.79 1.66 6.79 4.575 8.875 8.12 2.055-.425 5.32-.595 6.67 1.365-.195 2.34-2.295 4.245-4.655 4.3.255 1.635.42 3.27.295 4.93-1.61.005-3.215.01-4.825.02.31-4.12-.985-8.225-3.91-11.19-3.415-3.665-8.73-5.26-13.605-4.065-6.85 1.595-11.605 8.235-10.935 15.245-1.545-.005-3.085.03-4.63.015l-.205-.76c-.205-5.945 2.39-11.56 6.93-15.365.03-1.53.025-3.06.015-4.59m86.685-.04c2.755.03 5.51.04 8.27.045 0 7.015-1.15 14.03-3.415 20.675-2.82-.09-5.815.24-8.585-.155l-.085-.295c1.515-4 2.64-8.14 3.22-12.38.39-2.62.365-5.24.595-7.89M0 64.13c2.765.07 5.555-.16 8.295.16-.06 1.35-.095 2.66.085 4.005.63 5.675 1.735 11.215 3.86 16.535-2.94-.005-5.875.005-8.815.015C1.425 79.065.39 73.05 0 66.955zm89.84.015q2.67-.036 5.34-.005c-.05 3.995.165 8.31-.58 12.225-.68 3-2.21 5.86-3.79 8.48-1.845.005-3.68.055-5.52-.17q.051-.496.11-.985c1.155-1.695 2.255-3.395 3.01-5.31 1.925-4.425 2.105-9.52 1.43-14.235m-16.575 4.22c2.665-.7 6.535.73 7.135 3.66.225 1.165-.5 1.605-1.485 1.905-2.955.74-6.065 1.025-9.105.765-.275-.745-.645-1.345-.395-2.165.565-1.835 2.035-3.51 3.85-4.165"/><path fill="#45A446" d="M39.575 76.865c.545 2.135 1.135 4.255 1.52 6.43.765-1.95 1.085-4.035 1.815-5.99.59-.96 2.775-.37 3.785-.56 1.02 2.12 1.335 4.29 1.87 6.595.665-2.15 1.205-4.335 1.815-6.495a66 66 0 0 1 4.33-.02c.21 2.665-1.235 5.4-1.775 8.005-5.345.035-10.695-.02-16.04.02a506 506 0 0 0-2.06-7.285c.91-1.345 3.335-.64 4.74-.7"/><path fill="#5050DB" d="M85.4 83.69q-.059.489-.11.985c1.84.225 3.675.175 5.52.17a27.9 27.9 0 0 1-12.07 10.4c-6.665 2.965-14.105 4.115-21.315 2.785-5.645 4.695-13.56 5.895-20.27 2.825-6.555-2.935-11.01-9.57-11.195-16.76l.205.76c1.545.015 3.085-.02 4.63-.015.435 3.655 2.11 7.055 4.935 9.445 4.225 3.705 10.53 4.515 15.565 2.01a14.47 14.47 0 0 0 7.95-11.445c1.61-.01 3.215-.015 4.825-.02-.275 3.1-1.17 5.855-2.705 8.555 8.94.615 18.33-2.57 24.035-9.695m30.375.68.085.295c2.77.395 5.765.065 8.585.155a64.3 64.3 0 0 1-12.44 21.52c-2.84-.11-5.68-.04-8.52-.045-.92.03-1.715-.18-2.565-.51 6.52-5.91 11.675-13.2 14.855-21.415m-103.535.46a57.1 57.1 0 0 0 14.72 20.99c-.975.295-1.935.5-2.96.47-2.725-.03-5.445-.02-8.17.015a64.1 64.1 0 0 1-12.405-21.46c2.94-.01 5.875-.02 8.815-.015"/><path fill="#5050DB" d="M36.895 84.85c5.345-.04 10.695.015 16.04-.02-.54 1.855-.99 3.735-1.55 5.585-.195.565-.35 1.235-1.08 1.24-1.025.08-2.09.08-3.12-.005-.79-.015-.895-.58-1.11-1.21-.45-1.48-.765-3.005-1.125-4.505-.58 1.945-.895 3.895-1.715 5.765-1.44-.03-2.885-.04-4.325-.055-.84-2.225-1.355-4.515-2.015-6.795"/><path fill="#7B3A79" d="m26.96 105.82.015.01c4.925 4.275 10.455 7.795 16.55 10.15 10.87 4.325 23.165 5.03 34.475 2.075 8.49-2.2 16.35-6.475 22.92-12.27.85.33 1.645.54 2.565.51 2.84.005 5.68-.065 8.52.045-9.605 11.01-22.965 18.555-37.39 20.95-4.565.93-9.335.435-14.115.565-4.37.17-8.795-.745-13.02-1.82-12.24-3.225-23.33-10.21-31.65-19.73 2.725-.035 5.445-.045 8.17-.015 1.025.03 1.985-.175 2.96-.47"/></svg>
