<svg width="192" height="128" viewBox="0 0 192 128" fill="none" xmlns="http://www.w3.org/2000/svg">
<g clip-path="url(#clip0_18808_84046)">
<path d="M64.4647 124C97.6018 124 124.465 97.1371 124.465 64C124.465 30.8629 97.6018 4 64.4647 4C31.3276 4 4.46472 30.8629 4.46472 64C4.46472 97.1371 31.3276 124 64.4647 124Z" fill="white"/>
<path d="M61.5047 0H66.7697L67.2547 0.025L67.6297 0.05C84.5147 0.895 100.73 8.63 111.96 21.27C108.015 21.555 104.11 21.165 100.185 21.685C93.3297 15.965 85.1697 11.865 76.4347 9.965C66.4697 7.76 55.8647 8.35 46.2197 11.69C39.8097 13.895 33.8847 17.31 28.6697 21.63C24.7197 21.205 20.7097 21.45 16.7347 21.37C20.1446 17.5499 23.9986 14.1509 28.2147 11.245C38.0297 4.45 49.5997 0.645 61.5047 0Z" fill="#D43939"/>
<path d="M111.96 21.27L112.02 21.33C117.68 27.6652 122.029 35.0593 124.815 43.085C121.795 42.68 118.75 43.005 115.7 42.825C112.32 34.625 106.91 27.44 100.185 21.685C104.11 21.165 108.015 21.555 111.96 21.27ZM16.7347 21.37C20.7097 21.45 24.7197 21.205 28.6697 21.63C21.8697 27.34 16.4997 34.685 13.0597 42.87C11.1947 42.88 9.32974 42.89 7.46474 42.91C6.29974 42.885 5.25474 43.03 4.22974 42.35C7.03474 34.64 11.2647 27.48 16.7347 21.37ZM43.5597 32.78C46.6097 32.025 49.7397 32.495 52.5047 33.95C54.0747 34.785 55.3797 35.79 57.0647 36.395C59.9697 37.505 63.3947 37.365 66.4647 37.32C69.5847 37.285 72.5747 36.455 75.1747 34.705C77.2897 33.27 79.3797 32.555 81.9647 32.58C88.9147 32.235 95.6147 36.56 98.4247 42.865C96.4597 42.875 94.4997 42.88 92.5347 42.88C90.9347 40.77 88.7947 39.12 86.2847 38.23C84.6147 37.7 82.6897 37.815 80.9497 37.85C78.4097 37.86 76.2247 39.46 74.0097 40.555C71.5397 41.915 68.7897 42.71 65.9647 42.775C62.1997 42.88 58.1997 42.53 54.8697 40.605C53.0347 39.645 51.0547 38.125 48.9897 37.81C46.0847 37.495 43.1947 37.685 40.5947 39.12C38.8047 40.035 37.4247 41.445 36.2697 43.065C34.3761 42.8982 32.4756 42.8214 30.5747 42.835C32.9997 37.55 37.8147 33.78 43.5597 32.78Z" fill="#DB7739"/>
<path d="M4.17472 42.4851L4.22972 42.3501C5.25472 43.0301 6.29972 42.8851 7.46472 42.9101C9.32972 42.8901 11.1947 42.8801 13.0597 42.8701C9.72972 50.9201 8.37472 59.6101 8.84472 68.2951C8.66472 66.9501 8.69972 65.6401 8.75972 64.2901C6.01972 63.9701 3.22972 64.2001 0.464722 64.1301V61.2251C0.869722 54.8301 2.01472 48.5301 4.17472 42.4851ZM30.5747 42.8351C32.4747 42.8301 34.3697 42.8901 36.2697 43.0651C34.3247 46.3151 33.5647 50.1101 34.7197 53.7751C35.6397 56.5001 37.5597 58.1051 39.2347 60.4451C39.1397 61.6801 38.9547 62.9001 38.7697 64.1251C36.9697 64.1351 35.1697 64.1451 33.3697 64.1401C33.2797 62.9501 33.5647 61.6701 32.7897 60.6951C31.2497 58.4201 29.8447 56.2751 29.3047 53.5251C28.7947 49.8801 28.9697 46.2001 30.5747 42.8351ZM115.7 42.8251C118.75 43.0051 121.795 42.6801 124.815 43.0851C127.14 49.8551 128.355 56.9851 128.325 64.1451C125.565 64.1401 122.81 64.1301 120.055 64.1001C119.68 61.3201 119.83 58.5201 119.355 55.7551C118.62 51.3201 117.475 46.9601 115.7 42.8251ZM51.0697 44.9201C52.0147 45.8451 51.7447 47.0351 50.8697 47.8901C48.5747 49.9851 45.9347 51.7501 43.3347 53.4451C42.3547 54.1501 40.9647 53.8201 39.8097 53.8051C38.8947 52.1001 39.0147 50.3101 39.2547 48.4601C40.3897 43.4801 47.4097 41.2301 51.0697 44.9201ZM80.9597 43.2451C82.4547 43.1301 84.2847 42.9851 85.5847 43.8601C88.1147 45.3701 89.8347 48.0301 89.6197 51.0401C89.5747 52.3901 88.7847 53.2001 88.0397 54.2301C85.8797 54.3801 84.6447 53.1001 82.9647 52.0151C81.2247 50.7401 79.4247 49.5251 77.7747 48.1401C77.0297 47.4751 76.4197 46.4651 77.0297 45.5001C77.6797 44.0451 79.5047 43.4851 80.9597 43.2451ZM92.5347 42.8801C94.4997 42.8801 96.4597 42.8751 98.4247 42.8651C99.1947 44.6801 99.8247 46.4951 99.7997 48.4951C99.7997 50.7351 99.8697 53.2451 99.1647 55.3901C98.4097 57.6501 97.0597 59.5451 95.6947 61.4701C95.6747 62.3601 95.6547 63.2501 95.6447 64.1401C93.8647 64.1194 92.0847 64.1211 90.3047 64.1451C90.1597 62.6851 89.8047 60.9001 90.3247 59.5051C91.4097 57.9701 92.8647 56.8901 93.6997 55.1451C94.8897 53.0101 94.6497 50.8451 94.6397 48.4901C94.6697 46.4201 93.6197 44.5701 92.5347 42.8801Z" fill="#D2D73C"/>
<path d="M33.3697 64.1401C35.1697 64.1451 36.9697 64.1351 38.7697 64.1251C38.7047 64.6301 38.6347 65.1401 38.5697 65.6501C43.3997 63.9001 48.6647 63.9251 53.3497 66.1151C57.1397 67.7751 60.1397 70.6901 62.2247 74.2351C64.2797 73.8101 67.5447 73.6401 68.8947 75.6001C68.6997 77.9401 66.5997 79.8451 64.2397 79.9001C64.4947 81.5351 64.6597 83.1701 64.5347 84.8301C62.9247 84.8351 61.3197 84.8401 59.7097 84.8501C60.0197 80.7301 58.7247 76.6251 55.7997 73.6601C52.3847 69.9951 47.0697 68.4001 42.1947 69.5951C35.3447 71.1901 30.5897 77.8301 31.2597 84.8401C29.7147 84.8351 28.1747 84.8701 26.6297 84.8551L26.4247 84.0951C26.2197 78.1501 28.8147 72.5351 33.3547 68.7301C33.3847 67.2001 33.3797 65.6701 33.3697 64.1401ZM120.055 64.1001C122.81 64.1301 125.565 64.1401 128.325 64.1451C128.325 71.1601 127.175 78.1751 124.91 84.8201C122.09 84.7301 119.095 85.0601 116.325 84.6651L116.24 84.3701C117.755 80.3701 118.88 76.2301 119.46 71.9901C119.85 69.3701 119.825 66.7501 120.055 64.1001ZM0.464722 64.1301C3.22972 64.2001 6.01972 63.9701 8.75972 64.2901C8.69972 65.6401 8.66472 66.9501 8.84472 68.2951C9.47472 73.9701 10.5797 79.5101 12.7047 84.8301C9.76472 84.8251 6.82972 84.8351 3.88972 84.8451C1.88972 79.0651 0.854722 73.0501 0.464722 66.9551V64.1301ZM90.3047 64.1451C92.0847 64.1211 93.8647 64.1194 95.6447 64.1401C95.5947 68.1351 95.8097 72.4501 95.0647 76.3651C94.3847 79.3651 92.8547 82.2251 91.2747 84.8451C89.4297 84.8501 87.5947 84.9001 85.7547 84.6751C85.7887 84.3444 85.8254 84.0161 85.8647 83.6901C87.0197 81.9951 88.1197 80.2951 88.8747 78.3801C90.7997 73.9551 90.9797 68.8601 90.3047 64.1451ZM73.7297 68.3651C76.3947 67.6651 80.2647 69.0951 80.8647 72.0251C81.0897 73.1901 80.3647 73.6301 79.3797 73.9301C76.4247 74.6701 73.3147 74.9551 70.2747 74.6951C69.9997 73.9501 69.6297 73.3501 69.8797 72.5301C70.4447 70.6951 71.9147 69.0201 73.7297 68.3651Z" fill="#45A446"/>
<path d="M40.0397 76.8648C40.5847 78.9998 41.1747 81.1198 41.5597 83.2948C42.3247 81.3448 42.6447 79.2598 43.3747 77.3048C43.9647 76.3448 46.1497 76.9348 47.1597 76.7448C48.1797 78.8648 48.4947 81.0348 49.0297 83.3398C49.6947 81.1898 50.2347 79.0048 50.8447 76.8448C52.2874 76.7908 53.7315 76.7841 55.1747 76.8248C55.3847 79.4898 53.9397 82.2248 53.3997 84.8298C48.0547 84.8648 42.7047 84.8098 37.3597 84.8498C36.6912 82.4163 36.0045 79.988 35.2997 77.5648C36.2097 76.2198 38.6347 76.9248 40.0397 76.8648Z" fill="#45A446"/>
<path d="M85.8648 83.6899C85.8254 84.0159 85.7888 84.3443 85.7548 84.6749C87.5948 84.8999 89.4298 84.8499 91.2748 84.8449C88.3478 89.4111 84.1535 93.0252 79.2048 95.2449C72.5398 98.2099 65.0998 99.3599 57.8898 98.0299C52.2448 102.725 44.3298 103.925 37.6198 100.855C31.0648 97.9199 26.6098 91.2849 26.4248 84.0949L26.6298 84.8549C28.1748 84.8699 29.7148 84.8349 31.2598 84.8399C31.6948 88.4949 33.3698 91.8949 36.1948 94.2849C40.4198 97.9899 46.7248 98.7999 51.7598 96.2949C53.9412 95.2106 55.8135 93.5932 57.2032 91.5925C58.593 89.5918 59.4551 87.2726 59.7098 84.8499C61.3198 84.8399 62.9248 84.8349 64.5348 84.8299C64.2598 87.9299 63.3648 90.6849 61.8298 93.3849C70.7698 93.9999 80.1598 90.8149 85.8648 83.6899ZM116.24 84.3699L116.325 84.6649C119.095 85.0599 122.09 84.7299 124.91 84.8199C122.202 92.7341 117.977 100.044 112.47 106.34C109.63 106.23 106.79 106.3 103.95 106.295C103.03 106.325 102.235 106.115 101.385 105.785C107.905 99.8749 113.06 92.5849 116.24 84.3699ZM12.7048 84.8299C15.957 92.8519 20.9905 100.029 27.4248 105.82C26.4498 106.115 25.4898 106.32 24.4648 106.29C21.7398 106.26 19.0198 106.27 16.2948 106.305C10.8029 100.027 6.58912 92.7373 3.88977 84.8449C6.82977 84.8349 9.76477 84.8249 12.7048 84.8299Z" fill="#5050DB"/>
<path d="M37.3597 84.8501C42.7047 84.8101 48.0547 84.8651 53.3997 84.8301C52.8597 86.6851 52.4097 88.5651 51.8497 90.4151C51.6547 90.9801 51.4997 91.6501 50.7697 91.6551C49.7447 91.7351 48.6797 91.7351 47.6497 91.6501C46.8597 91.6351 46.7547 91.0701 46.5397 90.4401C46.0897 88.9601 45.7747 87.4351 45.4147 85.9351C44.8347 87.8801 44.5197 89.8301 43.6997 91.7001C42.2597 91.6701 40.8147 91.6601 39.3747 91.6451C38.5347 89.4201 38.0197 87.1301 37.3597 84.8501Z" fill="#5050DB"/>
<path d="M27.4247 105.82L27.4397 105.83C32.3647 110.105 37.8947 113.625 43.9897 115.98C54.8597 120.305 67.1547 121.01 78.4647 118.055C86.9547 115.855 94.8147 111.58 101.385 105.785C102.235 106.115 103.03 106.325 103.95 106.295C106.79 106.3 109.63 106.23 112.47 106.34C102.865 117.35 89.5047 124.895 75.0797 127.29C70.5147 128.22 65.7447 127.725 60.9647 127.855C56.5947 128.025 52.1697 127.11 47.9447 126.035C35.7047 122.81 24.6147 115.825 16.2947 106.305C19.0197 106.27 21.7397 106.26 24.4647 106.29C25.4897 106.32 26.4497 106.115 27.4247 105.82Z" fill="#7B3A79"/>
<path d="M128 127.875C163.346 127.875 192 99.2217 192 63.8755C192 28.5293 163.346 -0.124512 128 -0.124512C92.6538 -0.124512 64 28.5293 64 63.8755C64 99.2217 92.6538 127.875 128 127.875Z" fill="#78350F"/>
<path d="M128 121.875C160.033 121.875 186 95.908 186 63.8755C186 31.843 160.033 5.87549 128 5.87549C95.9675 5.87549 70 31.843 70 63.8755C70 95.908 95.9675 121.875 128 121.875Z" fill="white"/>
<path d="M111.52 41.0113C110.455 40.3392 109.272 39.8744 108.034 39.6413C106.821 39.409 105.573 39.4232 104.366 39.6833C103.184 39.9383 102.066 40.4287 101.078 41.1253C100.098 41.8246 99.2754 42.722 98.664 43.7593C98.0469 44.8098 97.6496 45.9747 97.496 47.1833C97.3359 48.4152 97.4215 49.6667 97.748 50.8653C98.286 52.8773 100.772 53.2613 102.48 52.0373L106.832 48.9253L111.196 45.8053C112.902 44.5793 113.3 42.1313 111.52 41.0113ZM157.534 43.7593C156.92 42.7201 156.096 41.8206 155.114 41.1187C154.132 40.4167 153.014 39.9278 151.832 39.6833C150.624 39.4239 149.377 39.4103 148.164 39.6433C146.926 39.8755 145.742 40.3396 144.676 41.0113C142.896 42.1313 143.296 44.5793 145.002 45.8033L149.366 48.9253L153.718 52.0373C155.426 53.2613 157.912 52.8773 158.45 50.8653C158.776 49.6667 158.862 48.4152 158.702 47.1833C158.548 45.9747 158.151 44.8098 157.534 43.7593ZM131.63 77.4733C129.531 76.7683 127.259 76.7683 125.16 77.4733C124 77.8673 122.988 78.4793 123.052 79.4013C123.168 80.8133 125.412 83.2293 127.034 83.7273C128.026 84.0273 128.648 84.0073 129.754 83.7273C131.376 83.3113 133.632 80.8133 133.738 79.4013C133.812 78.4793 132.788 77.8693 131.63 77.4733ZM120.512 72.9293C119.935 72.1647 119.212 71.5229 118.384 71.0413C117.566 70.5657 116.658 70.266 115.718 70.1613C114.776 70.0565 113.822 70.1443 112.914 70.4193C112.008 70.6993 111.154 71.1553 110.406 71.7793C109.656 72.4045 109.033 73.1685 108.572 74.0293C107.802 75.4693 109.026 76.9853 110.67 77.1713L114.822 77.6393L119.006 78.1153C120.65 78.3033 122.198 77.1093 121.776 75.5333C121.525 74.5924 121.096 73.7083 120.512 72.9293ZM146.248 71.6313C145.508 71.0194 144.655 70.5574 143.738 70.2713C142.831 69.9966 141.878 69.9088 140.936 70.0133C139.996 70.1186 139.088 70.419 138.27 70.8953C137.441 71.3766 136.717 72.0185 136.14 72.7833C135.554 73.561 135.124 74.4455 134.876 75.3873C134.456 76.9633 136.004 78.1573 137.636 77.9693L141.822 77.4933L145.982 77.0253C147.628 76.8393 148.85 75.3253 148.082 73.8833C147.617 73.0245 146.995 72.2605 146.248 71.6313Z" fill="#78350F"/>
<path d="M166.018 61.6757C169.571 57.7985 171.516 52.7144 171.456 47.4557C171.422 44.4089 170.713 41.4074 169.38 38.6677C165.648 30.9497 156.206 24.9237 146.542 26.9357C146.149 27.0223 145.759 27.123 145.374 27.2377C143.946 27.6723 142.615 28.3785 141.454 29.3177C138.872 31.3777 134.128 32.7577 128.702 32.7577H128.086C122.662 32.7577 117.918 31.3737 115.336 29.3137C114.175 28.375 112.843 27.6694 111.414 27.2357C111.029 27.1204 110.639 27.0196 110.246 26.9337C100.584 24.9217 91.142 30.9477 87.41 38.6657C86.0769 41.4048 85.3679 44.4055 85.334 47.4517C85.2765 52.711 87.2213 57.7953 90.774 61.6737C90.9192 61.8352 91.0264 62.0272 91.088 62.2354C91.1496 62.4437 91.164 62.6631 91.13 62.8777C88.802 75.9777 92.238 86.7577 99.31 94.4317C106.738 102.492 117.634 106.508 128.204 106.726H128.586C139.154 106.508 150.052 102.494 157.48 94.4337C164.552 86.7577 167.988 75.9797 165.66 62.8777C165.625 62.6631 165.639 62.4435 165.701 62.2351C165.763 62.0267 165.87 61.8348 166.016 61.6737L166.018 61.6757ZM159.832 59.4037C159.575 59.6106 159.382 59.8863 159.276 60.1986C159.17 60.5109 159.154 60.847 159.232 61.1677C164.722 84.0397 150.612 97.3917 134.402 100.254H134.392C132.828 100.532 131.247 100.713 129.66 100.794C129.566 100.794 129.46 100.804 129.366 100.804C129.07 100.824 128.766 100.824 128.47 100.836H128.396L128.376 100.834H128.322C128.026 100.824 127.722 100.824 127.426 100.804C127.332 100.804 127.226 100.792 127.13 100.792C125.544 100.711 123.964 100.53 122.4 100.252H122.388C106.18 97.3917 92.068 84.0397 97.56 61.1657C97.6371 60.8453 97.6216 60.5096 97.5154 60.1977C97.4092 59.8858 97.2166 59.6104 96.96 59.4037C95.173 57.9818 93.7342 56.1708 92.7533 54.1085C91.7724 52.0462 91.2753 49.7872 91.3 47.5037C91.3268 45.3181 91.8341 43.1652 92.786 41.1977C95.546 35.4817 102.492 31.3217 109.016 32.6817C109.78 32.8377 111.828 33.5017 113.824 34.4377C114.548 34.7777 115.228 35.2017 115.864 35.6817C118.48 37.6577 123.114 38.9717 128.396 38.9777C133.68 38.9737 138.316 37.6577 140.93 35.6837C141.566 35.2037 142.244 34.7797 142.97 34.4397C144.964 33.5037 147.012 32.8397 147.778 32.6817C154.3 31.3217 161.246 35.4817 164.008 41.1997C164.959 43.1674 165.466 45.3203 165.492 47.5057C165.516 49.7889 165.019 52.0475 164.038 54.1094C163.057 56.1713 161.619 57.982 159.832 59.4037Z" fill="#78350F"/>
</g>
<defs>
<clipPath id="clip0_18808_84046">
<rect width="192" height="128" fill="white"/>
</clipPath>
</defs>
</svg>
