<svg xmlns="http://www.w3.org/2000/svg" viewBox="0 0 128 128"><path fill="#FDD468" d="M37.888 0h52.224v12.288h12.8v12.8h12.8v12.8H128v52.224h-12.288v12.8h-12.8v12.8h-12.8V128H37.888v-12.288h-12.8v-12.8h-12.8v-12.8H0V37.888h12.288v-12.8h12.8v-12.8h12.8z"/><path fill="#29161B" d="M37.888 0h52.224v12.288h12.8v12.8h12.8v12.8H128v52.224h-12.288v12.8h-12.8v12.8h-12.8V128H37.888v-12.288h-12.8v-12.8h-12.8v-12.8H0V37.888h12.288v-12.8h12.8v-12.8h12.8zm.512 12.8v12.8H25.6v12.8H12.8v51.2h12.8v12.8h12.8v12.8h51.2v-12.8h12.8V89.6h12.8V38.4h-12.8V25.6H89.6V12.8z"/><path fill="#FDEFC9" d="M25.6 25.6h51.2v12.8H51.2v12.8H38.4v38.4H12.8V38.4h12.8z"/><path fill="#FDD468" d="M38.4 12.8h51.2v12.8h12.8v12.8H89.6v38.4H76.8V51.2H51.2V38.4h25.6V25.6H38.4z"/><path fill="#3BC260" d="M51.2 51.2h25.6v38.4H51.2z"/><path fill="#BE9243" d="M38.4 102.4h51.2v12.8H38.4zm64-64h12.8v51.2h-12.8z"/><path fill="#BE9244" d="M12.8 38.4h12.8v51.2H12.8zm25.6-25.6h51.2v12.8H38.4z"/><path fill="#241219" d="M0 37.888h12.288v52.224H0zM37.888 0h52.224v12.288H37.888z"/><path fill="#868D22" d="M51.2 76.8h25.6v12.8H51.2z"/><path fill="#C09445" d="M38.4 51.2h12.8v25.6H38.4z"/><path fill="#868D22" d="M76.8 51.2h12.8v25.6H76.8z"/><path fill="#C09445" d="M51.2 38.4h25.6v12.8H51.2z"/><path fill="#241219" d="M90.112 102.912h12.8v12.8h-12.8zm-65.024 0h12.8v12.8h-12.8zm77.824-12.8h12.8v12.8h-12.8z"/><path fill="#BE9244" d="M25.6 89.6h12.8v12.8H25.6z"/><path fill="#241219" d="M12.288 90.112h12.8v12.8h-12.8z"/><path fill="#BE9243" d="M89.6 89.6h12.8v12.8H89.6z"/><path fill="#FDEFC8" d="M25.6 76.8h12.8v12.8H25.6z"/><path fill="#FDD469" d="M25.6 64h12.8v12.8H25.6z"/><path fill="#95E1A8" d="M51.2 51.2H64V64H51.2z"/><path fill="#FDEFC8" d="M89.6 38.4h12.8v12.8H89.6z"/><path fill="#BE9244" d="M89.6 25.6h12.8v12.8H89.6z"/><path fill="#BE9245" d="M25.6 25.6h12.8v12.8H25.6z"/><path fill="#241219" d="M102.912 25.088h12.8v12.8h-12.8zm-90.624 0h12.8v12.8h-12.8zm77.824-12.8h12.8v12.8h-12.8zm-65.024 0h12.8v12.8h-12.8z"/></svg>
