<svg xmlns="http://www.w3.org/2000/svg" viewBox="0 0 256 128"><svg viewBox="0 0 128 128"><path fill="#FDD468" d="M37.888 0h52.224v12.288h12.8v12.8h12.8v12.8H128v52.224h-12.288v12.8h-12.8v12.8h-12.8V128H37.888v-12.288h-12.8v-12.8h-12.8v-12.8H0V37.888h12.288v-12.8h12.8v-12.8h12.8z"/><path fill="#29161B" d="M37.888 0h52.224v12.288h12.8v12.8h12.8v12.8H128v52.224h-12.288v12.8h-12.8v12.8h-12.8V128H37.888v-12.288h-12.8v-12.8h-12.8v-12.8H0V37.888h12.288v-12.8h12.8v-12.8h12.8zm.512 12.8v12.8H25.6v12.8H12.8v51.2h12.8v12.8h12.8v12.8h51.2v-12.8h12.8V89.6h12.8V38.4h-12.8V25.6H89.6V12.8z"/><path fill="#FDEFC9" d="M25.6 25.6h51.2v12.8H51.2v12.8H38.4v38.4H12.8V38.4h12.8z"/><path fill="#FDD468" d="M38.4 12.8h51.2v12.8h12.8v12.8H89.6v38.4H76.8V51.2H51.2V38.4h25.6V25.6H38.4z"/><path fill="#3BC260" d="M51.2 51.2h25.6v38.4H51.2z"/><path fill="#BE9243" d="M38.4 102.4h51.2v12.8H38.4zm64-64h12.8v51.2h-12.8z"/><path fill="#BE9244" d="M12.8 38.4h12.8v51.2H12.8zm25.6-25.6h51.2v12.8H38.4z"/><path fill="#241219" d="M0 37.888h12.288v52.224H0zM37.888 0h52.224v12.288H37.888z"/><path fill="#868D22" d="M51.2 76.8h25.6v12.8H51.2z"/><path fill="#C09445" d="M38.4 51.2h12.8v25.6H38.4z"/><path fill="#868D22" d="M76.8 51.2h12.8v25.6H76.8z"/><path fill="#C09445" d="M51.2 38.4h25.6v12.8H51.2z"/><path fill="#241219" d="M90.112 102.912h12.8v12.8h-12.8zm-65.024 0h12.8v12.8h-12.8zm77.824-12.8h12.8v12.8h-12.8z"/><path fill="#BE9244" d="M25.6 89.6h12.8v12.8H25.6z"/><path fill="#241219" d="M12.288 90.112h12.8v12.8h-12.8z"/><path fill="#BE9243" d="M89.6 89.6h12.8v12.8H89.6z"/><path fill="#FDEFC8" d="M25.6 76.8h12.8v12.8H25.6z"/><path fill="#FDD469" d="M25.6 64h12.8v12.8H25.6z"/><path fill="#95E1A8" d="M51.2 51.2H64V64H51.2z"/><path fill="#FDEFC8" d="M89.6 38.4h12.8v12.8H89.6z"/><path fill="#BE9244" d="M89.6 25.6h12.8v12.8H89.6z"/><path fill="#BE9245" d="M25.6 25.6h12.8v12.8H25.6z"/><path fill="#241219" d="M102.912 25.088h12.8v12.8h-12.8zm-90.624 0h12.8v12.8h-12.8zm77.824-12.8h12.8v12.8h-12.8zm-65.024 0h12.8v12.8h-12.8z"/></svg><svg x="64" viewBox="0 0 128 128"><circle cx="64" cy="64" r="64" fill="#78350F"/><circle cx="64" cy="64" r="58" fill="#fff"/><path fill="#78350F" d="M47.52 41.136a10 10 0 0 0-3.486-1.37 9.2 9.2 0 0 0-3.668.042 9 9 0 0 0-3.288 1.442 8.6 8.6 0 0 0-2.414 2.634 9 9 0 0 0-1.168 3.424 9.4 9.4 0 0 0 .252 3.682c.538 2.012 3.024 2.396 4.732 1.172l4.352-3.112 4.364-3.12c1.706-1.226 2.104-3.674.324-4.794m46.014 2.748a8.66 8.66 0 0 0-5.702-4.076 9.2 9.2 0 0 0-3.668-.04 10 10 0 0 0-3.488 1.368c-1.78 1.12-1.38 3.568.326 4.792l4.364 3.122 4.352 3.112c1.708 1.224 4.194.84 4.732-1.172a9.4 9.4 0 0 0 .252-3.682 9 9 0 0 0-1.168-3.424M67.63 77.598a10.16 10.16 0 0 0-6.47 0c-1.16.394-2.172 1.006-2.108 1.928.116 1.412 2.36 3.828 3.982 4.326.992.3 1.614.28 2.72 0 1.622-.416 3.878-2.914 3.984-4.326.074-.922-.95-1.532-2.108-1.928m-11.118-4.544a7.2 7.2 0 0 0-2.128-1.888 6.8 6.8 0 0 0-2.666-.88 7 7 0 0 0-2.804.258c-.906.28-1.76.736-2.508 1.36a7.6 7.6 0 0 0-1.834 2.25c-.77 1.44.454 2.956 2.098 3.142l4.152.468 4.184.476c1.644.188 3.192-1.006 2.77-2.582a7.6 7.6 0 0 0-1.264-2.604m25.736-1.298a7.4 7.4 0 0 0-2.51-1.36 7 7 0 0 0-2.802-.258 6.8 6.8 0 0 0-2.666.882 7.2 7.2 0 0 0-2.13 1.888 7.5 7.5 0 0 0-1.264 2.604c-.42 1.576 1.128 2.77 2.76 2.582l4.186-.476 4.16-.468c1.646-.186 2.868-1.7 2.1-3.142a7.8 7.8 0 0 0-1.834-2.252"/><path fill="#78350F" d="M102.018 61.8a20.7 20.7 0 0 0 5.438-14.22 20.6 20.6 0 0 0-2.076-8.788c-3.732-7.718-13.174-13.744-22.838-11.732q-.59.13-1.168.302a11.6 11.6 0 0 0-3.92 2.08c-2.582 2.06-7.326 3.44-12.752 3.44h-.616c-5.424 0-10.168-1.384-12.75-3.444a11.6 11.6 0 0 0-3.922-2.078 16 16 0 0 0-1.168-.302c-9.662-2.012-19.104 4.014-22.836 11.732a20.6 20.6 0 0 0-2.076 8.786 20.72 20.72 0 0 0 5.44 14.222 1.46 1.46 0 0 1 .356 1.204c-2.328 13.1 1.108 23.88 8.18 31.554 7.428 8.06 18.324 12.076 28.894 12.294h.382c10.568-.218 21.466-4.232 28.894-12.292 7.072-7.676 10.508-18.454 8.18-31.556a1.45 1.45 0 0 1 .356-1.204zm-6.186-2.272a1.74 1.74 0 0 0-.6 1.764c5.49 22.872-8.62 36.224-24.83 39.086h-.01a38 38 0 0 1-4.732.54c-.094 0-.2.01-.294.01-.296.02-.6.02-.896.032h-.074l-.02-.002h-.054c-.296-.01-.6-.01-.896-.03-.094 0-.2-.012-.296-.012a38 38 0 0 1-4.73-.54h-.012C42.18 97.516 28.068 84.164 33.56 61.29a1.74 1.74 0 0 0-.6-1.762 15 15 0 0 1-5.66-11.9 14.9 14.9 0 0 1 1.486-6.306c2.76-5.716 9.706-9.876 16.23-8.516.764.156 2.812.82 4.808 1.756.724.34 1.404.764 2.04 1.244 2.616 1.976 7.25 3.29 12.532 3.296 5.284-.004 9.92-1.32 12.534-3.294.636-.48 1.314-.904 2.04-1.244 1.994-.936 4.042-1.6 4.808-1.758 6.522-1.36 13.468 2.8 16.23 8.518a14.9 14.9 0 0 1 1.484 6.306 15 15 0 0 1-5.66 11.898"/></svg></svg>
