<svg xmlns="http://www.w3.org/2000/svg" viewBox="0 0 192 128"><circle cx="64" cy="64" r="64" fill="#2D598A"/><path fill="#FDFDFD" d="M83.294 43.131c-1.083 3.504-2.521 6.858-3.938 10.238-2.021-.333-3.802-1.098-5.69-1.869-2.923-1.033-5.663-1.397-8.755-1.404l-1.925-.02c-1.73.142-2.672.372-4.105 1.324-1.253 1.41-1.253 1.41-1.353 2.756.218 1.501.573 1.813 1.747 2.757 1.397.565 1.397.565 3.002.984l1.806.504c1.836.468 3.675.876 5.528 1.268 5.864 1.27 10.927 3.165 14.47 8.269 1.773 3.396 1.666 7.33.95 11.041-1.25 3.612-4.383 6.775-7.644 8.646-7.44 3.18-15.315 3.584-23.23 1.969l-1.773-.32c-3.403-.898-6.657-2.135-9.647-4.011.448-2.237 1.244-4.106 2.142-6.202l.958-2.258c.838-1.778.838-1.778 1.625-2.172q1.237.591 2.437 1.255c5.788 2.936 12.646 4.51 19.025 2.525 1.367-.528 1.367-.528 2.163-1.417.263-1.542.263-1.542 0-3.15-2.633-1.756-4.821-2.343-7.875-3.15C48.37 66.735 48.37 66.735 45.1 62.03c-2.003-3.69-2.16-7.694-1.343-11.798 1.477-4.31 5.236-7.499 9.218-9.464 9.334-3.503 21.79-3.323 30.319 2.362"/><circle cx="64" cy="64" r="64" fill="#FEF3C7" transform="translate(64)"/><path fill="#D97706" d="M109.734 93.88h-9.816a9.7 9.7 0 0 1-4.676-1.152 9.14 9.14 0 0 1-3.426-3.196l-5.232-8.524a7.4 7.4 0 0 1-1.25-4.178c0-1.534.416-2.856 1.25-4.134l5.324-8.654-5.324-8.61a7.54 7.54 0 0 1-1.25-4.176c0-1.492.416-2.9 1.25-4.178l5.232-8.524a8.8 8.8 0 0 1 3.426-3.198 9.8 9.8 0 0 1 4.676-1.192h9.816l5.186-8.44a8.8 8.8 0 0 1 3.426-3.196 9.8 9.8 0 0 1 4.676-1.194h9.956c1.712 0 3.24.384 4.676 1.194a9.14 9.14 0 0 1 3.426 3.196l5.232 8.44h9.816c1.714 0 3.24.382 4.676 1.192a9.14 9.14 0 0 1 3.426 3.198l5.186 8.524c.834 1.28 1.25 2.644 1.25 4.178s-.416 2.898-1.25 4.176l-5.324 8.61 5.324 8.654c.834 1.28 1.25 2.642 1.25 4.134a7.53 7.53 0 0 1-1.25 4.178l-5.186 8.524a8.8 8.8 0 0 1-3.426 3.196 9.8 9.8 0 0 1-4.676 1.152h-9.816l-5.232 8.44a8.8 8.8 0 0 1-3.426 3.196 9.8 9.8 0 0 1-4.676 1.15h-9.958a9.7 9.7 0 0 1-4.676-1.15 9.14 9.14 0 0 1-3.426-3.196zm36.578-34.1h9.954l5.094-8.524-5.094-8.526h-9.954l-5.232 8.526zm-23.15 12.788h9.722l5.186-8.526-5.186-8.524h-9.722l-5.186 8.524zm0-25.574h9.722l5.326-8.654-5.186-8.396h-9.956l-5.184 8.396 5.324 8.654zm-8.196 4.26-5.186-8.524h-9.816l-5.186 8.526 5.186 8.524h9.816zm0 25.576-5.186-8.524h-9.954l-5.094 8.524 5.186 8.524h9.816l5.186-8.524zm8.196 4.262-5.326 8.61 5.186 8.44h9.956l5.186-8.44-5.326-8.61h-9.722zm23.15 4.262h9.816l5.186-8.524-5.186-8.524h-9.816l-5.232 8.524z"/></svg>
