<svg xmlns="http://www.w3.org/2000/svg" viewBox="0 0 320 320"><path fill="#2D598A" d="M260.105 33.824C270.138 42.004 279.221 50.642 287 61l2.383 3.059c26.497 35.26 33.673 76.39 30.156 119.605C313.396 223.772 291.57 262.54 259 287l-3.059 2.383c-35.168 26.428-76.392 33.781-119.55 30.144C96.295 313.57 57.408 291.5 33 259l-2.383-3.059C4.12 220.681-3.056 179.551.461 136.336 6.604 96.228 28.43 57.46 61 33l3.059-2.383c57.927-43.53 139.402-40.541 196.046 3.207"/><path fill="#FDFDFD" d="M209 107c-2.75 8.899-6.403 17.416-10 26-5.134-.846-9.657-2.787-14.453-4.746-7.423-2.624-14.38-3.548-22.234-3.566l-4.887-.051c-4.394.36-6.787.946-10.426 3.363-3.183 3.58-3.183 3.58-3.437 7 .555 3.812 1.456 4.604 4.437 7 3.548 1.436 3.548 1.436 7.625 2.5l4.586 1.281c4.662 1.187 9.333 2.225 14.039 3.219 14.892 3.226 27.752 8.039 36.75 21 4.502 8.625 4.23 18.616 2.414 28.043-3.179 9.173-11.133 17.206-19.414 21.957-18.895 8.078-38.896 9.101-59 5l-4.5-.812c-8.643-2.281-16.908-5.421-24.5-10.188 1.136-5.68 3.158-10.426 5.438-15.75l2.433-5.734C116 188 116 188 118 187a117 117 0 0 1 6.188 3.188c14.7 7.454 32.117 11.453 48.316 6.41 3.472-1.34 3.472-1.34 5.496-3.598.667-3.915.667-3.915 0-8-6.687-4.458-12.246-5.95-20-8-37.698-10.053-37.698-10.053-46-22-5.088-9.373-5.484-19.54-3.41-29.965 3.75-10.943 13.296-19.044 23.41-24.035 23.705-8.896 55.339-8.44 77 6"/></svg>
