<svg xmlns="http://www.w3.org/2000/svg" viewBox="0 0 128 128"><circle cx="64" cy="64" r="64" fill="#2d598a"/><path fill="#fdfdfd" d="M83.294 43.131c-1.083 3.504-2.521 6.858-3.938 10.238-2.021-.333-3.802-1.098-5.69-1.869-2.923-1.033-5.663-1.397-8.755-1.404l-1.925-.02c-1.73.142-2.672.372-4.105 1.324-1.253 1.41-1.253 1.41-1.353 2.756.218 1.501.573 1.813 1.747 2.757 1.397.565 1.397.565 3.002.984l1.806.504c1.836.468 3.675.876 5.528 1.268 5.864 1.27 10.927 3.165 14.47 8.269 1.773 3.396 1.666 7.33.95 11.041-1.25 3.612-4.383 6.775-7.644 8.646-7.44 3.18-15.315 3.584-23.23 1.969l-1.773-.32c-3.403-.898-6.657-2.135-9.647-4.011.448-2.237 1.244-4.106 2.142-6.202l.958-2.258c.838-1.778.838-1.778 1.625-2.172q1.237.591 2.437 1.255c5.788 2.936 12.646 4.51 19.025 2.525 1.367-.528 1.367-.528 2.163-1.417.263-1.542.263-1.542 0-3.15-2.633-1.756-4.821-2.343-7.875-3.15C48.37 66.735 48.37 66.735 45.1 62.03c-2.003-3.69-2.16-7.694-1.343-11.798 1.477-4.31 5.236-7.499 9.218-9.464 9.334-3.503 21.79-3.323 30.319 2.362"/></svg>
