<svg xmlns="http://www.w3.org/2000/svg" viewBox="0 0 192 128"><path fill="#2D598A" d="M260.105 33.824C270.138 42.004 279.221 50.642 287 61l2.383 3.059c26.497 35.26 33.673 76.39 30.156 119.605C313.396 223.772 291.57 262.54 259 287l-3.059 2.383c-35.168 26.428-76.392 33.781-119.55 30.144C96.295 313.57 57.408 291.5 33 259l-2.383-3.059C4.12 220.681-3.056 179.551.461 136.336 6.604 96.228 28.43 57.46 61 33l3.059-2.383c57.927-43.53 139.402-40.541 196.046 3.207"/><path fill="#FDFDFD" d="M209 107c-2.75 8.899-6.403 17.416-10 26-5.134-.846-9.657-2.787-14.453-4.746-7.423-2.624-14.38-3.548-22.234-3.566l-4.887-.051c-4.394.36-6.787.946-10.426 3.363-3.183 3.58-3.183 3.58-3.437 7 .555 3.812 1.456 4.604 4.437 7 3.548 1.436 3.548 1.436 7.625 2.5l4.586 1.281c4.662 1.187 9.333 2.225 14.039 3.219 14.892 3.226 27.752 8.039 36.75 21 4.502 8.625 4.23 18.616 2.414 28.043-3.179 9.173-11.133 17.206-19.414 21.957-18.895 8.078-38.896 9.101-59 5l-4.5-.812c-8.643-2.281-16.908-5.421-24.5-10.188 1.136-5.68 3.158-10.426 5.438-15.75l2.433-5.734C116 188 116 188 118 187a117 117 0 0 1 6.188 3.188c14.7 7.454 32.117 11.453 48.316 6.41 3.472-1.34 3.472-1.34 5.496-3.598.667-3.915.667-3.915 0-8-6.687-4.458-12.246-5.95-20-8-37.698-10.053-37.698-10.053-46-22-5.088-9.373-5.484-19.54-3.41-29.965 3.75-10.943 13.296-19.044 23.41-24.035 23.705-8.896 55.339-8.44 77 6"/><circle cx="64" cy="64" r="64" fill="#FEF3C7" transform="translate(64)"/><path fill="#D97706" d="M109.734 93.88h-9.816a9.7 9.7 0 0 1-4.676-1.152 9.14 9.14 0 0 1-3.426-3.196l-5.232-8.524a7.4 7.4 0 0 1-1.25-4.178c0-1.534.416-2.856 1.25-4.134l5.324-8.654-5.324-8.61a7.54 7.54 0 0 1-1.25-4.176c0-1.492.416-2.9 1.25-4.178l5.232-8.524a8.8 8.8 0 0 1 3.426-3.198 9.8 9.8 0 0 1 4.676-1.192h9.816l5.186-8.44a8.8 8.8 0 0 1 3.426-3.196 9.8 9.8 0 0 1 4.676-1.194h9.956c1.712 0 3.24.384 4.676 1.194a9.14 9.14 0 0 1 3.426 3.196l5.232 8.44h9.816c1.714 0 3.24.382 4.676 1.192a9.14 9.14 0 0 1 3.426 3.198l5.186 8.524c.834 1.28 1.25 2.644 1.25 4.178s-.416 2.898-1.25 4.176l-5.324 8.61 5.324 8.654c.834 1.28 1.25 2.642 1.25 4.134a7.53 7.53 0 0 1-1.25 4.178l-5.186 8.524a8.8 8.8 0 0 1-3.426 3.196 9.8 9.8 0 0 1-4.676 1.152h-9.816l-5.232 8.44a8.8 8.8 0 0 1-3.426 3.196 9.8 9.8 0 0 1-4.676 1.15h-9.958a9.7 9.7 0 0 1-4.676-1.15 9.14 9.14 0 0 1-3.426-3.196zm36.578-34.1h9.954l5.094-8.524-5.094-8.526h-9.954l-5.232 8.526zm-23.15 12.788h9.722l5.186-8.526-5.186-8.524h-9.722l-5.186 8.524zm0-25.574h9.722l5.326-8.654-5.186-8.396h-9.956l-5.184 8.396 5.324 8.654zm-8.196 4.26-5.186-8.524h-9.816l-5.186 8.526 5.186 8.524h9.816zm0 25.576-5.186-8.524h-9.954l-5.094 8.524 5.186 8.524h9.816l5.186-8.524zm8.196 4.262-5.326 8.61 5.186 8.44h9.956l5.186-8.44-5.326-8.61h-9.722zm23.15 4.262h9.816l5.186-8.524-5.186-8.524h-9.816l-5.232 8.524z"/></svg>
