<svg xmlns="http://www.w3.org/2000/svg" viewBox="0 0 256 128"><svg viewBox="0 0 128 128"><circle cx="64" cy="64" r="64" fill="#edd89c"/><path fill="#335e9e" d="M90.248 75.656q4.984 6.664 2.088 14.492-2.892 7.824-11.496 10.264a16 16 0 0 1-8.388.092q-4.28-1.08-7.012-4.072-9.92 4.432-18.64-.432T36.32 80.188a15.1 15.1 0 0 1-7.38-4.168q-3.036-3.112-4.38-7.848-2.16-7.6 3.432-14.24t12.976-5.768l8.644 1.048a20.4 20.4 0 0 1 4.82-8.168 20 20 0 0 1 8.088-5.192l-1.84-6.48a3.76 3.76 0 0 1 1.3-4.137c.41-.313.88-.539 1.38-.663a3.76 3.76 0 0 1 4.8 2.676l2.12 7.48q5.008.06 8.824 2.14 3.82 2.08 7.428 6.716l7.228-2.052a3.76 3.76 0 0 1 2.98.3 3.76 3.76 0 0 1 1.82 2.376 3.76 3.76 0 0 1-.3 2.98 3.76 3.76 0 0 1-2.376 1.82l-6.48 1.84a20.8 20.8 0 0 1-.048 9.576 19.2 19.2 0 0 1-4.292 8.356zm-30.06 11.76a40 40 0 0 1-1.296-6.7 36 36 0 0 1-.068-6.648 24 24 0 0 1-5.624 3.684 27.7 27.7 0 0 1-6.452 2.168q1.38 4.86 4.98 6.872 3.6 2.01 8.46.624M45.16 69.6q3.988-1.127 6.76-2.996 2.768-1.86 6.78-6.232l-16.72-1.988q-4.044-.468-6.156 1.812-2.108 2.28-1.16 5.648.924 3.24 3.464 4.136 2.544.892 7.032-.38m32.848 20.844q3.12-.88 4.428-3.612 1.316-2.728-.356-4.816l-11.54-15.04a41.6 41.6 0 0 0-1.412 9.02q-.18 4.36.74 7.6 1.168 4.116 3.22 5.888t4.92.96m.376-30q.888-1.6 1.056-3.872a12.8 12.8 0 0 0-.472-4.512q-1.132-3.983-4.528-5.984a8.96 8.96 0 0 0-7.26-.904q-2.248.636-4.024 1.948a9.6 9.6 0 0 0-2.764 3.076l10.996 1.728z"/></svg><svg x="64" viewBox="0 0 128 128"><path fill="#345f9f" d="M64 128c35.346 0 64-28.654 64-64S99.346 0 64 0 0 28.654 0 64s28.654 64 64 64"/><path fill="#fff" d="M107.468 47.58a20.72 20.72 0 0 1-5.44 14.22 1.43 1.43 0 0 0-.36 1.2c2.328 13.104-1.104 23.88-8.176 31.56-7.432 8.06-18.328 12.072-28.896 12.292h-.38c-10.572-.22-21.468-4.236-28.896-12.296C28.248 86.88 24.812 76.104 27.14 63a1.44 1.44 0 0 0-.36-1.2 20.72 20.72 0 0 1-3.36-23.008c3.732-7.72 13.176-13.748 22.84-11.732q.48.1 1.164.3c1.44.424 2.76 1.148 3.92 2.08 2.584 2.06 7.328 3.44 12.752 3.44h.616c5.428 0 10.172-1.376 12.752-3.44 1.16-.928 2.484-1.656 3.92-2.08q.688-.195 1.168-.3c9.664-2.012 19.108 4.016 22.84 11.732a20.6 20.6 0 0 1 2.072 8.788M95.236 61.292a1.72 1.72 0 0 1 .6-1.76 15 15 0 0 0 5.664-11.9 14.8 14.8 0 0 0-1.488-6.308c-2.76-5.716-9.704-9.876-16.228-8.52-.764.16-2.812.824-4.808 1.76-.72.346-1.403.763-2.04 1.244-2.616 1.976-7.248 3.292-12.532 3.292s-9.92-1.32-12.532-3.292a12 12 0 0 0-2.04-1.244c-2-.936-4.044-1.6-4.808-1.76-6.524-1.36-13.472 2.8-16.232 8.52a14.8 14.8 0 0 0-1.484 6.304 15 15 0 0 0 5.66 11.9c.524.424.76 1.108.6 1.76-5.492 22.88 8.62 36.228 24.828 39.088h.008c1.614.282 3.244.465 4.88.548h.148q.447.034.896.036h.148l.3-.008q.3 0 .596-.024l.148-.004.148-.008q2.388-.12 4.732-.536h.008c16.208-2.864 30.32-16.216 24.828-39.088m-51.2-21.524a10 10 0 0 1 3.484 1.368c1.784 1.12 1.384 3.568-.324 4.792l-4.36 3.12-4.356 3.116c-1.708 1.224-4.196.84-4.732-1.172a9.6 9.6 0 0 1-.252-3.68 9.1 9.1 0 0 1 1.168-3.428 8.5 8.5 0 0 1 2.416-2.632 9 9 0 0 1 3.288-1.44 9.2 9.2 0 0 1 3.668-.044m47.088 1.48a8.8 8.8 0 0 1 3.584 6.06 9.4 9.4 0 0 1-.252 3.68c-.536 2.016-3.024 2.4-4.732 1.176l-4.352-3.112-4.36-3.12c-1.712-1.228-2.112-3.676-.328-4.796a10 10 0 0 1 3.488-1.368 9.2 9.2 0 0 1 3.664.04 8.8 8.8 0 0 1 3.288 1.44M67.644 77.6a10.16 10.16 0 0 0-6.472 0c-1.16.396-2.168 1.008-2.108 1.928.12 1.412 2.36 3.828 3.984 4.328.992.3 1.612.28 2.72 0 1.624-.416 3.88-2.916 3.984-4.328.072-.92-.948-1.532-2.108-1.928m-13.252-6.432c.82.48 1.548 1.12 2.128 1.892a7.5 7.5 0 0 1 1.264 2.6c.42 1.58-1.128 2.772-2.772 2.584l-4.184-.48-4.152-.464c-1.64-.188-2.864-1.7-2.096-3.144a7.6 7.6 0 0 1 1.832-2.248c.748-.62 1.6-1.08 2.508-1.36a6.92 6.92 0 0 1 5.472.62m27.86.592a7.2 7.2 0 0 0-2.508-1.36 6.92 6.92 0 0 0-5.468.624 7.2 7.2 0 0 0-2.128 1.888 7.6 7.6 0 0 0-1.264 2.604c-.424 1.576 1.128 2.768 2.76 2.584l4.184-.48 4.16-.464c1.648-.188 2.868-1.7 2.1-3.144a8 8 0 0 0-1.836-2.252"/></svg></svg>
