<svg xmlns="http://www.w3.org/2000/svg" viewBox="0 0 192 128"><path fill="#fff" d="M747.6 373.786C747.6 167.572 580.43.402 374.216.402S.832 167.572.832 373.786 168.002 747.17 374.216 747.17 747.6 580 747.6 373.786"/><path d="M747.6 373.786C747.6 167.572 580.43.402 374.216.402S.832 167.572.832 373.786 168.002 747.17 374.216 747.17 747.6 580 747.6 373.786"/><path fill="#fff" d="M1022.66 957.59H-274.23V228.091h1296.89z"/><path fill="#651D71" d="M918.638 569.334c-163.892 0-296.753 119.394-296.753 266.673s132.861 266.673 296.753 266.673 296.752-119.394 296.752-266.673-132.86-266.673-296.752-266.673"/><path fill="#B797EC" d="M621.885 642.283c-123.354 0-223.353 89.817-223.353 200.612s99.999 200.615 223.353 200.615 223.353-89.82 223.353-200.615-99.999-200.612-223.353-200.612"/><path fill="#B797EC" d="M278.75 527.187c-189.508 0-343.135 138.446-343.135 309.227 0 170.786 153.627 309.226 343.135 309.226s343.135-138.44 343.135-309.226c0-170.781-153.627-309.227-343.135-309.227"/><path fill="#651D71" d="M-126.978 300.232c-247.952 0-448.957 180.905-448.957 404.062s201.005 404.066 448.957 404.066 448.957-180.909 448.957-404.066-201.005-404.062-448.957-404.062"/><path fill="#3E43B5" d="M181.934 333.464c-189.757 0-343.585 138.446-343.585 309.227S-7.823 951.918 181.934 951.918s343.585-138.446 343.585-309.227-153.828-309.227-343.585-309.227"/><path d="M287.326 531.474c110.709 29.014 291.744 65.214 404.162 84.92 111.405-26.203 170.011 245.398 281.156 272.881 102.706 25.397 266.436-139.288 266.436-139.288V-45.874L-454.982-23.092l42.268 371.781s80.898 325.989 142.003 337.089C-115.898 713.9-96.585 767.4 60.312 771.733c84.43 2.332 144.896-261.779 227.014-240.259"/><path fill="#fff" fill-rule="evenodd" d="m247.171 470.456 174.298-248.923c15.461-22.082 45.896-27.448 67.977-11.987s27.447 45.896 11.986 67.977L327.134 526.447c-15.462 22.081-45.896 27.448-67.977 11.986s-27.448-45.896-11.986-67.977m277.781-311.618c50.087 35.071 62.259 104.105 27.188 154.191L377.842 561.953c-35.071 50.087-104.105 62.259-154.191 27.188-50.087-35.071-62.259-104.104-27.188-154.191l174.298-248.924c35.071-50.086 104.105-62.259 154.191-27.188" clip-rule="evenodd"/><circle cx="64" cy="64" r="64" fill="#78350F" transform="translate(64)"/><circle cx="64" cy="64" r="58" fill="#fff" transform="translate(64)"/><path fill="#78350F" d="M111.52 41.136a10 10 0 0 0-3.486-1.37 9.2 9.2 0 0 0-3.668.042 9 9 0 0 0-3.288 1.442 8.6 8.6 0 0 0-2.414 2.634 9 9 0 0 0-1.168 3.424 9.4 9.4 0 0 0 .252 3.682c.538 2.012 3.024 2.396 4.732 1.172l4.352-3.112 4.364-3.12c1.706-1.226 2.104-3.674.324-4.794m46.014 2.748a8.66 8.66 0 0 0-5.702-4.076 9.2 9.2 0 0 0-3.668-.04 10 10 0 0 0-3.488 1.368c-1.78 1.12-1.38 3.568.326 4.792l4.364 3.122 4.352 3.112c1.708 1.224 4.194.84 4.732-1.172a9.4 9.4 0 0 0 .252-3.682 9 9 0 0 0-1.168-3.424M131.63 77.598a10.16 10.16 0 0 0-6.47 0c-1.16.394-2.172 1.006-2.108 1.928.116 1.412 2.36 3.828 3.982 4.326.992.3 1.614.28 2.72 0 1.622-.416 3.878-2.914 3.984-4.326.074-.922-.95-1.532-2.108-1.928m-11.118-4.544a7.2 7.2 0 0 0-2.128-1.888 6.8 6.8 0 0 0-2.666-.88 7 7 0 0 0-2.804.258c-.906.28-1.76.736-2.508 1.36a7.6 7.6 0 0 0-1.834 2.25c-.77 1.44.454 2.956 2.098 3.142l4.152.468 4.184.476c1.644.188 3.192-1.006 2.77-2.582a7.6 7.6 0 0 0-1.264-2.604m25.736-1.298a7.4 7.4 0 0 0-2.51-1.36 7 7 0 0 0-2.802-.258 6.8 6.8 0 0 0-2.666.882 7.2 7.2 0 0 0-2.13 1.888 7.5 7.5 0 0 0-1.264 2.604c-.42 1.576 1.128 2.77 2.76 2.582l4.186-.476 4.16-.468c1.646-.186 2.868-1.7 2.1-3.142a7.8 7.8 0 0 0-1.834-2.252"/><path fill="#78350F" d="M166.018 61.8a20.7 20.7 0 0 0 5.438-14.22 20.6 20.6 0 0 0-2.076-8.788c-3.732-7.718-13.174-13.744-22.838-11.732q-.59.13-1.168.302a11.6 11.6 0 0 0-3.92 2.08c-2.582 2.06-7.326 3.44-12.752 3.44h-.616c-5.424 0-10.168-1.384-12.75-3.444a11.6 11.6 0 0 0-3.922-2.078 16 16 0 0 0-1.168-.302c-9.662-2.012-19.104 4.014-22.836 11.732a20.6 20.6 0 0 0-2.076 8.786 20.72 20.72 0 0 0 5.44 14.222 1.46 1.46 0 0 1 .356 1.204c-2.328 13.1 1.108 23.88 8.18 31.554 7.428 8.06 18.324 12.076 28.894 12.294h.382c10.568-.218 21.466-4.232 28.894-12.292 7.072-7.676 10.508-18.454 8.18-31.556a1.45 1.45 0 0 1 .356-1.204zm-6.186-2.272a1.74 1.74 0 0 0-.6 1.764c5.49 22.872-8.62 36.224-24.83 39.086h-.01a38 38 0 0 1-4.732.54c-.094 0-.2.01-.294.01-.296.02-.6.02-.896.032h-.074l-.02-.002h-.054c-.296-.01-.6-.01-.896-.03-.094 0-.2-.012-.296-.012a38 38 0 0 1-4.73-.54h-.012c-16.208-2.86-30.32-16.212-24.828-39.086a1.74 1.74 0 0 0-.6-1.762 15 15 0 0 1-5.66-11.9 14.9 14.9 0 0 1 1.486-6.306c2.76-5.716 9.706-9.876 16.23-8.516.764.156 2.812.82 4.808 1.756.724.34 1.404.764 2.04 1.244 2.616 1.976 7.25 3.29 12.532 3.296 5.284-.004 9.92-1.32 12.534-3.294.636-.48 1.314-.904 2.04-1.244 1.994-.936 4.042-1.6 4.808-1.758 6.522-1.36 13.468 2.8 16.23 8.518a14.9 14.9 0 0 1 1.484 6.306 15 15 0 0 1-5.66 11.898"/></svg>
