<svg xmlns="http://www.w3.org/2000/svg" fill="none" viewBox="0 0 128 128"><g clip-path="url(#a)"><path fill="#000" d="M127.903 63.963C127.903 28.675 99.297.07 64.009.07S.114 28.675.114 63.963s28.607 63.895 63.895 63.895 63.894-28.607 63.894-63.895"/><path fill="#fff" fill-rule="evenodd" d="m42.268 80.506 29.826-42.597a8.352 8.352 0 1 1 13.684 9.582L55.952 90.087a8.352 8.352 0 0 1-13.684-9.581M89.803 27.18c8.57 6.001 10.654 17.815 4.652 26.385L64.63 96.163c-6.002 8.571-17.815 10.654-26.386 4.653S27.59 83.001 33.591 74.43l29.826-42.597c6.002-8.57 17.815-10.654 26.386-4.652" clip-rule="evenodd"/></g><defs><clipPath id="a"><path fill="#fff" d="M0 0h128v128H0z"/></clipPath></defs></svg>
