<svg width="128" height="128" viewBox="0 0 128 128" fill="none" xmlns="http://www.w3.org/2000/svg">
<g clip-path="url(#clip0_194_11)">
<path d="M127.903 63.9634C127.903 28.6754 99.2966 0.0688477 64.0086 0.0688477C28.7206 0.0688477 0.113983 28.6754 0.113983 63.9634C0.113983 99.2514 28.7206 127.858 64.0086 127.858C99.2966 127.858 127.903 99.2514 127.903 63.9634Z" fill="black"/>
<path fill-rule="evenodd" clip-rule="evenodd" d="M42.2681 80.5058L72.0944 37.9094C74.7402 34.1306 79.9483 33.2124 83.7269 35.8581C87.5054 38.504 88.4237 43.712 85.778 47.4906L55.9516 90.0872C53.3057 93.8657 48.0977 94.7842 44.3191 92.1382C40.5406 89.4925 39.6221 84.2844 42.2681 80.5058ZM89.8028 27.1808C98.3738 33.1823 100.457 44.9956 94.4553 53.5664L64.6289 96.1631C58.6274 104.734 46.8141 106.817 38.2432 100.816C29.6722 94.8141 27.5893 83.001 33.5907 74.4299L63.4171 31.8333C69.4186 23.2624 81.2319 21.1794 89.8028 27.1808Z" fill="white"/>
</g>
<defs>
<clipPath id="clip0_194_11">
<rect width="128" height="128" fill="white"/>
</clipPath>
</defs>
</svg>
