<svg xmlns="http://www.w3.org/2000/svg" fill="none" viewBox="0 0 748 748"><g clip-path="url(#a)"><mask id="b" width="748" height="748" x="0" y="0" maskUnits="userSpaceOnUse" style="mask-type:luminance"><path fill="#fff" d="M747.6 373.786C747.6 167.572 580.43.402 374.216.402S.832 167.572.832 373.786 168.002 747.17 374.216 747.17 747.6 580 747.6 373.786"/></mask><g mask="url(#b)"><path fill="#000" d="M747.6 373.786C747.6 167.572 580.43.402 374.216.402S.832 167.572.832 373.786 168.002 747.17 374.216 747.17 747.6 580 747.6 373.786"/><path fill="#fff" d="M1022.66 957.59H-274.23V228.091h1296.89z"/><g filter="url(#c)"><path fill="#651D71" d="M918.638 569.334c-163.892 0-296.753 119.394-296.753 266.673s132.861 266.673 296.753 266.673 296.752-119.394 296.752-266.673-132.86-266.673-296.752-266.673"/></g><g filter="url(#d)"><path fill="#B797EC" d="M621.885 642.283c-123.354 0-223.353 89.817-223.353 200.612s99.999 200.615 223.353 200.615 223.353-89.82 223.353-200.615-99.999-200.612-223.353-200.612"/></g><g filter="url(#e)"><path fill="#B797EC" d="M278.75 527.187c-189.508 0-343.135 138.446-343.135 309.227 0 170.786 153.627 309.226 343.135 309.226s343.135-138.44 343.135-309.226c0-170.781-153.627-309.227-343.135-309.227"/></g><g filter="url(#f)"><path fill="#651D71" d="M-126.978 300.232c-247.952 0-448.957 180.905-448.957 404.062s201.005 404.066 448.957 404.066 448.957-180.909 448.957-404.066-201.005-404.062-448.957-404.062"/></g><g filter="url(#g)"><path fill="#3E43B5" d="M181.934 333.464c-189.757 0-343.585 138.446-343.585 309.227S-7.823 951.918 181.934 951.918s343.585-138.446 343.585-309.227-153.828-309.227-343.585-309.227"/></g><g filter="url(#h)"><path fill="#000" d="M287.326 531.474c110.709 29.014 291.744 65.214 404.162 84.92 111.405-26.203 170.011 245.398 281.156 272.881 102.706 25.397 266.436-139.288 266.436-139.288V-45.874L-454.982-23.092l42.268 371.781s80.898 325.989 142.003 337.089C-115.898 713.9-96.585 767.4 60.312 771.733c84.43 2.332 144.896-261.779 227.014-240.259"/></g><path fill="#fff" fill-rule="evenodd" d="m247.171 470.456 174.298-248.923c15.461-22.082 45.896-27.448 67.977-11.987s27.447 45.896 11.986 67.977L327.134 526.447c-15.462 22.081-45.896 27.448-67.977 11.986s-27.448-45.896-11.986-67.977m277.781-311.618c50.087 35.071 62.259 104.105 27.188 154.191L377.842 561.953c-35.071 50.087-104.105 62.259-154.191 27.188-50.087-35.071-62.259-104.104-27.188-154.191l174.298-248.924c35.071-50.086 104.105-62.259 154.191-27.188" clip-rule="evenodd"/></g></g><defs><filter id="c" width="982.569" height="922.41" x="427.353" y="374.802" color-interpolation-filters="sRGB" filterUnits="userSpaceOnUse"><feFlood flood-opacity="0" result="BackgroundImageFix"/><feColorMatrix in="SourceAlpha" result="hardAlpha" values="0 0 0 0 0 0 0 0 0 0 0 0 0 0 0 0 0 0 127 0"/><feOffset/><feGaussianBlur stdDeviation="32.422"/><feComposite in2="hardAlpha" operator="out"/><feColorMatrix values="0 0 0 0 0.788235 0 0 0 0 0.698039 0 0 0 0 0.780392 0 0 0 1 0"/><feBlend in2="BackgroundImageFix" result="effect1_d"/><feBlend in="SourceGraphic" in2="effect1_d" result="shape"/><feGaussianBlur result="effect2" stdDeviation="97.266"/></filter><filter id="d" width="835.77" height="790.291" x="204" y="447.751" color-interpolation-filters="sRGB" filterUnits="userSpaceOnUse"><feFlood flood-opacity="0" result="BackgroundImageFix"/><feColorMatrix in="SourceAlpha" result="hardAlpha" values="0 0 0 0 0 0 0 0 0 0 0 0 0 0 0 0 0 0 127 0"/><feOffset/><feGaussianBlur stdDeviation="32.422"/><feComposite in2="hardAlpha" operator="out"/><feColorMatrix values="0 0 0 0 0.788235 0 0 0 0 0.698039 0 0 0 0 0.780392 0 0 0 1 0"/><feBlend in2="BackgroundImageFix" result="effect1_d"/><feBlend in="SourceGraphic" in2="effect1_d" result="shape"/><feGaussianBlur result="effect2" stdDeviation="97.266"/></filter><filter id="e" width="1075.33" height="1007.52" x="-258.917" y="332.655" color-interpolation-filters="sRGB" filterUnits="userSpaceOnUse"><feFlood flood-opacity="0" result="BackgroundImageFix"/><feColorMatrix in="SourceAlpha" result="hardAlpha" values="0 0 0 0 0 0 0 0 0 0 0 0 0 0 0 0 0 0 127 0"/><feOffset/><feGaussianBlur stdDeviation="32.422"/><feComposite in2="hardAlpha" operator="out"/><feColorMatrix values="0 0 0 0 0.788235 0 0 0 0 0.698039 0 0 0 0 0.780392 0 0 0 1 0"/><feBlend in2="BackgroundImageFix" result="effect1_d"/><feBlend in="SourceGraphic" in2="effect1_d" result="shape"/><feGaussianBlur result="effect2" stdDeviation="97.266"/></filter><filter id="f" width="1286.98" height="1197.19" x="-770.467" y="105.7" color-interpolation-filters="sRGB" filterUnits="userSpaceOnUse"><feFlood flood-opacity="0" result="BackgroundImageFix"/><feColorMatrix in="SourceAlpha" result="hardAlpha" values="0 0 0 0 0 0 0 0 0 0 0 0 0 0 0 0 0 0 127 0"/><feOffset/><feGaussianBlur stdDeviation="32.422"/><feComposite in2="hardAlpha" operator="out"/><feColorMatrix values="0 0 0 0 0.788235 0 0 0 0 0.698039 0 0 0 0 0.780392 0 0 0 1 0"/><feBlend in2="BackgroundImageFix" result="effect1_d"/><feBlend in="SourceGraphic" in2="effect1_d" result="shape"/><feGaussianBlur result="effect2" stdDeviation="97.266"/></filter><filter id="g" width="1076.23" height="1007.52" x="-356.183" y="138.932" color-interpolation-filters="sRGB" filterUnits="userSpaceOnUse"><feFlood flood-opacity="0" result="BackgroundImageFix"/><feColorMatrix in="SourceAlpha" result="hardAlpha" values="0 0 0 0 0 0 0 0 0 0 0 0 0 0 0 0 0 0 127 0"/><feOffset/><feGaussianBlur stdDeviation="32.422"/><feComposite in2="hardAlpha" operator="out"/><feColorMatrix values="0 0 0 0 0.788235 0 0 0 0 0.698039 0 0 0 0 0.780392 0 0 0 1 0"/><feBlend in2="BackgroundImageFix" result="effect1_d"/><feBlend in="SourceGraphic" in2="effect1_d" result="shape"/><feGaussianBlur result="effect2" stdDeviation="97.266"/></filter><filter id="h" width="2083.13" height="1326.88" x="-649.514" y="-240.406" color-interpolation-filters="sRGB" filterUnits="userSpaceOnUse"><feFlood flood-opacity="0" result="BackgroundImageFix"/><feBlend in="SourceGraphic" in2="BackgroundImageFix" result="shape"/><feGaussianBlur result="effect1" stdDeviation="97.266"/></filter></defs></svg>
