<svg xmlns="http://www.w3.org/2000/svg" fill="none" viewBox="0 0 748 748"><g clip-path="url(#a)"><rect width="746.768" height="746.768" x=".832" y=".402" fill="#000" rx="373.384"/><g clip-path="url(#b)"><path fill="#fff" d="M1022.66 957.59H-274.23V228.091h1296.89z"/><g filter="url(#c)"><ellipse cx="918.638" cy="836.007" fill="#651D71" rx="296.753" ry="266.673" transform="rotate(-180 918.638 836.007)"/></g><g filter="url(#d)"><ellipse cx="621.885" cy="842.895" fill="#B797EC" rx="223.353" ry="200.612" transform="rotate(-180 621.885 842.895)"/></g><g filter="url(#e)"><ellipse cx="278.75" cy="836.414" fill="#B797EC" rx="343.135" ry="309.227" transform="rotate(-180 278.75 836.414)"/></g><g filter="url(#f)"><ellipse cx="-126.978" cy="704.294" fill="#651D71" rx="448.957" ry="404.062" transform="rotate(-180 -126.978 704.294)"/></g><g filter="url(#g)"><ellipse cx="181.934" cy="642.691" fill="#3E43B5" rx="343.585" ry="309.227" transform="rotate(-180 181.934 642.691)"/></g><g filter="url(#h)"><path fill="#000" d="M287.326 531.474c110.709 29.014 291.744 65.214 404.162 84.92 111.405-26.203 170.011 245.398 281.156 272.881 102.706 25.397 266.436-139.288 266.436-139.288V-45.874L-454.982-23.092l42.268 371.781s80.898 325.989 142.003 337.089C-115.898 713.9-96.585 767.4 60.312 771.733c84.43 2.332 144.896-261.78 227.014-240.26"/></g></g><path fill="#fff" fill-rule="evenodd" d="m247.171 470.456 174.298-248.923c15.461-22.082 45.896-27.448 67.977-11.987s27.447 45.896 11.986 67.977L327.134 526.447c-15.462 22.081-45.896 27.448-67.977 11.986s-27.448-45.896-11.986-67.977m277.781-311.618c50.087 35.071 62.259 104.105 27.188 154.191L377.842 561.953c-35.071 50.087-104.105 62.259-154.191 27.188-50.087-35.071-62.259-104.104-27.188-154.191l174.298-248.924c35.071-50.086 104.105-62.259 154.191-27.188" clip-rule="evenodd"/></g><defs><filter id="c" width="982.572" height="922.41" x="427.353" y="374.803" color-interpolation-filters="sRGB" filterUnits="userSpaceOnUse"><feFlood flood-opacity="0" result="BackgroundImageFix"/><feColorMatrix in="SourceAlpha" result="hardAlpha" values="0 0 0 0 0 0 0 0 0 0 0 0 0 0 0 0 0 0 127 0"/><feOffset/><feGaussianBlur stdDeviation="32.422"/><feComposite in2="hardAlpha" operator="out"/><feColorMatrix values="0 0 0 0 0.788235 0 0 0 0 0.698039 0 0 0 0 0.780392 0 0 0 1 0"/><feBlend in2="BackgroundImageFix" result="effect1_dropShadow_1044_1704"/><feBlend in="SourceGraphic" in2="effect1_dropShadow_1044_1704" result="shape"/><feGaussianBlur result="effect2_foregroundBlur_1044_1704" stdDeviation="97.266"/></filter><filter id="d" width="835.772" height="790.293" x="203.999" y="447.748" color-interpolation-filters="sRGB" filterUnits="userSpaceOnUse"><feFlood flood-opacity="0" result="BackgroundImageFix"/><feColorMatrix in="SourceAlpha" result="hardAlpha" values="0 0 0 0 0 0 0 0 0 0 0 0 0 0 0 0 0 0 127 0"/><feOffset/><feGaussianBlur stdDeviation="32.422"/><feComposite in2="hardAlpha" operator="out"/><feColorMatrix values="0 0 0 0 0.788235 0 0 0 0 0.698039 0 0 0 0 0.780392 0 0 0 1 0"/><feBlend in2="BackgroundImageFix" result="effect1_dropShadow_1044_1704"/><feBlend in="SourceGraphic" in2="effect1_dropShadow_1044_1704" result="shape"/><feGaussianBlur result="effect2_foregroundBlur_1044_1704" stdDeviation="97.266"/></filter><filter id="e" width="1075.34" height="1007.52" x="-258.918" y="332.654" color-interpolation-filters="sRGB" filterUnits="userSpaceOnUse"><feFlood flood-opacity="0" result="BackgroundImageFix"/><feColorMatrix in="SourceAlpha" result="hardAlpha" values="0 0 0 0 0 0 0 0 0 0 0 0 0 0 0 0 0 0 127 0"/><feOffset/><feGaussianBlur stdDeviation="32.422"/><feComposite in2="hardAlpha" operator="out"/><feColorMatrix values="0 0 0 0 0.788235 0 0 0 0 0.698039 0 0 0 0 0.780392 0 0 0 1 0"/><feBlend in2="BackgroundImageFix" result="effect1_dropShadow_1044_1704"/><feBlend in="SourceGraphic" in2="effect1_dropShadow_1044_1704" result="shape"/><feGaussianBlur result="effect2_foregroundBlur_1044_1704" stdDeviation="97.266"/></filter><filter id="f" width="1286.98" height="1197.19" x="-770.469" y="105.697" color-interpolation-filters="sRGB" filterUnits="userSpaceOnUse"><feFlood flood-opacity="0" result="BackgroundImageFix"/><feColorMatrix in="SourceAlpha" result="hardAlpha" values="0 0 0 0 0 0 0 0 0 0 0 0 0 0 0 0 0 0 127 0"/><feOffset/><feGaussianBlur stdDeviation="32.422"/><feComposite in2="hardAlpha" operator="out"/><feColorMatrix values="0 0 0 0 0.788235 0 0 0 0 0.698039 0 0 0 0 0.780392 0 0 0 1 0"/><feBlend in2="BackgroundImageFix" result="effect1_dropShadow_1044_1704"/><feBlend in="SourceGraphic" in2="effect1_dropShadow_1044_1704" result="shape"/><feGaussianBlur result="effect2_foregroundBlur_1044_1704" stdDeviation="97.266"/></filter><filter id="g" width="1076.24" height="1007.52" x="-356.183" y="138.932" color-interpolation-filters="sRGB" filterUnits="userSpaceOnUse"><feFlood flood-opacity="0" result="BackgroundImageFix"/><feColorMatrix in="SourceAlpha" result="hardAlpha" values="0 0 0 0 0 0 0 0 0 0 0 0 0 0 0 0 0 0 127 0"/><feOffset/><feGaussianBlur stdDeviation="32.422"/><feComposite in2="hardAlpha" operator="out"/><feColorMatrix values="0 0 0 0 0.788235 0 0 0 0 0.698039 0 0 0 0 0.780392 0 0 0 1 0"/><feBlend in2="BackgroundImageFix" result="effect1_dropShadow_1044_1704"/><feBlend in="SourceGraphic" in2="effect1_dropShadow_1044_1704" result="shape"/><feGaussianBlur result="effect2_foregroundBlur_1044_1704" stdDeviation="97.266"/></filter><filter id="h" width="2083.13" height="1326.88" x="-649.516" y="-240.408" color-interpolation-filters="sRGB" filterUnits="userSpaceOnUse"><feFlood flood-opacity="0" result="BackgroundImageFix"/><feBlend in="SourceGraphic" in2="BackgroundImageFix" result="shape"/><feGaussianBlur result="effect1_foregroundBlur_1044_1704" stdDeviation="97.266"/></filter><clipPath id="a"><rect width="746.768" height="746.768" x=".832" y=".402" fill="#fff" rx="373.384"/></clipPath><clipPath id="b"><path fill="#fff" d="M1022.66 957.59H-274.23V228.091h1296.89z"/></clipPath></defs></svg>
